#N canvas 771 238 578 492 12;
#X obj 41 48 noise~;
#X obj 64 440 dac~;
#X obj 58 169 line~;
#X obj 40 271 *~;
#X msg 62 102 1 500;
#X msg 79 130 0 500;
#X obj 189 175 hsl 128 15 0 1 0 0 empty set-pan empty -2 -6 0 8 #fcfcfc #000000 #000000 0 1;
#X obj 41 394 *~;
#X obj 123 396 *~;
#X obj 84 313 line~;
#X obj 188 317 line~;
#X text 159 393 change gain for channel according to constant-power formula, f 35;
#X text 170 135 control input: pan angle;
#X text 236 311 create smooth (10 msec) transition to new pan angle, f 28;
#X text 115 103 turn on and off noise generator;
#X text 187 154 0 = left \, 1 = right;
#X obj 41 75 *~ 0.05;
#X obj 433 34 loadbang;
#X msg 433 61 \; pd dsp 1 \; set-pan 0.5 \;;
#X text 240 272 combine value with 10 msec ramp time in a list, f 27;
#X obj 84 210 expr 1-$f1;
#X msg 188 275 \$1 10;
#X floatatom 187 243 5 0 0 0 - - - 0;
#X floatatom 84 244 5 0 0 0 - - - 0;
#X msg 84 275 \$1 10;
#X text 178 32 Linear stereo panning;
#N canvas 1218 436 330 409 mixing 0;
#X obj 46 234 +~;
#X obj 139 170 *~;
#X obj 46 184 *~;
#X obj 68 113 sig~ 1;
#X obj 68 151 -~;
#X msg 160 71 \$1 50;
#X obj 160 97 line~;
#X obj 46 46 osc~ 300;
#X obj 139 140 osc~ 400;
#X obj 46 286 *~;
#X obj 32 326 dac~;
#X obj 143 286 *~;
#X obj 143 322 dac~;
#X obj 172 253 *~;
#X text 21 354 Mixing;
#X text 133 354 Panning;
#X obj 163 47 hsl 128 15 0 1 0 0 empty empty empty -2 -8 0 10 #fcfcfc #000000 #000000 0 1;
#X obj 67 261 tgl 15 0 empty empty empty 17 7 0 10 #fcfcfc #000000 #000000 0 1;
#X obj 164 205 tgl 15 0 empty empty empty 17 7 0 10 #fcfcfc #000000 #000000 0 1;
#X connect 0 0 9 0;
#X connect 1 0 0 1;
#X connect 1 0 13 0;
#X connect 2 0 0 0;
#X connect 2 0 11 0;
#X connect 3 0 4 0;
#X connect 4 0 2 1;
#X connect 5 0 6 0;
#X connect 6 0 1 1;
#X connect 6 0 4 1;
#X connect 7 0 2 0;
#X connect 8 0 1 0;
#X connect 9 0 10 0;
#X connect 9 0 10 1;
#X connect 11 0 12 0;
#X connect 13 0 12 1;
#X connect 16 0 5 0;
#X connect 17 0 9 1;
#X connect 18 0 11 1;
#X connect 18 0 13 1;
#X restore 253 445 pd mixing vs panning;
#X obj 392 222 -;
#X obj 392 170 t b f;
#X msg 392 196 1;
#X obj 395 147 hsl 128 15 0 1 0 0 empty empty empty -2 -8 0 10 #fcfcfc #000000 #000000 0 1;
#X text 197 212 same construction as:;
#X floatatom 391 247 5 0 0 0 - - - 0;
#X floatatom 441 248 5 0 0 0 - - - 0;
#X connect 0 0 16 0;
#X connect 2 0 3 1;
#X connect 3 0 7 0;
#X connect 3 0 8 0;
#X connect 4 0 2 0;
#X connect 5 0 2 0;
#X connect 6 0 20 0;
#X connect 6 0 22 0;
#X connect 7 0 1 0;
#X connect 8 0 1 1;
#X connect 9 0 7 1;
#X connect 10 0 8 1;
#X connect 16 0 3 0;
#X connect 17 0 18 0;
#X connect 20 0 23 0;
#X connect 21 0 10 0;
#X connect 22 0 21 0;
#X connect 23 0 24 0;
#X connect 24 0 9 0;
#X connect 27 0 32 0;
#X connect 28 0 29 0;
#X connect 28 1 27 1;
#X connect 28 1 33 0;
#X connect 29 0 27 0;
#X connect 30 0 28 0;
