#N canvas 576 186 694 611 12;
#X obj 30 475 *~;
#X obj 83 477 *~;
#X obj 48 328 vsl 15 128 0 1 0 0 empty empty empty 0 -8 0 8 #fcfcfc #000000 #000000 0 1;
#X obj 101 327 vsl 15 128 0 1 0 0 empty empty empty 0 -8 0 8 #fcfcfc #000000 #000000 0 1;
#X obj 49 566 dac~;
#X obj 48 518 +~;
#X obj 273 529 s~ feedback;
#X obj 273 495 *~;
#X obj 346 132 r~ feedback;
#X obj 158 207 +~;
#X obj 29 38 tgl 15 0 empty empty empty 0 -6 0 8 #fcfcfc #000000 #000000 0 1;
#X obj 29 123 readsf~ 2;
#X obj 158 231 delwrite~ height 3000;
#X obj 167 286 delread~ height 100;
#X obj 328 206 +~;
#X obj 328 231 delwrite~ width 3000;
#X obj 185 337 delread~ width 100;
#X obj 482 207 +~;
#X obj 482 232 delwrite~ length 3000;
#X obj 186 414 delread~ length 100;
#X obj 167 361 +~;
#X obj 168 441 +~;
#X floatatom 185 312 5 0 0 1 width width - 0;
#X floatatom 186 390 5 0 0 1 length length - 0;
#X obj 294 443 hsl 128 15 0 0.5 0 0 empty feedback empty -2 -8 0 10 #fcfcfc #000000 #000000 0 1;
#X obj 29 59 t f b;
#X msg 111 124 1;
#X obj 498 55 loadbang;
#X floatatom 291 467 5 0 0 0 - - - 0;
#N canvas 348 403 200 271 xfade 0;
#X obj 40 27 inlet;
#X msg 42 148 1;
#X obj 123 220 outlet;
#X obj 43 220 outlet;
#X obj 43 181 -;
#X obj 42 119 t b f;
#X obj 41 83 line;
#X obj 41 55 pack \$1 100;
#X connect 0 0 7 0;
#X connect 1 0 4 0;
#X connect 4 0 3 0;
#X connect 5 0 1 0;
#X connect 5 1 4 1;
#X connect 6 0 5 0;
#X connect 6 0 2 0;
#X connect 7 0 6 0;
#X restore 48 291 pd xfade;
#X obj 66 257 hsl 80 15 0 1 0 0 empty xfade empty -2 -8 0 10 #fcfcfc #000000 #000000 0 1;
#X floatatom 168 259 5 0 0 1 height height - 0;
#X msg 500 93 \; height 79 \; width 93 \; length 178 \; feedback 0.07 \; xfade 0 \;;
#X obj 44 169 adc~ 1;
#X text 394 531 (c) 2019 AChim Bornhoeft;
#X msg 61 87 open ../Sounds/1-4.wav;
#X text 119 28 Simple simulation of room echos;
#X connect 0 0 5 0;
#X connect 1 0 5 1;
#X connect 2 0 0 1;
#X connect 3 0 1 1;
#X connect 5 0 4 0;
#X connect 5 0 4 1;
#X connect 7 0 6 0;
#X connect 8 0 9 1;
#X connect 8 0 14 1;
#X connect 8 0 17 1;
#X connect 9 0 12 0;
#X connect 10 0 25 0;
#X connect 11 0 9 0;
#X connect 11 0 0 0;
#X connect 11 0 14 0;
#X connect 11 0 17 0;
#X connect 11 2 26 0;
#X connect 13 0 20 0;
#X connect 14 0 15 0;
#X connect 16 0 20 1;
#X connect 17 0 18 0;
#X connect 19 0 21 1;
#X connect 20 0 21 0;
#X connect 21 0 7 0;
#X connect 21 0 1 0;
#X connect 22 0 16 0;
#X connect 23 0 19 0;
#X connect 24 0 28 0;
#X connect 25 0 11 0;
#X connect 25 1 35 0;
#X connect 26 0 25 0;
#X connect 27 0 32 0;
#X connect 28 0 7 1;
#X connect 29 0 2 0;
#X connect 29 1 3 0;
#X connect 30 0 29 0;
#X connect 31 0 13 0;
#X connect 33 0 0 0;
#X connect 33 0 9 0;
#X connect 33 0 14 0;
#X connect 33 0 17 0;
#X connect 35 0 11 0;
