#N canvas 800 290 300 552 12;
#X obj 57 303 rev1~;
#X obj 57 195 readsf~;
#X obj 76 227 hsl 128 15 0 100 0 0 empty empty decay(0-100) 8 8 0 10 #fcfcfc #000000 #000000 0 1;
#X obj 57 469 dac~;
#X obj 57 432 *~;
#X floatatom 75 356 5 0 0 1 volume - - 0;
#X obj 75 406 line~;
#X obj 75 380 pack 0 10;
#X obj 124 513 rev2~;
#X obj 190 513 rev3~;
#X text 23 514 see also:;
#X text 57 23 Basic reverb;
#X obj 127 199 bng 15 250 50 0 empty empty empty 17 7 0 10 #fcfcfc #000000 #000000;
#X obj 57 64 tgl 15 0 dummy dummy Start/Stop 17 7 0 10 #fcfcfc #000000 #000000 0 1;
#X obj 89 279 bng 15 250 50 0 empty empty empty 17 7 0 10 #fcfcfc #000000 #000000;
#X text 108 280 Reset;
#X floatatom 73 254 5 0 0 0 - - - 0;
#X obj 57 90 sel 0 1;
#X msg 57 123 0;
#X obj 79 332 hsl 128 15 0 1 0 0 empty empty empty -2 -8 0 10 #fcfcfc #000000 #000000 0 1;
#X msg 83 146 open ../Sounds/1-4.wav \, 1;
#X connect 0 0 4 0;
#X connect 1 0 0 0;
#X connect 1 1 12 0;
#X connect 2 0 16 0;
#X connect 4 0 3 0;
#X connect 4 0 3 1;
#X connect 5 0 7 0;
#X connect 6 0 4 1;
#X connect 7 0 6 0;
#X connect 12 0 20 0;
#X connect 13 0 17 0;
#X connect 14 0 0 2;
#X connect 16 0 0 1;
#X connect 17 0 18 0;
#X connect 17 1 20 0;
#X connect 18 0 1 0;
#X connect 19 0 5 0;
#X connect 20 0 1 0;
