#N canvas 438 23 712 231 12;
#X declare -path abs;
#N canvas 187 129 956 435 setting_points 0;
#N canvas 4 23 1276 742 inside 0;
#X floatatom 60 288 5 0 0 0 - - -;
#X floatatom 209 531 5 0 0 0 - - -;
#X obj 37 243 hip~ 5;
#X obj 186 361 t f f;
#X obj 36 419 t f f;
#X obj 36 449 -;
#X floatatom 36 474 5 0 0 0 - - -;
#X obj 36 600 sel 1;
#X obj 36 577 change;
#X obj 33 669 spigot;
#X text 86 548 abs;
#X obj 186 580 tgl 15 0 empty empty empty 17 7 0 10 -262144 -1 -1 1
1;
#X obj 185 556 > 60;
#X obj 33 697 s onset;
#X obj 37 547 > 1.5;
#X obj 402 69 r onset;
#X floatatom 420 289 5 0 0 0 - - -;
#X floatatom 403 359 5 36 144 0 - - -;
#X obj 402 382 t b f;
#X obj 402 406 f;
#X obj 402 430 + 1;
#X obj 402 478 pack;
#X obj 401 311 f;
#X obj 404 505 clone clone-sines 200;
#X obj 402 454 mod 200;
#N canvas 0 23 450 300 cpu 0;
#X floatatom 99 238 0 0 0 0 - - -;
#X obj 99 150 cputime;
#X obj 99 30 loadbang;
#X obj 99 94 metro 1000;
#X obj 99 122 t b b;
#X obj 99 210 * 0.1;
#X obj 99 179 int;
#X text 76 279 CPU load in percent;
#X text 122 60 <= on/off;
#X obj 99 61 tgl 15 0 empty empty empty 17 7 0 10 -262144 -1 -1 1 1
;
#X obj 126 238 outlet;
#X connect 0 0 10 0;
#X connect 1 0 6 0;
#X connect 2 0 9 0;
#X connect 3 0 4 0;
#X connect 4 0 1 0;
#X connect 4 1 1 1;
#X connect 5 0 0 0;
#X connect 6 0 5 0;
#X connect 9 0 3 0;
#X restore 184 198 pd cpu;
#X floatatom 184 221 0 0 0 0 - - -;
#X text 205 222 %;
#X obj 400 214 spigot;
#X text 213 512 thresh dB;
#X obj 1116 694 dac~;
#X obj 36 395 pipe 25;
#X obj 401 92 delay 25;
#X obj 60 266 env~ 4092;
#X text 191 446 min-step up (dB) \; to trigger;
#X text 24 629 cheap onset detection \; threshold dB & frame-difference
thrsh;
#X obj 60 160 s~ insig;
#X obj 624 397 f;
#X obj 624 421 + 1;
#N canvas 55 24 592 641 params 0;
#X obj 88 36 inlet;
#X text 42 62 idx;
#X obj 106 116 t b b b;
#X obj 91 570 outlet;
#X obj 274 41 inlet;
#X text 318 43 tracked frq;
#X obj 92 539 pack f f f f f f f f f f f;
#X obj 88 63 t f b b b;
#X floatatom 109 181 5 0 0 0 - - -;
#X obj 108 158 brown 0 0.2 0.1;
#X floatatom 125 230 5 0 0 0 - - -;
#X obj 154 293 sel 0 1 2;
#X msg 154 319 -12;
#X msg 184 320 0;
#X floatatom 153 366 5 0 0 0 - - -;
#X text 146 180 start;
#X text 163 233 end;
#X text 194 368 trsp;
#X floatatom 365 471 5 0 0 0 - - -;
#X text 402 470 Q;
#X obj 364 448 brown 0.85 1 0.1;
#X obj 364 422 t b;
#X text 168 115 playArray;
#X msg 213 320 -6;
#X obj 155 270 wrand 5 8 3;
#X obj 274 71 t f f;
#X floatatom 382 126 5 0 0 0 - - -;
#X obj 126 207 brown 0.25 0.5 0.15;
#N canvas 651 23 540 742 frq 0;
#X obj 148 246 >= 3;
#X obj 141 192 t b a;
#X floatatom 141 165 5 0 0 0 - - -;
#X obj 51 245 list-filter;
#X obj 50 276 list split 1;
#X floatatom 53 298 11 0 0 0 - - -;
#X obj 51 40 loadbang;
#X obj 143 139 inlet;
#X obj 61 533 outlet;
#X text 198 166 tracked freq;
#X text 140 296 find area;
#X text 67 106 5 bereiche -> 5 versch. lagen -> env params-gruppen
;
#X msg 51 66 250 400 800 1600 3200;
#X obj 81 332 sel 250 400 800 1600 3200;
#X obj 103 563 outlet;
#X obj 139 539 outlet;
#X obj 173 569 outlet;
#X obj 212 535 outlet;
#N canvas 83 253 572 317 env: 0;
#X obj 71 104 brown 0.1 0.5 0.25;
#X floatatom 71 130 5 0 0 0 - - -;
#X text 111 134 amp;
#X obj 76 29 inlet;
#X obj 77 54 t b b b b b;
#X floatatom 153 167 5 0 0 0 - - -;
#X obj 153 141 brown 5000 6000 1000;
#X floatatom 211 221 5 0 0 0 - - -;
#X obj 211 195 brown 1000 2000 1000;
#X msg 236 111 0;
#X floatatom 323 169 5 0 0 0 - - -;
#X obj 323 142 brown 5000 6000 1000;
#X text 193 171 att;
#X text 251 225 sus;
#X text 363 172 rel;
#X obj 80 266 outlet;
#X obj 150 265 outlet;
#X obj 215 263 outlet;
#X obj 285 262 outlet;
#X obj 339 261 outlet;
#X connect 0 0 1 0;
#X connect 1 0 15 0;
#X connect 3 0 4 0;
#X connect 4 0 0 0;
#X connect 4 1 6 0;
#X connect 4 2 8 0;
#X connect 4 3 9 0;
#X connect 4 4 11 0;
#X connect 5 0 16 0;
#X connect 6 0 5 0;
#X connect 7 0 17 0;
#X connect 8 0 7 0;
#X connect 9 0 18 0;
#X connect 10 0 19 0;
#X connect 11 0 10 0;
#X restore 67 375 pd env: lowest notes;
#N canvas 83 253 572 317 env: 0;
#X obj 71 104 brown 0.1 0.5 0.25;
#X floatatom 71 130 5 0 0 0 - - -;
#X text 111 134 amp;
#X obj 76 29 inlet;
#X obj 77 54 t b b b b b;
#X floatatom 153 167 5 0 0 0 - - -;
#X obj 153 141 brown 5000 6000 1000;
#X floatatom 211 221 5 0 0 0 - - -;
#X obj 211 195 brown 1000 2000 1000;
#X msg 236 111 0;
#X floatatom 323 169 5 0 0 0 - - -;
#X obj 323 142 brown 5000 6000 1000;
#X text 193 171 att;
#X text 251 225 sus;
#X text 363 172 rel;
#X obj 80 266 outlet;
#X obj 150 265 outlet;
#X obj 215 263 outlet;
#X obj 285 262 outlet;
#X obj 339 261 outlet;
#X connect 0 0 1 0;
#X connect 1 0 15 0;
#X connect 3 0 4 0;
#X connect 4 0 0 0;
#X connect 4 1 6 0;
#X connect 4 2 8 0;
#X connect 4 3 9 0;
#X connect 4 4 11 0;
#X connect 5 0 16 0;
#X connect 6 0 5 0;
#X connect 7 0 17 0;
#X connect 8 0 7 0;
#X connect 9 0 18 0;
#X connect 10 0 19 0;
#X connect 11 0 10 0;
#X restore 63 421 pd env: mid notes;
#X f 21;
#N canvas 83 253 572 317 env: 0;
#X obj 71 104 brown 0.1 0.5 0.25;
#X floatatom 71 130 5 0 0 0 - - -;
#X text 111 134 amp;
#X obj 76 29 inlet;
#X obj 77 54 t b b b b b;
#X floatatom 153 167 5 0 0 0 - - -;
#X obj 153 141 brown 5000 6000 1000;
#X floatatom 211 221 5 0 0 0 - - -;
#X obj 211 195 brown 1000 2000 1000;
#X msg 236 111 0;
#X floatatom 323 169 5 0 0 0 - - -;
#X obj 323 142 brown 5000 6000 1000;
#X text 193 171 att;
#X text 251 225 sus;
#X text 363 172 rel;
#X obj 80 266 outlet;
#X obj 150 265 outlet;
#X obj 215 263 outlet;
#X obj 285 262 outlet;
#X obj 339 261 outlet;
#X connect 0 0 1 0;
#X connect 1 0 15 0;
#X connect 3 0 4 0;
#X connect 4 0 0 0;
#X connect 4 1 6 0;
#X connect 4 2 8 0;
#X connect 4 3 9 0;
#X connect 4 4 11 0;
#X connect 5 0 16 0;
#X connect 6 0 5 0;
#X connect 7 0 17 0;
#X connect 8 0 7 0;
#X connect 9 0 18 0;
#X connect 10 0 19 0;
#X connect 11 0 10 0;
#X restore 65 454 pd env: higher notes;
#X f 21;
#N canvas 83 253 572 317 env: 0;
#X obj 71 104 brown 0.1 0.5 0.25;
#X floatatom 71 130 5 0 0 0 - - -;
#X text 111 134 amp;
#X obj 76 29 inlet;
#X obj 77 54 t b b b b b;
#X floatatom 153 167 5 0 0 0 - - -;
#X obj 153 141 brown 5000 6000 1000;
#X floatatom 211 221 5 0 0 0 - - -;
#X obj 211 195 brown 1000 2000 1000;
#X msg 236 111 0;
#X floatatom 323 169 5 0 0 0 - - -;
#X obj 323 142 brown 5000 6000 1000;
#X text 193 171 att;
#X text 251 225 sus;
#X text 363 172 rel;
#X obj 80 266 outlet;
#X obj 150 265 outlet;
#X obj 215 263 outlet;
#X obj 285 262 outlet;
#X obj 339 261 outlet;
#X connect 0 0 1 0;
#X connect 1 0 15 0;
#X connect 3 0 4 0;
#X connect 4 0 0 0;
#X connect 4 1 6 0;
#X connect 4 2 8 0;
#X connect 4 3 9 0;
#X connect 4 4 11 0;
#X connect 5 0 16 0;
#X connect 6 0 5 0;
#X connect 7 0 17 0;
#X connect 8 0 7 0;
#X connect 9 0 18 0;
#X connect 10 0 19 0;
#X connect 11 0 10 0;
#X restore 65 480 pd env: high notes;
#X f 22;
#N canvas 83 253 572 317 env: 0;
#X obj 71 104 brown 0.1 0.5 0.25;
#X floatatom 71 130 5 0 0 0 - - -;
#X text 111 134 amp;
#X obj 76 29 inlet;
#X obj 77 54 t b b b b b;
#X floatatom 153 167 5 0 0 0 - - -;
#X obj 153 141 brown 5000 6000 1000;
#X floatatom 211 221 5 0 0 0 - - -;
#X obj 211 195 brown 1000 2000 1000;
#X msg 236 111 0;
#X floatatom 323 169 5 0 0 0 - - -;
#X obj 323 142 brown 5000 6000 1000;
#X text 193 171 att;
#X text 251 225 sus;
#X text 363 172 rel;
#X obj 80 266 outlet;
#X obj 150 265 outlet;
#X obj 215 263 outlet;
#X obj 285 262 outlet;
#X obj 339 261 outlet;
#X connect 0 0 1 0;
#X connect 1 0 15 0;
#X connect 3 0 4 0;
#X connect 4 0 0 0;
#X connect 4 1 6 0;
#X connect 4 2 8 0;
#X connect 4 3 9 0;
#X connect 4 4 11 0;
#X connect 5 0 16 0;
#X connect 6 0 5 0;
#X connect 7 0 17 0;
#X connect 8 0 7 0;
#X connect 9 0 18 0;
#X connect 10 0 19 0;
#X connect 11 0 10 0;
#X restore 65 399 pd env: low notes;
#X f 21;
#X text 279 440 todo;
#X connect 0 0 3 1;
#X connect 1 0 3 0;
#X connect 1 1 0 1;
#X connect 2 0 1 0;
#X connect 3 0 4 0;
#X connect 3 1 0 0;
#X connect 4 0 5 0;
#X connect 5 0 13 0;
#X connect 6 0 12 0;
#X connect 7 0 2 0;
#X connect 12 0 3 0;
#X connect 13 0 18 0;
#X connect 13 1 22 0;
#X connect 13 2 19 0;
#X connect 13 3 20 0;
#X connect 13 4 21 0;
#X connect 18 0 8 0;
#X connect 18 1 14 0;
#X connect 18 2 15 0;
#X connect 18 3 16 0;
#X connect 18 4 17 0;
#X connect 19 0 8 0;
#X connect 19 1 14 0;
#X connect 19 2 15 0;
#X connect 19 3 16 0;
#X connect 19 4 17 0;
#X connect 20 0 8 0;
#X connect 20 1 14 0;
#X connect 20 2 15 0;
#X connect 20 3 16 0;
#X connect 20 4 17 0;
#X connect 21 0 8 0;
#X connect 21 1 14 0;
#X connect 21 2 15 0;
#X connect 21 3 16 0;
#X connect 21 4 17 0;
#X connect 22 0 8 0;
#X connect 22 1 14 0;
#X connect 22 2 15 0;
#X connect 22 3 16 0;
#X connect 22 4 17 0;
#X restore 381 153 pd frq dependent envs;
#X text 424 135 frq;
#X connect 0 0 7 0;
#X connect 2 0 9 0;
#X connect 2 1 27 0;
#X connect 2 2 24 0;
#X connect 4 0 25 0;
#X connect 6 0 3 0;
#X connect 7 0 6 0;
#X connect 7 1 2 0;
#X connect 7 3 21 0;
#X connect 8 0 6 1;
#X connect 9 0 8 0;
#X connect 10 0 6 2;
#X connect 11 0 12 0;
#X connect 11 1 13 0;
#X connect 11 2 23 0;
#X connect 12 0 14 0;
#X connect 13 0 14 0;
#X connect 14 0 6 3;
#X connect 18 0 6 10;
#X connect 20 0 18 0;
#X connect 21 0 20 0;
#X connect 23 0 14 0;
#X connect 24 0 11 0;
#X connect 25 0 6 9;
#X connect 25 1 26 0;
#X connect 26 0 28 0;
#X connect 27 0 10 0;
#X connect 28 0 6 4;
#X connect 28 1 6 5;
#X connect 28 2 6 6;
#X connect 28 3 6 7;
#X connect 28 4 6 8;
#X restore 625 476 pd params;
#X obj 624 445 mod 20;
#X obj 626 502 clone clone-arrays 20;
#X obj 419 264 r trackedFrq1;
#X floatatom 705 295 5 0 0 0 - - -;
#X obj 686 319 f;
#X obj 704 270 r trackedFrq2;
#X obj 623 359 t b b;
#X floatatom 686 361 5 36 144 0 - - -;
#X obj 402 335 t f b;
#X obj 864 74 r~ insig;
#X obj 36 335 vu-meter-in 100;
#X obj 399 239 speedlimit 100;
#X text 502 238 limit;
#X obj 38 218 r~ insig;
#X obj 891 504 *~;
#X obj 863 98 rev3~ 100 90 1800 75;
#N canvas 84 61 389 262 get 0;
#X floatatom 52 160 5 0 0 0 - - -;
#X obj 50 135 unpack;
#N canvas 187 131 248 452 range 0;
#X obj 29 25 inlet~;
#X obj 36 331 outlet~;
#X obj 33 154 hip~;
#X obj 66 118 mtof;
#X obj 33 179 hip~;
#X obj 72 218 mtof;
#X obj 39 254 lop~;
#X obj 39 279 lop~;
#X msg 72 191 100;
#X msg 66 91 44;
#X obj 67 65 r init;
#X text 21 358 tracking/analysis-range \; ca100-3600Hz;
#X connect 0 0 2 0;
#X connect 2 0 4 0;
#X connect 3 0 2 1;
#X connect 3 0 4 1;
#X connect 4 0 6 0;
#X connect 5 0 6 1;
#X connect 5 0 7 1;
#X connect 6 0 7 0;
#X connect 7 0 1 0;
#X connect 8 0 5 0;
#X connect 9 0 3 0;
#X connect 10 0 9 0;
#X connect 10 0 8 0;
#X restore 54 47 pd range sig~;
#X obj 53 79 sigmund~ -maxfreq 3600 -npeak 2 peaks;
#X obj 53 184 s trackedFrq1;
#X obj 53 107 route 0 1;
#X floatatom 161 161 5 0 0 0 - - -;
#X obj 159 136 unpack;
#X obj 161 183 s trackedFrq2;
#X obj 52 25 inlet~;
#X connect 0 0 4 0;
#X connect 1 0 0 0;
#X connect 2 0 3 0;
#X connect 3 0 5 0;
#X connect 5 0 1 0;
#X connect 5 1 7 0;
#X connect 6 0 8 0;
#X connect 7 0 6 0;
#X connect 9 0 2 0;
#X restore 38 184 pd get freqs;
#X obj 889 401 r~ insig;
#N canvas 642 151 524 368 pan~ 0;
#X obj 153 88 expr ($f1*$f2/2)-$f2/4;
#X obj 302 64 f 3.14159;
#X text 369 65 pi;
#X obj 302 40 loadbang;
#X obj 153 62 clip 0 1;
#X obj 153 142 expr (cos($f1)+sin($f1))*(sqrt(2)/2);
#X obj 261 168 expr (cos($f1)-sin($f1))*(sqrt(2)/2);
#X text 186 114 angle;
#X obj 153 33 inlet;
#X obj 155 238 line~;
#X obj 263 240 line~;
#X obj 29 334 outlet~;
#X obj 128 327 outlet~;
#X obj 27 33 inlet~;
#X obj 29 300 *~;
#X obj 128 299 *~;
#X text 162 166 right;
#X text 270 190 left;
#X obj 155 217 pack 0 50;
#X obj 263 218 pack 0 50;
#X connect 0 0 5 0;
#X connect 0 0 6 0;
#X connect 1 0 0 1;
#X connect 3 0 1 0;
#X connect 4 0 0 0;
#X connect 5 0 18 0;
#X connect 6 0 19 0;
#X connect 8 0 4 0;
#X connect 9 0 15 1;
#X connect 10 0 14 1;
#X connect 13 0 14 0;
#X connect 13 0 15 0;
#X connect 14 0 11 0;
#X connect 15 0 12 0;
#X connect 18 0 9 0;
#X connect 19 0 10 0;
#X restore 893 631 pd pan~;
#X obj 1108 369 catch~ left;
#X obj 1135 394 catch~ right;
#X obj 892 661 throw~ left;
#X obj 940 686 throw~ right;
#X msg 939 607 0.5;
#X obj 939 581 r init;
#X text 896 707 live signal (center);
#N canvas 0 23 450 300 filter 0;
#X obj 164 240 outlet;
#X text 182 153 todo;
#X text 186 181 frq depndent lpf;
#X restore 973 70 pd filter params;
#X obj 418 645 vu-meter-in 100;
#X obj 423 557 pack f 25;
#X obj 423 580 line~;
#X obj 405 621 *~;
#X obj 503 620 *~;
#X obj 404 694 throw~ left;
#X obj 503 694 throw~ right;
#X obj 657 558 pack f 25;
#X obj 657 581 line~;
#X obj 629 617 *~;
#X obj 737 619 *~;
#X obj 630 693 throw~ left;
#X obj 738 693 throw~ right;
#X text 475 716 sines;
#X text 720 712 arrays;
#X obj 423 534 r sinesAmp;
#X obj 417 669 s sinesVU;
#X obj 656 533 r arraysAmp;
#X obj 647 645 vu-meter-in 100;
#X obj 646 669 s arraysVU;
#X obj 882 166 pack f 25;
#X obj 882 189 line~;
#X obj 865 261 *~;
#X obj 973 263 *~;
#X obj 866 337 throw~ left;
#X obj 974 337 throw~ right;
#X obj 883 289 vu-meter-in 100;
#X text 956 356 rev on pno;
#X obj 913 533 vu-meter-in 100;
#X obj 908 456 pack f 25;
#X obj 908 479 line~;
#X obj 907 431 r pnoAmp;
#X obj 912 557 s pnoVU;
#X obj 881 141 r pnoRevAmp;
#X obj 882 313 s pnoRevVU;
#X obj 437 170 r armedTgl;
#X obj 439 192 tgl 15 0 empty empty empty 17 7 0 10 -262144 -1 -1 1
1;
#X text 455 192 tracking armed;
#X obj 398 117 s onsetBngGuiIn;
#X obj 399 140 r onsetBngGuiOut;
#X obj 36 358 s micIn;
#X obj 186 335 r inEnvOut;
#X obj 60 309 s inEnvIn;
#X obj 209 491 r inAmpThrs;
#X obj 70 521 r diffThrs;
#X obj 45 497 s diffThrsGui;
#X text 266 337 via gui;
#X floatatom 218 386 5 0 0 0 - - -;
#X text 1124 344 sum all;
#X obj 370 238 bng 15 250 50 0 empty empty empty 17 7 0 10 -262144
-1 -1;
#X obj 37 133 inswitch~;
#X obj 36 109 adc~ 1;
#X msg 158 34 0;
#X obj 158 11 r init;
#X obj 157 56 s switchIn;
#X obj 65 56 r switchOut;
#X obj 1143 655 *~;
#X obj 1164 520 r muteOut;
#X obj 1162 592 pack f 25;
#X obj 1162 615 line~;
#X obj 1113 654 *~;
#X obj 1160 442 r init;
#X msg 1161 466 1;
#X obj 1162 489 s muteIn;
#X obj 1165 548 expr 1-$f1;
#X obj 1165 572 tgl 15 0 empty empty empty 17 7 0 10 -262144 -1 -1
1 1;
#X obj 66 82 play-sf-mono~ ./snd/testfile.wav 1;
#X connect 0 0 109 0;
#X connect 1 0 12 1;
#X connect 2 0 33 0;
#X connect 2 0 50 0;
#X connect 3 0 12 0;
#X connect 3 1 31 0;
#X connect 3 1 114 0;
#X connect 4 0 5 1;
#X connect 4 1 5 0;
#X connect 5 0 6 0;
#X connect 6 0 14 0;
#X connect 6 0 112 0;
#X connect 7 0 9 0;
#X connect 8 0 7 0;
#X connect 9 0 13 0;
#X connect 11 0 9 1;
#X connect 12 0 11 0;
#X connect 14 0 8 0;
#X connect 15 0 32 0;
#X connect 16 0 22 1;
#X connect 17 0 18 0;
#X connect 18 0 19 0;
#X connect 18 1 21 1;
#X connect 19 0 20 0;
#X connect 20 0 24 0;
#X connect 21 0 23 0;
#X connect 22 0 48 0;
#X connect 23 0 70 0;
#X connect 23 1 71 0;
#X connect 24 0 19 1;
#X connect 24 0 21 0;
#X connect 25 0 26 0;
#X connect 28 0 51 0;
#X connect 28 0 116 0;
#X connect 31 0 4 0;
#X connect 32 0 105 0;
#X connect 33 0 0 0;
#X connect 37 0 38 0;
#X connect 38 0 40 0;
#X connect 39 0 41 0;
#X connect 40 0 37 1;
#X connect 40 0 39 0;
#X connect 41 0 76 0;
#X connect 41 1 77 0;
#X connect 42 0 16 0;
#X connect 43 0 44 1;
#X connect 44 0 47 0;
#X connect 45 0 43 0;
#X connect 46 0 37 0;
#X connect 46 1 44 0;
#X connect 47 0 39 1;
#X connect 48 0 17 0;
#X connect 48 1 46 0;
#X connect 49 0 55 0;
#X connect 50 0 107 0;
#X connect 51 0 22 0;
#X connect 53 0 2 0;
#X connect 54 0 58 0;
#X connect 54 0 95 0;
#X connect 55 0 89 0;
#X connect 55 1 90 0;
#X connect 57 0 54 0;
#X connect 58 0 61 0;
#X connect 58 1 62 0;
#X connect 59 0 127 0;
#X connect 60 0 123 0;
#X connect 63 0 58 1;
#X connect 64 0 63 0;
#X connect 66 0 55 4;
#X connect 67 0 83 0;
#X connect 68 0 69 0;
#X connect 69 0 70 1;
#X connect 69 0 71 1;
#X connect 70 0 67 0;
#X connect 70 0 72 0;
#X connect 71 0 73 0;
#X connect 74 0 75 0;
#X connect 75 0 76 1;
#X connect 75 0 77 1;
#X connect 76 0 78 0;
#X connect 76 0 85 0;
#X connect 77 0 79 0;
#X connect 82 0 68 0;
#X connect 84 0 74 0;
#X connect 85 0 86 0;
#X connect 87 0 88 0;
#X connect 88 0 89 1;
#X connect 88 0 90 1;
#X connect 89 0 91 0;
#X connect 89 0 93 0;
#X connect 90 0 92 0;
#X connect 93 0 101 0;
#X connect 95 0 99 0;
#X connect 96 0 97 0;
#X connect 97 0 54 1;
#X connect 98 0 96 0;
#X connect 100 0 87 0;
#X connect 102 0 103 0;
#X connect 103 0 28 1;
#X connect 106 0 28 0;
#X connect 108 0 3 0;
#X connect 110 0 1 0;
#X connect 111 0 14 1;
#X connect 117 0 36 0;
#X connect 117 0 56 0;
#X connect 118 0 117 0;
#X connect 119 0 121 0;
#X connect 120 0 119 0;
#X connect 122 0 117 2;
#X connect 122 0 133 0;
#X connect 123 0 30 1;
#X connect 124 0 131 0;
#X connect 125 0 126 0;
#X connect 126 0 123 1;
#X connect 126 0 127 1;
#X connect 127 0 30 0;
#X connect 128 0 129 0;
#X connect 129 0 130 0;
#X connect 131 0 132 0;
#X connect 132 0 125 0;
#X connect 133 0 117 1;
#X restore 745 164 pd inside;
#X obj 491 166 vsl 25 120 0 1 0 0 sinesAmp empty sinesAmp -20 -9 0
10 -262144 -258113 -1 2380 1;
#X obj 473 166 vu 15 120 sinesVU empty -1 -8 0 10 -66577 -1 0 0;
#X text 492 46 sines;
#X obj 553 165 vsl 25 120 0 1 0 0 arraysAmp empty arraysAmp -20 -9
0 10 -262144 -258113 -1 3927 1;
#X obj 535 165 vu 15 120 arraysVU empty -1 -8 0 10 -66577 -1 0 0;
#X text 554 45 arrays;
#X obj 620 165 vsl 25 120 0 1 0 0 pnoRevAmp empty pnoRevAmp -20 -9
0 10 -262144 -258113 -1 5950 1;
#X obj 602 165 vu 15 120 pnoRevVU empty -1 -8 0 10 -66577 -1 0 0;
#X text 621 45 rev;
#X msg 619 67 0.5;
#X obj 680 165 vsl 25 120 0 1 0 0 pnoAmp empty pnoAmp -20 -9 0 10 -262144
-258113 -1 3570 1;
#X obj 662 165 vu 15 120 pnoVU empty -1 -8 0 10 -66577 -1 0 0;
#X text 681 45 pno;
#X obj 193 168 tgl 120 0 armedTgl armedTglKey activate 3 -7 0 10 -262144
-258113 -1 1 1;
#X obj 321 168 bng 120 250 50 0 onsetBngGuiOut onsetBngGuiIn onset
3 -7 0 10 -262144 -258113 -1;
#X obj 69 165 vsl 8 120 40 100 0 0 inEnvOut inEnvIn empty 0 -9 0 10
-66577 -4034 -1 3197 1;
#X obj 79 165 vsl 25 120 40 100 0 0 inAmpThrs empty inAmpThrs -31 -9
0 10 -262144 -258113 -1 2683 1;
#X obj 51 165 vu 15 120 micIn empty -1 -8 0 10 -66577 -1 0 0;
#X floatatom 69 290 0 0 0 0 - - -;
#X msg 78 66 50;
#X obj 124 165 vsl 8 120 0 16 0 0 dummy diffThrsGui empty 0 -9 0 10
-66577 -4034 -1 0 1;
#X obj 134 165 vsl 25 120 0 15 0 0 diffThrs empty &tune -11 -9 0 10
-262144 -258113 -1 1567 1;
#X floatatom 124 290 0 0 0 0 - - -;
#X msg 131 66 5;
#X obj 26 47 r init;
#X obj 742 43 loadbang;
#X obj 743 67 s init;
#X text 792 67 init vals;
#X obj 746 191 declare -path abs;
#N canvas 0 23 315 199 help 0;
#X obj 113 28 inlet;
#X msg 165 87 click;
#X msg 111 111 read readMe.txt;
#X obj 111 137 text define help;
#X obj 113 87 r init;
#X obj 166 64 t b;
#X connect 0 0 5 0;
#X connect 1 0 3 0;
#X connect 2 0 3 0;
#X connect 4 0 2 0;
#X connect 5 0 1 0;
#X restore 746 317 pd help;
#N canvas 0 23 344 348 round 0;
#X obj 29 208 div;
#X obj 66 103 pow 2;
#X obj 29 50 t f b;
#X obj 29 152 *;
#X floatatom 29 263 10 0 0 0 - - -;
#X obj 66 78 f 10;
#X msg 186 49 3;
#X msg 146 48 1;
#X obj 29 180 + 0.5;
#X obj 29 236 /;
#X msg 104 48 0;
#X text 223 50 decimals;
#X text 79 179 Round to the correct integer;
#X obj 29 16 inlet;
#X obj 31 287 outlet;
#X connect 0 0 9 0;
#X connect 1 0 3 1;
#X connect 1 0 9 1;
#X connect 2 0 3 0;
#X connect 2 1 5 0;
#X connect 3 0 8 0;
#X connect 4 0 14 0;
#X connect 5 0 1 0;
#X connect 6 0 1 1;
#X connect 7 0 1 1;
#X connect 8 0 0 0;
#X connect 9 0 4 0;
#X connect 10 0 1 1;
#X connect 13 0 2 0;
#X restore 69 345 pd round;
#N canvas 0 23 344 348 round 0;
#X obj 29 208 div;
#X obj 66 103 pow 2;
#X obj 29 50 t f b;
#X obj 29 152 *;
#X floatatom 29 263 10 0 0 0 - - -;
#X obj 66 78 f 10;
#X msg 186 49 3;
#X msg 146 48 1;
#X obj 29 180 + 0.5;
#X obj 29 236 /;
#X msg 104 48 0;
#X text 223 50 decimals;
#X text 79 179 Round to the correct integer;
#X obj 29 16 inlet;
#X obj 31 287 outlet;
#X connect 0 0 9 0;
#X connect 1 0 3 1;
#X connect 1 0 9 1;
#X connect 2 0 3 0;
#X connect 2 1 5 0;
#X connect 3 0 8 0;
#X connect 4 0 14 0;
#X connect 5 0 1 0;
#X connect 6 0 1 1;
#X connect 7 0 1 1;
#X connect 8 0 0 0;
#X connect 9 0 4 0;
#X connect 10 0 1 1;
#X connect 13 0 2 0;
#X restore 131 345 pd round;
#X text 47 290 dB;
#X text 45 132 FREQ/ONSET TRACKING;
#X text 469 132 MIX OUTPUTS;
#X obj 193 134 tgl 15 0 switchOut switchIn testsample_(if_0_use_mic1)
17 7 0 10 -262144 -258113 -1 1 1;
#X text 192 289 key <space> to (de-)activate;
#X msg 490 67 0.2;
#X msg 552 67 0.33;
#X msg 679 67 0.3;
#X obj 690 298 bng 15 250 50 0 empty empty help -28 7 0 10 -262144
-1 -1;
#X obj 690 133 tgl 15 0 muteOut muteIn mute_all -55 7 0 10 -262144
-258113 -1 0 1;
#N canvas 0 23 247 254 key 0;
#X obj 47 35 key;
#X obj 48 143 speedlimit 500;
#X obj 47 167 s armedTglKey;
#X obj 47 62 sel 32 109;
#X obj 79 115 s muteIn;
#X msg 78 90 1;
#X text 90 39 space / m;
#X connect 0 0 3 0;
#X connect 1 0 2 0;
#X connect 3 0 1 0;
#X connect 3 1 5 0;
#X connect 5 0 4 0;
#X restore 745 279 pd key;
#X text 472 290 key <m> to mute all;
#X obj 690 115 bng 15 250 50 0 reset empty reset -38 7 0 10 -262144
-1 -1;
#X connect 10 0 7 0;
#X connect 17 0 31 0;
#X connect 20 0 17 0;
#X connect 22 0 32 0;
#X connect 24 0 22 0;
#X connect 25 0 24 0;
#X connect 25 0 20 0;
#X connect 25 0 38 0;
#X connect 25 0 39 0;
#X connect 25 0 10 0;
#X connect 25 0 40 0;
#X connect 26 0 27 0;
#X connect 31 0 19 0;
#X connect 32 0 23 0;
#X connect 38 0 1 0;
#X connect 39 0 4 0;
#X connect 40 0 11 0;
#X connect 41 0 30 0;
#X coords 0 -1 1 1 700 220 1 25 100;
#X restore 3 1 pd setting_points [klavier solo und elektronik];
