#N canvas 351 35 476 613 12;
#X floatatom 86 386 5 0 0 3 freq - frequency 0;
#X obj 24 252 vsl 15 128 0 1 0 0 empty amplitude-set empty 0 -8 0 8 #fcfcfc #000000 #000000 0 1;
#X obj 24 230 tgl 15 0 audio_on empty audio_on 18 8 0 12 #fcfcfc #000000 #000000 0 1;
#X obj 86 252 vsl 15 128 100 2000 0 0 empty frequency-set empty 0 -8 0 12 #fcfcfc #000000 #000000 0 1;
#X floatatom 24 386 5 0 0 3 amp - amplitude 0;
#N canvas 0 22 454 304 (subpatch) 0;
#X array display-03 110 float 0;
#X coords 0 1 109 -1 200 140 1;
#X restore 214 236 graph;
#X text 229 380 time;
#X text 179 347 amp;
#X text 18 55 The tonal quality \, or timbre of a sound is dependent upon the shape of its waveform \, or its path between compression and rarefaction.;
#X text 18 151 A sawtooth wave (phasor~ object) contains a great deal more sonic information.;
#X text 18 187 Noise (noise~) is the result of random fluctuations in pressure.;
#X obj 25 437 vradio 15 1 0 4 waveform waveform-set empty 0 -6 0 8 #fcfcfc #000000 #000000 0;
#X text 42 437 sine;
#X text 42 452 sawtooth;
#X text 42 467 noise;
#X text 18 103 So far we've been dealing with a "sine" wave (osc~ object) This is a very pure sound. It's lovely and extremely useful \, but on its own it's limited.;
#X text 42 481 drawit;
#N canvas 0 22 450 300 (subpatch) 0;
#X array drawit-03 110 float 0;
#X coords 0 1 109 -1 200 140 1;
#X restore 212 438 graph;
#X obj 25 504 bng 15 250 50 0 graphit empty redraw 18 8 0 12 #fcfcfc #000000 #000000;
#X text 20 24 Waveforms;
#N canvas 441 61 658 631 control 0;
#X obj 44 559 r graphit;
#X obj 66 533 dac~;
#X obj 71 306 line~;
#X obj 66 503 *~ 0.2;
#X obj 25 46 t b f;
#X obj 66 443 *~;
#X obj 34 256 t b f;
#X obj 25 22 r frequency;
#X obj 26 390 s graphit;
#X obj 35 232 r amplitude;
#X obj 71 287 pack 0 10;
#X obj 200 347 r waveform;
#X obj 133 115 phasor~ 440;
#X obj 56 115 osc~ 440;
#X obj 133 206 *~;
#X obj 56 161 *~;
#X obj 183 531 s sine;
#X obj 240 530 s saw;
#X obj 298 531 s noise;
#X obj 183 496 1;
#X obj 210 496 0;
#X obj 240 496 1;
#X obj 267 496 0;
#X obj 298 496 1;
#X obj 325 496 0;
#X obj 148 184 r saw;
#X obj 72 139 r sine;
#X obj 234 115 noise~;
#X obj 234 162 *~;
#X obj 254 138 r noise;
#X obj 200 378 t b f;
#X obj 121 450 s graphit;
#X obj 122 427 del 10;
#X obj 133 138 *~ 2;
#X obj 133 163 -~ 1;
#X obj 27 585 tabwrite~ display-03;
#X text 129 91 each with its own volume control;
#X text 279 347 from waveform selector radioboxes;
#X text 332 402 send 1 (on) or 0 (off) to;
#X text 332 415 volume controls on sound;
#X text 332 426 generators;
#X text 129 78 Four different sound generators \,;
#X obj 237 411 sel 0 1 2 3;
#X obj 357 496 1;
#X obj 384 496 0;
#X obj 357 532 s drawit;
#X obj 311 164 *~;
#X obj 326 138 r drawit;
#N canvas 106 126 195 140 drawit 0;
#X obj 16 76 tabread4~ drawit-03;
#X obj 17 13 r frequency;
#X obj 16 34 phasor~ 440;
#X obj 16 55 *~ 110;
#X obj 16 98 outlet~;
#X connect 0 0 4 0;
#X connect 1 0 2 0;
#X connect 2 0 3 0;
#X connect 3 0 0 0;
#X restore 312 113 pd drawit (see sampling;
#N canvas 46 42 327 390 init 0;
#X obj 44 46 r audio_on;
#X msg 73 112 \; pd dsp \$1;
#X obj 44 195 s graphit;
#X obj 44 81 t b f;
#X obj 44 157 del 10;
#X obj 42 244 loadbang;
#X obj 42 264 del 10;
#X msg 42 285 \; pd dsp 0 \; amplitude-set 0 \; frequency-set 440 \; waveform-set 0 \;;
#X connect 0 0 3 0;
#X connect 3 0 4 0;
#X connect 3 1 1 0;
#X connect 4 0 2 0;
#X connect 5 0 6 0;
#X connect 6 0 7 0;
#X restore 223 578 pd init;
#X connect 0 0 35 0;
#X connect 2 0 5 0;
#X connect 3 0 1 0;
#X connect 3 0 1 1;
#X connect 4 0 8 0;
#X connect 4 1 12 0;
#X connect 4 1 13 0;
#X connect 5 0 3 0;
#X connect 5 0 35 0;
#X connect 6 0 8 0;
#X connect 6 1 10 0;
#X connect 7 0 4 0;
#X connect 9 0 6 0;
#X connect 10 0 2 0;
#X connect 11 0 30 0;
#X connect 12 0 33 0;
#X connect 13 0 15 0;
#X connect 14 0 5 1;
#X connect 15 0 5 1;
#X connect 19 0 16 0;
#X connect 20 0 16 0;
#X connect 21 0 17 0;
#X connect 22 0 17 0;
#X connect 23 0 18 0;
#X connect 24 0 18 0;
#X connect 25 0 14 1;
#X connect 26 0 15 1;
#X connect 27 0 28 0;
#X connect 28 0 5 1;
#X connect 29 0 28 1;
#X connect 30 0 32 0;
#X connect 30 1 42 0;
#X connect 32 0 31 0;
#X connect 33 0 34 0;
#X connect 34 0 14 0;
#X connect 42 0 19 0;
#X connect 42 0 22 0;
#X connect 42 0 24 0;
#X connect 42 0 44 0;
#X connect 42 1 21 0;
#X connect 42 1 20 0;
#X connect 42 1 24 0;
#X connect 42 1 44 0;
#X connect 42 2 23 0;
#X connect 42 2 20 0;
#X connect 42 2 22 0;
#X connect 42 2 44 0;
#X connect 42 3 43 0;
#X connect 42 3 24 0;
#X connect 42 3 22 0;
#X connect 42 3 20 0;
#X connect 43 0 45 0;
#X connect 44 0 45 0;
#X connect 46 0 5 1;
#X connect 47 0 46 1;
#X connect 48 0 46 0;
#X restore 25 556 pd control;
#X text 216 447 draw a waveform here \,;
#X text 215 461 then click redraw:;
#X connect 1 0 4 0;
#X connect 3 0 0 0;
