#N canvas 500 219 547 473 12;
#N canvas 0 22 454 304 (subpatch) 0;
#X array \$0-sum 882 float 0;
#X coords 0 1 881 -1 200 130 1;
#X restore 284 279 graph;
#X text 284 417 ---- 0.02 seconds ----;
#X obj 119 385 tabwrite~ \$0-sum;
#X floatatom 37 176 5 0 0 0 - - - 0;
#X text 77 175 frequency;
#X text 249 364 -0.5;
#X obj 37 323 *~;
#X obj 38 387 dac~;
#X text 256 306 0.5;
#X text 262 399 -1;
#X text 271 272 1;
#X text 269 334 0;
#X obj 119 357 metro 100;
#X obj 119 332 tgl 15 0 empty empty draw_it 17 7 0 10 #fcfcfc #000000 #000000 0 1;
#X text 33 38 Square wave;
#X obj 37 229 expr~ if($v1 > 0 \, 1 \, -1);
#X obj 37 202 osc~;
#X text 217 228 if wave > 0 then 1 \, if else (lower) -1;
#X floatatom 55 295 5 0 1 0 - - - 0;
#X obj 59 266 hsl 162 19 0 1 0 0 empty empty empty -2 -10 0 12 #fcfcfc #000000 #000000 0 1;
#X msg 37 150 100;
#X obj 38 116 loadbang;
#X text 33 63 Since there is no generic object in PD \, square waveforms can be computed in the following way.;
#X connect 3 0 16 0;
#X connect 6 0 7 0;
#X connect 6 0 7 1;
#X connect 6 0 2 0;
#X connect 12 0 2 0;
#X connect 13 0 12 0;
#X connect 15 0 6 0;
#X connect 16 0 15 0;
#X connect 18 0 6 1;
#X connect 19 0 18 0;
#X connect 20 0 3 0;
#X connect 21 0 20 0;
