#N canvas 500 145 614 658 12;
#N canvas 0 22 454 304 (subpatch) 0;
#X array \$0-sum 882 float 0;
#X coords 0 1 881 -1 200 130 1;
#X restore 321 348 graph;
#X text 321 486 ---- 0.02 seconds ----;
#X obj 121 454 tabwrite~ \$0-sum;
#X floatatom 39 218 5 0 0 0 - - - 0;
#X text 79 217 frequency;
#X text 286 433 -0.5;
#X obj 39 392 *~;
#X obj 40 456 dac~;
#X text 293 375 0.5;
#X text 299 468 -1;
#X text 308 341 1;
#X text 306 403 0;
#X obj 121 426 metro 100;
#X obj 121 401 tgl 15 0 empty empty draw_it 17 7 0 10 #fcfcfc #000000 #000000 0 1;
#X obj 39 244 osc~;
#X floatatom 57 364 5 0 1 0 - - - 0;
#X obj 61 335 hsl 162 19 0 1 0 0 empty empty empty -2 -10 0 12 #fcfcfc #000000 #000000 0 1;
#X msg 39 192 100;
#X obj 40 158 loadbang;
#X obj 39 289 expr~ if($v1 > $v2 \, 1 \, -1);
#X text 232 290 if wave > width value \, then 1 \, if else (lower) -1;
#X obj 219 135 *~ 0.99;
#X obj 218 217 snapshot~;
#X floatatom 218 252 5 -0.99 0.99 0 - - - 0;
#X obj 233 185 metro 10;
#X obj 234 161 tgl 19 0 empty empty empty 0 -10 0 12 #fcfcfc #000000 #000000 0 1;
#X text 267 243 puls width: \; 0 = square / -0.99 = 99% up / 0.99 = 99% down;
#X text 276 134 (could be conneted directly to [expr~] ).;
#X text 290 108 speed of width change;
#X text 35 55 Since there is no generic object in PD \, pulse width modulated waveforms can be computed in the following form.;
#X obj 219 109 osc~ 0.25;
#X text 35 30 Pulse Width Modulation (PWM);
#X text 35 528 A Square Wave has a value of "1" half the time \, and of "0" the other half of the time. This is called the Pulse Width of the Square Wave. Different Pulse Widths make a different sound. And when we use a Square Wave as an LFO (Low Frequency Oscillator) \, different pulse widths will have different effects on the sound it is modulating.;
#X connect 3 0 14 0;
#X connect 6 0 7 0;
#X connect 6 0 7 1;
#X connect 6 0 2 0;
#X connect 12 0 2 0;
#X connect 13 0 12 0;
#X connect 14 0 19 0;
#X connect 15 0 6 1;
#X connect 16 0 15 0;
#X connect 17 0 3 0;
#X connect 18 0 17 0;
#X connect 19 0 6 0;
#X connect 21 0 22 0;
#X connect 22 0 23 0;
#X connect 23 0 19 1;
#X connect 24 0 22 0;
#X connect 25 0 24 0;
#X connect 30 0 21 0;
