#N canvas 500 274 539 446 12;
#N canvas 0 22 454 304 (subpatch) 0;
#X array \$0-sum 882 float 0;
#X coords 0 1 881 -1 200 130 1;
#X restore 301 250 graph;
#X text 301 388 ---- 0.02 seconds ----;
#X obj 128 368 tabwrite~ \$0-sum;
#X obj 53 151 phasor~;
#X floatatom 53 129 5 0 0 0 - - - 0;
#X text 93 128 frequency;
#X obj 53 238 min~;
#X text 266 335 -0.5;
#X obj 53 356 *~;
#X obj 54 393 dac~;
#X text 273 277 0.5;
#X text 279 370 -1;
#X text 288 243 1;
#X text 286 305 0;
#X obj 81 186 *~ -1;
#X obj 81 213 +~ 1;
#X obj 53 263 *~ 4;
#X obj 53 288 -~ 1;
#X obj 128 340 metro 100;
#X text 33 38 Triangle waveform;
#X obj 128 315 tgl 15 0 empty empty draw_it 17 7 0 10 #fcfcfc #000000 #000000 0 1;
#X obj 71 333 tgl 15 0 empty empty empty 17 7 0 10 #fcfcfc #000000 #000000 0 1;
#X text 33 63 Since there is no generic object in PD triangle waveforms can be computed in the following form.;
#X obj 177 186 expr~ if($v1 > 0.5 \, 1 - $v1 \, $v1);
#X text 176 161 same in mathematical terms;
#X obj 177 214 *~ 4;
#X obj 177 239 -~ 1;
#X connect 3 0 14 0;
#X connect 3 0 6 0;
#X connect 3 0 23 0;
#X connect 4 0 3 0;
#X connect 6 0 16 0;
#X connect 8 0 9 0;
#X connect 8 0 9 1;
#X connect 14 0 15 0;
#X connect 15 0 6 1;
#X connect 16 0 17 0;
#X connect 17 0 2 0;
#X connect 17 0 8 0;
#X connect 18 0 2 0;
#X connect 20 0 18 0;
#X connect 21 0 8 1;
#X connect 23 0 25 0;
#X connect 25 0 26 0;
