#N canvas 468 103 843 790 12;
#X obj 386 42 noise~;
#X obj 51 119 lop~ 50;
#X obj 49 141 lop~ 50;
#X obj 50 165 lop~ 50;
#X obj 49 188 lop~ 50;
#X obj 357 561 dac~;
#X obj 116 121 hip~ 50;
#X obj 116 143 hip~ 50;
#X obj 116 165 hip~ 50;
#X obj 116 187 hip~ 50;
#X obj 117 210 lop~ 250;
#X obj 116 232 lop~ 250;
#X obj 117 256 lop~ 250;
#X obj 116 279 lop~ 250;
#X obj 187 122 hip~ 250;
#X obj 187 144 hip~ 250;
#X obj 187 166 hip~ 250;
#X obj 187 188 hip~ 250;
#X obj 188 211 lop~ 500;
#X obj 187 233 lop~ 500;
#X obj 188 257 lop~ 500;
#X obj 187 281 lop~ 500;
#X obj 279 121 hip~ 500;
#X obj 279 143 hip~ 500;
#X obj 279 165 hip~ 500;
#X obj 279 187 hip~ 500;
#X obj 279 210 lop~ 1000;
#X obj 279 232 lop~ 1000;
#X obj 280 256 lop~ 1000;
#X obj 279 280 lop~ 1000;
#X obj 361 118 hip~ 1000;
#X obj 361 140 hip~ 1000;
#X obj 361 162 hip~ 1000;
#X obj 361 184 hip~ 1000;
#X obj 361 207 lop~ 3000;
#X obj 361 229 lop~ 3000;
#X obj 362 253 lop~ 3000;
#X obj 361 277 lop~ 3000;
#X obj 441 118 hip~ 3000;
#X obj 441 140 hip~ 3000;
#X obj 441 161 hip~ 3000;
#X obj 441 184 hip~ 3000;
#X obj 441 207 lop~ 7000;
#X obj 441 229 lop~ 7000;
#X obj 442 253 lop~ 7000;
#X obj 441 277 lop~ 7000;
#X obj 73 321 vsl 15 128 0 20 0 0 empty empty empty 0 -8 0 8 #202020 #fcfcfc #000000 0 1;
#X obj 138 320 vsl 15 128 0 2 0 0 empty empty empty 0 -8 0 8 #583000 #fcfcfc #000000 0 1;
#X obj 211 319 vsl 15 128 0 1 0 0 empty empty empty 0 -8 0 8 #fc2828 #fcfcfc #000000 0 1;
#X obj 315 318 vsl 15 128 0 0.9 0 0 empty empty empty 0 -8 0 8 #fcac44 #fcfcfc #000000 0 1;
#X obj 397 316 vsl 15 128 0 0.7 0 0 empty empty empty 0 -8 0 8 #e8e828 #fcfcfc #000000 0 1;
#X obj 359 527 *~ 0.5;
#X obj 479 316 vsl 15 128 0 0.5 0 0 empty empty empty 0 -8 0 8 #14e814 #fcfcfc #000000 0 1;
#X obj 559 315 vsl 15 128 0 1 0 0 empty empty empty 0 -8 0 8 #3c50fc #fcfcfc #000000 0 1;
#X obj 657 311 vsl 15 128 0 2 0 0 empty empty empty 0 -8 0 8 #f430f0 #fcfcfc #000000 0 1;
#X obj 50 459 *~;
#X obj 115 458 *~;
#X obj 188 457 *~;
#X obj 360 454 *~;
#X obj 278 456 *~;
#X obj 442 454 *~;
#X obj 522 453 *~;
#X obj 613 449 *~;
#X text 360 12 Noise colours;
#X obj 521 206 lop~ 12000;
#X obj 521 228 lop~ 12000;
#X obj 521 252 lop~ 12000;
#X obj 521 278 lop~ 12000;
#X obj 521 117 hip~ 4000;
#X obj 521 139 hip~ 4000;
#X obj 521 160 hip~ 4000;
#X obj 521 183 hip~ 4000;
#X text 42 566 Colour spectrum Sounds like \; \; \; Violet 15-30KHz Gas escaping \, angry snake \; Blue 4-12KHz Light breeze \, aerosol \, hihats \; Green 3kHz-7KHz Bacon frying \, acid on concrete \; Yellow 1kHz-3KHz Rain \, distant waterfall \; Orange 500Hz-1KHz River \, city ambience \; Red 250Hz-500Hz Airplane cabin \, train/car interior \; Brown 50Hz-250Hz Thunder \, distant plane or rocket \; Black 0-50Hz Doom rumble \;;
#X obj 614 115 hip~ 6000;
#X obj 614 137 hip~ 6000;
#X obj 614 158 hip~ 6000;
#X obj 614 181 hip~ 6000;
#X obj 614 204 lop~ 13000;
#X obj 614 226 lop~ 13000;
#X obj 614 250 lop~ 13000;
#X obj 614 274 lop~ 13000;
#X connect 0 0 1 0;
#X connect 0 0 6 0;
#X connect 0 0 14 0;
#X connect 0 0 22 0;
#X connect 0 0 30 0;
#X connect 0 0 38 0;
#X connect 0 0 68 0;
#X connect 0 0 73 0;
#X connect 1 0 2 0;
#X connect 2 0 3 0;
#X connect 3 0 4 0;
#X connect 4 0 55 0;
#X connect 6 0 7 0;
#X connect 7 0 8 0;
#X connect 8 0 9 0;
#X connect 9 0 10 0;
#X connect 10 0 11 0;
#X connect 11 0 12 0;
#X connect 12 0 13 0;
#X connect 13 0 56 0;
#X connect 14 0 15 0;
#X connect 15 0 16 0;
#X connect 16 0 17 0;
#X connect 17 0 18 0;
#X connect 18 0 19 0;
#X connect 19 0 20 0;
#X connect 20 0 21 0;
#X connect 21 0 57 0;
#X connect 22 0 23 0;
#X connect 23 0 24 0;
#X connect 24 0 25 0;
#X connect 25 0 26 0;
#X connect 26 0 27 0;
#X connect 27 0 28 0;
#X connect 28 0 29 0;
#X connect 29 0 59 0;
#X connect 30 0 31 0;
#X connect 31 0 32 0;
#X connect 32 0 33 0;
#X connect 33 0 34 0;
#X connect 34 0 35 0;
#X connect 35 0 36 0;
#X connect 36 0 37 0;
#X connect 37 0 58 0;
#X connect 38 0 39 0;
#X connect 39 0 40 0;
#X connect 40 0 41 0;
#X connect 41 0 42 0;
#X connect 42 0 43 0;
#X connect 43 0 44 0;
#X connect 44 0 45 0;
#X connect 45 0 60 0;
#X connect 46 0 55 1;
#X connect 47 0 56 1;
#X connect 48 0 57 1;
#X connect 49 0 59 1;
#X connect 50 0 58 1;
#X connect 51 0 5 0;
#X connect 51 0 5 1;
#X connect 52 0 60 1;
#X connect 53 0 61 1;
#X connect 54 0 62 1;
#X connect 55 0 51 0;
#X connect 56 0 51 0;
#X connect 57 0 51 0;
#X connect 58 0 51 0;
#X connect 59 0 51 0;
#X connect 60 0 51 0;
#X connect 61 0 51 0;
#X connect 62 0 51 0;
#X connect 64 0 65 0;
#X connect 65 0 66 0;
#X connect 66 0 67 0;
#X connect 67 0 61 0;
#X connect 68 0 69 0;
#X connect 69 0 70 0;
#X connect 70 0 71 0;
#X connect 71 0 64 0;
#X connect 73 0 74 0;
#X connect 74 0 75 0;
#X connect 75 0 76 0;
#X connect 76 0 77 0;
#X connect 77 0 78 0;
#X connect 78 0 79 0;
#X connect 79 0 80 0;
#X connect 80 0 62 0;
