#N canvas 503 184 525 540 12;
#N canvas 0 22 454 304 (subpatch) 0;
#X array \$0-pwm~ 1000 float 0;
#X coords 0 1.1 999 -0.1 200 100 1;
#X restore 52 333 graph;
#X text 237 240 <-- graph the output;
#X obj 59 92 hsl 128 15 0 1 0 1 empty empty pulse_width -2 -6 0 12
-262144 -1 -1 700 0;
#X floatatom 56 125 5 0 0 0 - - -, f 5;
#X text 159 151 argument = pwm rate in Hz;
#X text 49 452 for more info:;
#X obj 107 241 tabwrite~ \$0-pwm~;
#X obj 107 177 loadbang;
#X obj 107 203 metro 200;
#X text 48 495 (c) Hans Christoph Steiner;
#X text 49 473 http://en.wikipedia.org/wiki/Pulse-width_modulation
;
#X obj 55 279 dac~;
#X obj 56 248 *~;
#X obj 74 224 tgl 15 0 empty empty empty 17 7 0 10 -262144 -1 -1 0.1
0.1;
#X obj 120 130 hsl 128 15 30 1000 0 1 empty empty pw_rate -2 -6 0 12
-262144 -1 -1 2600 0;
#X obj 56 152 pwm~ 200;
#X text 57 32 Pulse width modulation;
#X connect 2 0 3 0;
#X connect 3 0 15 0;
#X connect 7 0 8 0;
#X connect 7 0 8 0;
#X connect 8 0 6 0;
#X connect 12 0 11 0;
#X connect 12 0 11 1;
#X connect 13 0 12 1;
#X connect 14 0 15 1;
#X connect 15 0 6 0;
#X connect 15 0 12 0;
