#N canvas 469 57 604 657 12;
#X obj 213 489 *~;
#X obj 158 451 *~;
#X obj 86 410 *~;
#X obj 31 209 vsl 15 128 0.25 2048 0 0 empty empty 1 0 -8 0 8 #fcfcfc #000000 #000000 0 1;
#X obj 129 214 vsl 15 128 0.25 512 0 0 empty empty 2 0 -8 0 8 #fcfcfc #000000 #000000 0 1;
#X obj 221 213 vsl 15 128 0.25 512 0 0 empty empty 3 0 -8 0 8 #fcfcfc #000000 #000000 0 1;
#X obj 310 211 vsl 15 128 0.125 16 0 0 empty empty 4 0 -8 0 8 #fcfcfc #000000 #000000 0 1;
#X floatatom 31 349 5 0 0 0 - - - 0;
#X floatatom 129 353 5 0 0 0 - - - 0;
#X floatatom 221 351 5 0 0 0 - - - 0;
#X floatatom 310 352 5 0 0 0 - - - 0;
#X obj 135 169 unpack 1 2 3 4;
#X obj 135 143 r patch;
#X msg 362 288 \; patch 1212 82 76 0.125;
#X obj 201 619 dac~;
#X text 361 267 transporter;
#X text 361 197 engine;
#X msg 362 220 \; patch 193 11.35 36 9.1;
#X msg 363 156 \; patch 1999 4.279 20.4 15.5;
#X text 382 135 night critters;
#X obj 31 380 osc~;
#X obj 129 381 osc~;
#X obj 221 378 osc~;
#X obj 234 551 hsl 101 15 0 1 0 0 empty empty empty -2 -6 0 8 #fcfcfc #000000 #000000 0 1;
#X obj 213 523 *~ 0.25;
#X obj 213 576 *~;
#X obj 310 377 osc~;
#X text 32 26 Complex serial amplitude modulation (RM);
#X text 30 62 Modulating the amplitude (level) of each wave by the previous one is technically called a serial complex amplitude modulation.;
#X obj 363 115 loadbang;
#X connect 0 0 24 0;
#X connect 1 0 0 0;
#X connect 2 0 1 0;
#X connect 3 0 7 0;
#X connect 4 0 8 0;
#X connect 5 0 9 0;
#X connect 6 0 10 0;
#X connect 7 0 20 0;
#X connect 8 0 21 0;
#X connect 9 0 22 0;
#X connect 10 0 26 0;
#X connect 11 0 3 0;
#X connect 11 1 4 0;
#X connect 11 2 5 0;
#X connect 11 3 6 0;
#X connect 12 0 11 0;
#X connect 20 0 2 0;
#X connect 21 0 2 1;
#X connect 22 0 1 1;
#X connect 23 0 25 1;
#X connect 24 0 25 0;
#X connect 25 0 14 1;
#X connect 25 0 14 0;
#X connect 26 0 0 1;
#X connect 29 0 18 0;
