#N canvas 503 184 462 661 12;
#X declare -path abs;
#N canvas 0 22 454 304 (subpatch) 0;
#X array \$0-pwm~ 1000 float 0;
#X coords 0 1.1 999 -0.1 200 100 1;
#X restore 56 462 graph;
#X text 242 371 <-- graph the output;
#X obj 63 228 hsl 128 15 0 1 0 1 empty empty pulse_width -2 -6 0 12 #fcfcfc #000000 #000000 9907 0;
#X floatatom 60 254 5 0 0 0 - - - 0;
#X text 252 257 argument = pwm rate in Hz;
#X text 53 581 for more info:;
#X obj 111 370 tabwrite~ \$0-pwm~;
#X obj 111 306 loadbang;
#X obj 111 332 metro 200;
#X text 52 624 (c) Hans Christoph Steiner;
#X text 53 602 http://en.wikipedia.org/wiki/Pulse-width_modulation;
#X obj 59 408 dac~;
#X obj 60 377 *~;
#X obj 78 354 tgl 15 0 empty empty empty 17 7 0 10 #fcfcfc #000000 #000000 0 0.1;
#X obj 116 259 hsl 128 15 30 1000 0 1 empty empty pw_rate -2 -6 0 12 #fcfcfc #000000 #000000 2900 0;
#X obj 60 281 pwm~ 200;
#X text 57 19 Pulse width modulation;
#X obj 60 80 osc~ 0.1;
#X obj 60 134 /~ 2;
#X obj 60 186 snapshot~;
#X obj 114 138 tgl 15 0 empty empty empty 17 7 0 10 #fcfcfc #000000 #000000 0 1;
#X obj 114 158 metro 10;
#X obj 287 95 tgl 15 0 empty empty empty 17 7 0 10 #fcfcfc #000000 #000000 0 1;
#X obj 60 158 *~ 0.9;
#X obj 60 110 +~ 1.1;
#X obj 63 50 hsl 162 19 0.1 20 0 0 empty empty empty -2 -10 0 12 #fcfcfc #000000 #000000 0 1;
#X msg 287 115 \; pd dsp \$1 \; metro 1;
#X obj 287 68 loadbang;
#X obj 249 186 declare -path abs;
#X connect 2 0 3 0;
#X connect 3 0 15 0;
#X connect 7 0 8 0;
#X connect 8 0 6 0;
#X connect 12 0 11 0;
#X connect 12 0 11 1;
#X connect 13 0 12 1;
#X connect 14 0 15 1;
#X connect 15 0 6 0;
#X connect 15 0 12 0;
#X connect 17 0 24 0;
#X connect 18 0 23 0;
#X connect 19 0 2 0;
#X connect 20 0 21 0;
#X connect 21 0 19 0;
#X connect 22 0 26 0;
#X connect 23 0 19 0;
#X connect 24 0 18 0;
#X connect 25 0 17 0;
#X connect 27 0 22 0;
