#N canvas 503 184 586 663 12;
#N canvas 0 22 454 304 (subpatch) 0;
#X array \$0-pwm~ 1000 float 0;
#X coords 0 1.1 999 -0.1 200 100 1;
#X restore 55 422 graph;
#X text 240 329 <-- graph the output;
#X obj 62 188 hsl 128 15 0 1 0 1 empty empty pulse_width -2 -6 0 12
-262144 -1 -1 33 0;
#X floatatom 59 214 5 0 0 0 - - -, f 5;
#X text 162 240 argument = pwm rate in Hz;
#X text 52 541 for more info:;
#X obj 110 330 tabwrite~ \$0-pwm~;
#X obj 110 266 loadbang;
#X obj 110 292 metro 200;
#X text 51 584 (c) Hans Christoph Steiner;
#X text 52 562 http://en.wikipedia.org/wiki/Pulse-width_modulation
;
#X obj 58 368 dac~;
#X obj 59 337 *~;
#X obj 80 315 tgl 15 0 empty empty empty 17 7 0 10 -262144 -1 -1 0
0.1;
#X obj 123 216 hsl 128 15 30 1000 0 1 empty empty pw_rate -2 -6 0 12
-262144 -1 -1 3200 0;
#X obj 59 241 pwm~ 200;
#X text 57 32 Pulse width modulation;
#X obj 59 68 osc~ 0.1;
#X obj 59 118 /~ 2;
#X obj 59 94 +~ 1;
#X obj 59 146 snapshot~;
#X obj 113 98 tgl 15 0 empty empty empty 17 7 0 10 -262144 -1 -1 1
1;
#X obj 113 118 metro 10;
#X obj 265 75 tgl 15 0 empty empty empty 17 7 0 10 -262144 -1 -1 1
1;
#X msg 265 95 \; pd dsp \$1 \;;
#X connect 2 0 3 0;
#X connect 3 0 15 0;
#X connect 7 0 8 0;
#X connect 7 0 8 0;
#X connect 8 0 6 0;
#X connect 12 0 11 0;
#X connect 12 0 11 1;
#X connect 13 0 12 1;
#X connect 14 0 15 1;
#X connect 15 0 6 0;
#X connect 15 0 12 0;
#X connect 17 0 19 0;
#X connect 18 0 20 0;
#X connect 19 0 18 0;
#X connect 20 0 2 0;
#X connect 21 0 22 0;
#X connect 22 0 20 0;
#X connect 23 0 24 0;
