#N canvas 226 296 842 459 10;
#X obj 635 345 osc~;
#X obj 551 147 osc~;
#X obj 651 145 osc~;
#X obj 551 191 *~ 1;
#X obj 574 168 r \$0-D1;
#X obj 635 306 +~ 1;
#X obj 651 195 *~ 1;
#X obj 674 170 r \$0-D2;
#X obj 104 323 r \$0-I1;
#X obj 104 348 t b f;
#X obj 90 375 *;
#X obj 90 401 s \$0-D1;
#X obj 232 350 t b f;
#X obj 218 377 *;
#X obj 219 403 s \$0-D2;
#X obj 232 325 r \$0-I2;
#X obj 635 224 +~;
#X obj 635 381 outlet~;
#X obj 77 46 inlet;
#X obj 139 46 inlet;
#X obj 196 46 inlet;
#X obj 321 49 inlet;
#X obj 381 48 inlet;
#X obj 77 69 s \$0-C;
#X obj 139 69 s \$0-M1;
#X obj 196 69 s \$0-M2;
#X obj 321 71 s \$0-I1;
#X obj 381 71 s \$0-I2;
#X obj 21 45 inlet;
#X obj 21 68 s \$0-F;
#X obj 44 323 r \$0-CF;
#X obj 172 325 r \$0-CF;
#X obj 84 173 t b f;
#X obj 70 200 *;
#X obj 24 148 r \$0-F;
#X obj 84 148 r \$0-C;
#X obj 70 226 s \$0-CF;
#X obj 210 171 t b f;
#X obj 196 198 *;
#X obj 150 146 r \$0-F;
#X obj 210 146 r \$0-M1;
#X obj 196 224 s \$0-M1F;
#X obj 339 171 t b f;
#X obj 325 198 *;
#X obj 279 146 r \$0-F;
#X obj 339 146 r \$0-M2;
#X obj 325 224 s \$0-M2F;
#X obj 551 125 r \$0-M1F;
#X obj 651 125 r \$0-M2F;
#X obj 656 282 r \$0-CF;
#X obj 635 250 +~;
#X obj 751 147 osc~;
#X obj 751 197 *~ 1;
#X obj 751 127 r \$0-M3F;
#X obj 774 171 r \$0-D3;
#X obj 260 48 inlet;
#X obj 260 70 s \$0-M3;
#X obj 440 48 inlet;
#X obj 440 71 s \$0-I3;
#X obj 358 351 t b f;
#X obj 344 378 *;
#X obj 298 326 r \$0-CF;
#X obj 358 326 r \$0-I3;
#X obj 345 404 s \$0-D3;
#X obj 459 171 t b f;
#X obj 445 198 *;
#X obj 399 146 r \$0-F;
#X obj 459 146 r \$0-M3;
#X obj 445 224 s \$0-M3F;
#X text 71 244 C-Freq;
#X text 193 243 Mod1-Freq;
#X text 322 244 Mod2-Freq;
#X text 443 244 Mod3-Freq;
#X text 71 263 All frequencies are multiples of the base frequency.
;
#X text 712 283 Carrier;
#X text 550 105 Modulator 1;
#X text 751 109 Modulator 3;
#X text 652 106 Modulator 2;
#X text 77 427 All modulator indexes are multiples of the carrier frequncy.
;
#X text 21 19 1 Inputs;
#X text 23 121 2 Frequency Multiplications;
#X text 43 299 3 Index Multiplication;
#X text 552 78 4 Complex Frequency Modulation;
#X connect 0 0 17 0;
#X connect 1 0 3 0;
#X connect 2 0 6 0;
#X connect 3 0 16 0;
#X connect 4 0 3 1;
#X connect 5 0 0 0;
#X connect 6 0 16 1;
#X connect 7 0 6 1;
#X connect 8 0 9 0;
#X connect 9 0 10 0;
#X connect 9 1 10 1;
#X connect 10 0 11 0;
#X connect 12 0 13 0;
#X connect 12 1 13 1;
#X connect 13 0 14 0;
#X connect 15 0 12 0;
#X connect 16 0 50 0;
#X connect 18 0 23 0;
#X connect 19 0 24 0;
#X connect 20 0 25 0;
#X connect 21 0 26 0;
#X connect 22 0 27 0;
#X connect 28 0 29 0;
#X connect 30 0 10 0;
#X connect 31 0 13 0;
#X connect 32 0 33 0;
#X connect 32 1 33 1;
#X connect 33 0 36 0;
#X connect 34 0 33 0;
#X connect 35 0 32 0;
#X connect 37 0 38 0;
#X connect 37 1 38 1;
#X connect 38 0 41 0;
#X connect 39 0 38 0;
#X connect 40 0 37 0;
#X connect 42 0 43 0;
#X connect 42 1 43 1;
#X connect 43 0 46 0;
#X connect 44 0 43 0;
#X connect 45 0 42 0;
#X connect 47 0 1 0;
#X connect 48 0 2 0;
#X connect 49 0 5 1;
#X connect 50 0 5 0;
#X connect 51 0 52 0;
#X connect 52 0 50 1;
#X connect 53 0 51 0;
#X connect 54 0 52 1;
#X connect 55 0 56 0;
#X connect 57 0 58 0;
#X connect 59 0 60 0;
#X connect 59 1 60 1;
#X connect 60 0 63 0;
#X connect 61 0 60 0;
#X connect 62 0 59 0;
#X connect 64 0 65 0;
#X connect 64 1 65 1;
#X connect 65 0 68 0;
#X connect 66 0 65 0;
#X connect 67 0 64 0;
