#N canvas 761 180 582 519 10;
#X obj 47 403 osc~;
#X obj 47 116 osc~;
#X obj 47 265 osc~;
#X obj 47 175 *~ 1;
#X obj 47 364 +~ 1;
#X obj 47 311 *~ 1;
#X obj 307 356 r \$0-I1;
#X obj 307 381 t b f;
#X obj 293 408 *;
#X obj 293 434 s \$0-D1;
#X obj 435 383 t b f;
#X obj 421 410 *;
#X obj 422 436 s \$0-D2;
#X obj 435 358 r \$0-I2;
#X obj 47 438 outlet~;
#X obj 296 72 inlet;
#X obj 233 74 inlet;
#X obj 357 72 inlet;
#X obj 419 74 inlet;
#X obj 479 73 inlet;
#X obj 419 102 s \$0-I1;
#X obj 479 102 s \$0-I2;
#X obj 47 229 +~ 1;
#X obj 70 287 r \$0-D1;
#X obj 70 149 r \$0-D2;
#X obj 357 102 s \$0-C2;
#X obj 296 104 s \$0-C1;
#X obj 240 356 r \$0-C1F;
#X obj 370 359 r \$0-C2F;
#X obj 70 334 r \$0-C1F;
#X obj 70 199 r \$0-C2F;
#X obj 282 167 t b f;
#X obj 268 194 *;
#X obj 282 142 r \$0-F;
#X obj 268 220 s \$0-C1F;
#X obj 215 141 r \$0-C1;
#X obj 414 168 t b f;
#X obj 400 195 *;
#X obj 414 143 r \$0-F;
#X obj 347 142 r \$0-C2;
#X obj 400 221 s \$0-C2F;
#X obj 233 103 s \$0-M;
#X obj 374 275 t b f;
#X obj 360 302 *;
#X obj 374 250 r \$0-F;
#X obj 307 250 r \$0-M;
#X obj 360 328 s \$0-MF;
#X obj 47 75 r \$0-MF;
#X obj 171 72 inlet;
#X obj 171 101 s \$0-F;
#X text 45 41 fm3~:;
#X text 46 468 Copyright (C) 2002 Maurizio Umberto Puxeddu;
#X connect 0 0 14 0;
#X connect 1 0 3 0;
#X connect 2 0 5 0;
#X connect 3 0 22 0;
#X connect 4 0 0 0;
#X connect 5 0 4 0;
#X connect 6 0 7 0;
#X connect 7 0 8 0;
#X connect 7 1 8 1;
#X connect 8 0 9 0;
#X connect 10 0 11 0;
#X connect 10 1 11 1;
#X connect 11 0 12 0;
#X connect 13 0 10 0;
#X connect 15 0 26 0;
#X connect 16 0 41 0;
#X connect 17 0 25 0;
#X connect 18 0 20 0;
#X connect 19 0 21 0;
#X connect 22 0 2 0;
#X connect 23 0 5 1;
#X connect 24 0 3 1;
#X connect 27 0 8 0;
#X connect 28 0 11 0;
#X connect 29 0 4 1;
#X connect 30 0 22 1;
#X connect 31 0 32 0;
#X connect 31 1 32 1;
#X connect 32 0 34 0;
#X connect 33 0 31 0;
#X connect 35 0 32 0;
#X connect 36 0 37 0;
#X connect 36 1 37 1;
#X connect 37 0 40 0;
#X connect 38 0 36 0;
#X connect 39 0 37 0;
#X connect 42 0 43 0;
#X connect 42 1 43 1;
#X connect 43 0 46 0;
#X connect 44 0 42 0;
#X connect 45 0 43 0;
#X connect 47 0 1 0;
#X connect 48 0 49 0;
