#N canvas 820 305 497 346 12;
#X floatatom 155 222 5 0 0 0 - - -, f 5;
#X floatatom 207 223 5 0 0 0 - - -, f 5;
#X floatatom 70 221 5 0 0 0 - - -, f 5;
#X floatatom 292 222 5 0 0 0 - - -, f 5;
#X text 74 26 A selective counter;
#X text 68 270 let outlet: counter from zero \; right outlet: counter
from one;
#X text 71 60 space -> <number> = +1 / counter <number> \; backspace
-> <number> = -1 / counter <number> \; r -> <number> = reset / counter
<number> \; A = +1 / all counters \; S = -1 / all counters \; R = reset
all counters;
#X obj 70 191 sel-count 1;
#X obj 207 191 sel-count 2;
#X connect 7 0 2 0;
#X connect 7 1 0 0;
#X connect 8 0 1 0;
#X connect 8 1 3 0;
