#N canvas 327 230 702 564 12;
#X obj 177 124 phasor~ 100;
#X obj 178 213 bp~ 100 50;
#X obj 178 244 env~ 1024;
#X obj 178 277 dbtorms;
#X floatatom 178 307 5 0 0 0 - - - 0;
#X obj 278 243 env~ 1024;
#X obj 278 276 dbtorms;
#X floatatom 278 306 5 0 0 0 - - - 0;
#X obj 372 241 env~ 1024;
#X obj 372 274 dbtorms;
#X floatatom 372 304 5 0 0 0 - - - 0;
#X obj 467 241 env~ 1024;
#X obj 467 274 dbtorms;
#X floatatom 467 304 5 0 0 0 - - - 0;
#X obj 278 212 bp~ 200 50;
#X obj 372 210 bp~ 300 50;
#X text 179 331 1;
#X text 279 329 2;
#X text 373 327 3;
#X text 466 324 4;
#X text 51 306 Dynamics of the;
#X text 35 327 first 4 Harmonics;
#X text 78 22 Analysis of Harmonics;
#X text 497 325 Overtone;
#N canvas 752 265 443 120 credits 0;
#X text 20 15 Johannes Kreidler;
#X text 24 40 www.pd-tutorial.com;
#X text 23 66 http://www.pd-tutorial.com/english/ch03s08.html;
#X restore 598 54 pd credits;
#X text 78 54 A sound comprises partials. If you want to find out what the component parts of a sound are \, you could employ a set of band-pass filters for every partial;
#X obj 157 407 *~;
#X obj 157 366 osc~ 100;
#X obj 256 411 *~;
#X obj 256 366 osc~ 200;
#X obj 350 409 *~;
#X obj 350 365 osc~ 300;
#X obj 445 406 *~;
#X obj 467 210 bp~ 400 50;
#X obj 445 363 osc~ 400;
#X obj 125 235 *~;
#X obj 143 214 tgl 15 0 empty empty empty 17 7 0 10 #fcfcfc #000000 #000000 0 0.3;
#X obj 356 455 tgl 15 0 empty empty empty 17 7 0 10 #fcfcfc #000000 #000000 0 0.3;
#X obj 337 498 *~;
#X obj 323 530 dac~;
#X obj 109 267 dac~;
#X connect 0 0 1 0;
#X connect 0 0 14 0;
#X connect 0 0 15 0;
#X connect 0 0 33 0;
#X connect 0 0 35 0;
#X connect 1 0 2 0;
#X connect 2 0 3 0;
#X connect 3 0 4 0;
#X connect 4 0 26 1;
#X connect 5 0 6 0;
#X connect 6 0 7 0;
#X connect 7 0 28 1;
#X connect 8 0 9 0;
#X connect 9 0 10 0;
#X connect 10 0 30 1;
#X connect 11 0 12 0;
#X connect 12 0 13 0;
#X connect 13 0 32 1;
#X connect 14 0 5 0;
#X connect 15 0 8 0;
#X connect 26 0 38 0;
#X connect 27 0 26 0;
#X connect 28 0 38 0;
#X connect 29 0 28 0;
#X connect 30 0 38 0;
#X connect 31 0 30 0;
#X connect 32 0 38 0;
#X connect 33 0 11 0;
#X connect 34 0 32 0;
#X connect 35 0 40 1;
#X connect 35 0 40 0;
#X connect 36 0 35 1;
#X connect 37 0 38 1;
#X connect 38 0 39 0;
#X connect 38 0 39 1;
