#N canvas 88 155 889 634 12;
#X obj 82 348 until;
#X msg 82 278 100;
#X obj 154 434 f;
#X obj 38 434 random 100;
#X obj 191 434 + 1;
#X obj 228 435 mod;
#X obj 121 311 t f f;
#X obj 82 374 t b b;
#X msg 45 88 const 0;
#X floatatom 312 295 7 0 100 3 value - - 0;
#X obj 313 198 bng 15 250 50 0 empty empty bang_to_find_maximum 17 7 0 12 #fcfcfc #000000 #000000;
#X floatatom 326 223 5 0 0 1 onset - - 0;
#X floatatom 374 245 5 0 0 1 number_of_points - - 0;
#X floatatom 436 296 5 0 100 3 index - - 0;
#X obj 313 269 array max \$0-array;
#X floatatom 309 439 7 0 100 3 value - - 0;
#X obj 310 342 bng 15 250 50 0 empty empty bang_to_find_minimum 17 7 0 12 #fcfcfc #000000 #000000;
#X floatatom 322 369 5 0 0 1 onset - - 0;
#X floatatom 371 389 5 0 0 1 number_of_points - - 0;
#X floatatom 433 440 5 0 100 3 index - - 0;
#X obj 310 413 array min \$0-array;
#X obj 601 365 soundfiler;
#X floatatom 601 395 10 0 0 1 length_in_samples - - 0;
#X obj 601 306 openpanel;
#X obj 601 281 bng 15 250 50 0 empty empty empty 17 7 0 10 #fcfcfc #000000 #000000;
#X msg 601 335 read -resize \$1 test-array1;
#X obj 45 135 array define -yrange 0 99 \$0-array 100;
#X obj 38 462 tabwrite \$0-array;
#X text 39 30 Since PD 49 there is a new [array]-object with some additional functionalities.;
#X text 111 88 Define a new array with y-values from 0 to 99 \, all set to 0;
#X text 39 180 Write random numbers to array;
#X obj 600 240 array define test-array1;
#X floatatom 325 521 5 1 100 0 - - - 0;
#X obj 310 496 bng 15 250 50 0 empty empty empty 17 7 0 10 #fcfcfc #000000 #000000;
#X text 370 520 number to set size;
#X text 334 495 bang outputs size;
#X floatatom 310 581 10 0 0 1 length_in_samples - - 0;
#X obj 310 550 array size \$0-array;
#X text 596 202 Sound in array object;
#X connect 0 0 7 0;
#X connect 1 0 0 0;
#X connect 1 0 6 0;
#X connect 2 0 4 0;
#X connect 2 0 27 1;
#X connect 3 0 27 0;
#X connect 4 0 5 0;
#X connect 5 0 2 1;
#X connect 6 0 0 0;
#X connect 6 1 5 1;
#X connect 7 0 3 0;
#X connect 7 1 2 0;
#X connect 8 0 26 0;
#X connect 10 0 14 0;
#X connect 11 0 14 0;
#X connect 12 0 14 1;
#X connect 14 0 9 0;
#X connect 14 1 13 0;
#X connect 16 0 20 0;
#X connect 17 0 20 0;
#X connect 18 0 20 1;
#X connect 20 0 15 0;
#X connect 20 1 19 0;
#X connect 21 0 22 0;
#X connect 23 0 25 0;
#X connect 24 0 23 0;
#X connect 25 0 21 0;
#X connect 32 0 37 0;
#X connect 33 0 37 0;
#X connect 37 0 36 0;
