#N canvas 552 136 591 536 12;
#X obj 66 69 tgl 15 0 empty empty empty 17 7 0 10 #fcfcfc #000000 #000000 0 1;
#X obj 66 93 metro 500;
#X msg 98 157 30 32 34 35 37 39 41 42;
#X msg 182 252 50 52 54 57 59 57 54 52;
#X text 275 157 major scale;
#X text 386 253 pentatonic;
#X msg 200 283 44 43 42 41 40 41 42 43;
#X text 403 282 chromatic;
#X msg 165 223 24 36 48 60 72 84;
#X text 314 222 octaves;
#X obj 66 354 list;
#X text 104 353 is short for;
#X obj 202 352 list append;
#X msg 88 126 bang;
#X text 139 125 is a zero element list;
#X text 107 373 appends the right inlet list to the left inlet list;
#X msg 107 189 44;
#X text 154 190 is a one element list;
#X msg 198 314 bang;
#X text 250 315 clear list;
#X text 62 28 Building lists with [list append];
#X obj 66 152 tgl 15 0 empty empty empty 17 7 0 10 #fcfcfc #000000 #000000 0 1;
#X listbox 66 427 49 0 0 0 - - - 0;
#X connect 0 0 1 0;
#X connect 1 0 21 0;
#X connect 2 0 10 0;
#X connect 3 0 10 1;
#X connect 6 0 10 1;
#X connect 8 0 10 1;
#X connect 10 0 22 0;
#X connect 13 0 10 0;
#X connect 16 0 10 0;
#X connect 18 0 10 1;
#X connect 21 0 10 0;
