#N canvas 466 38 583 857 12;
#X msg 50 159 bang;
#X floatatom 161 246 3 0 5 0 - - - 0;
#X msg 64 190 1;
#X msg 75 219 1 2 3 4;
#X text 174 272 <-- creation arg inits split point;
#X text 100 189 list with one number;
#X text 93 159 list with no items;
#X text 48 51 The "list split" object takes lists and outputs the first "n" items (left outlet) and the remaining ones (middle outlet). The two outputs appear in the usual right-to-left order. In case there are fewer than "n" items in the list \, it is output (in its entirety) from the third outlet instead. The creation argument or the inlet sets the initial split point.;
#X obj 52 273 list split 2, f 16;
#X text 192 244 new split point (index);
#X text 264 300 list shorter than index;
#X text 52 19 Cut a list into smaller ones qith [list split];
#X obj 82 503 + 1;
#X floatatom 155 590 5 0 0 1 split\ point\ changing\ with\ counter - - 0;
#X floatatom 114 706 5 0 0 1 first\ number\ of\ list\ after\ split\ point\ (number\ box) - - 0;
#X obj 163 503 list length;
#X obj 121 504 mod;
#X obj 47 503 f;
#X obj 47 436 key;
#X obj 47 459 sel 32;
#X text 45 400 Cycle in a list with a modulo counter and [list split];
#X text 102 455 Use the space-bar to step through the list.;
#X obj 46 529 t b f;
#X text 153 325 starting value in rest of list;
#X floatatom 60 325 4 0 0 0 - - - 0;
#X floatatom 113 326 5 0 0 0 - - - 0;
#X obj 47 483 bng 15 250 50 0 empty empty empty 17 7 0 10 #fcfcfc #000000 #000000;
#X obj 114 730 makenote 100 500;
#X obj 149 765 noteout;
#X floatatom 120 549 5 0 0 0 - - - 0;
#X obj 74 628 list split 0;
#X msg 46 591 59 67 34 40 76;
#X listbox 52 348 5 0 0 0 - - - 0;
#X listbox 106 348 5 0 0 0 - - - 0;
#X obj 161 299 print shorter;
#X floatatom 163 531 5 0 0 0 - - - 0;
#X listbox 128 681 15 0 0 0 - - - 0;
#X listbox 74 655 15 0 0 0 - - - 0;
#X text 151 348 rest of the list;
#X text 186 656 list before split point;
#X text 240 682 list after split point;
#X connect 0 0 8 0;
#X connect 1 0 8 1;
#X connect 2 0 8 0;
#X connect 3 0 8 0;
#X connect 8 0 24 0;
#X connect 8 0 32 0;
#X connect 8 1 25 0;
#X connect 8 1 33 0;
#X connect 8 2 34 0;
#X connect 12 0 16 0;
#X connect 13 0 30 1;
#X connect 14 0 27 0;
#X connect 15 0 16 1;
#X connect 15 0 35 0;
#X connect 16 0 17 1;
#X connect 16 0 29 0;
#X connect 17 0 12 0;
#X connect 17 0 22 0;
#X connect 18 0 19 0;
#X connect 19 0 26 0;
#X connect 22 0 31 0;
#X connect 22 1 13 0;
#X connect 26 0 17 0;
#X connect 27 0 28 0;
#X connect 27 1 28 1;
#X connect 30 0 37 0;
#X connect 30 1 14 0;
#X connect 30 1 36 0;
#X connect 31 0 30 0;
#X connect 31 0 15 0;
