#N canvas 497 25 557 667 12;
#X msg 54 183 bang;
#X floatatom 149 270 3 0 5 0 - - - 0;
#X msg 68 214 1;
#X msg 79 243 1 2 3 4;
#X text 109 410 first n;
#X text 171 297 <-- creation arg inits split point;
#X text 104 213 list with one number;
#X text 97 183 list with no items;
#X text 48 51 The "list split" object takes lists and outputs the first "n" items (left outlet) and the remaining ones (middle outlet). The two outputs appear in the usual right-to-left order. In case there are fewer than "n" items in the list \, it is output (in its entirety) from the third outlet instead. The creation argument or the inlet sets the initial split point.;
#X obj 56 297 list split 2;
#X text 184 268 new split point (index);
#X text 242 330 list shorter than index;
#X text 52 19 Cut a list into smaller ones qith [list split];
#X obj 94 562 + 1;
#X floatatom 173 624 5 0 0 1 split_point - - 0;
#X floatatom 98 688 5 0 0 1 list_entries - - 0;
#X obj 175 562 list length;
#X obj 133 563 mod;
#X obj 59 562 f;
#X obj 59 495 key;
#X obj 59 518 sel 32;
#X text 59 468 Cycle in a list with a modulo counter and [list split];
#X text 114 514 Use the space-bar to step through the list.;
#X obj 58 588 t b f;
#X text 154 359 starting value in rest of list;
#X floatatom 70 410 4 0 0 0 - - - 0;
#X floatatom 111 358 5 0 0 0 - - - 0;
#X obj 59 542 bng 15 250 50 0 empty empty empty 17 7 0 10 #fcfcfc #000000 #000000;
#X obj 98 712 makenote 100 500;
#X obj 98 736 noteout;
#X floatatom 133 591 5 0 0 0 - - - 0;
#X obj 58 661 list split 0;
#X obj 54 688 print;
#X msg 58 624 59 67 34 40 76;
#X listbox 58 440 5 0 0 0 - - - 0;
#X listbox 102 385 7 0 0 0 - - - 0;
#X obj 137 330 print shorter;
#X connect 0 0 9 0;
#X connect 1 0 9 1;
#X connect 2 0 9 0;
#X connect 3 0 9 0;
#X connect 9 0 25 0;
#X connect 9 0 34 0;
#X connect 9 1 26 0;
#X connect 9 1 35 0;
#X connect 9 2 36 0;
#X connect 13 0 17 0;
#X connect 14 0 31 1;
#X connect 15 0 28 0;
#X connect 16 0 17 1;
#X connect 17 0 18 1;
#X connect 17 0 30 0;
#X connect 18 0 13 0;
#X connect 18 0 23 0;
#X connect 19 0 20 0;
#X connect 20 0 27 0;
#X connect 23 0 33 0;
#X connect 23 1 14 0;
#X connect 27 0 18 0;
#X connect 28 0 29 0;
#X connect 28 1 29 1;
#X connect 31 1 15 0;
#X connect 31 1 32 0;
#X connect 33 0 16 0;
#X connect 33 0 31 0;
