#N canvas 362 52 641 529 12;
#X obj 63 314 key;
#X obj 63 401 makefilename ~/Desktop/testsound-%s.wav;
#N canvas 0 22 450 300 show 0;
#X obj 41 39 inlet;
#X obj 153 39 inlet;
#X obj 41 124 outlet;
#X msg 153 79 set;
#X obj 41 59 list prepend set;
#X obj 41 83 list trim;
#X connect 0 0 4 0;
#X connect 1 0 3 0;
#X connect 3 0 2 0;
#X connect 4 0 5 0;
#X connect 5 0 2 0;
#X restore 63 457 pd show;
#X obj 109 433 bng 15 250 50 0 empty empty Reset 17 7 0 10 #fcfcfc #000000 #000000;
#X obj 63 373 list tosymbol;
#X msg 63 344 \$1;
#X text 190 429 symbols replace "%s" in string;
#X msg 63 487 ~/Desktop/testsound-l.wav;
#X msg 139 270 110 105 110 101 116 101 101 110;
#X obj 138 298 list tosymbol;
#X symbolatom 138 324 10 0 0 0 - - - 0;
#X obj 140 162 list fromsymbol;
#X obj 140 188 list prepend set;
#X obj 140 237 t b a;
#X obj 140 212 list trim;
#X msg 140 135 symbol nineteen;
#X msg 115 111 symbol seventeen;
#X text 60 22 These allow you to do string manipulations (such as scanning a filename for '/' characters). They convert a list of numbers (which might be ASCII or might be unicode if \, for example \, they represent a filename on a non-ASCII machine) to or from a symbol., f 63;
#X text 285 153 fromsymbol - symbols from lists (of numeric character codes), f 41;
#X text 264 300 tosymbol - symbols to lists, f 41;
#X connect 0 0 5 0;
#X connect 1 0 2 0;
#X connect 2 0 7 0;
#X connect 3 0 2 1;
#X connect 4 0 1 0;
#X connect 5 0 4 0;
#X connect 8 0 9 0;
#X connect 9 0 10 0;
#X connect 11 0 12 0;
#X connect 12 0 14 0;
#X connect 13 0 8 0;
#X connect 13 1 8 0;
#X connect 14 0 13 0;
#X connect 15 0 11 0;
#X connect 16 0 11 0;
