#N canvas 1163 863 365 361 12;
#X obj 109 79 bng 19 250 50 0 empty empty empty 0 -10 0 12 #fcfcfc #000000 #000000;
#X obj 109 125 1 200 45;
#X obj 109 150 print;
#X obj 217 78 bng 19 250 50 0 empty empty empty 0 -10 0 12 #fcfcfc #000000 #000000;
#X obj 217 211 line;
#X floatatom 217 235 5 0 0 0 - - - 0;
#X obj 217 102 t b b, f 7;
#X obj 217 127 1 1000;
#X obj 263 176 0 1000;
#X obj 263 151 del 2000;
#X obj 24 298 obj-lst 1000 2000 1000;
#X obj 23 79 bng 19 250 50 0 empty empty empty 0 -10 0 12 #fcfcfc #000000 #000000;
#X obj 23 149 print;
#X obj 23 124 200 cat 45;
#X text 21 23 List from object with leading number only;
#X text 24 269 Works with variables in abstractions too:;
#X connect 0 0 1 0;
#X connect 1 0 2 0;
#X connect 3 0 6 0;
#X connect 4 0 5 0;
#X connect 6 0 7 0;
#X connect 6 1 9 0;
#X connect 7 0 4 0;
#X connect 8 0 4 0;
#X connect 9 0 8 0;
#X connect 11 0 13 0;
#X connect 13 0 12 0;
