#N canvas 817 550 523 431 12;
#X declare -path abs;
#X text 32 31 Bandpass construction;
#X obj 35 71 noise~;
#N canvas 0 22 450 300 (subpatch) 0;
#X array \$0-wavetable1 128 float 1;
#A 0 0 0 0 0 0 0 0 0 0 0 0 0 0 0 0 0 0 0 0 0 0 0 0 0 0 0 0 0 0 0 0
0 0 0 0 0 0 0 0 0 0 0 0 0 0 0 0 0 0 0 0 0 0 0 0 0 0 0 0 0 0 0 0 0 0
0 0 0 0 0 0 0 0 0 0 0 0 0 0 0 0 0 0 0 0 0 0 0 0 0 0 0 0 0 0 0 0 0 0
0 0 0 0 0 0 0 0 0 0 0 0 0 0 0 0 0 0 0 0 0 0 0 0 0 0 0 0 0;
#X coords 0 1 127 -1 200 140 1;
#X restore 273 87 graph;
#N canvas 0 22 450 300 (subpatch) 0;
#X array \$0-frequencies 256 float 0;
#X coords 0 100 255 0 200 140 1;
#X restore 272 257 graph;
#N canvas 0 22 325 269 display 0;
#X obj 54 124 tabwrite~ \$0-wavetable1;
#X obj 117 86 metro 30;
#N canvas 45 83 488 322 fft 0;
#X obj 19 61 inlet~;
#X obj 95 214 inlet;
#X obj 29 92 rfft~;
#X obj 29 125 *~;
#X obj 60 125 *~;
#X obj 29 155 sqrt~;
#X obj 332 109 block~ 4096 1;
#X obj 29 181 biquad~ 0 0 0 0 1;
#X text 93 93 Fourier series;
#X text 98 146 magnitude;
#X text 96 131 calculate;
#X text 21 3 This subpatch computes the spectrum of the incoming signal
with a (rectangular windowed) FFT. FFTs aren't properly introduced
until much later.;
#X text 83 61 signal to analyze;
#X text 192 166 delay two samples;
#X text 191 182 for better graphing;
#X text 145 216 "bang" into this inlet to graph it;
#X obj 95 248 tabwrite~ \$0-frequencies;
#X obj 20 281 tabwrite~ \$0-frequencies;
#X connect 0 0 2 0;
#X connect 0 0 17 0;
#X connect 1 0 16 0;
#X connect 1 0 17 0;
#X connect 2 0 3 0;
#X connect 2 0 3 1;
#X connect 2 1 4 0;
#X connect 2 1 4 1;
#X connect 3 0 5 0;
#X connect 4 0 5 0;
#X connect 5 0 7 0;
#X connect 7 0 16 0;
#X restore 32 222 pd fft;
#X text 110 165 graph frequencies;
#X obj 88 195 metro 30;
#X obj 118 28 loadbang;
#X obj 118 60 tgl 15 0 empty empty empty 17 7 0 10 -262144 -1 -1 1
1;
#X obj 27 28 catch~ wave;
#X connect 1 0 0 0;
#X connect 4 0 2 1;
#X connect 5 0 6 0;
#X connect 6 0 1 0;
#X connect 6 0 4 0;
#X connect 7 0 0 0;
#X connect 7 0 2 0;
#X restore 223 29 pd display;
#X obj 121 156 hsl 128 15 100 2000 0 0 empty empty empty -2 -8 0 10
-262144 -1 -1 0 1;
#X obj 36 332 dac~;
#X obj 36 270 60db-chain-bp 300 400;
#X obj 88 330 throw~ wave;
#X obj 36 245 *~ 1;
#X obj 69 102 hsl 128 15 0 1 0 0 empty empty empty -2 -8 0 10 -262144
-1 -1 0 1;
#X obj 66 123 * 100;
#X obj 201 197 + 100;
#X floatatom 118 223 5 0 0 0 - - -, f 5;
#X floatatom 201 223 5 0 0 0 - - -, f 5;
#X floatatom 65 147 5 0 0 0 - - -, f 5;
#X obj 329 30 declare -path abs;
#X connect 1 0 9 0;
#X connect 5 0 12 0;
#X connect 5 0 13 0;
#X connect 7 0 6 0;
#X connect 7 0 6 1;
#X connect 7 0 8 0;
#X connect 9 0 7 0;
#X connect 10 0 11 0;
#X connect 11 0 15 0;
#X connect 12 0 14 0;
#X connect 13 0 7 1;
#X connect 14 0 7 2;
#X connect 15 0 9 1;
