#N canvas 216 333 790 778 12;
#X declare -path abs;
#X obj 140 356 osc~ 440;
#X obj 47 433 env~ 16384;
#X floatatom 47 460 5 0 0 0 - - - 0;
#X obj 168 201 noise~;
#X obj 237 290 env~ 16384;
#X floatatom 237 312 5 0 0 0 - - - 0;
#X obj 202 170 sig~ 440;
#X obj 168 258 vcf~ 5000;
#X obj 304 432 env~ 16384;
#X floatatom 305 456 5 0 0 0 - - - 0;
#X obj 302 117 hsl 128 15 1 5000 1 0 empty empty empty -2 -8 0 10 #fcfcfc #000000 #000000 0 1;
#X obj 325 280 /;
#X obj 352 205 range 1 5000 0 1;
#X obj 237 232 line;
#X msg 237 208 \$1 30;
#X msg 325 354 \$1 30;
#X obj 299 166 t f f f;
#X obj 304 404 *~;
#X obj 353 229 curved -0.12;
#X obj 324 309 + 4;
#X obj 180 682 dac~;
#X obj 140 513 *~ 0.3;
#X obj 190 487 *~ 0.3;
#N canvas 0 22 534 507 eq-pwr-mix 0;
#X obj 33 293 *~;
#X obj 89 292 *~;
#X obj 107 209 line~;
#X obj 107 237 cos~;
#X obj 51 207 line~;
#X obj 51 235 cos~;
#X obj 50 181 pack;
#X obj 46 93 t f b;
#X msg 75 153 10;
#X obj 107 182 pack;
#X msg 132 154 10;
#X obj 107 124 - 0.25;
#X obj 107 92 t f b;
#X obj 107 62 / 4;
#X obj 33 261 inlet~;
#X obj 89 262 inlet~;
#X obj 89 337 outlet~;
#X obj 107 34 inlet;
#X obj 49 34 loadbang;
#X obj 33 335 outlet~;
#X connect 0 0 19 0;
#X connect 1 0 16 0;
#X connect 2 0 3 0;
#X connect 3 0 1 1;
#X connect 4 0 5 0;
#X connect 5 0 0 1;
#X connect 6 0 4 0;
#X connect 7 0 6 0;
#X connect 7 1 8 0;
#X connect 8 0 6 1;
#X connect 9 0 2 0;
#X connect 10 0 9 1;
#X connect 11 0 9 0;
#X connect 12 0 11 0;
#X connect 12 1 10 0;
#X connect 13 0 7 0;
#X connect 13 0 12 0;
#X connect 14 0 0 0;
#X connect 15 0 1 0;
#X connect 17 0 13 0;
#X connect 18 0 13 0;
#X restore 140 594 pd eq-pwr-mix;
#X obj 244 572 hsl 128 15 0 1 0 0 empty empty empty -2 -8 0 10 #fcfcfc #000000 #000000 0 1;
#X obj 242 521 loadbang;
#X msg 242 547 0.5;
#X text 350 406 Amplification related to filter-Q;
#X text 64 23 Subtractive synthesis with different filter-Qs;
#X text 498 205 filter-Q ranged between 0 and 1;
#X text 498 229 curved transformation;
#X text 496 252 range between 1 and 12;
#X text 366 329 add additional offset;
#X obj 299 66 loadbang;
#X msg 299 91 500;
#X obj 515 123 declare -path abs;
#X obj 353 252 range 0 1 1 12;
#X obj 325 379 line;
#X obj 58 124 loadbang;
#X msg 58 149 0;
#X obj 58 176 tgl 15 0 empty empty empty 17 7 0 10 #fcfcfc #000000 #000000 0 1;
#X msg 58 196 \; pd dsp \$1;
#X floatatom 324 334 5 0 0 0 - - - 0;
#X floatatom 299 139 5 0 0 0 - - - 0;
#X obj 265 606 hsl 128 15 0 1 0 0 empty empty empty -2 -8 0 10 #fcfcfc #000000 #000000 0 1;
#X obj 140 635 *~;
#X obj 241 636 *~;
#X connect 0 0 1 0;
#X connect 0 0 21 0;
#X connect 1 0 2 0;
#X connect 3 0 7 0;
#X connect 4 0 5 0;
#X connect 6 0 7 1;
#X connect 7 0 17 0;
#X connect 7 1 4 0;
#X connect 8 0 9 0;
#X connect 10 0 43 0;
#X connect 11 0 19 0;
#X connect 12 0 18 0;
#X connect 13 0 7 2;
#X connect 14 0 13 0;
#X connect 15 0 37 0;
#X connect 16 0 14 0;
#X connect 16 1 11 0;
#X connect 16 2 12 0;
#X connect 17 0 8 0;
#X connect 17 0 22 0;
#X connect 18 0 36 0;
#X connect 19 0 42 0;
#X connect 21 0 23 0;
#X connect 22 0 23 1;
#X connect 23 0 45 0;
#X connect 23 1 46 0;
#X connect 24 0 23 2;
#X connect 25 0 26 0;
#X connect 26 0 24 0;
#X connect 33 0 34 0;
#X connect 34 0 10 0;
#X connect 36 0 11 1;
#X connect 37 0 17 1;
#X connect 38 0 39 0;
#X connect 39 0 40 0;
#X connect 40 0 41 0;
#X connect 42 0 15 0;
#X connect 43 0 16 0;
#X connect 44 0 45 1;
#X connect 44 0 46 1;
#X connect 45 0 20 0;
#X connect 46 0 20 1;
