#N canvas 412 128 620 654 12;
#X obj 30 80 unpack;
#X msg 30 36 1 10;
#X obj 30 117 tabwrite pulsetrain;
#X msg 30 149 \; pulsetrain const 0;
#N canvas 0 22 450 300 (subpatch) 0;
#X array pulsetrain 131 float 0;
#X coords 0 1 130 -1 200 140 1;
#X restore 375 354 graph;
#X obj 35 380 tabosc4~ pulsetrain;
#X obj 35 346 line~;
#X msg 27 203 \; pulsetrain resize 131;
#X msg 105 284 10 5000;
#X msg 184 284 100 5000;
#X obj 35 557 *~;
#X obj 56 532 line~;
#X obj 35 595 dac~;
#X msg 274 284 1000 5000;
#X msg 35 284 1 5000;
#X msg 291 37 0 20;
#X msg 340 37 0 50;
#X obj 35 469 bp~;
#X floatatom 45 419 5 0 0 0 - - -, f 5;
#X msg 388 37 1 11;
#X msg 437 37 1 12;
#X msg 487 37 1 13;
#X msg 537 37 0 80;
#X msg 79 36 0.5 20;
#X msg 152 37 0.25 50;
#X msg 223 37 0.1 80;
#X msg 56 495 0.4 1000;
#X text 188 158 clear array;
#X text 32 14 use these messages to add and remove pulses to/from array
;
#X text 33 260 these messages set frequency of the pulse-train oscillator
;
#X text 93 419 filter center frequency (Hz);
#X text 119 463 filter Q (sharpness);
#X text 195 496 ramp gain up/down;
#X text 199 118 comment;
#X msg 139 495 0 500;
#X text 301 607 (original patch by Chhristopher Burns);
#X obj 59 446 hsl 128 15 0 1 0 0 empty empty empty -2 -8 0 10 -262144
-1 -1 6100 1;
#X connect 0 0 2 0;
#X connect 0 1 2 1;
#X connect 1 0 0 0;
#X connect 5 0 17 0;
#X connect 6 0 5 0;
#X connect 8 0 6 0;
#X connect 9 0 6 0;
#X connect 10 0 12 0;
#X connect 10 0 12 1;
#X connect 11 0 10 1;
#X connect 13 0 6 0;
#X connect 14 0 6 0;
#X connect 15 0 0 0;
#X connect 16 0 0 0;
#X connect 17 0 10 0;
#X connect 18 0 17 1;
#X connect 19 0 0 0;
#X connect 20 0 0 0;
#X connect 21 0 0 0;
#X connect 22 0 0 0;
#X connect 23 0 0 0;
#X connect 24 0 0 0;
#X connect 25 0 0 0;
#X connect 26 0 11 0;
#X connect 34 0 11 0;
#X connect 36 0 17 2;
