#N canvas 249 107 503 165 12;
#X text 45 73 Formula: C = (F - 32) * 5/9;
#X text 47 29 Make a program that converts Fahrenheit temperatures to Celsius;
#X text 45 103 Use only number boxes and arithmetic operators.;
