#N canvas 249 107 524 254 12;
#X text 45 73 Formula: C = (F - 32) * 5/9;
#X text 47 29 Use your program that converts Fahrenheit temperatures to Celsius;
#X text 46 109 Set a toggle on when the temperature exceeds 100 degree Celsius. When the "boiling" toggle is on play 80% note c1 and 20% note b1 (h1). You can use a [spigot] object to suppress bangs when the temperature is under 100 degrees.;
