#N canvas 498 376 533 578 12;
#X obj 54 169 tgl 19 0 empty empty empty 0 -10 0 12 #fcfcfc #000000 #000000 0 1;
#X obj 54 193 metro 3;
#X obj 54 220 f;
#X obj 54 273 tabread points;
#X floatatom 54 296 5 0 0 0 - - - 0;
#X obj 54 319 pack;
#X msg 54 343 \$1 \$2;
#X obj 54 372 vline~;
#X obj 54 462 dac~;
#X obj 54 422 *~ 0.1;
#X obj 96 397 hsl 162 19 0 1 0 0 empty empty empty -2 -10 0 12 #fcfcfc #000000 #000000 0 1;
#X obj 127 220 mod 10;
#X floatatom 119 157 5 0 4 0 - - - 0;
#N canvas 440 465 450 278 (subpatch) 0;
#X array points 10 float 1;
#A 0 0.68 0.08 0.34 0.38 -0.8 0.82 -0.44 0.96 -0.96 0.18;
#X coords 0 1 9 -1 200 140 1 0 0;
#X restore 291 396 graph;
#X floatatom 54 246 5 0 0 0 - - - 0;
#X obj 92 220 + 1;
#X obj 404 246 tgl 19 0 empty empty empty 0 -10 0 12 #fcfcfc #000000 #000000 0 1;
#X msg 404 270 \; pd dsp \$1;
#X obj 182 230 random 100;
#X obj 182 254 / 50;
#X obj 182 278 - 1;
#X floatatom 182 302 5 0 0 0 - - - 0;
#X obj 284 228 random 10;
#X obj 181 328 tabwrite points;
#X obj 183 157 tgl 19 0 empty empty empty 0 -10 0 12 #fcfcfc #000000 #000000 0 1;
#X obj 232 130 hsl 162 19 1 300 0 0 empty empty empty -2 -10 0 12 #fcfcfc #000000 #000000 0 1;
#X obj 183 181 metro 1;
#X obj 122 92 hsl 162 19 0.1 4 1 0 empty empty empty -2 -10 0 12 #fcfcfc #000000 #000000 0 1;
#X text 58 46 (c) 2022 Andrew R. Brown \; https://youtu.be/cMyLB-DGXoM?si=B_KpbBpy-oXU2Vv1;
#X text 61 20 Stochastic Synthesis;
#X floatatom 229 156 5 0 0 0 - - - 0;
#X connect 0 0 1 0;
#X connect 1 0 2 0;
#X connect 2 0 14 0;
#X connect 2 0 15 0;
#X connect 3 0 4 0;
#X connect 4 0 5 0;
#X connect 5 0 6 0;
#X connect 6 0 7 0;
#X connect 7 0 9 0;
#X connect 9 0 8 0;
#X connect 9 0 8 1;
#X connect 10 0 9 1;
#X connect 11 0 2 1;
#X connect 12 0 1 1;
#X connect 12 0 5 1;
#X connect 14 0 3 0;
#X connect 15 0 11 0;
#X connect 16 0 17 0;
#X connect 18 0 19 0;
#X connect 19 0 20 0;
#X connect 20 0 21 0;
#X connect 21 0 23 0;
#X connect 22 0 23 1;
#X connect 24 0 26 0;
#X connect 25 0 30 0;
#X connect 26 0 18 0;
#X connect 26 0 22 0;
#X connect 27 0 12 0;
#X connect 30 0 26 1;
