#N canvas 268 22 681 494 12;
#X obj 225 414 dac~;
#X obj 378 109 soundfiler;
#X obj 324 363 *~ 0.5;
#X obj 137 363 *~ 0.5;
#X msg 166 141 bang;
#X msg 221 141 stop;
#X obj 378 45 openpanel;
#X floatatom 378 141 7 0 0 0 - - -;
#X obj 321 293 metro;
#X obj 137 293 metro;
#X obj 378 202 int;
#X obj 378 18 bng 15 250 50 0 empty empty empty 0 -6 0 8 -262144 -1
-1;
#X obj 378 170 / 44.1;
#X text 58 25 Steve Reich \, Piano Phase;
#X obj 223 78 table reich01;
#X msg 378 77 read -resize \$1 reich01;
#X obj 137 331 tabplay~ reich01;
#X obj 324 331 tabplay~ reich01;
#X obj 533 141 loadbang;
#X msg 532 177 \; pd dsp 1 \;;
#X floatatom 322 258 5 0 0 0 - - -;
#X text 456 257 phase in msec;
#X obj 394 232 + 20;
#X floatatom 394 259 5 0 0 0 - - -;
#X connect 1 0 7 0;
#X connect 2 0 0 1;
#X connect 3 0 0 0;
#X connect 4 0 8 0;
#X connect 4 0 9 0;
#X connect 5 0 8 0;
#X connect 5 0 9 0;
#X connect 5 0 16 0;
#X connect 5 0 17 0;
#X connect 6 0 15 0;
#X connect 7 0 12 0;
#X connect 8 0 17 0;
#X connect 9 0 16 0;
#X connect 10 0 20 0;
#X connect 10 0 22 0;
#X connect 11 0 6 0;
#X connect 12 0 10 0;
#X connect 15 0 1 0;
#X connect 16 0 3 0;
#X connect 17 0 2 0;
#X connect 18 0 19 0;
#X connect 20 0 9 1;
#X connect 22 0 23 0;
#X connect 23 0 8 1;
