#N canvas 628 210 613 490 12;
#N canvas 0 22 450 300 (subpatch) 0;
#X array line 200 float 2;
#X coords 0 126 199 0 200 140 1;
#X restore 353 303 graph;
#X obj 320 46 hsl 128 15 0 1000 0 0 empty speed empty -2 -8 0 10 -262144
-1 -1 317 1;
#X obj 75 68 tgl 15 0 empty metro-tgl empty 17 7 0 10 -262144 -1 -1
1 1;
#X obj 256 233 f;
#X obj 304 233 + 1;
#X floatatom 317 77 5 0 0 0 - - -, f 5;
#X floatatom 256 283 5 0 0 0 - - -, f 5;
#X obj 352 233 mod 200;
#X obj 155 47 hsl 128 15 20 5000 0 0 empty env empty -2 -8 0 10 -262144
-1 -1 2499 1;
#N canvas 0 22 450 300 (subpatch) 0;
#X array lineview_+2 200 float 2;
#X coords 0 126 199 0 200 140 1;
#X restore 353 303 graph;
#X obj 30 384 tabwrite lineview1;
#X obj 131 228 int;
#X obj 147 419 tabwrite lineview_+2;
#X obj 88 340 tabwrite line;
#N canvas 0 22 450 300 (subpatch) 0;
#X array lineview1 200 float 2;
#X coords 0 126 199 0 200 140 1;
#X restore 353 303 graph;
#X obj 256 132 metro 80;
#X text 65 12 Centered tendency mask;
#N canvas 262 261 585 416 linegen 0;
#X obj 23 37 inlet;
#X obj 117 36 inlet;
#X obj 23 249 pack;
#X obj 23 277 line;
#X obj 23 81 metro 5000;
#X obj 124 197 abs;
#X obj 124 250 pack;
#X obj 124 277 line;
#X obj 124 305 outlet;
#X obj 23 306 outlet;
#X text 22 341 2 symmetrical linegeenerators randomly between 0 and
126 and rhythmically controlled via [metro].;
#X floatatom 124 225 5 0 0 0 - - -, f 5;
#X floatatom 23 223 5 0 0 0 - - -, f 5;
#X obj 23 127 random 127;
#X obj 124 172 - 127;
#X connect 0 0 4 0;
#X connect 1 0 6 1;
#X connect 1 0 2 1;
#X connect 1 0 4 1;
#X connect 2 0 3 0;
#X connect 3 0 9 0;
#X connect 4 0 13 0;
#X connect 5 0 11 0;
#X connect 6 0 7 0;
#X connect 7 0 8 0;
#X connect 11 0 6 0;
#X connect 12 0 2 0;
#X connect 13 0 12 0;
#X connect 13 0 14 0;
#X connect 14 0 5 0;
#X restore 75 129 pd linegen;
#X floatatom 152 74 5 0 0 0 - - -, f 5;
#X obj 54 233 int;
#X obj 475 38 loadbang;
#X msg 475 65 \; env 1000 \; speed 25 \; metro-tgl 1 \;;
#N canvas 564 285 546 399 random-range 0;
#X obj 149 38 inlet;
#X obj 236 38 inlet;
#X obj 148 284 outlet;
#X obj 219 284 outlet;
#X obj 150 79 max;
#X obj 218 78 min;
#X obj 150 121 -;
#X floatatom 148 151 5 0 0 0 - - -, f 5;
#X obj 148 214 random;
#X obj 148 181 t b f;
#X obj 147 248 +;
#X obj 76 285 outlet;
#X text 78 319 takes the min and the max of both incoming line values.
To create a random field in between. The min is substracted from the
max and then shifted (+) to the center.;
#X connect 0 0 4 0;
#X connect 0 0 5 0;
#X connect 1 0 4 1;
#X connect 1 0 5 1;
#X connect 4 0 6 0;
#X connect 4 0 11 0;
#X connect 5 0 6 1;
#X connect 5 0 10 1;
#X connect 5 0 3 0;
#X connect 6 0 7 0;
#X connect 7 0 9 0;
#X connect 8 0 10 0;
#X connect 9 0 8 0;
#X connect 9 1 8 1;
#X connect 10 0 2 0;
#X restore 30 282 pd random-range;
#X connect 1 0 5 0;
#X connect 2 0 15 0;
#X connect 2 0 17 0;
#X connect 3 0 4 0;
#X connect 3 0 6 0;
#X connect 4 0 7 0;
#X connect 5 0 15 1;
#X connect 6 0 10 1;
#X connect 6 0 12 1;
#X connect 6 0 13 1;
#X connect 7 0 3 1;
#X connect 8 0 18 0;
#X connect 11 0 22 1;
#X connect 15 0 3 0;
#X connect 15 0 11 0;
#X connect 15 0 19 0;
#X connect 17 0 19 1;
#X connect 17 1 11 1;
#X connect 18 0 17 1;
#X connect 19 0 22 0;
#X connect 20 0 21 0;
#X connect 22 0 10 0;
#X connect 22 1 13 0;
#X connect 22 2 12 0;
