#N canvas 528 35 664 756 12;
#X obj 118 658 *~;
#X obj 42 570 *~;
#N canvas 236 122 209 300 env 0;
#X obj 40 64 -~ 0.5;
#X obj 40 156 clip~ -0.5 0.5;
#X obj 40 133 *~ 1;
#X obj 40 179 cos~;
#X obj 40 87 wrap~;
#X obj 40 110 -~ 0.5;
#X obj 40 227 *~ -0.5;
#X obj 40 202 -~ 1;
#X obj 40 41 inlet~;
#X obj 40 250 outlet~;
#X obj 103 42 inlet;
#X text 105 20 sharpness;
#X text 40 20 phasor;
#X obj 102 106 max 1;
#X connect 0 0 4 0;
#X connect 1 0 3 0;
#X connect 2 0 1 0;
#X connect 3 0 7 0;
#X connect 4 0 5 0;
#X connect 5 0 2 0;
#X connect 6 0 9 0;
#X connect 7 0 6 0;
#X connect 8 0 0 0;
#X connect 10 0 13 0;
#X connect 13 0 2 1;
#X restore 141 486 pd env;
#X obj 40 389 vline~;
#X msg 40 361 0 \, 1 \$1;
#N canvas 0 22 450 300 (subpatch) 0;
#X array snd-buffer 155648 float 2;
#X coords 0 1 155648 -1 200 140 1 0 0;
#X restore 381 328 graph;
#X obj 89 232 soundfiler;
#X msg 40 234 bang;
#X obj 40 333 f;
#X obj 61 284 / 44.1;
#X obj 42 610 tabread4~ snd-buffer;
#X obj 107 699 dac~;
#X obj 63 542 samphold~;
#X obj 189 437 hsl 128 15 1 10 0 0 empty env-sharp empty -2 -8 0 10
-262144 -1 -1 12700 1;
#X floatatom 186 460 5 0 0 0 - - -, f 5;
#X text 36 23 Playing Samples with [vline~];
#X text 186 415 envelope sharpness;
#X obj 116 88 tgl 15 0 empty empty empty 17 7 0 10 -262144 -1 -1 1
1;
#X floatatom 61 310 5 0 0 0 - - -, f 5;
#X msg 116 112 \; pd dsp \$1 \; env-sharp 6 \;;
#X obj 89 57 loadbang;
#X text 118 284 <--conversion to milliseconds;
#X text 104 389 <-- onetime phasor;
#X obj 63 513 r smp;
#X obj 89 260 s smp;
#X obj 40 262 bng 15 250 50 0 empty empty empty 17 7 0 10 -262144 -258113
-1;
#X msg 89 170 read -resize ../99-Sounds/1-4.wav snd-buffer;
#X msg 104 201 read -resize ../99-Sounds/cello.wav snd-buffer;
#X text 150 526 <-- The incoming signal is sampled whenever the right
input decreases in value (as [phasor~] or does each period => settings
can only be made when [vline~] and therefore the envelope decreases
to avoid clicks.;
#X connect 0 0 11 0;
#X connect 0 0 11 1;
#X connect 1 0 10 0;
#X connect 2 0 0 1;
#X connect 3 0 1 0;
#X connect 3 0 2 0;
#X connect 3 0 12 1;
#X connect 4 0 3 0;
#X connect 6 0 9 0;
#X connect 6 0 24 0;
#X connect 7 0 25 0;
#X connect 8 0 4 0;
#X connect 9 0 18 0;
#X connect 10 0 0 0;
#X connect 12 0 1 1;
#X connect 13 0 14 0;
#X connect 14 0 2 1;
#X connect 17 0 19 0;
#X connect 18 0 8 1;
#X connect 20 0 17 0;
#X connect 20 0 26 0;
#X connect 23 0 12 0;
#X connect 25 0 8 0;
#X connect 26 0 6 0;
#X connect 27 0 6 0;
