#N canvas 930 136 623 809 10;
#X obj 475 778 outlet~;
#X obj 475 751 *~;
#X obj 406 672 +~;
#X obj 176 528 *;
#X obj 176 555 int;
#X obj 406 611 *~;
#N canvas 236 122 209 300 env 0;
#X obj 40 64 -~ 0.5;
#X obj 40 156 clip~ -0.5 0.5;
#X obj 40 133 *~ 1;
#X obj 40 179 cos~;
#X obj 40 87 wrap~;
#X obj 40 110 -~ 0.5;
#X obj 40 227 *~ -0.5;
#X obj 40 202 -~ 1;
#X obj 40 41 inlet~;
#X obj 40 250 outlet~;
#X obj 103 42 inlet;
#X text 105 20 sharpness;
#X text 40 20 phasor;
#X obj 102 106 max 1;
#X connect 0 0 4 0;
#X connect 1 0 3 0;
#X connect 2 0 1 0;
#X connect 3 0 7 0;
#X connect 4 0 5 0;
#X connect 5 0 2 0;
#X connect 6 0 9 0;
#X connect 7 0 6 0;
#X connect 8 0 0 0;
#X connect 10 0 13 0;
#X connect 13 0 2 1;
#X restore 535 700 pd env;
#N canvas 0 22 279 265 dur 0;
#X obj 59 32 inlet dur (msec);
#X obj 62 211 outlet dur (samples);
#X obj 62 156 *;
#X obj 62 183 int;
#X obj 58 62 t f b;
#X obj 81 129 / 1000;
#X obj 172 34 loadbang;
#X obj 173 62 samplerate~;
#X obj 82 103 f;
#X connect 0 0 4 0;
#X connect 2 0 3 0;
#X connect 3 0 1 0;
#X connect 4 0 2 0;
#X connect 4 1 8 0;
#X connect 5 0 2 1;
#X connect 6 0 7 0;
#X connect 7 0 8 1;
#X connect 8 0 5 0;
#X restore 488 427 pd dur msec->samp;
#X obj 404 478 vline~;
#X msg 404 454 0 \, 1 \$1;
#X obj 402 427 /;
#X obj 424 576 samphold~;
#X obj 419 642 samphold~;
#X obj 350 338 *;
#X floatatom 176 472 10 0 0 0 - - -, f 10;
#X obj 150 177 metro 100;
#X obj 74 328 f;
#X obj 144 329 mod;
#X obj 105 329 + 1;
#X obj 215 385 /;
#X msg 91 242 0;
#N canvas 0 22 322 400 pos-rand 0;
#X obj 94 225 +;
#X obj 92 93 t f b b;
#X obj 92 44 t b f;
#X obj 94 68 f;
#X obj 94 259 outlet;
#X obj 33 19 inlet;
#X obj 91 19 inlet;
#X obj 162 22 inlet;
#X obj 113 175 random;
#X obj 113 201 / 100;
#X obj 146 125 f;
#X obj 146 150 * 100;
#X connect 0 0 4 0;
#X connect 1 0 0 0;
#X connect 1 1 8 0;
#X connect 1 2 10 0;
#X connect 2 0 3 0;
#X connect 2 1 3 1;
#X connect 3 0 1 0;
#X connect 5 0 3 0;
#X connect 6 0 2 0;
#X connect 7 0 10 1;
#X connect 8 0 9 0;
#X connect 9 0 0 1;
#X connect 10 0 11 0;
#X connect 11 0 8 1;
#X restore 201 123 pd pos-rand;
#N canvas 0 22 287 357 center-rand 0;
#X obj 93 288 +;
#X obj 92 93 t f b b;
#X obj 112 249 -;
#X obj 92 44 t b f;
#X obj 94 68 f;
#X obj 93 322 outlet;
#X obj 33 19 inlet;
#X obj 91 19 inlet;
#X obj 160 19 inlet;
#X obj 145 162 * 200;
#X obj 112 188 random;
#X obj 112 214 / 100;
#X obj 145 135 f;
#X connect 0 0 5 0;
#X connect 1 0 0 0;
#X connect 1 1 10 0;
#X connect 1 2 12 0;
#X connect 2 0 0 1;
#X connect 3 0 4 0;
#X connect 3 1 4 1;
#X connect 4 0 1 0;
#X connect 6 0 4 0;
#X connect 7 0 3 0;
#X connect 8 0 12 1;
#X connect 9 0 10 1;
#X connect 10 0 11 0;
#X connect 11 0 2 0;
#X connect 12 0 2 1;
#X connect 12 0 9 0;
#X restore 177 412 pd center-rand;
#X obj 177 442 wrap;
#X obj 27 39 inlet toggle;
#N canvas 0 22 249 366 center-rand 0;
#X obj 99 278 +;
#X obj 94 92 t f b b;
#X obj 114 248 -;
#X obj 92 44 t b f;
#X obj 94 68 f;
#X obj 99 312 outlet;
#X obj 33 19 inlet;
#X obj 91 19 inlet;
#X obj 163 44 inlet;
#X obj 147 161 * 200;
#X obj 114 187 random;
#X obj 114 213 / 100;
#X obj 147 134 f;
#X connect 0 0 5 0;
#X connect 1 0 0 0;
#X connect 1 1 10 0;
#X connect 1 2 12 0;
#X connect 2 0 0 1;
#X connect 3 0 4 0;
#X connect 3 1 4 1;
#X connect 4 0 1 0;
#X connect 6 0 4 0;
#X connect 7 0 3 0;
#X connect 8 0 12 1;
#X connect 9 0 10 1;
#X connect 10 0 11 0;
#X connect 11 0 2 0;
#X connect 12 0 2 1;
#X connect 12 0 9 0;
#X restore 420 334 pd center-rand;
#N canvas 0 22 450 300 semitone 0;
#X obj 34 116 pow 2;
#X obj 63 90 / 12;
#X obj 34 167 outlet;
#X obj 33 64 t b f;
#X msg 33 89 2;
#X obj 32 41 inlet;
#X text 28 203 semitones just returns the right src from the given
semitone transposition \, e.g. (semitones 12) will return 2;
#X connect 0 0 2 0;
#X connect 1 0 0 1;
#X connect 3 0 4 0;
#X connect 3 1 1 0;
#X connect 4 0 0 0;
#X connect 5 0 3 0;
#X restore 420 360 pd semitone;
#X obj 346 41 inlet;
#X obj 346 65 unpack f f f f f f f f;
#X obj 319 337 f;
#X obj 149 227 t b b b;
#X obj 180 39 inlet;
#X obj 149 203 spigot;
#X obj 405 701 tabread4~ \$1-buffer;
#X obj 201 150 max 5;
#X obj 176 581 sig~;
#X obj 191 501 r buf;
#X connect 1 0 0 0;
#X connect 2 0 33 0;
#X connect 3 0 4 0;
#X connect 4 0 35 0;
#X connect 5 0 2 0;
#X connect 6 0 1 1;
#X connect 7 0 11 0;
#X connect 8 0 5 0;
#X connect 8 0 11 1;
#X connect 8 0 12 1;
#X connect 8 0 6 0;
#X connect 9 0 8 0;
#X connect 10 0 9 0;
#X connect 11 0 5 1;
#X connect 12 0 2 1;
#X connect 13 0 7 0;
#X connect 13 0 10 0;
#X connect 14 0 3 0;
#X connect 15 0 21 0;
#X connect 15 0 32 0;
#X connect 16 0 18 0;
#X connect 16 0 19 0;
#X connect 17 0 16 1;
#X connect 18 0 17 0;
#X connect 19 0 22 1;
#X connect 20 0 16 1;
#X connect 21 0 34 0;
#X connect 22 0 23 0;
#X connect 23 0 14 0;
#X connect 24 0 20 0;
#X connect 24 0 15 0;
#X connect 25 0 26 0;
#X connect 26 0 10 1;
#X connect 27 0 28 0;
#X connect 28 0 21 1;
#X connect 28 0 13 1;
#X connect 28 1 21 2;
#X connect 28 2 17 1;
#X connect 28 2 19 1;
#X connect 28 3 22 2;
#X connect 28 4 29 1;
#X connect 28 5 25 1;
#X connect 28 6 25 2;
#X connect 28 7 6 1;
#X connect 29 0 13 0;
#X connect 30 0 16 0;
#X connect 30 1 29 0;
#X connect 30 2 25 0;
#X connect 31 0 32 1;
#X connect 32 0 30 0;
#X connect 33 0 1 0;
#X connect 34 0 15 1;
#X connect 35 0 12 0;
#X connect 36 0 3 1;
