#N canvas 284 216 570 431 10;
#X floatatom 61 347 8 0 0 0 - - -, f 8;
#X obj 248 61 tgl 15 0 empty empty empty 0 -6 0 10 -262144 -1 -1 1
1;
#X obj 322 111 metro 1000;
#X obj 345 137 random 3500;
#X obj 345 163 + 500;
#X floatatom 118 348 8 0 0 0 - - -, f 8;
#X floatatom 175 348 8 0 0 0 - - -, f 8;
#X floatatom 230 348 8 0 0 0 - - -, f 8;
#X floatatom 289 348 8 0 0 0 - - -, f 8;
#X floatatom 322 251 8 0 0 0 - - -, f 8;
#X floatatom 300 304 8 0 0 0 - - -, f 8;
#X msg 160 170 reset;
#X obj 322 190 bng 15 250 50 0 empty empty empty 0 -6 0 10 -262144
-1 -1;
#X floatatom 311 276 8 0 0 0 - - -, f 8;
#X text 54 384 (c) 2008 Achim Bornhoeft;
#X text 46 169 set timer to zero;
#X text 365 276 pass number;
#X text 353 304 output number;
#X text 373 250 number of points in time;
#X text 156 26 counting successive points in time into 5 outputs;
#X text 343 350 outputs 1 - 5 (msec);
#X obj 247 220 5_time_points;
#X obj 66 27 5_time_points;
#X msg 206 170 0;
#X connect 1 0 2 0;
#X connect 1 0 21 0;
#X connect 2 0 3 0;
#X connect 2 0 12 0;
#X connect 3 0 4 0;
#X connect 4 0 2 1;
#X connect 11 0 21 0;
#X connect 12 0 21 1;
#X connect 21 0 0 0;
#X connect 21 1 5 0;
#X connect 21 2 6 0;
#X connect 21 3 7 0;
#X connect 21 4 8 0;
#X connect 21 5 10 0;
#X connect 21 6 13 0;
#X connect 21 7 9 0;
#X connect 23 0 21 0;
