#N canvas 650 165 441 782 10;
#X obj 179 258 tgl 15 0 empty empty empty 17 7 0 10 -262144 -1 -1 0
1;
#X obj 179 340 f;
#X obj 179 280 t f b;
#X msg 231 306 0;
#X obj 196 493 div 1000;
#X obj 278 493 mod 1000;
#X obj 127 492 div 60000;
#X msg 128 721 label \$1;
#X obj 128 745 s \$0-label;
#N canvas 0 22 450 300 format 0;
#X obj 24 20 inlet;
#X obj 24 224 outlet;
#X obj 91 105 + 1;
#X obj 24 47 t f f;
#X obj 24 171 makefilename 0%d;
#X obj 176 171 makefilename %d;
#X obj 91 80 >= 10;
#N canvas 0 22 450 300 gate2 0;
#X obj 44 237 spigot;
#X obj 44 262 outlet;
#X obj 123 238 spigot;
#X obj 123 263 outlet;
#X obj 21 30 inlet;
#X obj 288 38 inlet;
#X obj 359 129 loadbang;
#X obj 93 194 unpack 0 0;
#X obj 288 62 route 0 1 2;
#X msg 350 95 0 1;
#X msg 319 127 1 0;
#X msg 288 166 0 0;
#X connect 0 0 1 0;
#X connect 2 0 3 0;
#X connect 4 0 0 0;
#X connect 4 0 2 0;
#X connect 5 0 8 0;
#X connect 6 0 11 0;
#X connect 7 0 0 1;
#X connect 7 1 2 1;
#X connect 8 0 11 0;
#X connect 8 1 10 0;
#X connect 8 2 9 0;
#X connect 9 0 7 0;
#X connect 10 0 7 0;
#X connect 11 0 7 0;
#X restore 24 133 pd gate2;
#X connect 0 0 3 0;
#X connect 2 0 7 1;
#X connect 3 0 7 0;
#X connect 3 1 6 0;
#X connect 4 0 1 0;
#X connect 5 0 1 0;
#X connect 6 0 2 0;
#X connect 7 0 4 0;
#X connect 7 1 5 0;
#X restore 197 542 pd format;
#N canvas 0 22 450 300 format 0;
#X obj 24 20 inlet;
#X obj 24 224 outlet;
#X obj 91 105 + 1;
#X obj 24 47 t f f;
#X obj 24 171 makefilename 0%d;
#X obj 176 171 makefilename %d;
#X obj 91 80 >= 10;
#N canvas 0 22 450 300 gate2 0;
#X obj 44 237 spigot;
#X obj 44 262 outlet;
#X obj 123 238 spigot;
#X obj 123 263 outlet;
#X obj 21 30 inlet;
#X obj 288 38 inlet;
#X obj 359 129 loadbang;
#X obj 93 194 unpack 0 0;
#X obj 288 62 route 0 1 2;
#X msg 350 95 0 1;
#X msg 319 127 1 0;
#X msg 288 166 0 0;
#X connect 0 0 1 0;
#X connect 2 0 3 0;
#X connect 4 0 0 0;
#X connect 4 0 2 0;
#X connect 5 0 8 0;
#X connect 6 0 11 0;
#X connect 7 0 0 1;
#X connect 7 1 2 1;
#X connect 8 0 11 0;
#X connect 8 1 10 0;
#X connect 8 2 9 0;
#X connect 9 0 7 0;
#X connect 10 0 7 0;
#X connect 11 0 7 0;
#X restore 24 133 pd gate2;
#X connect 0 0 3 0;
#X connect 2 0 7 1;
#X connect 3 0 7 0;
#X connect 3 1 6 0;
#X connect 4 0 1 0;
#X connect 5 0 1 0;
#X connect 6 0 2 0;
#X connect 7 0 4 0;
#X connect 7 1 5 0;
#X restore 127 541 pd format;
#N canvas 0 22 450 300 format 0;
#X obj 24 20 inlet;
#X obj 24 224 outlet;
#X obj 91 105 + 1;
#X obj 24 47 t f f;
#X obj 24 171 makefilename 0%d;
#X obj 176 171 makefilename %d;
#X obj 91 80 >= 10;
#N canvas 0 22 450 300 gate2 0;
#X obj 44 237 spigot;
#X obj 44 262 outlet;
#X obj 123 238 spigot;
#X obj 123 263 outlet;
#X obj 21 30 inlet;
#X obj 288 38 inlet;
#X obj 359 129 loadbang;
#X obj 93 194 unpack 0 0;
#X obj 288 62 route 0 1 2;
#X msg 350 95 0 1;
#X msg 319 127 1 0;
#X msg 288 166 0 0;
#X connect 0 0 1 0;
#X connect 2 0 3 0;
#X connect 4 0 0 0;
#X connect 4 0 2 0;
#X connect 5 0 8 0;
#X connect 6 0 11 0;
#X connect 7 0 0 1;
#X connect 7 1 2 1;
#X connect 8 0 11 0;
#X connect 8 1 10 0;
#X connect 8 2 9 0;
#X connect 9 0 7 0;
#X connect 10 0 7 0;
#X connect 11 0 7 0;
#X restore 24 133 pd gate2;
#X connect 0 0 3 0;
#X connect 2 0 7 1;
#X connect 3 0 7 0;
#X connect 3 1 6 0;
#X connect 4 0 1 0;
#X connect 5 0 1 0;
#X connect 6 0 2 0;
#X connect 7 0 4 0;
#X connect 7 1 5 0;
#X restore 278 544 pd format;
#X obj 197 519 mod 60;
#X obj 179 454 t f f f b;
#X obj 213 341 + 1;
#X obj 179 307 metro 1;
#X obj 278 518 / 10;
#X msg 189 429 0;
#X obj 189 405 loadbang;
#X msg 277 590 set \$1;
#X obj 277 567 makefilename %%s:%s;
#X obj 197 622 makefilename;
#X obj 196 644 makefilename %%s:%s;
#X msg 195 666 set \$1;
#X obj 128 697 makefilename;
#X obj 179 376 spigot;
#X obj 262 266 == 0;
#X floatatom 262 308 5 0 0 0 - - -, f 5;
#X obj 148 72 f;
#X obj 182 73 + 1;
#X obj 215 73 mod 3;
#X floatatom 182 105 5 0 0 0 - - -, f 5;
#X obj 182 129 sel 1 2 3;
#X msg 181 215 1;
#X msg 199 188 0;
#X obj 0 0 cnv 15 110 110 empty empty empty 20 12 0 14 -233017 -66577
0;
#X obj 18 52 cnv 15 65 20 dummy \$0-label 00:00:00 5 10 1 14 -228856
-66577 0;
#X obj 42 30 bng 15 250 50 0 \$0-ssr \$0-dummy Start/Stop/Reset -35
-10 0 10 -262144 -1 -1;
#X obj 42 73 tgl 15 0 \$0-interm \$0-dummy Interval -15 25 0 10 -262144
-1 -1 0 1;
#X obj 262 237 r \$0-interm;
#X obj 148 44 r \$0-ssr;
#X obj 228 19 r clock;
#X obj 243 187 loadbang;
#X msg 243 212 0;
#X obj 216 154 t b b;
#X text 256 156 stop before reset;
#X connect 0 0 2 0;
#X connect 1 0 14 0;
#X connect 1 0 25 0;
#X connect 2 0 15 0;
#X connect 2 1 3 0;
#X connect 3 0 1 1;
#X connect 4 0 12 0;
#X connect 5 0 16 0;
#X connect 6 0 10 0;
#X connect 7 0 8 0;
#X connect 9 0 21 0;
#X connect 10 0 24 0;
#X connect 11 0 20 0;
#X connect 12 0 9 0;
#X connect 13 0 6 0;
#X connect 13 1 4 0;
#X connect 13 2 5 0;
#X connect 14 0 1 1;
#X connect 15 0 1 0;
#X connect 16 0 11 0;
#X connect 17 0 13 0;
#X connect 18 0 17 0;
#X connect 19 0 21 0;
#X connect 20 0 19 0;
#X connect 21 0 22 0;
#X connect 22 0 23 0;
#X connect 23 0 24 0;
#X connect 24 0 7 0;
#X connect 25 0 13 0;
#X connect 26 0 27 0;
#X connect 27 0 25 1;
#X connect 28 0 29 0;
#X connect 29 0 30 0;
#X connect 29 0 31 0;
#X connect 30 0 28 1;
#X connect 31 0 32 0;
#X connect 32 0 33 0;
#X connect 32 1 34 0;
#X connect 32 2 44 0;
#X connect 33 0 0 0;
#X connect 34 0 0 0;
#X connect 39 0 26 0;
#X connect 40 0 28 0;
#X connect 41 0 28 1;
#X connect 41 0 31 0;
#X connect 42 0 43 0;
#X connect 43 0 26 0;
#X connect 44 0 17 0;
#X connect 44 1 34 0;
#X coords 0 -1 1 1 110 110 2 0 0;
