#N canvas 302 167 454 538 10;
#X obj 159 317 *~;
#X obj 59 395 +~;
#X obj 233 213 +~;
#X obj 341 168 line~;
#X obj 233 125 osc~;
#X obj 233 159 *~;
#X obj 341 128 pack f 10;
#X obj 58 80 inlet~;
#X obj 231 83 inlet;
#X obj 341 82 inlet;
#X obj 173 83 inlet;
#X obj 234 449 outlet~;
#X obj 288 82 inlet;
#X obj 233 248 vd~ \$0-delayline 1000;
#X obj 60 450 delwrite~ \$0-delayline 3000;
#X text 57 57 singnal in;
#X text 169 49 feddback;
#X text 174 63 0 - 1;
#X text 238 62 osc;
#X text 285 51 osc-amp;
#X text 287 63 0 - 1;
#X text 340 63 delay-length;
#X text 59 496 (c) 2008 Achim Bornhoeft;
#X connect 0 0 1 1;
#X connect 1 0 14 0;
#X connect 2 0 13 0;
#X connect 3 0 2 1;
#X connect 4 0 5 0;
#X connect 5 0 2 0;
#X connect 6 0 3 0;
#X connect 7 0 1 0;
#X connect 8 0 4 0;
#X connect 9 0 6 0;
#X connect 10 0 0 1;
#X connect 12 0 5 1;
#X connect 13 0 0 0;
#X connect 13 0 11 0;
