#N canvas 287 78 928 757 12;
#X obj 115 224 select 0 1;
#X msg 311 414 start;
#X floatatom 381 380 5 0 0 0 - - -, f 5;
#X obj 241 294 t b b;
#X text 255 247 <-- Recording time (msec);
#X obj 147 278 spigot;
#X obj 214 247 > 0;
#X obj 61 617 writesf~ 1;
#X obj 60 159 inlet~;
#X text 62 135 signal;
#X obj 178 21 inlet;
#X text 234 15 on/off;
#X text 232 31 rec time;
#X text 285 262 if 0 (default) timed recording is off.;
#X text 60 654 (c) 2007 Achim Bornhoeft;
#X msg 126 444 stop;
#X obj 147 310 del;
#X text 233 49 set file counter;
#X text 447 378 <-- file number;
#X obj 115 199 tgl 15 0 empty \$0-tog empty 0 -6 0 10 -262144 -1 -1
0 1;
#X msg 418 535 stop;
#X obj 381 406 t f b;
#X obj 419 564 t a;
#X msg 380 506 open \$1;
#X obj 174 374 symbol \$0-tog;
#X msg 173 433 \; \$1 0 \;;
#X obj 174 405 makefilename %s;
#X obj 212 617 outlet;
#X obj 178 156 unpack f f f s;
#X obj 178 55 t a b;
#X msg 216 91 \; pd dsp 1;
#X obj 398 342 f;
#X obj 437 343 + 1;
#X text 321 307 TODO: COUNTER ONLY WHEN NUMBER IS NOT SET;
#X obj 443 407 makefilename %%d-%s.wav;
#X msg 443 437 set \$1;
#X obj 380 481 makefilename;
#X obj 319 523 print;
#X connect 0 0 15 0;
#X connect 0 1 3 0;
#X connect 0 1 5 0;
#X connect 1 0 7 0;
#X connect 2 0 21 0;
#X connect 3 0 1 0;
#X connect 3 1 31 0;
#X connect 3 1 2 0;
#X connect 5 0 16 0;
#X connect 6 0 5 1;
#X connect 8 0 7 0;
#X connect 10 0 29 0;
#X connect 15 0 7 0;
#X connect 15 0 27 0;
#X connect 16 0 15 0;
#X connect 16 0 24 0;
#X connect 19 0 0 0;
#X connect 20 0 22 0;
#X connect 21 0 36 0;
#X connect 21 1 20 0;
#X connect 22 0 7 0;
#X connect 23 0 22 0;
#X connect 24 0 26 0;
#X connect 26 0 25 0;
#X connect 28 0 19 0;
#X connect 28 1 6 0;
#X connect 28 1 16 1;
#X connect 28 2 2 0;
#X connect 28 3 34 0;
#X connect 29 0 28 0;
#X connect 29 1 30 0;
#X connect 31 0 32 0;
#X connect 32 0 31 1;
#X connect 34 0 35 0;
#X connect 35 0 36 0;
#X connect 36 0 23 0;
#X connect 36 0 37 0;
