#N canvas 352 139 242 331 10;
#X obj 62 218 f;
#X msg 127 172 1;
#X msg 173 173 -1;
#X obj 84 26 key;
#X floatatom 85 55 5 0 0 0 - - -;
#X obj 101 108 t b b;
#X obj 146 108 t b b;
#X obj 100 220 +;
#X obj 85 78 sel 114 32 8;
#X obj 146 108 t b b;
#X obj 57 108 t b b;
#X msg 82 154 0;
#X obj 36 25 inlet;
#X obj 100 250 nbx 4 20 0 999 0 0 empty empty empty 0 -6 0 14 -262144
-1 -1 1 256;
#X obj 161 216 inlet;
#X obj 100 284 outlet;
#X connect 0 0 7 0;
#X connect 1 0 7 1;
#X connect 2 0 7 1;
#X connect 3 0 4 0;
#X connect 4 0 8 0;
#X connect 5 0 0 0;
#X connect 5 1 1 0;
#X connect 6 0 0 0;
#X connect 6 1 2 0;
#X connect 7 0 0 1;
#X connect 7 0 13 0;
#X connect 8 0 10 0;
#X connect 8 1 5 0;
#X connect 8 2 6 0;
#X connect 10 0 0 0;
#X connect 10 1 11 0;
#X connect 11 0 7 1;
#X connect 11 0 0 1;
#X connect 12 0 10 0;
#X connect 13 0 0 1;
#X connect 13 0 15 0;
#X connect 14 0 13 0;
#X coords 0 -1 1 1 62 20 1 100 250;
