#N canvas 714 519 324 351 10;
#X obj 31 77 key;
#X obj 63 55 inlet;
#X obj 30 209 spigot;
#X obj 30 234 outlet;
#X obj 104 54 r key-lock;
#X obj 63 107 sel 0 1;
#X msg 63 153 1;
#X msg 82 131 0;
#X obj 63 182 tgl 15 0 empty empty empty 17 7 0 10 -262144 -1 -1 0
1;
#X obj 175 33 loadbang;
#X msg 175 55 0;
#X connect 0 0 2 0;
#X connect 1 0 5 0;
#X connect 2 0 3 0;
#X connect 4 0 5 0;
#X connect 5 0 6 0;
#X connect 5 1 7 0;
#X connect 6 0 8 0;
#X connect 7 0 8 0;
#X connect 8 0 2 1;
#X connect 9 0 10 0;
#X connect 10 0 5 0;
