#N canvas 915 327 677 542 10;
#X obj 195 276 sel 1;
#X msg 257 223 0;
#X msg 89 306 1;
#X obj 89 283 sel 1;
#X obj 525 19 inlet;
#X obj 231 20 inlet;
#X obj 387 20 inlet;
#X obj 290 19 loadbang;
#X obj 358 354 sel 1;
#X msg 358 379 0;
#X msg 394 379 1;
#X obj 289 366 f 1;
#X obj 255 416 spigot;
#X obj 460 200 delay;
#X obj 254 443 t b b;
#X obj 281 472 outlet;
#X msg 458 241 1;
#X obj 32 133 outlet;
#X obj 88 24 inlet;
#X obj 88 59 f;
#X obj 173 361 spigot;
#X obj 574 19 inlet;
#X msg 155 224 0;
#X msg 195 299 1;
#X obj 255 368 bng 15 250 50 0 empty empty empty 17 7 0 10 -262144
-1 -1;
#X obj 173 384 bng 15 250 50 0 empty empty empty 17 7 0 10 -262144
-1 -1;
#X obj 195 225 spigot 1;
#X obj 89 225 spigot 0;
#X text 368 472 (c) Achim Bornhoeft 2009 / 2015;
#X obj 88 86 s \$1-klevel-r;
#X obj 86 135 r \$1-klevel-s;
#X obj 206 338 f \$5;
#X obj 525 87 f \$4;
#X obj 89 261 < \$3;
#X obj 387 84 f \$3;
#X obj 195 254 > \$2;
#X obj 231 60 f \$2;
#N canvas 126 632 159 184 guilabel 0;
#X msg 43 107 label \$1;
#X obj 43 26 inlet;
#X obj 43 132 outlet;
#X obj 43 79 makefilename %s;
#N canvas 371 178 187 217 round 0;
#X msg 107 79 10;
#X obj 107 56 loadbang;
#X obj 27 84 * 1;
#X obj 27 19 inlet;
#X obj 68 131 / 1;
#X msg 68 109 1;
#X obj 27 109 + 0.5;
#X obj 27 134 div;
#X obj 27 181 outlet;
#X obj 27 157 * 1;
#X obj 107 102 pow 2;
#X obj 27 45 t f b;
#X connect 0 0 10 0;
#X connect 1 0 0 0;
#X connect 2 0 6 0;
#X connect 3 0 11 0;
#X connect 4 0 9 1;
#X connect 5 0 4 0;
#X connect 6 0 7 0;
#X connect 7 0 9 0;
#X connect 9 0 8 0;
#X connect 10 0 2 1;
#X connect 10 0 4 1;
#X connect 10 0 5 0;
#X connect 11 0 2 0;
#X connect 11 1 0 0;
#X restore 43 53 pd round;
#X connect 0 0 2 0;
#X connect 1 0 4 0;
#X connect 3 0 0 0;
#X connect 4 0 3 0;
#X restore 272 136 pd guilabel;
#X obj 231 112 s \$1-kthres-high-r;
#X obj 229 161 r \$1-kthres-high-s;
#N canvas 126 632 159 184 guilabel 0;
#X msg 43 107 label \$1;
#X obj 43 26 inlet;
#X obj 43 132 outlet;
#X obj 43 79 makefilename %s;
#N canvas 371 178 187 217 round 0;
#X msg 107 79 10;
#X obj 107 56 loadbang;
#X obj 27 84 * 1;
#X obj 27 19 inlet;
#X obj 68 131 / 1;
#X msg 68 109 1;
#X obj 27 109 + 0.5;
#X obj 27 134 div;
#X obj 27 181 outlet;
#X obj 27 157 * 1;
#X obj 107 102 pow 2;
#X obj 27 45 t f b;
#X connect 0 0 10 0;
#X connect 1 0 0 0;
#X connect 2 0 6 0;
#X connect 3 0 11 0;
#X connect 4 0 9 1;
#X connect 5 0 4 0;
#X connect 6 0 7 0;
#X connect 7 0 9 0;
#X connect 9 0 8 0;
#X connect 10 0 2 1;
#X connect 10 0 4 1;
#X connect 10 0 5 0;
#X connect 11 0 2 0;
#X connect 11 1 0 0;
#X restore 43 53 pd round;
#X connect 0 0 2 0;
#X connect 1 0 4 0;
#X connect 3 0 0 0;
#X connect 4 0 3 0;
#X restore 421 138 pd guilabel;
#X obj 387 112 s \$1-kthres-low-r;
#X obj 385 161 r \$1-kthres-low-s;
#N canvas 126 632 159 184 guilabel 0;
#X msg 43 107 label \$1;
#X obj 43 26 inlet;
#X obj 43 132 outlet;
#X obj 43 79 makefilename %s;
#N canvas 371 178 187 217 round 0;
#X msg 107 79 10;
#X obj 107 56 loadbang;
#X obj 27 84 * 1;
#X obj 27 19 inlet;
#X obj 68 131 / 1;
#X msg 68 109 1;
#X obj 27 109 + 0.5;
#X obj 27 134 div;
#X obj 27 181 outlet;
#X obj 27 157 * 1;
#X obj 107 102 pow 2;
#X obj 27 45 t f b;
#X connect 0 0 10 0;
#X connect 1 0 0 0;
#X connect 2 0 6 0;
#X connect 3 0 11 0;
#X connect 4 0 9 1;
#X connect 5 0 4 0;
#X connect 6 0 7 0;
#X connect 7 0 9 0;
#X connect 9 0 8 0;
#X connect 10 0 2 1;
#X connect 10 0 4 1;
#X connect 10 0 5 0;
#X connect 11 0 2 0;
#X connect 11 1 0 0;
#X restore 43 53 pd round;
#X connect 0 0 2 0;
#X connect 1 0 4 0;
#X connect 3 0 0 0;
#X connect 4 0 3 0;
#X restore 550 138 pd guilabel;
#X obj 533 113 s \$1-kretrig-r;
#X obj 531 162 r \$1-kretrig-s;
#X floatatom 319 409 5 0 0 0 - - -, f 5;
#X obj 459 222 bng 15 250 50 0 empty empty empty 17 7 0 10 -262144
-1 -1;
#N canvas 126 632 267 195 guilabel 0;
#X msg 43 107 label \$1;
#X obj 43 26 inlet;
#X obj 43 132 outlet;
#X obj 43 79 makefilename %s;
#N canvas 371 178 187 217 round 0;
#X msg 107 79 10;
#X obj 107 56 loadbang;
#X obj 27 84 * 1;
#X obj 27 19 inlet;
#X obj 68 131 / 1;
#X msg 68 109 1;
#X obj 27 109 + 0.5;
#X obj 27 134 div;
#X obj 27 181 outlet;
#X obj 27 157 * 1;
#X obj 107 102 pow 2;
#X obj 27 45 t f b;
#X connect 0 0 10 0;
#X connect 1 0 0 0;
#X connect 2 0 6 0;
#X connect 3 0 11 0;
#X connect 4 0 9 1;
#X connect 5 0 4 0;
#X connect 6 0 7 0;
#X connect 7 0 9 0;
#X connect 9 0 8 0;
#X connect 10 0 2 1;
#X connect 10 0 4 1;
#X connect 10 0 5 0;
#X connect 11 0 2 0;
#X connect 11 1 0 0;
#X restore 43 53 pd round;
#X connect 0 0 2 0;
#X connect 1 0 4 0;
#X connect 3 0 0 0;
#X connect 4 0 3 0;
#X restore 101 111 pd guilabel;
#X obj 175 113 nbx 3 14 -1e+37 1e+37 0 0 \$1-klevel-s \$1-klevel-r
54 0 -8 0 10 -262144 -1 -1 54 256;
#X obj 348 138 nbx 3 14 -1e+37 1e+37 0 0 \$1-kthres-high-s \$1-kthres-high-r
50 0 -8 0 10 -262144 -1 -1 50 256;
#X obj 496 140 nbx 3 14 -1e+37 1e+37 0 0 \$1-kthres-low-s \$1-kthres-low-r
50 0 -8 0 10 -262144 -1 -1 50 256;
#X obj 625 141 nbx 3 14 -1e+37 1e+37 0 0 \$1-kretrig-s \$1-kretrig-r
505.05 0 -8 0 10 -262144 -1 -1 200 256;
#X connect 0 0 1 0;
#X connect 0 0 23 0;
#X connect 0 0 24 0;
#X connect 1 0 26 1;
#X connect 2 0 26 1;
#X connect 3 0 2 0;
#X connect 3 0 22 0;
#X connect 3 0 20 0;
#X connect 4 0 32 0;
#X connect 5 0 36 0;
#X connect 6 0 34 0;
#X connect 7 0 11 0;
#X connect 7 0 31 0;
#X connect 7 0 32 0;
#X connect 7 0 34 0;
#X connect 7 0 36 0;
#X connect 8 0 9 0;
#X connect 8 1 10 0;
#X connect 9 0 11 1;
#X connect 10 0 11 1;
#X connect 11 0 8 0;
#X connect 11 0 12 1;
#X connect 11 0 46 0;
#X connect 12 0 14 0;
#X connect 13 0 47 0;
#X connect 14 0 11 0;
#X connect 14 0 13 0;
#X connect 14 1 15 0;
#X connect 16 0 11 0;
#X connect 18 0 19 0;
#X connect 19 0 17 0;
#X connect 19 0 29 0;
#X connect 20 0 25 0;
#X connect 21 0 31 0;
#X connect 22 0 27 1;
#X connect 23 0 27 1;
#X connect 24 0 12 0;
#X connect 25 0 12 0;
#X connect 26 0 35 0;
#X connect 27 0 33 0;
#X connect 30 0 27 0;
#X connect 30 0 26 0;
#X connect 30 0 48 0;
#X connect 31 0 20 1;
#X connect 32 0 44 0;
#X connect 33 0 3 0;
#X connect 34 0 41 0;
#X connect 35 0 0 0;
#X connect 36 0 38 0;
#X connect 37 0 38 0;
#X connect 39 0 37 0;
#X connect 39 0 35 1;
#X connect 40 0 41 0;
#X connect 42 0 40 0;
#X connect 42 0 33 1;
#X connect 43 0 44 0;
#X connect 45 0 43 0;
#X connect 45 0 13 1;
#X connect 47 0 16 0;
#X connect 48 0 29 0;
#X coords 0 542 1 541 105 39 0;
