#N canvas 639 584 450 300 10;
#X obj 151 92 inlet;
#X obj 328 142 +;
#X obj 151 233 outlet;
#N canvas 0 22 505 548 list-reduce 0;
#X obj 86 33 inlet;
#X obj 275 52 inlet;
#X obj 151 352 outlet;
#X obj 205 353 outlet;
#X obj 86 58 route bang;
#X obj 86 83 b;
#X obj 151 84 t b a;
#X obj 151 124 list;
#X obj 151 233 list split 2;
#X obj 151 155 t a b;
#X obj 275 189 list append;
#X text 53 386 [list-reduce];
#X text 55 423 [list-reduce] returns a single value constructed by
calling the user-defined objects connected to the right outlet on the
first two items of the sequence \, then on the result (if it comes
in through the right inlet) and the next item \, and so on.;
#X obj 275 124 list split 1;
#X connect 0 0 4 0;
#X connect 1 0 13 0;
#X connect 4 0 5 0;
#X connect 4 1 6 0;
#X connect 5 0 7 0;
#X connect 6 0 7 0;
#X connect 6 1 7 1;
#X connect 7 0 9 0;
#X connect 8 0 3 0;
#X connect 8 1 10 1;
#X connect 8 2 2 0;
#X connect 9 0 8 0;
#X connect 9 1 10 1;
#X connect 10 0 8 0;
#X connect 13 0 10 0;
#X restore 220 142 pd list-reduce;
#N canvas 0 22 450 300 list-math 0;
#X obj 55 58 inlet;
#X obj 55 235 outlet;
#X text 44 16 Use as "list-math operator" where operator is some binary
operator \, expr can understand.;
#X obj 169 134 inlet;
#X obj 152 97 route float;
#N canvas 0 22 468 438 map-lis 0;
#X obj 86 33 inlet;
#X obj 275 52 inlet;
#X obj 151 352 outlet;
#X obj 170 248 outlet;
#X obj 151 317 list;
#X obj 275 215 list prepend;
#X obj 354 185 t a;
#X obj 151 155 t b a a b;
#X obj 86 58 route bang;
#X obj 86 83 b;
#X obj 151 84 t b a;
#X obj 151 124 list;
#N canvas 0 22 665 501 drip-lis 0;
#X obj 63 84 t a a;
#X obj 63 241 spigot;
#X obj 102 149 bang;
#X obj 102 168 1;
#X obj 223 149 route bang;
#X obj 183 150 bang;
#X obj 183 169 0;
#X obj 102 114 list split 2;
#X obj 232 379 list split;
#X obj 299 328 list length;
#X obj 299 350 >> 1;
#X obj 63 260 t a a a a;
#X obj 63 446 list split;
#X obj 130 398 list length;
#X obj 130 423 >> 1;
#X obj 31 19 inlet;
#X obj 290 175 outlet;
#X text 73 19 Copyright 2009 by Mathieu Bouchard;
#X obj 31 53 t b a;
#X obj 465 119 outlet;
#X text 520 121 signal end of list;
#X text 381 23 made compatible with [list-drip]: fbar 2009;
#X connect 0 0 1 0;
#X connect 0 1 7 0;
#X connect 1 0 11 0;
#X connect 2 0 3 0;
#X connect 3 0 1 1;
#X connect 4 1 16 0;
#X connect 5 0 6 0;
#X connect 6 0 1 1;
#X connect 7 0 2 0;
#X connect 7 2 4 0;
#X connect 7 2 5 0;
#X connect 8 0 0 0;
#X connect 9 0 10 0;
#X connect 10 0 8 1;
#X connect 11 0 12 0;
#X connect 11 1 13 0;
#X connect 11 2 8 0;
#X connect 11 3 9 0;
#X connect 12 1 0 0;
#X connect 13 0 14 0;
#X connect 14 0 12 1;
#X connect 15 0 18 0;
#X connect 18 0 19 0;
#X connect 18 1 0 0;
#X restore 169 201 pd drip-lis;
#X connect 0 0 8 0;
#X connect 1 0 5 0;
#X connect 4 0 2 0;
#X connect 5 0 6 0;
#X connect 5 0 4 1;
#X connect 6 0 5 1;
#X connect 7 0 4 0;
#X connect 7 1 12 0;
#X connect 7 2 4 1;
#X connect 7 3 5 1;
#X connect 8 0 9 0;
#X connect 8 1 10 0;
#X connect 9 0 11 0;
#X connect 10 0 11 0;
#X connect 10 1 11 1;
#X connect 11 0 7 0;
#X connect 12 0 3 0;
#X restore 55 137 pd map-lis;
#X obj 152 208 /;
#X connect 0 0 5 0;
#X connect 3 0 6 1;
#X connect 4 0 6 0;
#X connect 4 1 5 1;
#X connect 5 0 1 0;
#X connect 5 1 4 0;
#X connect 6 0 5 1;
#X restore 151 187 pd list-math;
#X connect 0 0 3 0;
#X connect 0 0 4 0;
#X connect 1 0 3 1;
#X connect 3 0 4 1;
#X connect 3 1 1 0;
#X connect 4 0 2 0;
