#N canvas 718 461 614 551 10;
#X obj 349 34 vsl 15 128 0 127 0 0 empty empty empty 0 -8 0 8 -262144
-1 -1 4900 1;
#X obj 349 210 pack 0 0 0;
#X obj 371 171 t b f;
#X obj 412 171 t b f;
#X obj 349 257 unpack 0 0 0;
#X obj 371 34 vsl 15 128 0 127 0 0 empty empty empty 0 -8 0 8 -262144
-1 -1 3800 1;
#X obj 412 33 vsl 15 128 0 127 0 0 empty empty empty 0 -8 0 8 -262144
-1 -1 7400 1;
#X floatatom 349 282 5 0 0 0 - - -, f 5;
#X floatatom 388 282 5 0 0 0 - - -, f 5;
#X floatatom 428 282 5 0 0 0 - - -, f 5;
#X obj 349 308 vsl 15 128 0 1 0 0 empty empty empty 0 -8 0 8 -262144
-1 -1 3865 1;
#X obj 388 308 vsl 15 128 0 1 0 0 empty empty empty 0 -8 0 8 -262144
-1 -1 2998 1;
#X obj 428 308 vsl 15 128 0 1 0 0 empty empty empty 0 -8 0 8 -262144
-1 -1 5837 1;
#X obj 120 199 normalise-sum-list;
#X msg 118 100 1 1.5 2;
#X obj 221 276 +;
#X floatatom 121 306 5 0 0 0 - - -, f 5;
#X msg 136 131 10 13 45;
#X text 476 380 sum = 1;
#N canvas 0 22 473 539 list-reduce 0;
#X obj 86 33 inlet;
#X obj 275 52 inlet;
#X obj 151 352 outlet;
#X obj 205 353 outlet;
#X obj 86 58 route bang;
#X obj 86 83 b;
#X obj 151 84 t b a;
#X obj 151 124 list;
#X obj 151 233 list split 2;
#X obj 151 155 t a b;
#X obj 275 189 list append;
#X text 53 386 [list-reduce];
#X text 55 423 [list-reduce] returns a single value constructed by
calling the user-defined objects connected to the right outlet on the
first two items of the sequence \, then on the result (if it comes
in through the right inlet) and the next item \, and so on.;
#X obj 275 124 list split 1;
#X connect 0 0 4 0;
#X connect 1 0 13 0;
#X connect 4 0 5 0;
#X connect 4 1 6 0;
#X connect 5 0 7 0;
#X connect 6 0 7 0;
#X connect 6 1 7 1;
#X connect 7 0 9 0;
#X connect 8 0 3 0;
#X connect 8 1 10 1;
#X connect 8 2 2 0;
#X connect 9 0 8 0;
#X connect 9 1 10 1;
#X connect 10 0 8 0;
#X connect 13 0 10 0;
#X restore 121 276 pd list-reduce;
#X obj 349 234 normalise-sum-list;
#X obj 148 242 print;
#X text 96 484 Uses [list-reduce] and [list-math] from list-abs by
Frank Barknecht;
#X text 115 51 Normalise a list to the sum 1;
#X text 95 454 (c) 2015 Achim Bornhoeft;
#X msg 148 164 23.4 56.7 126.3;
#X text 440 104 Fader 0-127;
#X connect 0 0 1 0;
#X connect 1 0 20 0;
#X connect 2 0 1 0;
#X connect 2 1 1 1;
#X connect 3 0 1 0;
#X connect 3 1 1 2;
#X connect 4 0 7 0;
#X connect 4 1 8 0;
#X connect 4 2 9 0;
#X connect 5 0 2 0;
#X connect 6 0 3 0;
#X connect 7 0 10 0;
#X connect 8 0 11 0;
#X connect 9 0 12 0;
#X connect 13 0 19 0;
#X connect 13 0 21 0;
#X connect 14 0 13 0;
#X connect 15 0 19 1;
#X connect 17 0 13 0;
#X connect 19 0 16 0;
#X connect 19 1 15 0;
#X connect 20 0 4 0;
#X connect 25 0 13 0;
