#N canvas 747 447 737 570 10;
#X obj 253 304 *~;
#X text 275 8 gain-scaler;
#X text 388 23 limiter on off;
#X obj 275 107 line;
#X obj 0 16 cnv 15 70 175 empty empty empty 10 20 1 14 -99865 -262144
0;
#X obj 22 52 vu 12 120 \$0-vu-in empty -12 -8 0 7 -128992 -1 0 0;
#X obj 10 52 vsl 12 118 0 2 0 0 \$0-vol-r \$0-vol-s empty 3 133 0 10
-128992 -228856 -1 0 1;
#X obj 45 99 tgl 12 0 \$0-limiter-r \$0-limiter-s cmp 0 20 0 8 -162280
-204786 -228856 1 1;
#N canvas 0 22 345 409 switch~ 0;
#X text 63 22 switch between two audio inputs;
#X obj 73 134 inlet~;
#X text 73 116 input1;
#X obj 120 271 line~;
#X obj 208 214 line~;
#X obj 104 299 *~;
#X obj 191 302 *~;
#X obj 120 200 - 1;
#X obj 118 223 abs;
#X msg 119 243 \$1 30;
#X msg 208 186 \$1 30;
#X obj 175 330 +~;
#X obj 136 134 inlet~;
#X text 136 116 input2;
#X obj 207 133 inlet;
#X text 207 114 toggle;
#X obj 175 357 outlet~;
#X text 65 34 with toggle on it switsches to 2nd input;
#X obj 185 59 loadbang;
#X msg 186 89 0;
#X connect 1 0 5 0;
#X connect 3 0 5 1;
#X connect 4 0 6 1;
#X connect 5 0 11 0;
#X connect 6 0 11 1;
#X connect 7 0 8 0;
#X connect 8 0 9 0;
#X connect 9 0 3 0;
#X connect 10 0 4 0;
#X connect 11 0 16 0;
#X connect 12 0 6 0;
#X connect 14 0 10 0;
#X connect 14 0 7 0;
#X connect 18 0 19 0;
#X connect 19 0 10 0;
#X connect 19 0 7 0;
#X restore 253 375 pd switch~;
#X obj 253 521 outlet~ signal;
#X obj 45 130 tgl 12 0 \$0-out-rec-s \$0-out-rec-r rec 0 20 0 8 -162280
-261234 -228856 0 1;
#N canvas 695 87 384 423 hd_recording 0;
#X msg 219 256 stop;
#X obj 192 150 t f b;
#X obj 192 289 t a;
#X obj 101 66 select 0 1;
#X msg 129 237 start;
#X obj 156 122 f 0;
#X obj 129 96 t b b;
#X obj 47 355 writesf~ 1;
#X obj 46 38 inlet~;
#X text 48 14 signal;
#X msg 101 199 stop;
#X msg 192 229 open \$1;
#X obj 101 38 inlet;
#X obj 192 122 + 1;
#X obj 171 38 inlet;
#X msg 171 63 0;
#X obj 192 175 makefilename \$1-\$2_%d.wav;
#X symbolatom 192 203 20 0 0 0 - - -, f 20;
#X text 49 391 (c) 2007/2015 Achim Bornhoeft;
#X connect 0 0 2 0;
#X connect 1 0 16 0;
#X connect 1 1 0 0;
#X connect 2 0 7 0;
#X connect 3 0 10 0;
#X connect 3 1 6 0;
#X connect 4 0 7 0;
#X connect 5 0 13 0;
#X connect 6 0 4 0;
#X connect 6 1 5 0;
#X connect 8 0 7 0;
#X connect 10 0 7 0;
#X connect 11 0 2 0;
#X connect 12 0 3 0;
#X connect 13 0 5 1;
#X connect 13 0 1 0;
#X connect 14 0 15 0;
#X connect 15 0 5 1;
#X connect 16 0 17 0;
#X connect 17 0 11 0;
#X restore 333 422 pd hd_recording;
#X text 390 313 on/off;
#X obj 375 294 unpack f f;
#X obj 45 160 bng 12 250 50 0 \$0-st0-out-s \$0-st0-out-r st0 0 20
0 8 -162280 -261234 -228856;
#X obj 447 186 key;
#X floatatom 447 210 5 0 0 0 - - -, f 5;
#X obj 123 39 osc~ 440;
#X obj 123 102 *~;
#X obj 138 66 r \$0-testtone-r;
#X obj 45 68 tgl 12 0 \$0-testtone-r \$0-testtone-s 440 0 20 0 8 -162280
-257985 -228856 1 1;
#N canvas 126 632 748 425 guilabel 0;
#X msg 43 114 label \$1;
#X obj 43 26 inlet;
#X obj 41 193 outlet;
#X obj 43 86 makefilename %s;
#N canvas 371 178 187 217 round 0;
#X msg 107 79 10;
#X obj 107 56 loadbang;
#X obj 27 84 * 1;
#X obj 27 19 inlet;
#X obj 68 131 / 1;
#X msg 68 109 1;
#X obj 27 109 + 0.5;
#X obj 27 134 div;
#X obj 27 181 outlet;
#X obj 27 157 * 1;
#X obj 107 102 pow 2;
#X obj 27 45 t f b;
#X connect 0 0 10 0;
#X connect 1 0 0 0;
#X connect 2 0 6 0;
#X connect 3 0 11 0;
#X connect 4 0 9 1;
#X connect 5 0 4 0;
#X connect 6 0 7 0;
#X connect 7 0 9 0;
#X connect 9 0 8 0;
#X connect 10 0 2 1;
#X connect 10 0 4 1;
#X connect 10 0 5 0;
#X connect 11 0 2 0;
#X connect 11 1 0 0;
#X restore 43 53 pd round;
#X obj 41 165 r \$0-vol-no-r;
#X obj 43 141 s \$0-vol-no-s;
#X connect 0 0 6 0;
#X connect 1 0 4 0;
#X connect 3 0 0 0;
#X connect 4 0 3 0;
#X connect 5 0 2 0;
#X restore 320 188 pd guilabel;
#X obj 95 18 adc~ \$1;
#N canvas 0 22 394 406 vu~ 0;
#X obj 122 5 loadbang;
#X floatatom 108 217 5 0 0 0 - - -, f 5;
#X obj 108 188 max;
#X msg 123 160 0;
#X obj 60 115 env~ 1024;
#X obj 61 275 pack f f;
#X obj 60 58 inlet~;
#X obj 123 90 metro \$1;
#X obj 122 31 t b b;
#X msg 167 63 5000;
#X obj 184 7 bng 15 250 50 0 empty empty empty 17 7 0 10 -262144 -1
-1;
#X obj 61 300 outlet vu-meter;
#X obj 160 300 outlet db-rms;
#X floatatom 227 198 5 0 0 0 - - -, f 5;
#X obj 227 163 max;
#X obj 228 219 - 100;
#X obj 182 276 outlet timed-peak;
#X obj 61 246 - 100;
#X obj 106 246 - 100;
#X obj 228 247 outlet max-peak;
#X obj 244 103 r \$0-res-in-s;
#X msg 244 128 0;
#X connect 0 0 8 0;
#X connect 1 0 2 1;
#X connect 1 0 18 0;
#X connect 2 0 1 0;
#X connect 3 0 2 1;
#X connect 4 0 2 0;
#X connect 4 0 14 0;
#X connect 4 0 17 0;
#X connect 5 0 11 0;
#X connect 6 0 4 0;
#X connect 7 0 3 0;
#X connect 8 0 7 0;
#X connect 8 1 9 0;
#X connect 9 0 7 1;
#X connect 10 0 8 0;
#X connect 13 0 14 1;
#X connect 13 0 15 0;
#X connect 14 0 13 0;
#X connect 15 0 19 0;
#X connect 17 0 5 0;
#X connect 17 0 12 0;
#X connect 18 0 5 1;
#X connect 18 0 16 0;
#X connect 20 0 21 0;
#X connect 21 0 14 1;
#X restore 263 424 pd vu~;
#X obj 447 232 sel 67 82;
#N canvas 0 22 345 409 switch~ 0;
#X text 63 22 switch between two audio inputs;
#X obj 73 134 inlet~;
#X text 73 116 input1;
#X obj 120 271 line~;
#X obj 208 214 line~;
#X obj 104 299 *~;
#X obj 191 302 *~;
#X obj 120 200 - 1;
#X obj 118 223 abs;
#X obj 136 134 inlet~;
#X text 136 116 input2;
#X obj 207 133 inlet;
#X text 207 114 toggle;
#X obj 175 357 outlet~;
#X text 65 34 with toggle on it switsches to 2nd input;
#X obj 185 59 loadbang;
#X msg 186 89 0;
#X msg 208 186 \$1 50;
#X msg 119 243 \$1 50;
#X connect 1 0 5 0;
#X connect 3 0 5 1;
#X connect 4 0 6 1;
#X connect 5 0 13 0;
#X connect 6 0 13 0;
#X connect 7 0 8 0;
#X connect 8 0 18 0;
#X connect 9 0 6 0;
#X connect 11 0 17 0;
#X connect 11 0 7 0;
#X connect 15 0 16 0;
#X connect 16 0 17 0;
#X connect 16 0 7 0;
#X connect 17 0 4 0;
#X connect 18 0 3 0;
#X restore 95 128 pd switch~;
#X text 502 206 R = reset soundfile number;
#X text 502 185 C = record on/off;
#N canvas 367 652 484 359 guilabel 0;
#X msg 107 133 label \$1;
#X obj 108 20 inlet;
#X obj 107 161 outlet;
#N canvas 0 22 250 219 runden 0;
#X msg 112 55 10;
#X obj 112 32 loadbang;
#X obj 32 60 * 1;
#X obj 32 30 inlet;
#X obj 73 107 / 1;
#X msg 73 85 1;
#X obj 32 85 + 0.5;
#X obj 32 110 div;
#X obj 32 157 outlet;
#X obj 32 133 * 1;
#X obj 112 76 pow 1;
#X connect 0 0 10 0;
#X connect 1 0 0 0;
#X connect 2 0 6 0;
#X connect 3 0 2 0;
#X connect 4 0 9 1;
#X connect 5 0 4 0;
#X connect 6 0 7 0;
#X connect 7 0 9 0;
#X connect 9 0 8 0;
#X connect 10 0 2 1;
#X connect 10 0 4 1;
#X connect 10 0 5 0;
#X restore 108 45 pd runden;
#X obj 108 106 makefilename %s;
#X floatatom 224 107 12 0 0 0 - - -, f 12;
#X text 387 202 label-color;
#X obj 224 243 t b f;
#X msg 224 202 16;
#X obj 224 134 moses -13;
#X floatatom 224 159 5 0 0 0 - - -, f 5;
#X obj 275 156 moses -2;
#X msg 275 201 15;
#X obj 320 178 moses 0;
#X msg 320 201 14;
#X msg 359 201 13;
#X obj 224 322 s \$0-peak;
#X msg 224 298 color \$1 \$2;
#X obj 224 272 pack 21 0;
#X obj 39 22 loadbang;
#X obj 39 70 symbol -inf;
#X connect 0 0 2 0;
#X connect 1 0 3 0;
#X connect 3 0 4 0;
#X connect 3 0 5 0;
#X connect 4 0 0 0;
#X connect 5 0 9 0;
#X connect 7 0 18 0;
#X connect 7 1 18 1;
#X connect 8 0 7 0;
#X connect 9 0 10 0;
#X connect 9 1 11 0;
#X connect 10 0 8 0;
#X connect 11 0 12 0;
#X connect 11 1 13 0;
#X connect 12 0 7 0;
#X connect 13 0 14 0;
#X connect 13 1 15 0;
#X connect 14 0 7 0;
#X connect 15 0 7 0;
#X connect 17 0 16 0;
#X connect 18 0 17 0;
#X connect 19 0 20 0;
#X connect 20 0 4 0;
#X restore 335 478 pd guilabel;
#X obj 263 477 s \$0-vu-in;
#X obj 11 174 cnv 8 28 11 \$0-vol-no-r \$0-vol-no-s 0 4 7 1 9 -99865
-228856 0;
#X obj 10 39 cnv 8 26 11 empty \$0-peak 3 1 7 0 8 -99865 -258699 0
;
#X obj 335 502 s \$0-peak;
#X obj 0 0 cnv 10 70 15 empty \$1-channel out\$1 20 8 0 11 -162280
-33289 0;
#X obj 291 55 loadbang;
#X msg 291 76 0;
#X obj 313 250 > 0;
#X obj 313 297 switch~;
#X obj 313 275 tgl 15 0 empty empty empty 17 7 0 10 -262144 -1 -1 0
1;
#X obj 44 39 bng 12 250 50 0 \$0-res-in-s \$0-res-in-r res 0 20 0 8
-162280 -261234 -228856;
#X text 561 333 start soundfile number 0;
#X obj 536 45 tgl 15 0 empty empty empty 17 7 0 10 -262144 -1 -1 1
1;
#X msg 536 66 \; pd dsp \$1;
#X obj 536 22 loadbang;
#X obj 27 21 cnv 10 40 10 empty \$1-name \$2 0 5 0 10 -99865 -228856
0;
#X obj 375 265 r \$1-out-rec;
#X obj 375 334 s \$0-out-rec-r;
#X obj 376 367 r \$0-out-rec-s;
#X obj 472 332 s \$0-st0-out-r;
#X obj 474 365 r \$0-st0-out-s;
#X obj 391 49 r \$1-compressor;
#X obj 391 81 s \$0-compressor-s;
#X obj 391 113 r \$0-compressor-r;
#N canvas 0 22 956 697 compressor 1;
#X obj 252 640 outlet~;
#X obj 252 506 *~;
#X obj 252 614 *~;
#N canvas 0 22 450 300 delWrite 0;
#X obj 68 80 delwrite~ \$0-comp 500;
#X obj 68 39 inlet~;
#X obj 68 156 outlet~;
#X connect 1 0 0 0;
#X restore 85 289 pd delWrite;
#X obj 481 393 dbtorms;
#X obj 533 364 /;
#X obj 533 333 swap 1;
#X obj 586 340 /;
#X obj 586 318 swap 1000;
#X obj 267 466 lop~;
#X obj 267 411 clip~ 0 1;
#X obj 481 415 s \$0-thresh;
#X obj 533 386 s \$0-ratio;
#X obj 267 589 line~;
#X obj 267 568 pack f 5;
#X obj 267 544 r \$0-gain;
#X obj 638 297 s \$0-gain;
#N canvas 0 22 872 621 rms 0;
#X obj 257 107 env~ 512;
#X obj 257 245 -~;
#X obj 257 293 *~;
#X obj 257 345 +~;
#X obj 257 385 /~;
#X obj 378 221 +~ 0;
#X obj 272 220 r \$0-thresh;
#X obj 272 318 r \$0-thresh;
#X obj 272 269 r \$0-ratio;
#X obj 257 34 inlet~;
#X obj 257 407 outlet~;
#X obj 373 37 inlet;
#X obj 373 59 switch~;
#X obj 257 135 dbtorms~;
#X text 221 74 Input;
#X text 231 136 RMS;
#X text 424 59 turn DSP on/off for this sub-patch;
#X connect 0 0 13 0;
#X connect 1 0 2 0;
#X connect 2 0 3 0;
#X connect 3 0 4 0;
#X connect 4 0 10 0;
#X connect 5 0 4 1;
#X connect 6 0 1 1;
#X connect 7 0 3 1;
#X connect 8 0 2 1;
#X connect 9 0 0 0;
#X connect 11 0 12 0;
#X connect 13 0 1 0;
#X connect 13 0 5 0;
#X restore 267 288 pd rms;
#N canvas 0 22 859 606 peak 0;
#X obj 244 134 abs~;
#X obj 244 243 -~;
#X obj 244 291 *~;
#X obj 244 343 +~;
#X obj 244 383 /~;
#X obj 365 219 +~ 0;
#X obj 259 218 r \$0-thresh;
#X obj 259 316 r \$0-thresh;
#X obj 259 267 r \$0-ratio;
#X obj 244 49 inlet~;
#X obj 244 405 outlet~;
#X obj 470 125 inlet;
#X obj 470 147 switch~;
#X text 206 99 Input;
#X text 208 135 Peak;
#X text 521 148 turn DSP on/off for this sub-patch;
#X connect 0 0 1 0;
#X connect 0 0 5 0;
#X connect 1 0 2 0;
#X connect 2 0 3 0;
#X connect 3 0 4 0;
#X connect 4 0 10 0;
#X connect 5 0 4 1;
#X connect 6 0 1 1;
#X connect 7 0 3 1;
#X connect 8 0 2 1;
#X connect 9 0 0 0;
#X connect 11 0 12 0;
#X restore 315 288 pd peak;
#X obj 300 230 == 0;
#X obj 300 185 t f f;
#X obj 85 32 inlet~;
#X obj 300 161 r \$0-rmspeak;
#X obj 691 271 s \$0-rmspeak;
#X obj 743 247 s \$0-lookahead;
#X obj 142 341 r \$0-lookahead;
#X obj 481 223 route threshold ratio response gain rmspeak lookahead
;
#X obj 484 94 loadbang;
#X obj 481 170 t a a;
#X obj 508 198 s \$0-dump;
#X obj 481 358 + 100;
#X obj 638 273 dbtorms;
#X obj 288 444 r \$0-response;
#X obj 586 362 s \$0-response;
#N canvas 0 22 450 300 delRead 0;
#X obj 68 41 inlet~;
#X obj 133 155 outlet~;
#X obj 133 42 inlet lookAhead;
#X obj 133 116 delread~ \$0-comp 0;
#X connect 2 0 3 0;
#X connect 3 0 1 0;
#X restore 85 365 pd delRead;
#X text 129 32 Input;
#X text 25 287 delwrite~;
#X text 51 320 dymmy;
#X text 50 332 cable;
#X text 31 365 delread~;
#X text 141 320 Lookahead in ms;
#X text 334 409 Clip signal;
#X text 298 465 Attack/release using LPF;
#X text 277 505 Gain Control;
#X text 318 311 Gain computation;
#X text 318 325 RMS/Peak;
#X text 330 544 Make-up gain;
#X text 339 185 RMS/Peak;
#X text 339 198 selector;
#X text 541 96 initialise controls;
#X text 538 181 send controls to UI;
#X text 479 437 Convert dB FS;
#X text 479 448 to Pd dB scale;
#X text 479 460 and then linear;
#X text 479 471 amplitude.;
#X text 561 403 inverse of ratio;
#X text 637 380 convert ms to frequency;
#X text 657 316 convert dBFS scale to Pd dB scale;
#X text 707 290 RMS/peak selection;
#X text 781 264 lookahead value in ms;
#X text 757 206 route incoming data;
#X text 810 18 Varun Nair;
#X text 810 31 2013;
#X text 811 44 re-sounding.com;
#X text 812 57 @ntkeep;
#X obj 413 41 inlet;
#X obj 413 78 switch~;
#X obj 638 251 + 100;
#X msg 481 123 threshold -2 \, ratio 4 \, response 40 \, gain -1.2
\, rmspeak 0 \, lookahead 3;
#X connect 1 0 2 0;
#X connect 2 0 0 0;
#X connect 3 0 34 0;
#X connect 4 0 11 0;
#X connect 5 0 12 0;
#X connect 6 0 5 0;
#X connect 6 1 5 1;
#X connect 7 0 33 0;
#X connect 8 0 7 0;
#X connect 8 1 7 1;
#X connect 9 0 1 1;
#X connect 10 0 9 0;
#X connect 13 0 2 1;
#X connect 14 0 13 0;
#X connect 15 0 14 0;
#X connect 17 0 10 0;
#X connect 18 0 10 0;
#X connect 19 0 17 1;
#X connect 20 0 19 0;
#X connect 20 1 18 1;
#X connect 21 0 3 0;
#X connect 21 0 17 0;
#X connect 21 0 18 0;
#X connect 22 0 20 0;
#X connect 25 0 34 1;
#X connect 26 0 30 0;
#X connect 26 1 6 0;
#X connect 26 2 8 0;
#X connect 26 3 67 0;
#X connect 26 4 23 0;
#X connect 26 5 24 0;
#X connect 27 0 68 0;
#X connect 28 0 26 0;
#X connect 28 1 29 0;
#X connect 30 0 4 0;
#X connect 31 0 16 0;
#X connect 32 0 9 1;
#X connect 34 0 1 0;
#X connect 65 0 66 0;
#X connect 67 0 31 0;
#X connect 68 0 28 0;
#X restore 281 346 pd compressor;
#X obj 275 29 r \$1-vol;
#X obj 273 165 s \$0-vol-s;
#X obj 272 213 r \$0-vol-r;
#X obj 189 88 r main-vol;
#X obj 273 135 +;
#X obj 322 78 r main-vol;
#X connect 0 0 8 0;
#X connect 0 0 53 0;
#X connect 3 0 58 0;
#X connect 8 0 9 0;
#X connect 8 0 23 0;
#X connect 8 0 11 0;
#X connect 13 0 46 0;
#X connect 13 1 48 0;
#X connect 15 0 16 0;
#X connect 16 0 24 0;
#X connect 17 0 18 0;
#X connect 18 0 25 1;
#X connect 19 0 25 2;
#X connect 19 0 18 1;
#X connect 21 0 58 1;
#X connect 22 0 25 0;
#X connect 23 0 29 0;
#X connect 23 3 28 0;
#X connect 24 0 46 0;
#X connect 24 1 48 0;
#X connect 25 0 0 0;
#X connect 28 0 32 0;
#X connect 35 0 3 0;
#X connect 36 0 38 0;
#X connect 38 0 37 0;
#X connect 41 0 42 0;
#X connect 43 0 41 0;
#X connect 45 0 13 0;
#X connect 47 0 11 1;
#X connect 49 0 11 2;
#X connect 50 0 51 0;
#X connect 52 0 8 2;
#X connect 52 0 53 1;
#X connect 53 0 8 1;
#X connect 54 0 3 0;
#X connect 56 0 36 0;
#X connect 56 0 0 1;
#X connect 56 0 21 0;
#X connect 58 0 55 0;
#X connect 59 0 58 0;
#X coords 0 -1 1 1 70 190 2 0 0;
