#N canvas 751 258 750 565 10;
#X obj 187 388 line~;
#X obj 127 431 *~;
#X obj 230 328 del;
#X obj 132 71 symbol;
#X obj 132 102 t b s;
#X msg 101 330 1;
#N canvas 17 198 351 358 sfdur 0;
#X obj 39 150 soundfiler;
#X obj 39 175 / 44.1;
#X obj 39 49 t a b;
#X obj 92 75 f \$0;
#X obj 39 100 pack s f;
#X obj 202 160 table \$0-table;
#X obj 66 226 outlet;
#X obj 39 20 inlet;
#X text 46 315 (c) 2015 Achim Bornhoeft;
#X msg 39 125 read -maxsize 5e+07 -resize \$1 \$2-table;
#X obj 39 200 t b f;
#X obj 39 278 s \$0-table;
#X msg 39 253 resize 1;
#X connect 0 0 1 0;
#X connect 1 0 10 0;
#X connect 2 0 4 0;
#X connect 2 1 3 0;
#X connect 3 0 4 1;
#X connect 4 0 9 0;
#X connect 7 0 2 0;
#X connect 9 0 0 0;
#X connect 10 0 12 0;
#X connect 10 1 6 0;
#X connect 12 0 11 0;
#X restore 175 154 pd sfdur;
#X msg 114 397 0;
#X obj 507 93 loadbang;
#X obj 132 330 pack 1 f;
#X obj 269 363 pack 0 f;
#X obj 248 295 -;
#X obj 127 494 outlet~;
#X obj 127 466 *~;
#X obj 283 164 \$1;
#X obj 364 174 \$2;
#X obj 518 263 \$3;
#X floatatom 282 193 5 0 0 0 - - -, f 5;
#X obj 374 101 route 0;
#X obj 268 328 t b f;
#X obj 278 62 route 1;
#X obj 145 288 t b f;
#X floatatom 365 263 5 0 0 0 - - -, f 5;
#X obj 482 188 line;
#X floatatom 514 227 5 0 0 0 - - -, f 5;
#X obj 557 149 \$4;
#X obj 571 235 s \$0-start;
#X obj 44 133 r \$0-start;
#X obj 44 203 f;
#X obj 119 155 t b a;
#X obj 443 388 f;
#X floatatom 443 415 5 0 0 0 - - -, f 5;
#X obj 518 294 == 0;
#X obj 514 353 spigot;
#X obj 519 322 t f f;
#X obj 443 350 spigot;
#X obj 481 321 != 0;
#X obj 646 139 \$5;
#X obj 646 169 == 0;
#X obj 176 216 spigot;
#X obj 646 198 s \$0-dur;
#X obj 209 175 r \$0-dur;
#X floatatom 248 264 5 0 0 0 - - -, f 5;
#X obj 131 45 unpack s f f f f f;
#X obj 278 18 inlet rampup;
#X obj 373 18 inlet rampdown;
#X obj 481 15 inlet amp;
#X obj 557 15 inlet start;
#X obj 646 19 inlet dur;
#X obj 131 17 inlet parameterlist;
#X obj 43 257 pack f s;
#X msg 42 288 open \$2 \$1;
#X text 298 454 soundfile player for PD Vanilla;
#X text 297 475 (c) 2015 Achim Bornhoeft;
#X obj 41 396 readsf~ 1;
#X obj 556 198 * 44.1;
#N canvas 0 22 343 283 symbol_change 0;
#X obj 111 210 outlet;
#X obj 54 43 inlet;
#X obj 54 74 route symbol;
#X obj 134 165 t a;
#X obj 111 136 symbol;
#X obj 111 106 loadbang;
#X obj 54 165 select SYM;
#X text 164 138 start with empty symbol;
#X text 165 166 pass \, then set;
#X connect 1 0 2 0;
#X connect 2 0 6 0;
#X connect 3 0 6 1;
#X connect 4 0 6 1;
#X connect 5 0 4 0;
#X connect 6 1 0 0;
#X connect 6 1 3 0;
#X restore 175 129 pd symbol_change;
#X floatatom 556 265 5 0 0 0 - - -, f 5;
#X floatatom 228 209 5 0 0 0 - - -, f 5;
#X connect 0 0 1 1;
#X connect 1 0 13 0;
#X connect 2 0 10 0;
#X connect 3 0 4 0;
#X connect 4 0 5 0;
#X connect 4 0 2 0;
#X connect 4 0 9 0;
#X connect 4 1 29 0;
#X connect 4 1 56 0;
#X connect 5 0 54 0;
#X connect 6 0 39 0;
#X connect 7 0 54 0;
#X connect 8 0 14 0;
#X connect 8 0 15 0;
#X connect 8 0 25 0;
#X connect 8 0 16 0;
#X connect 8 0 37 0;
#X connect 9 0 0 0;
#X connect 10 0 0 0;
#X connect 11 0 2 1;
#X connect 13 0 12 0;
#X connect 14 0 9 1;
#X connect 14 0 17 0;
#X connect 15 0 11 1;
#X connect 15 0 10 1;
#X connect 15 0 22 0;
#X connect 16 0 32 0;
#X connect 16 0 36 0;
#X connect 16 0 35 0;
#X connect 18 0 19 0;
#X connect 18 1 15 0;
#X connect 19 0 10 0;
#X connect 19 1 10 1;
#X connect 20 0 21 0;
#X connect 20 1 14 0;
#X connect 21 0 9 0;
#X connect 21 1 9 1;
#X connect 23 0 24 0;
#X connect 23 0 16 0;
#X connect 23 0 30 0;
#X connect 25 0 55 0;
#X connect 27 0 28 0;
#X connect 28 0 50 0;
#X connect 29 0 28 0;
#X connect 29 1 50 1;
#X connect 30 0 31 0;
#X connect 31 0 13 1;
#X connect 32 0 34 0;
#X connect 33 0 30 0;
#X connect 34 0 33 0;
#X connect 34 1 33 1;
#X connect 35 0 30 0;
#X connect 36 0 35 1;
#X connect 37 0 38 0;
#X connect 37 0 42 0;
#X connect 38 0 40 0;
#X connect 39 0 42 0;
#X connect 41 0 39 1;
#X connect 41 0 58 0;
#X connect 42 0 11 0;
#X connect 43 0 3 0;
#X connect 43 1 14 0;
#X connect 43 2 15 0;
#X connect 43 3 23 0;
#X connect 43 4 25 0;
#X connect 43 5 37 0;
#X connect 44 0 20 0;
#X connect 45 0 18 0;
#X connect 46 0 23 0;
#X connect 47 0 25 0;
#X connect 48 0 37 0;
#X connect 49 0 43 0;
#X connect 50 0 51 0;
#X connect 51 0 54 0;
#X connect 54 0 1 0;
#X connect 54 1 7 0;
#X connect 55 0 26 0;
#X connect 55 0 57 0;
#X connect 56 0 6 0;
