#N canvas 466 276 670 506 12;
#N canvas 947 28 949 779 data 0;
#X obj 149 521 nbx 3 15 0 12 0 0 empty empty empty -2 -6 0 10 -262144
-1 -1 9 256;
#X obj 45 33 key;
#X floatatom 45 58 5 0 0 0 - - -, f 5;
#X obj 418 118 print line not in msgfile - key;
#X text 413 241 1-9 and ⌧ (10) \, = (11) and / (12): Execute the
corresponding line.;
#X text 435 279 0: Go to the first line (without executing).;
#X obj 233 657 f;
#X obj 310 656 +;
#X msg 368 401 1;
#X msg 393 478 -1;
#X obj 367 434 t b a;
#X obj 392 511 t b a;
#X floatatom 367 687 5 0 0 0 - - -, f 5;
#X obj 367 659 mod;
#X obj 388 622 r \$0-mod;
#X obj 45 87 sel 49 50 51 52 53 54 55 56 57 0 61 47 48 43 45;
#X obj 149 544 t b f b;
#X obj 367 740 outlet;
#X obj 367 712 + 1;
#X msg 45 122 0;
#X msg 69 148 1;
#X msg 94 178 2;
#X msg 119 210 3;
#X msg 144 234 4;
#X msg 169 257 5;
#X msg 194 279 6;
#X msg 219 302 7;
#X msg 243 327 8;
#X msg 268 351 9;
#X msg 293 374 10;
#X msg 318 396 11;
#X msg 300 623 0;
#X msg 255 519 -1;
#X text 420 199 + : Execute next line.;
#X text 420 220 - : Execute previous line.;
#X text 420 170 Navigation (keypad):;
#X obj 86 32 inlet;
#X connect 0 0 16 0;
#X connect 1 0 2 0;
#X connect 2 0 15 0;
#X connect 6 0 7 0;
#X connect 7 0 13 0;
#X connect 8 0 10 0;
#X connect 9 0 11 0;
#X connect 10 0 6 0;
#X connect 10 1 7 1;
#X connect 11 0 6 0;
#X connect 11 1 7 1;
#X connect 12 0 18 0;
#X connect 13 0 6 1;
#X connect 13 0 12 0;
#X connect 14 0 13 1;
#X connect 15 0 19 0;
#X connect 15 1 20 0;
#X connect 15 2 21 0;
#X connect 15 3 22 0;
#X connect 15 4 23 0;
#X connect 15 5 24 0;
#X connect 15 6 25 0;
#X connect 15 7 26 0;
#X connect 15 8 27 0;
#X connect 15 9 28 0;
#X connect 15 10 29 0;
#X connect 15 11 30 0;
#X connect 15 12 32 0;
#X connect 15 13 8 0;
#X connect 15 14 9 0;
#X connect 15 15 3 0;
#X connect 16 0 6 0;
#X connect 16 1 6 1;
#X connect 16 2 31 0;
#X connect 18 0 17 0;
#X connect 19 0 0 0;
#X connect 20 0 0 0;
#X connect 21 0 0 0;
#X connect 22 0 0 0;
#X connect 23 0 0 0;
#X connect 24 0 0 0;
#X connect 25 0 0 0;
#X connect 26 0 0 0;
#X connect 27 0 0 0;
#X connect 28 0 0 0;
#X connect 29 0 0 0;
#X connect 30 0 0 0;
#X connect 31 0 7 1;
#X connect 32 0 6 1;
#X connect 36 0 2 0;
#X restore 34 125 pd data retrieval;
#X obj 48 442 print soundfile;
#X obj 0 0 cnv 15 200 15 empty \$0-sndfile 1-4-reverse.wav 5 8 0 10
-191407 -66577 0;
#X msg 45 347 label \$1;
#X obj 34 469 outlet;
#X text 13 30 Edit soundfiles.txt (\$1) to add/ change soundfiles;
#X text 186 125 see inside for getting data from textfile;
#X obj 63 288 textfile;
#X obj 63 252 until;
#X obj 34 317 list;
#X obj 34 187 t b f b;
#X text 87 159 line no. in textfile;
#X obj 114 223 symbol \$1;
#X msg 114 253 read \$1 cr \, rewind;
#X obj 34 406 list trim;
#X floatatom 34 160 5 0 0 0 - - -, f 5;
#X obj 45 377 s \$0-sndfile;
#X obj 34 68 loadbang;
#X msg 34 96 49;
#N canvas 590 191 350 377 no_of_lines_in_textfile 0;
#X obj 84 196 textfile;
#X obj 58 159 until;
#X obj 58 265 f;
#X obj 102 264 + 1;
#X msg 111 230 0;
#X floatatom 58 299 5 0 0 0 - - -, f 5;
#X obj 58 327 s \$0-mod;
#X obj 58 27 loadbang;
#X text 108 299 no. of lines in textfile;
#X obj 139 30 bng 15 250 50 0 empty empty empty 17 7 0 10 -262144 -1
-1;
#X obj 58 63 symbol \$1;
#X obj 58 92 t b s b;
#X msg 84 124 read \$1 cr \, rewind;
#X connect 0 1 1 1;
#X connect 1 0 0 0;
#X connect 1 0 2 0;
#X connect 2 0 3 0;
#X connect 2 0 5 0;
#X connect 3 0 2 1;
#X connect 4 0 2 1;
#X connect 5 0 6 0;
#X connect 7 0 10 0;
#X connect 9 0 10 0;
#X connect 10 0 11 0;
#X connect 11 0 1 0;
#X connect 11 1 12 0;
#X connect 11 2 4 0;
#X connect 12 0 0 0;
#X restore 305 165 pd no_of_lines_in_textfile;
#X connect 0 0 15 0;
#X connect 3 0 16 0;
#X connect 7 0 9 1;
#X connect 7 1 8 1;
#X connect 8 0 7 0;
#X connect 9 0 14 0;
#X connect 9 0 3 0;
#X connect 10 0 9 0;
#X connect 10 1 8 0;
#X connect 10 2 12 0;
#X connect 12 0 13 0;
#X connect 13 0 7 0;
#X connect 14 0 1 0;
#X connect 14 0 4 0;
#X connect 15 0 10 0;
#X connect 17 0 18 0;
#X connect 18 0 0 0;
#X coords 0 -1 1 1 200 15 2 0 0;
