#N canvas 769 297 372 640 10;
#X obj 126 44 tgl 15 0 empty empty empty 17 7 0 10 -262144 -1 -1 0
1;
#X obj 146 208 -;
#X obj 126 126 f;
#X obj 125 151 t b f;
#X obj 126 66 t f b;
#X msg 178 92 0;
#X obj 100 335 div 1000;
#X obj 182 335 mod 1000;
#X obj 203 14 inlet;
#X obj 124 181 f \$1;
#X obj 125 13 inlet;
#X obj 31 334 div 60000;
#X msg 32 563 label \$1;
#X obj 32 587 s \$0-label;
#X obj 0 0 cnv 15 65 20 dummy \$0-label 00:00 5 10 1 14 -262144 -66577
0;
#N canvas 0 22 450 300 format 0;
#X obj 24 20 inlet;
#X obj 24 224 outlet;
#X obj 91 105 + 1;
#X obj 24 47 t f f;
#X obj 24 171 makefilename 0%d;
#X obj 176 171 makefilename %d;
#X obj 91 80 >= 10;
#N canvas 0 22 450 300 gate2 0;
#X obj 44 237 spigot;
#X obj 44 262 outlet;
#X obj 123 238 spigot;
#X obj 123 263 outlet;
#X obj 21 30 inlet;
#X obj 288 38 inlet;
#X obj 359 129 loadbang;
#X obj 93 194 unpack 0 0;
#X obj 288 62 route 0 1 2;
#X msg 350 95 0 1;
#X msg 319 127 1 0;
#X msg 288 166 0 0;
#X connect 0 0 1 0;
#X connect 2 0 3 0;
#X connect 4 0 0 0;
#X connect 4 0 2 0;
#X connect 5 0 8 0;
#X connect 6 0 11 0;
#X connect 7 0 0 1;
#X connect 7 1 2 1;
#X connect 8 0 11 0;
#X connect 8 1 10 0;
#X connect 8 2 9 0;
#X connect 9 0 7 0;
#X connect 10 0 7 0;
#X connect 11 0 7 0;
#X restore 24 133 pd gate2;
#X connect 0 0 3 0;
#X connect 2 0 7 1;
#X connect 3 0 7 0;
#X connect 3 1 6 0;
#X connect 4 0 1 0;
#X connect 5 0 1 0;
#X connect 6 0 2 0;
#X connect 7 0 4 0;
#X connect 7 1 5 0;
#X restore 101 384 pd format;
#N canvas 0 22 450 300 format 0;
#X obj 24 20 inlet;
#X obj 24 224 outlet;
#X obj 91 105 + 1;
#X obj 24 47 t f f;
#X obj 24 171 makefilename 0%d;
#X obj 176 171 makefilename %d;
#X obj 91 80 >= 10;
#N canvas 0 22 450 300 gate2 0;
#X obj 44 237 spigot;
#X obj 44 262 outlet;
#X obj 123 238 spigot;
#X obj 123 263 outlet;
#X obj 21 30 inlet;
#X obj 288 38 inlet;
#X obj 359 129 loadbang;
#X obj 93 194 unpack 0 0;
#X obj 288 62 route 0 1 2;
#X msg 350 95 0 1;
#X msg 319 127 1 0;
#X msg 288 166 0 0;
#X connect 0 0 1 0;
#X connect 2 0 3 0;
#X connect 4 0 0 0;
#X connect 4 0 2 0;
#X connect 5 0 8 0;
#X connect 6 0 11 0;
#X connect 7 0 0 1;
#X connect 7 1 2 1;
#X connect 8 0 11 0;
#X connect 8 1 10 0;
#X connect 8 2 9 0;
#X connect 9 0 7 0;
#X connect 10 0 7 0;
#X connect 11 0 7 0;
#X restore 24 133 pd gate2;
#X connect 0 0 3 0;
#X connect 2 0 7 1;
#X connect 3 0 7 0;
#X connect 3 1 6 0;
#X connect 4 0 1 0;
#X connect 5 0 1 0;
#X connect 6 0 2 0;
#X connect 7 0 4 0;
#X connect 7 1 5 0;
#X restore 31 383 pd format;
#N canvas 0 22 450 300 format 0;
#X obj 24 20 inlet;
#X obj 24 224 outlet;
#X obj 91 105 + 1;
#X obj 24 47 t f f;
#X obj 24 171 makefilename 0%d;
#X obj 176 171 makefilename %d;
#X obj 91 80 >= 10;
#N canvas 0 22 450 300 gate2 0;
#X obj 44 237 spigot;
#X obj 44 262 outlet;
#X obj 123 238 spigot;
#X obj 123 263 outlet;
#X obj 21 30 inlet;
#X obj 288 38 inlet;
#X obj 359 129 loadbang;
#X obj 93 194 unpack 0 0;
#X obj 288 62 route 0 1 2;
#X msg 350 95 0 1;
#X msg 319 127 1 0;
#X msg 288 166 0 0;
#X connect 0 0 1 0;
#X connect 2 0 3 0;
#X connect 4 0 0 0;
#X connect 4 0 2 0;
#X connect 5 0 8 0;
#X connect 6 0 11 0;
#X connect 7 0 0 1;
#X connect 7 1 2 1;
#X connect 8 0 11 0;
#X connect 8 1 10 0;
#X connect 8 2 9 0;
#X connect 9 0 7 0;
#X connect 10 0 7 0;
#X connect 11 0 7 0;
#X restore 24 133 pd gate2;
#X connect 0 0 3 0;
#X connect 2 0 7 1;
#X connect 3 0 7 0;
#X connect 3 1 6 0;
#X connect 4 0 1 0;
#X connect 5 0 1 0;
#X connect 6 0 2 0;
#X connect 7 0 4 0;
#X connect 7 1 5 0;
#X restore 182 386 pd format;
#X obj 101 361 mod 60;
#X obj 146 265 t f f f b;
#X obj 194 239 sel 1;
#X obj 222 122 timer;
#X floatatom 222 151 8 0 0 0 Test - -, f 8;
#X obj 284 155 bng 15 250 50 0 empty empty empty 17 7 0 10 -262144
-1 -1;
#X obj 172 16 bng 15 250 50 0 empty empty empty 17 7 0 10 -262144 -1
-1;
#X obj 160 127 + 1;
#X obj 126 93 metro 1;
#X obj 157 239 < 1;
#X obj 182 360 / 10;
#X obj 253 272 outlet;
#X msg 78 237 0;
#X obj 78 213 loadbang;
#X msg 181 432 set \$1;
#X obj 181 409 makefilename %%s:%s;
#X obj 101 464 makefilename;
#X obj 100 486 makefilename %%s:%s;
#X msg 99 508 set \$1;
#X obj 32 539 makefilename;
#X connect 0 0 4 0;
#X connect 1 0 19 0;
#X connect 1 0 27 0;
#X connect 2 0 3 0;
#X connect 2 0 25 0;
#X connect 3 0 9 0;
#X connect 3 1 1 1;
#X connect 4 0 26 0;
#X connect 4 1 5 0;
#X connect 5 0 2 1;
#X connect 6 0 18 0;
#X connect 7 0 28 0;
#X connect 8 0 19 0;
#X connect 8 0 9 1;
#X connect 9 0 1 0;
#X connect 10 0 0 0;
#X connect 11 0 16 0;
#X connect 12 0 13 0;
#X connect 15 0 34 0;
#X connect 16 0 37 0;
#X connect 17 0 33 0;
#X connect 18 0 15 0;
#X connect 19 0 11 0;
#X connect 19 1 6 0;
#X connect 19 2 7 0;
#X connect 20 0 0 0;
#X connect 20 0 23 0;
#X connect 20 0 29 0;
#X connect 21 0 22 0;
#X connect 23 0 21 1;
#X connect 24 0 21 0;
#X connect 24 0 0 0;
#X connect 25 0 2 1;
#X connect 26 0 2 0;
#X connect 27 0 20 0;
#X connect 28 0 17 0;
#X connect 30 0 19 0;
#X connect 31 0 30 0;
#X connect 32 0 34 0;
#X connect 33 0 32 0;
#X connect 34 0 35 0;
#X connect 35 0 36 0;
#X connect 36 0 37 0;
#X connect 37 0 12 0;
#X coords 0 -1 1 1 65 20 2 0 0;
