#N canvas 537 186 332 261 10;
#X obj 111 210 outlet;
#X obj 54 43 inlet;
#X obj 54 74 route symbol;
#X obj 134 165 t a;
#X obj 111 136 symbol;
#X obj 111 106 loadbang;
#X obj 54 165 select SYM;
#X text 164 138 start with empty symbol;
#X text 165 166 pass \, then set;
#X connect 1 0 2 0;
#X connect 2 0 6 0;
#X connect 3 0 6 1;
#X connect 4 0 6 1;
#X connect 5 0 4 0;
#X connect 6 1 0 0;
#X connect 6 1 3 0;
