#N canvas 544 246 332 261 10;
#X msg 96 74 symbol one;
#X msg 180 73 symbol two;
#X symbolatom 113 171 10 0 0 0 - - -, f 10;
#X obj 91 169 bng 15 250 50 0 empty empty empty 17 7 0 10 -262144 -1
-1;
#X text 93 40 change object for symbols;
#X obj 113 120 symbol_change;
#X connect 0 0 5 0;
#X connect 1 0 5 0;
#X connect 5 0 2 0;
#X connect 5 0 3 0;
