#N canvas 385 85 1307 412 12;
#X obj 881 188 textfile;
#X obj 881 143 until;
#X obj 852 219 list;
#X msg 852 75 1;
#X msg 889 75 2;
#X msg 927 75 3;
#X msg 964 75 4;
#X obj 852 111 t b f b;
#X obj 448 282 textfile;
#X obj 448 246 until;
#X obj 419 311 list;
#X obj 419 206 t b f b;
#X obj 419 339 print;
#X obj 419 152 + 1;
#X obj 454 154 mod;
#X obj 476 85 r \$0-mod;
#X obj 386 100 bng 15 250 50 0 empty empty empty 17 7 0 10 -262144
-1 -1;
#X obj 386 153 f 1;
#X floatatom 419 181 5 0 0 0 - - -, f 5;
#X obj 84 198 textfile;
#X obj 58 161 until;
#X msg 58 58 bang;
#X obj 58 267 f;
#X obj 102 266 + 1;
#X msg 114 232 0;
#X obj 58 92 t b b b;
#X floatatom 58 301 5 0 0 0 - - -, f 5;
#X obj 58 329 s \$0-mod;
#X msg 407 125 0;
#X text 467 180 line no. in textfile;
#X text 1000 76 line no. in textfile;
#N canvas 229 305 472 422 alternative 0;
#X obj 126 146 textfile;
#X obj 126 100 until;
#X msg 189 102 read soundfiles.txt \, rewind;
#X obj 126 43 bng 15 250 50 0 empty empty empty 17 7 0 10 -262144 -1
-1;
#X obj 126 70 t b b;
#X obj 126 211 list;
#X obj 126 178 list prepend;
#X obj 47 280 list split 1;
#X floatatom 47 155 5 1 5 0 - - -, f 5;
#X obj 47 182 t b f;
#X obj 94 356 print;
#X obj 48 318 list split 1;
#X obj 47 244 list;
#X obj 153 280 - 1;
#X connect 0 0 6 0;
#X connect 0 1 1 1;
#X connect 1 0 0 0;
#X connect 2 0 0 0;
#X connect 3 0 4 0;
#X connect 4 0 1 0;
#X connect 4 1 2 0;
#X connect 4 1 6 1;
#X connect 5 0 6 1;
#X connect 6 0 5 0;
#X connect 6 0 12 1;
#X connect 7 0 11 0;
#X connect 8 0 9 0;
#X connect 9 0 12 0;
#X connect 9 1 7 1;
#X connect 9 1 13 0;
#X connect 11 1 10 0;
#X connect 12 0 7 0;
#X connect 13 0 11 1;
#X restore 561 324 pd alternative;
#X obj 111 59 loadbang;
#X text 108 301 no. of lines in textfile;
#X obj 944 297 print third;
#X obj 898 321 print second;
#X obj 852 348 print first;
#X obj 852 272 unpack s f s;
#X obj 871 247 print;
#X text 55 20 numbers of lines in textfile;
#X text 343 22 carriage returns in soundfiles.txt are mapped to semicolons
\, good for lists with only up to a few arguments.;
#X msg 84 126 read testfile2list1.txt cr \, rewind;
#X msg 499 247 read testfile2list1.txt cr \, rewind;
#X msg 934 143 read testfile2list2.txt \, rewind;
#X text 848 21 textfile with semicolons terminating lines \, easier
for formatting long argument lists.;
#X connect 0 0 2 1;
#X connect 0 1 1 1;
#X connect 1 0 0 0;
#X connect 2 0 37 0;
#X connect 2 0 38 0;
#X connect 3 0 7 0;
#X connect 4 0 7 0;
#X connect 5 0 7 0;
#X connect 6 0 7 0;
#X connect 7 0 2 0;
#X connect 7 1 1 0;
#X connect 7 2 43 0;
#X connect 8 0 10 1;
#X connect 8 1 9 1;
#X connect 9 0 8 0;
#X connect 10 0 12 0;
#X connect 11 0 10 0;
#X connect 11 1 9 0;
#X connect 11 2 42 0;
#X connect 13 0 14 0;
#X connect 13 0 18 0;
#X connect 14 0 17 1;
#X connect 15 0 14 1;
#X connect 15 0 28 0;
#X connect 16 0 17 0;
#X connect 17 0 13 0;
#X connect 18 0 11 0;
#X connect 19 1 20 1;
#X connect 20 0 19 0;
#X connect 20 0 22 0;
#X connect 21 0 25 0;
#X connect 22 0 23 0;
#X connect 22 0 26 0;
#X connect 23 0 22 1;
#X connect 24 0 22 1;
#X connect 25 0 20 0;
#X connect 25 1 41 0;
#X connect 25 2 24 0;
#X connect 26 0 27 0;
#X connect 28 0 17 1;
#X connect 32 0 25 0;
#X connect 37 0 36 0;
#X connect 37 1 35 0;
#X connect 37 2 34 0;
#X connect 41 0 19 0;
#X connect 42 0 8 0;
#X connect 43 0 0 0;
