#N canvas 708 461 179 254 10;
#X obj 34 188 outlet;
#X obj 37 31 inlet;
#X obj 35 160 expr 1000/$f1;
#X obj 35 134 timer;
#X obj 63 104 del 500;
#X obj 36 81 t b b;
#X obj 101 32 inlet;
#X connect 1 0 5 0;
#X connect 2 0 0 0;
#X connect 3 0 2 0;
#X connect 4 0 3 1;
#X connect 5 0 3 0;
#X connect 5 1 4 0;
#X connect 6 0 4 1;
#X coords 0 254 1 253 120 40 0;
