#N canvas 400 156 565 357 10;
#X msg 354 199 1000;
#X obj 265 80 tgl 15 0 empty empty empty 0 -6 0 10 -262144 -1 -1 0
1;
#X obj 265 104 metro 100;
#X text 366 231 arg: suppressing bangs msecs;
#X obj 267 231 timed_gate 3000;
#X obj 266 145 random 10;
#X obj 266 186 pack f f f;
#X obj 334 145 random 10;
#X obj 404 145 random 10;
#X text 263 282 (c) 2011 Achim Bornhoeft;
#X obj 267 259 print;
#X obj 40 27 timed_gate;
#X text 113 26 anything is suppressed for a specified time (in msecs)
;
#X obj 157 86 tgl 15 0 empty empty empty 0 -6 0 10 -262144 -1 -1 0
1;
#X obj 157 135 random 1000;
#X floatatom 157 165 5 0 0 0 - - -;
#X obj 157 110 metro 100;
#X obj 157 195 timed_gate 3000;
#X floatatom 157 229 5 0 0 0 - - -;
#X obj 37 86 tgl 15 0 empty empty empty 0 -6 0 10 -262144 -1 -1 0 1
;
#X obj 37 176 timed_gate 500;
#X obj 37 111 metro 80;
#X obj 37 209 bng 15 250 50 0 empty empty empty 17 7 0 10 -262144 -1
-1;
#X obj 37 143 bng 15 250 50 0 empty empty empty 17 7 0 10 -262144 -1
-1;
#X connect 0 0 4 1;
#X connect 1 0 2 0;
#X connect 2 0 5 0;
#X connect 2 0 7 0;
#X connect 2 0 8 0;
#X connect 4 0 10 0;
#X connect 5 0 6 0;
#X connect 6 0 4 0;
#X connect 7 0 6 1;
#X connect 8 0 6 2;
#X connect 13 0 16 0;
#X connect 14 0 15 0;
#X connect 15 0 17 0;
#X connect 16 0 14 0;
#X connect 17 0 18 0;
#X connect 19 0 21 0;
#X connect 20 0 22 0;
#X connect 21 0 23 0;
#X connect 23 0 20 0;
