#N canvas 0 22 414 315 10;
#X floatatom 84 161 5 0 0 0 secs - -, f 5;
#X floatatom 124 177 5 0 0 0 msecs - -, f 5;
#X floatatom 165 195 7 0 0 0 samples - -, f 7;
#X obj 165 106 nbx 7 14 -1e+37 1e+37 0 0 empty empty samples 0 -6 0
10 -262144 -1 -1 44100 256;
#X obj 165 72 samplerate~;
#X obj 124 26 nbx 5 14 -1e+37 1e+37 0 0 empty empty msecs 0 -6 0 10
-262144 -1 -1 0 256;
#X obj 84 105 nbx 3 14 -1e+37 1e+37 0 0 empty empty secs 0 -6 0 10
-262144 -1 -1 0 256;
#X text 64 227 converts different time measurements;
#X obj 164 50 loadbang;
#X obj 84 129 time_converter;
#X connect 3 0 9 2;
#X connect 4 0 3 0;
#X connect 5 0 9 1;
#X connect 6 0 9 0;
#X connect 8 0 4 0;
#X connect 9 0 0 0;
#X connect 9 1 1 0;
#X connect 9 2 2 0;
