#N canvas 708 461 270 246 10;
#X obj 78 140 time2freq;
#X floatatom 78 170 7 0 0 1 Hz - -, f 7;
#X obj 78 117 bng 15 250 50 0 empty empty empty 17 7 0 10 -262144 -1
-1;
#X text 21 38 convert time (msec) to frequency;
#X floatatom 129 118 5 0 0 0 - - -, f 5;
#X obj 129 69 loadbang;
#X msg 129 93 100;
#X connect 0 0 1 0;
#X connect 2 0 0 0;
#X connect 4 0 0 1;
#X connect 5 0 6 0;
#X connect 6 0 4 0;
#X coords 0 246 1 245 120 40 0;
