#N canvas 398 266 267 247 10;
#X msg 35 22 symbol a_dash_separated_list;
#X obj 35 48 vs2l _;
#X symbolatom 35 184 22 0 0 0 - - -, f 22;
#X symbolatom 62 163 16 0 0 0 - - -, f 16;
#X symbolatom 89 144 10 0 0 0 - - -, f 10;
#X obj 35 106 unpack s s s s;
#X symbolatom 117 128 10 0 0 0 - - -, f 10;
#X obj 50 78 print;
#X connect 0 0 1 0;
#X connect 1 0 5 0;
#X connect 1 0 7 0;
#X connect 5 0 2 0;
#X connect 5 1 3 0;
#X connect 5 2 4 0;
#X connect 5 3 6 0;
