#N canvas 502 323 263 243 10;
#X obj 42 32 adc~ 1;
#X obj 43 91 vu 15 120 empty empty -1 -8 0 10 -66577 -1 0 0;
#X obj 88 33 tgl 15 0 empty empty empty 17 7 0 10 -262144 -1 -1 0 1
;
#X obj 135 33 bng 15 250 50 0 empty empty empty 17 7 0 10 -262144 -1
-1;
#X obj 42 59 vu-meter-in 5000;
#X connect 0 0 4 0;
#X connect 2 0 4 1;
#X connect 3 0 4 2;
#X connect 4 0 1 0;
