#N canvas 365 648 688 530 12;
#X declare -path abs;
#X obj 506 424 hsl 128 15 0 1 0 0 empty empty empty -2 -8 0 10 #fcfcfc #000000 #000000 0 1;
#X obj 474 490 dac~;
#X obj 448 82 metro 250;
#X obj 448 58 tgl 15 0 empty empty empty 17 7 0 10 #fcfcfc #000000 #000000 0 1;
#N canvas 585 168 660 483 transforms 1;
#X obj 507 38 inlet;
#X text 508 13 list to transform;
#X obj 62 111 route inversion retrograde transpose retro-inversion;
#X obj 63 162 list;
#X obj 246 428 outlet;
#X obj 423 138 b;
#X obj 482 243 list;
#X obj 147 168 list;
#X obj 242 165 list;
#X obj 242 135 t b a;
#X obj 329 150 list;
#X obj 61 30 inlet;
#X obj 62 76 list trim;
#X obj 400 427 outlet;
#X obj 400 403 list;
#N canvas 191 202 450 300 inversion 0;
#X obj 33 26 inlet;
#X obj 33 258 outlet;
#X obj 142 124 t b a a;
#X obj 168 158 -;
#X obj 142 185 -;
#X obj 142 158 f;
#X obj 33 50 list split 1;
#X obj 33 118 list;
#X obj 33 227 list prepend;
#X obj 33 83 trigger bang anything anything anything;
#N canvas 245 118 409 401 list-map 0;
#X obj 86 33 inlet;
#X obj 275 52 inlet;
#X obj 151 352 outlet;
#X obj 170 248 outlet;
#X obj 151 317 list;
#X obj 275 215 list prepend;
#X obj 354 185 t a;
#X obj 151 155 t b a a b;
#X obj 86 58 route bang;
#X obj 86 83 b;
#X obj 151 84 t b a;
#X obj 151 124 list;
#N canvas 169 139 731 486 list-drip 0;
#X obj 63 84 t a a;
#X obj 63 241 spigot;
#X obj 102 149 bang;
#X obj 102 168 1;
#X obj 223 149 route bang;
#X obj 183 150 bang;
#X obj 183 169 0;
#X obj 102 114 list split 2;
#X obj 232 379 list split;
#X obj 299 328 list length;
#X obj 299 350 >> 1;
#X obj 63 260 t a a a a;
#X obj 63 446 list split;
#X obj 130 398 list length;
#X obj 130 423 >> 1;
#X obj 31 19 inlet;
#X obj 290 175 outlet;
#X text 73 19 Copyright 2009 by Mathieu Bouchard;
#X obj 31 53 t b a;
#X obj 465 119 outlet;
#X text 520 121 signal end of list;
#X text 381 23 made compatible with [list-drip]: fbar 2009;
#X connect 0 0 1 0;
#X connect 0 1 7 0;
#X connect 1 0 11 0;
#X connect 2 0 3 0;
#X connect 3 0 1 1;
#X connect 4 1 16 0;
#X connect 5 0 6 0;
#X connect 6 0 1 1;
#X connect 7 0 2 0;
#X connect 7 2 4 0;
#X connect 7 2 5 0;
#X connect 8 0 0 0;
#X connect 9 0 10 0;
#X connect 10 0 8 1;
#X connect 11 0 12 0;
#X connect 11 1 13 0;
#X connect 11 2 8 0;
#X connect 11 3 9 0;
#X connect 12 1 0 0;
#X connect 13 0 14 0;
#X connect 14 0 12 1;
#X connect 15 0 18 0;
#X connect 18 0 19 0;
#X connect 18 1 0 0;
#X restore 170 212 pd list-drip;
#X connect 0 0 8 0;
#X connect 1 0 5 0;
#X connect 4 0 2 0;
#X connect 5 0 6 0;
#X connect 5 0 4 1;
#X connect 6 0 5 1;
#X connect 7 0 4 0;
#X connect 7 1 12 0;
#X connect 7 2 4 1;
#X connect 7 3 5 1;
#X connect 8 0 9 0;
#X connect 8 1 10 0;
#X connect 9 0 11 0;
#X connect 10 0 11 0;
#X connect 10 1 11 1;
#X connect 11 0 7 0;
#X connect 12 0 3 0;
#X restore 33 145 pd list-map;
#X connect 0 0 6 0;
#X connect 2 0 5 0;
#X connect 2 1 3 1;
#X connect 2 2 3 0;
#X connect 3 0 4 1;
#X connect 4 0 5 1;
#X connect 4 0 10 1;
#X connect 5 0 4 0;
#X connect 6 0 9 0;
#X connect 6 1 7 1;
#X connect 7 0 10 0;
#X connect 8 0 1 0;
#X connect 9 0 7 0;
#X connect 9 1 8 1;
#X connect 9 2 5 1;
#X connect 9 3 3 1;
#X connect 10 0 8 0;
#X connect 10 1 2 0;
#X restore 40 245 pd inversion;
#N canvas 440 478 294 138 transpose 0;
#X obj 49 20 inlet;
#X obj 49 77 outlet;
#X obj 176 24 inlet;
#X obj 152 50 + \$1;
#N canvas 324 362 450 300 list-map 0;
#X obj 86 33 inlet;
#X obj 275 52 inlet;
#X obj 151 352 outlet;
#X obj 170 248 outlet;
#X obj 151 317 list;
#X obj 275 215 list prepend;
#X obj 354 185 t a;
#X obj 151 155 t b a a b;
#X obj 86 58 route bang;
#X obj 86 83 b;
#X obj 151 84 t b a;
#X obj 151 124 list;
#N canvas 295 333 450 300 list-drip 0;
#X obj 63 84 t a a;
#X obj 63 241 spigot;
#X obj 102 149 bang;
#X obj 102 168 1;
#X obj 223 149 route bang;
#X obj 183 150 bang;
#X obj 183 169 0;
#X obj 102 114 list split 2;
#X obj 232 379 list split;
#X obj 299 328 list length;
#X obj 299 350 >> 1;
#X obj 63 260 t a a a a;
#X obj 63 446 list split;
#X obj 130 398 list length;
#X obj 130 423 >> 1;
#X obj 31 19 inlet;
#X obj 290 175 outlet;
#X text 73 19 Copyright 2009 by Mathieu Bouchard;
#X obj 31 53 t b a;
#X obj 465 119 outlet;
#X text 520 121 signal end of list;
#X text 381 23 made compatible with [list-drip]: fbar 2009;
#X connect 0 0 1 0;
#X connect 0 1 7 0;
#X connect 1 0 11 0;
#X connect 2 0 3 0;
#X connect 3 0 1 1;
#X connect 4 1 16 0;
#X connect 5 0 6 0;
#X connect 6 0 1 1;
#X connect 7 0 2 0;
#X connect 7 2 4 0;
#X connect 7 2 5 0;
#X connect 8 0 0 0;
#X connect 9 0 10 0;
#X connect 10 0 8 1;
#X connect 11 0 12 0;
#X connect 11 1 13 0;
#X connect 11 2 8 0;
#X connect 11 3 9 0;
#X connect 12 1 0 0;
#X connect 13 0 14 0;
#X connect 14 0 12 1;
#X connect 15 0 18 0;
#X connect 18 0 19 0;
#X connect 18 1 0 0;
#X restore 170 212 pd list-drip;
#X connect 0 0 8 0;
#X connect 1 0 5 0;
#X connect 4 0 2 0;
#X connect 5 0 6 0;
#X connect 5 0 4 1;
#X connect 6 0 5 1;
#X connect 7 0 4 0;
#X connect 7 1 12 0;
#X connect 7 2 4 1;
#X connect 7 3 5 1;
#X connect 8 0 9 0;
#X connect 8 1 10 0;
#X connect 9 0 11 0;
#X connect 10 0 11 0;
#X connect 10 1 11 1;
#X connect 11 0 7 0;
#X connect 12 0 3 0;
#X restore 49 49 pd list-map;
#X connect 0 0 4 0;
#X connect 2 0 3 1;
#X connect 3 0 4 1;
#X connect 4 0 1 0;
#X connect 4 1 3 0;
#X restore 40 338 pd transpose;
#X obj 40 279 t a b, f 12;
#N canvas 556 544 173 148 retrograde 0;
#X obj 30 25 inlet;
#X obj 30 84 outlet;
#N canvas 199 567 450 300 list-rev 0;
#X obj 92 29 inlet;
#X obj 148 141 t l;
#X obj 92 141 list;
#X obj 152 210 list;
#X obj 152 262 outlet;
#X text 252 99 drip list;
#X text 190 213 intermediate store \, bang'd on list end.;
#X text 178 140 repack in reverse order;
#X obj 92 54 t a b b;
#N canvas 295 333 695 495 list-drip 0;
#X obj 63 84 t a a;
#X obj 63 241 spigot;
#X obj 102 149 bang;
#X obj 102 168 1;
#X obj 223 149 route bang;
#X obj 183 150 bang;
#X obj 183 169 0;
#X obj 102 114 list split 2;
#X obj 232 379 list split;
#X obj 299 328 list length;
#X obj 299 350 >> 1;
#X obj 63 260 t a a a a;
#X obj 63 446 list split;
#X obj 130 398 list length;
#X obj 130 423 >> 1;
#X obj 31 19 inlet;
#X obj 290 175 outlet;
#X text 73 19 Copyright 2009 by Mathieu Bouchard;
#X obj 31 53 t b a;
#X obj 465 123 outlet;
#X text 520 121 signal end of list;
#X text 74 38 made compatible with [list-drip]: fbar 2009;
#X connect 0 0 1 0;
#X connect 0 1 7 0;
#X connect 1 0 11 0;
#X connect 2 0 3 0;
#X connect 3 0 1 1;
#X connect 4 1 16 0;
#X connect 5 0 6 0;
#X connect 6 0 1 1;
#X connect 7 0 2 0;
#X connect 7 2 4 0;
#X connect 7 2 5 0;
#X connect 8 0 0 0;
#X connect 9 0 10 0;
#X connect 10 0 8 1;
#X connect 11 0 12 0;
#X connect 11 1 13 0;
#X connect 11 2 8 0;
#X connect 11 3 9 0;
#X connect 12 1 0 0;
#X connect 13 0 14 0;
#X connect 14 0 12 1;
#X connect 15 0 18 0;
#X connect 18 0 19 0;
#X connect 18 1 0 0;
#X restore 92 96 pd list-drip;
#X connect 0 0 8 0;
#X connect 1 0 2 1;
#X connect 2 0 1 0;
#X connect 2 0 3 1;
#X connect 3 0 4 0;
#X connect 8 0 9 0;
#X connect 8 1 2 1;
#X connect 8 2 3 1;
#X connect 9 0 2 0;
#X connect 9 1 3 0;
#X restore 30 55 pd list-rev;
#X connect 0 0 2 0;
#X connect 2 0 1 0;
#X restore 144 245 pd retrograde;
#N canvas 440 478 294 138 transpose 0;
#X obj 49 20 inlet;
#X obj 49 77 outlet;
#X obj 176 24 inlet;
#X obj 152 50 + \$1;
#N canvas 324 362 450 300 list-map 0;
#X obj 86 33 inlet;
#X obj 275 52 inlet;
#X obj 151 352 outlet;
#X obj 170 248 outlet;
#X obj 151 317 list;
#X obj 275 215 list prepend;
#X obj 354 185 t a;
#X obj 151 155 t b a a b;
#X obj 86 58 route bang;
#X obj 86 83 b;
#X obj 151 84 t b a;
#X obj 151 124 list;
#N canvas 295 333 450 300 list-drip 0;
#X obj 63 84 t a a;
#X obj 63 241 spigot;
#X obj 102 149 bang;
#X obj 102 168 1;
#X obj 223 149 route bang;
#X obj 183 150 bang;
#X obj 183 169 0;
#X obj 102 114 list split 2;
#X obj 232 379 list split;
#X obj 299 328 list length;
#X obj 299 350 >> 1;
#X obj 63 260 t a a a a;
#X obj 63 446 list split;
#X obj 130 398 list length;
#X obj 130 423 >> 1;
#X obj 31 19 inlet;
#X obj 290 175 outlet;
#X text 73 19 Copyright 2009 by Mathieu Bouchard;
#X obj 31 53 t b a;
#X obj 465 119 outlet;
#X text 520 121 signal end of list;
#X text 381 23 made compatible with [list-drip]: fbar 2009;
#X connect 0 0 1 0;
#X connect 0 1 7 0;
#X connect 1 0 11 0;
#X connect 2 0 3 0;
#X connect 3 0 1 1;
#X connect 4 1 16 0;
#X connect 5 0 6 0;
#X connect 6 0 1 1;
#X connect 7 0 2 0;
#X connect 7 2 4 0;
#X connect 7 2 5 0;
#X connect 8 0 0 0;
#X connect 9 0 10 0;
#X connect 10 0 8 1;
#X connect 11 0 12 0;
#X connect 11 1 13 0;
#X connect 11 2 8 0;
#X connect 11 3 9 0;
#X connect 12 1 0 0;
#X connect 13 0 14 0;
#X connect 14 0 12 1;
#X connect 15 0 18 0;
#X connect 18 0 19 0;
#X connect 18 1 0 0;
#X restore 170 212 pd list-drip;
#X connect 0 0 8 0;
#X connect 1 0 5 0;
#X connect 4 0 2 0;
#X connect 5 0 6 0;
#X connect 5 0 4 1;
#X connect 6 0 5 1;
#X connect 7 0 4 0;
#X connect 7 1 12 0;
#X connect 7 2 4 1;
#X connect 7 3 5 1;
#X connect 8 0 9 0;
#X connect 8 1 10 0;
#X connect 9 0 11 0;
#X connect 10 0 11 0;
#X connect 10 1 11 1;
#X connect 11 0 7 0;
#X connect 12 0 3 0;
#X restore 49 49 pd list-map;
#X connect 0 0 4 0;
#X connect 2 0 3 1;
#X connect 3 0 4 1;
#X connect 4 0 1 0;
#X connect 4 1 3 0;
#X restore 247 243 pd transpose;
#N canvas 873 434 198 245 retro-inversion 0;
#X obj 39 31 inlet;
#X obj 40 199 outlet;
#N canvas 440 478 294 138 transpose 0;
#X obj 49 20 inlet;
#X obj 49 77 outlet;
#X obj 176 24 inlet;
#X obj 152 50 + \$1;
#N canvas 324 362 450 300 list-map 0;
#X obj 86 33 inlet;
#X obj 275 52 inlet;
#X obj 151 352 outlet;
#X obj 170 248 outlet;
#X obj 151 317 list;
#X obj 275 215 list prepend;
#X obj 354 185 t a;
#X obj 151 155 t b a a b;
#X obj 86 58 route bang;
#X obj 86 83 b;
#X obj 151 84 t b a;
#X obj 151 124 list;
#N canvas 295 333 450 300 list-drip 0;
#X obj 63 84 t a a;
#X obj 63 241 spigot;
#X obj 102 149 bang;
#X obj 102 168 1;
#X obj 223 149 route bang;
#X obj 183 150 bang;
#X obj 183 169 0;
#X obj 102 114 list split 2;
#X obj 232 379 list split;
#X obj 299 328 list length;
#X obj 299 350 >> 1;
#X obj 63 260 t a a a a;
#X obj 63 446 list split;
#X obj 130 398 list length;
#X obj 130 423 >> 1;
#X obj 31 19 inlet;
#X obj 290 175 outlet;
#X text 73 19 Copyright 2009 by Mathieu Bouchard;
#X obj 31 53 t b a;
#X obj 465 119 outlet;
#X text 520 121 signal end of list;
#X text 381 23 made compatible with [list-drip]: fbar 2009;
#X connect 0 0 1 0;
#X connect 0 1 7 0;
#X connect 1 0 11 0;
#X connect 2 0 3 0;
#X connect 3 0 1 1;
#X connect 4 1 16 0;
#X connect 5 0 6 0;
#X connect 6 0 1 1;
#X connect 7 0 2 0;
#X connect 7 2 4 0;
#X connect 7 2 5 0;
#X connect 8 0 0 0;
#X connect 9 0 10 0;
#X connect 10 0 8 1;
#X connect 11 0 12 0;
#X connect 11 1 13 0;
#X connect 11 2 8 0;
#X connect 11 3 9 0;
#X connect 12 1 0 0;
#X connect 13 0 14 0;
#X connect 14 0 12 1;
#X connect 15 0 18 0;
#X connect 18 0 19 0;
#X connect 18 1 0 0;
#X restore 170 212 pd list-drip;
#X connect 0 0 8 0;
#X connect 1 0 5 0;
#X connect 4 0 2 0;
#X connect 5 0 6 0;
#X connect 5 0 4 1;
#X connect 6 0 5 1;
#X connect 7 0 4 0;
#X connect 7 1 12 0;
#X connect 7 2 4 1;
#X connect 7 3 5 1;
#X connect 8 0 9 0;
#X connect 8 1 10 0;
#X connect 9 0 11 0;
#X connect 10 0 11 0;
#X connect 10 1 11 1;
#X connect 11 0 7 0;
#X connect 12 0 3 0;
#X restore 49 49 pd list-map;
#X connect 0 0 4 0;
#X connect 2 0 3 1;
#X connect 3 0 4 1;
#X connect 4 0 1 0;
#X connect 4 1 3 0;
#X restore 39 145 pd transpose;
#X obj 39 86 t a b, f 12;
#X msg 120 116 11;
#N canvas 382 420 450 300 inversion 0;
#X obj 33 26 inlet;
#X obj 33 258 outlet;
#X obj 142 124 t b a a;
#X obj 168 158 -;
#X obj 142 185 -;
#X obj 142 158 f;
#X obj 33 50 list split 1;
#X obj 33 118 list;
#X obj 33 227 list prepend;
#X obj 33 83 trigger bang anything anything anything;
#N canvas 324 362 450 300 list-map 0;
#X obj 86 33 inlet;
#X obj 275 52 inlet;
#X obj 151 352 outlet;
#X obj 170 248 outlet;
#X obj 151 317 list;
#X obj 275 215 list prepend;
#X obj 354 185 t a;
#X obj 151 155 t b a a b;
#X obj 86 58 route bang;
#X obj 86 83 b;
#X obj 151 84 t b a;
#X obj 151 124 list;
#N canvas 295 333 450 300 list-drip 0;
#X obj 63 84 t a a;
#X obj 63 241 spigot;
#X obj 102 149 bang;
#X obj 102 168 1;
#X obj 223 149 route bang;
#X obj 183 150 bang;
#X obj 183 169 0;
#X obj 102 114 list split 2;
#X obj 232 379 list split;
#X obj 299 328 list length;
#X obj 299 350 >> 1;
#X obj 63 260 t a a a a;
#X obj 63 446 list split;
#X obj 130 398 list length;
#X obj 130 423 >> 1;
#X obj 31 19 inlet;
#X obj 290 175 outlet;
#X text 73 19 Copyright 2009 by Mathieu Bouchard;
#X obj 31 53 t b a;
#X obj 465 119 outlet;
#X text 520 121 signal end of list;
#X text 381 23 made compatible with [list-drip]: fbar 2009;
#X connect 0 0 1 0;
#X connect 0 1 7 0;
#X connect 1 0 11 0;
#X connect 2 0 3 0;
#X connect 3 0 1 1;
#X connect 4 1 16 0;
#X connect 5 0 6 0;
#X connect 6 0 1 1;
#X connect 7 0 2 0;
#X connect 7 2 4 0;
#X connect 7 2 5 0;
#X connect 8 0 0 0;
#X connect 9 0 10 0;
#X connect 10 0 8 1;
#X connect 11 0 12 0;
#X connect 11 1 13 0;
#X connect 11 2 8 0;
#X connect 11 3 9 0;
#X connect 12 1 0 0;
#X connect 13 0 14 0;
#X connect 14 0 12 1;
#X connect 15 0 18 0;
#X connect 18 0 19 0;
#X connect 18 1 0 0;
#X restore 170 212 pd list-drip;
#X connect 0 0 8 0;
#X connect 1 0 5 0;
#X connect 4 0 2 0;
#X connect 5 0 6 0;
#X connect 5 0 4 1;
#X connect 6 0 5 1;
#X connect 7 0 4 0;
#X connect 7 1 12 0;
#X connect 7 2 4 1;
#X connect 7 3 5 1;
#X connect 8 0 9 0;
#X connect 8 1 10 0;
#X connect 9 0 11 0;
#X connect 10 0 11 0;
#X connect 10 1 11 1;
#X connect 11 0 7 0;
#X connect 12 0 3 0;
#X restore 33 145 pd list-map;
#X connect 0 0 6 0;
#X connect 2 0 5 0;
#X connect 2 1 3 1;
#X connect 2 2 3 0;
#X connect 3 0 4 1;
#X connect 4 0 5 1;
#X connect 4 0 10 1;
#X connect 5 0 4 0;
#X connect 6 0 9 0;
#X connect 6 1 7 1;
#X connect 7 0 10 0;
#X connect 8 0 1 0;
#X connect 9 0 7 0;
#X connect 9 1 8 1;
#X connect 9 2 5 1;
#X connect 9 3 3 1;
#X connect 10 0 8 0;
#X connect 10 1 2 0;
#X restore 39 60 pd inversion;
#N canvas 556 594 173 148 retrograde 0;
#X obj 30 25 inlet;
#X obj 30 84 outlet;
#N canvas 199 567 450 300 -list-rev 0;
#X obj 92 29 inlet;
#X obj 148 141 t l;
#X obj 92 141 list;
#X obj 152 210 list;
#X obj 152 262 outlet;
#X text 252 99 drip list;
#X text 190 213 intermediate store \, bang'd on list end.;
#X text 178 140 repack in reverse order;
#X obj 92 54 t a b b;
#N canvas 295 333 450 300 list-drip 0;
#X obj 63 84 t a a;
#X obj 63 241 spigot;
#X obj 102 149 bang;
#X obj 102 168 1;
#X obj 223 149 route bang;
#X obj 183 150 bang;
#X obj 183 169 0;
#X obj 102 114 list split 2;
#X obj 232 379 list split;
#X obj 299 328 list length;
#X obj 299 350 >> 1;
#X obj 63 260 t a a a a;
#X obj 63 446 list split;
#X obj 130 398 list length;
#X obj 130 423 >> 1;
#X obj 31 19 inlet;
#X obj 290 175 outlet;
#X text 73 19 Copyright 2009 by Mathieu Bouchard;
#X obj 31 53 t b a;
#X obj 465 119 outlet;
#X text 520 121 signal end of list;
#X text 381 23 made compatible with [list-drip]: fbar 2009;
#X connect 0 0 1 0;
#X connect 0 1 7 0;
#X connect 1 0 11 0;
#X connect 2 0 3 0;
#X connect 3 0 1 1;
#X connect 4 1 16 0;
#X connect 5 0 6 0;
#X connect 6 0 1 1;
#X connect 7 0 2 0;
#X connect 7 2 4 0;
#X connect 7 2 5 0;
#X connect 8 0 0 0;
#X connect 9 0 10 0;
#X connect 10 0 8 1;
#X connect 11 0 12 0;
#X connect 11 1 13 0;
#X connect 11 2 8 0;
#X connect 11 3 9 0;
#X connect 12 1 0 0;
#X connect 13 0 14 0;
#X connect 14 0 12 1;
#X connect 15 0 18 0;
#X connect 18 0 19 0;
#X connect 18 1 0 0;
#X restore 92 96 pd list-drip;
#X connect 0 0 8 0;
#X connect 1 0 2 1;
#X connect 2 0 1 0;
#X connect 2 0 3 1;
#X connect 3 0 4 0;
#X connect 8 0 9 0;
#X connect 8 1 2 1;
#X connect 8 2 3 1;
#X connect 9 0 2 0;
#X connect 9 1 3 0;
#X restore 30 55 pd -list-rev;
#X connect 0 0 2 0;
#X connect 2 0 1 0;
#X restore 40 173 pd retrograde;
#X connect 0 0 5 0;
#X connect 2 0 6 0;
#X connect 3 0 2 0;
#X connect 3 1 4 0;
#X connect 4 0 2 1;
#X connect 5 0 3 0;
#X connect 6 0 1 0;
#X restore 340 243 pd retro-inversion;
#X msg 121 310 11;
#X connect 0 0 3 1;
#X connect 0 0 7 1;
#X connect 0 0 8 1;
#X connect 0 0 10 1;
#X connect 0 0 6 1;
#X connect 2 0 3 0;
#X connect 2 1 7 0;
#X connect 2 2 9 0;
#X connect 2 3 10 0;
#X connect 2 4 5 0;
#X connect 3 0 15 0;
#X connect 5 0 6 0;
#X connect 6 0 4 0;
#X connect 7 0 18 0;
#X connect 8 0 19 0;
#X connect 9 0 8 0;
#X connect 9 1 19 1;
#X connect 10 0 20 0;
#X connect 11 0 12 0;
#X connect 11 0 14 0;
#X connect 12 0 2 0;
#X connect 14 0 13 0;
#X connect 15 0 17 0;
#X connect 16 0 4 0;
#X connect 17 0 16 0;
#X connect 17 1 21 0;
#X connect 18 0 4 0;
#X connect 19 0 4 0;
#X connect 20 0 4 0;
#X connect 21 0 16 1;
#X restore 66 431 pd transforms;
#X f 22;
#X msg 79 345 retrograde;
#X msg 87 372 inversion;
#X msg 99 399 retro-inversion;
#X symbolatom 217 460 20 0 0 0 - - - 0;
#X msg 62 238 \; pd dsp 1;
#X obj 516 23 declare -path abs;
#X obj 484 123 + 1;
#X floatatom 527 203 5 0 0 1 - - - 0;
#X obj 541 98 list length;
#X obj 523 124 mod;
#X obj 449 123 f;
#X obj 448 149 t b f;
#X obj 446 266 list split 0;
#X floatatom 485 342 5 0 0 0 - - - 0;
#X floatatom 486 291 5 0 0 0 - - - 0;
#X obj 486 316 + 60;
#X obj 541 71 r row;
#X listbox 446 237 30 0 0 0 - - - 0;
#X obj 458 202 r row;
#X obj 66 462 s row;
#X text 38 22 Dodecaphony (twelve-tone technique);
#N canvas 237 275 608 173 credits 0;
#X text 49 23 Originally by Frank Barknecht \, 2009;
#X obj 52 75 pdcontrol;
#X msg 52 50 browse https://lists.puredata.info/pipermail/pd-list/2009-03/068935.html, f 73;
#X text 50 118 2024 Achim Bornhoeft: new player \, self-contained (without abstraction);
#X connect 2 0 1 0;
#X restore 300 23 pd credits;
#X obj 485 394 clone sound 16;
#X msg 485 367 next \$1;
#X msg 39 284 transpose 0;
#X text 530 291 pitch class;
#X text 529 341 midi;
#X obj 485 447 *~;
#N canvas 92 130 819 252 info 0;
#X obj 19 100 pdcontrol;
#X msg 19 75 browse https://en.wikipedia.org/wiki/Twelve-tone_technique;
#X text 16 18 Info:;
#X obj 19 47 inlet;
#X obj 20 205 pdcontrol;
#X msg 45 174 browse https://waveinformer.com/2024/12/24/12-tone-music-for-producers/, f 71;
#X msg 20 141 browse https://www.essl.at/works/rtc.html;
#X text 444 76 general information;
#X text 322 139 Karlheinz Essl \, RTC-lib;
#X text 552 173 waveinformer \, 12-Tone Music;
#X connect 1 0 0 0;
#X connect 3 0 1 0;
#X connect 5 0 4 0;
#X connect 6 0 4 0;
#X restore 300 72 pd info;
#X listbox 40 168 27 0 0 0 - - - 0;
#X msg 66 129 2 1 5 6 10 9 11 7 8 3 4 0;
#X obj 39 63 loadbang;
#X obj 39 201 t b b a;
#X msg 39 94 0 4 1 3 7 2 5 8 6 9 11 10;
#N canvas 150 188 457 189 Webern 0;
#X msg 35 66 browse https://viva.pressbooks.pub/openmusictheory/chapter/twelve-tone-analysis-examples-webern-op-21-and-24/, f 51;
#X obj 35 118 pdcontrol;
#X text 34 9 Anton Webern \, Concerto op. 24;
#X obj 35 34 inlet;
#X connect 0 0 1 0;
#X connect 3 0 0 0;
#X restore 260 130 pd Webern op-24;
#X obj 300 48 bng 19 250 50 0 empty empty empty 0 -10 0 12 #fcfcfc #000000 #000000;
#X obj 260 102 bng 19 250 50 0 empty empty empty 0 -10 0 12 #fcfcfc #000000 #000000;
#X text 284 104 click for info;
#X text 321 48 click for info;
#X msg 66 315 transpose 2;
#X connect 0 0 32 1;
#X connect 2 0 15 0;
#X connect 3 0 2 0;
#X connect 4 0 24 0;
#X connect 4 1 8 0;
#X connect 5 0 4 0;
#X connect 6 0 4 0;
#X connect 7 0 4 0;
#X connect 11 0 14 0;
#X connect 12 0 17 1;
#X connect 13 0 14 1;
#X connect 14 0 15 1;
#X connect 15 0 11 0;
#X connect 15 0 16 0;
#X connect 16 0 22 0;
#X connect 16 1 12 0;
#X connect 17 1 19 0;
#X connect 18 0 28 0;
#X connect 19 0 20 0;
#X connect 20 0 18 0;
#X connect 21 0 13 0;
#X connect 22 0 17 0;
#X connect 23 0 22 0;
#X connect 27 0 32 0;
#X connect 28 0 27 0;
#X connect 29 0 4 0;
#X connect 32 0 1 0;
#X connect 32 0 1 1;
#X connect 34 0 37 0;
#X connect 35 0 34 0;
#X connect 36 0 38 0;
#X connect 37 0 29 0;
#X connect 37 1 9 0;
#X connect 37 2 4 1;
#X connect 38 0 34 0;
#X connect 40 0 33 0;
#X connect 41 0 39 0;
#X connect 44 0 4 0;
