#N canvas 89 143 884 833 12;
#X msg 253 391 bang;
#X obj 117 419 rfft~;
#N canvas 0 22 1021 636 (subpatch) 0;
#X array \$0-oneblock 65 float 0;
#X coords 0 1 64 -1 200 140 1 0 0;
#X restore 320 186 graph;
#X msg 343 524 bang;
#X msg 343 469 bang;
#X msg 250 708 bang;
#X obj 117 568 rifft~;
#X obj 179 513 *~;
#X obj 215 514 *~;
#X obj 215 545 sqrt~;
#X msg 230 586 bang;
#X obj 37 151 * 44100;
#X obj 37 180 / 64;
#X floatatom 37 211 7 0 0 0 - - -, f 7;
#X obj 37 306 tabwrite~ \$0-oneblock;
#X obj 117 354 tabreceive~ \$0-oneblock;
#X obj 119 798 dac~;
#X obj 119 756 *~;
#X obj 143 730 hsl 50 15 0 1 0 0 empty empty empty -2 -8 0 10 -262144
-1 -1 0 1;
#X text 277 587 magnitude;
#X msg 54 94 2.5;
#X text 86 179 block size = bin;
#X text 99 211 frequency (Hz);
#X text 166 680 normalise = / blocksize;
#X obj 253 421 print~ amplitude;
#X obj 343 496 print~ imgaginary;
#X obj 343 552 print~ real;
#X obj 215 619 print~ magnitude;
#X obj 250 741 print~ normalised;
#X text 499 496 imaginary/sine = phase;
#X text 444 551 real/cosine = amplitude;
#X text 39 421 analysis;
#X text 17 568 resynthesis;
#X msg 38 67 1;
#X obj 38 25 loadbang;
#X text 392 421 Amplitude = y values;
#X obj 37 236 t b f;
#X obj 74 267 osc~;
#X obj 118 679 /~ 64;
#X floatatom 38 125 5 0 0 0 - - -, f 5;
#X text 212 768 Normalised amplitude (should be the same as the original).
;
#X text 202 22 The size of the individual sections \, called bins \,
is given by the block size. Pd always processes all tasks in blocks.
Normally the block size in Pd is 64 samples. Using "print~" shows you
all the values in a given block. Frequency in Bins = integer multiple
of the block size. 698 Hz is the lowest fundamental possible to be
analysed with a block size of 64 If the frequency is not an integer
multiple of the bin size the magnitode is spread over several bins.
;
#X text 377 598 The Fourier transformation. divides the entire frequency
spectrum into parts of equal size and determines the amplitude and
phase for each part. One could in turn reconstruct the original signal
from these values. The derivation of the component parts is called
analysis \; the reconstruction is called resynthesis. You can realize
this using the objects "rfft~" and "irfft~";
#N canvas 752 265 443 120 credits 0;
#X text 20 15 Johannes Kreidler;
#X text 24 40 www.pd-tutorial.com;
#X text 23 66 http://www.pd-tutorial.com/english/ch03s08.html;
#X restore 582 230 pd credits;
#X connect 0 0 24 0;
#X connect 1 0 6 0;
#X connect 1 0 7 0;
#X connect 1 0 7 1;
#X connect 1 0 26 0;
#X connect 1 1 6 1;
#X connect 1 1 8 1;
#X connect 1 1 8 0;
#X connect 1 1 25 0;
#X connect 3 0 26 0;
#X connect 4 0 25 0;
#X connect 5 0 28 0;
#X connect 6 0 38 0;
#X connect 7 0 9 0;
#X connect 8 0 9 0;
#X connect 9 0 27 0;
#X connect 10 0 27 0;
#X connect 11 0 12 0;
#X connect 12 0 13 0;
#X connect 13 0 36 0;
#X connect 15 0 1 0;
#X connect 15 0 24 0;
#X connect 17 0 16 0;
#X connect 17 0 16 1;
#X connect 18 0 17 1;
#X connect 20 0 39 0;
#X connect 33 0 39 0;
#X connect 34 0 33 0;
#X connect 36 0 14 0;
#X connect 36 1 37 0;
#X connect 37 0 14 0;
#X connect 38 0 17 0;
#X connect 38 0 28 0;
#X connect 39 0 11 0;
