#N canvas 429 170 498 609 12;
#X declare -path abs;
#X text 35 570 Copyright (C) 2002 Maurizio Umberto Puxeddu;
#N canvas 295 333 650 250 initialize 0;
#X obj 47 130 f 220;
#X obj 100 140 f 1;
#X obj 347 137 f 3;
#X obj 45 201 s \$0-F;
#X obj 103 199 s \$0-C;
#X obj 154 140 f 2.3;
#X obj 560 127 f 0.1;
#X obj 165 202 s \$0-M1;
#X obj 233 200 s \$0-M2;
#X obj 297 203 s \$0-M3;
#X obj 283 142 f 0.5;
#X obj 412 136 f 1;
#X obj 470 134 f 4;
#X obj 370 209 s \$0-I1;
#X obj 435 208 s \$0-I2;
#X obj 493 206 s \$0-I3;
#X obj 214 143 f 2.51;
#X obj 21 20 inlet;
#X obj 577 202 s gain;
#X obj 21 52 trigger b b b b b b b b f;
#X connect 0 0 3 0;
#X connect 1 0 4 0;
#X connect 2 0 13 0;
#X connect 5 0 7 0;
#X connect 6 0 18 0;
#X connect 10 0 9 0;
#X connect 11 0 14 0;
#X connect 12 0 15 0;
#X connect 16 0 8 0;
#X connect 17 0 19 0;
#X connect 19 0 0 0;
#X connect 19 1 1 0;
#X connect 19 2 5 0;
#X connect 19 3 16 0;
#X connect 19 4 10 0;
#X connect 19 5 2 0;
#X connect 19 6 11 0;
#X connect 19 7 12 0;
#X connect 19 8 6 0;
#X restore 294 278 pd initialize;
#X obj 26 62 cnv 15 360 120 empty empty empty 20 12 0 14 #e0e0e0 #404040 0;
#X obj 41 97 nbx 5 14 -1e+37 1e+37 0 0 \$0-F \$0-F Frequency 0 -6 0 10 #e0e0e0 #000000 #000000 0 256;
#X obj 110 97 nbx 5 14 -1e+37 1e+37 0 0 \$0-C \$0-C C 0 -6 0 10 #e0e0e0 #000000 #000000 0 256;
#X obj 179 97 nbx 5 14 -1e+37 1e+37 0 0 \$0-M1 \$0-M1 M1 0 -6 0 10 #e0e0e0 #000000 #000000 0 256;
#X obj 248 97 nbx 5 14 -1e+37 1e+37 0 0 \$0-I1 \$0-I1 I1 0 -6 0 10 #e0e0e0 #000000 #000000 0 256;
#X obj 318 97 nbx 5 14 -1e+37 1e+37 0 0 \$0-G gain Gain 0 -6 0 10 #e0e0e0 #000000 #000000 0 256;
#X obj 18 529 dac~;
#X obj 29 205 r \$0-F;
#X obj 52 230 r \$0-C;
#X obj 29 479 *~ 0;
#X obj 52 455 r \$0-G;
#X text 211 401 Synthesis;
#X text 328 65 Control;
#X obj 99 279 r \$0-M2;
#X obj 76 255 r \$0-M1;
#X obj 123 302 r \$0-M3;
#X obj 146 326 r \$0-I1;
#X obj 170 351 r \$0-I2;
#X obj 194 375 r \$0-I3;
#X obj 179 130 nbx 5 14 -1e+37 1e+37 0 0 \$0-M2 \$0-M2 M2 0 -6 0 10 #e0e0e0 #000000 #000000 0 256;
#X obj 178 159 nbx 5 14 -1e+37 1e+37 0 0 \$0-M3 \$0-M3 M3 0 -6 0 10 #e0e0e0 #000000 #000000 0 256;
#X obj 247 128 nbx 5 14 -1e+37 1e+37 0 0 \$0-I2 \$0-I2 I2 0 -6 0 10 #e0e0e0 #000000 #000000 0 256;
#X obj 247 160 nbx 5 14 -1e+37 1e+37 0 0 \$0-I3 \$0-I3 I3 0 -6 0 10 #e0e0e0 #000000 #000000 0 256;
#X obj 29 402 fm3m~ ---------------, f 24;
#X text 28 26 Complex Frequency Modulation (1 Carrier + 3 Modulators);
#X obj 294 250 tgl 19 0 empty empty empty 0 -10 0 12 #fcfcfc #000000 #000000 0 0.1;
#X obj 220 535 declare -path abs;
#X connect 9 0 25 0;
#X connect 10 0 25 1;
#X connect 11 0 8 0;
#X connect 11 0 8 1;
#X connect 12 0 11 1;
#X connect 15 0 25 3;
#X connect 16 0 25 2;
#X connect 17 0 25 4;
#X connect 18 0 25 5;
#X connect 19 0 25 6;
#X connect 20 0 25 7;
#X connect 25 0 11 0;
#X connect 27 0 1 0;
