#N canvas 1156 962 466 341 12;
#X declare -path abs;
#X obj 47 142 dac~ 1;
#X obj 184 140 dac~ 2;
#X obj 68 55 hsl 162 19 0 1 0 0 empty amp empty -2 -10 0 12 #fcfcfc #000000 #000000 0 1;
#X obj 269 88 loadbang;
#X obj 269 112 tgl 19 0 empty empty empty 0 -10 0 12 #fcfcfc #000000 #000000 0 1;
#X msg 269 136 \; pd dsp \$1 \; amp 0.05;
#X obj 47 114 *~;
#X obj 184 114 *~;
#X obj 47 24 fm~ 440 1 2.42 3 7;
#X obj 50 307 dac~ 1;
#X obj 71 220 hsl 162 19 0 1 0 0 empty amp empty -2 -10 0 12 #fcfcfc #000000 #000000 0 1;
#X obj 50 279 *~;
#X obj 270 308 dac~ 2;
#X obj 270 282 *~;
#X obj 184 24 fm~ 441 1 2.4 2 6;
#X obj 50 189 fm~ 660 0.5 2.3 3 7.1;
#X obj 269 218 fm~ 662 0.126 3 1.77 5.9;
#X obj 321 55 declare -path abs;
#X connect 2 0 6 1;
#X connect 2 0 7 1;
#X connect 3 0 4 0;
#X connect 4 0 5 0;
#X connect 6 0 0 0;
#X connect 7 0 1 0;
#X connect 8 0 6 0;
#X connect 10 0 11 1;
#X connect 10 0 13 1;
#X connect 11 0 9 0;
#X connect 13 0 12 0;
#X connect 14 0 7 0;
#X connect 15 0 11 0;
#X connect 16 0 13 0;
