#N canvas 823 484 434 665 12;
#X obj 51 228 noise~;
#X obj 105 251 osc~;
#X obj 145 227 adc~;
#X obj 124 88 hradio 19 1 0 3 empty empty empty 0 -10 0 12 #fcfcfc #000000 #000000 0;
#X floatatom 124 116 5 0 0 0 - - - 0;
#X obj 164 172 == 2;
#X obj 51 254 *~;
#X obj 105 275 *~;
#X obj 145 277 *~;
#X obj 106 355 *~;
#X obj 182 355 hsl 162 19 0 1 0 0 empty empty Gain -2 -10 0 12 #fcfcfc #000000 #000000 0 1;
#X obj 123 393 delwrite~ \$0-buffer 1000;
#X obj 149 469 delread~ \$0-buffer 10;
#X obj 149 515 *~;
#X obj 106 564 *~;
#X obj 142 563 hsl 162 19 0 1 0 0 empty empty Volume -2 -10 0 12 #fcfcfc #000000 #000000 0 1;
#X floatatom 137 355 5 0 0 0 - - - 0;
#X obj 227 516 hsl 162 19 0 1 0 0 empty empty feedback\ level -2 -10 0 12 #fcfcfc #000000 #000000 0 1;
#X floatatom 182 516 5 0 0 0 - - - 0;
#X obj 196 439 hsl 162 19 1 100 0 0 empty empty delay\ time -2 -10 0 12 #fcfcfc #000000 #000000 0 1;
#X floatatom 149 440 5 0 0 0 - - - 0;
#X text 57 14 Feedback Modulation;
#X floatatom 105 227 5 0 0 0 - - - 0;
#X obj 70 173 == 0;
#X obj 70 200 tgl 19 0 empty empty empty 0 -10 0 12 #fcfcfc #000000 #000000 0 1;
#X obj 124 199 tgl 19 0 empty empty empty 0 -10 0 12 #fcfcfc #000000 #000000 0 1;
#X obj 164 198 tgl 19 0 empty empty empty 0 -10 0 12 #fcfcfc #000000 #000000 0 1;
#X obj 124 172 == 1;
#X obj 98 613 dac~;
#X text 56 42 (c) 2021 Andrew R. Brown \; https://youtu.be/uMZyLIej_l4?si=7eDkUYfPZSZXEyiG;
#X connect 0 0 6 0;
#X connect 1 0 7 0;
#X connect 2 0 8 0;
#X connect 3 0 4 0;
#X connect 4 0 5 0;
#X connect 4 0 23 0;
#X connect 4 0 27 0;
#X connect 5 0 26 0;
#X connect 6 0 9 0;
#X connect 7 0 9 0;
#X connect 8 0 9 0;
#X connect 9 0 11 0;
#X connect 9 0 14 0;
#X connect 10 0 16 0;
#X connect 12 0 13 0;
#X connect 13 0 11 0;
#X connect 13 0 14 0;
#X connect 14 0 28 0;
#X connect 14 0 28 1;
#X connect 15 0 14 1;
#X connect 16 0 9 1;
#X connect 17 0 18 0;
#X connect 18 0 13 1;
#X connect 19 0 20 0;
#X connect 20 0 12 0;
#X connect 22 0 1 0;
#X connect 23 0 24 0;
#X connect 24 0 6 1;
#X connect 25 0 7 1;
#X connect 26 0 8 1;
#X connect 27 0 25 0;
