#N canvas 142 23 669 648 12;
#N canvas 202 528 703 476 pitch-shifter 0;
#X obj 335 106 phasor~ 1;
#X obj 335 142 +~ 0.5;
#X obj 335 177 wrap~;
#X obj 438 301 vd~ \$0-delay 40;
#X obj 438 263 *~ 40;
#X obj 335 378 *~;
#X obj 144 306 vd~ \$0-delay 40;
#X obj 144 267 *~ 40;
#X obj 43 378 *~;
#X obj 30 220 cnv 15 100 140 empty empty empty 20 12 0 14 -233017 -66577
0;
#X obj 43 263 -~ 0.5;
#X obj 43 298 *~ -0.5;
#X obj 43 331 cos~;
#X text 50 232 window;
#X obj 321 223 cnv 15 100 140 empty empty empty 20 12 0 14 -233017
-66577 0;
#X text 343 232 window;
#X obj 335 263 -~ 0.5;
#X obj 335 298 *~ -0.5;
#X obj 335 333 cos~;
#X text 397 174 wrap within range 0 - 1;
#N canvas 706 141 694 358 frequency 0;
#X obj 44 36 inlet;
#X obj 44 68 - 1;
#X obj 44 138 * -1;
#X text 121 204 segment size in seconds;
#X obj 44 250 outlet;
#X floatatom 55 103 5 0 0 0 - - -, f 5;
#X floatatom 57 172 5 0 0 0 - - -, f 5;
#X text 106 33 pitch factor;
#X obj 44 204 / 0.04;
#X text 115 119 downward transposition (src > 0 and < 1) positive =
forward \, upward transposition (src > 1) negative = backward.;
#X connect 0 0 1 0;
#X connect 1 0 2 0;
#X connect 1 0 5 0;
#X connect 2 0 6 0;
#X connect 2 0 8 0;
#X connect 8 0 4 0;
#X restore 335 41 pd frequency;
#X floatatom 348 71 5 0 0 0 - - -, f 5;
#X text 501 262 segment size 40 ms;
#X obj 335 415 outlet~;
#X obj 36 94 delwrite~ \$0-delay 2000;
#X obj 36 53 inlet~;
#X obj 335 7 inlet;
#X text 398 142 shift 180 degree;
#X connect 0 0 1 0;
#X connect 0 0 7 0;
#X connect 0 0 10 0;
#X connect 1 0 2 0;
#X connect 2 0 4 0;
#X connect 2 0 16 0;
#X connect 3 0 5 1;
#X connect 4 0 3 0;
#X connect 5 0 23 0;
#X connect 6 0 8 1;
#X connect 7 0 6 0;
#X connect 8 0 23 0;
#X connect 10 0 11 0;
#X connect 11 0 12 0;
#X connect 12 0 8 0;
#X connect 16 0 17 0;
#X connect 17 0 18 0;
#X connect 18 0 5 0;
#X connect 20 0 0 0;
#X connect 20 0 21 0;
#X connect 25 0 24 0;
#X connect 26 0 20 0;
#X restore 43 392 pd pitch-shifter;
#X obj 170 329 hsl 200 25 0.5 2 0 1 empty pitch-factor pitch-factor
20 12 0 14 -228856 -260097 -1 6633 0;
#X floatatom 167 365 5 0 0 0 - - -, f 5;
#X obj 43 561 dac~;
#X obj 67 461 hsl 200 25 0 1 0 0 empty empty audiolevel 20 12 0 14
-228856 -260097 -1 0 0;
#X floatatom 64 494 5 0 0 0 - - -, f 5;
#X obj 42 78 adc~;
#X obj 79 119 tabwrite~ \$0-audio;
#X obj 95 78 bng 30 250 50 0 empty empty empty 17 7 0 10 -260097 -1
-1;
#X obj 43 230 phasor~;
#N canvas 0 22 450 300 (subpatch) 0;
#X array \$0-audio 44100 float 2;
#X coords 0 1 44100 -1 300 100 1;
#X restore 290 142 graph;
#X obj 43 297 tabread4~ \$0-audio;
#X obj 46 166 hsl 200 25 -2 2 0 1 empty playback-speed playback-speed
20 12 0 14 -228856 -260097 -1 14925 0;
#X floatatom 43 201 5 0 0 0 - - -, f 5;
#X obj 43 263 *~ 44100;
#X obj 43 428 hip~ 5;
#X text 135 78 click to record;
#X text 392 118 44100 samples;
#X obj 423 366 loadbang;
#X obj 43 523 *~;
#X text 150 550 Springer Tempohon (c) by Katja Vetter;
#X text 151 575 http://www.katjaas.nl/pitchshift/pitchshift.html;
#X text 38 13 Pitchshifting with rotating tape head emulation;
#X msg 423 402 \; pd dsp 1 \; playback-speed 1 \; pitch-factor 1;
#X connect 0 0 15 0;
#X connect 1 0 2 0;
#X connect 2 0 0 1;
#X connect 4 0 5 0;
#X connect 5 0 19 1;
#X connect 6 0 7 0;
#X connect 6 1 7 0;
#X connect 8 0 7 0;
#X connect 9 0 14 0;
#X connect 11 0 0 0;
#X connect 12 0 13 0;
#X connect 13 0 9 0;
#X connect 14 0 11 0;
#X connect 15 0 19 0;
#X connect 18 0 23 0;
#X connect 19 0 3 0;
#X connect 19 0 3 1;
