#N canvas 450 407 684 398 12;
#X text 35 24 Pure Data Implementations;
#X text 44 124 Purr Data;
#X msg 153 123 browse https://agraef.github.io/purr-data/;
#X text 46 161 Plugdata;
#X msg 182 159 browse https://plugdata.org;
#X text 42 202 CEAMMC PureData;
#X msg 207 199 browse https://github.com/uliss/pd-ceammc;
#X msg 230 244 browse https://github.com/pd-l2ork;
#X text 43 245 Pd-L2Ork;
#X msg 243 288 browse http://dernulleffekt.de/doku.php?id=puredata:main;
#X obj 243 335 pdcontrol;
#X text 34 58 See informations about different implementations of Pure Data, f 62;
#X text 43 287 Pure Data / Raspberry Pi;
#X connect 2 0 10 0;
#X connect 4 0 10 0;
#X connect 6 0 10 0;
#X connect 7 0 10 0;
#X connect 9 0 10 0;
