#N canvas 396 153 438 760 12;
#N canvas 1149 861 635 428 simple 0;
#X obj 41 48 unpack 0 0 0 0;
#X obj 41 93 pack 0 0 0 0;
#X obj 44 212 osc~ 1000;
#X obj 44 262 writesf~ 4;
#X obj 101 324 bang;
#X floatatom 50 325 5 0 0 0 - - - 0;
#X obj 148 324 f;
#X obj 86 380 print;
#X text 198 326 Fan in: Select the three boxes by dragging a circle around them \, select one output \, hold shift an connect to the input;
#X text 179 213 Fan out: Drag the connection from the output to the first input \, hold shift and click on each input you want to connect.;
#X text 177 130 3 Select both boxes by dragging a circle around them \, connect the first output with the first input \, hold and press shift.;
#X text 177 43 1 Select both boxes and the press cmd-k (ctrl-k) for the first connection.;
#X text 176 83 2 Select the first connection an press cmd-d (ctrl-d) to automatically connect the others.;
#X restore 118 106 pd simple;
#N canvas 0 25 450 300 not 0;
#X restore 117 133 pd not so simple;
#X text 52 568 (c) 2018 IOhannes m zmölnig;
#N canvas 0 25 450 300 less 0;
#X restore 119 271 pd less intelligent patching;
#X text 54 19 Intelligent patching in Pd-vanilla;
#X obj 56 63 pdcontrol;
#X msg 56 37 browse https://vimeo.com/273707442;
#X obj 54 228 pdcontrol;
#X msg 54 202 browse https://vimeo.com/340437816;
#X text 52 179 Less intelligent patching for PD;
#X obj 56 480 pdcontrol;
#X text 55 432 More intelligent patching in Pd-vanilla ();
#X msg 56 454 browse https://vimeo.com/279631360;
#N canvas 1049 1074 450 300 cycle-select 0;
#X restore 118 299 pd cycle-select and deselect;
#N canvas 1078 1103 450 300 trigger 0;
#X restore 118 327 pd trigger on;
#N canvas 580 809 553 469 inserting 0;
#X obj 121 93 float;
#X obj 121 174 print;
#X text 62 29 triggerize to insert a dummy object & type to replace it with one you like;
#X obj 258 95 noise~;
#X obj 258 173 *~ 0.5;
#X text 56 220 Select the cord and then cmd-t (ctrl-t): a [t a] is inserted and can be replaced with anything \, in audio cords its an empty subpatch [pd nop~].;
#X obj 120 286 float;
#X obj 120 367 print;
#X obj 257 288 noise~;
#X obj 257 366 *~ 0.5;
#N canvas 200 100 190 200 nop~ 0;
#X obj 50 70 inlet~;
#X obj 50 140 outlet~;
#X connect 0 0 1 0;
#X restore 285 329 pd nop~;
#X obj 153 327 t a;
#X text 60 409 Select all 3 objects and press cmd-k (ctrl-k) to connect them;
#X connect 0 0 1 0;
#X connect 3 0 4 0;
#X connect 6 0 7 0;
#X connect 8 0 9 0;
#X restore 117 354 pd inserting object revisited;
#N canvas 1136 1112 450 300 fan~out 0;
#X restore 116 382 pd fan~out with keyboard-connection;
#N canvas 0 38 450 300 more 0;
#X restore 126 519 pd more intelligent patching;
#N canvas 638 273 559 582 from 0;
#X text 13 180 (1) 1:1 multi-connect: connects o(n+k) -> i(m+k) for k=0 \, 1 \, ... \, where o(n)->i(m) is the initial connection and *exactly* o and i are selected;
#X text 13 226 (2) 1:N single-connect: connects o(n)->i(m) \, o(n)->i'(m) \, o(n)->i''(m) \, ... \, where o(n)->i(m) is the initial connection \, o is unselected and at least 2 objects i \, i' \, i'' \, ... are selected;
#X text 13 285 (3) N:1 single-connect: connects o(n)->i(m) \, o'(n)->i(m) \, o''(n)->i(m) \, ... \, where o(n)->i(m) is the initial connection \, i is unselected and at least 2 objects o \, o' \, o'' \, ... are selected;
#X text 13 344 (4) 1:N multi-connect: connects o(n+k) -> i(m) for each other selected object i \, k = 0 \, 1 \, ... \, where o(n)->i(m) is the initial connection \, and *both* o and at least two different i's are selected;
#X text 13 403 (4') N:1 multi-connect: connects o(n) -> i(m+k) for each other selected object o \, k = 0 \, 1 \, ... \, where o(n)->i(m) is the initial connection \, and *both* i and at least two different o's are selected;
#X text 13 160 "Intelligent" patching:;
#X text 13 114 Shift connections: Pressing the shift key while doing connections will let you do multiple connections from the same outlet in one go.;
#N canvas 88 323 450 323 mode1 0;
#X text 37 15 Mode 1 is the simplest: just select the two objects below and then connect the leftmost outlet of the upper object to the leftmost inlet of the lower object:;
#X obj 110 81 unpack f f f f;
#X obj 115 120 pack f f f f;
#X restore 448 184 pd mode1;
#X text 272 35 can be found in the margin.;
#N canvas 66 279 450 323 mode2+3 0;
#X obj 188 84 inlet;
#X floatatom 150 114 5 0 0 0 - - - 0;
#X floatatom 187 114 5 0 0 0 - - - 0;
#X floatatom 224 114 5 0 0 0 - - - 0;
#X text 37 21 Mode 2: 1:N connections ("fan out") -- select the bottom row and then connect the outlet of the (unselected) upper object to the leftmost object in the (selected) bottom row.;
#X floatatom 148 214 5 0 0 0 - - - 0;
#X floatatom 185 214 5 0 0 0 - - - 0;
#X floatatom 222 214 5 0 0 0 - - - 0;
#X text 35 149 Mode 3: N:1 connections ("fan in") -- select the top row and then connect the leftmost object in the (selected) top row to the inlet of the (unselected) lower object.;
#X obj 181 243 outlet;
#X restore 433 264 pd mode2+3;
#N canvas 288 307 445 421 mode4 0;
#X obj 86 177 unpack f f f;
#X floatatom 83 209 5 0 0 0 - - - 0;
#X floatatom 120 209 5 0 0 0 - - - 0;
#X floatatom 157 209 5 0 0 0 - - - 0;
#X floatatom 237 177 5 0 0 0 - - - 0;
#X floatatom 274 177 5 0 0 0 - - - 0;
#X floatatom 311 177 5 0 0 0 - - - 0;
#X obj 246 209 pack f f f;
#X obj 68 318 unpack f f;
#X obj 137 318 unpack f f;
#X obj 110 347 pack f f;
#X obj 222 318 unpack f f;
#X obj 291 318 unpack f f;
#X obj 264 347 pack f f;
#X text 99 374 without ctrl;
#X text 262 374 with ctrl;
#X text 54 145 Mode 4: 1:N ("fan out");
#X text 220 145 Mode 4': N:1 ("fan in");
#X text 37 236 Note that the intelligent patching heuristic will pick either mode 4 or mode 4' \, whatever gives the most connections. Sometimes this choice will be ambiguous \, in which case you may have to help the algorithm along by pressing the ctrl key *before* doing the connections:;
#X text 36 17 Mode 4 is the most complicated. Here we want to connect the objects above to the objects below again \, but this time the different out- or inlets of the target object will be *distributed* among the other objects. To try these \, select each group of three or four objects below and then connect the leftmost outlet of the leftmost object on the top to the leftmost inlet of the leftmost object on the bottom. Note that \, in contrast to mode 2 and 3 \, here *all* the objects to be connected have to be selected beforehand!;
#X restore 439 396 pd mode4;
#X text 13 462 NOTE: Intelligent patching will do either (4) or (4') \, whichever gives the most connections. This choice can be reversed by holding the ctrl key when doing the initial connection. The "other" selected objects will be considered in left-to-right and top-to-bottom order.;
#X text 33 90 Note: these behaviors are unstable and subject to change;
#X text 272 22 Details and exercises;
#X obj 26 51 pack f f f f;
#X obj 159 11 unpack f f f f;
#X obj 26 11 unpack f f f;
#X obj 159 51 pack f f f;
#X restore 120 614 pd from L2Ork Tutorial;
#X connect 6 0 5 0;
#X connect 8 0 7 0;
#X connect 12 0 10 0;
