#N canvas 396 153 405 618 12;
#N canvas 1149 861 635 428 simple 0;
#X obj 41 48 unpack 0 0 0 0;
#X obj 41 93 pack 0 0 0 0;
#X obj 44 212 osc~ 1000;
#X obj 44 262 writesf~ 4;
#X obj 101 324 bang;
#X floatatom 50 325 5 0 0 0 - - - 0;
#X obj 148 324 f;
#X obj 86 380 print;
#X text 198 326 Fan in: Select the three boxes by dragging a circle around them \, select one output \, hold shift an connect to the input;
#X text 179 213 Fan out: Drag the connection from the output to the first input \, hold shift and click on each input you want to connect.;
#X text 177 130 3 Select both boxes by dragging a circle around them \, connect the first output with the first input \, hold and press shift.;
#X text 177 43 1 Select both boxes and the press cmd-k (ctrl-k) for the first connection.;
#X text 176 83 2 Select the first connection an press cmd-d (ctrl-d) to automatically connect the others.;
#X restore 118 106 pd simple;
#N canvas 0 25 450 300 not 0;
#X restore 117 133 pd not so simple;
#X text 52 568 (c) 2018 IOhannes m zmölnig;
#N canvas 0 25 450 300 less 0;
#X restore 119 271 pd less intelligent patching;
#X text 54 19 Intelligent patching in Pd-vanilla;
#X obj 56 63 pdcontrol;
#X msg 56 37 browse https://vimeo.com/273707442;
#X obj 54 228 pdcontrol;
#X msg 54 202 browse https://vimeo.com/340437816;
#X text 52 179 Less intelligent patching for PD;
#X obj 56 480 pdcontrol;
#X text 55 432 More intelligent patching in Pd-vanilla ();
#X msg 56 454 browse https://vimeo.com/279631360;
#N canvas 0 25 450 300 nore 0;
#X restore 126 519 pd nore intelligent patching;
#N canvas 1049 1074 450 300 cycle-select 0;
#X restore 118 299 pd cycle-select and deselect;
#N canvas 1078 1103 450 300 trigger 0;
#X restore 118 327 pd trigger on;
#N canvas 580 809 553 469 inserting 0;
#X obj 121 93 float;
#X obj 121 174 print;
#X text 62 29 triggerize to insert a dummy object & type to replace it with one you like;
#X obj 258 95 noise~;
#X obj 258 173 *~ 0.5;
#X text 56 220 Select the cord and then cmd-t (ctrl-t): a [t a] is inserted and can be replaced with anything \, in audio cords its an empty subpatch [pd nop~].;
#X obj 120 286 float;
#X obj 120 367 print;
#X obj 257 288 noise~;
#X obj 257 366 *~ 0.5;
#N canvas 200 100 190 200 nop~ 0;
#X obj 50 70 inlet~;
#X obj 50 140 outlet~;
#X connect 0 0 1 0;
#X restore 285 329 pd nop~;
#X obj 153 327 t a;
#X text 60 409 Select all 3 objects and press cmd-k (ctrl-k) to connect them;
#X connect 0 0 1 0;
#X connect 3 0 4 0;
#X connect 6 0 7 0;
#X connect 8 0 9 0;
#X restore 117 354 pd inserting object revisited;
#N canvas 1136 1112 450 300 fan~out 0;
#X restore 116 382 pd fan~out with keyboard-connection;
#X connect 6 0 5 0;
#X connect 8 0 7 0;
#X connect 12 0 10 0;
