#N canvas 471 158 543 465 12;
#X text 19 66 Message processing is driven by events \, nothing happens
if there no events. There is nothing happening in the patches below
until you click on the messages (the bangs at the bottom illustrate
that):;
#X obj 113 372 float;
#X obj 170 372 + 1;
#X floatatom 113 397 5 0 0 0 - - -, f 5;
#X obj 113 418 bng 15 250 50 0 empty empty empty 0 -6 0 8 -262144 -1
-1;
#X obj 113 348 metro 1000;
#X obj 385 353 float;
#X obj 442 353 + 1;
#X floatatom 385 378 5 0 0 0 - - -, f 5;
#X obj 385 399 bng 15 250 50 0 empty empty empty 0 -6 0 8 -262144 -1
-1;
#X obj 72 181 + 1;
#X floatatom 72 207 5 0 0 0 - - -, f 5;
#X msg 72 149 1;
#X msg 237 145 convert;
#X obj 237 178 symbol;
#X symbolatom 237 206 10 0 0 0 - - -, f 10;
#X obj 72 234 bng 15 250 50 0 empty empty empty 0 -6 0 8 -262144 -1
-1;
#X obj 237 233 bng 15 250 50 0 empty empty empty 0 -6 0 8 -262144 -1
-1;
#X obj 421 176 float;
#X obj 478 176 + 1;
#X floatatom 421 204 5 0 0 0 - - -, f 5;
#X obj 421 229 bng 15 250 50 0 empty empty empty 0 -6 0 8 -262144 -1
-1;
#X obj 277 364 delay 1000;
#X msg 421 144 bang;
#X text 18 265 Pd is always ready to process messages \, you don't
need to tell it to run. You can keep things moving by sending a stream
of events:;
#X text 19 35 Event driven processing;
#X obj 114 324 bng 15 250 50 0 empty empty empty 0 -6 0 8 -262144 -1
-1;
#X obj 386 324 bng 15 250 50 0 empty empty empty 17 7 0 10 -262144
-1 -1;
#X obj 137 324 tgl 15 0 empty empty empty 17 7 0 10 -262144 -1 -1 0
1;
#X connect 1 0 2 0;
#X connect 1 0 3 0;
#X connect 2 0 1 1;
#X connect 3 0 4 0;
#X connect 5 0 1 0;
#X connect 6 0 7 0;
#X connect 6 0 8 0;
#X connect 7 0 6 1;
#X connect 8 0 9 0;
#X connect 9 0 22 0;
#X connect 10 0 11 0;
#X connect 11 0 16 0;
#X connect 12 0 10 0;
#X connect 13 0 14 0;
#X connect 14 0 15 0;
#X connect 15 0 17 0;
#X connect 18 0 19 0;
#X connect 18 0 20 0;
#X connect 19 0 18 1;
#X connect 20 0 21 0;
#X connect 22 0 6 0;
#X connect 23 0 18 0;
#X connect 26 0 5 0;
#X connect 27 0 6 0;
#X connect 28 0 5 0;
