#N canvas 327 131 535 441 12;
#X obj 160 122 tgl 20 0 empty empty empty 0 -6 0 8 #fcfcfc #000000 #000000 0 1;
#X text 183 122 <-- click here;
#X obj 160 184 bng 20 250 50 0 empty empty empty 0 -6 0 8 #fcfcfc #000000 #000000;
#X text 15 371 The object is called [tgl] or you can get it from the "Put" menu.;
#X text 14 63 Many objects can be switched on and off using a toggle. A toggle outputs 0 for off \, and an number for on.;
#X text 13 222 By default \, a toggle outputs 1 for on \, but you can change that to any number by selecting the "Properties" dialog.;
#X obj 33 290 tgl 20 0 empty empty empty 0 -6 0 8 #fcfcfc #000000 #000000 0 1;
#X floatatom 33 324 5 0 0 0 - - - 0;
#X obj 103 290 tgl 20 0 empty empty empty 0 -6 0 8 #fcfcfc #000000 #000000 0 100;
#X floatatom 103 324 5 0 0 0 - - - 0;
#X obj 173 290 tgl 20 0 empty empty empty 0 -6 0 8 #fcfcfc #000000 #000000 0 9e-22;
#X floatatom 173 324 5 0 0 0 - - - 0;
#X obj 243 290 tgl 20 0 empty empty empty 0 -6 0 8 #fcfcfc #000000 #000000 0 -0.034;
#X floatatom 243 324 5 0 0 0 - - - 0;
#X obj 313 290 tgl 20 0 empty empty empty 0 -6 0 8 #fcfcfc #000000 #000000 0 23;
#X floatatom 313 324 5 0 0 0 - - - 0;
#X obj 383 290 tgl 20 0 empty empty empty 0 -6 0 8 #fcfcfc #000000 #000000 0 99999;
#X floatatom 383 324 5 0 0 0 - - - 0;
#X text 186 184 bangs once every second (1000ms);
#X obj 160 151 metro 1000;
#X text 39 26 Turnig on an off;
#X obj 12 24 tgl 19 0 empty empty empty 0 -10 0 12 #fcfcfc #000000 #000000 0 1;
#X connect 0 0 19 0;
#X connect 6 0 7 0;
#X connect 8 0 9 0;
#X connect 10 0 11 0;
#X connect 12 0 13 0;
#X connect 14 0 15 0;
#X connect 16 0 17 0;
#X connect 19 0 2 0;
