#N canvas 304 58 491 299 12;
#X floatatom 156 129 5 0 0 0 - - - 0;
#X obj 156 173 +;
#X floatatom 156 209 5 0 0 0 - - - 0;
#X floatatom 272 129 5 0 0 0 - - - 0;
#X obj 272 173 +;
#X floatatom 272 209 5 0 0 0 - - - 0;
#X text 40 33 First CREATED cord is calculated first. See the difference between the two visually identical patches:;
#X text 64 258 To control this use the [trigger] object.;
#X msg 220 79 2;
#X text 314 209 ?;
#X text 196 208 not equal;
#X connect 0 0 1 0;
#X connect 0 0 1 1;
#X connect 1 0 2 0;
#X connect 3 0 4 1;
#X connect 3 0 4 0;
#X connect 4 0 5 0;
#X connect 8 0 3 0;
#X connect 8 0 0 0;
