#N canvas 440 29 686 585 12;
#X floatatom 42 517 5 0 0 0 - - - 0;
#X obj 42 486 +;
#X floatatom 42 458 5 0 0 0 - - - 0;
#X floatatom 93 458 5 0 0 0 - - - 0;
#X floatatom 243 512 5 0 0 0 - - - 0;
#X obj 243 481 +;
#X floatatom 183 422 5 0 0 0 - - - 0;
#X floatatom 243 422 5 0 0 0 - - - 0;
#X obj 243 450 t b f;
#X obj 374 481 metro;
#X obj 374 397 tgl 15 0 empty empty On/Off 0 -10 0 14 #fcfcfc #000000 #000000 0 1;
#X obj 374 423 t f b;
#X msg 406 452 1000;
#X obj 374 512 bng 15 250 50 0 empty empty empty 0 -6 0 8 #fcfcfc #000000 #000000;
#X obj 42 427 t f f;
#X floatatom 42 397 5 0 0 0 - - - 0;
#X obj 511 355 bng 15 250 50 0 empty empty empty 17 7 0 10 #fcfcfc #000000 #000000;
#X obj 511 385 t b b b;
#X obj 538 488 f;
#X obj 575 487 + 1;
#X obj 537 519 print 2;
#X obj 563 411 print 1;
#X obj 511 545 print 3;
#X msg 537 436 2;
#X obj 537 463 until;
#X obj 134 140 bng 25 250 50 0 empty empty empty -2 -8 1 10 #fcfcfc #000000 #000000;
#X msg 285 218 1;
#X msg 209 217 2;
#X msg 134 219 3;
#X text 181 143 <-- click here \,;
#X text 70 71 The [trigger] object is used to enforce execution order. If you need things to run in a certain sequence \, then use a [trigger].;
#X obj 134 180 trigger bang bang bang;
#X obj 209 284 print ORDER;
#X text 323 178 =;
#X obj 349 181 t b b b;
#X text 70 28 In Pd \, you read a patch from right to left \, from top to bottom. Objects also output from right to left.;
#X text 316 285 check Pd window to see the order;
#X text 72 344 Control execution order for hot and cold inlets.;
#X obj 374 538 print;
#X connect 1 0 0 0;
#X connect 2 0 1 0;
#X connect 3 0 1 1;
#X connect 5 0 4 0;
#X connect 6 0 5 0;
#X connect 7 0 8 0;
#X connect 8 0 5 0;
#X connect 8 1 5 1;
#X connect 9 0 13 0;
#X connect 10 0 11 0;
#X connect 11 0 9 0;
#X connect 11 1 12 0;
#X connect 12 0 9 1;
#X connect 13 0 38 0;
#X connect 14 0 2 0;
#X connect 14 1 3 0;
#X connect 15 0 14 0;
#X connect 16 0 17 0;
#X connect 17 0 22 0;
#X connect 17 1 23 0;
#X connect 17 2 21 0;
#X connect 18 0 19 0;
#X connect 18 0 20 0;
#X connect 19 0 18 1;
#X connect 23 0 24 0;
#X connect 24 0 18 0;
#X connect 25 0 31 0;
#X connect 26 0 32 0;
#X connect 27 0 32 0;
#X connect 28 0 32 0;
#X connect 31 0 28 0;
#X connect 31 1 27 0;
#X connect 31 2 26 0;
