#N canvas 10 40 530 444 12;
#X obj 229 202 trigger bang bang;
#X msg 216 349 add2 \$1;
#X msg 164 349 set;
#X text 114 350 reset:;
#X msg 215 169 4;
#X msg 229 235 3;
#X msg 362 234 2;
#X msg 362 269 1;
#X text 56 388 see result here -->;
#X text 16 52 Pd processes messages in "depth first". This means the
bottom-most message in a chain runs first. Everything below a spot
in a chain is run before. As you'll see from the example below \, the
[4( message actually runs last \, since everything below it executed
before it.;
#X msg 216 388 1 2 3 4;
#X text 14 26 Depth first;
#X obj 216 143 bng 15 250 50 0 empty empty empty 17 7 0 10 -262144
-1 -1;
#X connect 0 0 5 0;
#X connect 0 1 6 0;
#X connect 1 0 10 0;
#X connect 2 0 10 0;
#X connect 4 0 0 0;
#X connect 4 0 1 0;
#X connect 5 0 1 0;
#X connect 6 0 7 0;
#X connect 6 0 1 0;
#X connect 7 0 1 0;
#X connect 12 0 4 0;
