#N canvas 0 22 419 454 12;
#X obj 155 45 inlet;
#X obj 123 360 *~;
#X floatatom 136 227 5 0 0 0 - - -, f 5;
#X floatatom 203 261 5 0 0 0 - - -, f 5;
#X obj 155 78 unpack 0 0;
#X obj 135 282 line;
#X obj 202 325 line;
#X obj 123 394 outlet~;
#X obj 205 152 f;
#X obj 136 153 f;
#X obj 81 46 inlet;
#X obj 204 187 t f b;
#X obj 250 229 delay 500;
#X msg 201 295 \$1 50;
#X msg 135 253 \$1 30;
#X msg 250 262 0 30;
#X obj 123 325 vcf~;
#X obj 323 48 inlet;
#X obj 66 283 noise~;
#X connect 0 0 4 0;
#X connect 1 0 7 0;
#X connect 2 0 14 0;
#X connect 3 0 13 0;
#X connect 4 0 9 1;
#X connect 4 1 8 1;
#X connect 5 0 16 1;
#X connect 6 0 1 1;
#X connect 8 0 11 0;
#X connect 9 0 2 0;
#X connect 10 0 9 0;
#X connect 10 0 8 0;
#X connect 11 0 3 0;
#X connect 11 1 12 0;
#X connect 12 0 15 0;
#X connect 13 0 6 0;
#X connect 14 0 5 0;
#X connect 15 0 6 0;
#X connect 16 0 1 0;
#X connect 17 0 16 2;
#X connect 18 0 16 0;
