#N canvas 475 82 558 577 12;
#X obj 82 476 dac~;
#X obj 60 116 fiddle~;
#X obj 60 167 mtof;
#X obj 60 294 osc~;
#X floatatom 60 145 5 0 0 0 - - - 0;
#X obj 92 444 *~;
#X obj 170 318 *~;
#X obj 191 281 line~;
#X obj 191 255 pack 0 50;
#X floatatom 113 147 5 0 0 0 - - - 0;
#X obj 92 330 *~;
#X obj 113 208 / 100;
#X obj 113 178 - 55;
#X text 43 21 sing into the mic to control AM synthesis with your voice;
#X text 42 507 (C) Copyright 2004 Hans-Christoph Steiner <hans@at.or.at>;
#X text 293 530 released under the GNU GPL;
#X obj 116 420 hsl 128 15 0.01 1 1 0 empty empty master_amplitude 5 9 1 12 #fcfcfc #000000 #000000 0 0;
#X obj 60 267 line~;
#X obj 113 266 line~;
#X obj 194 233 hsl 128 15 0.1 1 1 0 empty empty voice_level 10 8 0 12 #fcfcfc #000000 #000000 0 1;
#X msg 113 234 \$1 100;
#X msg 60 234 \$1 10;
#X obj 91 390 cos~;
#X obj 91 358 +~;
#X obj 170 55 adc~ 1;
#X connect 1 0 4 0;
#X connect 1 3 9 0;
#X connect 2 0 21 0;
#X connect 3 0 10 0;
#X connect 4 0 2 0;
#X connect 5 0 0 1;
#X connect 5 0 0 0;
#X connect 6 0 23 1;
#X connect 7 0 6 1;
#X connect 8 0 7 0;
#X connect 9 0 12 0;
#X connect 10 0 23 0;
#X connect 11 0 20 0;
#X connect 12 0 11 0;
#X connect 16 0 5 1;
#X connect 17 0 3 0;
#X connect 18 0 10 1;
#X connect 19 0 8 0;
#X connect 20 0 18 0;
#X connect 21 0 17 0;
#X connect 22 0 5 0;
#X connect 23 0 22 0;
#X connect 24 0 1 0;
#X connect 24 0 6 0;
