#N canvas 632 225 512 706 12;
#X floatatom 34 375 8 0 0 0 - - - 0;
#X text 95 377 (MIDI);
#X obj 34 436 mtof;
#X floatatom 34 467 7 0 0 0 - - - 0;
#X obj 139 535 *~;
#X obj 34 409 trigger float bang;
#X obj 157 472 vline~;
#X obj 34 492 tabosc4~ \$0-wave;
#X obj 140 621 dac~ 2;
#X obj 69 300 dac~ 1;
#X msg 52 85 open ../Sounds/vl.wav;
#X msg 42 53 open ../Sounds/bcl.wav;
#X msg 32 28 open ../Sounds/fl.wav;
#X obj 32 217 readsf~ 1;
#X obj 32 188 tgl 19 0 empty empty empty 0 -10 0 12 #fcfcfc #000000 #000000 0 1;
#X msg 157 438 0.25 10 \, 0 300 2000;
#X obj 33 333 sigmund~ -npts 2048 -stabletime 70 -growth 20 -vibrato 0.4 -minpower 20 notes, f 43;
#X msg 60 117 open ../Sounds/vc.wav;
#X obj 32 162 t b a;
#X obj 69 272 *~;
#X obj 90 247 hsl 80 15 0 1 0 0 empty xfade empty -2 -8 0 10 #fcfcfc #000000 #000000 0 1;
#X connect 0 0 5 0;
#X connect 2 0 3 0;
#X connect 3 0 7 0;
#X connect 4 0 8 0;
#X connect 5 0 2 0;
#X connect 5 1 15 0;
#X connect 6 0 4 1;
#X connect 7 0 4 0;
#X connect 10 0 18 0;
#X connect 11 0 18 0;
#X connect 12 0 18 0;
#X connect 13 0 16 0;
#X connect 13 0 19 0;
#X connect 14 0 13 0;
#X connect 15 0 6 0;
#X connect 16 0 0 0;
#X connect 17 0 18 0;
#X connect 18 0 14 0;
#X connect 18 1 13 0;
#X connect 19 0 9 0;
#X connect 20 0 19 1;
