#N canvas 1605 325 658 909 12;
#X obj 87 69 inlet;
#X obj 64 322 osc~;
#X obj 64 360 *~;
#X floatatom 66 230 5 0 0 0 - - -;
#X floatatom 141 266 5 0 0 0 - - -;
#X obj 87 102 unpack 0 0;
#X obj 63 289 line;
#X obj 139 327 line;
#X obj 64 397 outlet~;
#X obj 143 157 f;
#X obj 66 156 f;
#X obj 66 38 inlet;
#X obj 142 192 t f b;
#X msg 65 255 \$1 50;
#X msg 139 300 \$1 50;
#X obj 188 234 delay 150;
#X msg 188 267 0 2000;
#X connect 0 0 5 0;
#X connect 1 0 2 0;
#X connect 2 0 8 0;
#X connect 3 0 13 0;
#X connect 4 0 14 0;
#X connect 5 0 10 1;
#X connect 5 1 9 1;
#X connect 6 0 1 0;
#X connect 7 0 2 1;
#X connect 9 0 12 0;
#X connect 10 0 3 0;
#X connect 11 0 10 0;
#X connect 11 0 9 0;
#X connect 12 0 4 0;
#X connect 12 1 15 0;
#X connect 13 0 6 0;
#X connect 14 0 7 0;
#X connect 15 0 16 0;
#X connect 16 0 7 0;
