#N canvas 82 25 739 512 12;
#X obj 24 66 noise~;
#X obj 47 430 dac~;
#X obj 45 153 line~;
#X obj 24 269 *~;
#X msg 45 121 1 500;
#X msg 107 121 0 500;
#X obj 133 154 hsl 128 15 0 1 0 0 empty set-pan empty -2 -6 0 8 #fcfcfc #000000 #000000 0 1;
#X obj 25 392 *~;
#X obj 107 394 *~;
#X obj 216 311 line~;
#X obj 216 339 cos~;
#X obj 133 309 line~;
#X obj 133 337 cos~;
#X obj 132 283 pack;
#X obj 131 228 t f b;
#X msg 175 255 10;
#X obj 216 284 pack;
#X msg 289 255 10;
#X text 269 340 scale by cosine of pan angle: constant-power;
#X text 146 394 change gain for channel according to constant-power formula;
#X text 274 148 control input: pan angle;
#X text 170 185 scale to 0 <= n <= 0.25 (for idiosyncratic pd cos~ object);
#X text 271 228 shift right channel 90 degrees in phase from left;
#X text 267 284 combine angle with 10 msec ramp time in a list;
#X text 276 310 create smooth (10 msec) transition to new pan angle;
#X obj 216 256 - 0.25;
#X text 157 120 turn on and off noise generator;
#X obj 214 228 t f b;
#X text 274 165 0 = left \, 1 = right;
#X obj 130 184 / 4;
#X text 378 430 (C) 2005 Christopher Burns;
#X obj 24 93 *~ 0.05;
#X obj 484 63 loadbang;
#X msg 484 90 \; pd dsp 1 \; set-pan 0.5 \;;
#X text 33 21 Equal power panning;
#X connect 0 0 31 0;
#X connect 2 0 3 1;
#X connect 3 0 7 0;
#X connect 3 0 8 0;
#X connect 4 0 2 0;
#X connect 5 0 2 0;
#X connect 6 0 29 0;
#X connect 7 0 1 0;
#X connect 8 0 1 1;
#X connect 9 0 10 0;
#X connect 10 0 8 1;
#X connect 11 0 12 0;
#X connect 12 0 7 1;
#X connect 13 0 11 0;
#X connect 14 0 13 0;
#X connect 14 1 15 0;
#X connect 15 0 13 1;
#X connect 16 0 9 0;
#X connect 17 0 16 1;
#X connect 25 0 16 0;
#X connect 27 0 25 0;
#X connect 27 1 17 0;
#X connect 29 0 14 0;
#X connect 29 0 27 0;
#X connect 31 0 3 0;
#X connect 32 0 33 0;
