#N canvas 667 526 589 432 12;
#X obj 66 273 *~;
#X obj 199 153 route 1 2 3 4;
#X obj 154 272 *~;
#X obj 87 227 line;
#X obj 175 226 line;
#X floatatom 175 250 5 0 0 0 - - - 0;
#X floatatom 87 250 5 0 0 0 - - - 0;
#X obj 236 273 *~;
#X obj 257 225 line;
#X floatatom 257 249 5 0 0 0 - - - 0;
#X obj 318 271 *~;
#X obj 338 226 line;
#X floatatom 338 249 5 0 0 0 - - - 0;
#X msg 199 16 1 1 1000 \, 2 1 1000 \, 3 1 1000 \, 4 1 1000 \;;
#X obj 62 59 *~ 0.1;
#X obj 62 29 noise~;
#X obj 66 321 dac~ 1;
#X obj 154 323 dac~ 2;
#X obj 236 323 dac~ 3;
#X obj 318 323 dac~ 4;
#X msg 209 48 1 1 1000 \, 2 0 1000 \, 3 1 1000 \, 4 0 1000;
#X msg 218 116 1 0 2000 \, 2 0 4000 \, 3 0 2000 \, 4 0 4000 \;;
#X msg 222 76 1 1 1000 \, 2 1 5000 \, 3 1 1000 \, 4 1 5000;
#X obj 250 299 dac~ 2;
#X obj 327 296 dac~ 1;
#X connect 0 0 16 0;
#X connect 1 0 3 0;
#X connect 1 1 4 0;
#X connect 1 2 8 0;
#X connect 1 3 11 0;
#X connect 2 0 17 0;
#X connect 3 0 6 0;
#X connect 4 0 5 0;
#X connect 5 0 2 1;
#X connect 6 0 0 1;
#X connect 7 0 18 0;
#X connect 7 0 23 0;
#X connect 8 0 9 0;
#X connect 9 0 7 1;
#X connect 10 0 19 0;
#X connect 10 0 24 0;
#X connect 11 0 12 0;
#X connect 12 0 10 1;
#X connect 13 0 1 0;
#X connect 14 0 0 0;
#X connect 14 0 2 0;
#X connect 14 0 7 0;
#X connect 14 0 10 0;
#X connect 15 0 14 0;
#X connect 20 0 1 0;
#X connect 21 0 1 0;
#X connect 22 0 1 0;
