#N canvas 938 182 475 552 12;
#X obj 180 317 metro 5000;
#X obj 216 208 random 2000;
#X obj 216 237 + 3000;
#X obj 184 182 t f b;
#X obj 184 160 tgl 15 0 empty empty empty 17 7 0 10 #fcfcfc #000000 #000000 0 1;
#X obj 180 349 bng 15 250 50 0 empty empty empty 17 7 0 10 #fcfcfc #000000 #000000;
#X obj 184 133 unpack f f f;
#X msg 184 77 1 3000 2000;
#X floatatom 248 274 5 0 0 0 - - - 0;
#X obj 209 496 dac~ 3;
#X obj 297 496 dac~ 4;
#X obj 310 466 dac~ 2;
#X obj 222 470 dac~ 1;
#X obj 266 316 s time;
#X obj 116 499 dac~ 2;
#X msg 193 105 1 300 200;
#X msg 28 409 300;
#X msg 118 407 500;
#X msg 209 411 700;
#X msg 297 410 900;
#N canvas 718 403 368 260 rnd-osc 0;
#X obj 88 197 *~;
#X obj 137 92 random 2;
#X floatatom 137 117 5 0 0 0 - - - 0;
#X obj 43 138 osc~;
#X obj 43 114 + 100;
#X obj 169 137 r time;
#X obj 137 160 line~;
#X obj 44 92 random 300;
#X obj 88 229 outlet~;
#X obj 68 45 t b b f;
#X obj 67 13 inlet;
#X text 141 34 random pitches and randomly turn speaker on and off, f 27;
#X connect 0 0 8 0;
#X connect 1 0 2 0;
#X connect 2 0 6 0;
#X connect 3 0 0 0;
#X connect 4 0 3 0;
#X connect 5 0 6 1;
#X connect 6 0 0 1;
#X connect 7 0 4 0;
#X connect 9 0 7 0;
#X connect 9 1 1 0;
#X connect 9 2 7 1;
#X connect 10 0 9 0;
#X restore 28 437 pd rnd-osc;
#N canvas 883 793 283 258 rnd-osc 0;
#X obj 88 197 *~;
#X obj 137 92 random 2;
#X floatatom 137 114 5 0 0 0 - - - 0;
#X obj 43 138 osc~;
#X obj 43 114 + 100;
#X obj 174 132 r time;
#X obj 137 155 line~;
#X obj 44 92 random 300;
#X obj 88 229 outlet~;
#X obj 68 45 t b b f;
#X obj 67 13 inlet;
#X connect 0 0 8 0;
#X connect 1 0 2 0;
#X connect 2 0 6 0;
#X connect 3 0 0 0;
#X connect 4 0 3 0;
#X connect 5 0 6 1;
#X connect 6 0 0 1;
#X connect 7 0 4 0;
#X connect 9 0 7 0;
#X connect 9 1 1 0;
#X connect 9 2 7 1;
#X connect 10 0 9 0;
#X restore 118 435 pd rnd-osc;
#N canvas 883 793 283 258 rnd-osc 0;
#X obj 88 197 *~;
#X obj 137 92 random 2;
#X floatatom 137 114 5 0 0 0 - - - 0;
#X obj 43 138 osc~;
#X obj 43 114 + 100;
#X obj 174 132 r time;
#X obj 137 155 line~;
#X obj 44 92 random 300;
#X obj 88 229 outlet~;
#X obj 68 45 t b b f;
#X obj 67 13 inlet;
#X connect 0 0 8 0;
#X connect 1 0 2 0;
#X connect 2 0 6 0;
#X connect 3 0 0 0;
#X connect 4 0 3 0;
#X connect 5 0 6 1;
#X connect 6 0 0 1;
#X connect 7 0 4 0;
#X connect 9 0 7 0;
#X connect 9 1 1 0;
#X connect 9 2 7 1;
#X connect 10 0 9 0;
#X restore 209 436 pd rnd-osc;
#N canvas 883 793 283 258 rnd-osc 0;
#X obj 88 197 *~;
#X obj 137 92 random 2;
#X floatatom 137 114 5 0 0 0 - - - 0;
#X obj 43 138 osc~;
#X obj 43 114 + 100;
#X obj 174 132 r time;
#X obj 137 155 line~;
#X obj 44 92 random 300;
#X obj 88 229 outlet~;
#X obj 68 45 t b b f;
#X obj 67 13 inlet;
#X connect 0 0 8 0;
#X connect 1 0 2 0;
#X connect 2 0 6 0;
#X connect 3 0 0 0;
#X connect 4 0 3 0;
#X connect 5 0 6 1;
#X connect 6 0 0 1;
#X connect 7 0 4 0;
#X connect 9 0 7 0;
#X connect 9 1 1 0;
#X connect 9 2 7 1;
#X connect 10 0 9 0;
#X restore 297 436 pd rnd-osc;
#X obj 28 498 dac~ 1;
#X text 59 26 Random distribution of sounds in a quadrophonic speaker setup, f 32;
#X text 364 467 for stereo;
#X connect 0 0 1 0;
#X connect 0 0 5 0;
#X connect 1 0 2 0;
#X connect 2 0 8 0;
#X connect 3 0 0 0;
#X connect 3 1 1 0;
#X connect 4 0 3 0;
#X connect 5 0 16 0;
#X connect 5 0 17 0;
#X connect 5 0 18 0;
#X connect 5 0 19 0;
#X connect 6 0 4 0;
#X connect 6 1 2 1;
#X connect 6 2 1 1;
#X connect 7 0 6 0;
#X connect 8 0 0 1;
#X connect 8 0 13 0;
#X connect 15 0 6 0;
#X connect 16 0 20 0;
#X connect 17 0 21 0;
#X connect 18 0 22 0;
#X connect 19 0 23 0;
#X connect 20 0 24 0;
#X connect 21 0 14 0;
#X connect 22 0 12 0;
#X connect 22 0 9 0;
#X connect 23 0 11 0;
#X connect 23 0 10 0;
