#N canvas 125 710 527 330 12;
#X obj 56 22 text;
#X text 101 22 - manage a list of messages;
#X text 53 52 Texts are lists of atoms that can include commas \, semicolons \, and dollar-sign constructs - anything that can go in a message box or a patch (as a saved file). You can use them to store a semicolon-separated list of lists \, or as messages to "execute" as in a sequencer or message box., f 62;
#X text 225 145 define textbuffers \, read and write textfiles from/to the harddrive, f 34;
#N canvas 86 610 346 297 size 0;
#X floatatom 44 216 8 0 0 1 number\ of\ lines\ in\ file - - 12;
#X obj 44 32 bng 19 250 50 0 empty empty empty 0 -10 0 12 #fcfcfc #000000 #000000;
#X msg 76 94 read textfile2.txt;
#X obj 44 66 t b b;
#X obj 75 151 text define -k txtsize;
#A set one two three four \; five six seven \; eight \; nine ten \; eleven zwelve \;;
#X obj 44 189 text size txtsize;
#X msg 93 120 click;
#X text 139 120 click to show;
#X text 213 94 read from hd;
#X connect 1 0 3 0;
#X connect 2 0 4 0;
#X connect 3 0 5 0;
#X connect 3 1 2 0;
#X connect 5 0 0 0;
#X connect 6 0 4 0;
#X restore 54 188 pd size;
#N canvas 356 667 598 375 define 0;
#X obj 54 308 text define -k txtfle;
#A set one two three four \; five six seven \; eight \; nine ten \; eleven zwelve \;;
#X msg 54 61 read -c textfile1.txt;
#X msg 85 121 read textfile2.txt;
#X text 220 55 an optional -c flag allows you to read from a file interpreting carriage returns as separators and convert them to semicolons, f 44;
#X msg 109 179 write textfile3.txt;
#X msg 117 246 write -c textfile4.txt;
#X text 262 171 a textfile is written each line terminated by semicolons \; all carriage returns are deleted., f 40;
#X text 287 240 a textfile is written line by line with carriage returns., f 30;
#X text 218 304 a buffer is defined with the name "txtfile" \; the optional -k flag is to keep the contents;
#X text 231 114 textfiles with semicolons terminating lines \, easier for formatting long argument lists \, open textfile2.txt with a text editor, f 44;
#X connect 1 0 0 0;
#X connect 2 0 0 0;
#X connect 4 0 0 0;
#X connect 5 0 0 0;
#X restore 54 150 pd define - read/write;
#X text 120 190 get the number of lines/messages in a textfile;
#N canvas 85 596 439 562 get 0;
#X floatatom 144 273 8 0 0 1 number\ of\ lines\ in\ file - - 12;
#X msg 176 155 read textfile2.txt;
#X obj 144 127 t b b;
#X msg 193 181 click;
#X text 239 181 click to show;
#X obj 59 516 print;
#X listbox 59 492 25 0 0 0 - - - 0;
#X text 100 329 specify message number (0 for first message);
#X text 135 358 starting element number (-1 \, the default \, gives the whole message), f 36;
#X obj 175 212 text define -k txtget;
#A set zero one two three \; four five six \; seven eight \; nine ten \; eleven zwelve \;;
#X obj 144 246 text size txtget;
#X obj 59 303 f;
#X obj 91 303 + 1;
#X obj 126 303 mod;
#X obj 144 73 loadbang;
#X msg 77 275 0;
#X obj 59 246 bng 19 250 50 0 empty empty empty 0 -10 0 12 #fcfcfc #000000 #000000;
#X floatatom 59 327 5 0 0 0 - - - 0;
#X obj 153 98 bng 19 250 50 0 empty empty empty 0 -10 0 12 #fcfcfc #000000 #000000;
#X obj 59 460 text get txtget;
#X msg 93 360 -1;
#X msg 102 386 0;
#X msg 137 435 2;
#X msg 128 411 1;
#X text 162 411 number of elements;
#X text 172 435 two elements;
#X text 157 303 loop in textfile;
#X text 64 31 Getting information from textfile;
#X connect 0 0 13 1;
#X connect 1 0 9 0;
#X connect 2 0 10 0;
#X connect 2 1 1 0;
#X connect 3 0 9 0;
#X connect 6 0 5 0;
#X connect 10 0 0 0;
#X connect 11 0 12 0;
#X connect 11 0 17 0;
#X connect 12 0 13 0;
#X connect 13 0 11 1;
#X connect 14 0 2 0;
#X connect 15 0 11 1;
#X connect 16 0 11 0;
#X connect 17 0 19 0;
#X connect 18 0 2 0;
#X connect 19 0 6 0;
#X connect 20 0 19 1;
#X connect 21 0 19 1;
#X connect 22 0 19 2;
#X connect 23 0 19 2;
#X restore 51 233 pd get from text;
#X text 48 282 (c) 2024 Achim Bornhoeft;
