#N canvas 376 150 450 416 12;
#X msg 49 70 read some.txt;
#X text 42 37 Define text object and load file;
#X obj 49 102 text define -k test;
#A set 0 56 78 34 \; 1 23 75 90 \; 2 12 45 64 \;;
#X text 45 167 Get contents;
#X obj 55 201 bng 15 250 50 0 empty empty empty 17 7 0 10 #fcfcfc #000000 #000000;
#X obj 55 221 f;
#X obj 85 221 + 1;
#X obj 55 243 text get test;
#X obj 115 221 mod 3;
#X obj 55 353 print;
#X obj 55 265 t b l;
#X obj 55 287 until;
#X obj 55 309 list;
#X obj 55 331 list split 1;
#X text 171 222 Loop through lines;
#X text 171 244 Get line;
#X text 171 266 Simple list-drip mechanism;
#X connect 0 0 2 0;
#X connect 4 0 5 0;
#X connect 5 0 6 0;
#X connect 5 0 7 0;
#X connect 6 0 8 0;
#X connect 7 0 10 0;
#X connect 8 0 5 1;
#X connect 10 0 11 0;
#X connect 10 1 12 1;
#X connect 11 0 12 0;
#X connect 12 0 13 0;
#X connect 13 0 9 0;
#X connect 13 1 12 1;
#X connect 13 2 11 1;
