#N canvas 460 317 569 580 12;
#X obj 124 147 noise~;
#X obj 106 297 *~;
#X obj 186 62 osc~ 0.05;
#X obj 186 91 +~ 1;
#X obj 186 113 /~ 2;
#X obj 233 185 tgl 15 0 empty empty empty 17 7 0 10 #fcfcfc #000000 #000000 0 1;
#X obj 233 205 metro 10;
#X obj 233 227 snapshot~;
#X floatatom 232 250 5 0 0 0 - - - 0;
#X obj 56 102 osc~ 440;
#X obj 186 157 +~ 5;
#X obj 124 231 vcf~ 20;
#X obj 186 135 *~ 5;
#X obj 124 263 *~ 135;
#X obj 84 540 dac~;
#X obj 56 406 *~ 0.3;
#X obj 106 380 *~ 0.3;
#N canvas 527 447 384 323 eq-pwr-mix 0;
#X obj 33 293 *~;
#X obj 89 292 *~;
#X obj 107 209 line~;
#X obj 107 237 cos~;
#X obj 51 207 line~;
#X obj 51 235 cos~;
#X obj 50 181 pack;
#X obj 46 93 t f b;
#X msg 75 153 10;
#X obj 107 182 pack;
#X msg 132 154 10;
#X obj 107 124 - 0.25;
#X obj 107 92 t f b;
#X obj 107 62 / 4;
#X obj 33 261 inlet~;
#X obj 89 262 inlet~;
#X obj 89 337 outlet~;
#X obj 107 34 inlet;
#X obj 49 34 loadbang;
#X obj 33 335 outlet~;
#X connect 0 0 19 0;
#X connect 1 0 16 0;
#X connect 2 0 3 0;
#X connect 3 0 1 1;
#X connect 4 0 5 0;
#X connect 5 0 0 1;
#X connect 6 0 4 0;
#X connect 7 0 6 0;
#X connect 7 1 8 0;
#X connect 8 0 6 1;
#X connect 9 0 2 0;
#X connect 10 0 9 1;
#X connect 11 0 9 0;
#X connect 12 0 11 0;
#X connect 12 1 10 0;
#X connect 13 0 7 0;
#X connect 13 0 12 0;
#X connect 14 0 0 0;
#X connect 15 0 1 0;
#X connect 17 0 13 0;
#X connect 18 0 13 0;
#X restore 56 487 pd eq-pwr-mix;
#X f 15;
#X obj 161 465 hsl 128 15 0 1 0 0 empty empty empty -2 -8 0 10 #fcfcfc #000000 #000000 0 1;
#X obj 158 414 loadbang;
#X msg 158 440 0.5;
#X text 238 116 unipolar conversion between 0 and 1;
#X text 240 137 range from 0 to 5;
#X text 239 159 shift between 5 and 10;
#X text 276 64 osc~ 20 seconds (1 / 0.05);
#X text 32 27 Subtractiv synthesis with moving center frequency;
#X obj 268 312 tgl 15 0 empty empty empty 17 7 0 10 #fcfcfc #000000 #000000 0 1;
#X msg 268 332 \; pd dsp \$1;
#X connect 0 0 11 0;
#X connect 1 0 16 0;
#X connect 2 0 3 0;
#X connect 3 0 4 0;
#X connect 4 0 12 0;
#X connect 5 0 6 0;
#X connect 6 0 7 0;
#X connect 7 0 8 0;
#X connect 9 0 15 0;
#X connect 9 0 1 0;
#X connect 10 0 7 0;
#X connect 10 0 11 1;
#X connect 11 0 13 0;
#X connect 12 0 10 0;
#X connect 13 0 1 1;
#X connect 15 0 17 0;
#X connect 16 0 17 1;
#X connect 17 0 14 0;
#X connect 17 1 14 1;
#X connect 18 0 17 2;
#X connect 19 0 20 0;
#X connect 20 0 18 0;
#X connect 26 0 27 0;
