#N canvas 0 22 519 448 10;
#X text 32 14 cmap;
#X text 32 36 Map a midi control (0..127) into a different range (log
or lin);
#X text 33 76 2011-01-31 Dan Ellis dpwe@ee.columbia.edu;
#X obj 57 97 inlet;
#X text 307 56 \$1: min output;
#X text 306 69 \$2: max output;
#X text 305 83 \$3: 1 for log output (else lin);
#X obj 58 155 / 127;
#X text 39 205 linear;
#X text 150 203 log;
#X obj 55 230 *;
#X obj 279 405 outlet;
#X floatatom 14 147 5 0 0 0 - - -;
#X floatatom 231 395 5 0 0 0 - - -;
#X floatatom 108 248 5 0 0 0 - - -;
#X obj 242 183 f \$1;
#X obj 290 183 f \$2;
#X obj 335 183 f \$3;
#X obj 242 229 log;
#X obj 290 230 log;
#X obj 267 257 -;
#X obj 267 205 -;
#X obj 106 219 f;
#X obj 92 302 exp;
#X obj 256 357 f;
#X obj 291 134 loadbang;
#X obj 291 158 bng 15 250 50 0 empty empty empty 17 7 0 10 -262144
-1 -1;
#X floatatom 205 211 5 0 0 0 - - -;
#X floatatom 302 209 5 0 0 0 - - -;
#X obj 82 127 t f b;
#X obj 290 292 twoway;
#X obj 307 334 twoway;
#X obj 208 287 twoway;
#X obj 56 266 +;
#X connect 3 0 12 0;
#X connect 3 0 29 0;
#X connect 7 0 10 0;
#X connect 10 0 33 0;
#X connect 15 0 18 0;
#X connect 15 0 27 0;
#X connect 15 0 21 1;
#X connect 15 0 32 0;
#X connect 16 0 19 0;
#X connect 16 0 28 0;
#X connect 16 0 21 0;
#X connect 17 0 30 2;
#X connect 17 0 31 2;
#X connect 17 0 32 2;
#X connect 18 0 20 1;
#X connect 18 0 32 1;
#X connect 19 0 20 0;
#X connect 20 0 30 1;
#X connect 21 0 30 0;
#X connect 22 0 10 1;
#X connect 22 0 14 0;
#X connect 23 0 31 1;
#X connect 24 0 11 0;
#X connect 24 0 13 0;
#X connect 25 0 26 0;
#X connect 26 0 15 0;
#X connect 26 0 16 0;
#X connect 26 0 17 0;
#X connect 29 0 7 0;
#X connect 29 1 26 0;
#X connect 30 0 22 0;
#X connect 31 0 24 0;
#X connect 32 0 33 1;
#X connect 33 0 23 0;
#X connect 33 0 31 0;
