#N canvas 0 22 450 300 10;
#X text 40 29 twoway;
#X text 40 52 Select one of two inputs based on a control input;
#X text 48 82 2011-01-31 Dan Ellis dpwe@ee.columbia.edu;
#X obj 89 125 inlet;
#X obj 141 125 inlet;
#X obj 239 124 inlet;
#X obj 90 201 spigot;
#X obj 149 203 spigot;
#X obj 240 151 - 1;
#X obj 113 261 outlet;
#X floatatom 216 204 5 0 0 0 - - -;
#X connect 3 0 6 0;
#X connect 4 0 7 0;
#X connect 5 0 8 0;
#X connect 5 0 7 1;
#X connect 6 0 9 0;
#X connect 6 0 10 0;
#X connect 7 0 9 0;
#X connect 7 0 10 0;
#X connect 8 0 6 1;
#X coords 0 -1 1 1 50 25 1 200 200;
