#N canvas 1098 483 836 489 10;
#X text 54 26 I-CONTROLS PRO (choose LAYER 2 !!!!);
#N canvas 0 22 817 634 sel 0;
#X obj 170 150 cnv 22 100 380 empty empty iCON 20 20 0 16 -228856 -66577
0;
#X obj 183 454 cnv 39 70 70 empty empty empty 20 12 0 14 -233017 -258113
0;
#X obj 74 378 ctlin 118 1;
#X obj 226 347 tgl 20 0 play-ictrlpro-s play-ictrlpro-r Play -1 27
0 10 -262144 -258113 -1 0 127;
#X obj 203 186 bng 15 250 50 0 empty empty empty 17 7 0 10 -258113
-258113 -1;
#X obj 184 186 bng 15 250 50 0 empty empty empty 17 7 0 10 -1 -1 -1
;
#X obj 222 186 bng 15 250 50 0 empty empty empty 17 7 0 10 -1 -1 -1
;
#X obj 241 186 bng 15 250 50 0 empty empty empty 17 7 0 10 -1 -1 -1
;
#X obj 193 209 bng 20 100 50 0 layl-ictrlpro-s layl-rec-ictrlpro-r
<-Layer 1 27 0 10 -262144 -228856 -1;
#X obj 226 209 bng 20 100 50 0 layr-ictrlpro-s layr-rec-ictrlpro-r
-> 11 27 0 10 -262144 -228856 -1;
#X obj 193 244 bng 20 100 50 0 trkl-ictrlpro-s trkl-rec-ictrlpro-r
<-Track 1 27 0 10 -262144 -1 -1;
#X obj 226 244 bng 20 100 50 0 trkr-ictrlpro-s trkr-rec-ictrlpro-r
-> 11 27 0 10 -262144 -1 -1;
#X obj 343 161 f;
#X floatatom 344 185 5 0 0 0 - - -, f 5;
#X obj 343 208 s track;
#X obj 316 45 r trkl-ictrlpro-s;
#X obj 376 161 +;
#X obj 379 75 r trkr-ictrlpro-s;
#X obj 379 99 t b b;
#X obj 315 69 t b b;
#X msg 405 124 1;
#X msg 342 93 -1;
#X obj 7 -14 notein;
#X obj 75 36 + 1;
#X floatatom 40 61 5 0 0 0 - - -, f 5;
#X obj 110 37 mod 2;
#X obj 7 82 spigot;
#X obj 7 9 t f b;
#X obj 193 279 bng 20 100 50 0 bnkl-ictrlpro-s bnkl-rec-ictrlpro-r
<-Bank 3 27 0 10 -262144 -1 -1;
#X obj 226 279 bng 20 100 10 0 bnkr-ictrlpro-s bnkr-rec-ictrlpro-r
-> 9 27 0 10 -262144 -1 -1;
#X obj 543 161 f;
#X floatatom 544 185 5 0 0 0 - - -, f 5;
#X obj 543 208 s track;
#X obj 576 161 +;
#X obj 579 99 t b b;
#X obj 515 69 t b b;
#X msg 605 124 1;
#X msg 542 93 -1;
#X obj 516 45 r bnkl-ictrlpro-s;
#X obj 579 75 r bnkr-ictrlpro-s;
#X obj 40 35 f 1;
#X obj 192 313 bng 20 100 50 0 ffl-ictrlpro-s ffl-rec-ictrlpro-r <<
3 27 0 10 -262144 -1 -1;
#X obj 225 313 bng 20 100 10 0 ffr-ictrlpro-s ffr-rec-ictrlpro-r >>
6 27 0 10 -262144 -1 -1;
#X obj 362 355 f;
#X floatatom 363 379 5 0 0 0 - - -, f 5;
#X obj 362 402 s track;
#X obj 395 355 +;
#X obj 398 293 t b b;
#X obj 334 263 t b b;
#X msg 424 318 1;
#X msg 361 287 -1;
#X obj 336 240 r ffl-ictrlpro-s;
#X obj 398 269 r ffr-ictrlpro-s;
#X obj 193 347 bng 20 100 50 0 stop-rec-ictrlpro-s stop-rec-ictrlpro-r
Stop -1 27 0 10 -262144 -1 -1;
#X obj 226 383 tgl 20 0 rec-ictrlpro-s rec-ictrlpro-r Rec 3 27 0 10
-262144 -258113 -1 0 127;
#X obj 192 383 bng 20 100 50 0 ret-ictrlpro-s ret-ictrlpro-r Return
-7 27 0 10 -262144 -1 -1;
#X obj 193 418 bng 20 100 50 0 zml-ictrlpro-s zml-rec-ictrlpro-r <-Zoom
1 27 0 10 -262144 -1 -1;
#X obj 226 418 bng 20 100 50 0 zmr-ictrlpro-s zmr-rec-ictrlpro-r ->
7 27 0 10 -262144 -1 -1;
#X obj 7 109 sel 22 23 21 24 20 25 19 26 18 27 17 28;
#X obj 564 360 f;
#X floatatom 565 384 5 0 0 0 - - -, f 5;
#X obj 564 407 s track;
#X obj 597 360 +;
#X obj 600 298 t b b;
#X obj 536 268 t b b;
#X msg 626 323 1;
#X msg 563 292 -1;
#X obj 537 244 r zml-ictrlpro-s;
#X obj 600 274 r zmr-ictrlpro-s;
#X text 8 228 Layer have no function.;
#X obj 189 463 hsl 60 50 0 127 0 0 jog-ictrlpro-s jog-ictrlpro-r empty
-2 -8 0 10 -262144 -1 -1 0 1;
#X connect 2 0 70 0;
#X connect 12 0 13 0;
#X connect 12 0 16 0;
#X connect 13 0 14 0;
#X connect 15 0 19 0;
#X connect 16 0 12 1;
#X connect 17 0 18 0;
#X connect 18 0 12 0;
#X connect 18 1 20 0;
#X connect 19 0 12 0;
#X connect 19 1 21 0;
#X connect 20 0 16 1;
#X connect 21 0 16 1;
#X connect 22 0 27 0;
#X connect 23 0 25 0;
#X connect 24 0 26 1;
#X connect 25 0 40 1;
#X connect 26 0 58 0;
#X connect 27 0 26 0;
#X connect 27 1 40 0;
#X connect 30 0 31 0;
#X connect 30 0 33 0;
#X connect 31 0 32 0;
#X connect 33 0 30 1;
#X connect 34 0 30 0;
#X connect 34 1 36 0;
#X connect 35 0 30 0;
#X connect 35 1 37 0;
#X connect 36 0 33 1;
#X connect 37 0 33 1;
#X connect 38 0 35 0;
#X connect 39 0 34 0;
#X connect 40 0 23 0;
#X connect 40 0 24 0;
#X connect 43 0 44 0;
#X connect 43 0 46 0;
#X connect 44 0 45 0;
#X connect 46 0 43 1;
#X connect 47 0 43 0;
#X connect 47 1 49 0;
#X connect 48 0 43 0;
#X connect 48 1 50 0;
#X connect 49 0 46 1;
#X connect 50 0 46 1;
#X connect 51 0 48 0;
#X connect 52 0 47 0;
#X connect 58 0 10 0;
#X connect 58 1 11 0;
#X connect 58 2 28 0;
#X connect 58 3 29 0;
#X connect 58 4 41 0;
#X connect 58 5 42 0;
#X connect 58 6 53 0;
#X connect 58 7 3 0;
#X connect 58 8 55 0;
#X connect 58 9 54 0;
#X connect 58 10 56 0;
#X connect 58 11 57 0;
#X connect 59 0 60 0;
#X connect 59 0 62 0;
#X connect 60 0 61 0;
#X connect 62 0 59 1;
#X connect 63 0 59 0;
#X connect 63 1 65 0;
#X connect 64 0 59 0;
#X connect 64 1 66 0;
#X connect 65 0 62 1;
#X connect 66 0 62 1;
#X connect 67 0 64 0;
#X connect 68 0 63 0;
#X coords 0 -1 1 1 100 380 2 170 150;
#X restore 46 68 pd sel;
#N canvas 485 182 395 628 master 0;
#X obj 170 150 cnv 22 70 380 empty empty M 50 365 0 12 -191407 -66577
0;
#X obj 209 238 vsl 22 256 0 127 0 0 m-slider-ictrlpro-s m-slider-ictrlpro-r
empty 0 -9 0 10 -262144 -1 -1 0 1;
#X obj 90 206 + 1;
#X floatatom 55 231 5 0 0 0 - - -, f 5;
#X obj 128 207 mod 2;
#X obj 103 69 tgl 15 0 empty empty empty 17 7 0 10 -262144 -1 -1 0
1;
#X obj 71 154 spigot;
#X obj 103 23 loadbang;
#X obj 103 45 f \$2;
#X obj 22 154 spigot;
#X obj 103 96 sel 1 0;
#X msg 103 128 0;
#X msg 137 127 1;
#X obj 22 252 spigot;
#X obj 22 179 t f b;
#X obj 180 362 tgl 20 0 m-sel-ictrlpro-s m-sel-ictrlpro-r Sel 3 27
0 10 -262144 -258113 -1 0 127;
#X obj 180 396 tgl 20 0 \$1-mute-ictrlpro-s \$1-mute-ictrlpro-r Mute
0 27 0 10 -262144 -258113 -1 0 127;
#X obj 189 119 ctlin 123 \$1;
#X obj 269 163 ctlin 119 \$1;
#X obj 20 25 notein 2;
#X obj 71 281 sel 29 30;
#X obj 55 205 f 1;
#X obj 185 172 hsl 40 30 0 127 0 0 m-knob-ictrlpro-s m-knob-ictrlpro-r
empty -2 -8 0 10 -262144 -1 -1 0 1;
#X floatatom 210 560 5 0 0 0 - - -, f 5;
#X obj 210 587 s main-slider;
#N canvas 349 327 282 406 range 0;
#X obj 63 32 inlet;
#X obj 159 183 -;
#X obj 63 286 *;
#X obj 154 247 /;
#X obj 104 182 -;
#X obj 63 358 outlet;
#X obj 157 216 t b f;
#X obj 103 149 unpack 0 0 0 0;
#N canvas 0 22 450 300 once 0;
#X obj 99 172 spigot;
#X obj 44 69 inlet;
#X obj 99 121 t a b;
#X obj 136 150 f 1;
#X obj 99 204 t a b;
#X obj 129 226 f 0;
#X obj 99 257 outlet;
#X obj 217 66 inlet;
#X obj 217 89 bang;
#X obj 217 112 f 1;
#X text 18 16 once;
#X text 74 17 only the first message passes through;
#X text 39 47 message in;
#X text 39 299 message out (only once);
#X text 213 46 anything to init once;
#X obj 44 90 route bang;
#X obj 44 120 t b b;
#X obj 44 172 spigot;
#X obj 44 204 t b b;
#X text 246 242 IEM KUG;
#X text 230 230 musil;
#X text 260 230 @;
#X text 266 230 iem.at;
#X text 181 219 (c) Thomas Musil 2000 - 2005;
#X text 229 252 Graz \, Austria;
#X text 252 203 @;
#X text 258 203 iem.at;
#X text 180 203 (c) zmoelnig;
#X connect 0 0 4 0;
#X connect 1 0 15 0;
#X connect 2 0 0 0;
#X connect 2 1 3 0;
#X connect 3 0 0 1;
#X connect 3 0 17 1;
#X connect 4 0 6 0;
#X connect 4 1 5 0;
#X connect 5 0 3 1;
#X connect 7 0 8 0;
#X connect 8 0 9 0;
#X connect 9 0 3 1;
#X connect 15 0 16 0;
#X connect 15 1 2 0;
#X connect 16 0 17 0;
#X connect 16 1 3 0;
#X connect 17 0 18 0;
#X connect 18 0 6 0;
#X connect 18 1 5 0;
#X restore 103 92 pd once;
#X obj 64 52 t f b;
#X obj 63 309 + 0;
#X obj 63 333 clip 0 2;
#X obj 103 121 list 2 0 126 1;
#X obj 63 118 - 1;
#X connect 0 0 9 0;
#X connect 1 0 6 0;
#X connect 2 0 10 0;
#X connect 3 0 2 1;
#X connect 4 0 3 0;
#X connect 6 0 3 0;
#X connect 6 1 3 1;
#X connect 7 0 4 0;
#X connect 7 1 4 1;
#X connect 7 2 1 0;
#X connect 7 3 1 1;
#X connect 8 0 12 0;
#X connect 9 0 13 0;
#X connect 9 1 8 0;
#X connect 10 0 11 0;
#X connect 11 0 5 0;
#X connect 12 0 7 0;
#X connect 13 0 2 0;
#X restore 210 535 pd range;
#X connect 1 0 25 0;
#X connect 2 0 4 0;
#X connect 3 0 13 1;
#X connect 4 0 21 1;
#X connect 5 0 9 1;
#X connect 5 0 10 0;
#X connect 6 0 20 0;
#X connect 7 0 8 0;
#X connect 8 0 5 0;
#X connect 9 0 14 0;
#X connect 10 0 11 0;
#X connect 10 1 12 0;
#X connect 11 0 6 1;
#X connect 12 0 6 1;
#X connect 13 0 20 0;
#X connect 14 0 13 0;
#X connect 14 1 21 0;
#X connect 17 0 22 0;
#X connect 18 0 1 0;
#X connect 19 0 9 0;
#X connect 19 0 6 0;
#X connect 20 0 15 0;
#X connect 20 1 16 0;
#X connect 21 0 2 0;
#X connect 21 0 3 0;
#X connect 23 0 24 0;
#X connect 25 0 23 0;
#X coords 0 -1 1 1 70 380 2 170 150;
#X restore 724 68 pd master;
#X obj 436 68 iControls_pro-ch 5 1;
#X obj 148 68 iControls_pro-ch 1 1;
#X obj 220 68 iControls_pro-ch 2 1;
#X obj 292 68 iControls_pro-ch 3 1;
#X obj 364 68 iControls_pro-ch 4 1;
#X obj 508 68 iControls_pro-ch 6 1;
#X obj 580 68 iControls_pro-ch 7 1;
#X obj 652 68 iControls_pro-ch 8 1;
