#N canvas 703 314 430 645 10;
#X obj 170 150 cnv 22 70 380 empty empty \$1 50 365 0 12 -233017 -66577
0;
#X obj 209 238 vsl 22 256 0 127 0 0 \$1-slider-ictrlpro-s \$1-slider-ictrlpro-r
empty 0 -9 0 10 -262144 -1 -1 0 1;
#X obj 65 293 sel 35 36 37 38;
#X obj 84 218 + 1;
#X floatatom 49 243 5 0 0 0 - - -, f 5;
#X obj 122 219 mod 2;
#X obj 14 37 notein \$1;
#X obj 189 119 ctlin 28 \$1;
#X obj 269 163 ctlin 31 \$1;
#X obj 97 81 tgl 15 0 empty empty empty 17 7 0 10 -262144 -1 -1 1 1
;
#X obj 65 166 spigot;
#X obj 97 35 loadbang;
#X obj 97 57 f \$2;
#X obj 16 166 spigot;
#X obj 97 108 sel 1 0;
#X msg 97 140 0;
#X msg 131 139 1;
#X obj 16 264 spigot;
#X obj 16 191 t f b;
#X floatatom 269 469 5 0 0 0 - - -, f 5;
#X obj 180 362 tgl 20 0 \$1-sel-ictrlpro-s \$1-sel-ictrlpro-r Sel 3
27 0 10 -262144 -258113 -1 0 127;
#X obj 180 396 tgl 20 0 \$1-mute-ictrlpro-s \$1-mute-ictrlpro-r Mute
0 27 0 10 -262144 -258113 -1 0 127;
#X obj 180 430 tgl 20 0 \$1-solo-ictrlpro-s \$1-solo-ictrlpro-r Solo
0 27 0 10 -262144 -258113 -1 0 127;
#X obj 180 465 tgl 20 0 \$1-rec-ictrlpro-s \$1-rec-ictrlpro-s Rec 3
27 0 10 -262144 -258113 -1 0 127;
#X obj 49 217 f 1;
#X floatatom 268 236 5 0 0 0 - - -, f 5;
#X obj 268 262 s \$1-knob;
#X obj 185 172 hsl 40 30 0 127 0 0 \$1-knob-ictrlpro-s \$1-knob-ictrlpro-r
empty -2 -8 0 10 -262144 -1 -1 0 1;
#X obj 269 496 s \$1-slider;
#X text 15 544 Toggle funktionieren nicht !;
#N canvas 349 327 282 406 range 0;
#X obj 63 32 inlet;
#X obj 159 183 -;
#X obj 63 286 *;
#X obj 154 247 /;
#X obj 104 182 -;
#X obj 63 358 outlet;
#X obj 157 216 t b f;
#X obj 103 149 unpack 0 0 0 0;
#N canvas 0 22 450 300 once 0;
#X obj 99 172 spigot;
#X obj 44 69 inlet;
#X obj 99 121 t a b;
#X obj 136 150 f 1;
#X obj 99 204 t a b;
#X obj 129 226 f 0;
#X obj 99 257 outlet;
#X obj 217 66 inlet;
#X obj 217 89 bang;
#X obj 217 112 f 1;
#X text 18 16 once;
#X text 74 17 only the first message passes through;
#X text 39 47 message in;
#X text 39 299 message out (only once);
#X text 213 46 anything to init once;
#X obj 44 90 route bang;
#X obj 44 120 t b b;
#X obj 44 172 spigot;
#X obj 44 204 t b b;
#X text 246 242 IEM KUG;
#X text 230 230 musil;
#X text 260 230 @;
#X text 266 230 iem.at;
#X text 181 219 (c) Thomas Musil 2000 - 2005;
#X text 229 252 Graz \, Austria;
#X text 252 203 @;
#X text 258 203 iem.at;
#X text 180 203 (c) zmoelnig;
#X connect 0 0 4 0;
#X connect 1 0 15 0;
#X connect 2 0 0 0;
#X connect 2 1 3 0;
#X connect 3 0 0 1;
#X connect 3 0 17 1;
#X connect 4 0 6 0;
#X connect 4 1 5 0;
#X connect 5 0 3 1;
#X connect 7 0 8 0;
#X connect 8 0 9 0;
#X connect 9 0 3 1;
#X connect 15 0 16 0;
#X connect 15 1 2 0;
#X connect 16 0 17 0;
#X connect 16 1 3 0;
#X connect 17 0 18 0;
#X connect 18 0 6 0;
#X connect 18 1 5 0;
#X restore 103 92 pd once;
#X obj 64 52 t f b;
#X obj 63 309 + 0;
#X obj 63 333 clip 0 2;
#X obj 103 121 list 2 0 126 1;
#X obj 63 118 - 1;
#X connect 0 0 9 0;
#X connect 1 0 6 0;
#X connect 2 0 10 0;
#X connect 3 0 2 1;
#X connect 4 0 3 0;
#X connect 6 0 3 0;
#X connect 6 1 3 1;
#X connect 7 0 4 0;
#X connect 7 1 4 1;
#X connect 7 2 1 0;
#X connect 7 3 1 1;
#X connect 8 0 12 0;
#X connect 9 0 13 0;
#X connect 9 1 8 0;
#X connect 10 0 11 0;
#X connect 11 0 5 0;
#X connect 12 0 7 0;
#X connect 13 0 2 0;
#X restore 268 212 pd range;
#N canvas 349 327 282 406 range 0;
#X obj 63 32 inlet;
#X obj 159 183 -;
#X obj 63 286 *;
#X obj 154 247 /;
#X obj 104 182 -;
#X obj 63 358 outlet;
#X obj 157 216 t b f;
#X obj 103 149 unpack 0 0 0 0;
#N canvas 0 22 450 300 once 0;
#X obj 99 172 spigot;
#X obj 44 69 inlet;
#X obj 99 121 t a b;
#X obj 136 150 f 1;
#X obj 99 204 t a b;
#X obj 129 226 f 0;
#X obj 99 257 outlet;
#X obj 217 66 inlet;
#X obj 217 89 bang;
#X obj 217 112 f 1;
#X text 18 16 once;
#X text 74 17 only the first message passes through;
#X text 39 47 message in;
#X text 39 299 message out (only once);
#X text 213 46 anything to init once;
#X obj 44 90 route bang;
#X obj 44 120 t b b;
#X obj 44 172 spigot;
#X obj 44 204 t b b;
#X text 246 242 IEM KUG;
#X text 230 230 musil;
#X text 260 230 @;
#X text 266 230 iem.at;
#X text 181 219 (c) Thomas Musil 2000 - 2005;
#X text 229 252 Graz \, Austria;
#X text 252 203 @;
#X text 258 203 iem.at;
#X text 180 203 (c) zmoelnig;
#X connect 0 0 4 0;
#X connect 1 0 15 0;
#X connect 2 0 0 0;
#X connect 2 1 3 0;
#X connect 3 0 0 1;
#X connect 3 0 17 1;
#X connect 4 0 6 0;
#X connect 4 1 5 0;
#X connect 5 0 3 1;
#X connect 7 0 8 0;
#X connect 8 0 9 0;
#X connect 9 0 3 1;
#X connect 15 0 16 0;
#X connect 15 1 2 0;
#X connect 16 0 17 0;
#X connect 16 1 3 0;
#X connect 17 0 18 0;
#X connect 18 0 6 0;
#X connect 18 1 5 0;
#X restore 103 92 pd once;
#X obj 64 52 t f b;
#X obj 63 309 + 0;
#X obj 63 333 clip 0 2;
#X obj 103 121 list 2 0 126 1;
#X obj 63 118 - 1;
#X connect 0 0 9 0;
#X connect 1 0 6 0;
#X connect 2 0 10 0;
#X connect 3 0 2 1;
#X connect 4 0 3 0;
#X connect 6 0 3 0;
#X connect 6 1 3 1;
#X connect 7 0 4 0;
#X connect 7 1 4 1;
#X connect 7 2 1 0;
#X connect 7 3 1 1;
#X connect 8 0 12 0;
#X connect 9 0 13 0;
#X connect 9 1 8 0;
#X connect 10 0 11 0;
#X connect 11 0 5 0;
#X connect 12 0 7 0;
#X connect 13 0 2 0;
#X restore 269 445 pd range;
#X connect 1 0 31 0;
#X connect 2 0 20 0;
#X connect 2 1 21 0;
#X connect 2 2 22 0;
#X connect 2 3 23 0;
#X connect 3 0 5 0;
#X connect 4 0 17 1;
#X connect 5 0 24 1;
#X connect 6 0 13 0;
#X connect 6 0 10 0;
#X connect 7 0 27 0;
#X connect 8 0 1 0;
#X connect 9 0 13 1;
#X connect 9 0 14 0;
#X connect 10 0 2 0;
#X connect 11 0 12 0;
#X connect 12 0 9 0;
#X connect 13 0 18 0;
#X connect 14 0 15 0;
#X connect 14 1 16 0;
#X connect 15 0 10 1;
#X connect 16 0 10 1;
#X connect 17 0 2 0;
#X connect 18 0 17 0;
#X connect 18 1 24 0;
#X connect 19 0 28 0;
#X connect 24 0 3 0;
#X connect 24 0 4 0;
#X connect 25 0 26 0;
#X connect 27 0 30 0;
#X connect 30 0 25 0;
#X connect 31 0 19 0;
#X coords 0 -1 1 1 70 380 2 170 150;
