#N canvas 469 289 800 380 12;
#X obj 435 173 savestate-ex1;
#A saved 58 734;
#X obj 600 173 savestate-ex1;
#A saved 175 673;
#X obj 435 288 *~;
#X obj 435 337 dac~;
#X obj 456 234 hsl 120 19 0 1 0 0 empty empty empty -2 -10 0 12 #fcfcfc #000000 #000000 0 1;
#X obj 55 32 vsl 19 128 0 127 0 0 \$0-vsl-out \$0-vsl-in empty 0 -9 0 10 #fcfcfc #000000 #000000 0 1;
#X obj 53 216 loadbang;
#X obj 67 241 r \$0-vsl-out;
#X obj 53 340 s \$0-vsl-in;
#X floatatom 297 164 5 0 0 2 number \$0-n-in \$0-n-out 0;
#X obj 296 201 loadbang;
#X obj 311 228 r \$0-n-out;
#X obj 296 334 s \$0-n-in;
#X msg 53 318 80;
#X msg 296 312 130;
#X obj 67 266 list prepend;
#X msg 67 291 set \$1;
#X obj 311 255 list prepend;
#X msg 311 280 set \$1;
#X floatatom 55 174 5 0 0 0 - - - 0;
#X obj 600 290 *~;
#X text 109 29 State saving: save the state of sliders \, number boxes \, etc. to restore its state when reopen the patch again.;
#X text 458 134 with [statesave] in abstractions open abstractions below:, f 33;
#X text 559 36 (c) 2024 AChim Bornhoeft;
#X text 107 91 When the slider is moved \, the message is set to the current value which is restored when the patch is opened again., f 23;
#X connect 0 0 2 0;
#X connect 1 0 20 0;
#X connect 2 0 3 0;
#X connect 4 0 2 1;
#X connect 4 0 20 1;
#X connect 5 0 19 0;
#X connect 6 0 13 0;
#X connect 7 0 15 0;
#X connect 10 0 14 0;
#X connect 11 0 17 0;
#X connect 13 0 8 0;
#X connect 14 0 12 0;
#X connect 15 0 16 0;
#X connect 16 0 13 0;
#X connect 17 0 18 0;
#X connect 18 0 14 0;
#X connect 20 0 3 1;
