#N canvas 725 56 466 616 12;
#X obj 36 375 osc~;
#X floatatom 36 258 7 0 10000 3 frequency - - 0;
#X floatatom 115 259 7 0 10000 3 bandwidth - - 0;
#X obj 124 375 max 1;
#X obj 124 401 t b f;
#X obj 36 476 *~;
#X obj 36 505 expr~ exp(-$v1*$v1);
#X obj 36 339 * 0.5;
#X obj 36 92 f;
#X obj 36 121 pack;
#X obj 36 148 savestate;
#X obj 36 198 unpack;
#X obj 115 439 / 1;
#X text 197 443 This is a waveshaping pulse generator using a Gaussian table lookup \, as described in Theory and Technique of electronic music \, chapter 6 The controls are "F" to set fundamental frequency \, and "BW" to set bandwidth \, both in cycles per second., f 33;
#X obj 127 308 s \$0-bw;
#X obj 71 91 r \$0-bw;
#X text 31 18 This is an abstraction used by the [savestate] help file.;
#X obj 44 311 s \$0-freq;
#X obj 54 65 r \$0-freq;
#X obj 36 534 outlet~;
#X text 141 64 Here we build and send a single list of parameters we want to save., f 37;
#X text 139 115 right outlet gets bang when parent patch is saved. In response we send [savestate] one or more lists that will be stored as part of the parent patch. Left outlet returns the list or lists to the abstraction which can use them to restore its state when it is reloaded., f 41;
#X obj 96 173 bng 19 250 50 0 empty empty empty 0 -10 0 12 #fcfcfc #000000 #000000;
#X text 198 250 These lists are saved as part of the calling patch. If the calling patch is reopened later \, the lists are sent out the left outlet of the [savestate] object. The abstraction can then use them to restore its state., f 33;
#X connect 0 0 5 0;
#X connect 1 0 17 0;
#X connect 1 0 7 0;
#X connect 2 0 12 0;
#X connect 2 0 14 0;
#X connect 3 0 4 0;
#X connect 4 0 12 0;
#X connect 4 1 12 1;
#X connect 5 0 6 0;
#X connect 6 0 19 0;
#X connect 7 0 0 0;
#X connect 7 0 3 0;
#X connect 8 0 9 0;
#X connect 9 0 10 0;
#X connect 10 0 11 0;
#X connect 10 1 22 0;
#X connect 11 0 1 0;
#X connect 11 1 2 0;
#X connect 12 0 5 1;
#X connect 15 0 9 1;
#X connect 18 0 8 1;
#X connect 22 0 8 0;
#X coords 0 -1 1 1 160 50 2 25 250;
