#N canvas 442 146 572 849 12;
#X text 37 15 ramping up and down;
#N canvas 0 22 450 300 (subpatch) 0;
#X array \$0-line1 44100 float 0;
#X coords 0 1 44100 0 200 133 1;
#X restore 331 350 graph;
#X obj 204 312 line~;
#X obj 204 370 *~;
#X obj 225 341 osc~ 250;
#X msg 42 133 1 1000;
#X msg 64 181 0 1000;
#X msg 102 227 0 100;
#X text 117 132 ramp to 1 in 1 second;
#X text 138 181 ramp to 0 in 1 second;
#X text 176 227 ramp to 0 in 100 ms;
#X obj 189 455 dac~;
#X obj 45 253 t b l;
#X msg 83 204 0.5 100;
#X obj 316 352 vsl 15 128 0 1 0 0 empty empty empty 0 -9 0 10 -262144
-1 -1 12700 1;
#N canvas 0 22 450 300 (subpatch) 0;
#X array \$0-line2 88200 float 0;
#X coords 0 440 88199 0 200 133 1;
#X restore 324 690 graph;
#X obj 198 664 line~;
#X obj 197 691 osc~ 250;
#X obj 181 775 dac~;
#X obj 40 595 t b l;
#X obj 309 692 vsl 15 128 0 440 0 0 empty empty empty 0 -9 0 10 -262144
-1 -1 12700 1;
#X obj 39 737 tabwrite~ \$0-line2;
#X obj 45 370 tabwrite~ \$0-line1;
#X msg 42 499 440 2000;
#X msg 59 522 220 1000;
#X msg 78 545 330 100;
#X msg 88 568 0 500;
#X obj 196 738 *~;
#X obj 217 718 tgl 15 0 empty empty empty 17 7 0 10 -262144 -1 -1 0
0.3;
#X obj 204 417 *~;
#X obj 225 396 tgl 15 0 empty empty empty 17 7 0 10 -262144 -1 -1 0.3
0.3;
#X text 355 308 amplitude ramp;
#X text 351 629 frequency ramp;
#X text 137 566 ramp to 0 in 500 ms;
#X text 116 498 ramp to 440 Hz in 2 seconds;
#X text 133 522 ramp to 220 Hz in 1 second;
#X text 145 544 ramp to 330 Hz in 100 ms;
#X obj 316 308 line;
#X obj 309 647 line;
#X text 36 40 The [line] and [line~] objects generate ramps. Ramps
are useful when you want to have a smooth transition from one thing
to another \, for example amplitude or frequency. See the [line[ help
file the details of line.;
#X text 158 203 ramp to 0.5 in 100 ms;
#X msg 56 157 0 \, 1 1000;
#X text 132 157 same with reset to 0 first;
#X obj 396 524 loadbang;
#X msg 396 558 \; pd dsp 1 \;;
#X connect 2 0 3 0;
#X connect 2 0 22 0;
#X connect 3 0 29 0;
#X connect 4 0 3 1;
#X connect 5 0 12 0;
#X connect 6 0 12 0;
#X connect 7 0 12 0;
#X connect 12 0 22 0;
#X connect 12 1 2 0;
#X connect 12 1 37 0;
#X connect 13 0 12 0;
#X connect 16 0 21 0;
#X connect 16 0 17 0;
#X connect 17 0 27 0;
#X connect 19 0 21 0;
#X connect 19 1 16 0;
#X connect 19 1 38 0;
#X connect 23 0 19 0;
#X connect 24 0 19 0;
#X connect 25 0 19 0;
#X connect 26 0 19 0;
#X connect 27 0 18 0;
#X connect 27 0 18 1;
#X connect 28 0 27 1;
#X connect 29 0 11 0;
#X connect 29 0 11 1;
#X connect 30 0 29 1;
#X connect 37 0 14 0;
#X connect 38 0 20 0;
#X connect 41 0 12 0;
#X connect 43 0 44 0;
