#N canvas 778 181 532 573 12;
#X obj 60 288 osc~ 440;
#X obj 86 442 line~;
#X obj 61 472 *~;
#X obj 48 509 dac~;
#X floatatom 60 228 5 0 0 0 - - -, f 5;
#X obj 175 143 vsl 15 128 1 1000 0 0 empty empty attack -10 -8 0 12
-262144 -1 -1 400 1;
#X obj 239 141 vsl 15 128 0 1000 0 0 empty empty sustain -10 -8 0 12
-262144 -1 -1 0 1;
#X obj 302 142 vsl 15 128 1 1000 0 0 empty empty release -10 -8 0 12
-262144 -1 -1 2500 1;
#X obj 219 363 del;
#X obj 86 390 pack 1 f;
#X obj 220 390 pack 0 f;
#X obj 240 311 +;
#X obj 239 282 t b f;
#X obj 60 113 tgl 15 0 empty empty empty 0 -6 0 8 -262144 -1 -1 1 1
;
#X obj 60 169 random 200;
#X obj 60 198 + 100;
#X obj 60 140 metro;
#X obj 60 255 t f b b;
#X text 57 29 Control line envelopes;
#X text 56 59 This examples shows how to create random sines with different
shaped envelopes.;
#X floatatom 147 338 5 0 0 0 - - -, f 5;
#X floatatom 301 338 5 0 0 0 - - -, f 5;
#X floatatom 240 337 5 0 0 0 - - -, f 5;
#X obj 97 113 + 1000;
#X connect 0 0 2 0;
#X connect 1 0 2 1;
#X connect 2 0 3 0;
#X connect 2 0 3 1;
#X connect 4 0 17 0;
#X connect 5 0 11 0;
#X connect 5 0 20 0;
#X connect 6 0 12 0;
#X connect 7 0 21 0;
#X connect 8 0 10 0;
#X connect 9 0 1 0;
#X connect 10 0 1 0;
#X connect 11 0 22 0;
#X connect 12 0 11 0;
#X connect 12 1 11 1;
#X connect 13 0 16 0;
#X connect 14 0 15 0;
#X connect 14 0 23 0;
#X connect 15 0 4 0;
#X connect 16 0 14 0;
#X connect 17 0 0 0;
#X connect 17 1 9 0;
#X connect 17 2 8 0;
#X connect 20 0 9 1;
#X connect 21 0 10 1;
#X connect 22 0 8 1;
#X connect 23 0 16 1;
