#N canvas 390 270 553 467 10;
#X obj 95 39 inlet;
#X obj 95 253 list-map;
#X obj 95 369 outlet;
#X obj 204 235 t b a a;
#X obj 230 269 -;
#X obj 204 296 -;
#X obj 204 269 f;
#X obj 95 161 list split 1;
#X obj 95 229 list;
#X obj 95 338 list prepend;
#X obj 95 194 trigger bang anything anything anything;
#X connect 0 0 7 0;
#X connect 1 0 9 0;
#X connect 1 1 3 0;
#X connect 3 0 6 0;
#X connect 3 1 4 1;
#X connect 3 2 4 0;
#X connect 4 0 5 1;
#X connect 5 0 6 1;
#X connect 5 0 1 1;
#X connect 6 0 5 0;
#X connect 7 0 10 0;
#X connect 7 1 8 1;
#X connect 8 0 1 0;
#X connect 9 0 2 0;
#X connect 10 0 8 0;
#X connect 10 1 9 1;
#X connect 10 2 6 1;
#X connect 10 3 4 1;
