#N canvas 676 181 630 518 10;
#X obj 364 214 hradio 15 1 0 16 empty empty 1_bis_max_16_ctl-pts 0
-6 0 8 -262144 -1 -1 0;
#X obj 362 234 + 1;
#X obj 361 260 tgl 15 0 empty empty write_enable_(0=block/1=unblock)
17 7 0 10 -262144 -1 -1 0 1;
#X obj 360 308 bng 15 250 50 0 empty empty write_txt 17 7 0 10 -262144
-1 -1;
#X msg 248 120 clear;
#X obj 360 283 s write-enable;
#X obj 355 394 t b b;
#X text 251 81 ctl-points (clear/init);
#X symbolatom 362 167 10 0 0 0 - - -, f 10;
#X obj 311 393 t a b;
#X obj 35 155 control_grid;
#X obj 355 418 s write;
#N canvas 18 22 309 242 save 0;
#X obj 71 83 tgl 15 0 empty empty empty 17 7 0 10 -262144 -1 -1 0 1
;
#X obj 23 20 inlet;
#X obj 69 60 r write-enable;
#X obj 23 100 spigot 0;
#X obj 171 20 inlet;
#X text 60 22 data(ind x/y)in;
#X obj 47 172 bng 15 250 50 0 empty empty empty 17 7 0 10 -262144 -1
-1;
#X text 209 22 filename;
#X msg 134 170 symbol \$1;
#X obj 22 197 txt-write;
#X text 89 85 blocks writing while reading;
#X obj 49 149 r write;
#X connect 0 0 3 1;
#X connect 1 0 3 0;
#X connect 2 0 0 0;
#X connect 3 0 9 0;
#X connect 4 0 8 0;
#X connect 6 0 9 1;
#X connect 8 0 9 2;
#X connect 11 0 6 0;
#X restore 232 419 pd save as txt;
#N canvas 580 118 454 457 kreise 0;
#X floatatom 112 144 5 0 0 0 - radius -, f 5;
#X floatatom 231 156 5 0 0 0 - time -, f 5;
#X obj 264 178 tgl 15 0 empty loop empty 0 -6 0 8 -262144 -1 -1 0 1
;
#X text 109 125 radius;
#X text 283 175 loop 0n/off;
#X obj 200 141 tgl 15 0 empty dir empty 0 -6 0 8 -262144 -1 -1 1 1
;
#X text 199 121 direction 1=clockwise;
#X text 222 132 0=counterclockwise;
#X obj 114 243 t b f;
#X floatatom 279 200 5 0 0 0 - start -, f 5;
#N canvas 930 209 375 510 kreis 0;
#X msg 186 175 set \$1;
#X msg 137 273 4000;
#X obj 97 129 * 2;
#X obj 97 170 * 3.14159;
#X obj 86 388 t b f;
#X obj 86 303 line 0 10;
#X floatatom 40 353 0 0 0 0 - - -;
#X obj 36 413 poltocar;
#X obj 186 152 inlet;
#X obj 254 16 inlet;
#X obj 150 84 inlet;
#X obj 74 33 inlet;
#X obj 36 33 inlet;
#X obj 114 61 delay 10;
#X obj 97 191 t f f b;
#X obj 96 149 *;
#X floatatom 86 326 5 0 0 0 - - -, f 5;
#X obj 155 323 select 100;
#X obj 35 467 outlet;
#X obj 150 105 * 2;
#X obj 150 125 - 1;
#X msg 137 240 bang;
#X obj 86 467 outlet;
#X msg 95 107 1;
#X obj 293 35 inlet;
#X msg 155 345 0;
#X obj 87 362 + 1;
#X obj 284 372 deg2rad;
#X obj 36 440 + 100;
#X obj 87 440 + 100;
#X obj 64 60 sel 0 1;
#X msg 67 260 stop;
#X obj 33 387 f 90;
#X msg 114 86 bang;
#X floatatom 321 137 5 0 0 0 - - -, f 5;
#X obj 221 40 spigot;
#X connect 0 0 1 0;
#X connect 1 0 5 1;
#X connect 2 0 15 0;
#X connect 3 0 14 0;
#X connect 4 0 32 0;
#X connect 4 1 7 1;
#X connect 5 0 16 0;
#X connect 6 0 32 1;
#X connect 7 0 28 0;
#X connect 7 1 29 0;
#X connect 8 0 0 0;
#X connect 9 0 35 1;
#X connect 10 0 19 0;
#X connect 11 0 30 0;
#X connect 12 0 6 0;
#X connect 13 0 33 0;
#X connect 14 0 17 1;
#X connect 14 1 5 0;
#X connect 14 2 21 0;
#X connect 15 0 3 0;
#X connect 16 0 17 0;
#X connect 16 0 26 0;
#X connect 17 0 25 0;
#X connect 17 0 35 0;
#X connect 19 0 20 0;
#X connect 20 0 15 1;
#X connect 21 0 1 0;
#X connect 23 0 2 0;
#X connect 24 0 27 0;
#X connect 24 0 34 0;
#X connect 25 0 5 0;
#X connect 26 0 4 0;
#X connect 27 0 26 1;
#X connect 28 0 18 0;
#X connect 29 0 22 0;
#X connect 30 0 31 0;
#X connect 30 1 23 0;
#X connect 31 0 5 0;
#X connect 32 0 7 0;
#X connect 33 0 23 0;
#X connect 35 0 13 0;
#X restore 114 220 pd kreis ___________________;
#X obj 155 142 tgl 15 0 empty empty empty 17 7 0 10 -262144 -1 -1 0
1;
#X text 265 154 time (msec.);
#X obj 113 317 pack f f f;
#N canvas 0 22 149 156 init 0;
#X obj 21 12 loadbang;
#X msg 21 37 \; radius 90 \; dir 1 \; time 4000 \; loop 0 \; start
90 \; ctl-point 2 \;;
#X connect 0 0 1 0;
#X restore 25 108 pd init;
#X text 154 126 GO;
#X text 314 202 startpos (in deg);
#X obj 112 341 outlet;
#X obj 25 65 bng 15 250 50 0 empty empty empty 17 7 0 10 -262144 -1
-1;
#X text 44 64 clear controller;
#X text 19 268 set ctl.point-nr.;
#X obj 114 292 f;
#X floatatom 129 270 3 0 0 0 - ctl-point -, f 3;
#X text 165 85 bevor was automatisch bewegt wird --> clear !;
#X text 24 19 KREIS-BEWEGUNGEN;
#X text 28 381 if radius >= 145 -> kreisbewegung nur zwischen den jew.
benachbarten ecken;
#X obj 24 86 s clear-grid;
#X connect 0 0 10 0;
#X connect 1 0 10 3;
#X connect 2 0 10 4;
#X connect 5 0 10 2;
#X connect 8 0 21 0;
#X connect 8 1 13 1;
#X connect 9 0 10 5;
#X connect 10 0 8 0;
#X connect 10 1 13 2;
#X connect 11 0 10 1;
#X connect 13 0 17 0;
#X connect 18 0 26 0;
#X connect 21 0 13 0;
#X connect 22 0 21 1;
#X restore 41 86 pd kreise;
#N canvas 505 22 750 664 simple 0;
#X obj 42 493 t b f;
#X obj 41 594 pack f f f;
#X obj 40 618 outlet;
#X text 80 519 set ctl.point-nr.;
#X obj 42 569 f;
#X floatatom 57 520 3 0 0 0 - - -, f 3;
#X obj 103 491 init 1;
#X floatatom 638 284 5 0 0 0 - - -, f 5;
#X text 677 286 dur;
#X obj 636 259 init 2000;
#X obj 29 76 bng 15 250 50 0 empty empty empty 17 7 0 10 -262144 -1
-1;
#X text 48 75 clear controller;
#N canvas 430 459 252 256 lines 0;
#X obj 17 35 inlet;
#X obj 18 65 unpack f f f f;
#X obj 14 188 line;
#X obj 65 186 line;
#X obj 13 210 outlet;
#X obj 67 209 outlet;
#X obj 100 134 f;
#X obj 69 133 f;
#X obj 55 93 t b f;
#X obj 17 93 t b f;
#X obj 161 36 inlet;
#X obj 163 58 t f f;
#X obj 43 162 pack 0 0;
#X obj 123 163 pack 0 0;
#X connect 0 0 1 0;
#X connect 1 0 9 0;
#X connect 1 1 8 0;
#X connect 1 2 7 1;
#X connect 1 3 6 1;
#X connect 2 0 4 0;
#X connect 3 0 5 0;
#X connect 6 0 13 0;
#X connect 7 0 12 0;
#X connect 8 0 6 0;
#X connect 8 1 3 0;
#X connect 9 0 7 0;
#X connect 9 1 2 0;
#X connect 10 0 11 0;
#X connect 11 0 12 1;
#X connect 11 1 13 1;
#X connect 12 0 2 0;
#X connect 13 0 3 0;
#X restore 45 467 pd lines;
#X msg 27 162 0 200 200 200;
#X msg 37 183 200 200 200 0;
#X msg 52 203 200 0 0 0;
#X msg 62 224 0 0 0 200;
#X text 30 137 seitenbewegungen;
#X text 154 137 diagonal;
#X msg 148 162 0 200 200 0;
#X msg 158 183 200 0 0 200;
#X msg 173 203 200 200 0 0;
#X msg 183 224 0 0 200 200;
#X text 510 535 x/y: \; [1] 0 200 \; [2] 200 200 \; [3] 0 0 \; [4]
200 0 \;;
#X obj 483 126 random 200;
#X obj 486 104 until;
#X msg 498 79 4;
#X obj 418 174 list append;
#X obj 548 172 t l;
#X obj 482 149 list prepend;
#X obj 480 53 t b b b;
#X msg 415 241 39 74 74 12;
#X msg 417 198 set \$1 \$2 \$3 \$4;
#X obj 418 218 t b a;
#X msg 479 31 random movement;
#X msg 261 162 100 200 100 0;
#X msg 271 183 100 0 100 200;
#X msg 286 203 0 100 200 100;
#X text 264 137 front/rear|left/right;
#X msg 296 224 200 100 0 100;
#X text 380 547 [1]________[2] \; ______________ \; ______________
\; [3]________[4] \;;
#N canvas 0 22 201 270 simple 0;
#X obj 49 50 delay 2000;
#X obj 39 31 bng 15 250 50 0 empty empty empty 17 7 0 10 -262144 -1
-1;
#X obj 63 71 delay 2000;
#X obj 69 95 delay 2000;
#X obj 51 236 outlet;
#X obj 128 20 inlet;
#X obj 39 10 inlet;
#X msg 66 162 200 0 0 200;
#X msg 76 183 0 200 200 200;
#X msg 41 121 0 200 200 200;
#X msg 51 142 200 200 200 0;
#X connect 0 0 10 0;
#X connect 0 0 2 0;
#X connect 1 0 9 0;
#X connect 1 0 0 0;
#X connect 2 0 7 0;
#X connect 2 0 3 0;
#X connect 3 0 8 0;
#X connect 5 0 0 1;
#X connect 5 0 2 1;
#X connect 5 0 3 1;
#X connect 6 0 1 0;
#X connect 7 0 4 0;
#X connect 8 0 4 0;
#X connect 9 0 4 0;
#X connect 10 0 4 0;
#X restore 564 367 pd simple seq;
#X obj 28 97 s clear-grid;
#X obj 564 347 bng 15 250 50 0 empty empty empty 17 7 0 10 -262144
-1 -1;
#X text 587 347 play;
#X text 142 97 bevor was bewegt wird --> clear !;
#X text 607 283 -->;
#X text 31 29 EINFACHE BEWEGUNGEN (Geraden&Diagonalen \, Punkte);
#X text 481 11 misc;
#X obj 565 422 tgl 15 0 empty empty empty 17 7 0 10 -262144 -1 -1 0
1;
#N canvas 24 22 992 556 random 0;
#X obj 126 177 random 200;
#X obj 129 155 until;
#X obj 61 225 list append;
#X obj 191 223 t l;
#X obj 125 200 list prepend;
#X obj 123 104 t b b b;
#X msg 58 292 82 82 188 90 137 78 148 117 43 148;
#X obj 61 269 t b a;
#X obj 123 64 tgl 15 0 empty empty empty 17 7 0 10 -262144 -1 -1 0
1;
#X text 291 61 random points;
#X obj 123 82 metro 200;
#X obj 120 38 inlet;
#X msg 141 130 10;
#X obj 57 315 unpack f f f f f f f f f f;
#X obj 43 394 t b f;
#X obj 46 444 pack f f f;
#X text 370 416 ctl.point-nr.;
#X obj 118 393 t b f;
#X obj 121 443 pack f f f;
#X obj 192 392 t b f;
#X obj 195 442 pack f f f;
#X obj 264 395 t b f;
#X obj 267 445 pack f f f;
#X obj 334 394 t b f;
#X obj 337 444 pack f f f;
#X obj 338 419 f 9;
#X obj 268 420 f 7;
#X obj 196 417 f 5;
#X obj 122 418 f 3;
#X obj 47 419 f 2;
#X msg 60 249 set \$1 \$2 \$3 \$4 \$5 \$6 \$7 \$8 \$9 \$10;
#X obj 329 166 bng 15 250 50 0 empty empty empty 17 7 0 10 -262144
-1 -1;
#X text 348 165 clear controller;
#X obj 328 187 s clear-grid;
#X obj 600 173 random 200;
#X obj 603 151 until;
#X obj 535 221 list append;
#X obj 665 219 t l;
#X obj 599 196 list prepend;
#X obj 597 100 t b b b;
#X msg 532 288 183 14 104 98 76 3 7 125 97 86;
#X obj 535 265 t b a;
#X obj 597 60 tgl 15 0 empty empty empty 17 7 0 10 -262144 -1 -1 0
1;
#X msg 615 126 10;
#X obj 531 311 unpack f f f f f f f f f f;
#X obj 517 390 t b f;
#X obj 520 440 pack f f f;
#X text 844 412 ctl.point-nr.;
#X obj 592 389 t b f;
#X obj 595 439 pack f f f;
#X obj 666 388 t b f;
#X obj 669 438 pack f f f;
#X obj 738 391 t b f;
#X obj 741 441 pack f f f;
#X obj 808 390 t b f;
#X obj 811 440 pack f f f;
#X msg 534 245 set \$1 \$2 \$3 \$4 \$5 \$6 \$7 \$8 \$9 \$10;
#X obj 597 78 metro 333;
#X obj 523 475 t a;
#X obj 51 514 outlet;
#X obj 49 479 t a;
#X obj 521 415 f 1;
#X obj 596 414 f 4;
#X obj 670 413 f 6;
#X obj 742 416 f 8;
#X obj 812 415 f 10;
#X obj 329 122 sel 0;
#X text 292 75 2 schichten 5:3 (cgl. metros) zu je 5 ctl-pts;
#X connect 0 0 4 0;
#X connect 1 0 0 0;
#X connect 2 0 30 0;
#X connect 3 0 4 1;
#X connect 4 0 3 0;
#X connect 4 0 2 1;
#X connect 5 0 2 0;
#X connect 5 1 12 0;
#X connect 5 2 4 1;
#X connect 6 0 13 0;
#X connect 7 0 6 0;
#X connect 7 1 6 0;
#X connect 8 0 10 0;
#X connect 8 0 66 0;
#X connect 10 0 5 0;
#X connect 11 0 8 0;
#X connect 11 0 42 0;
#X connect 12 0 1 0;
#X connect 13 0 14 0;
#X connect 13 1 15 2;
#X connect 13 2 17 0;
#X connect 13 3 18 2;
#X connect 13 4 19 0;
#X connect 13 5 20 2;
#X connect 13 6 21 0;
#X connect 13 7 22 2;
#X connect 13 8 23 0;
#X connect 13 9 24 2;
#X connect 14 0 29 0;
#X connect 14 1 15 1;
#X connect 15 0 60 0;
#X connect 17 0 28 0;
#X connect 17 1 18 1;
#X connect 18 0 60 0;
#X connect 19 0 27 0;
#X connect 19 1 20 1;
#X connect 20 0 60 0;
#X connect 21 0 26 0;
#X connect 21 1 22 1;
#X connect 22 0 60 0;
#X connect 23 0 25 0;
#X connect 23 1 24 1;
#X connect 24 0 60 0;
#X connect 25 0 24 0;
#X connect 26 0 22 0;
#X connect 27 0 20 0;
#X connect 28 0 18 0;
#X connect 29 0 15 0;
#X connect 30 0 7 0;
#X connect 31 0 33 0;
#X connect 34 0 38 0;
#X connect 35 0 34 0;
#X connect 36 0 56 0;
#X connect 37 0 38 1;
#X connect 38 0 37 0;
#X connect 38 0 36 1;
#X connect 39 0 36 0;
#X connect 39 1 43 0;
#X connect 39 2 38 1;
#X connect 40 0 44 0;
#X connect 41 0 40 0;
#X connect 41 1 40 0;
#X connect 42 0 57 0;
#X connect 43 0 35 0;
#X connect 44 0 45 0;
#X connect 44 1 46 2;
#X connect 44 2 48 0;
#X connect 44 3 49 2;
#X connect 44 4 50 0;
#X connect 44 5 51 2;
#X connect 44 6 52 0;
#X connect 44 7 53 2;
#X connect 44 8 54 0;
#X connect 44 9 55 2;
#X connect 45 0 61 0;
#X connect 45 1 46 1;
#X connect 46 0 58 0;
#X connect 48 0 62 0;
#X connect 48 1 49 1;
#X connect 49 0 58 0;
#X connect 50 0 63 0;
#X connect 50 1 51 1;
#X connect 51 0 58 0;
#X connect 52 0 64 0;
#X connect 52 1 53 1;
#X connect 53 0 58 0;
#X connect 54 0 65 0;
#X connect 54 1 55 1;
#X connect 55 0 58 0;
#X connect 56 0 41 0;
#X connect 57 0 39 0;
#X connect 58 0 59 0;
#X connect 60 0 59 0;
#X connect 61 0 46 0;
#X connect 62 0 49 0;
#X connect 63 0 51 0;
#X connect 64 0 53 0;
#X connect 65 0 55 0;
#X connect 66 0 31 0;
#X restore 565 444 pd random points 5:3;
#X connect 0 0 4 0;
#X connect 0 1 1 1;
#X connect 1 0 2 0;
#X connect 4 0 1 0;
#X connect 5 0 4 1;
#X connect 6 0 5 0;
#X connect 7 0 12 1;
#X connect 7 0 41 1;
#X connect 9 0 7 0;
#X connect 10 0 42 0;
#X connect 12 0 0 0;
#X connect 12 1 1 2;
#X connect 13 0 12 0;
#X connect 14 0 12 0;
#X connect 15 0 12 0;
#X connect 16 0 12 0;
#X connect 19 0 12 0;
#X connect 20 0 12 0;
#X connect 21 0 12 0;
#X connect 22 0 12 0;
#X connect 24 0 29 0;
#X connect 25 0 24 0;
#X connect 26 0 25 0;
#X connect 27 0 32 0;
#X connect 28 0 29 1;
#X connect 29 0 28 0;
#X connect 29 0 27 1;
#X connect 30 0 27 0;
#X connect 30 1 26 0;
#X connect 30 2 29 1;
#X connect 31 0 12 0;
#X connect 32 0 33 0;
#X connect 33 0 31 0;
#X connect 33 1 31 0;
#X connect 34 0 30 0;
#X connect 35 0 12 0;
#X connect 36 0 12 0;
#X connect 37 0 12 0;
#X connect 39 0 12 0;
#X connect 41 0 12 0;
#X connect 43 0 41 0;
#X connect 49 0 50 0;
#X connect 50 0 2 0;
#X restore 34 63 pd simple;
#X text 33 45 im patch erzeugt;
#X text 51 106 auf gesp. daten zugreifen;
#X text 27 12 [control_grid] zur steuerung von x/y-daten \;;
#X obj 35 468 spigot;
#X obj 68 445 tgl 15 0 empty empty empty 17 7 0 10 -262144 -1 -1 0
1;
#X obj 34 489 print;
#X text 85 446 check output;
#N canvas 348 97 947 451 read 0;
#X obj 81 360 outlet;
#X obj 40 117 tgl 15 0 empty empty empty 17 7 0 10 -262144 -1 -1 0
1;
#X floatatom 122 118 5 0 0 0 - - -, f 5;
#X text 123 99 tempo;
#X obj 75 149 metro 50;
#X obj 142 218 spigot 0;
#X obj 188 117 tgl 15 0 empty empty empty 17 7 0 10 -262144 -1 -1 0
1;
#X text 189 99 loop;
#X obj 140 193 symbol;
#X obj 37 49 bng 15 250 50 0 empty empty empty 17 7 0 10 -262144 -1
-1;
#X text 56 48 clear controller;
#X obj 77 207 txt-read;
#X text 38 20 TEXTFILES;
#X symbolatom 246 137 10 0 0 0 - - -, f 10;
#X text 230 113 ->;
#X text 321 128 or choose file to play \; without extension;
#X floatatom 575 177 5 0 0 0 - - -, f 5;
#X text 576 158 tempo;
#X obj 595 277 spigot 0;
#X obj 641 176 tgl 15 0 empty empty empty 17 7 0 10 -262144 -1 -1 0
1;
#X text 642 158 loop;
#X obj 593 252 symbol;
#X obj 530 266 txt-read;
#X symbolatom 698 198 10 0 0 0 - - -, f 10;
#X text 774 187 or choose file to play \; without extension;
#X obj 696 331 tgl 15 0 empty empty empty 17 7 0 10 -262144 -1 -1 0
1;
#X obj 49 287 t f;
#X text 70 375 ind x y stream;
#X text 715 332 play;
#X obj 528 208 metro 24;
#N canvas 504 119 773 473 change 0;
#X obj 42 407 outlet;
#X obj 39 31 tgl 15 0 empty empty empty 17 7 0 10 -262144 -1 -1 0 1
;
#X obj 130 214 symbol;
#X obj 40 191 txt-read;
#X obj 37 65 t f f;
#X obj 37 139 tgl 15 0 empty empty empty 17 7 0 10 -262144 -1 -1 0
1;
#X obj 38 161 metro 10;
#X obj 64 89 sel 1;
#X obj 56 111 t b b;
#X obj 507 211 symbol;
#X obj 447 199 txt-read;
#X obj 444 73 t f f;
#X obj 444 147 tgl 15 0 empty empty empty 17 7 0 10 -262144 -1 -1 0
1;
#X obj 445 169 metro 10;
#X obj 471 97 sel 1;
#X obj 463 119 t b b;
#X msg 496 135 6;
#X msg 518 180 kreis;
#X msg 129 192 kreis;
#X text 192 217 CTL-POINT 2;
#X text 179 408 wenn man ein textfile auf mehrere ctl-points routen
will;
#X obj 662 208 symbol;
#X obj 602 196 txt-read;
#X obj 599 70 t f f;
#X obj 599 144 tgl 15 0 empty empty empty 17 7 0 10 -262144 -1 -1 0
1;
#X obj 600 166 metro 10;
#X obj 626 94 sel 1;
#X obj 618 116 t b b;
#X msg 673 177 kreis;
#X obj 478 271 t b f;
#X obj 477 343 pack f f f;
#X obj 478 318 f;
#X floatatom 493 296 3 0 0 0 - - -, f 3;
#X obj 517 297 init 9;
#X text 364 295 override ctl.point-nr.;
#X obj 445 237 unpack f f f;
#X floatatom 445 265 3 0 0 0 - - -, f 3;
#X text 415 264 old;
#X obj 631 279 t b f;
#X obj 630 351 pack f f f;
#X obj 631 326 f;
#X floatatom 646 304 3 0 0 0 - - -, f 3;
#X obj 598 245 unpack f f f;
#X floatatom 598 273 3 0 0 0 - - -, f 3;
#X obj 670 305 init 5;
#X msg 651 132 12;
#X msg 84 131 24;
#X text 132 168 orig. ctl-pt 2 (vgl- kreis.txt);
#X obj 178 71 bng 15 250 50 0 empty empty empty 17 7 0 10 -262144 -1
-1;
#X text 197 70 clear controller;
#X obj 177 92 s clear-grid;
#X connect 1 0 4 0;
#X connect 1 0 11 0;
#X connect 1 0 23 0;
#X connect 2 0 3 1;
#X connect 3 0 0 0;
#X connect 4 0 5 0;
#X connect 4 1 7 0;
#X connect 5 0 6 0;
#X connect 6 0 3 0;
#X connect 7 0 8 0;
#X connect 8 0 18 0;
#X connect 8 1 46 0;
#X connect 9 0 10 1;
#X connect 10 0 35 0;
#X connect 11 0 12 0;
#X connect 11 1 14 0;
#X connect 12 0 13 0;
#X connect 13 0 10 0;
#X connect 14 0 15 0;
#X connect 15 0 17 0;
#X connect 15 1 16 0;
#X connect 16 0 13 1;
#X connect 17 0 9 0;
#X connect 18 0 2 0;
#X connect 21 0 22 1;
#X connect 22 0 42 0;
#X connect 23 0 24 0;
#X connect 23 1 26 0;
#X connect 24 0 25 0;
#X connect 25 0 22 0;
#X connect 26 0 27 0;
#X connect 27 0 28 0;
#X connect 27 1 45 0;
#X connect 28 0 21 0;
#X connect 29 0 31 0;
#X connect 29 1 30 1;
#X connect 30 0 0 0;
#X connect 31 0 30 0;
#X connect 32 0 31 1;
#X connect 33 0 32 0;
#X connect 35 0 36 0;
#X connect 35 1 29 0;
#X connect 35 2 30 2;
#X connect 38 0 40 0;
#X connect 38 1 39 1;
#X connect 39 0 0 0;
#X connect 40 0 39 0;
#X connect 41 0 40 1;
#X connect 42 0 43 0;
#X connect 42 1 38 0;
#X connect 42 2 39 2;
#X connect 44 0 41 0;
#X connect 45 0 25 1;
#X connect 46 0 6 1;
#X connect 48 0 50 0;
#X restore 696 382 pd change ctl-points;
#X msg 245 114 kreis;
#X text 523 107 man benötigt so viele txt-read obj wie man gleichzeitige
bewegungen haben will. maximal 11 ctl-pts gleichzeitig \; das tempo
kann so für jedes txt-file angepasst werden;
#N canvas 54 319 881 416 einfaches 0;
#X obj 41 346 outlet;
#X obj 32 0 inlet;
#X obj 36 45 tgl 15 0 empty empty empty 17 7 0 10 -262144 -1 -1 0 1
;
#X obj 129 243 symbol;
#X obj 40 191 txt-read;
#X msg 129 192 diagonal1;
#X msg 140 213 diagonal2;
#X obj 37 65 t f f;
#X obj 37 139 tgl 15 0 empty empty empty 17 7 0 10 -262144 -1 -1 0
1;
#X obj 38 161 metro 10;
#X obj 64 89 sel 1;
#X text 204 197 presaved txts;
#X obj 56 111 t b b;
#X obj 144 110 t b b;
#X obj 146 86 delay 1500;
#X msg 84 131 13;
#X obj 226 110 t b b;
#X msg 254 130 3;
#X obj 228 86 delay 5000;
#X msg 172 130 46;
#X text 191 246 CTL-POINT 1;
#X obj 328 110 t b b;
#X msg 356 130 80;
#X obj 583 238 symbol;
#X obj 494 186 txt-read;
#X obj 491 60 t f f;
#X obj 491 134 tgl 15 0 empty empty empty 17 7 0 10 -262144 -1 -1 0
1;
#X obj 492 156 metro 10;
#X obj 518 84 sel 1;
#X text 643 206 presaved txts;
#X obj 510 106 t b b;
#X obj 598 105 t b b;
#X obj 680 105 t b b;
#X msg 708 125 3;
#X msg 626 125 46;
#X obj 782 105 t b b;
#X obj 784 81 delay 400;
#X text 630 240 CTL-POINT 2;
#X obj 490 38 tgl 15 0 empty empty empty 17 7 0 10 -262144 -1 -1 0
1;
#X obj 600 81 delay 2500;
#X msg 538 126 6;
#X obj 682 81 delay 5500;
#X msg 809 125 17;
#X text 387 129 tempi;
#X text 393 87 einsätze;
#X obj 330 86 delay 500;
#X text 205 305 zeitliche anordnung von vorher in einzelnen arbeitsschritten
"synthetisierter" bewegungen \; zweistimmiger "kontrapkt";
#X msg 594 207 kreis;
#X obj 116 9 bng 15 250 50 0 empty empty empty 17 7 0 10 -262144 -1
-1;
#X text 135 8 clear controller;
#X obj 115 30 s clear-grid;
#X connect 1 0 2 0;
#X connect 2 0 7 0;
#X connect 2 0 25 0;
#X connect 3 0 4 1;
#X connect 4 0 0 0;
#X connect 5 0 3 0;
#X connect 6 0 3 0;
#X connect 7 0 8 0;
#X connect 7 1 10 0;
#X connect 8 0 9 0;
#X connect 9 0 4 0;
#X connect 10 0 12 0;
#X connect 12 0 5 0;
#X connect 12 1 15 0;
#X connect 12 1 14 0;
#X connect 13 0 6 0;
#X connect 13 1 19 0;
#X connect 13 1 18 0;
#X connect 14 0 13 0;
#X connect 15 0 9 1;
#X connect 16 0 5 0;
#X connect 16 1 17 0;
#X connect 16 1 45 0;
#X connect 17 0 9 1;
#X connect 18 0 16 0;
#X connect 19 0 9 1;
#X connect 21 0 6 0;
#X connect 21 1 22 0;
#X connect 22 0 9 1;
#X connect 23 0 24 1;
#X connect 24 0 0 0;
#X connect 25 0 26 0;
#X connect 25 1 28 0;
#X connect 26 0 27 0;
#X connect 27 0 24 0;
#X connect 28 0 30 0;
#X connect 30 0 47 0;
#X connect 30 1 40 0;
#X connect 30 1 39 0;
#X connect 31 0 47 0;
#X connect 31 1 34 0;
#X connect 31 1 41 0;
#X connect 32 0 47 0;
#X connect 32 1 33 0;
#X connect 32 1 36 0;
#X connect 33 0 27 1;
#X connect 34 0 27 1;
#X connect 35 0 47 0;
#X connect 35 1 42 0;
#X connect 36 0 35 0;
#X connect 38 0 25 0;
#X connect 39 0 31 0;
#X connect 40 0 27 1;
#X connect 41 0 32 0;
#X connect 42 0 27 1;
#X connect 45 0 21 0;
#X connect 47 0 23 0;
#X connect 48 0 50 0;
#X restore 696 352 pd einfaches sequencing beispiel;
#X obj 36 70 s clear-grid;
#X text 290 113 presaved txt-file;
#X obj 244 86 loadbang;
#X connect 1 0 4 0;
#X connect 1 0 26 0;
#X connect 2 0 4 1;
#X connect 4 0 11 0;
#X connect 5 0 8 0;
#X connect 6 0 5 1;
#X connect 8 0 11 1;
#X connect 9 0 34 0;
#X connect 11 0 0 0;
#X connect 11 1 5 0;
#X connect 13 0 8 0;
#X connect 16 0 29 1;
#X connect 18 0 21 0;
#X connect 19 0 18 1;
#X connect 21 0 22 1;
#X connect 22 0 0 0;
#X connect 22 1 18 0;
#X connect 23 0 21 0;
#X connect 25 0 33 0;
#X connect 26 0 29 0;
#X connect 29 0 22 0;
#X connect 30 0 0 0;
#X connect 31 0 8 0;
#X connect 33 0 0 0;
#X connect 36 0 31 0;
#X restore 50 124 pd read txt;
#X text 426 161 type filename to save/load \; without extension;
#X text 285 120 & reinit control_grid;
#N canvas 703 22 458 717 read 0;
#X text 33 149 [2] \; mit der maus reinzeichnen (dafür muss zuvor der
beabsichtigte ctl-point gewählt werden -> hradio) \; vgl. print;
#X text 30 35 [control_grid] -- anwendungsformen;
#X text 31 64 [1] \; im patch erzeugte bewegungen (vgl. beispiele in
[pd simple] & [pd kreise]. format: index x y (index: ctl-point-nr.
1 bis max 16) \, x&y 0 bis 200 (entspr. der resolution der gui-oberfläche)
als kontinuierlicher daten-strom;
#X text 35 227 [3] \; speichern: alle bewegungen (durch [1] und/oder
[2] erzeugt) können als textfile gesichert werden \; 1 filename eingeben
(gleichnamige werden immer überschrieben) \; 2 ctl-point-nr wählen
(will man z.b. 3 bewegungen gleichzeitig haben \, muss man 3 untersch.
ctl.-points(nr) verwenden) \; 3 write-enable 1 (unblock textfile-in)
\; 4 daten erzeugen (durch [1] oder [2]) \; 5 write-enable 0 (block
textfile-in) \; 6 load_txt (sichern/laden);
#X text 36 405 [4] \; gespeicherte daten lesen (vgl. beispiele [pd
read txt]) \; die gewünschten textfiles müssen mit dem filename (ohne
extension) angegeben werden (vgl. [pd einfaches sequencing beispiel]
\; für jeses textfile ist ein eigenes read-txt-obj notwendig (auf diese
weise kann jede beliebige bewegung simultan verwendet werden \, sofern
nicht bewegungen mit denselben ctl-points-idx gespeicher wurden. zum
überschreiben derselben ctl-points-indices vgl. [pd read txt]->[pd
change ctl-points];
#X text 37 685 bugs/comments an m_doettlinger@gmx.at;
#X text 36 567 [pd route -> audio-out] zeigt \, wie x/y daten für die
steuerung einer quadrophonischen lautsprecheranordnung verwendet werden
können (jede klangquelle muss einem ctl-point zugewiesen werden (route
1 2 3 ... 16 vgl. [pd signals~] zur demonstration sind osc~s implementiert)
ohne ctl-pts kein audio-output \, d.h. mute audio = clear-grid !!;
#X restore 523 16 pd read me;
#X obj 250 96 r clear-grid;
#N canvas 275 327 596 261 route->4chn-audio-out 0;
#X obj 25 20 inlet;
#N canvas 529 294 607 260 master 0;
#X obj 45 19 catch~ chn1;
#X obj 123 18 catch~ chn2;
#X obj 200 19 catch~ chn3;
#X obj 278 19 catch~ chn4;
#X obj 45 151 *~;
#X obj 124 150 *~;
#X obj 199 147 *~;
#X obj 277 146 *~;
#X obj 52 175 dac~ 1;
#X obj 288 173 dac~ 4;
#X obj 207 172 dac~ 3;
#X obj 132 174 dac~ 2;
#X text 333 172 4 chn-out;
#X obj 462 83 pack f 25;
#X obj 463 55 inlet;
#X text 503 56 masterfader;
#X obj 462 104 line~;
#X floatatom 345 49 3 0 0 0 - - -, f 3;
#X obj 369 70 line~;
#X obj 369 17 inlet;
#X text 367 0 number of active ctl-points;
#X obj 45 111 /~;
#X obj 124 110 /~;
#X obj 199 107 /~;
#X obj 277 106 /~;
#X text 455 192 [1]________[2] \; ______________ \; [3]________[4]
\;;
#X floatatom 33 219 5 0 0 0 - - -, f 5;
#X text 68 218 dB;
#X floatatom 111 219 5 0 0 0 - - -, f 5;
#X text 146 218 dB;
#X obj 34 197 env~ 8192;
#X obj 112 197 env~ 8192;
#X floatatom 192 219 5 0 0 0 - - -, f 5;
#X text 227 218 dB;
#X floatatom 270 219 5 0 0 0 - - -, f 5;
#X text 305 218 dB;
#X obj 193 197 env~ 8192;
#X obj 271 197 env~ 8192;
#X text 338 221 check;
#X text 309 105 amp-divisor;
#X obj 408 19 init 1;
#X obj 369 49 pack f 500;
#X connect 0 0 21 0;
#X connect 1 0 22 0;
#X connect 2 0 23 0;
#X connect 3 0 24 0;
#X connect 4 0 8 0;
#X connect 4 0 30 0;
#X connect 5 0 11 0;
#X connect 5 0 31 0;
#X connect 6 0 10 0;
#X connect 6 0 36 0;
#X connect 7 0 9 0;
#X connect 7 0 37 0;
#X connect 13 0 16 0;
#X connect 14 0 13 0;
#X connect 16 0 4 1;
#X connect 16 0 5 1;
#X connect 16 0 6 1;
#X connect 16 0 7 1;
#X connect 18 0 21 1;
#X connect 18 0 22 1;
#X connect 18 0 23 1;
#X connect 18 0 24 1;
#X connect 19 0 17 0;
#X connect 19 0 41 0;
#X connect 21 0 4 0;
#X connect 22 0 5 0;
#X connect 23 0 6 0;
#X connect 24 0 7 0;
#X connect 30 0 26 0;
#X connect 31 0 28 0;
#X connect 36 0 32 0;
#X connect 37 0 34 0;
#X connect 40 0 41 0;
#X connect 41 0 18 0;
#X restore 339 109 pd master;
#X obj 27 52 s xy-data-stream;
#X text 136 51 r in route2audio;
#X obj 338 18 inlet;
#X text 374 18 number of active ctl-points;
#X floatatom 407 109 4 0 0 0 - - -, f 4;
#N canvas 0 22 1066 171 signals~ 0;
#X obj 15 124 s~ sig-1;
#X obj 74 124 s~ sig-2;
#X obj 138 123 s~ sig-3;
#X obj 197 124 s~ sig-4;
#X obj 272 124 s~ sig-5;
#X obj 331 124 s~ sig-6;
#X obj 395 123 s~ sig-7;
#X obj 454 124 s~ sig-8;
#X obj 517 125 s~ sig-9;
#X obj 581 124 s~ sig-10;
#X obj 650 123 s~ sig-11;
#X obj 716 122 s~ sig-12;
#X obj 783 124 s~ sig-13;
#X obj 846 125 s~ sig-14;
#X obj 910 124 s~ sig-15;
#X obj 979 123 s~ sig-16;
#X obj 394 86 osc~ 700;
#X obj 456 85 osc~ 800;
#X obj 519 86 osc~ 900;
#X obj 581 85 osc~ 1000;
#X obj 643 84 osc~ 1100;
#X obj 705 83 osc~ 1200;
#X obj 772 86 osc~ 1300;
#X obj 834 85 osc~ 1400;
#X obj 896 84 osc~ 1500;
#X obj 958 83 osc~ 1600;
#X obj 332 87 osc~ 600;
#X obj 17 88 osc~ 200;
#X obj 79 87 osc~ 250;
#X obj 141 86 osc~ 300;
#X obj 203 85 osc~ 400;
#X obj 270 88 osc~ 500;
#X text 13 15 die zu bewegenden klänge müssen hier den entsprechenden
ctl-points zugewiesen werden;
#X text 11 51 replace osc~s;
#X connect 16 0 6 0;
#X connect 17 0 7 0;
#X connect 18 0 8 0;
#X connect 19 0 9 0;
#X connect 20 0 10 0;
#X connect 21 0 11 0;
#X connect 22 0 12 0;
#X connect 23 0 13 0;
#X connect 24 0 14 0;
#X connect 25 0 15 0;
#X connect 26 0 5 0;
#X connect 27 0 0 0;
#X connect 28 0 1 0;
#X connect 29 0 2 0;
#X connect 30 0 3 0;
#X connect 31 0 4 0;
#X restore 239 19 pd signals~;
#X text 321 152 !! kein ctl-point -> kein audio-output !!;
#X obj 251 225 route2audio 16;
#X text 172 17 --------->;
#X obj 393 88 hsl 128 15 0 1 0 0 empty empty amp 4 -8 0 10 -262144
-1 -1 10160 1;
#X obj 390 56 init 0.8;
#X obj 26 76 route2audio 1;
#X obj 110 75 route2audio 9;
#X obj 40 98 route2audio 2;
#X obj 62 119 route2audio 3;
#X obj 76 141 route2audio 4;
#X obj 100 161 route2audio 5;
#X obj 114 183 route2audio 6;
#X obj 141 203 route2audio 7;
#X obj 155 225 route2audio 8;
#X obj 124 97 route2audio 10;
#X obj 148 117 route2audio 11;
#X obj 166 139 route2audio 12;
#X obj 180 161 route2audio 13;
#X obj 204 181 route2audio 14;
#X obj 227 205 route2audio 15;
#X connect 0 0 2 0;
#X connect 4 0 1 0;
#X connect 11 0 1 1;
#X connect 11 0 6 0;
#X connect 12 0 11 0;
#X restore 41 419 pd route->4chn-audio-out;
#X obj 479 397 bng 15 250 50 0 empty empty empty 17 7 0 10 -262144
-1 -1;
#X text 498 396 clear controller;
#X obj 478 418 s clear-grid;
#X obj 480 376 loadbang;
#X text 465 42 (c) doettlinger 2012;
#X text 466 57 m_doettlinger@gmx.at;
#X text 453 68 SEM MOZARTEUM SALZBURG;
#X connect 0 0 1 0;
#X connect 1 0 10 1;
#X connect 2 0 5 0;
#X connect 3 0 6 0;
#X connect 4 0 10 1;
#X connect 6 0 11 0;
#X connect 6 1 4 0;
#X connect 8 0 9 0;
#X connect 9 0 12 1;
#X connect 9 1 4 0;
#X connect 10 0 12 0;
#X connect 10 0 27 0;
#X connect 10 0 18 0;
#X connect 10 1 27 1;
#X connect 13 0 10 0;
#X connect 14 0 10 0;
#X connect 18 0 20 0;
#X connect 19 0 18 1;
#X connect 22 0 10 0;
#X connect 26 0 4 0;
#X connect 28 0 30 0;
#X connect 31 0 28 0;
