#N canvas 483 394 361 303 10;
#X floatatom 119 91 5 0 0 0 amplitude-> - -, f 5;
#X floatatom 195 73 5 0 0 1 <-phase - -, f 5;
#X obj 195 108 t b f;
#X obj 118 176 *;
#X obj 145 136 cos;
#X obj 229 139 sin;
#X obj 217 179 *;
#X obj 119 54 inlet;
#X obj 195 45 inlet;
#X obj 118 220 outlet;
#X obj 217 220 outlet;
#X connect 0 0 3 0;
#X connect 0 0 6 0;
#X connect 1 0 2 0;
#X connect 1 0 4 0;
#X connect 1 0 5 0;
#X connect 2 0 0 0;
#X connect 3 0 9 0;
#X connect 4 0 3 1;
#X connect 5 0 6 1;
#X connect 6 0 10 0;
#X connect 7 0 0 0;
#X connect 8 0 1 0;
