#N canvas 0 22 300 392 10;
#X msg 140 229 rewind;
#X obj 17 340 outlet;
#X msg 18 58 bang;
#X obj 21 266 textfile;
#X symbolatom 176 127 10 0 0 0 - - -;
#X obj 148 83 t b b;
#X obj 179 151 t s;
#X obj 146 203 t b s;
#X obj 18 36 inlet;
#X text 13 16 data-out;
#X obj 67 309 outlet;
#X text 114 307 done (bng);
#X text 63 337 data;
#X obj 148 34 inlet;
#X msg 199 234 read \$1.txt;
#X obj 146 179 symbol;
#X obj 176 105 symbol;
#X obj 149 56 t b s;
#X text 141 16 filename;
#X text 239 125 check;
#X text 168 342 reads ctl-data;
#X text 11 356 idx x y;
#X connect 0 0 3 0;
#X connect 2 0 3 0;
#X connect 3 0 1 0;
#X connect 3 1 10 0;
#X connect 4 0 6 0;
#X connect 5 0 15 0;
#X connect 5 1 16 0;
#X connect 6 0 15 1;
#X connect 7 0 0 0;
#X connect 7 1 14 0;
#X connect 8 0 2 0;
#X connect 13 0 17 0;
#X connect 14 0 3 0;
#X connect 15 0 7 0;
#X connect 16 0 4 0;
#X connect 17 0 5 0;
#X connect 17 1 16 1;
