#N canvas 668 149 514 588 12;
#X obj 79 473 delmod;
#X obj 78 358 adc~;
#X obj 70 516 dac~;
#X obj 129 243 vsl 15 128 0 1 0 0 empty empty empty 0 -8 0 10 -262144
-1 -1 8890 1;
#X obj 183 241 vsl 15 128 1 10000 1 0 empty empty empty 0 -8 0 10 -262144
-1 -1 5713 1;
#X obj 243 241 vsl 15 128 0 1 0 0 empty empty empty 0 -8 0 10 -262144
-1 -1 11430 1;
#X obj 161 183 unpack f f f f;
#X floatatom 129 384 5 0 0 0 - - -, f 5;
#X floatatom 183 383 5 0 0 0 - - -, f 5;
#X obj 297 241 vsl 15 128 1 5000 1 0 empty empty empty 0 -8 0 10 -262144
-1 -1 8713 1;
#X floatatom 297 381 5 0 0 0 - - -, f 5;
#X floatatom 243 380 5 0 0 0 - - -, f 5;
#X msg 161 25 0.7 63 0.9 345;
#X text 283 25 Frösche;
#X text 146 518 (c) 2008 Achim Bornhoeft;
#X msg 184 52 0.85 28 0.15 71;
#X msg 196 80 0.85 50 0.5 116;
#X msg 203 108 0.95 71.84 0.25 28.36;
#X msg 210 139 0.25 311 0.7 65;
#X connect 0 0 2 0;
#X connect 0 0 2 1;
#X connect 1 0 0 0;
#X connect 3 0 7 0;
#X connect 4 0 8 0;
#X connect 5 0 11 0;
#X connect 6 0 3 0;
#X connect 6 1 4 0;
#X connect 6 2 5 0;
#X connect 6 3 9 0;
#X connect 7 0 0 1;
#X connect 8 0 0 2;
#X connect 9 0 10 0;
#X connect 10 0 0 4;
#X connect 11 0 0 3;
#X connect 12 0 6 0;
#X connect 15 0 6 0;
#X connect 16 0 6 0;
#X connect 17 0 6 0;
#X connect 18 0 6 0;
