#N canvas 230 292 881 497 12;
#X declare -path abs;
#X declare -path abs;
#N canvas 248 345 1074 532 flor 0;
#N canvas 579 197 328 239 TODO 0;
#X text 125 32 TODO \; \;;
#X restore 889 26 pd TODO;
#N canvas 409 540 274 319 speaker-test 0;
#X obj 112 75 f;
#X obj 140 75 + 1;
#X floatatom 176 130 5 0 0 0 - - - 0;
#X obj 168 75 mod 2;
#X obj 39 96 noise~;
#X obj 140 104 t b f;
#X obj 87 199 vline~;
#X obj 39 242 *~;
#X obj 113 53 metro 1500;
#X obj 39 123 hip~ 200;
#X msg 89 175 0 \, 1 80 \, 0 80 800;
#X obj 39 148 *~ 0.1;
#X msg 176 152 set \$1-out;
#X obj 113 27 r \$0-speaker;
#X obj 39 283 throw~ 1-out;
#X connect 0 0 1 0;
#X connect 1 0 3 0;
#X connect 1 0 5 0;
#X connect 2 0 12 0;
#X connect 3 0 0 1;
#X connect 4 0 9 0;
#X connect 5 0 10 0;
#X connect 5 1 2 0;
#X connect 6 0 7 1;
#X connect 7 0 14 0;
#X connect 8 0 0 0;
#X connect 9 0 11 0;
#X connect 10 0 6 0;
#X connect 11 0 7 0;
#X connect 12 0 14 0;
#X connect 13 0 8 0;
#X restore 889 166 pd speaker-test;
#N canvas 467 534 450 300 cpu 0;
#X obj 56 141 cputime;
#X obj 56 85 metro 1000;
#X obj 56 113 t b b;
#X obj 56 201 * 0.1;
#X obj 56 170 int;
#X text 52 268 CPU load in percent;
#X obj 57 8 r init;
#X obj 56 59 tgl 15 0 empty empty empty 17 7 0 10 #fcfcfc #000000 #000000 0 1;
#X obj 55 232 s \$0-cpu;
#X msg 56 33 1;
#X connect 0 0 4 0;
#X connect 1 0 2 0;
#X connect 2 0 0 0;
#X connect 2 1 0 1;
#X connect 3 0 8 0;
#X connect 4 0 3 0;
#X connect 6 0 9 0;
#X connect 7 0 1 0;
#X connect 9 0 7 0;
#X restore 889 72 pd cpu;
#X obj 893 290 declare -path abs;
#X text 892 210 Achim Bornhoeft \; Flor \; (c) 2022 \; bornhoeft.org;
#X obj 724 20 cnv 15 160 486 empty empty empty 20 12 0 14 #bbbbbb #ffffff 0;
#X obj 753 170 tgl 20 0 \$0-speaker dummy-speaker Speaker_Test 25 10 0 12 #fcfcfc #fc0400 #000000 0 1;
#X floatatom 754 76 0 0 0 1 \ C\ P\ U \$0-cpu dummy-cpu 12;
#X obj 750 330 tgl 100 0 start-stop-out start-stop-in Start-Stop/Mute 0 -10 0 12 #404040 #fc0400 #000000 0 1;
#X obj 754 121 bng 20 250 50 0 init dummy-readme INIT 25 10 0 12 #fcfcfc #fc0400 #000000;
#X obj 20 20 cnv 15 700 246 empty empty empty 20 12 0 14 #bbbbbb #ffffff 0;
#X obj 53 127 vsl 26 119 0 2 0 0 gain-out-1 gain-in-1 1.5 3 50 0 9 #00ff04 #fc0400 #000000 0 1;
#X obj 80 127 vu 16 120 1-in-gain-vu empty 60 0 0 8 #606060 #000000 1 0;
#X obj 385 127 vsl 26 119 0 2 0 0 gain-out-2 gain-in-2 1.5 3 50 0 9 #00ff04 #fc0400 #000000 0 1;
#X obj 412 127 vu 16 120 2-in-gain-vu empty 60 0 0 8 #606060 #000000 1 0;
#X listbox 172 144 20 0 0 2 track\ freq 1-param-drone none 0;
#X listbox 515 143 20 0 0 2 track\ freq 2-param-drone non 0;
#X obj 143 142 bng 20 250 50 0 empty 1-param-bang empty 17 7 0 10 #ffffff #ff0400 #000000;
#X obj 485 141 bng 20 250 50 0 empty 2-param-bang empty 17 7 0 10 #ffffff #ff0400 #000000;
#X obj 240 93 nbx 3 30 -1 1e+37 0 0 1-setq-out 1-setq-in C\ U\ E 0 -15 0 30 #fcfcfc #000000 #000000 0 256;
#X obj 559 93 nbx 3 30 -1 1e+37 0 0 2-setq-out 2-setq-in C\ U\ E 0 -15 0 30 #fcfcfc #000000 #000000 0 256;
#X obj 753 229 tgl 20 0 simulation simulation Simulation 25 10 0 12 #fcfcfc #000000 #000000 0 1;
#X obj 20 270 cnv 15 700 236 empty empty empty 20 12 0 14 #bbbbbb #ffffff 0;
#X obj 565 339 vsl 25 119 0 2 0 0 ssynth-gain-out ssynth-gain-in 1.6 3 50 0 9 #ff0400 #000000 #000000 0 1;
#X obj 591 339 vu 16 120 ssynth-vu empty 60 0 0 8 #606060 #000000 0 0;
#X obj 627 339 vsl 25 119 0 2 0 0 main-vol-out main-vol-in 1 3 50 0 9 #00ff04 #fc0400 #000000 0 1;
#X obj 653 339 vu 16 120 main-L empty 60 0 0 8 #606060 #000000 0 0;
#X obj 672 339 vu 16 120 main-R empty 60 0 0 8 #606060 #000000 0 0;
#X text 654 319 L;
#X text 674 319 R;
#X text 567 316 Drone;
#X obj 51 368 vsl 26 119 0 2 0 0 dir-out-1 dir-in-1 1 3 50 0 9 #faff00 #fc0400 #000000 0 1;
#X obj 78 368 vu 16 120 dir-out-vu-1 empty 60 0 0 8 #606060 #000000 1 0;
#X obj 308 369 vsl 26 119 0 2 0 0 dir-out-2 dir-in-2 1 3 50 0 9 #faff00 #fc0400 #000000 0 1;
#X obj 335 369 vu 16 120 dir-out-vu-2 empty 60 0 0 8 #606060 #000000 1 0;
#X text 630 299 Main out;
#X obj 134 369 vsl 26 119 0 2 0 0 1-dl-gain-out 1-dl-gain-in 0.8 3 50 0 9 #00faff #fc0400 #000000 0 1;
#X obj 394 369 vsl 26 119 0 2 0 0 2-dl-gain-out 2-dl-gain-in 0.8 3 50 0 9 #00faff #fc0400 #000000 0 1;
#X obj 421 369 vu 16 120 dl2-out-vu empty 60 0 0 8 #606060 #000000 1 0;
#X obj 51 66 cnv 15 90 20 empty empty INPUTS 10 12 1 14 #ffffff #000000 0;
#X obj 51 284 cnv 15 90 20 empty empty OUTPUTS 10 12 1 14 #ffffff #000000 0;
#X obj 52 314 cnv 15 90 20 empty empty Guitar\ 1 10 12 1 14 #ffffff #000000 0;
#X text 308 317 comment;
#X obj 309 318 cnv 15 90 20 empty empty Guitar\ 2 10 12 1 14 #ffffff #000000 0;
#X obj 52 31 cnv 15 220 20 empty empty Achim\ Bornhoeft\ |\ Flor\ (2022) 10 12 1 16 #ffffff #000000 0;
#X obj 54 95 cnv 15 90 20 empty empty Guitar\ 1 10 12 1 14 #ffffff #000000 0;
#X obj 384 94 cnv 15 90 20 empty empty Guitar\ 2 10 12 1 14 #ffffff #000000 0;
#X text 48 345 direct;
#X text 132 346 dly;
#X text 306 345 direct;
#X text 391 346 dly;
#X obj 214 369 vsl 26 119 0 2 0 0 1-loop-gain-out 1-loop-gain-in 0.3 3 50 0 9 #ff40ff #ffffff #000000 0 1;
#X obj 241 369 vu 16 120 loop1-out-vu empty 60 0 0 8 #606060 #000000 1 0;
#X obj 479 369 vsl 26 119 0 2 0 0 2-loop-gain-out 2-loop-gain-in 0.3 3 50 0 9 #ff40ff #ffffff #000000 0 1;
#X obj 506 369 vu 16 120 loop2-out-vu empty 60 0 0 8 #606060 #000000 1 0;
#X text 212 346 loop;
#X text 476 346 loop;
#X obj 141 186 tgl 20 0 1-dly-tgl-out 1-dly-tgl-in empty 17 7 0 10 #fcfcfc #fcfcfc #fcfcfc 0 1;
#X obj 484 182 tgl 20 0 2-dly-tgl-out 2-dly-tgl-in empty 17 7 0 10 #fcfcfc #fcfcfc #fcfcfc 0 1;
#X listbox 173 189 20 0 0 2 multi-delay 1-param-mdly none 0;
#X listbox 515 184 20 0 0 2 multi-delay 2-param-mdly none 0;
#X obj 140 222 tgl 20 0 1-loop-tgl-out 1-loop-tgl-in empty 30 10 0 13 #fcfcfc #fcfcfc #fcfcfc 0 1;
#X obj 484 221 tgl 20 0 2-loop-tgl-out 2-loop-tgl-in empty 30 10 0 13 #fcfcfc #fcfcfc #fcfcfc 0 1;
#X text 170 224 loop on/off;
#X text 513 222 loop on/off;
#X obj 162 369 vu 16 120 dl1-out-vu empty 60 0 0 8 #606060 #000000 1 0;
#X symbolatom 332 144 5 0 0 2 note 1-freq2note none 0;
#X symbolatom 670 143 5 0 0 2 note 2-freq2note none 0;
#N canvas 152 159 1155 609 INSIDE 0;
#X obj 821 217 catch~ 1-out;
#X obj 857 245 catch~ 2-out;
#X obj 876 385 pack f 25;
#X obj 875 409 line~;
#X obj 821 463 *~;
#X obj 857 461 *~;
#X obj 875 274 s start-stop-in;
#X obj 875 303 r start-stop-out;
#X text 994 275 -> start-stop tgl;
#X text 998 303 <- start-stop tgl;
#X msg 990 438 \; pd dsp \$1 \;;
#X obj 959 476 s vu-0;
#X floatatom 958 387 5 0 0 0 - - - 0;
#X obj 958 410 t b f;
#X obj 314 308 throw~ 1-out;
#X obj 439 309 throw~ 2-out;
#X obj 665 61 noise~;
#X obj 665 95 s~ noise;
#X obj 439 252 *~;
#X obj 326 247 *~;
#N canvas 804 215 234 347 vu-meter 0;
#X floatatom 81 206 5 0 0 0 - - - 0;
#X obj 81 177 max;
#X msg 99 149 0, f 2;
#X obj 26 265 pack f f;
#X obj 99 106 metro \$1;
#X obj 98 47 t b b;
#X msg 152 78 5000;
#X obj 26 296 outlet vu-meter;
#X obj 26 236 - 100;
#X obj 79 235 - 100;
#X obj 98 17 r init;
#X obj 25 105 env~ 2048;
#X obj 24 16 inlet~;
#X obj 141 213 r vu-0;
#X msg 140 239 -100 -100;
#X connect 0 0 1 1;
#X connect 0 0 9 0;
#X connect 1 0 0 0;
#X connect 2 0 1 1;
#X connect 3 0 7 0;
#X connect 4 0 2 0;
#X connect 5 0 4 0;
#X connect 5 1 6 0;
#X connect 6 0 4 1;
#X connect 8 0 3 0;
#X connect 9 0 3 1;
#X connect 10 0 5 0;
#X connect 11 0 1 0;
#X connect 11 0 8 0;
#X connect 12 0 11 0;
#X connect 13 0 14 0;
#X connect 14 0 7 0;
#X restore 378 340 pd vu-meter;
#X obj 79 89 clone -s 1 input~ 2;
#X obj 326 181 clone subsynth 36;
#X obj 378 368 s ssynth-vu;
#N canvas 514 472 197 285 subsynth-gain 0;
#X obj 26 209 outlet;
#N canvas 126 632 159 184 guilabel 0;
#X msg 43 107 label \$1;
#X obj 43 26 inlet;
#X obj 43 132 outlet;
#X obj 43 79 makefilename %s;
#N canvas 371 178 187 217 round 0;
#X msg 107 79 10;
#X obj 107 56 loadbang;
#X obj 27 84 * 1;
#X obj 27 19 inlet;
#X obj 68 131 / 1;
#X msg 68 109 1;
#X obj 27 109 + 0.5;
#X obj 27 134 div;
#X obj 27 181 outlet;
#X obj 27 157 * 1;
#X obj 107 102 pow 2;
#X obj 27 45 t f b;
#X connect 0 0 10 0;
#X connect 1 0 0 0;
#X connect 2 0 6 0;
#X connect 3 0 11 0;
#X connect 4 0 9 1;
#X connect 5 0 4 0;
#X connect 6 0 7 0;
#X connect 7 0 9 0;
#X connect 9 0 8 0;
#X connect 10 0 2 1;
#X connect 10 0 4 1;
#X connect 10 0 5 0;
#X connect 11 0 2 0;
#X connect 11 1 0 0;
#X restore 43 53 pd round;
#X connect 0 0 2 0;
#X connect 1 0 4 0;
#X connect 3 0 0 0;
#X connect 4 0 3 0;
#X restore 35 121 pd guilabel;
#X obj 27 71 line \$1 100;
#X obj 28 97 s ssynth-gain-in;
#X obj 26 146 r ssynth-gain-out;
#X floatatom 26 178 5 0 0 0 - - - 0;
#X obj 27 40 r synth-gain;
#X connect 1 0 3 0;
#X connect 2 0 3 0;
#X connect 4 0 1 0;
#X connect 4 0 5 0;
#X connect 5 0 0 0;
#X connect 6 0 2 0;
#X restore 384 211 pd subsynth-gain;
#N canvas 514 472 197 285 main-vol 0;
#X obj 26 209 outlet;
#N canvas 126 632 159 184 guilabel 0;
#X msg 43 107 label \$1;
#X obj 43 26 inlet;
#X obj 43 132 outlet;
#X obj 43 79 makefilename %s;
#N canvas 371 178 187 217 round 0;
#X msg 107 79 10;
#X obj 107 56 loadbang;
#X obj 27 84 * 1;
#X obj 27 19 inlet;
#X obj 68 131 / 1;
#X msg 68 109 1;
#X obj 27 109 + 0.5;
#X obj 27 134 div;
#X obj 27 181 outlet;
#X obj 27 157 * 1;
#X obj 107 102 pow 2;
#X obj 27 45 t f b;
#X connect 0 0 10 0;
#X connect 1 0 0 0;
#X connect 2 0 6 0;
#X connect 3 0 11 0;
#X connect 4 0 9 1;
#X connect 5 0 4 0;
#X connect 6 0 7 0;
#X connect 7 0 9 0;
#X connect 9 0 8 0;
#X connect 10 0 2 1;
#X connect 10 0 4 1;
#X connect 10 0 5 0;
#X connect 11 0 2 0;
#X connect 11 1 0 0;
#X restore 43 53 pd round;
#X connect 0 0 2 0;
#X connect 1 0 4 0;
#X connect 3 0 0 0;
#X connect 4 0 3 0;
#X restore 35 121 pd guilabel;
#X obj 27 71 line \$1 100;
#X floatatom 26 178 5 0 0 0 - - - 0;
#X obj 27 40 r main-vol;
#X obj 28 97 s main-vol-in;
#X obj 26 146 r main-vol-out;
#X connect 1 0 5 0;
#X connect 2 0 5 0;
#X connect 3 0 0 0;
#X connect 4 0 2 0;
#X connect 6 0 1 0;
#X connect 6 0 3 0;
#X restore 924 332 pd main-vol;
#N canvas 804 215 234 347 vu-meter 0;
#X floatatom 81 206 5 0 0 0 - - - 0;
#X obj 81 177 max;
#X msg 99 149 0, f 2;
#X obj 26 265 pack f f;
#X obj 99 106 metro \$1;
#X obj 98 47 t b b;
#X msg 152 78 5000;
#X obj 26 296 outlet vu-meter;
#X obj 26 236 - 100;
#X obj 79 235 - 100;
#X obj 98 17 r init;
#X obj 25 105 env~ 2048;
#X obj 24 16 inlet~;
#X obj 141 213 r vu-0;
#X msg 140 239 -100 -100;
#X connect 0 0 1 1;
#X connect 0 0 9 0;
#X connect 1 0 0 0;
#X connect 2 0 1 1;
#X connect 3 0 7 0;
#X connect 4 0 2 0;
#X connect 5 0 4 0;
#X connect 5 1 6 0;
#X connect 6 0 4 1;
#X connect 8 0 3 0;
#X connect 9 0 3 1;
#X connect 10 0 5 0;
#X connect 11 0 1 0;
#X connect 11 0 8 0;
#X connect 12 0 11 0;
#X connect 13 0 14 0;
#X connect 14 0 7 0;
#X restore 877 527 pd vu-meter;
#X obj 877 555 s main-L;
#N canvas 804 215 234 347 vu-meter 0;
#X floatatom 81 206 5 0 0 0 - - - 0;
#X obj 81 177 max;
#X msg 99 149 0, f 2;
#X obj 26 265 pack f f;
#X obj 99 106 metro \$1;
#X obj 98 47 t b b;
#X msg 152 78 5000;
#X obj 26 296 outlet vu-meter;
#X obj 26 236 - 100;
#X obj 79 235 - 100;
#X obj 98 17 r init;
#X obj 25 105 env~ 2048;
#X obj 24 16 inlet~;
#X obj 141 213 r vu-0;
#X msg 140 239 -100 -100;
#X connect 0 0 1 1;
#X connect 0 0 9 0;
#X connect 1 0 0 0;
#X connect 2 0 1 1;
#X connect 3 0 7 0;
#X connect 4 0 2 0;
#X connect 5 0 4 0;
#X connect 5 1 6 0;
#X connect 6 0 4 1;
#X connect 8 0 3 0;
#X connect 9 0 3 1;
#X connect 10 0 5 0;
#X connect 11 0 1 0;
#X connect 11 0 8 0;
#X connect 12 0 11 0;
#X connect 13 0 14 0;
#X connect 14 0 7 0;
#X restore 966 527 pd vu-meter;
#X obj 966 555 s main-R;
#X obj 936 79 key;
#X floatatom 936 103 5 0 0 0 - - - 0;
#X obj 36 431 *~;
#X obj 51 468 throw~ 1-out;
#X text 145 526 -> vu-meter;
#N canvas 804 215 234 347 vu-meter 0;
#X floatatom 81 206 5 0 0 0 - - - 0;
#X obj 81 177 max;
#X msg 99 149 0, f 2;
#X obj 26 265 pack f f;
#X obj 99 106 metro \$1;
#X obj 98 47 t b b;
#X msg 152 78 5000;
#X obj 26 296 outlet vu-meter;
#X obj 26 236 - 100;
#X obj 79 235 - 100;
#X obj 98 17 r init;
#X obj 25 105 env~ 2048;
#X obj 24 16 inlet~;
#X obj 141 213 r vu-0;
#X msg 140 239 -100 -100;
#X connect 0 0 1 1;
#X connect 0 0 9 0;
#X connect 1 0 0 0;
#X connect 2 0 1 1;
#X connect 3 0 7 0;
#X connect 4 0 2 0;
#X connect 5 0 4 0;
#X connect 5 1 6 0;
#X connect 6 0 4 1;
#X connect 8 0 3 0;
#X connect 9 0 3 1;
#X connect 10 0 5 0;
#X connect 11 0 1 0;
#X connect 11 0 8 0;
#X connect 12 0 11 0;
#X connect 13 0 14 0;
#X connect 14 0 7 0;
#X restore 36 498 pd vu-meter;
#X obj 256 456 *~;
#X obj 275 492 throw~ 2-out;
#X text 364 551 -> vu-meter;
#N canvas 804 215 234 347 vu-meter 0;
#X floatatom 81 206 5 0 0 0 - - - 0;
#X obj 81 177 max;
#X msg 99 149 0, f 2;
#X obj 26 265 pack f f;
#X obj 99 106 metro \$1;
#X obj 98 47 t b b;
#X msg 152 78 5000;
#X obj 26 296 outlet vu-meter;
#X obj 26 236 - 100;
#X obj 79 235 - 100;
#X obj 98 17 r init;
#X obj 25 105 env~ 2048;
#X obj 24 16 inlet~;
#X obj 141 213 r vu-0;
#X msg 140 239 -100 -100;
#X connect 0 0 1 1;
#X connect 0 0 9 0;
#X connect 1 0 0 0;
#X connect 2 0 1 1;
#X connect 3 0 7 0;
#X connect 4 0 2 0;
#X connect 5 0 4 0;
#X connect 5 1 6 0;
#X connect 6 0 4 1;
#X connect 8 0 3 0;
#X connect 9 0 3 1;
#X connect 10 0 5 0;
#X connect 11 0 1 0;
#X connect 11 0 8 0;
#X connect 12 0 11 0;
#X connect 13 0 14 0;
#X connect 14 0 7 0;
#X restore 256 522 pd vu-meter;
#N canvas 514 472 164 234 git1-out 0;
#X obj 26 182 outlet;
#N canvas 126 632 159 184 guilabel 0;
#X msg 43 107 label \$1;
#X obj 43 26 inlet;
#X obj 43 132 outlet;
#X obj 43 79 makefilename %s;
#N canvas 371 178 187 217 round 0;
#X msg 107 79 10;
#X obj 107 56 loadbang;
#X obj 27 84 * 1;
#X obj 27 19 inlet;
#X obj 68 131 / 1;
#X msg 68 109 1;
#X obj 27 109 + 0.5;
#X obj 27 134 div;
#X obj 27 181 outlet;
#X obj 27 157 * 1;
#X obj 107 102 pow 2;
#X obj 27 45 t f b;
#X connect 0 0 10 0;
#X connect 1 0 0 0;
#X connect 2 0 6 0;
#X connect 3 0 11 0;
#X connect 4 0 9 1;
#X connect 5 0 4 0;
#X connect 6 0 7 0;
#X connect 7 0 9 0;
#X connect 9 0 8 0;
#X connect 10 0 2 1;
#X connect 10 0 4 1;
#X connect 10 0 5 0;
#X connect 11 0 2 0;
#X connect 11 1 0 0;
#X restore 43 53 pd round;
#X connect 0 0 2 0;
#X connect 1 0 4 0;
#X connect 3 0 0 0;
#X connect 4 0 3 0;
#X restore 35 121 pd guilabel;
#X obj 27 71 line \$1 100;
#X obj 28 97 s dir-in-1;
#X obj 26 146 r dir-out-1;
#X obj 27 40 r git1-out;
#X connect 1 0 3 0;
#X connect 2 0 3 0;
#X connect 4 0 0 0;
#X connect 4 0 1 0;
#X connect 5 0 2 0;
#X restore 54 403 pd git1-out;
#N canvas 514 472 164 234 git2-out 0;
#X obj 26 182 outlet;
#N canvas 126 632 159 184 guilabel 0;
#X msg 43 107 label \$1;
#X obj 43 26 inlet;
#X obj 43 132 outlet;
#X obj 43 79 makefilename %s;
#N canvas 371 178 187 217 round 0;
#X msg 107 79 10;
#X obj 107 56 loadbang;
#X obj 27 84 * 1;
#X obj 27 19 inlet;
#X obj 68 131 / 1;
#X msg 68 109 1;
#X obj 27 109 + 0.5;
#X obj 27 134 div;
#X obj 27 181 outlet;
#X obj 27 157 * 1;
#X obj 107 102 pow 2;
#X obj 27 45 t f b;
#X connect 0 0 10 0;
#X connect 1 0 0 0;
#X connect 2 0 6 0;
#X connect 3 0 11 0;
#X connect 4 0 9 1;
#X connect 5 0 4 0;
#X connect 6 0 7 0;
#X connect 7 0 9 0;
#X connect 9 0 8 0;
#X connect 10 0 2 1;
#X connect 10 0 4 1;
#X connect 10 0 5 0;
#X connect 11 0 2 0;
#X connect 11 1 0 0;
#X restore 43 53 pd round;
#X connect 0 0 2 0;
#X connect 1 0 4 0;
#X connect 3 0 0 0;
#X connect 4 0 3 0;
#X restore 35 121 pd guilabel;
#X obj 27 71 line \$1 100;
#X obj 26 146 r dir-out-2;
#X obj 27 40 r git2-out;
#X obj 28 97 s dir-in-2;
#X connect 1 0 5 0;
#X connect 2 0 5 0;
#X connect 3 0 0 0;
#X connect 3 0 1 0;
#X connect 4 0 2 0;
#X restore 274 428 pd git2-out;
#X obj 36 526 s dir-out-vu-1;
#X obj 256 550 s dir-out-vu-2;
#X obj 38 316 throw~ 1-out;
#X obj 165 318 throw~ 2-out;
#N canvas 690 462 560 341 multidelays 0;
#X msg 39 60 vis 2 \$1;
#X obj 38 31 tgl 15 0 empty empty empty 17 7 0 10 #fcfcfc #000000 #000000 0 1;
#X obj 45 126 catch~ 1-multidly-out;
#X obj 70 156 catch~ 2-multidly-out;
#X obj 45 279 outlet~;
#X obj 70 214 outlet~;
#N canvas 1026 246 764 391 param-tests 0;
#X obj 172 67 random 2000;
#X obj 172 91 + 500;
#X obj 413 38 bng 15 250 50 0 empty empty empty 17 7 0 10 #fcfcfc #000000 #000000;
#X obj 413 71 random 2000;
#X obj 413 95 + 500;
#X obj 412 162 s 2-mdly-param;
#X obj 172 166 s 1-mdly-param;
#X obj 33 37 tgl 15 0 empty empty empty 17 7 0 10 #fcfcfc #000000 #000000 0 1;
#X obj 172 24 bng 15 250 50 0 empty empty empty 17 7 0 10 #fcfcfc #000000 #000000;
#X obj 33 68 s 1-multidly-onoff;
#X obj 271 38 tgl 15 0 empty empty empty 17 7 0 10 #fcfcfc #000000 #000000 0 1;
#X obj 271 69 s 2-multidly-onoff;
#X msg 172 120 0 \$1 0.5 0.7;
#X msg 413 127 0.1 \$1 0.5 0.7;
#X text 175 217 Arguments \; \; mix direct-rev \; delay length msec \; delay-deviation \; feedback \;;
#X connect 0 0 1 0;
#X connect 1 0 12 0;
#X connect 2 0 3 0;
#X connect 3 0 4 0;
#X connect 4 0 13 0;
#X connect 7 0 9 0;
#X connect 8 0 0 0;
#X connect 10 0 11 0;
#X connect 12 0 6 0;
#X connect 13 0 5 0;
#X restore 166 31 pd param-tests;
#X obj 39 86 clone -s 1 multidly 2 6 5;
#X obj 70 184 *~ 0.5;
#X text 307 100 Parameters \; \; mix direct-rev \; delay length msec \; delay-deviation *) \; feedback \;;
#X text 308 208 *) 0: delays are all the same \; 1: random deviation between \; dly-length - 0.5 * dly-length \; and \; dly-length + 0.5 * dly-length \;;
#X obj 45 244 *~ 0.6;
#X connect 0 0 7 0;
#X connect 1 0 0 0;
#X connect 2 0 11 0;
#X connect 3 0 8 0;
#X connect 8 0 5 0;
#X connect 11 0 4 0;
#X restore 51 145 pd multidelays;
#X obj 37 216 *~;
#N canvas 514 472 188 243 delay1-gain 0;
#X obj 26 209 outlet;
#N canvas 126 632 159 184 guilabel 0;
#X msg 43 107 label \$1;
#X obj 43 26 inlet;
#X obj 43 132 outlet;
#X obj 43 79 makefilename %s;
#N canvas 371 178 187 217 round 0;
#X msg 107 79 10;
#X obj 107 56 loadbang;
#X obj 27 84 * 1;
#X obj 27 19 inlet;
#X obj 68 131 / 1;
#X msg 68 109 1;
#X obj 27 109 + 0.5;
#X obj 27 134 div;
#X obj 27 181 outlet;
#X obj 27 157 * 1;
#X obj 107 102 pow 2;
#X obj 27 45 t f b;
#X connect 0 0 10 0;
#X connect 1 0 0 0;
#X connect 2 0 6 0;
#X connect 3 0 11 0;
#X connect 4 0 9 1;
#X connect 5 0 4 0;
#X connect 6 0 7 0;
#X connect 7 0 9 0;
#X connect 9 0 8 0;
#X connect 10 0 2 1;
#X connect 10 0 4 1;
#X connect 10 0 5 0;
#X connect 11 0 2 0;
#X connect 11 1 0 0;
#X restore 43 53 pd round;
#X connect 0 0 2 0;
#X connect 1 0 4 0;
#X connect 3 0 0 0;
#X connect 4 0 3 0;
#X restore 35 121 pd guilabel;
#X obj 27 71 line \$1 100;
#X floatatom 26 178 5 0 0 0 - - - 0;
#X obj 28 97 s 1-dl-gain-in;
#X obj 26 146 r 1-dl-gain-out;
#X obj 27 40 r 1-delay-in;
#X connect 1 0 4 0;
#X connect 2 0 4 0;
#X connect 3 0 0 0;
#X connect 5 0 1 0;
#X connect 5 0 3 0;
#X connect 6 0 2 0;
#X restore 55 186 pd delay1-gain;
#X obj 165 212 *~;
#N canvas 514 472 471 369 delay2-gain 0;
#X obj 26 209 outlet;
#N canvas 126 632 159 184 guilabel 0;
#X msg 43 107 label \$1;
#X obj 43 26 inlet;
#X obj 43 132 outlet;
#X obj 43 79 makefilename %s;
#N canvas 371 178 187 217 round 0;
#X msg 107 79 10;
#X obj 107 56 loadbang;
#X obj 27 84 * 1;
#X obj 27 19 inlet;
#X obj 68 131 / 1;
#X msg 68 109 1;
#X obj 27 109 + 0.5;
#X obj 27 134 div;
#X obj 27 181 outlet;
#X obj 27 157 * 1;
#X obj 107 102 pow 2;
#X obj 27 45 t f b;
#X connect 0 0 10 0;
#X connect 1 0 0 0;
#X connect 2 0 6 0;
#X connect 3 0 11 0;
#X connect 4 0 9 1;
#X connect 5 0 4 0;
#X connect 6 0 7 0;
#X connect 7 0 9 0;
#X connect 9 0 8 0;
#X connect 10 0 2 1;
#X connect 10 0 4 1;
#X connect 10 0 5 0;
#X connect 11 0 2 0;
#X connect 11 1 0 0;
#X restore 43 53 pd round;
#X connect 0 0 2 0;
#X connect 1 0 4 0;
#X connect 3 0 0 0;
#X connect 4 0 3 0;
#X restore 35 121 pd guilabel;
#X obj 27 71 line \$1 100;
#X floatatom 26 178 5 0 0 0 - - - 0;
#X obj 28 97 s 2-dl-gain-in;
#X obj 26 147 r 2-dl-gain-out;
#X obj 28 37 r 2-delay-in;
#X connect 1 0 4 0;
#X connect 2 0 4 0;
#X connect 3 0 0 0;
#X connect 5 0 1 0;
#X connect 5 0 3 0;
#X connect 6 0 2 0;
#X restore 183 182 pd delay2-gain;
#N canvas 804 215 234 347 vu-meter 0;
#X floatatom 81 206 5 0 0 0 - - - 0;
#X obj 81 177 max;
#X msg 99 149 0, f 2;
#X obj 26 265 pack f f;
#X obj 99 106 metro \$1;
#X obj 98 47 t b b;
#X msg 152 78 5000;
#X obj 26 296 outlet vu-meter;
#X obj 26 236 - 100;
#X obj 79 235 - 100;
#X obj 98 17 r init;
#X obj 25 105 env~ 2048;
#X obj 24 16 inlet~;
#X obj 141 213 r vu-0;
#X msg 140 239 -100 -100;
#X connect 0 0 1 1;
#X connect 0 0 9 0;
#X connect 1 0 0 0;
#X connect 2 0 1 1;
#X connect 3 0 7 0;
#X connect 4 0 2 0;
#X connect 5 0 4 0;
#X connect 5 1 6 0;
#X connect 6 0 4 1;
#X connect 8 0 3 0;
#X connect 9 0 3 1;
#X connect 10 0 5 0;
#X connect 11 0 1 0;
#X connect 11 0 8 0;
#X connect 12 0 11 0;
#X connect 13 0 14 0;
#X connect 14 0 7 0;
#X restore 53 246 pd vu-meter;
#N canvas 804 215 234 347 vu-meter 0;
#X floatatom 81 206 5 0 0 0 - - - 0;
#X obj 81 177 max;
#X msg 99 149 0, f 2;
#X obj 26 265 pack f f;
#X obj 99 106 metro \$1;
#X obj 98 47 t b b;
#X msg 152 78 5000;
#X obj 26 296 outlet vu-meter;
#X obj 26 236 - 100;
#X obj 79 235 - 100;
#X obj 98 17 r init;
#X obj 25 105 env~ 2048;
#X obj 24 16 inlet~;
#X obj 141 213 r vu-0;
#X msg 140 239 -100 -100;
#X connect 0 0 1 1;
#X connect 0 0 9 0;
#X connect 1 0 0 0;
#X connect 2 0 1 1;
#X connect 3 0 7 0;
#X connect 4 0 2 0;
#X connect 5 0 4 0;
#X connect 5 1 6 0;
#X connect 6 0 4 1;
#X connect 8 0 3 0;
#X connect 9 0 3 1;
#X connect 10 0 5 0;
#X connect 11 0 1 0;
#X connect 11 0 8 0;
#X connect 12 0 11 0;
#X connect 13 0 14 0;
#X connect 14 0 7 0;
#X restore 177 243 pd vu-meter;
#X obj 36 376 r~ 1-sig-in;
#X obj 256 401 r~ 2-sig-in;
#X obj 53 279 s dl1-out-vu;
#X obj 288 35 cues 1 le1-cues.txt 1;
#X obj 288 88 cues 2 le2-cues.txt 17;
#X obj 936 126 sel 8218;
#X text 1001 125 alt-s;
#X obj 936 155 tgl 15 0 empty empty empty 17 7 0 10 #fcfcfc #000000 #000000 0 1;
#X obj 936 176 t f f;
#X obj 935 212 pipe 25;
#X obj 502 163 clone -s 1 loop-arrays 2 10;
#X obj 981 101 r on-off;
#X obj 544 341 throw~ 1-out;
#X obj 672 338 throw~ 2-out;
#X obj 544 236 *~;
#X obj 672 232 *~;
#N canvas 804 215 234 347 vu-meter 0;
#X floatatom 81 206 5 0 0 0 - - - 0;
#X obj 81 177 max;
#X msg 99 149 0, f 2;
#X obj 26 265 pack f f;
#X obj 99 106 metro \$1;
#X obj 98 47 t b b;
#X msg 152 78 5000;
#X obj 26 296 outlet vu-meter;
#X obj 26 236 - 100;
#X obj 79 235 - 100;
#X obj 98 17 r init;
#X obj 25 105 env~ 2048;
#X obj 24 16 inlet~;
#X obj 141 213 r vu-0;
#X msg 140 239 -100 -100;
#X connect 0 0 1 1;
#X connect 0 0 9 0;
#X connect 1 0 0 0;
#X connect 2 0 1 1;
#X connect 3 0 7 0;
#X connect 4 0 2 0;
#X connect 5 0 4 0;
#X connect 5 1 6 0;
#X connect 6 0 4 1;
#X connect 8 0 3 0;
#X connect 9 0 3 1;
#X connect 10 0 5 0;
#X connect 11 0 1 0;
#X connect 11 0 8 0;
#X connect 12 0 11 0;
#X connect 13 0 14 0;
#X connect 14 0 7 0;
#X restore 560 266 pd vu-meter;
#N canvas 804 215 234 347 vu-meter 0;
#X floatatom 81 206 5 0 0 0 - - - 0;
#X obj 81 177 max;
#X msg 99 149 0, f 2;
#X obj 26 265 pack f f;
#X obj 99 106 metro \$1;
#X obj 98 47 t b b;
#X msg 152 78 5000;
#X obj 26 296 outlet vu-meter;
#X obj 26 236 - 100;
#X obj 79 235 - 100;
#X obj 98 17 r init;
#X obj 25 105 env~ 2048;
#X obj 24 16 inlet~;
#X obj 141 213 r vu-0;
#X msg 140 239 -100 -100;
#X connect 0 0 1 1;
#X connect 0 0 9 0;
#X connect 1 0 0 0;
#X connect 2 0 1 1;
#X connect 3 0 7 0;
#X connect 4 0 2 0;
#X connect 5 0 4 0;
#X connect 5 1 6 0;
#X connect 6 0 4 1;
#X connect 8 0 3 0;
#X connect 9 0 3 1;
#X connect 10 0 5 0;
#X connect 11 0 1 0;
#X connect 11 0 8 0;
#X connect 12 0 11 0;
#X connect 13 0 14 0;
#X connect 14 0 7 0;
#X restore 684 263 pd vu-meter;
#N canvas 514 472 188 243 loop1-gain 0;
#X obj 34 197 outlet;
#N canvas 126 632 159 184 guilabel 0;
#X msg 43 107 label \$1;
#X obj 43 26 inlet;
#X obj 43 132 outlet;
#X obj 43 79 makefilename %s;
#N canvas 371 178 187 217 round 0;
#X msg 107 79 10;
#X obj 107 56 loadbang;
#X obj 27 84 * 1;
#X obj 27 19 inlet;
#X obj 68 131 / 1;
#X msg 68 109 1;
#X obj 27 109 + 0.5;
#X obj 27 134 div;
#X obj 27 181 outlet;
#X obj 27 157 * 1;
#X obj 107 102 pow 2;
#X obj 27 45 t f b;
#X connect 0 0 10 0;
#X connect 1 0 0 0;
#X connect 2 0 6 0;
#X connect 3 0 11 0;
#X connect 4 0 9 1;
#X connect 5 0 4 0;
#X connect 6 0 7 0;
#X connect 7 0 9 0;
#X connect 9 0 8 0;
#X connect 10 0 2 1;
#X connect 10 0 4 1;
#X connect 10 0 5 0;
#X connect 11 0 2 0;
#X connect 11 1 0 0;
#X restore 43 53 pd round;
#X connect 0 0 2 0;
#X connect 1 0 4 0;
#X connect 3 0 0 0;
#X connect 4 0 3 0;
#X restore 43 109 pd guilabel;
#X obj 35 59 line \$1 100;
#X floatatom 34 166 5 0 0 0 - - - 0;
#X obj 36 85 s 1-loop-gain-in;
#X obj 34 134 r 1-loop-gain-out;
#X obj 35 28 r 1-loop-in;
#X connect 1 0 4 0;
#X connect 2 0 4 0;
#X connect 3 0 0 0;
#X connect 5 0 1 0;
#X connect 5 0 3 0;
#X connect 6 0 2 0;
#X restore 562 206 pd loop1-gain;
#N canvas 514 328 195 263 loop2-gain 0;
#X obj 26 209 outlet;
#N canvas 126 632 159 184 guilabel 0;
#X msg 43 107 label \$1;
#X obj 43 26 inlet;
#X obj 43 132 outlet;
#X obj 43 79 makefilename %s;
#N canvas 371 178 187 217 round 0;
#X msg 107 79 10;
#X obj 107 56 loadbang;
#X obj 27 84 * 1;
#X obj 27 19 inlet;
#X obj 68 131 / 1;
#X msg 68 109 1;
#X obj 27 109 + 0.5;
#X obj 27 134 div;
#X obj 27 181 outlet;
#X obj 27 157 * 1;
#X obj 107 102 pow 2;
#X obj 27 45 t f b;
#X connect 0 0 10 0;
#X connect 1 0 0 0;
#X connect 2 0 6 0;
#X connect 3 0 11 0;
#X connect 4 0 9 1;
#X connect 5 0 4 0;
#X connect 6 0 7 0;
#X connect 7 0 9 0;
#X connect 9 0 8 0;
#X connect 10 0 2 1;
#X connect 10 0 4 1;
#X connect 10 0 5 0;
#X connect 11 0 2 0;
#X connect 11 1 0 0;
#X restore 43 53 pd round;
#X connect 0 0 2 0;
#X connect 1 0 4 0;
#X connect 3 0 0 0;
#X connect 4 0 3 0;
#X restore 35 121 pd guilabel;
#X obj 27 71 line \$1 100;
#X floatatom 26 178 5 0 0 0 - - - 0;
#X obj 28 97 s 2-loop-gain-in;
#X obj 26 147 r 2-loop-gain-out;
#X obj 29 37 r 2-loop-in;
#X connect 1 0 4 0;
#X connect 2 0 4 0;
#X connect 3 0 0 0;
#X connect 5 0 1 0;
#X connect 5 0 3 0;
#X connect 6 0 2 0;
#X restore 690 202 pd loop2-gain;
#X obj 560 303 s loop1-out-vu;
#X obj 684 301 s loop2-out-vu;
#X obj 177 281 s dl2-out-vu;
#N canvas 472 379 390 406 input 0;
#X text 51 38 Input \; - Microphone in \; OR \; - Simulation (Reaper -> Soundflower (2ch) \; OR \;;
#X obj 60 154 tgl 15 0 empty empty empty 17 7 0 10 #fcfcfc #000000 #000000 0 1;
#X obj 60 339 s~ 1-sim;
#X obj 75 311 s~ 2-sim;
#X obj 59 175 t f b f;
#X obj 105 204 s sim-switch;
#X msg 145 282 1;
#X obj 60 124 r simulation;
#X obj 60 282 readsf~;
#X msg 82 241 open Flor-Gliss.wav;
#X obj 223 201 declare -path abs;
#X connect 1 0 4 0;
#X connect 4 0 8 0;
#X connect 4 1 9 0;
#X connect 4 2 5 0;
#X connect 6 0 4 0;
#X connect 7 0 1 0;
#X connect 8 0 2 0;
#X connect 8 0 3 0;
#X connect 8 1 6 0;
#X connect 9 0 8 0;
#X restore 79 35 pd input / simulation;
#X obj 808 555 dac~ 1 2;
#N canvas 63 101 450 300 3-lop~ 0;
#X obj 184 81 lop~ 3000;
#X obj 184 57 inlet~;
#X obj 184 105 lop~ 3000;
#X obj 184 129 lop~ 3000;
#X obj 184 153 outlet~;
#X connect 0 0 2 0;
#X connect 1 0 0 0;
#X connect 2 0 3 0;
#X connect 3 0 4 0;
#X restore 326 273 pd 3-lop~;
#N canvas 63 101 450 300 3-lop~ 0;
#X obj 184 81 lop~ 3000;
#X obj 184 57 inlet~;
#X obj 184 105 lop~ 3000;
#X obj 184 129 lop~ 3000;
#X obj 184 153 outlet~;
#X connect 0 0 2 0;
#X connect 1 0 0 0;
#X connect 2 0 3 0;
#X connect 3 0 4 0;
#X restore 441 280 pd 3-lop~;
#X text 158 145 multi-delays;
#X text 339 157 drone;
#X text 563 142 loops;
#X text 37 553 direct out 1;
#X text 127 377 input 1 (git 1);
#X text 348 401 input 2 (git 2);
#X text 261 574 direct out 2;
#X text 636 20 noise generator for subtractive synthesis, f 23;
#X text 981 75 general on/off toggle;
#X text 795 193 catch all outputs;
#X text 81 14 simulation;
#X text 76 65 input abstractions;
#X text 286 12 cues (abs) for git 1;
#X text 286 64 cues (abs) for git 2;
#X connect 0 0 4 0;
#X connect 1 0 5 0;
#X connect 2 0 3 0;
#X connect 3 0 5 1;
#X connect 3 0 4 1;
#X connect 4 0 26 0;
#X connect 4 0 77 0;
#X connect 5 0 28 0;
#X connect 5 0 77 1;
#X connect 7 0 12 0;
#X connect 7 0 2 0;
#X connect 12 0 13 0;
#X connect 13 0 11 0;
#X connect 13 1 10 0;
#X connect 16 0 17 0;
#X connect 18 0 79 0;
#X connect 19 0 78 0;
#X connect 20 0 23 0;
#X connect 22 0 19 0;
#X connect 22 1 18 0;
#X connect 24 0 18 1;
#X connect 24 0 19 1;
#X connect 25 0 2 0;
#X connect 26 0 27 0;
#X connect 28 0 29 0;
#X connect 30 0 31 0;
#X connect 31 0 58 0;
#X connect 32 0 33 0;
#X connect 32 0 35 0;
#X connect 35 0 42 0;
#X connect 36 0 37 0;
#X connect 36 0 39 0;
#X connect 39 0 43 0;
#X connect 40 0 32 1;
#X connect 41 0 36 1;
#X connect 46 0 47 0;
#X connect 46 1 49 0;
#X connect 47 0 44 0;
#X connect 47 0 51 0;
#X connect 48 0 47 1;
#X connect 49 0 45 0;
#X connect 49 0 52 0;
#X connect 50 0 49 1;
#X connect 51 0 55 0;
#X connect 52 0 75 0;
#X connect 53 0 32 0;
#X connect 54 0 36 0;
#X connect 58 0 60 0;
#X connect 60 0 61 0;
#X connect 61 0 62 0;
#X connect 61 1 2 0;
#X connect 62 0 6 0;
#X connect 63 0 67 0;
#X connect 63 1 68 0;
#X connect 64 0 60 0;
#X connect 67 0 65 0;
#X connect 67 0 69 0;
#X connect 68 0 66 0;
#X connect 68 0 70 0;
#X connect 69 0 73 0;
#X connect 70 0 74 0;
#X connect 71 0 67 1;
#X connect 72 0 68 1;
#X connect 78 0 14 0;
#X connect 78 0 20 0;
#X connect 79 0 15 0;
#X connect 79 0 20 0;
#X restore 895 375 pd INSIDE;
#N canvas 1046 392 306 325 init 0;
#X obj 30 30 loadbang;
#X obj 30 76 s init;
#X obj 156 34 r init;
#X obj 30 55 bng 15 250 50 0 empty empty empty 17 7 0 10 #fcfcfc #000000 #000000;
#X msg 156 70 \; synth-gain 1.6 \; main-vol 1 \; gain-in-1 1.5 \; gain-in-2 1.5 \; git1-out 1 \; git2-out 1 \; 1-delay-in 0.8 \; 2-delay-in 0.8 \; simulation 0 \; 1-loop-in 0.3 \; 2-loop-in 0.3 \;;
#X connect 0 0 3 0;
#X connect 2 0 4 0;
#X connect 3 0 1 0;
#X restore 889 119 pd init;
#X obj 815 122 tgl 20 0 open-init dummy-open-init Open 25 8 0 10 #fcfcfc #000000 #000000 0 1;
#N canvas 295 333 225 157 open 0;
#X obj 29 25 r open-init;
#X msg 29 53 \; pd-init vis \$1;
#X connect 0 0 1 0;
#X restore 951 120 pd open init;
#X coords 0 -1 1 1 864 486 2 20 20;
#X restore 5 6 pd flor;
#X coords 0 0 1 1 85 60 0;
