#N struct 1004-controller float x0 float y0 float id float color;
#N canvas 378 192 790 342 10;
#N canvas 666 239 489 539 controller 0;
#X msg 316 399 traverse \$1 \, bang;
#X obj 316 420 pointer;
#X obj 76 478 outlet;
#X obj 76 202 inlet;
#X msg 139 231 1;
#X obj 23 60 outlet;
#X obj 23 35 struct \$0-controller float x0 float y0 float id float
color;
#X obj 76 260 t a a b b b;
#X obj 77 381 pack 0 0;
#X obj 76 442 append \$0-controller x0 y0 id color;
#X obj 316 292 symbol \$0-show;
#X obj 316 372 makefilename pd-%s;
#X text 153 352 make colorful;
#X text 178 161 polygon-indices;
#X floatatom 95 231 5 0 0 0 - - -, f 5;
#X msg 76 417 100 100 \$1 \$2;
#X obj 125 334 expr 255 * pow(2 \, $f1);
#X obj 22 99 filledpolygon color 999 1 x0(0:200)(0:200) y0(0:200)(0:200)
x0(0:200)(10:210) y0(0:200)(0:200) x0(0:200)(10:210) y0(0:200)(10:210)
x0(0:200)(0:200) y0(0:200)(10:210);
#X obj 23 163 drawnumber id x0 y0 999;
#X text 24 -16 data-structures implementation von frank barknecht (leicht
modifiziert von mir);
#X connect 0 0 1 0;
#X connect 1 0 9 4;
#X connect 3 0 7 0;
#X connect 4 0 7 0;
#X connect 6 0 5 0;
#X connect 7 0 8 0;
#X connect 7 1 16 0;
#X connect 7 4 10 0;
#X connect 8 0 15 0;
#X connect 9 0 2 0;
#X connect 10 0 11 0;
#X connect 11 0 0 0;
#X connect 14 0 7 0;
#X connect 15 0 9 0;
#X connect 16 0 8 1;
#X restore 395 99 pd controller;
#N canvas 0 22 243 160 \$0-pointer-pool 0;
#X obj 100 100 ctl-parser 2 1004;
#X obj 100 100 ctl-parser 1 1004;
#X restore 333 281 pd \$0-pointer-pool;
#X obj 629 173 makefilename pd-%s;
#X obj 629 150 symbol \$0-pointer-pool;
#X obj 567 205 pack 0 \$0 s;
#X msg 567 228 \; \$3 obj 100 100 ctl-parser \$1 \$2;
#X msg 331 228 clear;
#X obj 470 123 t p p;
#X obj 470 244 s \$0-pointer;
#X obj 470 209 pack 0 p;
#X obj 470 179 t f f;
#X obj 277 155 r \$0-result;
#X obj 629 124 loadbang;
#N canvas 0 22 378 213 clear-all 0;
#X msg 22 128 \; \$1 clear;
#X obj 187 107 makefilename pd-%s;
#X obj 187 77 symbol \$0-show;
#X obj 22 106 makefilename pd-%s;
#X obj 22 76 symbol \$0-pointer-pool;
#X obj 22 45 t b b;
#X obj 22 19 inlet;
#X connect 1 0 0 0;
#X connect 2 0 1 0;
#X connect 3 0 0 0;
#X connect 4 0 3 0;
#X connect 5 0 4 0;
#X connect 5 1 2 0;
#X connect 6 0 5 0;
#X restore 332 254 pd clear-all;
#X obj 341 204 loadbang;
#X obj 263 181 outlet;
#X obj 276 123 s \$0-set;
#X obj 260 23 inlet;
#N canvas 62 148 236 220 output 0;
#X obj 43 32 inlet;
#X obj 43 66 route change;
#X obj 43 147 pack 0 0 0;
#X obj 42 181 s \$0-result;
#X obj 41 98 get \$0-controller id x0 y0;
#X connect 0 0 1 0;
#X connect 1 0 4 0;
#X connect 2 0 3 0;
#X connect 4 0 2 0;
#X connect 4 1 2 1;
#X connect 4 2 2 2;
#X restore 395 124 pd output;
#X obj 331 10 inlet;
#N canvas 192 76 956 436 routefirst 0;
#X obj 25 17 inlet;
#X obj 368 14 inlet;
#X obj 21 165 once;
#X obj 53 169 once;
#X obj 85 168 once;
#X obj 117 168 once;
#X obj 367 67 bng 15 250 50 0 empty empty empty 17 7 0 10 -262144 -1
-1;
#X obj 158 169 once;
#X obj 190 169 once;
#X obj 222 168 once;
#X obj 254 168 once;
#X obj 290 170 once;
#X obj 322 169 once;
#X obj 383 170 once;
#X obj 23 206 f 1;
#X obj 53 207 f 2;
#X obj 85 206 f 3;
#X obj 115 207 f 4;
#X obj 157 203 f 5;
#X obj 187 204 f 6;
#X obj 219 203 f 7;
#X obj 249 204 f 8;
#X obj 297 200 f 9;
#X obj 329 199 f 10;
#X obj 661 245 t b b;
#X obj 658 197 once;
#X obj 659 221 sel 1;
#X obj 687 265 f;
#X obj 675 135 t f f;
#X msg 666 319 ctl-point-nr.: \$1 -> !!! out of range !!!;
#X obj 19 386 outlet;
#X obj 23 42 list split 1;
#X text 36 183 mehrfach dieselben ctl-points vermeiden;
#X obj 358 342 f 0;
#X obj 386 342 + 1;
#X text 233 366 nr of active ctl-pts;
#X floatatom 365 365 5 0 0 0 - - -, f 5;
#X obj 19 359 t a b b;
#X msg 375 320 1;
#X obj 358 388 outlet;
#X obj 690 345 print control_grid-ERROR;
#X obj 418 170 once;
#X obj 454 170 once;
#X obj 490 169 once;
#X obj 524 168 once;
#X obj 562 169 once;
#X obj 570 200 f 16;
#X obj 391 201 f 11;
#X obj 426 201 f 12;
#X obj 462 200 f 13;
#X obj 498 200 f 14;
#X obj 532 199 f 15;
#X obj 22 69 sel 1 2 3 4 5 6 7 8 9 10 11 12 13 14 15 16;
#X obj 658 161 > 16;
#X msg 694 295 MAX ctl-points: 16;
#X text 659 110 ERROR-msg if ctl-pnt-nr > 16;
#X connect 0 0 31 0;
#X connect 1 0 6 0;
#X connect 2 0 14 0;
#X connect 3 0 15 0;
#X connect 4 0 16 0;
#X connect 5 0 17 0;
#X connect 6 0 5 1;
#X connect 6 0 4 1;
#X connect 6 0 3 1;
#X connect 6 0 2 1;
#X connect 6 0 7 1;
#X connect 6 0 8 1;
#X connect 6 0 9 1;
#X connect 6 0 10 1;
#X connect 6 0 11 1;
#X connect 6 0 12 1;
#X connect 6 0 13 1;
#X connect 6 0 25 1;
#X connect 6 0 38 0;
#X connect 6 0 41 1;
#X connect 6 0 42 1;
#X connect 6 0 43 1;
#X connect 6 0 44 1;
#X connect 6 0 45 1;
#X connect 7 0 18 0;
#X connect 8 0 19 0;
#X connect 9 0 20 0;
#X connect 10 0 21 0;
#X connect 11 0 22 0;
#X connect 12 0 23 0;
#X connect 13 0 47 0;
#X connect 14 0 37 0;
#X connect 15 0 37 0;
#X connect 16 0 37 0;
#X connect 17 0 37 0;
#X connect 18 0 37 0;
#X connect 19 0 37 0;
#X connect 20 0 37 0;
#X connect 21 0 37 0;
#X connect 22 0 37 0;
#X connect 23 0 37 0;
#X connect 24 0 54 0;
#X connect 24 1 27 0;
#X connect 25 0 26 0;
#X connect 26 0 24 0;
#X connect 27 0 29 0;
#X connect 28 0 53 0;
#X connect 28 1 27 1;
#X connect 29 0 40 0;
#X connect 31 0 52 0;
#X connect 33 0 34 0;
#X connect 33 0 36 0;
#X connect 33 0 39 0;
#X connect 34 0 33 1;
#X connect 37 0 30 0;
#X connect 37 1 25 1;
#X connect 37 2 33 0;
#X connect 38 0 33 1;
#X connect 41 0 48 0;
#X connect 42 0 49 0;
#X connect 43 0 50 0;
#X connect 44 0 51 0;
#X connect 45 0 46 0;
#X connect 46 0 37 0;
#X connect 47 0 37 0;
#X connect 48 0 37 0;
#X connect 49 0 37 0;
#X connect 50 0 37 0;
#X connect 51 0 37 0;
#X connect 52 0 2 0;
#X connect 52 1 3 0;
#X connect 52 2 4 0;
#X connect 52 3 5 0;
#X connect 52 4 7 0;
#X connect 52 5 8 0;
#X connect 52 6 9 0;
#X connect 52 7 10 0;
#X connect 52 8 11 0;
#X connect 52 9 12 0;
#X connect 52 10 13 0;
#X connect 52 11 41 0;
#X connect 52 12 42 0;
#X connect 52 13 43 0;
#X connect 52 14 44 0;
#X connect 52 15 45 0;
#X connect 52 16 28 0;
#X connect 53 0 25 0;
#X connect 54 0 40 0;
#X restore 395 77 pd routefirst;
#X text 375 7 new controller point/clear;
#X obj 331 31 route clear;
#X obj 470 150 get \$0-controller id;
#X obj 262 45 t l l;
#X obj 5 32 cnv 15 220 245 empty empty control_grid 10 13 0 12 -66577
-262144 0;
#X text 14 12 see [control_grid-help] for more info;
#X text 11 -3 [control_grid] zur steuerung von x/y-daten \;;
#N canvas 177 297 646 460 \$0-show 0;
#X scalar 1004-controller 100 100 1 510 \;;
#X scalar 1004-controller 167 140 2 1020 \;;
#X coords 0 210 210 0 210 210 2 0 0;
#X restore 10 53 pd \$0-show;
#X obj 513 100 outlet;
#X text 556 100 nr of active points;
#N canvas 531 181 282 311 clip 0;
#X obj -48 13 inlet;
#X obj -46 276 outlet;
#X text -3 11 clip if out of range;
#X obj -47 42 unpack f f f;
#X obj -12 94 min 200;
#X obj -13 116 max 0;
#X obj 38 94 min 200;
#X obj 37 116 max 0;
#X obj -45 139 pack f f f;
#X text -13 157 controller-range x/y jew. 0 bis 200;
#X obj -23 184 > 16;
#X obj -23 205 sel 0 1;
#X obj -46 253 spigot 0;
#X msg -24 225 1;
#X msg 5 226 0;
#X obj -49 62 t f f;
#X text 17 250 block data with idx > 16;
#X connect 0 0 3 0;
#X connect 3 0 15 0;
#X connect 3 1 4 0;
#X connect 3 2 6 0;
#X connect 4 0 5 0;
#X connect 5 0 8 1;
#X connect 6 0 7 0;
#X connect 7 0 8 2;
#X connect 8 0 12 0;
#X connect 10 0 11 0;
#X connect 11 0 13 0;
#X connect 11 1 14 0;
#X connect 12 0 1 0;
#X connect 13 0 12 1;
#X connect 14 0 12 1;
#X connect 15 0 8 0;
#X connect 15 1 10 0;
#X restore 262 98 pd clip;
#X text 624 22 (c) doettlinger 2012;
#X text 612 35 SEM MOZARTEUM SALZBURG;
#X text 20 286 data-structures implementation von frank barknecht;
#X connect 0 0 18 0;
#X connect 0 1 7 0;
#X connect 2 0 4 2;
#X connect 3 0 2 0;
#X connect 4 0 5 0;
#X connect 6 0 13 0;
#X connect 7 0 23 0;
#X connect 7 1 9 1;
#X connect 9 0 8 0;
#X connect 10 0 9 0;
#X connect 10 1 4 0;
#X connect 11 0 15 0;
#X connect 12 0 3 0;
#X connect 14 0 6 0;
#X connect 17 0 24 0;
#X connect 19 0 22 0;
#X connect 20 0 0 0;
#X connect 20 1 29 0;
#X connect 22 0 6 0;
#X connect 22 0 20 1;
#X connect 22 1 20 0;
#X connect 23 0 10 0;
#X connect 24 0 31 0;
#X connect 24 1 20 0;
#X connect 31 0 16 0;
#X connect 31 0 15 0;
#X coords 0 -1 1 1 220 245 1 5 32;
