#N canvas 392 294 319 236 10;
#X obj 208 106 route \$1;
#X text 96 78 args: id \, \$0;
#X obj 208 77 r \$2-pointer;
#X obj 52 132 r \$2-set;
#X obj 52 156 route \$1;
#X obj 52 180 set \$2-controller x0 y0;
#X connect 0 0 5 2;
#X connect 2 0 0 0;
#X connect 3 0 4 0;
#X connect 4 0 5 0;
