#N canvas 646 207 519 287 10;
#X obj 20 25 route \$1;
#X text 124 3 idx/x/y - stream;
#X obj 16 222 *~;
#X obj 91 222 *~;
#X obj 165 223 *~;
#X obj 256 222 *~;
#X obj 20 69 unpack f f;
#X text 46 88 x/y;
#X obj 15 250 throw~ chn1;
#X obj 89 249 throw~ chn2;
#X obj 167 250 throw~ chn3;
#X obj 256 250 throw~ chn4;
#X text 377 218 [1]________[2] \; ______________ \; [3]________[4]
\;;
#N canvas 312 241 580 364 quadrophonic 0;
#X obj 71 65 / 200;
#X obj 264 66 / 200;
#X obj 138 203 *;
#X obj 191 203 *;
#X obj 28 205 *;
#X obj 83 205 *;
#X obj 40 114 expr (0.5*(1+cos((3.14159+3.14159*2*(($f1*0.5)+0.5)))))
;
#X obj 209 138 expr (0.5*(1+cos((3.14159+3.14159*2*(($f1*0.5)+0.5)))))
;
#X obj 71 40 inlet;
#X obj 264 41 inlet;
#X msg 58 264 50;
#X msg 113 263 50;
#X msg 168 262 50;
#X msg 221 261 50;
#X obj 28 288 line~;
#X obj 83 287 line~;
#X obj 138 286 line~;
#X obj 191 285 line~;
#X obj 28 314 outlet~;
#X obj 83 313 outlet~;
#X obj 138 313 outlet~;
#X obj 191 313 outlet~;
#X obj 28 228 t f b;
#X obj 83 228 t f b;
#X obj 138 227 t f b;
#X obj 191 227 t f b;
#X text 255 260 geringe ctl-point-auflösung wird mit lines ausgegl.
;
#X connect 0 0 6 0;
#X connect 0 0 5 0;
#X connect 0 0 3 0;
#X connect 1 0 4 1;
#X connect 1 0 5 1;
#X connect 1 0 7 0;
#X connect 2 0 24 0;
#X connect 3 0 25 0;
#X connect 4 0 22 0;
#X connect 5 0 23 0;
#X connect 6 0 4 0;
#X connect 6 0 2 0;
#X connect 7 0 3 1;
#X connect 7 0 2 1;
#X connect 8 0 0 0;
#X connect 9 0 1 0;
#X connect 10 0 14 1;
#X connect 11 0 15 1;
#X connect 12 0 16 1;
#X connect 13 0 17 1;
#X connect 14 0 18 0;
#X connect 15 0 19 0;
#X connect 16 0 20 0;
#X connect 17 0 21 0;
#X connect 22 0 14 0;
#X connect 22 1 10 0;
#X connect 23 0 15 0;
#X connect 23 1 11 0;
#X connect 24 0 16 0;
#X connect 24 1 12 0;
#X connect 25 0 17 0;
#X connect 25 1 13 0;
#X restore 28 138 pd quadrophonic panning _________________;
#X obj 20 3 r xy-data-stream;
#X obj 390 4 r~ sig-\$1;
#X obj 257 72 once;
#X obj 20 48 t a b;
#X obj 278 7 r clear-grid;
#X msg 416 114 1;
#X obj 279 29 t b b;
#X msg 409 92 0;
#X obj 390 182 *~;
#X obj 408 139 pack f 5;
#X obj 409 160 line~;
#X text 403 56 nur i/o \; keine fades!!!;
#X connect 0 0 17 0;
#X connect 2 0 8 0;
#X connect 3 0 9 0;
#X connect 4 0 10 0;
#X connect 5 0 11 0;
#X connect 6 0 13 0;
#X connect 6 1 13 1;
#X connect 13 0 2 1;
#X connect 13 1 3 1;
#X connect 13 2 4 1;
#X connect 13 3 5 1;
#X connect 14 0 0 0;
#X connect 15 0 22 0;
#X connect 16 0 19 0;
#X connect 17 0 6 0;
#X connect 17 1 16 0;
#X connect 18 0 20 0;
#X connect 19 0 23 0;
#X connect 20 0 16 1;
#X connect 20 1 21 0;
#X connect 21 0 23 0;
#X connect 22 0 2 0;
#X connect 22 0 3 0;
#X connect 22 0 4 0;
#X connect 22 0 5 0;
#X connect 23 0 24 0;
#X connect 24 0 22 1;
