#N canvas 602 385 510 403 12;
#N canvas 0 22 450 300 (subpatch) 0;
#X array \$0-wavetable1 128 float 1;
#A 0 0 0 0 0 0 0 0 0 0 0 0 0 0 0 0 0 0 0 0 0 0 0 0 0 0 0 0 0 0 0 0 0 0 0 0 0 0 0 0 0 0 0 0 0 0 0 0 0 0 0 0 0 0 0 0 0 0 0 0 0 0 0 0 0 0 0 0 0 0 0 0 0 0 0 0 0 0 0 0 0 0 0 0 0 0 0 0 0 0 0 0 0 0 0 0 0 0 0 0 0 0 0 0 0 0 0 0 0 0 0 0 0 0 0 0 0 0 0 0 0 0 0 0 0 0 0 0 0;
#X coords 0 1 127 -1 200 140 1;
#X restore 256 40 graph;
#X obj 40 132 noise~;
#X obj 40 246 *~;
#X obj 41 296 dac~;
#N canvas 0 22 450 300 (subpatch) 0;
#X array \$0-frequencies 256 float 0;
#X coords 0 100 255 0 200 130 1;
#X restore 253 219 graph;
#X obj 72 161 hsl 128 15 0 3000 0 0 empty empty 0_-_3000_Hz 20 8 1 12 #fcfcfc #000000 #000000 0 1;
#X text 432 351 500 Hz;
#X text 250 350 0 Hz;
#X text 231 168 -1;
#X text 239 100 0;
#X text 239 33 1;
#X obj 62 221 hsl 128 15 0 1 0 0 empty empty empty -2 -8 0 10 #fcfcfc #000000 #000000 0 1;
#X obj 40 183 lop~;
#X text 38 73 Lowpass Filter;
#N canvas 121 159 392 222 show 0;
#X obj 196 172 tabwrite~ \$0-wavetable1;
#X obj 196 142 metro 30;
#N canvas 45 83 488 322 fft 0;
#X obj 19 61 inlet~;
#X obj 95 214 inlet;
#X obj 29 92 rfft~;
#X obj 29 125 *~;
#X obj 60 125 *~;
#X obj 29 155 sqrt~;
#X obj 332 109 block~ 4096 1;
#X obj 29 181 biquad~ 0 0 0 0 1;
#X text 93 93 Fourier series;
#X text 98 146 magnitude;
#X text 96 131 calculate;
#X text 21 3 This subpatch computes the spectrum of the incoming signal with a (rectangular windowed) FFT. FFTs aren't properly introduced until much later.;
#X text 83 61 signal to analyze;
#X text 192 166 delay two samples;
#X text 191 182 for better graphing;
#X text 145 216 "bang" into this inlet to graph it;
#X obj 95 248 tabwrite~ \$0-frequencies;
#X obj 20 281 tabwrite~ \$0-frequencies;
#X connect 0 0 2 0;
#X connect 0 0 17 0;
#X connect 1 0 16 0;
#X connect 1 0 17 0;
#X connect 2 0 3 0;
#X connect 2 0 3 1;
#X connect 2 1 4 0;
#X connect 2 1 4 1;
#X connect 3 0 5 0;
#X connect 4 0 5 0;
#X connect 5 0 7 0;
#X connect 7 0 16 0;
#X restore 46 172 pd fft;
#X obj 85 142 metro 30;
#X obj 85 120 tgl 15 0 empty empty empty 17 7 0 10 #fcfcfc #000000 #000000 0 1;
#X obj 196 118 tgl 15 0 empty empty empty 17 7 0 10 #fcfcfc #000000 #000000 0 1;
#X obj 47 27 inlet~;
#X obj 126 26 loadbang;
#X connect 1 0 0 0;
#X connect 3 0 2 1;
#X connect 4 0 3 0;
#X connect 5 0 1 0;
#X connect 6 0 0 0;
#X connect 6 0 2 0;
#X connect 7 0 5 0;
#X connect 7 0 4 0;
#X restore 95 296 pd show;
#X connect 1 0 12 0;
#X connect 2 0 3 0;
#X connect 2 0 3 1;
#X connect 2 0 14 0;
#X connect 5 0 12 1;
#X connect 11 0 2 1;
#X connect 12 0 2 0;
