#N canvas 195 388 660 536 12;
#N canvas 0 22 450 300 (subpatch) 0;
#X array \$0-wavetable1 128 float 1;
#A 0 0 0 0 0 0 0 0 0 0 0 0 0 0 0 0 0 0 0 0 0 0 0 0 0 0 0 0 0 0 0 0 0 0 0 0 0 0 0 0 0 0 0 0 0 0 0 0 0 0 0 0 0 0 0 0 0 0 0 0 0 0 0 0 0 0 0 0 0 0 0 0 0 0 0 0 0 0 0 0 0 0 0 0 0 0 0 0 0 0 0 0 0 0 0 0 0 0 0 0 0 0 0 0 0 0 0 0 0 0 0 0 0 0 0 0 0 0 0 0 0 0 0 0 0 0 0 0 0;
#X coords 0 1 127 -1 200 140 1;
#X restore 403 69 graph;
#X obj 70 104 noise~;
#X obj 69 310 *~;
#X obj 59 355 dac~;
#N canvas 0 22 450 300 (subpatch) 0;
#X array \$0-frequencies 256 float 0;
#X coords 0 100 255 0 200 130 1;
#X restore 400 248 graph;
#X obj 82 134 hsl 128 15 10 6000 0 0 empty filt-hz 1_-_6000_Hz 20 8 1 12 #fcfcfc #000000 #000000 0 1;
#X text 579 380 500 Hz;
#X text 397 379 0 Hz;
#X text 378 197 -1;
#X text 386 129 0;
#X text 386 62 1;
#X obj 69 260 bp~;
#X obj 93 216 hsl 128 15 1 1000 0 0 empty filt-q Q 20 8 1 12 #fcfcfc #000000 #000000 0 1;
#X text 55 417 PD also includes \, [vcf~] which works just like [bp~] but takes a signal for cutoff \, allowing for smooth changes in frequency.;
#X floatatom 90 238 5 0 0 0 - - - 0;
#X obj 90 288 hsl 128 15 0 1 0 0 empty empty empty -2 -8 0 10 #fcfcfc #000000 #000000 0 1;
#X floatatom 79 164 5 0 0 0 - - - 0;
#X obj 264 102 loadbang;
#X obj 264 126 tgl 19 0 empty empty empty 0 -10 0 12 #fcfcfc #000000 #000000 0 1;
#X obj 188 24 bp~;
#X text 65 24 bandpass filter;
#N canvas 121 159 392 222 show 0;
#X obj 196 172 tabwrite~ \$0-wavetable1;
#X obj 196 142 metro 30;
#N canvas 45 83 488 322 fft 0;
#X obj 19 61 inlet~;
#X obj 95 214 inlet;
#X obj 29 92 rfft~;
#X obj 29 125 *~;
#X obj 60 125 *~;
#X obj 29 155 sqrt~;
#X obj 332 109 block~ 4096 1;
#X obj 29 181 biquad~ 0 0 0 0 1;
#X text 93 93 Fourier series;
#X text 98 146 magnitude;
#X text 96 131 calculate;
#X text 21 3 This subpatch computes the spectrum of the incoming signal with a (rectangular windowed) FFT. FFTs aren't properly introduced until much later.;
#X text 83 61 signal to analyze;
#X text 192 166 delay two samples;
#X text 191 182 for better graphing;
#X text 145 216 "bang" into this inlet to graph it;
#X obj 95 248 tabwrite~ \$0-frequencies;
#X obj 20 281 tabwrite~ \$0-frequencies;
#X connect 0 0 2 0;
#X connect 0 0 17 0;
#X connect 1 0 16 0;
#X connect 1 0 17 0;
#X connect 2 0 3 0;
#X connect 2 0 3 1;
#X connect 2 1 4 0;
#X connect 2 1 4 1;
#X connect 3 0 5 0;
#X connect 4 0 5 0;
#X connect 5 0 7 0;
#X connect 7 0 16 0;
#X restore 46 172 pd fft;
#X obj 85 142 metro 30;
#X obj 85 120 tgl 15 0 empty empty empty 17 7 0 10 #fcfcfc #000000 #000000 0 1;
#X obj 196 118 tgl 15 0 empty empty empty 17 7 0 10 #fcfcfc #000000 #000000 0 1;
#X obj 47 27 inlet~;
#X obj 126 26 loadbang;
#X connect 1 0 0 0;
#X connect 3 0 2 1;
#X connect 4 0 3 0;
#X connect 5 0 1 0;
#X connect 6 0 0 0;
#X connect 6 0 2 0;
#X connect 7 0 5 0;
#X connect 7 0 4 0;
#X restore 108 355 pd show;
#X msg 264 150 \; filt-hz 500 \; filt-q 3 \; pd dsp \$1;
#X connect 1 0 11 0;
#X connect 2 0 3 0;
#X connect 2 0 3 1;
#X connect 2 0 21 0;
#X connect 5 0 16 0;
#X connect 11 0 2 0;
#X connect 12 0 14 0;
#X connect 14 0 11 2;
#X connect 15 0 2 1;
#X connect 16 0 11 1;
#X connect 17 0 18 0;
#X connect 18 0 22 0;
