#N canvas 211 160 681 593 12;
#N canvas 0 22 450 300 (subpatch) 0;
#X array \$0-wavetable1 128 float 1;
#A 0 -0.0275434 -0.0254094 -0.0031313 0.0190072 0.0323501 0.0304354 0.00729971 -0.0239734 -0.0336265 -0.0173917 0.00923433 0.0286204 0.0268653 0.00522547 -0.0162748 -0.0228764 -0.0178703 -0.00741938 0.00494625 0.0143202 0.0143202 0.0111889 0.00478669 -0.0113883 -0.0246116 -0.0165141 0.00169529 0.0134825 0.00975289 0.00360997 0.00867588 -0.0014759 -0.0204033 -0.0201241 -0.00694071 -0.00281218 0.00117673 0.0194459 0.0272243 0.0055047 -0.0252897 -0.0279423 -0.0104709 -0.000638226 0.0073396 0.0155966 0.0155966 0.000259279 -0.018349 -0.0256487 -0.0224376 -0.0170725 -0.00468697 0.0175313 0.017611 -0.00694071 -0.0228365 -0.0200443 -0.0101318 5.98337e-05 0.00490636 -0.00448753 -0.0117075 -0.00464708 0.0031313 0.00253296 0.000139612 -0.00650193 -0.0188875 -0.0161551 0.00498614 0.0200044 0.0164343 -0.0027324 -0.0204033 -0.0200044 0.000339058 0.0211811 0.0194858 0.00773849 -0.00187479 -0.0122659 -0.0114282 0.00510581 0.0115479 0.00261274 0.00125651 0.000418836 -0.00702048 -0.0118271 -0.00424819 0.0055047 0.00831688 0.0101518 0.00737949 0.00153573 -0.00957339 -0.0176709 -0.0129839 -0.00119667 0.0129241 0.0196454 0.016893 0.00205429 -0.0201241 -0.0281817 -0.0098925 0.009713 0.0119867 0.0109496 0.0055047 -0.0105108 -0.0188875 -0.00380941 0.0157562 0.0144 -0.00203434 -0.0121462 -0.0114681 -0.00694071 0.000737949 0.00566425 0.00594348 0.00510581 0.00265263 -0.00119667 -0.00448753 -0.00694071;
#X coords 0 1 127 -1 200 140 1;
#X restore 374 40 graph;
#X obj 56 122 noise~;
#X obj 52 481 *~;
#X obj 46 555 dac~;
#N canvas 0 22 450 300 (subpatch) 0;
#X array \$0-frequencies 256 float 0;
#X coords 0 100 255 0 200 130 1;
#X restore 371 219 graph;
#X text 550 351 500 Hz;
#X text 368 350 0 Hz;
#X text 349 168 -1;
#X text 357 100 0;
#X text 357 33 1;
#X obj 365 441 bng 15 250 50 0 empty empty load 18 8 0 12 #fcfcfc #000000 #000000;
#X obj 78 239 bng 15 250 50 0 empty play play_sample -10 -10 0 14 #fcfcfc #000000 #000000;
#X obj 56 194 *~;
#X obj 74 172 tgl 15 0 empty empty empty 0 -6 0 8 #fcfcfc #000000 #000000 0 1;
#X obj 228 236 spigot;
#X obj 266 215 tgl 15 0 empty loop loop -10 -10 0 14 #fcfcfc #000000 #000000 0 1;
#X obj 56 147 *~ 0.1;
#X text 92 171 noise on/off;
#X text 55 40 4-pol Highpass Filter;
#X obj 73 459 hsl 128 15 0 1 0 0 empty empty empty -2 -8 0 10 #fcfcfc #000000 #000000 0 1;
#X obj 365 414 loadbang;
#X obj 365 495 soundfiler;
#X obj 238 42 loadbang;
#X obj 238 69 tgl 19 0 empty empty empty 0 -10 0 12 #fcfcfc #000000 #000000 0 1;
#X obj 79 260 tabplay~ sample-13;
#X msg 365 466 read -resize ../Sounds/1-4.wav sample-13;
#X obj 365 525 table sample-13;
#X obj 85 299 hsl 128 15 0 6000 0 0 empty empty 0_-_6000_Hz 20 8 1 12 #fcfcfc #000000 #000000 0 1;
#X obj 129 408 hradio 15 1 0 5 empty empty empty 0 -6 0 8 #fcfcfc #000000 #000000 0;
#X text 126 391 off \, 1-4pol;
#N canvas 961 240 551 502 4pol-bp 0;
#X obj 264 100 change;
#X obj 264 72 > 0;
#X obj 265 132 tgl 15 0 empty empty empty 0 -6 0 8 #fcfcfc #000000 #000000 0 1;
#X obj 479 93 change;
#X obj 410 95 change;
#X obj 414 69 > 3;
#X obj 415 126 tgl 15 0 empty empty empty 0 -6 0 8 #fcfcfc #000000 #000000 0 1;
#X obj 482 127 tgl 15 0 empty empty empty 0 -6 0 8 #fcfcfc #000000 #000000 0 1;
#X obj 378 68 > 2;
#X obj 331 101 change;
#X obj 331 130 tgl 15 0 empty empty empty 0 -6 0 8 #fcfcfc #000000 #000000 0 1;
#X obj 331 71 > 1;
#X obj 111 34 inlet;
#X obj 151 459 outlet~;
#X obj 359 27 inlet;
#X obj 32 34 inlet~;
#X obj 113 228 bp~;
#X obj 194 281 bp~;
#X obj 276 344 bp~;
#X obj 357 408 bp~;
#X obj 180 34 inlet;
#N canvas 0 22 454 304 outswitch 0;
#X obj 75 99 inlet~;
#X obj 122 236 line~;
#X obj 210 179 line~;
#X obj 106 264 *~;
#X obj 193 267 *~;
#X obj 122 170 - 1;
#X obj 120 193 abs;
#X msg 121 213 \$1 30;
#X msg 210 151 \$1 30;
#X obj 209 98 inlet;
#X obj 193 289 outlet~;
#X obj 106 289 outlet~;
#X obj 123 127 loadbang;
#X connect 0 0 3 0;
#X connect 0 0 4 0;
#X connect 1 0 3 1;
#X connect 2 0 4 1;
#X connect 3 0 11 0;
#X connect 4 0 10 0;
#X connect 5 0 6 0;
#X connect 6 0 7 0;
#X connect 7 0 1 0;
#X connect 8 0 2 0;
#X connect 9 0 8 0;
#X connect 9 0 5 0;
#X connect 12 0 5 0;
#X restore 277 372 pd outswitch;
#N canvas 0 22 454 304 outswitch 0;
#X obj 75 99 inlet~;
#X obj 122 236 line~;
#X obj 210 179 line~;
#X obj 106 264 *~;
#X obj 193 267 *~;
#X obj 122 170 - 1;
#X obj 120 193 abs;
#X msg 121 213 \$1 30;
#X msg 210 151 \$1 30;
#X obj 209 98 inlet;
#X obj 193 289 outlet~;
#X obj 106 289 outlet~;
#X obj 123 127 loadbang;
#X connect 0 0 3 0;
#X connect 0 0 4 0;
#X connect 1 0 3 1;
#X connect 2 0 4 1;
#X connect 3 0 11 0;
#X connect 4 0 10 0;
#X connect 5 0 6 0;
#X connect 6 0 7 0;
#X connect 7 0 1 0;
#X connect 8 0 2 0;
#X connect 9 0 8 0;
#X connect 9 0 5 0;
#X connect 12 0 5 0;
#X restore 195 307 pd outswitch;
#N canvas 0 23 454 304 outswitch 0;
#X obj 75 99 inlet~;
#X obj 122 236 line~;
#X obj 210 179 line~;
#X obj 106 264 *~;
#X obj 193 267 *~;
#X obj 122 170 - 1;
#X obj 120 193 abs;
#X msg 121 213 \$1 30;
#X msg 210 151 \$1 30;
#X obj 209 98 inlet;
#X obj 193 289 outlet~;
#X obj 106 289 outlet~;
#X obj 123 127 loadbang;
#X connect 0 0 3 0;
#X connect 0 0 4 0;
#X connect 1 0 3 1;
#X connect 2 0 4 1;
#X connect 3 0 11 0;
#X connect 4 0 10 0;
#X connect 5 0 6 0;
#X connect 6 0 7 0;
#X connect 7 0 1 0;
#X connect 8 0 2 0;
#X connect 9 0 8 0;
#X connect 9 0 5 0;
#X connect 12 0 5 0;
#X restore 112 252 pd outswitch;
#N canvas 0 22 454 304 outswitch 0;
#X obj 75 99 inlet~;
#X obj 122 236 line~;
#X obj 210 179 line~;
#X obj 106 264 *~;
#X obj 193 267 *~;
#X obj 122 170 - 1;
#X obj 120 193 abs;
#X msg 121 213 \$1 30;
#X msg 210 151 \$1 30;
#X obj 209 98 inlet;
#X obj 193 289 outlet~;
#X obj 106 289 outlet~;
#X obj 123 127 loadbang;
#X connect 0 0 3 0;
#X connect 0 0 4 0;
#X connect 1 0 3 1;
#X connect 2 0 4 1;
#X connect 3 0 11 0;
#X connect 4 0 10 0;
#X connect 5 0 6 0;
#X connect 6 0 7 0;
#X connect 7 0 1 0;
#X connect 8 0 2 0;
#X connect 9 0 8 0;
#X connect 9 0 5 0;
#X connect 12 0 5 0;
#X restore 33 184 pd outswitch;
#X obj 458 285 bp~;
#X obj 458 309 bp~;
#X obj 458 333 bp~;
#X obj 458 357 bp~;
#X connect 0 0 2 0;
#X connect 1 0 0 0;
#X connect 2 0 24 1;
#X connect 3 0 7 0;
#X connect 4 0 6 0;
#X connect 5 0 3 0;
#X connect 6 0 22 1;
#X connect 7 0 21 1;
#X connect 8 0 4 0;
#X connect 9 0 10 0;
#X connect 10 0 23 1;
#X connect 11 0 9 0;
#X connect 12 0 16 1;
#X connect 12 0 17 1;
#X connect 12 0 18 1;
#X connect 12 0 19 1;
#X connect 14 0 1 0;
#X connect 14 0 11 0;
#X connect 14 0 5 0;
#X connect 14 0 8 0;
#X connect 15 0 24 0;
#X connect 16 0 23 0;
#X connect 17 0 22 0;
#X connect 18 0 21 0;
#X connect 19 0 13 0;
#X connect 20 0 16 2;
#X connect 20 0 17 2;
#X connect 20 0 18 2;
#X connect 20 0 19 2;
#X connect 21 0 13 0;
#X connect 21 1 19 0;
#X connect 22 0 13 0;
#X connect 22 1 18 0;
#X connect 23 0 13 0;
#X connect 23 1 17 0;
#X connect 24 0 13 0;
#X connect 24 1 16 0;
#X connect 25 0 26 0;
#X connect 26 0 27 0;
#X connect 27 0 28 0;
#X restore 55 430 pd 4pol-bp;
#X f 11;
#X obj 108 348 hsl 128 15 1 50 0 0 empty empty Q 20 8 1 12 #fcfcfc #000000 #000000 0 1;
#X floatatom 82 326 5 0 0 0 - - - 0;
#X floatatom 105 373 5 0 0 0 - - - 0;
#N canvas 121 159 392 222 show 0;
#X obj 196 172 tabwrite~ \$0-wavetable1;
#X obj 196 142 metro 30;
#N canvas 45 83 488 322 fft 0;
#X obj 19 61 inlet~;
#X obj 95 214 inlet;
#X obj 29 92 rfft~;
#X obj 29 125 *~;
#X obj 60 125 *~;
#X obj 29 155 sqrt~;
#X obj 332 109 block~ 4096 1;
#X obj 29 181 biquad~ 0 0 0 0 1;
#X text 93 93 Fourier series;
#X text 98 146 magnitude;
#X text 96 131 calculate;
#X text 21 3 This subpatch computes the spectrum of the incoming signal with a (rectangular windowed) FFT. FFTs aren't properly introduced until much later.;
#X text 83 61 signal to analyze;
#X text 192 166 delay two samples;
#X text 191 182 for better graphing;
#X text 145 216 "bang" into this inlet to graph it;
#X obj 95 248 tabwrite~ \$0-frequencies;
#X obj 20 281 tabwrite~ \$0-frequencies;
#X connect 0 0 2 0;
#X connect 0 0 17 0;
#X connect 1 0 16 0;
#X connect 1 0 17 0;
#X connect 2 0 3 0;
#X connect 2 0 3 1;
#X connect 2 1 4 0;
#X connect 2 1 4 1;
#X connect 3 0 5 0;
#X connect 4 0 5 0;
#X connect 5 0 7 0;
#X connect 7 0 16 0;
#X restore 46 172 pd fft;
#X obj 85 142 metro 30;
#X obj 85 120 tgl 15 0 empty empty empty 17 7 0 10 #fcfcfc #000000 #000000 0 1;
#X obj 196 118 tgl 15 0 empty empty empty 17 7 0 10 #fcfcfc #000000 #000000 0 1;
#X obj 47 27 inlet~;
#X obj 126 26 loadbang;
#X connect 1 0 0 0;
#X connect 3 0 2 1;
#X connect 4 0 3 0;
#X connect 5 0 1 0;
#X connect 6 0 0 0;
#X connect 6 0 2 0;
#X connect 7 0 5 0;
#X connect 7 0 4 0;
#X restore 102 556 pd show;
#X msg 238 96 \; play \$1 \; loop \$1 \; pd dsp \$1;
#X connect 1 0 16 0;
#X connect 2 0 3 0;
#X connect 2 0 3 1;
#X connect 2 0 34 0;
#X connect 10 0 25 0;
#X connect 11 0 24 0;
#X connect 12 0 30 0;
#X connect 13 0 12 1;
#X connect 14 0 11 0;
#X connect 15 0 14 1;
#X connect 16 0 12 0;
#X connect 19 0 2 1;
#X connect 20 0 10 0;
#X connect 22 0 23 0;
#X connect 23 0 35 0;
#X connect 24 0 30 0;
#X connect 24 1 14 0;
#X connect 25 0 21 0;
#X connect 27 0 32 0;
#X connect 28 0 30 3;
#X connect 30 0 2 0;
#X connect 31 0 33 0;
#X connect 32 0 30 1;
#X connect 33 0 30 2;
