#N canvas 411 148 1101 629 12;
#X obj 95 543 dac~;
#X text 12 155 thump;
#X text 516 22 pole;
#X text 515 142 thump2;
#X text 12 22 smack;
#N canvas 393 245 372 352 eadenv 0;
#X obj 91 273 *~;
#X obj 7 31 vsl 12 32 0 200 0 0 empty empty A 0 -8 0 8 #e8e828 #000000 #000000 0 1;
#X obj 30 31 vsl 12 32 0 2000 0 0 empty empty D 0 -8 0 8 #fcac44 #000000 #000000 0 1;
#X obj 87 28 inlet~;
#X obj 91 298 outlet~;
#X obj 241 128 del 499;
#X obj 175 77 t b b;
#X obj 175 217 line;
#X obj 175 158 pack 1 1;
#X obj 242 156 pack 0 500;
#X obj 175 25 inlet;
#X connect 0 0 4 0;
#X connect 1 0 5 1;
#X connect 1 0 8 1;
#X connect 2 0 9 1;
#X connect 3 0 0 0;
#X connect 5 0 9 0;
#X connect 6 0 8 0;
#X connect 6 1 5 0;
#X connect 7 0 0 1;
#X connect 8 0 7 0;
#X connect 9 0 7 0;
#X connect 10 0 6 0;
#X coords 0 0 1 1 60 80 2 0 0;
#X restore 95 428 pd eadenv;
#X obj 95 238 r prog;
#X text 15 87 clink;
#X text 516 84 metal;
#X obj 148 401 r trig;
#X msg 578 17 \; prog 2.7 862 32 0.619 446 32 0.79 587 20.2 0.76 \; trig bang;
#X msg 62 76 \; prog 2.23 2229 64 0.761 3000 64 0.84 2503 64 0.88 \; trig bang;
#X msg 578 75 \; prog 3 5000 64 0.33 2500 64 0.8 3750 64 0.7 \; trig bang;
#X msg 577 132 \; prog 16 138 4.66 0.19 160 2.46 0.12 73.22 16.8 1 \; trig bang;
#X msg 57 137 \; prog 2.4 200 14 0.746 249 2.46 0.71 217 20.2 0.69 \; trig bang;
#X text 578 252 A quite simple but effective use of banded noise. Have a play with the controls and see if you can make a set of footsteps or other 'impact' noises. The best technique is to mute/solo each band \, think of the sound you want and decide whether the bit that is 'missing' should be higher or lower as you gradually mix in a new band.;
#X text 180 559 Sound design introduction. Examples 1 ajf2005.;
#X text 577 406 Try adding another 3 bands. It gets difficult to work with more than 6 as you will see. Later we will use analysis to get the parameters from real sounds and really speed up the process of designing a sound this way.;
#X text 576 348 This instrument has a single envelope for all bands \, which is quite limiting. Perhaps you could redesign the noise generator to give you an envelope for each band.;
#X msg 426 345 \; trig bang;
#X text 577 486 Note for games designers. Synthesis can have the great advantage of never making two noises quite the same \, aleiviating that dreary feeling of hearing repeated samples over and over again. Noise based techniques like this one have that property built in \, if you notice each time you trigger one of the examples above it is subtley unique.;
#X msg 577 189 \; prog 5.69 772 64 0.619 691 64 0.77 489 64 0.74 \; trig bang;
#X text 516 197 tincan;
#N canvas 0 22 708 254 discuss 0;
#X text 46 35 Noise gives great 'ballpark synthesis'. A great many sounds can be APPROXIMATED by clevery arranged noise bands.;
#X text 45 95 Advantages:;
#X text 48 124 It's quick to build stuff.;
#X text 48 155 It's quite easy to understand.;
#X text 47 187 It's versatile.;
#X text 290 90 Disadvantages:;
#X text 293 119 Can get expensive on the CPU with so many filters.;
#X text 293 144 Not very portable. Algorithms depend strongly on noise source quality and exact filter characters that may not sound the same from system to system. Contrast to sine additive synthesis which is very portable and instruments can be translated to work and sound exactly the same on other systems.;
#X restore 183 520 pd discuss;
#N canvas 390 241 595 438 3bandnoise 0;
#X obj 118 245 noise~;
#X obj 32 286 bp~ 100 1;
#X obj 31 312 *~;
#X obj 107 55 vsl 12 64 0 1 0 0 empty empty l1 0 -8 0 8 #fce0e0 #000000 #000000 0 1;
#X obj 70 56 vsl 12 64 30 5000 1 0 empty empty f1 0 -8 0 8 #fce0c0 #000000 #000000 0 1;
#X obj 88 55 vsl 12 64 0.1 64 1 0 empty empty q1 0 -8 0 8 #fcfcc8 #000000 #000000 0 1;
#X obj 117 285 bp~ 100 1;
#X obj 138 56 vsl 12 64 30 3000 1 0 empty empty f2 0 -8 0 8 #fce0c0 #000000 #000000 0 1;
#X obj 156 55 vsl 12 64 0.1 64 1 0 empty empty q2 0 -8 0 8 #fcfcc8 #000000 #000000 0 1;
#X obj 205 284 bp~ 100 1;
#X obj 203 56 vsl 12 64 10 3000 1 0 empty empty f3 0 -8 0 8 #fce0c0 #000000 #000000 0 1;
#X obj 221 55 vsl 12 64 0.1 64 1 0 empty empty q3 0 -8 0 8 #fcfcc8 #000000 #000000 0 1;
#X obj 118 316 *~;
#X obj 173 56 vsl 12 64 0 1 0 0 empty empty l2 0 -8 0 8 #fce0e0 #000000 #000000 0 1;
#X obj 204 317 *~;
#X obj 239 56 vsl 12 64 0 1 0 0 empty empty l3 0 -8 0 8 #fce0e0 #000000 #000000 0 1;
#X obj 118 353 *~ 2;
#X obj 36 56 vsl 12 64 0.04 16 1 0 empty empty amp 0 -8 0 8 #fcac44 #000000 #000000 0 1;
#X obj 117 382 outlet~;
#X obj 51 5 unpack 1 2 3 4 5 6 7 8 9 10;
#X text 293 5 program in;
#X obj 51 -16 inlet;
#X text 335 98 3 band noise source ajf2005;
#X obj 368 321 pack 1 2 3 4 5 6 7 8 9 10;
#X obj 368 344 outlet;
#X obj 490 220 t b;
#X text 423 346 prog out;
#X text 121 198 gubbins;
#X connect 0 0 1 0;
#X connect 0 0 6 0;
#X connect 0 0 9 0;
#X connect 1 0 2 0;
#X connect 2 0 16 0;
#X connect 3 0 2 1;
#X connect 3 0 25 0;
#X connect 3 0 23 3;
#X connect 4 0 1 1;
#X connect 4 0 25 0;
#X connect 4 0 23 1;
#X connect 5 0 1 2;
#X connect 5 0 25 0;
#X connect 5 0 23 2;
#X connect 6 0 12 0;
#X connect 7 0 6 1;
#X connect 7 0 25 0;
#X connect 7 0 23 4;
#X connect 8 0 6 2;
#X connect 8 0 25 0;
#X connect 8 0 23 5;
#X connect 9 0 14 0;
#X connect 10 0 9 1;
#X connect 10 0 25 0;
#X connect 10 0 23 7;
#X connect 11 0 9 2;
#X connect 11 0 25 0;
#X connect 11 0 23 8;
#X connect 12 0 16 0;
#X connect 13 0 12 1;
#X connect 13 0 25 0;
#X connect 13 0 23 6;
#X connect 14 0 16 0;
#X connect 15 0 14 1;
#X connect 15 0 25 0;
#X connect 15 0 23 9;
#X connect 16 0 18 0;
#X connect 17 0 16 1;
#X connect 17 0 23 0;
#X connect 19 0 17 0;
#X connect 19 1 4 0;
#X connect 19 2 5 0;
#X connect 19 3 3 0;
#X connect 19 4 7 0;
#X connect 19 5 8 0;
#X connect 19 6 13 0;
#X connect 19 7 10 0;
#X connect 19 8 11 0;
#X connect 19 9 15 0;
#X connect 21 0 19 0;
#X connect 23 0 24 0;
#X connect 25 0 23 0;
#X coords 0 0 1 1 230 120 2 30 30;
#X restore 96 264 pd 3bandnoise;
#N canvas 0 22 374 183 show16float 0;
#X obj 6 6 inlet;
#X obj 7 78 nbx 5 14 -1e+37 1e+37 0 0 empty empty empty 0 -6 0 10 #fcfcfc #000000 #000000 0 256;
#X obj 21 103 nbx 5 14 -1e+37 1e+37 0 0 empty empty empty 0 -6 0 10 #fcfcfc #000000 #000000 0 256;
#X obj 21 121 nbx 5 14 -1e+37 1e+37 0 0 empty empty empty 0 -6 0 10 #fcfcfc #000000 #000000 0 256;
#X obj 20 138 nbx 5 14 -1e+37 1e+37 0 0 empty empty empty 0 -6 0 10 #fcfcfc #000000 #000000 0 256;
#X obj 81 101 nbx 5 14 -1e+37 1e+37 0 0 empty empty empty 0 -6 0 10 #fcfcfc #000000 #000000 0 256;
#X obj 80 119 nbx 5 14 -1e+37 1e+37 0 0 empty empty empty 0 -6 0 10 #fcfcfc #000000 #000000 0 256;
#X obj 79 137 nbx 5 14 -1e+37 1e+37 0 0 empty empty empty 0 -6 0 10 #fcfcfc #000000 #000000 0 256;
#X obj 139 102 nbx 5 14 -1e+37 1e+37 0 0 empty empty empty 0 -6 0 10 #fcfcfc #000000 #000000 0 256;
#X obj 138 120 nbx 5 14 -1e+37 1e+37 0 0 empty empty empty 0 -6 0 10 #fcfcfc #000000 #000000 0 256;
#X obj 137 137 nbx 5 14 -1e+37 1e+37 0 0 empty empty empty 0 -6 0 10 #fcfcfc #000000 #000000 0 256;
#X text 63 7 display a list of 16 float values ajf2005;
#X obj 6 33 unpack 1 2 3 4 5 6 7 8 9 10;
#X connect 0 0 12 0;
#X connect 12 0 1 0;
#X connect 12 1 2 0;
#X connect 12 2 3 0;
#X connect 12 3 4 0;
#X connect 12 4 5 0;
#X connect 12 5 6 0;
#X connect 12 6 7 0;
#X connect 12 7 8 0;
#X connect 12 8 9 0;
#X connect 12 9 10 0;
#X coords 0 0 1 1 200 90 2 0 70;
#X restore 319 427 pd show16float;
#X obj 427 271 key;
#X obj 426 298 sel 32;
#X obj 426 324 bng 15 250 50 0 empty empty empty 17 7 0 10 #fcfcfc #000000 #000000;
#X msg 64 17 \; prog 1 3000 14 0.888 2591 20.2 1 1742 22.1 0.76 \; trig bang;
#X connect 5 0 0 0;
#X connect 5 0 0 1;
#X connect 6 0 24 0;
#X connect 9 0 5 1;
#X connect 24 0 5 0;
#X connect 24 1 25 0;
#X connect 26 0 27 0;
#X connect 27 0 28 0;
#X connect 28 0 19 0;
#X coords 0 0 1 1 200 140 0;
