#N canvas 1424 569 206 463 12;
#X obj 34 268 noise~;
#X obj 34 366 *~;
#X obj 34 408 dac~;
#X obj 72 27 tgl 19 0 empty empty empty 0 -10 0 12 #fcfcfc #000000 #000000 0 1;
#X obj 72 51 metro 100;
#X floatatom 72 127 5 0 0 0 - - - 0;
#X obj 122 306 vline~;
#X floatatom 90 209 5 0 0 0 - - - 0;
#X obj 90 184 int;
#X obj 72 103 + 1;
#X obj 72 239 *;
#X obj 72 78 random 500;
#X obj 34 336 clip~ -0.5 0.5;
#X msg 123 281 1 \, 0 \$1;
#X obj 34 306 bp~ 1000 15;
#X obj 90 160 / 40;
#X connect 0 0 14 0;
#X connect 1 0 2 0;
#X connect 1 0 2 1;
#X connect 3 0 4 0;
#X connect 4 0 11 0;
#X connect 5 0 4 1;
#X connect 5 0 10 0;
#X connect 5 0 15 0;
#X connect 6 0 1 1;
#X connect 7 0 13 0;
#X connect 7 0 10 1;
#X connect 8 0 7 0;
#X connect 9 0 5 0;
#X connect 10 0 14 1;
#X connect 11 0 9 0;
#X connect 12 0 1 0;
#X connect 13 0 6 0;
#X connect 14 0 12 0;
#X connect 15 0 8 0;
