#N canvas 906 426 766 598 10;
#X obj 0 0 cnv 10 55 270 empty empty Out:\$1 8 12 0 12 -191407 -66577
0;
#X obj 25 24 vu 12 120 \$0-vu-in empty -1 -8 0 10 -66577 -1 0 0;
#X obj 11 24 vsl 12 119 0 2 0 0 \$0-volume-out-r \$0-volume-out-s 0
3 133 0 10 -262144 -1 -1 0 1;
#X obj 10 167 tgl 15 0 \$1-componoff-r \$1-componoff-s comp 20 8 0
8 -262144 -1 -1 0 1;
#X obj 10 205 tgl 15 0 \$0-out-rec-s \$0-out-rec-r Record 0 -8 0 8
-262144 -258113 -258113 0 1;
#X obj 10 239 bng 15 250 50 0 \$0-res-no-s \$0-res-no-r res_no 0 -8
0 8 -262144 -1 -1;
#X obj 262 321 *~;
#X text 284 25 gain-scaler;
#X obj 284 124 line;
#N canvas 0 22 345 409 switch~ 0;
#X text 63 22 switch between two audio inputs;
#X obj 73 134 inlet~;
#X text 73 116 input1;
#X obj 120 271 line~;
#X obj 208 214 line~;
#X obj 104 299 *~;
#X obj 191 302 *~;
#X obj 120 200 - 1;
#X obj 118 223 abs;
#X msg 119 243 \$1 30;
#X msg 208 186 \$1 30;
#X obj 175 330 +~;
#X obj 136 134 inlet~;
#X text 136 116 input2;
#X obj 207 133 inlet;
#X text 207 114 toggle;
#X obj 175 357 outlet~;
#X text 65 34 with toggle on it switsches to 2nd input;
#X obj 185 59 loadbang;
#X msg 186 89 0;
#X connect 1 0 5 0;
#X connect 3 0 5 1;
#X connect 4 0 6 1;
#X connect 5 0 11 0;
#X connect 6 0 11 1;
#X connect 7 0 8 0;
#X connect 8 0 9 0;
#X connect 9 0 3 0;
#X connect 10 0 4 0;
#X connect 11 0 16 0;
#X connect 12 0 6 0;
#X connect 14 0 10 0;
#X connect 14 0 7 0;
#X connect 18 0 19 0;
#X connect 19 0 10 0;
#X connect 19 0 7 0;
#X restore 262 392 pd switch~;
#N canvas 695 87 442 449 hd_recording 0;
#X msg 219 256 stop;
#X obj 192 150 t f b;
#X obj 192 289 t a;
#X obj 101 66 select 0 1;
#X msg 129 237 start;
#X obj 156 122 f 0;
#X obj 129 96 t b b;
#X obj 47 355 writesf~ 1;
#X obj 46 38 inlet~;
#X text 48 14 signal;
#X msg 101 199 stop;
#X msg 192 229 open \$1;
#X obj 101 38 inlet;
#X obj 192 122 + 1;
#X obj 171 38 inlet;
#X msg 171 63 0;
#X symbolatom 192 203 20 0 0 0 - - -;
#X text 49 391 (c) 2007/2015 Achim Bornhoeft;
#X obj 192 175 makefilename ../snd/out/\$1-Out_%d.wav;
#X connect 0 0 2 0;
#X connect 1 0 18 0;
#X connect 1 1 0 0;
#X connect 2 0 7 0;
#X connect 3 0 10 0;
#X connect 3 1 6 0;
#X connect 4 0 7 0;
#X connect 5 0 13 0;
#X connect 6 0 4 0;
#X connect 6 1 5 0;
#X connect 8 0 7 0;
#X connect 10 0 7 0;
#X connect 11 0 2 0;
#X connect 12 0 3 0;
#X connect 13 0 5 1;
#X connect 13 0 1 0;
#X connect 14 0 15 0;
#X connect 15 0 5 1;
#X connect 16 0 11 0;
#X connect 18 0 16 0;
#X restore 342 439 pd hd_recording;
#X text 399 330 on/off;
#X obj 384 311 unpack f f;
#X obj 456 203 key;
#X floatatom 456 227 5 0 0 0 - - -;
#N canvas 301 555 200 247 guilabel 0;
#X msg 42 107 label \$1;
#X obj 43 26 inlet;
#X obj 42 140 outlet;
#X obj 42 79 makefilename %s;
#N canvas 371 178 187 217 round 0;
#X msg 107 79 10;
#X obj 107 56 loadbang;
#X obj 27 84 * 1;
#X obj 27 19 inlet;
#X obj 68 131 / 1;
#X msg 68 109 1;
#X obj 27 109 + 0.5;
#X obj 27 134 div;
#X obj 27 181 outlet;
#X obj 27 157 * 1;
#X obj 107 102 pow 2;
#X obj 27 45 t f b;
#X connect 0 0 10 0;
#X connect 1 0 0 0;
#X connect 2 0 6 0;
#X connect 3 0 11 0;
#X connect 4 0 9 1;
#X connect 5 0 4 0;
#X connect 6 0 7 0;
#X connect 7 0 9 0;
#X connect 9 0 8 0;
#X connect 10 0 2 1;
#X connect 10 0 4 1;
#X connect 10 0 5 0;
#X connect 11 0 2 0;
#X connect 11 1 0 0;
#X restore 42 56 pd round;
#X connect 0 0 2 0;
#X connect 1 0 4 0;
#X connect 3 0 0 0;
#X connect 4 0 3 0;
#X restore 329 205 pd guilabel;
#X obj 456 249 sel 67 82;
#X text 511 223 R = reset soundfile number;
#X text 511 202 C = record on/off;
#X obj 282 491 s \$0-vu-in;
#X obj 300 72 loadbang;
#X msg 300 93 0;
#X text 570 350 start soundfile number 0;
#X obj 384 282 r \$1-out-rec;
#X obj 384 351 s \$0-out-rec-r;
#X obj 385 384 r \$0-out-rec-s;
#X obj 452 62 r \$1-compressor;
#N canvas 0 22 956 697 compressor 0;
#X obj 252 640 outlet~;
#X obj 252 506 *~;
#X obj 252 614 *~;
#N canvas 0 22 450 300 delWrite 0;
#X obj 68 80 delwrite~ \$0-comp 500;
#X obj 68 39 inlet~;
#X obj 68 156 outlet~;
#X connect 1 0 0 0;
#X restore 85 289 pd delWrite;
#X obj 481 393 dbtorms;
#X obj 533 364 /;
#X obj 533 333 swap 1;
#X obj 586 340 /;
#X obj 586 318 swap 1000;
#X obj 267 466 lop~;
#X obj 267 411 clip~ 0 1;
#X obj 481 415 s \$0-thresh;
#X obj 533 386 s \$0-ratio;
#X obj 267 589 line~;
#X obj 267 568 pack f 5;
#X obj 267 544 r \$0-gain;
#X obj 638 297 s \$0-gain;
#N canvas 0 22 872 621 rms 0;
#X obj 257 107 env~ 512;
#X obj 257 245 -~;
#X obj 257 293 *~;
#X obj 257 345 +~;
#X obj 257 385 /~;
#X obj 378 221 +~ 0;
#X obj 272 220 r \$0-thresh;
#X obj 272 318 r \$0-thresh;
#X obj 272 269 r \$0-ratio;
#X obj 257 34 inlet~;
#X obj 257 407 outlet~;
#X obj 373 37 inlet;
#X obj 373 59 switch~;
#X obj 257 135 dbtorms~;
#X text 221 74 Input;
#X text 231 136 RMS;
#X text 424 59 turn DSP on/off for this sub-patch;
#X connect 0 0 13 0;
#X connect 1 0 2 0;
#X connect 2 0 3 0;
#X connect 3 0 4 0;
#X connect 4 0 10 0;
#X connect 5 0 4 1;
#X connect 6 0 1 1;
#X connect 7 0 3 1;
#X connect 8 0 2 1;
#X connect 9 0 0 0;
#X connect 11 0 12 0;
#X connect 13 0 1 0;
#X connect 13 0 5 0;
#X restore 267 288 pd rms;
#N canvas 0 22 859 606 peak 0;
#X obj 244 134 abs~;
#X obj 244 243 -~;
#X obj 244 291 *~;
#X obj 244 343 +~;
#X obj 244 383 /~;
#X obj 365 219 +~ 0;
#X obj 259 218 r \$0-thresh;
#X obj 259 316 r \$0-thresh;
#X obj 259 267 r \$0-ratio;
#X obj 244 49 inlet~;
#X obj 244 405 outlet~;
#X obj 470 125 inlet;
#X obj 470 147 switch~;
#X text 206 99 Input;
#X text 208 135 Peak;
#X text 521 148 turn DSP on/off for this sub-patch;
#X connect 0 0 1 0;
#X connect 0 0 5 0;
#X connect 1 0 2 0;
#X connect 2 0 3 0;
#X connect 3 0 4 0;
#X connect 4 0 10 0;
#X connect 5 0 4 1;
#X connect 6 0 1 1;
#X connect 7 0 3 1;
#X connect 8 0 2 1;
#X connect 9 0 0 0;
#X connect 11 0 12 0;
#X restore 315 288 pd peak;
#X obj 300 230 == 0;
#X obj 300 185 t f f;
#X obj 85 32 inlet~;
#X obj 300 161 r \$0-rmspeak;
#X obj 691 271 s \$0-rmspeak;
#X obj 743 247 s \$0-lookahead;
#X obj 142 341 r \$0-lookahead;
#X obj 481 223 route threshold ratio response gain rmspeak lookahead
;
#X obj 484 94 loadbang;
#X obj 481 170 t a a;
#X obj 508 198 s \$0-dump;
#X obj 481 358 + 100;
#X obj 638 273 dbtorms;
#X obj 288 444 r \$0-response;
#X obj 586 362 s \$0-response;
#N canvas 0 22 450 300 delRead 0;
#X obj 68 41 inlet~;
#X obj 133 155 outlet~;
#X obj 133 42 inlet lookAhead;
#X obj 133 116 delread~ \$0-comp 0;
#X connect 2 0 3 0;
#X connect 3 0 1 0;
#X restore 85 365 pd delRead;
#X text 129 32 Input;
#X text 25 287 delwrite~;
#X text 51 320 dymmy;
#X text 50 332 cable;
#X text 31 365 delread~;
#X text 141 320 Lookahead in ms;
#X text 334 409 Clip signal;
#X text 298 465 Attack/release using LPF;
#X text 277 505 Gain Control;
#X text 318 311 Gain computation;
#X text 318 325 RMS/Peak;
#X text 330 544 Make-up gain;
#X text 339 185 RMS/Peak;
#X text 339 198 selector;
#X text 541 96 initialise controls;
#X text 538 181 send controls to UI;
#X text 479 437 Convert dB FS;
#X text 479 448 to Pd dB scale;
#X text 479 460 and then linear;
#X text 479 471 amplitude.;
#X text 561 403 inverse of ratio;
#X text 637 380 convert ms to frequency;
#X text 657 316 convert dBFS scale to Pd dB scale;
#X text 707 290 RMS/peak selection;
#X text 781 264 lookahead value in ms;
#X text 757 206 route incoming data;
#X text 810 18 Varun Nair;
#X text 810 31 2013;
#X text 811 44 re-sounding.com;
#X text 812 57 @ntkeep;
#X obj 413 41 inlet;
#X obj 413 78 switch~;
#X obj 638 251 + 100;
#X msg 481 123 threshold -2 \, ratio 4 \, response 40 \, gain -1.2
\, rmspeak 0 \, lookahead 3;
#X connect 1 0 2 0;
#X connect 2 0 0 0;
#X connect 3 0 34 0;
#X connect 4 0 11 0;
#X connect 5 0 12 0;
#X connect 6 0 5 0;
#X connect 6 1 5 1;
#X connect 7 0 33 0;
#X connect 8 0 7 0;
#X connect 8 1 7 1;
#X connect 9 0 1 1;
#X connect 10 0 9 0;
#X connect 13 0 2 1;
#X connect 14 0 13 0;
#X connect 15 0 14 0;
#X connect 17 0 10 0;
#X connect 18 0 10 0;
#X connect 19 0 17 1;
#X connect 20 0 19 0;
#X connect 20 1 18 1;
#X connect 21 0 3 0;
#X connect 21 0 17 0;
#X connect 21 0 18 0;
#X connect 22 0 20 0;
#X connect 25 0 34 1;
#X connect 26 0 30 0;
#X connect 26 1 6 0;
#X connect 26 2 8 0;
#X connect 26 3 67 0;
#X connect 26 4 23 0;
#X connect 26 5 24 0;
#X connect 27 0 68 0;
#X connect 28 0 26 0;
#X connect 28 1 29 0;
#X connect 30 0 4 0;
#X connect 31 0 16 0;
#X connect 32 0 9 1;
#X connect 34 0 1 0;
#X connect 65 0 66 0;
#X connect 67 0 31 0;
#X connect 68 0 28 0;
#X restore 290 363 pd compressor;
#X text 449 36 compressor on/off;
#N canvas 0 22 394 406 vu~ 0;
#X obj 122 5 loadbang;
#X floatatom 108 217 5 0 0 0 - - -;
#X obj 108 188 max;
#X msg 123 160 0;
#X obj 61 275 pack f f;
#X obj 60 58 inlet~;
#X obj 123 90 metro \$1;
#X obj 122 31 t b b;
#X msg 167 63 5000;
#X obj 184 7 bng 15 250 50 0 empty empty empty 17 7 0 10 -262144 -1
-1;
#X obj 61 300 outlet vu-meter;
#X obj 160 300 outlet db-rms;
#X floatatom 227 198 5 0 0 0 - - -;
#X obj 227 163 max;
#X obj 228 219 - 100;
#X obj 182 276 outlet timed-peak;
#X obj 61 246 - 100;
#X obj 106 246 - 100;
#X obj 228 247 outlet max-peak;
#X obj 244 103 r \$0-res-in-s;
#X msg 244 128 0;
#X obj 60 115 env~;
#X connect 0 0 7 0;
#X connect 1 0 2 1;
#X connect 1 0 17 0;
#X connect 2 0 1 0;
#X connect 3 0 2 1;
#X connect 4 0 10 0;
#X connect 5 0 21 0;
#X connect 6 0 3 0;
#X connect 7 0 6 0;
#X connect 7 1 8 0;
#X connect 8 0 6 1;
#X connect 9 0 7 0;
#X connect 12 0 13 1;
#X connect 12 0 14 0;
#X connect 13 0 12 0;
#X connect 14 0 18 0;
#X connect 16 0 4 0;
#X connect 16 0 11 0;
#X connect 17 0 4 1;
#X connect 17 0 15 0;
#X connect 19 0 20 0;
#X connect 20 0 13 1;
#X connect 21 0 2 0;
#X connect 21 0 13 0;
#X connect 21 0 16 0;
#X restore 282 446 pd vu~;
#X obj 284 46 r \$1-volume;
#X obj 452 94 s \$0-componoff-s;
#X obj 452 126 r \$0-componoff-r;
#X obj 104 35 catch~ bus\$1;
#X obj 481 349 s \$0-res-no-r;
#X obj 483 382 r \$0-res-no-s;
#X obj 282 182 s \$0-volume-out-s;
#X obj 281 230 r \$0-volume-out-r;
#X obj 153 66 inlet~;
#X obj 262 538 throw~ \$1-out;
#X connect 6 0 9 0;
#X connect 6 0 27 0;
#X connect 8 0 36 0;
#X connect 9 0 10 0;
#X connect 9 0 29 0;
#X connect 9 0 39 0;
#X connect 12 0 24 0;
#X connect 12 1 34 0;
#X connect 13 0 14 0;
#X connect 14 0 16 0;
#X connect 15 0 36 0;
#X connect 16 0 24 0;
#X connect 16 1 34 0;
#X connect 21 0 8 0;
#X connect 23 0 12 0;
#X connect 25 0 10 1;
#X connect 26 0 31 0;
#X connect 27 0 9 1;
#X connect 29 0 19 0;
#X connect 30 0 8 0;
#X connect 32 0 9 2;
#X connect 32 0 27 1;
#X connect 33 0 6 0;
#X connect 35 0 10 2;
#X connect 37 0 6 1;
#X connect 37 0 15 0;
#X connect 38 0 6 0;
#X coords 0 -1 1 1 55 270 2 0 0;
