#N canvas 289 312 706 570 10;
#X obj 211 344 mtof;
#X obj 211 457 *~ 0;
#X obj 255 457 hsl 128 15 0 1 0 0 empty empty empty -2 -8 0 10 -262144
-1 -1 0 1;
#X obj 211 481 dac~;
#X floatatom 211 240 5 0 0 0 - - -, f 5;
#X obj 211 296 makenote 1 500;
#N canvas 0 22 694 490 majorscale60 0;
#X obj 45 81 t a a;
#X obj 110 146 * 12;
#X obj 45 237 +;
#X obj 45 304 outlet;
#X obj 45 41 inlet;
#X obj 289 191 loadbang;
#X obj 293 45 inlet;
#X text 293 24 base note;
#X text 41 18 major step;
#X obj 289 237 s \$0-major;
#X obj 45 175 tabread \$0-major;
#X floatatom 57 146 5 0 0 0 - - -, f 5;
#X msg 289 214 0 0 2 4 5 7 9 11;
#X obj 289 261 table \$0-major 7;
#X obj 45 120 mod 7;
#X obj 110 120 div 7;
#X obj 45 260 + 60;
#X connect 0 0 14 0;
#X connect 0 1 15 0;
#X connect 1 0 2 1;
#X connect 2 0 16 0;
#X connect 4 0 0 0;
#X connect 5 0 12 0;
#X connect 6 0 16 1;
#X connect 10 0 2 0;
#X connect 12 0 9 0;
#X connect 14 0 10 0;
#X connect 14 0 11 0;
#X connect 15 0 1 0;
#X connect 16 0 3 0;
#X restore 211 261 pd majorscale60;
#X obj 211 186 list split 1;
#X obj 211 162 list append;
#X obj 316 178 bng 15 250 50 0 empty empty end 17 7 1 10 -262144 -1
-1;
#X msg 211 93 bang;
#N canvas 0 22 450 300 show 0;
#X obj 41 39 inlet;
#X obj 186 36 inlet;
#X obj 41 124 outlet;
#X msg 186 76 set;
#X obj 41 59 list prepend set;
#X obj 41 83 list trim;
#X connect 0 0 4 0;
#X connect 1 0 3 0;
#X connect 3 0 2 0;
#X connect 4 0 5 0;
#X connect 5 0 2 0;
#X restore 417 255 pd show;
#X msg 417 279 10 9 11 14 12 15 18 13 17 19 16 20;
#X obj 285 135 list;
#X obj 129 115 metro 250;
#X obj 129 93 tgl 15 0 empty empty empty 17 7 0 10 -262144 -1 -1 0
1;
#N canvas 0 22 707 552 polysynth 0;
#X obj 92 45 inlet;
#X obj 91 319 outlet~;
#X obj 219 47 inlet;
#N canvas 0 22 824 679 phaser 0;
#X obj 74 38 inlet~;
#X obj 96 127 rpole~;
#X obj 96 102 rzero_rev~;
#X obj 96 176 rpole~;
#X obj 96 151 rzero_rev~;
#X obj 96 224 rpole~;
#X obj 96 199 rzero_rev~;
#X obj 96 273 rpole~;
#X obj 96 248 rzero_rev~;
#X obj 73 303 +~;
#X obj 72 331 outlet~;
#X obj 403 180 r \$0-freq;
#X obj 403 211 phasor~ 0.3;
#X obj 345 211 sig~ 1;
#X obj 345 237 -~;
#X obj 346 281 min~;
#X floatatom 484 178 5 0 0 0 - - -, f 5;
#X obj 346 306 *~;
#X obj 270 360 -~;
#X obj 271 330 sig~ 0.97;
#X obj 406 300 line~;
#X obj 489 250 loadbang;
#X obj 489 271 f 0.6;
#X obj 346 333 *~;
#X obj 406 245 r \$0-depth;
#X obj 406 271 pack 0 10;
#X connect 0 0 2 0;
#X connect 0 0 9 0;
#X connect 1 0 4 0;
#X connect 2 0 1 0;
#X connect 3 0 6 0;
#X connect 4 0 3 0;
#X connect 5 0 8 0;
#X connect 6 0 5 0;
#X connect 7 0 9 1;
#X connect 8 0 7 0;
#X connect 9 0 10 0;
#X connect 11 0 12 0;
#X connect 12 0 15 1;
#X connect 12 0 14 1;
#X connect 13 0 14 0;
#X connect 14 0 15 0;
#X connect 15 0 17 0;
#X connect 15 0 17 1;
#X connect 16 0 12 0;
#X connect 17 0 23 0;
#X connect 18 0 2 1;
#X connect 18 0 1 1;
#X connect 18 0 4 1;
#X connect 18 0 3 1;
#X connect 18 0 6 1;
#X connect 18 0 5 1;
#X connect 18 0 8 1;
#X connect 18 0 7 1;
#X connect 19 0 18 0;
#X connect 20 0 23 1;
#X connect 21 0 22 0;
#X connect 22 0 20 0;
#X connect 23 0 18 1;
#X connect 24 0 25 0;
#X connect 25 0 20 0;
#X restore 91 268 pd phaser;
#N canvas 364 275 450 300 poly-inst 0;
#X obj 92 97 -~ 0.5;
#X obj 92 146 clip~ -0.5 0.5;
#X obj 92 169 cos~;
#X obj 91 212 hip~ 5;
#X obj 92 122 *~ 3;
#X obj 219 146 vline~;
#X obj 220 168 *~;
#X obj 219 99 select 0;
#X msg 219 122 0 150;
#X msg 271 122 1 20 \, 0.8 30 20;
#X obj 91 238 *~;
#X obj 92 21 inlet;
#X obj 92 46 unpack 0 0;
#X obj 92 74 phasor~;
#X obj 91 260 outlet~;
#X connect 0 0 4 0;
#X connect 1 0 2 0;
#X connect 2 0 3 0;
#X connect 3 0 10 0;
#X connect 4 0 1 0;
#X connect 5 0 6 0;
#X connect 5 0 6 1;
#X connect 6 0 10 1;
#X connect 7 0 8 0;
#X connect 7 1 9 0;
#X connect 8 0 5 0;
#X connect 9 0 5 0;
#X connect 10 0 14 0;
#X connect 11 0 12 0;
#X connect 12 0 13 0;
#X connect 12 1 7 0;
#X connect 13 0 0 0;
#X restore 92 163 pd poly-inst;
#X obj 92 79 poly 4 1;
#X obj 92 104 pack 0 0 0;
#X obj 92 128 route 1 2 3 4;
#N canvas 364 275 450 300 poly-inst 0;
#X obj 92 97 -~ 0.5;
#X obj 92 146 clip~ -0.5 0.5;
#X obj 92 169 cos~;
#X obj 91 212 hip~ 5;
#X obj 92 122 *~ 3;
#X obj 219 146 vline~;
#X obj 220 168 *~;
#X obj 219 99 select 0;
#X msg 219 122 0 150;
#X msg 271 122 1 20 \, 0.8 30 20;
#X obj 91 238 *~;
#X obj 92 21 inlet;
#X obj 92 46 unpack 0 0;
#X obj 92 74 phasor~;
#X obj 91 260 outlet~;
#X connect 0 0 4 0;
#X connect 1 0 2 0;
#X connect 2 0 3 0;
#X connect 3 0 10 0;
#X connect 4 0 1 0;
#X connect 5 0 6 0;
#X connect 5 0 6 1;
#X connect 6 0 10 1;
#X connect 7 0 8 0;
#X connect 7 1 9 0;
#X connect 8 0 5 0;
#X connect 9 0 5 0;
#X connect 10 0 14 0;
#X connect 11 0 12 0;
#X connect 12 0 13 0;
#X connect 12 1 7 0;
#X connect 13 0 0 0;
#X restore 114 184 pd poly-inst;
#N canvas 364 275 450 300 poly-inst 0;
#X obj 92 97 -~ 0.5;
#X obj 92 146 clip~ -0.5 0.5;
#X obj 92 169 cos~;
#X obj 91 212 hip~ 5;
#X obj 92 122 *~ 3;
#X obj 219 146 vline~;
#X obj 220 168 *~;
#X obj 219 99 select 0;
#X msg 219 122 0 150;
#X msg 271 122 1 20 \, 0.8 30 20;
#X obj 91 238 *~;
#X obj 92 21 inlet;
#X obj 92 46 unpack 0 0;
#X obj 92 74 phasor~;
#X obj 91 260 outlet~;
#X connect 0 0 4 0;
#X connect 1 0 2 0;
#X connect 2 0 3 0;
#X connect 3 0 10 0;
#X connect 4 0 1 0;
#X connect 5 0 6 0;
#X connect 5 0 6 1;
#X connect 6 0 10 1;
#X connect 7 0 8 0;
#X connect 7 1 9 0;
#X connect 8 0 5 0;
#X connect 9 0 5 0;
#X connect 10 0 14 0;
#X connect 11 0 12 0;
#X connect 12 0 13 0;
#X connect 12 1 7 0;
#X connect 13 0 0 0;
#X restore 136 206 pd poly-inst;
#N canvas 364 275 450 300 poly-inst 0;
#X obj 92 97 -~ 0.5;
#X obj 92 146 clip~ -0.5 0.5;
#X obj 92 169 cos~;
#X obj 91 212 hip~ 5;
#X obj 92 122 *~ 3;
#X obj 219 146 vline~;
#X obj 220 168 *~;
#X obj 219 99 select 0;
#X msg 219 122 0 150;
#X msg 271 122 1 20 \, 0.8 30 20;
#X obj 91 238 *~;
#X obj 92 21 inlet;
#X obj 92 46 unpack 0 0;
#X obj 92 74 phasor~;
#X obj 91 260 outlet~;
#X connect 0 0 4 0;
#X connect 1 0 2 0;
#X connect 2 0 3 0;
#X connect 3 0 10 0;
#X connect 4 0 1 0;
#X connect 5 0 6 0;
#X connect 5 0 6 1;
#X connect 6 0 10 1;
#X connect 7 0 8 0;
#X connect 7 1 9 0;
#X connect 8 0 5 0;
#X connect 9 0 5 0;
#X connect 10 0 14 0;
#X connect 11 0 12 0;
#X connect 12 0 13 0;
#X connect 12 1 7 0;
#X connect 13 0 0 0;
#X restore 158 227 pd poly-inst;
#X obj 90 291 *~ 0.25;
#X connect 0 0 5 0;
#X connect 2 0 5 1;
#X connect 3 0 11 0;
#X connect 4 0 3 0;
#X connect 5 0 6 0;
#X connect 5 1 6 1;
#X connect 5 2 6 2;
#X connect 6 0 7 0;
#X connect 7 0 4 0;
#X connect 7 1 8 0;
#X connect 7 2 9 0;
#X connect 7 3 10 0;
#X connect 8 0 3 0;
#X connect 9 0 3 0;
#X connect 10 0 3 0;
#X connect 11 0 1 0;
#X restore 211 368 pd polysynth;
#N canvas 124 58 883 512 transforms 0;
#X obj 138 248 inversion;
#X obj 228 246 retrograde;
#X obj 318 244 transpose;
#X obj 408 240 retro-inversion;
#X obj 557 37 inlet;
#X text 555 14 list to transform;
#X obj 138 113 route inversion retrograde transpose retro-inversion
;
#X obj 138 138 list;
#X obj 318 343 outlet;
#X obj 532 154 b;
#X obj 532 242 list;
#X obj 228 139 list;
#X obj 318 162 list;
#X obj 318 137 t b a;
#X obj 408 134 list;
#X obj 138 53 inlet;
#X obj 138 78 list trim;
#X obj 530 339 outlet;
#X obj 530 315 list;
#X connect 0 0 8 0;
#X connect 1 0 8 0;
#X connect 2 0 8 0;
#X connect 3 0 8 0;
#X connect 4 0 7 1;
#X connect 4 0 11 1;
#X connect 4 0 12 1;
#X connect 4 0 14 1;
#X connect 4 0 10 1;
#X connect 6 0 7 0;
#X connect 6 1 11 0;
#X connect 6 2 13 0;
#X connect 6 3 14 0;
#X connect 6 4 9 0;
#X connect 7 0 0 0;
#X connect 9 0 10 0;
#X connect 10 0 8 0;
#X connect 11 0 1 0;
#X connect 12 0 2 0;
#X connect 13 0 12 0;
#X connect 13 1 2 1;
#X connect 14 0 3 0;
#X connect 15 0 16 0;
#X connect 15 0 18 0;
#X connect 16 0 6 0;
#X connect 18 0 17 0;
#X restore 417 158 pd transforms;
#X msg 417 62 retrograde;
#X msg 417 86 inversion;
#X msg 417 110 transpose 2;
#X msg 417 134 retro-inversion;
#X msg 417 33 bang;
#X symbolatom 505 195 20 0 0 0 - - -, f 20;
#X obj 510 15 loadbang;
#X obj 510 36 t b b;
#X msg 558 69 \; pd dsp 1;
#N canvas 0 22 450 300 show 0;
#X obj 41 39 inlet;
#X obj 186 36 inlet;
#X obj 41 124 outlet;
#X msg 186 76 set;
#X obj 41 59 list prepend set;
#X obj 41 83 list trim;
#X connect 0 0 4 0;
#X connect 1 0 3 0;
#X connect 3 0 2 0;
#X connect 4 0 5 0;
#X connect 5 0 2 0;
#X restore 251 215 pd show;
#X msg 251 239 6 8 5 2 7 3 1 4 0;
#X msg 542 160 0 4 1 3 7 2 5 8 6 9 11 10;
#X connect 0 0 16 0;
#X connect 1 0 3 0;
#X connect 1 0 3 1;
#X connect 2 0 1 1;
#X connect 4 0 6 0;
#X connect 5 0 0 0;
#X connect 5 1 16 1;
#X connect 6 0 5 0;
#X connect 7 0 4 0;
#X connect 7 1 8 1;
#X connect 7 1 27 0;
#X connect 7 2 9 0;
#X connect 8 0 7 0;
#X connect 9 0 13 0;
#X connect 10 0 8 0;
#X connect 11 0 12 0;
#X connect 13 0 8 1;
#X connect 14 0 8 0;
#X connect 15 0 14 0;
#X connect 16 0 1 0;
#X connect 17 0 11 0;
#X connect 17 0 13 1;
#X connect 17 1 23 0;
#X connect 18 0 17 0;
#X connect 19 0 17 0;
#X connect 20 0 17 0;
#X connect 21 0 17 0;
#X connect 22 0 17 0;
#X connect 24 0 25 0;
#X connect 25 0 22 0;
#X connect 25 1 29 0;
#X connect 25 1 26 0;
#X connect 27 0 28 0;
#X connect 29 0 17 1;
