#N canvas 876 188 498 586 12;
#X floatatom 66 363 5 0 0 0 midi - - 0;
#X floatatom 143 362 5 0 0 1 volume - - 0;
#X floatatom 66 446 5 0 0 0 - - - 0;
#X obj 66 391 mtof;
#X obj 66 332 unpack f f;
#X obj 82 130 unpack s f f;
#X symbolatom 82 183 10 0 0 0 - - - 0;
#X floatatom 122 157 5 0 0 0 - - - 0;
#X floatatom 163 157 5 0 0 0 - - - 0;
#X obj 65 226 route achim golo guy;
#X obj 110 304 print golo;
#X obj 202 256 print;
#X obj 156 278 print guy;
#X obj 66 472 osc~;
#X obj 66 543 dac~;
#X obj 66 509 *~;
#X obj 66 418 clip 200 1000;
#X text 187 418 set limits;
#X text 24 22 network identification (receiver);
#X text 215 226 routing incoming streams by name tag;
#X obj 304 64 tgl 15 0 empty empty empty 17 7 0 10 #fcfcfc #000000 #000000 0 1;
#X msg 304 91 \; pd dsp \$1 \;;
#X obj 65 69 netreceive 3001 1;
#X obj 91 100 print achim-receive;
#X connect 0 0 3 0;
#X connect 1 0 15 1;
#X connect 2 0 13 0;
#X connect 3 0 16 0;
#X connect 4 0 0 0;
#X connect 4 1 1 0;
#X connect 5 0 6 0;
#X connect 5 1 7 0;
#X connect 5 2 8 0;
#X connect 9 0 4 0;
#X connect 9 1 10 0;
#X connect 9 2 12 0;
#X connect 9 3 11 0;
#X connect 13 0 15 0;
#X connect 15 0 14 0;
#X connect 15 0 14 1;
#X connect 16 0 2 0;
#X connect 20 0 21 0;
#X connect 22 0 5 0;
#X connect 22 0 9 0;
#X connect 22 0 23 0;
