#N canvas 526 96 504 390 12;
#X text 35 66 You can send multiple messages in one message box by
separating them with commas:;
#X msg 42 158 1 \, 2 \, 3;
#X text 137 172 these each print on a new line;
#X msg 42 260 first 1 \, second 2 \, third 3;
#X obj 42 305 route first second third;
#X floatatom 42 336 5 0 0 0 - - -, f 5;
#X floatatom 105 334 5 0 0 0 - - -, f 5;
#X floatatom 168 335 5 0 0 0 - - -, f 5;
#X obj 42 189 print;
#X text 39 25 Multiple Messages;
#X connect 1 0 8 0;
#X connect 3 0 4 0;
#X connect 4 0 5 0;
#X connect 4 1 6 0;
#X connect 4 2 7 0;
