#N canvas 363 136 602 551 12;
#X obj 122 89 symbol;
#X obj 63 89 bang;
#X obj 303 89 f;
#X obj 208 89 float;
#X text 268 89 aka;
#X text 36 384 If a storage object receives a value on the left inlet \, then it outputs that value immediately in addition to storing it.;
#X text 35 254 If a storage object receives a value on the right inlet \, then it stores that value.;
#X text 28 123 If you bang the left inlet of a storage object \, it outputs its stored value.;
#X obj 170 334 float;
#X msg 195 302 123;
#X obj 124 478 float;
#X msg 170 452 123;
#X msg 124 453 432;
#X msg 237 301 321;
#X floatatom 170 358 5 0 0 0 - - - 0;
#X floatatom 185 228 5 0 0 0 - - - 0;
#X floatatom 124 507 5 0 0 0 - - - 0;
#X obj 185 199 float 5.5;
#X text 98 58 A storage object stores data.;
#X obj 362 89 list;
#X obj 299 198 symbol yoyo;
#X symbolatom 299 227 10 0 0 0 - - - 0;
#X msg 185 171 bang;
#X msg 299 170 bang;
#X msg 132 303 bang;
#X obj 320 329 symbol yoyo;
#X symbolatom 320 358 10 0 0 0 - - - 0;
#X msg 320 301 bang;
#X msg 70 453 bang;
#X msg 394 281 symbol one;
#X msg 411 307 symbol two;
#X obj 422 89 pointer;
#X text 36 27 Storage Objects;
#X connect 8 0 14 0;
#X connect 9 0 8 1;
#X connect 10 0 16 0;
#X connect 11 0 10 1;
#X connect 12 0 10 0;
#X connect 13 0 8 1;
#X connect 17 0 15 0;
#X connect 20 0 21 0;
#X connect 22 0 17 0;
#X connect 23 0 20 0;
#X connect 24 0 8 0;
#X connect 25 0 26 0;
#X connect 27 0 25 0;
#X connect 28 0 10 0;
#X connect 29 0 25 1;
#X connect 30 0 25 1;
