#N canvas 141 40 860 409 12;
#X symbolatom 218 285 10 0 0 1 symbol_box_expects_a_symbol_message - - 0;
#X obj 34 250 + 1;
#X msg 33 162 1;
#X floatatom 34 281 5 0 0 0 - - - 0;
#X text 85 162 <-- messages -->;
#X text 89 251 <-- objects -->;
#X text 23 56 Objects respond to messages received on their inlets \, and output messages on their outlets. These messages can be anything from data to commands.;
#X text 26 129 data;
#X text 29 325 All communication within Pd is in the form of messages \, including when the user is controlling the program.;
#X msg 46 197 2;
#X text 21 24 Messages;
#X obj 218 252 symbol;
#X floatatom 468 166 5 0 0 0 - - - 0;
#X msg 468 196 \$1;
#X text 271 252 Convert message to symbol;
#X floatatom 468 228 5 0 0 0 - - - 0;
#X listbox 680 262 9 0 0 0 - - - 0;
#X obj 680 200 pack f f;
#X floatatom 680 171 5 0 0 0 - - - 0;
#X floatatom 733 170 5 0 0 0 - - - 0;
#X msg 680 229 \$2 \$1;
#X text 747 201 make a list;
#X text 462 132 object(s) e.g. number(s) to message;
#X msg 218 163 hello;
#X msg 233 206 Ciao!;
#X text 501 197 variable: first input;
#X text 728 229 reorder list;
#X text 218 130 command;
#X connect 1 0 3 0;
#X connect 2 0 1 0;
#X connect 9 0 1 0;
#X connect 11 0 0 0;
#X connect 12 0 13 0;
#X connect 13 0 15 0;
#X connect 17 0 20 0;
#X connect 18 0 17 0;
#X connect 19 0 17 1;
#X connect 20 0 16 0;
#X connect 23 0 11 0;
#X connect 24 0 11 0;
