#N canvas 526 96 504 390 12;
#X msg 39 113 1 \, 2 \, 3;
#X text 134 127 these each print on a new line;
#X obj 39 260 route first second third;
#X floatatom 39 291 5 0 0 0 - - - 0;
#X floatatom 94 290 5 0 0 0 - - - 0;
#X floatatom 149 289 5 0 0 0 - - - 0;
#X obj 39 144 print;
#X text 39 25 Multiple Messages;
#X msg 39 215 first 1 \, second 2 \, third 3 \, blah;
#X obj 204 289 print;
#X text 35 66 You can send multiple consecutive messages in one message box by separating them with commas:;
#X connect 0 0 6 0;
#X connect 2 0 3 0;
#X connect 2 1 4 0;
#X connect 2 2 5 0;
#X connect 2 3 9 0;
#X connect 8 0 2 0;
