#N canvas 37 38 516 478 12;
#X text 53 24 Arithmetic objects;
#X obj 110 268 +;
#X obj 165 270 -;
#X obj 219 270 *;
#X obj 274 270 /;
#X obj 333 271 pow;
#X floatatom 167 180 5 0 0 0 - - - 0;
#X floatatom 110 295 0 0 0 0 - - - 0;
#X floatatom 165 296 0 0 0 0 - - - 0;
#X floatatom 219 296 0 0 0 0 - - - 0;
#X floatatom 274 296 0 0 0 0 - - - 0;
#X floatatom 333 297 0 0 0 0 - - - 0;
#X floatatom 354 179 5 0 0 0 - - - 0;
#X text 51 52 All of these objects operate the same way. The right inlet sets or changes the numeric value of the object. Sending a number to the left inlet forces the object to perform the operation with the current numeric value of the object and output the result. A "bang" will output the result without changing the numeric values at either inlet. A creation argument can be used to define the initial numeric value of the right inlet.;
#X floatatom 420 299 0 0 0 0 - - - 0;
#X obj 420 274 sqrt;
#X floatatom 420 348 5 0 0 0 - - - 0;
#X obj 420 324 *;
#X floatatom 65 295 0 0 0 0 - - - 0;
#X obj 65 267 abs;
#X text 52 381 The [pow] is used to exponentiate a number. The object returns the value at the left inlet to the power of the right inlet where the left inlet is the base and the right inlet is the exponent. For example: 2 to the power of 2 = 4 (i.e. 2 Squared) \, therefor the squareroot of 4 is 2;
#X connect 1 0 7 0;
#X connect 2 0 8 0;
#X connect 3 0 9 0;
#X connect 4 0 10 0;
#X connect 5 0 11 0;
#X connect 6 0 1 0;
#X connect 6 0 2 0;
#X connect 6 0 3 0;
#X connect 6 0 4 0;
#X connect 6 0 5 0;
#X connect 6 0 19 0;
#X connect 11 0 15 0;
#X connect 12 0 5 1;
#X connect 12 0 4 1;
#X connect 12 0 3 1;
#X connect 12 0 2 1;
#X connect 12 0 1 1;
#X connect 14 0 17 1;
#X connect 14 0 17 0;
#X connect 15 0 14 0;
#X connect 17 0 16 0;
#X connect 19 0 18 0;
