#N canvas 325 25 511 671 12;
#X obj 40 156 == 42;
#X floatatom 82 126 5 0 0 0 - - - 0;
#X floatatom 40 187 2 0 0 0 - - - 0;
#X obj 68 190 bng 15 250 50 0 empty empty empty 0 -6 0 8 #fcfcfc #000000 #000000;
#X msg 41 125 42;
#X text 36 98 For example: IF 42 is equal to x \, then "1" (True);
#X text 92 182 Note that the object outputs 1 or 0 with every incoming message.;
#X text 36 26 Most relational operators output a boolean value: true or false (1 or 0) depending on the relation between the input (left inlet) and the condition (right inlet or creation argument).;
#X floatatom 258 352 0 0 0 0 - - - 0;
#X floatatom 318 459 0 0 0 0 - - - 0;
#X obj 259 324 >;
#X obj 318 433 ==;
#X floatatom 356 241 5 0 0 0 - - - 0;
#X floatatom 405 212 5 0 0 0 - - - 0;
#X text 91 325 Is a greater than b?;
#X floatatom 289 403 0 0 0 0 - - - 0;
#X text 22 378 Is a greater than or equal to b?;
#X obj 289 376 >=;
#X text 179 433 Is a equal to b?;
#X obj 351 487 !=;
#X floatatom 352 513 0 0 0 0 - - - 0;
#X text 183 488 Is a NOT equal to b?;
#X floatatom 390 564 0 0 0 0 - - - 0;
#X text 246 535 Is a less than b?;
#X obj 390 537 <;
#X floatatom 423 617 0 0 0 0 - - - 0;
#X text 182 590 Is a less than or equal to b?;
#X obj 404 239 t b f;
#X text 333 241 a;
#X text 385 212 b;
#X obj 423 589 <=;
#X connect 0 0 2 0;
#X connect 0 0 3 0;
#X connect 1 0 0 0;
#X connect 4 0 0 0;
#X connect 10 0 8 0;
#X connect 11 0 9 0;
#X connect 12 0 10 0;
#X connect 12 0 17 0;
#X connect 12 0 11 0;
#X connect 12 0 19 0;
#X connect 12 0 24 0;
#X connect 12 0 30 0;
#X connect 13 0 27 0;
#X connect 17 0 15 0;
#X connect 19 0 20 0;
#X connect 24 0 22 0;
#X connect 27 0 12 0;
#X connect 27 1 10 1;
#X connect 27 1 17 1;
#X connect 27 1 11 1;
#X connect 27 1 19 1;
#X connect 27 1 24 1;
#X connect 27 1 30 1;
#X connect 30 0 25 0;
