#N canvas 428 121 527 366 12;
#X obj 162 62 tgl 15 0 empty empty empty 0 -6 0 8 #fcfcfc #000000 #000000 0 1;
#X floatatom 52 289 5 0 0 0 - - - 0;
#X text 106 25 Clip numbers in range;
#X obj 162 148 - 100;
#X floatatom 303 291 5 0 0 0 - - - 0;
#X obj 303 256 clip 40 -70;
#X floatatom 407 289 5 0 0 0 - - - 0;
#X obj 407 215 tgl 15 0 empty empty empty 0 -6 0 8 #fcfcfc #000000 #000000 0 1;
#X obj 407 256 clip 1 -1024;
#X text 307 316 switch between 2 numbers;
#X text 300 211 < 40 = 40;
#X text 298 233 > 40 = -70;
#X floatatom 161 174 5 0 0 0 - - - 0;
#X obj 162 90 metro 1000;
#X obj 164 259 hsl 128 15 -50 50 0 0 empty empty empty -2 -8 0 10 #fcfcfc #000000 #000000 0 1;
#X floatatom 161 291 5 0 0 0 - - - 0;
#X obj 52 255 clip -30 40;
#X obj 162 121 random 201;
#X connect 0 0 13 0;
#X connect 3 0 12 0;
#X connect 5 0 4 0;
#X connect 7 0 8 0;
#X connect 8 0 6 0;
#X connect 12 0 5 0;
#X connect 12 0 14 0;
#X connect 12 0 16 0;
#X connect 13 0 7 0;
#X connect 13 0 17 0;
#X connect 14 0 15 0;
#X connect 16 0 1 0;
#X connect 17 0 3 0;
