#N canvas 632 269 482 407 12;
#X obj 140 303 div;
#X obj 177 198 pow 2;
#X msg 140 77 1.23456;
#X obj 140 145 t f b;
#X obj 140 247 *;
#X floatatom 140 358 10 0 0 0 - - -, f 10;
#X obj 177 173 f 10;
#X msg 214 77 1.54635;
#X msg 70 77 23.5678;
#X msg 297 144 3;
#X msg 257 143 1;
#X obj 140 275 + 0.5;
#X obj 140 331 /;
#X msg 215 143 0;
#X text 334 145 decimals;
#X text 63 38 Round numbers to defined fractional part;
#X text 190 274 Round to the correct integer;
#X msg 290 77 43.2;
#X connect 0 0 12 0;
#X connect 1 0 4 1;
#X connect 1 0 12 1;
#X connect 2 0 3 0;
#X connect 3 0 4 0;
#X connect 3 1 6 0;
#X connect 4 0 11 0;
#X connect 6 0 1 0;
#X connect 7 0 3 0;
#X connect 8 0 3 0;
#X connect 9 0 1 1;
#X connect 10 0 1 1;
#X connect 11 0 0 0;
#X connect 12 0 5 0;
#X connect 13 0 1 1;
#X connect 17 0 3 0;
