#N canvas 241 90 543 417 12;
#X obj 61 242 hsl 128 15 -1 2 0 0 empty empty empty -2 -8 0 10 #fcfcfc #000000 #000000 0 1;
#X obj 58 295 wrap;
#X floatatom 58 325 5 0 0 0 - - - 0;
#X floatatom 58 269 5 0 0 0 - - - 0;
#X obj 368 276 wrap~;
#X text 202 278 for audio see also:;
#X text 52 22 Wrapping numbers;
#X obj 58 185 loadbang;
#X msg 58 213 0;
#X obj 61 358 hsl 128 15 -1 2 0 0 empty empty empty -2 -8 0 10 #fcfcfc #000000 #000000 0 1;
#X text 50 53 Wrap the input to a value between 0 -1 \, including negative numbers (where -0.2 maps to 0.8.) [wrap] gives the difference between the input and the largest integer not exceeding it (for positive numbers this is the fractional part) \, somehow a float-capable modulo-function with some extensions.;
#X connect 0 0 3 0;
#X connect 1 0 2 0;
#X connect 2 0 9 0;
#X connect 3 0 1 0;
#X connect 7 0 8 0;
#X connect 8 0 0 0;
