#N canvas 356 84 588 520 12;
#X obj 261 275 -;
#X obj 345 258 -;
#X obj 317 221 t f b f;
#X obj 261 322 /;
#X obj 261 359 *;
#X obj 261 397 +;
#X obj 426 254 -;
#X obj 398 215 t f b f;
#X obj 361 90 loadbang;
#X msg 317 177 \$1;
#X msg 353 176 \$2;
#X msg 398 178 \$3;
#X msg 439 178 \$4;
#X obj 262 115 vsl 15 128 0 127 0 0 empty empty empty 0 -9 0 10 #fcfcfc #000000 #000000 0 1;
#X msg 361 117 0 127 1 10;
#X floatatom 261 429 5 0 0 0 - - - 0;
#X floatatom 262 251 5 0 0 0 - - - 0;
#X text 173 33 Rescale range;
#X text 174 56 Arguments 1-4: from low/high to low/high;
#X text 117 275 subtract offset: 0;
#X text 39 361 multiply by range: 10 - 1 = 9;
#X text 150 398 add offset: 1;
#X text 14 322 divide by range: 127-0=127 / 127;
#X connect 0 0 3 0;
#X connect 1 0 3 1;
#X connect 2 0 0 1;
#X connect 2 1 1 0;
#X connect 2 2 1 1;
#X connect 3 0 4 0;
#X connect 4 0 5 0;
#X connect 5 0 15 0;
#X connect 6 0 4 1;
#X connect 7 0 5 1;
#X connect 7 1 6 0;
#X connect 7 2 6 1;
#X connect 8 0 14 0;
#X connect 9 0 2 0;
#X connect 10 0 1 0;
#X connect 11 0 7 0;
#X connect 12 0 6 0;
#X connect 13 0 16 0;
#X connect 14 0 9 0;
#X connect 14 0 10 0;
#X connect 14 0 11 0;
#X connect 14 0 12 0;
#X connect 16 0 0 0;
