#N canvas 356 84 588 520 12;
#X obj 277 274 -;
#X obj 361 257 -;
#X obj 333 220 t f b f;
#X obj 277 324 /;
#X obj 277 378 *;
#X obj 277 430 +;
#X obj 442 253 -;
#X obj 414 214 t f b f;
#X obj 333 89 loadbang;
#X msg 333 176 \$1;
#X msg 369 175 \$2;
#X msg 414 177 \$3;
#X msg 455 177 \$4;
#X obj 277 96 vsl 15 128 0 127 0 0 empty empty empty 0 -9 0 10 #fcfcfc #000000 #000000 0 1;
#X floatatom 277 457 5 0 0 0 - - - 0;
#X floatatom 277 232 5 0 0 0 - - - 0;
#X text 173 33 Rescale range;
#X text 174 56 Arguments 1-4: from low/high to low/high;
#X text 43 378 multiply by range: 10 - 1 = 9;
#X text 154 428 add offset: 1;
#X text 87 266 subtract offset: shift the lowest number to 0:, f 23;
#X text 116 318 divide by range: 127 - 0 = 127 / 127, f 19;
#X msg 455 116 60 80 -1 1;
#X floatatom 277 300 5 0 0 0 - - - 0;
#X floatatom 277 352 5 0 0 0 - - - 0;
#X floatatom 277 405 5 0 0 0 - - - 0;
#X msg 333 116 0 127 0 1;
#X connect 0 0 23 0;
#X connect 1 0 3 1;
#X connect 2 0 0 1;
#X connect 2 1 1 0;
#X connect 2 2 1 1;
#X connect 3 0 24 0;
#X connect 4 0 25 0;
#X connect 5 0 14 0;
#X connect 6 0 4 1;
#X connect 7 0 5 1;
#X connect 7 1 6 0;
#X connect 7 2 6 1;
#X connect 8 0 26 0;
#X connect 9 0 2 0;
#X connect 10 0 1 0;
#X connect 11 0 7 0;
#X connect 12 0 6 0;
#X connect 13 0 15 0;
#X connect 15 0 0 0;
#X connect 22 0 9 0;
#X connect 22 0 10 0;
#X connect 22 0 11 0;
#X connect 22 0 12 0;
#X connect 23 0 3 0;
#X connect 24 0 4 0;
#X connect 25 0 5 0;
#X connect 26 0 9 0;
#X connect 26 0 10 0;
#X connect 26 0 11 0;
#X connect 26 0 12 0;
