#N canvas 730 315 352 230 12;
#X obj 103 69 tgl 19 0 empty empty empty 0 -10 0 12 #fcfcfc #000000 #000000 0 1;
#X obj 103 93 > 0;
#X obj 103 117 - 1;
#X obj 103 141 abs;
#X floatatom 103 165 5 0 0 0 - - - 0;
#X obj 215 67 tgl 19 0 empty empty empty 0 -10 0 12 #fcfcfc #000000 #000000 0 1;
#X obj 215 139 abs;
#X floatatom 215 163 5 0 0 0 - - - 0;
#X obj 215 91 - 1;
#X obj 215 115 * -1;
#X text 96 27 2 ways to switch 0 and 1;
#X connect 0 0 1 0;
#X connect 1 0 2 0;
#X connect 2 0 3 0;
#X connect 3 0 4 0;
#X connect 5 0 8 0;
#X connect 6 0 7 0;
#X connect 8 0 9 0;
#X connect 9 0 6 0;
