#N canvas 425 25 495 667 12;
#X obj 30 89 adc~;
#X obj 31 366 mtof;
#X floatatom 31 398 5 0 0 0 - - - 0;
#X obj 32 651 dac~;
#X obj 32 511 osc~;
#X obj 32 564 *~;
#X obj 140 520 line~;
#X msg 140 484 0 1000;
#X obj 31 430 t f b b, f 16;
#X text 72 88 audio input;
#X text 130 136 fiddle~ is for fundamental frequency estimation;
#X text 80 397 frequency in hertz;
#X obj 32 614 *~;
#X obj 57 163 bng 15 250 50 0 empty empty empty 0 -6 0 8 #fcfcfc #000000 #000000;
#X text 79 162 bang on attack;
#X obj 388 34 tgl 15 0 empty empty empty 17 7 0 10 #fcfcfc #000000 #000000 0 1;
#X msg 388 58 \; pd dsp \$1;
#X text 27 23 pitch tracking with [fiddle~] and [sigmund~];
#X obj 53 592 hsl 128 15 0 1 0 0 empty empty empty -2 -8 0 10 #fcfcfc #000000 #000000 0 1;
#X floatatom 68 276 5 0 0 0 - - - 0;
#X obj 105 314 hradio 15 1 0 2 empty empty empty 0 -8 0 10 #fcfcfc #000000 #000000 0;
#N canvas 0 23 442 353 inswitch 0;
#X obj 259 93 inlet;
#X text 74 49 with toggle on it switsches to 2nd input;
#X text 73 32 switch between two inputs;
#X obj 92 246 spigot;
#X obj 176 200 spigot;
#X obj 288 172 - 1;
#X obj 288 197 abs;
#X obj 176 305 outlet;
#X obj 259 132 f 0;
#X obj 312 93 loadbang;
#X obj 92 92 inlet in1;
#X obj 176 93 inlet in2;
#X connect 0 0 8 0;
#X connect 3 0 7 0;
#X connect 4 0 7 0;
#X connect 5 0 6 0;
#X connect 6 0 3 1;
#X connect 8 0 5 0;
#X connect 8 0 4 1;
#X connect 9 0 8 0;
#X connect 10 0 3 0;
#X connect 11 0 4 0;
#X restore 31 338 pd inswitch;
#X floatatom 30 185 5 0 0 0 - - - 0;
#X obj 140 456 delay 100;
#X msg 85 482 1 100;
#X obj 69 249 sigmund~ -hop 2048 notes;
#X text 167 225 see help for more information;
#X obj 30 137 fiddle~ 2048;
#X obj 69 206 adc~;
#X text 75 365 midi-to-frequency;
#X text 107 277 (pitch-tracking) output is in midi note numbers!;
#X text 197 481 shut off oscillator in one second unless new trigger input to line~ object override old one., f 37;
#X text 139 312 switch between [fiddle~] and [sigmund~].;
#X connect 0 0 27 0;
#X connect 0 1 27 0;
#X connect 1 0 2 0;
#X connect 2 0 8 0;
#X connect 4 0 5 0;
#X connect 5 0 12 0;
#X connect 6 0 5 1;
#X connect 7 0 6 0;
#X connect 8 0 4 0;
#X connect 8 1 24 0;
#X connect 8 2 23 0;
#X connect 12 0 3 0;
#X connect 12 0 3 1;
#X connect 15 0 16 0;
#X connect 18 0 12 1;
#X connect 19 0 21 1;
#X connect 20 0 21 2;
#X connect 21 0 1 0;
#X connect 22 0 21 0;
#X connect 23 0 7 0;
#X connect 24 0 6 0;
#X connect 25 0 19 0;
#X connect 27 0 22 0;
#X connect 27 1 13 0;
#X connect 28 0 25 0;
#X connect 28 1 25 0;
