#N canvas 567 143 518 644 12;
#X obj 27 317 mtof;
#X floatatom 27 349 5 0 0 0 - - - 0;
#X obj 28 462 osc~;
#X obj 28 515 *~;
#X obj 136 494 line~;
#X msg 136 458 0 1000;
#X obj 27 381 t f b b, f 16;
#X text 76 348 frequency in hertz;
#X obj 28 565 *~;
#X obj 388 34 tgl 15 0 empty empty empty 17 7 0 10 #fcfcfc #000000 #000000 0 1;
#X msg 388 58 \; pd dsp \$1;
#X obj 49 543 hsl 128 15 0 1 0 0 empty empty empty -2 -8 0 10 #fcfcfc #000000 #000000 0 1;
#X floatatom 27 290 5 0 0 0 - - - 0;
#X obj 136 430 delay 100;
#X msg 81 433 1 100;
#X text 71 316 midi-to-frequency;
#X text 66 291 (pitch-tracking) output is in midi note numbers!;
#X text 190 380 shut off oscillator in one second unless new trigger input to line~ object override old one., f 37;
#X obj 26 70 tgl 20 0 empty empty empty 0 -6 0 8 #fcfcfc #000000 #000000 0 0.992126;
#X obj 26 111 t f b;
#X obj 27 174 readsf~ 1;
#X msg 60 70 1;
#X msg 58 142 open ../Sounds/flute.wav;
#X obj 28 263 sigmund~ -npts 4096 -hop 512 notes;
#X text 27 23 Simple pitch tracking with [sigmund~];
#X obj 45 234 dac~ 1;
#X obj 28 602 dac~ 2;
#X obj 45 205 *~ 0.7;
#X connect 0 0 1 0;
#X connect 1 0 6 0;
#X connect 2 0 3 0;
#X connect 3 0 8 0;
#X connect 4 0 3 1;
#X connect 5 0 4 0;
#X connect 6 0 2 0;
#X connect 6 1 14 0;
#X connect 6 2 13 0;
#X connect 8 0 26 0;
#X connect 9 0 10 0;
#X connect 11 0 8 1;
#X connect 12 0 0 0;
#X connect 13 0 5 0;
#X connect 14 0 4 0;
#X connect 18 0 19 0;
#X connect 19 0 20 0;
#X connect 19 1 22 0;
#X connect 20 0 23 0;
#X connect 20 0 27 0;
#X connect 20 1 21 0;
#X connect 21 0 19 0;
#X connect 22 0 20 0;
#X connect 23 0 12 0;
#X connect 27 0 25 0;
