#N canvas 576 250 374 629 12;
#X declare -stdpath ./;
#X floatatom 33 354 8 0 0 0 - - - 0;
#X text 94 356 (MIDI);
#X obj 33 415 mtof;
#X floatatom 33 446 7 0 0 0 - - - 0;
#X obj 138 515 *~;
#X obj 33 388 trigger float bang;
#X obj 156 451 vline~;
#N canvas 246 419 400 253 init 0;
#X obj 70 79 loadbang;
#X obj 124 185 declare -stdpath ./;
#X obj 173 139 array define \$0-wave;
#X msg 70 106 sinesum 512 1 1 1 1 \, normalize;
#X obj 70 133 s \$0-wave;
#X text 167 52 Initialize wavetable;
#X connect 0 0 3 0;
#X connect 3 0 4 0;
#X restore 46 522 pd init;
#X obj 33 471 tabosc4~ \$0-wave;
#X obj 138 591 dac~ 2;
#X obj 53 280 dac~ 1;
#X msg 52 85 open ../Sounds/vl.wav;
#X msg 42 53 open ../Sounds/bcl.wav;
#X msg 32 28 open ../Sounds/fl.wav;
#X obj 32 217 readsf~ 1;
#X obj 32 188 tgl 19 0 empty empty empty 0 -10 0 12 #fcfcfc #000000 #000000 0 1;
#X msg 156 417 0.25 10 \, 0 300 2000;
#X obj 32 312 sigmund~ -npts 2048 -stabletime 70 -growth 20 -vibrato 0.4 -minpower 20 notes, f 43;
#X msg 60 117 open ../Sounds/vc.wav;
#X obj 32 162 t b a;
#X obj 159 538 hsl 162 19 0 1 0 0 empty empty empty -2 -10 0 12 #fcfcfc #000000 #000000 0 1;
#X obj 138 564 *~;
#X obj 53 252 *~ 0.4;
#X connect 0 0 5 0;
#X connect 2 0 3 0;
#X connect 3 0 8 0;
#X connect 4 0 21 0;
#X connect 5 0 2 0;
#X connect 5 1 16 0;
#X connect 6 0 4 1;
#X connect 8 0 4 0;
#X connect 11 0 19 0;
#X connect 12 0 19 0;
#X connect 13 0 19 0;
#X connect 14 0 17 0;
#X connect 14 0 22 0;
#X connect 15 0 14 0;
#X connect 16 0 6 0;
#X connect 17 0 0 0;
#X connect 18 0 19 0;
#X connect 19 0 15 0;
#X connect 19 1 14 0;
#X connect 20 0 21 1;
#X connect 21 0 9 0;
#X connect 22 0 10 0;
