#N canvas 136 50 468 680 12;
#X declare -path abs;
#X obj 91 638 dac~;
#X text 127 116 audio input;
#X obj 172 546 *~;
#X obj 327 102 tgl 15 0 empty empty empty 17 7 0 10 #fcfcfc #000000 #000000 0 1;
#X msg 327 126 \; pd dsp \$1;
#X obj 106 317 route 0 1 2 3 4;
#X obj 47 74 tgl 20 0 \$0-tog empty empty 0 -6 0 8 #fcfcfc #000000 #000000 0 0.992126;
#X obj 47 103 t f b;
#X obj 47 171 readsf~ 1;
#X msg 142 171 1;
#N canvas 348 403 200 271 xfade 0;
#X obj 40 27 inlet;
#X msg 42 148 1;
#X obj 123 220 outlet;
#X obj 43 220 outlet;
#X obj 43 181 -;
#X obj 42 119 t b f;
#X obj 41 83 line;
#X obj 41 55 pack \$1 100;
#X connect 0 0 7 0;
#X connect 1 0 4 0;
#X connect 4 0 3 0;
#X connect 5 0 1 0;
#X connect 5 1 4 1;
#X connect 6 0 5 0;
#X connect 6 0 2 0;
#X connect 7 0 6 0;
#X restore 68 504 pd xfade;
#X obj 71 478 hsl 80 15 0 1 0 0 empty xfade empty -2 -8 0 10 #fcfcfc #000000 #000000 0 1;
#X obj 50 545 *~;
#X obj 101 589 +~;
#X obj 241 402 partial_osc;
#X text 45 24 pitch tracking and additive synthesis with [sigmund~];
#X obj 68 446 loadbang;
#X obj 273 373 partial_osc;
#X obj 172 481 partial_osc;
#X obj 194 455 partial_osc;
#X obj 213 428 partial_osc;
#X obj 125 288 print;
#X obj 106 209 sigmund~ -hop 2048 -maxfreq 5000 -npeak 5 peaks;
#X obj 125 263 spigot;
#X obj 164 240 tgl 15 0 empty empty empty 17 7 0 10 #fcfcfc #000000 #000000 0 1;
#X text 191 270 ((0 x x x x)(1 x x x x)(2 x x x x));
#X obj 221 318 metro 25;
#X obj 302 483 declare -path abs;
#X msg 79 136 open ../Sounds/1-4.wav;
#X obj 221 292 tgl 19 0 empty \$0-tog empty 0 -10 0 12 #fcfcfc #000000 #000000 0 1;
#X connect 2 0 13 1;
#X connect 3 0 4 0;
#X connect 5 0 18 1;
#X connect 5 1 19 1;
#X connect 5 2 20 1;
#X connect 5 3 14 1;
#X connect 5 4 17 1;
#X connect 6 0 7 0;
#X connect 7 0 8 0;
#X connect 7 1 28 0;
#X connect 8 0 12 0;
#X connect 8 0 22 0;
#X connect 8 1 9 0;
#X connect 9 0 7 0;
#X connect 10 0 12 1;
#X connect 10 1 2 1;
#X connect 11 0 10 0;
#X connect 12 0 13 0;
#X connect 13 0 0 0;
#X connect 13 0 0 1;
#X connect 14 0 2 0;
#X connect 16 0 11 0;
#X connect 17 0 2 0;
#X connect 18 0 2 0;
#X connect 19 0 2 0;
#X connect 20 0 2 0;
#X connect 22 0 5 0;
#X connect 22 0 23 0;
#X connect 23 0 21 0;
#X connect 24 0 23 1;
#X connect 26 0 18 0;
#X connect 26 0 17 0;
#X connect 26 0 14 0;
#X connect 26 0 19 0;
#X connect 26 0 20 0;
#X connect 28 0 8 0;
#X connect 29 0 26 0;
