#N canvas 954 168 332 703 12;
#X obj 185 21 key;
#X floatatom 185 48 5 0 0 0 - - -, f 5;
#X obj 187 317 *;
#X obj 187 346 sel 114 32 8;
#X obj 94 394 bng 15 250 50 0 empty empty empty 17 7 0 10 -262144 -1
-1;
#X obj 179 394 bng 15 250 50 0 empty empty empty 17 7 0 10 -262144
-1 -1;
#X obj 241 392 bng 15 250 50 0 empty empty empty 17 7 0 10 -262144
-1 -1;
#X obj 196 72 key;
#X obj 196 101 - 48;
#X obj 195 227 ==;
#X obj 196 171 t b f;
#X obj 195 195 f \$1;
#X floatatom 195 251 5 0 0 0 - - -, f 5;
#X obj 196 282 t b f;
#X floatatom 196 136 5 0 0 0 - - -, f 5;
#X obj 111 593 f;
#X obj 188 592 +;
#X obj 189 657 outlet;
#X msg 179 416 1;
#X msg 240 416 -1;
#X msg 94 415 0;
#X obj 178 449 t b a;
#X obj 239 449 t b a;
#X floatatom 202 624 5 0 0 0 - - -, f 5;
#X obj 96 449 t b a b;
#X msg 172 546 1;
#X floatatom 108 629 5 0 0 0 - - -, f 5;
#X obj 108 657 outlet;
#X obj 69 272 key;
#X floatatom 69 301 5 0 0 0 - - -, f 5;
#X obj 70 344 sel 82 65 83;
#X obj 235 319 print;
#X connect 0 0 1 0;
#X connect 1 0 2 0;
#X connect 2 0 3 0;
#X connect 2 0 31 0;
#X connect 3 0 4 0;
#X connect 3 1 5 0;
#X connect 3 2 6 0;
#X connect 4 0 20 0;
#X connect 5 0 18 0;
#X connect 6 0 19 0;
#X connect 7 0 8 0;
#X connect 8 0 14 0;
#X connect 9 0 12 0;
#X connect 10 0 11 0;
#X connect 10 1 9 1;
#X connect 11 0 9 0;
#X connect 12 0 13 0;
#X connect 13 0 2 0;
#X connect 13 1 2 1;
#X connect 14 0 10 0;
#X connect 15 0 16 0;
#X connect 15 0 26 0;
#X connect 16 0 15 1;
#X connect 16 0 17 0;
#X connect 16 0 23 0;
#X connect 18 0 21 0;
#X connect 19 0 22 0;
#X connect 20 0 24 0;
#X connect 21 0 15 0;
#X connect 21 1 16 1;
#X connect 22 0 15 0;
#X connect 22 1 16 1;
#X connect 24 0 15 0;
#X connect 24 1 15 1;
#X connect 24 2 25 0;
#X connect 25 0 16 1;
#X connect 26 0 27 0;
#X connect 28 0 29 0;
#X connect 29 0 30 0;
#X connect 30 0 4 0;
#X connect 30 1 5 0;
#X connect 30 2 6 0;
