#N canvas 408 128 458 447 12;
#X text 223 149 <-- click here \,;
#X msg 153 149 3 2 1;
#X obj 153 267 print último;
#X obj 276 215 print first;
#X obj 214 240 print nächste;
#X text 19 374 There are occasional exceptions where it makes sense to break this convention. But you shouldn't do it unless it really is necessary. This will save you in the long run.;
#X text 15 80 Just like the flow of programming in Pd \, the data should be output from right to left.;
#N canvas 160 202 318 162 spread 0;
#X obj 46 30 inlet;
#X obj 45 91 outlet;
#X obj 127 89 outlet;
#X obj 210 88 outlet;
#X obj 45 58 unpack float float float;
#X connect 0 0 4 0;
#X connect 4 0 1 0;
#X connect 4 1 2 0;
#X connect 4 2 3 0;
#X restore 153 188 pd spread the love;
#X text 18 310 While there is nothing forcing you to output data to the outlets in any order \, Pd has a very strong convention for how data should be output from an object.;
#X text 257 268 now check the Pd window;
#X text 18 34 Outlet order;
#X connect 1 0 7 0;
#X connect 7 0 2 0;
#X connect 7 1 4 0;
#X connect 7 2 3 0;
