#N canvas 199 141 657 699 12;
#X obj 486 414 vsl 15 128 0 127 0 0 empty empty default_15x128 8 -8
0 8 -262144 -1 -1 0 1;
#X obj 373 134 tgl 100 1 empty empty 100_pix 8 -8 0 8 -250685 -24198
-42246 1 1;
#X obj 76 343 hsl 128 15 0 127 0 0 empty empty default_128x15 8 -8
0 8 -262144 -1 -1 0 1;
#X obj 97 318 hsl 20 8 0 19 0 0 empty empty min_20x8 8 -8 0 8 -262144
-1 -1 0 1;
#X obj 508 427 vsl 8 20 0 19 0 0 empty empty min_8x20 8 -8 0 8 -262144
-1 -1 0 1;
#X obj 480 134 tgl 8 0 empty empty min_8 8 -8 0 8 -262144 -1 -1 0 1
;
#X obj 480 157 tgl 15 0 empty empty default_15 8 -8 0 8 -262144 -1
-1 0 1;
#X obj 481 195 tgl 30 0 empty empty 30_pix 8 -8 0 8 -262144 -1 -1 0
1;
#X obj 120 180 bng 30 250 50 0 empty empty 30_pix 8 -8 0 8 -262144
-1 -1;
#X obj 438 412 vsl 30 250 0 249 0 1 empty empty 30x250 8 -8 0 8 -184301
-42886 -42246 21800 1;
#X obj 26 363 hsl 251 30 0 250 0 1 empty empty 251x30 8 -8 0 8 -147456
-1109 -66577 12500 1;
#X text 163 619 (c) musil@iem.kug.ac.at;
#X text 205 632 IEM KUG;
#X text 180 644 graz \, austria 2001;
#X obj 61 445 vu 25 200 empty empty 8 -8 0 8 -1 -99865 1 0;
#X obj 32 116 bng 75 5000 25 1 empty empty 75pix+init 8 -8 0 8 -262131
-261458 -123526;
#X obj 121 478 vu 15 120 empty empty 8 -8 0 8 -66577 -1 1 0;
#X obj 207 477 vu 10 80 empty empty 8 -8 0 8 -66577 -1 1 0;
#N canvas 10 40 620 460 animate_vu 0;
#X obj 40 211 t f f;
#X obj 65 233 + 6;
#X obj 40 257 pack 0 0;
#X obj 78 94 tgl 15 0 empty empty empty 8 -8 0 10 -262144 -1 -1 0 1
;
#X obj 78 115 sel 0 1;
#X obj 78 74 metro 4000;
#X msg 100 137 30 3000;
#X msg 78 167 -130 3000;
#X obj 40 189 line -130 50;
#X obj 78 51 inlet;
#X obj 40 316 outlet;
#X obj 87 316 outlet;
#X obj 134 316 outlet;
#X connect 0 0 2 0;
#X connect 0 1 1 0;
#X connect 1 0 2 1;
#X connect 2 0 10 0;
#X connect 2 0 11 0;
#X connect 2 0 12 0;
#X connect 3 0 4 0;
#X connect 4 0 7 0;
#X connect 4 1 6 0;
#X connect 5 0 3 0;
#X connect 6 0 8 0;
#X connect 7 0 8 0;
#X connect 8 0 0 0;
#X connect 9 0 5 0;
#X restore 132 435 pd animate_vu;
#X obj 132 417 tgl 15 1 empty empty empty 8 -8 0 10 -262144 -1 -1 1
1;
#X obj 32 252 print initial_bang;
#X obj 40 210 bng 15 250 50 0 empty empty default_15 8 -8 0 8 -262144
-1 -1;
#X obj 123 140 bng 8 250 50 0 empty empty min_8 8 -8 0 10 -262144 -1
-1;
#X obj 40 229 print no_initial_bang;
#X obj 278 471 cnv 15 120 30 empty empty empty 20 12 2 20 -225280 -66577
0;
#X obj 278 502 cnv 15 120 30 empty empty empty 20 12 2 20 -261681 -66577
0;
#X obj 194 477 vu 10 80 empty empty 8 -8 0 8 -66577 -1 0 0;
#X obj 329 295 hradio 15 1 1 8 empty empty default_8*15 8 -8 0 8 -262144
-1 -1 2;
#X obj 273 315 hradio 25 1 1 12 empty empty 12*25 8 -8 0 8 -1433 -225280
-355 1;
#X floatatom 528 205 4 0 0 3 mean - -, f 4;
#X obj 278 533 cnv 15 120 60 empty empty With_Label 20 12 0 12 -228992
-66577 0;
#X obj 244 351 cnv 1 350 1 empty empty empty 20 12 2 20 -258699 -66577
0;
#X obj 23 400 cnv 1 268 1 empty empty empty 20 12 2 20 -258699 -66577
0;
#X obj 23 278 cnv 1 220 1 empty empty empty 20 12 2 20 -258699 -66577
0;
#X obj 244 243 cnv 1 350 1 empty empty empty 20 12 2 20 -258699 -66577
0;
#X obj 290 353 cnv 1 1 48 empty empty empty 20 12 2 20 -258699 -66577
0;
#X obj 251 400 cnv 1 1 200 empty empty empty 20 12 2 20 -258699 -66577
0;
#X obj 358 95 cnv 1 1 149 empty empty empty 20 12 2 20 -258699 -66577
0;
#X obj 417 352 cnv 1 1 310 empty empty empty 20 12 2 20 -258699 -66577
0;
#X obj 244 95 cnv 1 1 255 empty empty empty 20 12 2 20 -258699 -66577
0;
#X floatatom 573 204 4 0 0 3 peak - -, f 4;
#X obj 528 158 tgl 15 0 empty dsp_tgl empty 20 8 0 10 -370 -262144
-1 0 1;
#N canvas 10 40 620 460 dsp 0;
#X msg 31 88 \; pd dsp \$1;
#X obj 20 199 cputime;
#X obj 20 178 t b b;
#X text 15 11 dsp;
#X text 48 439 (c) musil@iem.kug.ac.at;
#X text 90 452 IEM KUG;
#X text 59 65 1/0 = ON/OFF;
#X text 97 313 CPU-load;
#X obj 62 126 loadbang;
#X obj 20 126 sel 1;
#X text 65 464 graz \, austria 2001;
#X text 64 12 turn dsp-kernel on & off \,;
#X obj 20 240 t f f;
#X text 65 408 average;
#X text 177 405 peak;
#X obj 211 154 f;
#X obj 146 179 > -1;
#X obj 169 155 f -1;
#X obj 179 91 t f b f;
#X obj 146 204 sel 1;
#X obj 192 132 f -1;
#X obj 20 154 metro 500;
#X obj 20 220 * 0.2;
#X text 74 37 -dsp-load in %;
#X text 65 24 measure average- and peak-;
#X obj 20 315 * 100;
#X obj 20 360 int;
#X obj 20 338 + 0.499;
#X obj 20 383 * 0.01;
#X obj 246 207 r pd;
#X obj 246 231 route dsp;
#X text 245 318 to toggle input;
#X msg 246 283 \; dsp_tgl set \$1;
#X obj 247 341 r dsp_tgl;
#X obj 246 257 route float;
#X obj 146 227 del 3990;
#N canvas 10 40 620 460 once 0;
#X text 7 204 (c) musil@iem.kug.ac.at;
#X text 49 214 IEM KUG;
#X text 24 223 graz \, austria 2001;
#X text 8 6 once;
#X obj 19 150 bang;
#X obj 56 65 f 0;
#X text 59 7 only the first message passes through;
#X obj 19 127 t b a;
#X obj 19 100 spigot;
#X obj 119 63 f 1;
#X obj 119 41 loadbang;
#X obj 19 40 inlet;
#X obj 49 183 outlet;
#X connect 4 0 5 0;
#X connect 5 0 8 1;
#X connect 7 0 4 0;
#X connect 7 1 12 0;
#X connect 8 0 7 0;
#X connect 9 0 8 1;
#X connect 10 0 9 0;
#X connect 11 0 8 0;
#X restore 111 264 pd once;
#N canvas 10 40 620 460 1p1z 0;
#X text 7 315 (c) musil@iem.kug.ac.at;
#X text 52 325 IEM KUG;
#X obj 22 231 +;
#X text 8 6 1p1z;
#X text 24 334 graz \, austria 2001;
#X text 104 22 y[n] = a0*x[n] + a1*x[n-1] + b1*y[n-1];
#X text 169 53 a0;
#X text 25 34 x[n];
#X text 24 280 y[n];
#X text 209 53 a1;
#X text 249 53 b1;
#X obj 284 52 loadbang;
#X text 64 102 x[n-1];
#X obj 40 205 +;
#X obj 22 133 *;
#X obj 40 160 *;
#X obj 59 182 *;
#X text 82 143 y[n-1];
#X obj 284 72 t b b b;
#X obj 40 98 f;
#X obj 59 138 f;
#X obj 22 71 t f b b;
#X text 350 63 x[n-1]init;
#X text 429 102 y[n-1]init;
#X text 147 202 1.arg: <float> a0;
#X text 147 213 2.arg: <float> a1;
#X text 147 224 3.arg: <float> b1;
#X text 63 5 <float> control-IIR-filter 1.order;
#X obj 162 115 f 0.1;
#X obj 202 142 f 0;
#X obj 242 164 f 0.9;
#X obj 22 49 inlet;
#X obj 162 71 inlet;
#X obj 202 71 inlet;
#X obj 242 71 inlet;
#X obj 356 80 inlet;
#X obj 431 120 inlet;
#X obj 22 264 outlet;
#X connect 2 0 20 1;
#X connect 2 0 37 0;
#X connect 11 0 18 0;
#X connect 13 0 2 1;
#X connect 14 0 2 0;
#X connect 15 0 13 0;
#X connect 16 0 13 1;
#X connect 18 0 28 0;
#X connect 18 1 29 0;
#X connect 18 2 30 0;
#X connect 19 0 15 0;
#X connect 20 0 16 0;
#X connect 21 0 14 0;
#X connect 21 0 19 1;
#X connect 21 1 19 0;
#X connect 21 2 20 0;
#X connect 28 0 14 1;
#X connect 29 0 15 1;
#X connect 30 0 16 1;
#X connect 31 0 21 0;
#X connect 32 0 28 0;
#X connect 33 0 29 0;
#X connect 34 0 30 0;
#X connect 35 0 19 1;
#X connect 36 0 20 1;
#X restore 20 289 pd 1p1z 0.1 0 0.9;
#X obj 20 65 inlet;
#X obj 20 406 outlet;
#X obj 211 405 outlet;
#X connect 1 0 22 0;
#X connect 2 0 1 0;
#X connect 2 1 1 1;
#X connect 8 0 21 0;
#X connect 9 0 21 0;
#X connect 12 0 37 0;
#X connect 15 0 17 1;
#X connect 15 0 40 0;
#X connect 16 0 19 0;
#X connect 17 0 16 1;
#X connect 18 0 16 0;
#X connect 18 1 17 0;
#X connect 18 2 15 1;
#X connect 19 0 15 0;
#X connect 19 0 35 0;
#X connect 20 0 17 1;
#X connect 21 0 2 0;
#X connect 22 0 12 0;
#X connect 22 0 18 0;
#X connect 25 0 27 0;
#X connect 26 0 28 0;
#X connect 27 0 26 0;
#X connect 28 0 39 0;
#X connect 29 0 30 0;
#X connect 30 0 34 0;
#X connect 34 0 32 0;
#X connect 35 0 20 0;
#X connect 37 0 25 0;
#X connect 38 0 0 0;
#X connect 38 0 9 0;
#X restore 528 178 pd dsp;
#X text 586 178 % cpu;
#X text 49 40 Pd comes with a standard \, built-in set of GUI elements
\, which you can select from the "Put" menu.;
#X text 48 22 GUI Objects;
#X obj 267 185 nbx 5 24 -1e+37 1e+37 0 0 \$5 \$5 empty 45 7 1 14 -258113
-4034 -1 0 256;
#X text 265 109 [nbx];
#X obj 268 134 nbx 5 14 -1e+37 1e+37 0 0 empty empty empty 0 -8 0 10
-262144 -1 -1 0 256;
#X text 374 94 [toggle] = [tgl];
#X text 120 96 [bng];
#X text 35 286 [hslider] = [hsl];
#X text 272 249 [radiobutton] = [rdb];
#X text 443 367 [vslider] = [vsl];
#X text 270 418 [canvas] = [cnv];
#X text 59 406 [vu];
#X obj 279 441 cnv 15 120 30 empty empty empty 20 12 2 20 -225271 -66577
0;
#X connect 15 0 20 0;
#X connect 18 0 16 0;
#X connect 18 0 14 0;
#X connect 18 1 26 0;
#X connect 18 2 17 0;
#X connect 19 0 18 0;
#X connect 21 0 23 0;
#X connect 41 0 42 0;
#X connect 42 0 29 0;
#X connect 42 1 40 0;
