#N canvas 965 277 529 603 12;
#X obj 179 94 env~ 4096;
#X floatatom 179 118 5 0 0 0 - - - 0;
#X obj 265 95 env~ 16384;
#X floatatom 265 120 5 0 0 0 - - - 0;
#X text 43 211 env~ calculates RMS amplitude over a number of samples (4096 =~ 93 msec \, 16384 =~ 270 msec with a samplingrate of 44100). Use env~ to estimate the amplitude of a signal \, 100 dB = maximum;
#X obj 291 293 tgl 15 0 empty empty empty 17 7 0 10 #fcfcfc #000000 #000000 0 1;
#X obj 291 313 metro 250;
#X obj 291 359 snapshot~;
#X obj 224 291 adc~ 1;
#X obj 354 271 hsl 128 15 10 2000 0 0 empty empty empty -2 -8 0 10 #fcfcfc #000000 #000000 0 1;
#X floatatom 291 385 10 0 0 0 - - - 0;
#X floatatom 291 486 10 0 0 0 - - - 0;
#X text 47 535 A snapshot~ object prints out the values of an incoming signal every time it is sent a bang message.;
#X obj 75 413 snapshot~;
#X floatatom 75 442 11 0 0 0 - - - 0;
#X obj 75 294 osc~ 0.1;
#X obj 179 37 adc~ 1;
#X obj 101 377 bng 15 250 50 0 empty empty empty 17 7 0 10 #fcfcfc #000000 #000000;
#X obj 101 321 tgl 15 0 empty empty empty 17 7 0 10 #fcfcfc #000000 #000000 0 1;
#X obj 101 347 metro 100;
#X floatatom 351 290 5 0 0 0 - - - 0;
#X obj 291 410 + 1;
#X obj 291 436 / 2;
#X obj 291 461 * 100;
#X obj 147 149 f, f 5;
#X floatatom 147 173 5 0 0 0 - - - 0;
#X obj 147 118 bng 19 250 50 0 empty empty empty 0 -10 0 12 #fcfcfc #000000 #000000;
#X obj 75 469 print;
#X connect 0 0 1 0;
#X connect 1 0 24 1;
#X connect 2 0 3 0;
#X connect 5 0 6 0;
#X connect 6 0 7 0;
#X connect 7 0 10 0;
#X connect 8 0 7 0;
#X connect 9 0 20 0;
#X connect 10 0 21 0;
#X connect 13 0 14 0;
#X connect 14 0 27 0;
#X connect 15 0 13 0;
#X connect 16 0 0 0;
#X connect 16 0 2 0;
#X connect 17 0 13 0;
#X connect 18 0 19 0;
#X connect 19 0 17 0;
#X connect 20 0 6 1;
#X connect 21 0 22 0;
#X connect 22 0 23 0;
#X connect 23 0 11 0;
#X connect 24 0 25 0;
#X connect 26 0 24 0;
