#N canvas 893 345 513 331 12;
#X obj 50 100 bonk~ 1024;
#X obj 128 127 unpack;
#X floatatom 175 153 5 0 0 0 - - -;
#X obj 175 238 spigot;
#X obj 175 180 t b f;
#X text 49 25 bonk~ can be used for switching a toggle by attack.;
#X obj 382 58 tgl 15 0 empty empty empty 17 7 0 10 -262144 -1 -1 0
1;
#X msg 382 82 \; pd dsp \$1;
#X obj 175 269 bng 15 250 50 0 empty empty empty 0 -6 0 8 -261689 -258699
-258699;
#X obj 199 269 tgl 15 0 empty empty empty 17 7 0 10 -262144 -1 -1 0
1;
#X obj 244 161 hsl 128 15 1 100 0 0 empty empty empty -2 -8 0 10 -262144
-1 -1 0 1;
#X floatatom 243 182 5 0 0 0 - - -;
#X obj 221 210 >;
#X text 238 141 threshold between 1 - 100;
#X obj 50 73 adc~ 1;
#X connect 0 1 1 0;
#X connect 1 1 2 0;
#X connect 2 0 4 0;
#X connect 3 0 8 0;
#X connect 3 0 9 0;
#X connect 4 0 3 0;
#X connect 4 1 12 0;
#X connect 6 0 7 0;
#X connect 10 0 11 0;
#X connect 11 0 12 1;
#X connect 12 0 3 1;
#X connect 14 0 0 0;
