#N canvas 621 23 718 910 12;
#X obj 64 130 env~;
#X floatatom 112 157 5 0 0 0 - - -;
#X floatatom 64 158 5 0 0 0 - - -;
#X obj 64 267 select 1;
#X obj 64 295 bng 30 250 50 0 empty empty empty 0 -6 0 8 -261689 -258699
-258699;
#X obj 61 379 hip~ 1000;
#X obj 61 463 lop~ 1000;
#X floatatom 61 519 5 0 0 0 - - -;
#X obj 61 407 hip~ 1000;
#X obj 61 435 lop~ 1000;
#X text 170 378 highpass the signal with 1000 Hz cuttoff;
#X text 170 407 sharpen the lowpass filter;
#X obj 61 491 env~ 4096;
#X text 169 435 lowpass the signal to narrow the frequency;
#X obj 61 572 change;
#X text 203 127 creation argument is analysis window;
#X text 169 462 sharpen increase the Q of the filter;
#X obj 61 544 > 40;
#X text 63 48 Envelope follower;
#X obj 525 68 tgl 15 0 empty empty empty 17 7 0 10 -262144 -1 -1 0
1;
#X msg 525 91 \; pd dsp \$1 \;;
#X obj 61 602 bng 30 250 50 0 empty empty empty 0 -6 0 8 -261689 -258699
-258699;
#X obj 91 602 tgl 30 0 empty empty empty 17 7 0 10 -262144 -1 -1 0
1;
#X obj 64 239 >= 20;
#X obj 64 188 -;
#X text 143 247 If the new signal is 20% louder than the former one
a bang is outputted.;
#X obj 60 676 env~;
#X floatatom 60 704 5 0 0 0 - - -;
#X obj 60 734 clip 70 100;
#X floatatom 60 765 5 0 0 0 - - -;
#X obj 60 791 > 70;
#X obj 60 819 select 1;
#X obj 60 847 bng 30 250 50 0 empty empty empty 0 -6 0 8 -261689 -258699
-258699;
#X floatatom 64 215 5 0 0 0 - - -;
#X obj 112 128 env~ 32768;
#X text 204 145 in samples (here roughly 743 msecs) \, should be power
of 2;
#X obj 64 95 adc~ 1;
#X obj 61 351 adc~ 1;
#X obj 60 644 adc~ 1;
#X text 121 572 The change object outputs its input only when it changes.
;
#X text 141 330 Filter input signal before detecting it to avoid false
detection.;
#X text 160 722 The clip~ object passes its signal input to its output
\, clipping it to lie between two limits. Here all values below 70
are ignored.;
#X connect 0 0 2 0;
#X connect 1 0 24 1;
#X connect 2 0 24 0;
#X connect 3 0 4 0;
#X connect 5 0 8 0;
#X connect 6 0 12 0;
#X connect 7 0 17 0;
#X connect 8 0 9 0;
#X connect 9 0 6 0;
#X connect 12 0 7 0;
#X connect 14 0 21 0;
#X connect 14 0 22 0;
#X connect 17 0 14 0;
#X connect 19 0 20 0;
#X connect 23 0 3 0;
#X connect 24 0 33 0;
#X connect 26 0 27 0;
#X connect 27 0 28 0;
#X connect 28 0 29 0;
#X connect 29 0 30 0;
#X connect 30 0 31 0;
#X connect 31 0 32 0;
#X connect 33 0 23 0;
#X connect 34 0 1 0;
#X connect 36 0 0 0;
#X connect 36 0 34 0;
#X connect 37 0 5 0;
#X connect 38 0 26 0;
