#N canvas 464 261 396 329 12;
#X msg 66 96 reset;
#X text 63 173 keyboard control:;
#X text 62 193 space = 1 step forward;
#X text 63 211 backspace = 1 step backward;
#X text 63 230 r = reset to 0;
#X msg 121 96 4;
#X text 152 94 set to any number;
#X text 64 272 (c) 2008 Achim Bornhoeft;
#N canvas 995 207 288 354 kbstep 0;
#X obj 47 219 f;
#X msg 162 174 1;
#X msg 209 174 -1;
#X obj 90 31 key;
#X floatatom 90 55 5 0 0 0 - - -;
#X obj 116 110 t b b;
#X obj 173 110 t b b;
#X obj 100 220 +;
#X obj 90 78 sel 114 32 8;
#X obj 57 108 t b b;
#X msg 119 174 0;
#X obj 57 5 inlet;
#X obj 100 250 nbx 4 20 0 999 0 0 empty empty empty 0 -6 0 14 -262144
-1 -1 4 256;
#X obj 147 218 inlet;
#X obj 99 284 outlet;
#X connect 0 0 7 0;
#X connect 1 0 7 1;
#X connect 2 0 7 1;
#X connect 3 0 4 0;
#X connect 4 0 8 0;
#X connect 5 0 0 0;
#X connect 5 1 1 0;
#X connect 6 0 0 0;
#X connect 6 1 2 0;
#X connect 7 0 0 1;
#X connect 7 0 12 0;
#X connect 8 0 9 0;
#X connect 8 1 5 0;
#X connect 8 2 6 0;
#X connect 9 0 0 0;
#X connect 9 1 10 0;
#X connect 10 0 7 1;
#X connect 10 0 0 1;
#X connect 11 0 9 0;
#X connect 12 0 0 1;
#X connect 12 0 14 0;
#X connect 13 0 12 0;
#X coords 0 -1 1 1 62 20 2 100 250;
#X restore 66 134 pd kbstep;
#X text 139 135 open subpatch;
#X text 62 46 settable inc/dec stepper;
#X connect 0 0 8 0;
#X connect 5 0 8 1;
