#N canvas 404 61 464 509 10;
#X declare -path abs -path qlists;
#X obj 11 8 cnv 15 440 50 empty empty <Title> 20 30 0 22 #b8b8b8 #404040 0;
#X obj 340 230 output 1;
#N canvas 0 367 474 270 init 0;
#X obj 59 27 loadbang;
#X obj 58 88 declare -path abs -path qlists;
#X obj 58 129 8in~;
#X obj 57 165 8out~;
#X text 122 26 general initialisation with [loadbang];
#X text 262 86 search paths for subfolder;
#X text 102 129 patch matrix physical inputs -> patch inputs;
#X text 102 165 patch matrix patch outputs -> physical outputs;
#X restore 384 36 pd init;
#N canvas 0 209 295 280 info 1;
#X text 43 67 (c) 2001 by <name of composer>;
#X text 41 112 see README.txt for instructions;
#X text 40 23 <Title>;
#X text 41 45 for <Instruments>;
#X obj 44 201 pdcontrol;
#X msg 44 180 browse http://google.com;
#X text 45 152 Online informations;
#X connect 5 0 4 0;
#X restore 384 15 pd info;
#X obj 11 60 chan1 1 Violine;
#X obj 176 60 chan2 2 Stimme;
#X obj 341 60 dspp;
#X obj 396 230 output 2;
#X obj 341 114 clock;
#X obj 324 22 tgl 15 0 sim dummy Simulation -25 25 0 10 #fcfcfc #000000 #000000 0 1;
