#N canvas 434 28 512 785 12;
#X obj 92 490 random;
#X floatatom 238 236 5 0 0 0 - - - 0;
#X floatatom 238 369 5 0 0 0 - - - 0;
#X msg 238 307 10;
#X obj 137 426 *;
#X obj 92 535 /;
#X obj 238 275 t b f;
#X floatatom 137 236 5 0 0 0 - - - 0;
#X floatatom 96 236 5 0 0 0 - - - 0;
#X obj 137 266 t b f;
#X obj 137 328 abs;
#X floatatom 137 357 5 0 0 0 - - - 0;
#X obj 83 598 +;
#X obj 92 568 t b f;
#X obj 137 299 - 1;
#X obj 238 342 pow 2;
#X obj 137 453 + 1;
#X msg 82 119 20 0 10 3;
#X obj 51 236 until;
#X msg 82 628 add2 \$1;
#X obj 65 148 unpack f f f f;
#X msg 201 626 set;
#X msg 82 730 108.596 174.05 180.81 158.98 117.93 148.3 184.38 188.18 195.4 119.92 169.36;
#X obj 201 206 t b f;
#X text 41 40 float random numbers between min and max (including) with defined decimals.;
#X text 263 693 (c) 2010/2018 Achim Bornhoeft;
#X text 180 453 n+1 value to include max;
#X text 118 599 shift values between min and max;
#X text 174 426 max multiplied by 10^decimals;
#X text 125 535 random number divided by 10^decimals;
#X msg 65 90 10 100 200 2;
#X text 171 100 args: no. of values \, min \, max (both including) \, decimals, f 30;
#X connect 0 0 5 0;
#X connect 1 0 6 0;
#X connect 2 0 5 1;
#X connect 2 0 4 1;
#X connect 3 0 15 0;
#X connect 4 0 16 0;
#X connect 5 0 13 0;
#X connect 6 0 3 0;
#X connect 6 0 4 0;
#X connect 6 1 15 1;
#X connect 7 0 9 0;
#X connect 8 0 12 0;
#X connect 8 0 14 0;
#X connect 9 0 14 0;
#X connect 9 1 14 1;
#X connect 10 0 11 0;
#X connect 11 0 4 0;
#X connect 12 0 19 0;
#X connect 13 0 12 0;
#X connect 13 1 12 1;
#X connect 14 0 10 0;
#X connect 15 0 2 0;
#X connect 16 0 0 1;
#X connect 17 0 20 0;
#X connect 18 0 0 0;
#X connect 19 0 22 0;
#X connect 20 0 18 0;
#X connect 20 1 8 0;
#X connect 20 2 7 0;
#X connect 20 3 23 0;
#X connect 21 0 22 0;
#X connect 23 0 21 0;
#X connect 23 1 1 0;
#X connect 30 0 20 0;
