#N canvas 448 38 537 661 12;
#X obj 85 437 random;
#X floatatom 172 177 5 0 0 0 - - - 0;
#X floatatom 172 286 5 0 0 0 - - - 0;
#X msg 172 232 10;
#X obj 124 359 *;
#X obj 85 475 /, f 5;
#X floatatom 124 180 5 0 0 0 - - - 0;
#X floatatom 76 181 5 0 0 0 - - - 0;
#X obj 124 210 t b f;
#X obj 124 272 abs;
#X floatatom 124 297 5 0 0 0 - - - 0;
#X obj 85 511 +;
#X obj 124 243 - 1;
#X obj 172 259 pow 2;
#X obj 124 384 + 1;
#X msg 47 118 20 0 10 3;
#X obj 28 212 until;
#X msg 85 541 add2 \$1;
#X obj 28 149 unpack f f f f, f 21;
#X msg 239 309 set;
#X msg 84 578 199.67 127.6 181.31 180.24 122.54 171.05 170.01 188.98 146.56 123.16;
#X text 41 36 float random numbers between min and max (including) with defined decimals.;
#X text 78 622 (c) 2010/2018 Achim Bornhoeft;
#X text 127 511 shift values between min and max;
#X text 149 475 random number divided by 10^decimals;
#X msg 28 88 10 100 200 2;
#X text 149 89 args: no. of values \, min \, max (both including) \, decimals, f 30;
#X obj 172 310 t f f;
#X obj 76 212 t f f;
#X floatatom 124 409 5 0 0 0 - - - 0;
#X obj 172 204 t b f b, f 10;
#X text 144 360 - - - - - max multiplied by 10^decimals;
#X text 158 384 - - - - - n+1 value to include max;
#X floatatom 28 181 5 0 0 0 - - - 0;
#X connect 0 0 5 0;
#X connect 1 0 30 0;
#X connect 2 0 27 0;
#X connect 3 0 13 0;
#X connect 4 0 14 0;
#X connect 5 0 11 0;
#X connect 6 0 8 0;
#X connect 7 0 28 0;
#X connect 8 0 12 0;
#X connect 8 1 12 1;
#X connect 9 0 10 0;
#X connect 10 0 4 0;
#X connect 11 0 17 0;
#X connect 12 0 9 0;
#X connect 13 0 2 0;
#X connect 14 0 29 0;
#X connect 15 0 18 0;
#X connect 16 0 0 0;
#X connect 17 0 20 0;
#X connect 18 0 33 0;
#X connect 18 1 7 0;
#X connect 18 2 6 0;
#X connect 18 3 1 0;
#X connect 19 0 20 0;
#X connect 25 0 18 0;
#X connect 27 0 4 1;
#X connect 27 1 5 1;
#X connect 28 0 11 1;
#X connect 28 1 12 0;
#X connect 29 0 0 1;
#X connect 30 0 3 0;
#X connect 30 1 13 1;
#X connect 30 2 19 0;
#X connect 33 0 16 0;
