#N canvas 311 25 492 581 12;
#X obj 48 353 random 10;
#X msg 46 206 10;
#X obj 48 417 list trim;
#X msg 48 497 4 4 4 1 9 6 3 3 1 7;
#X obj 48 385 list prepend;
#X msg 141 353 add2;
#X obj 47 299 until;
#X msg 106 457 set;
#X obj 47 253 t f b b;
#X text 218 206 What is normally called a random number sequence in reality is a "pseudo-random" number sequence because the values are computed using a deterministic algorithm and probability plays no real role. The "seed" is a starting point for the sequence and the guarantee is that if you start from the same seed you will get the same sequence of numbers. This is very useful for example for debugging (when you are looking for an error in a program you need to be able to reproduce the problem and study it \, a non-deterministic program would be much harder to debug because every run would be different)., f 34;
#X obj 46 68 tgl 15 0 empty empty empty 17 7 0 10 #fcfcfc #000000 #000000 0 1;
#X obj 46 88 metro 500;
#X obj 46 113 f;
#X floatatom 46 142 5 0 0 0 - - - 0;
#X msg 145 211 seed \$1;
#X obj 87 113 + 1;
#X obj 46 171 t b f;
#X obj 127 114 mod 4;
#X text 47 26 Random with seed;
#X text 47 545 (c) 2017 AChim Bornhoeft;
#X connect 0 0 4 0;
#X connect 1 0 8 0;
#X connect 2 0 3 0;
#X connect 4 0 2 0;
#X connect 5 0 4 1;
#X connect 6 0 0 0;
#X connect 7 0 3 0;
#X connect 8 0 6 0;
#X connect 8 1 5 0;
#X connect 8 2 7 0;
#X connect 10 0 11 0;
#X connect 11 0 12 0;
#X connect 12 0 13 0;
#X connect 12 0 15 0;
#X connect 13 0 16 0;
#X connect 14 0 0 0;
#X connect 15 0 17 0;
#X connect 16 0 1 0;
#X connect 16 1 14 0;
#X connect 17 0 12 1;
