#N canvas 947 770 491 572 12;
#X obj 36 101 tgl 19 0 empty empty empty 0 -10 0 12 #fcfcfc #000000 #000000 0 1;
#X obj 36 173 sel 0;
#X obj 36 197 t b b;
#X obj 36 254 random 1000;
#X floatatom 36 311 5 0 0 0 - - - 0;
#X obj 141 406 pack f f;
#X obj 194 255 random 2;
#X floatatom 194 279 5 0 0 0 - - - 0;
#X obj 194 355 *;
#X floatatom 194 379 5 0 0 0 - - - 0;
#X obj 141 430 line;
#X floatatom 141 454 5 0 0 0 - - - 0;
#X obj 36 149 random 2;
#X obj 144 480 hsl 162 19 0 1000 0 0 empty empty empty -2 -10 0 12 #fcfcfc #000000 #000000 0 1;
#X text 262 256 produces 0 or 1 randomly;
#X text 250 361 if 1 the new number is interpolated within these time in milliseconds \, if 0 it jumps directy to the new value because of the multiplication with 0, f 28;
#X text 104 140 randomly decision wheter a new value is created or not., f 19;
#X text 42 276 random values between 0 and 1000, f 19;
#X floatatom 212 328 5 0 0 0 - - - 0;
#X text 24 519 (c) 2024 https://www.youtube.com/watch?v=fKMM5aONlmA;
#X obj 294 157 hsl 162 19 100 1000 0 0 empty empty empty -2 -10 0 12 #fcfcfc #000000 #000000 0 1;
#X floatatom 292 182 5 0 0 0 - - - 0;
#X obj 36 125 metro;
#X obj 291 204 s time;
#X obj 68 98 r time;
#X obj 212 301 r time;
#X obj 291 103 loadbang;
#X msg 291 127 500;
#X text 32 22 Random system that produces random values and decides whether or not to interpolate them based on a binary condition (also random).;
#X connect 0 0 22 0;
#X connect 1 0 2 0;
#X connect 2 0 3 0;
#X connect 2 1 6 0;
#X connect 3 0 4 0;
#X connect 4 0 5 0;
#X connect 5 0 10 0;
#X connect 6 0 7 0;
#X connect 7 0 8 0;
#X connect 8 0 9 0;
#X connect 9 0 5 1;
#X connect 10 0 11 0;
#X connect 11 0 13 0;
#X connect 12 0 1 0;
#X connect 18 0 8 1;
#X connect 20 0 21 0;
#X connect 21 0 23 0;
#X connect 22 0 12 0;
#X connect 24 0 22 1;
#X connect 25 0 18 0;
#X connect 26 0 27 0;
#X connect 27 0 20 0;
