#N canvas 627 38 525 742 12;
#X obj 35 159 t f b;
#X obj 34 420 +;
#X floatatom 34 448 5 0 0 0 - - - 0;
#X obj 34 555 osc~;
#X obj 33 645 *~;
#X obj 34 504 mtof;
#X obj 21 678 dac~;
#X floatatom 67 238 5 0 0 0 - - - 0;
#X obj 67 186 random 2;
#X obj 67 212 + 1;
#X obj 67 262 t f b;
#X obj 98 286 random 2;
#X obj 67 366 *;
#X msg 98 336 1;
#X obj 98 311 sel 0;
#X floatatom 67 390 5 0 0 0 - - - 0;
#X msg 130 336 -1;
#X obj 80 581 vline~;
#X obj 73 609 *~;
#X obj 34 528 t f b, f 7;
#X obj 35 48 tgl 19 0 empty empty empty 0 -10 0 12 #fcfcfc #000000 #000000 0 1;
#X obj 35 74 metro 300;
#X msg 80 554 0.3 10 \, 0 300 10;
#X obj 35 131 f 70;
#X msg 60 101 65;
#N canvas 0 22 450 278 (subpatch) 0;
#X array walk 30 float 3;
#A 0 53 54 52 51 53 52 51 49 48 47 46 47 48 50 49 51 49 48 49 51 58 60 59 57 58 57 58 57 56 54;
#X coords 0 127 30 0 200 140 1 0 0;
#X restore 184 390 graph;
#N canvas 440 465 353 214 vis 0;
#X obj 174 106 f;
#X obj 212 106 + 1;
#X obj 59 65 t f b;
#X floatatom 175 133 5 0 0 0 - - - 0;
#X floatatom 59 133 5 0 0 0 - - - 0;
#X obj 243 105 mod 30;
#X obj 59 37 inlet;
#X obj 59 161 tabwrite walk;
#X connect 0 0 1 0;
#X connect 0 0 3 0;
#X connect 1 0 5 0;
#X connect 2 0 4 0;
#X connect 2 1 0 0;
#X connect 3 0 7 1;
#X connect 4 0 7 0;
#X connect 5 0 0 1;
#X connect 6 0 2 0;
#X restore 46 481 pd vis;
#X text 205 30 Random walk;
#X text 114 240 steps: 1 or 2;
#X text 163 336 steps up or down;
#X text 108 610 exponential envelope;
#X text 81 652 (c) 2024 https://youtu.be/CJoyJfdchjs?si=LL1bUlmKVkbknYzT;
#X connect 0 0 1 0;
#X connect 0 1 8 0;
#X connect 1 0 2 0;
#X connect 1 0 23 1;
#X connect 2 0 5 0;
#X connect 2 0 26 0;
#X connect 3 0 4 0;
#X connect 4 0 6 0;
#X connect 4 0 6 1;
#X connect 5 0 19 0;
#X connect 7 0 10 0;
#X connect 8 0 9 0;
#X connect 9 0 7 0;
#X connect 10 0 12 0;
#X connect 10 1 11 0;
#X connect 11 0 14 0;
#X connect 12 0 15 0;
#X connect 13 0 12 1;
#X connect 14 0 13 0;
#X connect 14 1 16 0;
#X connect 15 0 1 1;
#X connect 16 0 12 1;
#X connect 17 0 18 1;
#X connect 17 0 18 0;
#X connect 18 0 4 1;
#X connect 19 0 3 0;
#X connect 19 1 22 0;
#X connect 20 0 21 0;
#X connect 21 0 23 0;
#X connect 22 0 17 0;
#X connect 23 0 0 0;
#X connect 24 0 23 1;
