#N canvas 246 316 1035 497 12;
#X obj 444 438 dac~;
#X obj 45 161 * 1;
#X floatatom 45 186 5 0 0 0 - - -;
#X obj 45 207 osc~;
#X obj 45 310 *~;
#X obj 93 166 random 100;
#X obj 93 193 / 100;
#X floatatom 93 218 5 0 0 0 - - -;
#X floatatom 183 186 5 0 0 0 - - -;
#X obj 183 207 osc~;
#X obj 183 310 *~;
#X obj 231 166 random 100;
#X obj 231 193 / 100;
#X floatatom 231 218 5 0 0 0 - - -;
#X floatatom 318 186 5 0 0 0 - - -;
#X obj 318 207 osc~;
#X obj 318 310 *~;
#X obj 366 166 random 100;
#X obj 366 193 / 100;
#X floatatom 366 218 5 0 0 0 - - -;
#X floatatom 456 186 5 0 0 0 - - -;
#X obj 456 207 osc~;
#X obj 456 310 *~;
#X obj 504 166 random 100;
#X obj 504 193 / 100;
#X floatatom 504 218 5 0 0 0 - - -;
#X floatatom 593 185 5 0 0 0 - - -;
#X obj 593 206 osc~;
#X obj 593 309 *~;
#X obj 641 165 random 100;
#X obj 641 192 / 100;
#X floatatom 641 217 5 0 0 0 - - -;
#X floatatom 728 185 5 0 0 0 - - -;
#X obj 728 206 osc~;
#X obj 728 309 *~;
#X obj 776 165 random 100;
#X obj 776 192 / 100;
#X floatatom 776 217 5 0 0 0 - - -;
#X floatatom 866 185 5 0 0 0 - - -;
#X obj 866 206 osc~;
#X obj 866 309 *~;
#X obj 914 161 random 100;
#X obj 914 188 / 100;
#X floatatom 914 213 5 0 0 0 - - -;
#X obj 183 161 * 2;
#X obj 318 161 * 3;
#X obj 456 161 * 4;
#X obj 593 160 * 5;
#X obj 728 160 * 6;
#X obj 866 160 * 7;
#X floatatom 318 68 5 0 0 0 - - -;
#X text 368 69 Grundfrequenz;
#X obj 641 76 bng 15 250 50 0 empty empty empty 0 -6 0 8 -262144 -1
-1;
#X text 659 71 andere Farbe;
#X obj 93 268 line~;
#X obj 231 272 line~;
#X obj 366 267 line~;
#X obj 504 271 line~;
#X obj 641 266 line~;
#X obj 776 270 line~;
#X obj 914 265 line~;
#X text 703 508;
#X text 623 412 (c) Johannes Kreidler \, www.pd-tutorial.com;
#X msg 318 39 220;
#X obj 318 11 loadbang;
#X msg 93 243 \$1 300;
#X msg 231 247 \$1 300;
#X msg 366 242 \$1 300;
#X msg 504 246 \$1 300;
#X msg 641 241 \$1 300;
#X msg 776 245 \$1 300;
#X msg 914 240 \$1 300;
#X obj 457 402 *~ 0.15;
#X obj 641 20 key;
#X obj 641 49 sel 32;
#X connect 1 0 2 0;
#X connect 2 0 3 0;
#X connect 3 0 4 0;
#X connect 4 0 72 0;
#X connect 5 0 6 0;
#X connect 6 0 7 0;
#X connect 7 0 65 0;
#X connect 8 0 9 0;
#X connect 9 0 10 0;
#X connect 10 0 72 0;
#X connect 11 0 12 0;
#X connect 12 0 13 0;
#X connect 13 0 66 0;
#X connect 14 0 15 0;
#X connect 15 0 16 0;
#X connect 16 0 72 0;
#X connect 17 0 18 0;
#X connect 18 0 19 0;
#X connect 19 0 67 0;
#X connect 20 0 21 0;
#X connect 21 0 22 0;
#X connect 22 0 72 0;
#X connect 23 0 24 0;
#X connect 24 0 25 0;
#X connect 25 0 68 0;
#X connect 26 0 27 0;
#X connect 27 0 28 0;
#X connect 28 0 72 0;
#X connect 29 0 30 0;
#X connect 30 0 31 0;
#X connect 31 0 69 0;
#X connect 32 0 33 0;
#X connect 33 0 34 0;
#X connect 34 0 72 0;
#X connect 35 0 36 0;
#X connect 36 0 37 0;
#X connect 37 0 70 0;
#X connect 38 0 39 0;
#X connect 39 0 40 0;
#X connect 40 0 72 0;
#X connect 41 0 42 0;
#X connect 42 0 43 0;
#X connect 43 0 71 0;
#X connect 44 0 8 0;
#X connect 45 0 14 0;
#X connect 46 0 20 0;
#X connect 47 0 26 0;
#X connect 48 0 32 0;
#X connect 49 0 38 0;
#X connect 50 0 1 0;
#X connect 50 0 44 0;
#X connect 50 0 45 0;
#X connect 50 0 46 0;
#X connect 50 0 47 0;
#X connect 50 0 48 0;
#X connect 50 0 49 0;
#X connect 52 0 5 0;
#X connect 52 0 11 0;
#X connect 52 0 17 0;
#X connect 52 0 23 0;
#X connect 52 0 29 0;
#X connect 52 0 35 0;
#X connect 52 0 41 0;
#X connect 54 0 4 1;
#X connect 55 0 10 1;
#X connect 56 0 16 1;
#X connect 57 0 22 1;
#X connect 58 0 28 1;
#X connect 59 0 34 1;
#X connect 60 0 40 1;
#X connect 63 0 50 0;
#X connect 64 0 63 0;
#X connect 65 0 54 0;
#X connect 66 0 55 0;
#X connect 67 0 56 0;
#X connect 68 0 57 0;
#X connect 69 0 58 0;
#X connect 70 0 59 0;
#X connect 71 0 60 0;
#X connect 72 0 0 0;
#X connect 72 0 0 1;
#X connect 73 0 74 0;
#X connect 74 0 52 0;
