#N canvas 521 272 462 696 12;
#X obj 80 527 noteout;
#X obj 80 9 notein;
#X floatatom 119 66 5 0 0 1 midi_note_number - -, f 5;
#X floatatom 81 143 5 0 0 1 velocity - -, f 5;
#X floatatom 119 38 5 0 0 1 midi_channel_number - -, f 5;
#X obj 81 248 spigot;
#X obj 120 224 tgl 15 0 empty empty empty 17 7 0 10 -262144 -1 -1 0
127;
#X obj 80 501 pack;
#X obj 165 415 f \$2;
#X floatatom 109 472 5 0 0 0 - - -, f 5;
#X obj 31 583 tgl 15 0 empty empty empty 17 7 0 10 -262144 -1 -1 0
1;
#X text 137 221 supress double bang;
#X text 10 538 ____________________________________________;
#X text 113 615 SET;
#X text 254 579 READ;
#N canvas 1167 379 415 421 set 1;
#X obj 62 34 r \$0-tgl-colour;
#X obj 61 366 outlet;
#X obj 62 308 list prepend color;
#X obj 61 338 list trim;
#X obj 62 134 vsl 15 64 0 255 0 0 empty empty empty 0 -8 0 8 -258699
-1 -1 0 0;
#X obj 79 134 vsl 15 64 0 255 0 0 empty empty empty 0 -8 0 8 -24198
-1 -1 0 0;
#X obj 96 134 vsl 15 64 0 255 0 0 empty empty empty 0 -8 0 8 -62784
-1 -1 0 0;
#X text 104 203 Back;
#X text 176 202 Front;
#X text 264 203 Label;
#N canvas 0 22 224 236 pak3 0;
#X obj 76 71 t b f;
#X obj 123 72 t b f;
#X obj 24 38 inlet;
#X obj 76 35 inlet;
#X obj 123 35 inlet;
#X obj 24 158 outlet;
#X obj 24 133 pack 0 0 0;
#X connect 0 0 6 0;
#X connect 0 1 6 1;
#X connect 1 0 6 0;
#X connect 1 1 6 2;
#X connect 2 0 6 0;
#X connect 3 0 0 0;
#X connect 4 0 1 0;
#X connect 6 0 5 0;
#X restore 62 237 pd pak3;
#N canvas 0 22 224 236 pak3 0;
#X obj 76 71 t b f;
#X obj 123 72 t b f;
#X obj 24 38 inlet;
#X obj 76 35 inlet;
#X obj 123 35 inlet;
#X obj 24 158 outlet;
#X obj 24 133 pack 0 0 0;
#X connect 0 0 6 0;
#X connect 0 1 6 1;
#X connect 1 0 6 0;
#X connect 1 1 6 2;
#X connect 2 0 6 0;
#X connect 3 0 0 0;
#X connect 4 0 1 0;
#X connect 6 0 5 0;
#X restore 62 285 pd pak3;
#X obj 137 134 vsl 15 64 0 255 0 0 empty empty empty 0 -8 0 8 -258699
-1 -1 6300 0;
#X obj 154 134 vsl 15 64 0 255 0 0 empty empty empty 0 -8 0 8 -24198
-1 -1 6300 0;
#X obj 171 134 vsl 15 64 0 255 0 0 empty empty empty 0 -8 0 8 -62784
-1 -1 6300 0;
#N canvas 0 22 224 236 pak3 0;
#X obj 76 71 t b f;
#X obj 123 72 t b f;
#X obj 24 38 inlet;
#X obj 76 35 inlet;
#X obj 123 35 inlet;
#X obj 24 158 outlet;
#X obj 24 133 pack 0 0 0;
#X connect 0 0 6 0;
#X connect 0 1 6 1;
#X connect 1 0 6 0;
#X connect 1 1 6 2;
#X connect 2 0 6 0;
#X connect 3 0 0 0;
#X connect 4 0 1 0;
#X connect 6 0 5 0;
#X restore 137 238 pd pak3;
#X obj 217 134 vsl 15 64 0 255 0 0 empty empty empty 0 -8 0 8 -258699
-1 -1 6300 0;
#X obj 234 134 vsl 15 64 0 255 0 0 empty empty empty 0 -8 0 8 -24198
-1 -1 6300 0;
#X obj 251 134 vsl 15 64 0 255 0 0 empty empty empty 0 -8 0 8 -62784
-1 -1 6300 0;
#N canvas 0 22 224 236 pak3 0;
#X obj 76 71 t b f;
#X obj 123 72 t b f;
#X obj 24 38 inlet;
#X obj 76 35 inlet;
#X obj 123 35 inlet;
#X obj 24 158 outlet;
#X obj 24 133 pack 0 0 0;
#X connect 0 0 6 0;
#X connect 0 1 6 1;
#X connect 1 0 6 0;
#X connect 1 1 6 2;
#X connect 2 0 6 0;
#X connect 3 0 0 0;
#X connect 4 0 1 0;
#X connect 6 0 5 0;
#X restore 217 239 pd pak3;
#N canvas 281 345 447 195 rgbtopd 0;
#X obj 35 59 expr -65536 * $i1 - 256 * $i2 - $i3 - 1 \;;
#X obj 35 25 inlet;
#X obj 35 89 outlet;
#X text 26 121 -pow(2 \, 16) * R - pow(2 \, 8) * G - pow(2 \, 0) *
B - 1;
#X connect 0 0 2 0;
#X connect 1 0 0 0;
#X restore 217 259 pd rgbtopd;
#N canvas 281 345 447 195 rgbtopd 0;
#X obj 35 59 expr -65536 * $i1 - 256 * $i2 - $i3 - 1 \;;
#X obj 35 25 inlet;
#X obj 35 89 outlet;
#X text 26 121 -pow(2 \, 16) * R - pow(2 \, 8) * G - pow(2 \, 0) *
B - 1;
#X connect 0 0 2 0;
#X connect 1 0 0 0;
#X restore 137 259 pd rgbtopd;
#N canvas 633 187 447 195 rgbtopd 0;
#X obj 35 59 expr -65536 * $i1 - 256 * $i2 - $i3 - 1 \;;
#X obj 35 25 inlet;
#X obj 35 89 outlet;
#X text 26 121 -pow(2 \, 16) * R - pow(2 \, 8) * G - pow(2 \, 0) *
B - 1;
#X connect 0 0 2 0;
#X connect 1 0 0 0;
#X restore 62 258 pd rgbtopd;
#X obj 62 88 unpack 0 0 0;
#X obj 155 88 unpack 0 0 0;
#X obj 247 89 unpack 0 0 0;
#X connect 0 0 24 0;
#X connect 0 0 25 0;
#X connect 2 0 3 0;
#X connect 3 0 1 0;
#X connect 4 0 10 0;
#X connect 5 0 10 1;
#X connect 6 0 10 2;
#X connect 10 0 22 0;
#X connect 11 0 2 0;
#X connect 12 0 15 0;
#X connect 13 0 15 1;
#X connect 14 0 15 2;
#X connect 15 0 21 0;
#X connect 16 0 19 0;
#X connect 17 0 19 1;
#X connect 18 0 19 2;
#X connect 19 0 20 0;
#X connect 20 0 11 2;
#X connect 21 0 11 1;
#X connect 22 0 11 0;
#X connect 23 0 4 0;
#X connect 23 1 5 0;
#X connect 23 2 6 0;
#X connect 24 0 12 0;
#X connect 24 1 13 0;
#X connect 24 2 14 0;
#X connect 25 0 16 0;
#X connect 25 1 17 0;
#X connect 25 2 18 0;
#X restore 93 274 pd set tgl colour;
#X obj 80 383 f \$1;
#X obj 119 92 == \$1;
#X obj 81 167 spigot;
#X obj 80 355 t b f;
#X obj 81 224 bng 15 250 50 0 empty empty empty 17 7 0 10 -262144 -1
-1;
#X obj 81 93 f;
#X obj 118 115 t b f;
#X obj 80 300 bng 30 250 50 0 \$1-sbng \$1-rbng empty 17 7 0 10 -262144
-262144 -262144;
#X obj 31 614 s \$1-rbng;
#X obj 170 578 r \$1-sbng;
#X obj 170 614 bng 15 250 50 0 empty empty empty 17 7 0 10 -262144
-1 -1;
#X obj 81 194 t b f;
#X obj 131 384 sel 0 127;
#N canvas 784 313 382 365 colours 0;
#X obj 59 187 textfile;
#X obj 59 151 until;
#X obj 33 222 list;
#X obj 33 120 t b f b;
#X floatatom 33 56 5 0 0 0 - - -, f 5;
#X text 81 55 line no. in textfile;
#X msg 110 152 read ./lp_colours.txt \, rewind;
#X floatatom 33 278 5 0 0 0 - - -, f 5;
#X obj 33 250 list split 1;
#X obj 33 307 outlet;
#X obj 93 282 list split 3;
#X obj 139 312 s \$0-tgl-colour;
#X obj 32 27 inlet;
#X obj 34 86 + 1;
#X connect 0 0 2 1;
#X connect 0 1 1 1;
#X connect 1 0 0 0;
#X connect 2 0 8 0;
#X connect 3 0 2 0;
#X connect 3 1 1 0;
#X connect 3 2 6 0;
#X connect 4 0 13 0;
#X connect 6 0 0 0;
#X connect 7 0 9 0;
#X connect 8 0 7 0;
#X connect 8 1 10 0;
#X connect 10 1 11 0;
#X connect 12 0 4 0;
#X connect 13 0 3 0;
#X restore 109 445 pd colours;
#X msg 109 417 0;
#X obj 179 327 tgl 15 0 empty empty empty 17 7 0 10 -262144 -1 -1 0
1;
#X connect 1 0 2 0;
#X connect 1 1 21 1;
#X connect 1 2 4 0;
#X connect 2 0 17 0;
#X connect 3 0 18 0;
#X connect 5 0 23 0;
#X connect 6 0 5 1;
#X connect 6 0 19 0;
#X connect 7 0 0 0;
#X connect 8 0 29 0;
#X connect 9 0 7 1;
#X connect 10 0 24 0;
#X connect 15 0 23 0;
#X connect 16 0 7 0;
#X connect 17 0 22 0;
#X connect 18 0 27 0;
#X connect 19 0 16 0;
#X connect 19 1 28 0;
#X connect 20 0 5 0;
#X connect 21 0 3 0;
#X connect 22 0 21 0;
#X connect 22 1 18 1;
#X connect 25 0 26 0;
#X connect 27 0 20 0;
#X connect 27 1 6 0;
#X connect 28 0 30 0;
#X connect 28 1 8 0;
#X connect 29 0 9 0;
#X connect 30 0 29 0;
#X connect 31 0 19 0;
#X coords 0 -1 1 1 30 30 2 80 300;
