#N canvas 1027 440 423 659 12;
#X obj 80 495 noteout;
#X obj 80 9 notein;
#X floatatom 119 66 5 0 0 1 midi_note_number - -, f 5;
#X floatatom 81 143 5 0 0 1 velocity - -, f 5;
#X floatatom 125 34 5 0 0 1 midi_channel_number - -, f 5;
#X obj 81 248 spigot;
#X obj 120 224 tgl 15 0 empty empty empty 17 7 0 10 -262144 -1 -1 0
127;
#X obj 80 300 tgl 30 0 \$1-stgl \$1-rtgl empty 17 7 0 10 -262144 -262144
-262144 0 1;
#X obj 80 469 pack;
#X floatatom 117 437 5 0 0 0 - - -, f 5;
#X text 137 221 supress double bang;
#X text 10 506 ____________________________________________;
#N canvas 131 147 459 457 set 0;
#X obj 59 37 r \$0-tgl-colour;
#X obj 169 400 outlet;
#X obj 169 347 list prepend color;
#X obj 169 372 list trim;
#X obj 88 134 vsl 15 64 0 255 0 0 empty empty empty 0 -8 0 8 -258699
-1 -1 6300 0;
#X obj 105 134 vsl 15 64 0 255 0 0 empty empty empty 0 -8 0 8 -24198
-1 -1 6300 0;
#X obj 122 134 vsl 15 64 0 255 0 0 empty empty empty 0 -8 0 8 -62784
-1 -1 6300 0;
#X text 151 203 Back;
#X text 247 202 Front;
#X text 350 200 Label;
#N canvas 0 22 224 236 pak3 0;
#X obj 76 71 t b f;
#X obj 123 72 t b f;
#X obj 24 38 inlet;
#X obj 76 35 inlet;
#X obj 123 35 inlet;
#X obj 24 158 outlet;
#X obj 24 133 pack 0 0 0;
#X connect 0 0 6 0;
#X connect 0 1 6 1;
#X connect 1 0 6 0;
#X connect 1 1 6 2;
#X connect 2 0 6 0;
#X connect 3 0 0 0;
#X connect 4 0 1 0;
#X connect 6 0 5 0;
#X restore 88 237 pd pak3;
#N canvas 0 22 224 236 pak3 0;
#X obj 76 71 t b f;
#X obj 123 72 t b f;
#X obj 24 38 inlet;
#X obj 76 35 inlet;
#X obj 123 35 inlet;
#X obj 24 158 outlet;
#X obj 24 133 pack 0 0 0;
#X connect 0 0 6 0;
#X connect 0 1 6 1;
#X connect 1 0 6 0;
#X connect 1 1 6 2;
#X connect 2 0 6 0;
#X connect 3 0 0 0;
#X connect 4 0 1 0;
#X connect 6 0 5 0;
#X restore 169 319 pd pak3;
#X obj 195 133 vsl 15 64 0 255 0 0 empty empty empty 0 -8 0 8 -258699
-1 -1 6300 0;
#X obj 212 133 vsl 15 64 0 255 0 0 empty empty empty 0 -8 0 8 -24198
-1 -1 6300 0;
#X obj 229 133 vsl 15 64 0 255 0 0 empty empty empty 0 -8 0 8 -62784
-1 -1 6300 0;
#N canvas 0 22 224 236 pak3 0;
#X obj 76 71 t b f;
#X obj 123 72 t b f;
#X obj 24 38 inlet;
#X obj 76 35 inlet;
#X obj 123 35 inlet;
#X obj 24 158 outlet;
#X obj 24 133 pack 0 0 0;
#X connect 0 0 6 0;
#X connect 0 1 6 1;
#X connect 1 0 6 0;
#X connect 1 1 6 2;
#X connect 2 0 6 0;
#X connect 3 0 0 0;
#X connect 4 0 1 0;
#X connect 6 0 5 0;
#X restore 195 237 pd pak3;
#X obj 303 131 vsl 15 64 0 255 0 0 empty empty empty 0 -8 0 8 -258699
-1 -1 6300 0;
#X obj 320 131 vsl 15 64 0 255 0 0 empty empty empty 0 -8 0 8 -24198
-1 -1 6300 0;
#X obj 337 131 vsl 15 64 0 255 0 0 empty empty empty 0 -8 0 8 -62784
-1 -1 6300 0;
#N canvas 0 22 224 236 pak3 0;
#X obj 76 71 t b f;
#X obj 123 72 t b f;
#X obj 24 38 inlet;
#X obj 76 35 inlet;
#X obj 123 35 inlet;
#X obj 24 158 outlet;
#X obj 24 133 pack 0 0 0;
#X connect 0 0 6 0;
#X connect 0 1 6 1;
#X connect 1 0 6 0;
#X connect 1 1 6 2;
#X connect 2 0 6 0;
#X connect 3 0 0 0;
#X connect 4 0 1 0;
#X connect 6 0 5 0;
#X restore 303 231 pd pak3;
#N canvas 281 345 447 195 rgbtopd 0;
#X obj 35 59 expr -65536 * $i1 - 256 * $i2 - $i3 - 1 \;;
#X obj 35 25 inlet;
#X obj 35 89 outlet;
#X text 26 121 -pow(2 \, 16) * R - pow(2 \, 8) * G - pow(2 \, 0) *
B - 1;
#X connect 0 0 2 0;
#X connect 1 0 0 0;
#X restore 303 272 pd rgbtopd;
#N canvas 281 345 447 195 rgbtopd 0;
#X obj 35 59 expr -65536 * $i1 - 256 * $i2 - $i3 - 1 \;;
#X obj 35 25 inlet;
#X obj 35 89 outlet;
#X text 26 121 -pow(2 \, 16) * R - pow(2 \, 8) * G - pow(2 \, 0) *
B - 1;
#X connect 0 0 2 0;
#X connect 1 0 0 0;
#X restore 195 274 pd rgbtopd;
#N canvas 633 187 447 195 rgbtopd 0;
#X obj 35 59 expr -65536 * $i1 - 256 * $i2 - $i3 - 1 \;;
#X obj 35 25 inlet;
#X obj 35 89 outlet;
#X text 26 121 -pow(2 \, 16) * R - pow(2 \, 8) * G - pow(2 \, 0) *
B - 1;
#X connect 0 0 2 0;
#X connect 1 0 0 0;
#X restore 88 267 pd rgbtopd;
#X obj 59 91 unpack 0 0 0;
#X obj 166 91 unpack 0 0 0;
#X obj 274 92 unpack 0 0 0;
#X obj 249 23 loadbang;
#X msg 247 50 255 255 255;
#X connect 0 0 23 0;
#X connect 0 0 24 0;
#X connect 0 0 25 0;
#X connect 2 0 3 0;
#X connect 3 0 1 0;
#X connect 4 0 10 0;
#X connect 5 0 10 1;
#X connect 6 0 10 2;
#X connect 10 0 22 0;
#X connect 11 0 2 0;
#X connect 12 0 15 0;
#X connect 13 0 15 1;
#X connect 14 0 15 2;
#X connect 15 0 21 0;
#X connect 16 0 19 0;
#X connect 17 0 19 1;
#X connect 18 0 19 2;
#X connect 19 0 20 0;
#X connect 20 0 11 2;
#X connect 21 0 11 1;
#X connect 22 0 11 0;
#X connect 23 0 4 0;
#X connect 23 1 5 0;
#X connect 23 2 6 0;
#X connect 24 0 12 0;
#X connect 24 1 13 0;
#X connect 24 2 14 0;
#X connect 25 0 16 0;
#X connect 25 1 17 0;
#X connect 25 2 18 0;
#X connect 26 0 27 0;
#X connect 27 0 23 0;
#X connect 27 0 24 0;
#X connect 27 0 25 0;
#X restore 100 274 pd set tgl colour;
#X obj 80 367 f \$1;
#X obj 119 92 == \$1;
#X obj 81 167 spigot;
#X obj 81 224 bng 15 250 50 0 empty empty empty 17 7 0 10 -262144 -1
-1;
#X obj 81 194 t b f;
#X obj 81 93 f;
#X obj 118 115 t b f;
#N canvas 784 313 382 365 colours 0;
#X obj 59 187 textfile;
#X obj 59 151 until;
#X obj 33 222 list;
#X obj 33 120 t b f b;
#X floatatom 33 56 5 0 0 0 - - -, f 5;
#X text 81 55 line no. in textfile;
#X msg 110 152 read ./lp_colours.txt \, rewind;
#X floatatom 33 278 5 0 0 0 - - -, f 5;
#X obj 33 250 list split 1;
#X obj 33 307 outlet;
#X obj 93 282 list split 3;
#X obj 139 312 s \$0-tgl-colour;
#X obj 32 27 inlet;
#X obj 34 86 + 1;
#X connect 0 0 2 1;
#X connect 0 1 1 1;
#X connect 1 0 0 0;
#X connect 2 0 8 0;
#X connect 3 0 2 0;
#X connect 3 1 1 0;
#X connect 3 2 6 0;
#X connect 4 0 13 0;
#X connect 6 0 0 0;
#X connect 7 0 9 0;
#X connect 8 0 7 0;
#X connect 8 1 10 0;
#X connect 10 1 11 0;
#X connect 12 0 4 0;
#X connect 13 0 3 0;
#X restore 117 409 pd colours;
#N canvas 826 536 327 300 cycle 0;
#X obj 70 55 inlet;
#X obj 70 88 f;
#X obj 112 88 + 1;
#X floatatom 107 145 5 0 0 0 - - -, f 5;
#X msg 70 170 13 14 15 17 34 55 28 44 60 0;
#X floatatom 108 232 5 0 0 0 - - -, f 5;
#X obj 70 115 t b f;
#X obj 70 204 list split;
#X obj 154 88 mod 10;
#X obj 108 260 outlet;
#X connect 0 0 1 0;
#X connect 1 0 2 0;
#X connect 1 0 6 0;
#X connect 2 0 8 0;
#X connect 3 0 7 1;
#X connect 4 0 7 0;
#X connect 5 0 9 0;
#X connect 6 0 4 0;
#X connect 6 1 3 0;
#X connect 7 1 5 0;
#X connect 8 0 1 1;
#X restore 117 384 pd cycle;
#X obj 80 339 t b b;
#X obj 170 562 r \$1-stgl;
#X floatatom 170 598 5 0 0 0 - - -, f 5;
#X obj 40 598 s \$1-rtgl;
#X text 120 599 SET;
#X text 256 561 READ;
#X floatatom 40 556 5 0 10 0 - - -, f 5;
#X connect 1 0 2 0;
#X connect 1 1 18 1;
#X connect 1 2 4 0;
#X connect 2 0 14 0;
#X connect 3 0 15 0;
#X connect 5 0 7 0;
#X connect 6 0 5 1;
#X connect 7 0 22 0;
#X connect 8 0 0 0;
#X connect 9 0 8 1;
#X connect 12 0 7 0;
#X connect 13 0 8 0;
#X connect 14 0 19 0;
#X connect 15 0 17 0;
#X connect 16 0 5 0;
#X connect 17 0 16 0;
#X connect 17 1 6 0;
#X connect 18 0 3 0;
#X connect 19 0 18 0;
#X connect 19 1 15 1;
#X connect 20 0 9 0;
#X connect 21 0 20 0;
#X connect 22 0 13 0;
#X connect 22 1 21 0;
#X connect 23 0 24 0;
#X connect 28 0 25 0;
#X coords 0 -1 1 1 30 30 2 80 300;
