#N canvas 231 479 663 406 12;
#X obj 430 191 loadbang;
#X obj 430 219 tgl 15 0 empty empty empty 17 7 0 10 -262144 -1 -1 1
1;
#X obj 33 326 dac~;
#X obj 161 90 hsl 128 15 20 2000 0 0 empty lop-slider empty -2 -8 0
10 -262144 -1 -1 1500 1;
#X floatatom 158 112 5 0 0 0 - - -, f 5;
#X obj 40 94 noise~;
#X obj 129 188 lop~;
#X obj 62 226 tgl 15 0 empty empty empty 17 7 0 10 -262144 -1 -1 0
0.2;
#X obj 121 325 dac~;
#X obj 150 226 tgl 15 0 empty empty empty 17 7 0 10 -262144 -1 -1 0
0.5;
#X obj 278 328 dac~;
#X obj 307 230 tgl 15 0 empty empty empty 17 7 0 10 -262144 -1 -1 0.5
0.5;
#X obj 323 87 hsl 128 15 20 2000 0 0 empty bp-slider empty -2 -8 0
10 -262144 -1 -1 12700 1;
#X floatatom 320 111 5 0 0 0 - - -, f 5;
#X msg 430 243 \; pd dsp \$1 \; lop-slider 1500 \; bp-slider 800 \;
;
#X text 27 63 white noise;
#X text 319 62 brown noise;
#X obj 41 251 *~;
#X obj 129 250 *~;
#X obj 286 253 *~;
#X obj 357 136 hsl 128 15 1 100 1 0 empty bp-slider empty -2 -8 0 10
-262144 -1 -1 12700 1;
#X floatatom 354 160 5 0 0 0 - - -, f 5;
#X obj 285 185 bp~ 800 1;
#X connect 0 0 1 0;
#X connect 1 0 14 0;
#X connect 3 0 4 0;
#X connect 4 0 6 1;
#X connect 5 0 6 0;
#X connect 5 0 17 0;
#X connect 5 0 22 0;
#X connect 6 0 18 0;
#X connect 7 0 17 1;
#X connect 9 0 18 1;
#X connect 11 0 19 1;
#X connect 12 0 13 0;
#X connect 13 0 22 1;
#X connect 17 0 2 0;
#X connect 17 0 2 1;
#X connect 18 0 8 0;
#X connect 18 0 8 1;
#X connect 19 0 10 0;
#X connect 19 0 10 1;
#X connect 20 0 21 0;
#X connect 21 0 22 2;
#X connect 22 0 19 0;
