#N canvas 256 88 879 754 10;
#X declare -path rules;
#X declare -path outcomes;
#N canvas 498 38 674 731 make.code 0;
#X msg 276 182 clear;
#X obj 97 125 f \$1;
#X obj 37 95 loadbang;
#X text 289 29 generate the Worfram code specified by the first argument.
;
#X text 287 48 https://en.wikipedia.org/wiki/Wolfram_code;
#X obj 142 375 list prepend mode;
#X obj 97 145 clip 0 255;
#X obj 142 225 symbol \$2;
#X obj 169 295 t b b;
#X obj 169 315 f \$3;
#X obj 214 312 f \$4;
#X obj 169 335 pack f f;
#X obj 142 395 list append;
#X obj 244 335 t b;
#X obj 276 202 text define \$0-rules;
#X obj 97 25 inlet;
#X obj 157 495 text set \$0-rules 1e+06;
#X obj 169 265 sel fixed inf;
#X obj 148 425 r \$0-axiom;
#X obj 193 205 r \$0-mode;
#X obj 142 245 t s s;
#X obj 112 545 text search \$0-rules 0;
#X msg 112 525 symbol mode;
#X obj 112 565 text get \$0-rules;
#X obj 146 625 route fixed inf;
#N canvas 706 153 292 244 inf 0;
#X obj 186 143 s \$0-inf.R;
#X obj 159 163 s \$0-tail;
#X obj 86 146 s \$0-inf.L;
#X obj 59 166 s \$0-head;
#X obj 59 46 inlet;
#X msg 59 86 \$1;
#X msg 159 83 \$2;
#X msg 86 126 0;
#X msg 186 123 0;
#X obj 59 66 t a a;
#X obj 59 106 t a b;
#X obj 159 103 t a b;
#X connect 4 0 9 0;
#X connect 5 0 10 0;
#X connect 6 0 11 0;
#X connect 7 0 2 0;
#X connect 8 0 0 0;
#X connect 9 0 5 0;
#X connect 9 1 6 0;
#X connect 10 0 3 0;
#X connect 10 1 7 0;
#X connect 11 0 1 0;
#X connect 11 1 8 0;
#X restore 189 645 pd inf;
#N canvas 586 335 292 244 fix 0;
#X obj 186 123 s \$0-inf.R;
#X obj 159 143 s \$0-tail;
#X obj 86 126 s \$0-inf.L;
#X obj 59 146 s \$0-head;
#X obj 59 46 inlet;
#X msg 59 86 \$1;
#X msg 159 83 \$2;
#X obj 59 66 t a a;
#X obj 59 106 t a b;
#X obj 159 103 t a b;
#X connect 4 0 7 0;
#X connect 5 0 8 0;
#X connect 6 0 9 0;
#X connect 7 0 5 0;
#X connect 7 1 6 0;
#X connect 8 0 3 0;
#X connect 8 1 2 0;
#X connect 9 0 1 0;
#X connect 9 1 0 0;
#X restore 146 645 pd fix;
#X obj 112 585 list split 1;
#X obj 146 605 list trim;
#X obj 206 85 s \$0-axiom;
#X obj 165 105 s \$0-mode;
#X obj 97 165 t b b b b f b;
#X obj 97 675 outlet;
#X text 140 675 reset internal state;
#X obj 179 65 t b a;
#X obj 138 65 t b s;
#X obj 148 445 list prepend axiom;
#X obj 127 465 list;
#N canvas 474 23 272 599 float.to.binary 0;
#X obj 72 70 / 2;
#X obj 99 70 % 2;
#X obj 72 90 i;
#X obj 72 50 t f f;
#X obj 72 30 inlet;
#X obj 99 90 list prepend 0 0 0;
#X obj 99 150 list prepend 0 0 1;
#X obj 99 210 list prepend 0 1 0;
#X obj 99 270 list prepend 0 1 1;
#X obj 99 330 list prepend 1 0 0;
#X obj 99 390 list prepend 1 0 1;
#X obj 99 450 list prepend 1 1 0;
#X obj 72 490 list prepend 1 1 1;
#X obj 99 530 outlet;
#X obj 72 130 / 2;
#X obj 99 130 % 2;
#X obj 72 150 i;
#X obj 72 110 t f f;
#X obj 72 190 / 2;
#X obj 99 190 % 2;
#X obj 72 210 i;
#X obj 72 170 t f f;
#X obj 72 250 / 2;
#X obj 99 250 % 2;
#X obj 72 270 i;
#X obj 72 230 t f f;
#X obj 72 310 / 2;
#X obj 99 310 % 2;
#X obj 72 330 i;
#X obj 72 290 t f f;
#X obj 72 370 / 2;
#X obj 99 370 % 2;
#X obj 72 390 i;
#X obj 72 350 t f f;
#X obj 72 430 / 2;
#X obj 99 430 % 2;
#X obj 72 450 i;
#X obj 72 410 t f f;
#X obj 72 470 % 2;
#X connect 0 0 2 0;
#X connect 1 0 5 0;
#X connect 2 0 17 0;
#X connect 3 0 0 0;
#X connect 3 1 1 0;
#X connect 4 0 3 0;
#X connect 5 0 13 0;
#X connect 6 0 13 0;
#X connect 7 0 13 0;
#X connect 8 0 13 0;
#X connect 9 0 13 0;
#X connect 10 0 13 0;
#X connect 11 0 13 0;
#X connect 12 0 13 0;
#X connect 14 0 16 0;
#X connect 15 0 6 0;
#X connect 16 0 21 0;
#X connect 17 0 14 0;
#X connect 17 1 15 0;
#X connect 18 0 20 0;
#X connect 19 0 7 0;
#X connect 20 0 25 0;
#X connect 21 0 18 0;
#X connect 21 1 19 0;
#X connect 22 0 24 0;
#X connect 23 0 8 0;
#X connect 24 0 29 0;
#X connect 25 0 22 0;
#X connect 25 1 23 0;
#X connect 26 0 28 0;
#X connect 27 0 9 0;
#X connect 28 0 33 0;
#X connect 29 0 26 0;
#X connect 29 1 27 0;
#X connect 30 0 32 0;
#X connect 31 0 10 0;
#X connect 32 0 37 0;
#X connect 33 0 30 0;
#X connect 33 1 31 0;
#X connect 34 0 36 0;
#X connect 35 0 11 0;
#X connect 36 0 38 0;
#X connect 37 0 34 0;
#X connect 37 1 35 0;
#X connect 38 0 12 0;
#X restore 157 185 pd float.to.binary;
#X obj 97 45 route code mode axiom;
#X connect 0 0 14 0;
#X connect 1 0 6 0;
#X connect 2 0 1 0;
#X connect 5 0 12 0;
#X connect 6 0 31 0;
#X connect 7 0 20 0;
#X connect 8 0 9 0;
#X connect 8 1 10 0;
#X connect 9 0 11 0;
#X connect 10 0 11 1;
#X connect 11 0 12 1;
#X connect 12 0 16 0;
#X connect 13 0 12 1;
#X connect 15 0 39 0;
#X connect 17 0 8 0;
#X connect 17 1 8 0;
#X connect 17 2 13 0;
#X connect 18 0 36 0;
#X connect 19 0 7 1;
#X connect 20 0 5 0;
#X connect 20 1 17 0;
#X connect 21 0 23 0;
#X connect 22 0 21 0;
#X connect 23 0 27 0;
#X connect 24 0 26 0;
#X connect 24 1 25 0;
#X connect 27 1 28 0;
#X connect 28 0 24 0;
#X connect 31 0 32 0;
#X connect 31 1 22 0;
#X connect 31 2 37 0;
#X connect 31 3 7 0;
#X connect 31 4 38 0;
#X connect 31 5 0 0;
#X connect 34 0 1 0;
#X connect 34 1 29 0;
#X connect 35 0 1 0;
#X connect 35 1 30 0;
#X connect 36 0 37 1;
#X connect 37 0 16 0;
#X connect 38 0 16 0;
#X connect 39 0 1 0;
#X connect 39 1 35 0;
#X connect 39 2 34 0;
#X restore 306 20 pd make.code;
#X obj 117 500 list append;
#X obj 117 520 list split 3;
#X obj 117 560 list;
#X obj 117 580 text search \$0-rules 0 1;
#X msg 117 540 \$3 \$2 \$1;
#X obj 117 600 text get \$0-rules 3;
#X obj 117 620 list prepend;
#X obj 117 640 t l l;
#X obj 96 660 list;
#X obj 115 750 text set \$0-outcome;
#X obj 96 790 outlet;
#X obj 96 770 list trim;
#X obj 117 380 text get \$0-outcome;
#X msg 117 340 0;
#X obj 87 50 inlet;
#X obj 117 320 spigot;
#X obj 183 -30 inlet;
#X text 86 30 iterate;
#X msg 117 230 1;
#X obj 151 270 text get \$0-rules;
#X obj 151 250 text search \$0-rules 0;
#X obj 151 290 list split 1;
#X msg 151 230 symbol axiom;
#X obj 117 110 t b b b b;
#X obj 198 130 + 1;
#X obj 338 280 outlet;
#X msg 200 100 1;
#X msg 248 130 0;
#X obj 183 70 t b b b b;
#X obj 168 130 f 1;
#X obj 168 150 t f f;
#X obj 168 190 v \$0-iteration.n;
#N canvas 525 404 555 244 save 0;
#X obj 21 19 inlet;
#X obj 21 59 v \$0-iteration.n;
#X obj 21 39 t b;
#X obj 21 79 sel 0;
#X obj 21 199 print error;
#X msg 21 179 no iterations!;
#X obj 241 69 inlet;
#X obj 241 89 t b;
#X obj 48 159 s \$0-to.text.define;
#X obj 241 149 s \$0-to.save.memory;
#X obj 241 109 savepanel;
#X obj 48 119 savepanel;
#X text 279 68 save all iterations (including the axiom);
#X text 59 18 save the last iteration (skip the axiom);
#X obj 48 99 t b;
#X msg 48 139 write \$1;
#X msg 241 129 write \$1;
#X connect 0 0 2 0;
#X connect 1 0 3 0;
#X connect 2 0 1 0;
#X connect 3 0 5 0;
#X connect 3 1 14 0;
#X connect 5 0 4 0;
#X connect 6 0 7 0;
#X connect 7 0 10 0;
#X connect 10 0 16 0;
#X connect 11 0 15 0;
#X connect 14 0 11 0;
#X connect 15 0 8 0;
#X connect 16 0 9 0;
#X restore 224 20 pd save;
#X obj 457 320 text define \$0-outcome;
#X obj 457 200 loadbang;
#X msg 457 230 clear;
#X obj 457 360 declare -path rules;
#X obj 457 380 declare -path outcomes;
#X obj 206 423 r \$0-head;
#X obj 200 443 r \$0-tail;
#X obj 117 460 list append;
#X obj 117 440 list prepend;
#X obj 117 360 t f b;
#X obj 117 400 t a a;
#N canvas 873 377 308 339 boundary.mode 1;
#X obj 68 33 inlet;
#X obj 68 133 text get \$0-rules;
#X obj 68 113 text search \$0-rules 0;
#X obj 68 153 list split 1;
#X obj 95 73 s \$0-last.state;
#X msg 68 93 symbol mode;
#X obj 102 213 sel loop reflect;
#N canvas 456 313 430 488 reflect 1;
#X obj 105 223 s \$0-inf.R;
#X obj 78 243 s \$0-tail;
#X obj 86 316 s \$0-inf.L;
#X obj 59 336 s \$0-head;
#X obj 59 46 inlet;
#X obj 123 123 list length;
#X obj 123 143 - 1;
#X obj 59 86 list;
#X obj 80 66 r \$0-last.state;
#X obj 59 106 t l l l;
#X obj 59 296 t a b;
#X obj 78 203 t a b;
#N canvas 0 38 450 309 list-nth 0;
#X obj 50 69 list;
#X msg 137 150 set \, adddollar \$1;
#X obj 50 242 outlet;
#X obj 50 40 inlet;
#X obj 105 71 f \$1;
#X obj 151 41 loadbang;
#X obj 105 40 inlet;
#X obj 105 94 moses;
#X obj 137 116 + 1;
#X msg 105 128 set;
#X msg 50 210 \$91;
#X connect 0 0 10 0;
#X connect 1 0 10 0;
#X connect 3 0 0 0;
#X connect 4 0 7 0;
#X connect 5 0 4 0;
#X connect 6 0 4 0;
#X connect 7 0 9 0;
#X connect 7 1 8 0;
#X connect 8 0 1 0;
#X connect 9 0 10 0;
#X connect 10 0 2 0;
#X restore 80 180 pd list-nth;
#N canvas 0 38 450 309 list-nth 0;
#X obj 40 69 list;
#X msg 127 150 set \, adddollar \$1;
#X obj 40 242 outlet;
#X obj 40 40 inlet;
#X obj 141 41 loadbang;
#X obj 95 40 inlet;
#X obj 95 94 moses;
#X obj 127 116 + 1;
#X msg 95 128 set;
#X msg 40 210 \$1;
#X obj 95 71 f 0;
#X connect 0 0 9 0;
#X connect 1 0 9 0;
#X connect 3 0 0 0;
#X connect 4 0 10 0;
#X connect 5 0 10 0;
#X connect 6 0 8 0;
#X connect 6 1 7 0;
#X connect 7 0 1 0;
#X connect 8 0 9 0;
#X connect 9 0 2 0;
#X connect 10 0 6 0;
#X restore 60 270 pd list-nth;
#X connect 4 0 7 0;
#X connect 5 0 6 0;
#X connect 6 0 12 1;
#X connect 7 0 9 0;
#X connect 8 0 7 1;
#X connect 9 0 13 0;
#X connect 9 1 12 0;
#X connect 9 2 5 0;
#X connect 10 0 3 0;
#X connect 10 1 2 0;
#X connect 11 0 1 0;
#X connect 11 1 0 0;
#X connect 12 0 11 0;
#X connect 13 0 10 0;
#X restore 158 243 pd reflect;
#N canvas 774 739 332 357 loop 1;
#X obj 215 163 s \$0-inf.R;
#X obj 188 183 s \$0-tail;
#X obj 87 240 s \$0-inf.L;
#X obj 60 260 s \$0-head;
#X obj 59 46 inlet;
#X obj 104 146 list length;
#X obj 104 166 - 1;
#X obj 59 86 list;
#X obj 80 66 r \$0-last.state;
#X obj 59 106 t l l l;
#X obj 60 220 t a b;
#X obj 200 140 t a b;
#N canvas 0 38 450 303 list-nth 0;
#X obj 50 69 list;
#X msg 137 150 set \, adddollar \$1;
#X obj 50 242 outlet;
#X obj 50 40 inlet;
#X obj 105 71 f \$1;
#X obj 151 41 loadbang;
#X obj 105 40 inlet;
#X obj 105 94 moses;
#X obj 137 116 + 1;
#X msg 105 128 set;
#X msg 50 210 \$1;
#X connect 0 0 10 0;
#X connect 1 0 10 0;
#X connect 3 0 0 0;
#X connect 4 0 7 0;
#X connect 5 0 4 0;
#X connect 6 0 4 0;
#X connect 7 0 9 0;
#X connect 7 1 8 0;
#X connect 8 0 1 0;
#X connect 9 0 10 0;
#X connect 10 0 2 0;
#X restore 60 190 pd list-nth;
#N canvas 0 38 450 306 list-nth 0;
#X obj 40 69 list;
#X msg 127 150 set \, adddollar \$1;
#X obj 40 242 outlet;
#X obj 40 40 inlet;
#X obj 141 41 loadbang;
#X obj 95 40 inlet;
#X obj 95 94 moses;
#X obj 127 116 + 1;
#X msg 95 128 set;
#X msg 40 210 \$1;
#X obj 95 71 f 0;
#X connect 0 0 9 0;
#X connect 1 0 9 0;
#X connect 3 0 0 0;
#X connect 4 0 10 0;
#X connect 5 0 10 0;
#X connect 6 0 8 0;
#X connect 6 1 7 0;
#X connect 7 0 1 0;
#X connect 8 0 9 0;
#X connect 9 0 2 0;
#X connect 10 0 6 0;
#X restore 200 120 pd list-nth;
#X connect 4 0 7 0;
#X connect 5 0 6 0;
#X connect 6 0 12 1;
#X connect 7 0 9 0;
#X connect 8 0 7 1;
#X connect 9 0 12 0;
#X connect 9 1 5 0;
#X connect 9 2 13 0;
#X connect 10 0 3 0;
#X connect 10 1 2 0;
#X connect 11 0 1 0;
#X connect 11 1 0 0;
#X connect 12 0 10 0;
#X connect 13 0 11 0;
#X restore 102 243 pd loop;
#X obj 68 53 t b a;
#X obj 102 173 list trim;
#X obj 102 193 unpack s;
#X connect 0 0 9 0;
#X connect 1 0 3 0;
#X connect 2 0 1 0;
#X connect 3 1 10 0;
#X connect 5 0 2 0;
#X connect 6 0 8 0;
#X connect 6 1 7 0;
#X connect 9 0 5 0;
#X connect 9 1 4 0;
#X connect 10 0 11 0;
#X connect 11 0 6 0;
#X restore 317 417 pd boundary.mode;
#X obj 96 710 list append;
#X obj 96 690 list prepend;
#X obj 185 673 r \$0-inf.L;
#X obj 179 693 r \$0-inf.R;
#X obj 185 310 t a a;
#X obj 467 290 r \$0-to.text.define;
#X obj 96 730 t l l l;
#X obj 467 260 text define \$0-save.memory;
#N canvas 288 312 246 228 check.axiom 0;
#X obj 48 37 inlet;
#X obj 48 57 t b b;
#X obj 81 97 text search \$0-rules 0;
#X msg 81 77 symbol axiom;
#X obj 81 117 != -1;
#X obj 48 137 spigot;
#X obj 48 157 outlet;
#X connect 0 0 1 0;
#X connect 1 0 5 0;
#X connect 1 1 3 0;
#X connect 2 0 4 0;
#X connect 3 0 2 0;
#X connect 4 0 5 1;
#X connect 5 0 6 0;
#X restore 87 70 pd check.axiom;
#X obj 245 747 text set \$0-save.memory 1e+06;
#X obj 507 230 r \$0-to.save.memory;
#X obj 183 -10 route reset last dump;
#X text 388 20 here the Wolfram code is generated on or whenever a
rule \, mode or axiom message is sent;
#N canvas 0 38 635 581 once 0;
#X obj 110 -10 spigot;
#X obj 55 -113 inlet;
#X obj 110 -61 t a b;
#X obj 147 -32 f 1;
#X obj 110 22 t a b;
#X obj 140 44 f 0;
#X obj 110 75 outlet;
#X obj 228 -116 inlet;
#X obj 228 -93 bang;
#X obj 228 -70 f 1;
#X text 29 -166 once;
#X text 85 -165 only the first message passes through;
#X text 50 -135 message in;
#X text 50 117 message out (only once);
#X text 224 -136 anything to init once;
#X obj 55 -92 route bang;
#X obj 55 -62 t b b;
#X obj 55 -10 spigot;
#X obj 55 22 t b b;
#X text 117 203 IEM KUG;
#X text 101 191 musil;
#X text 131 191 @;
#X text 137 191 iem.at;
#X text 52 180 (c) Thomas Musil 2000 - 2005;
#X text 100 213 Graz \, Austria;
#X text 123 164 @;
#X text 129 164 iem.at;
#X text 51 164 (c) zmoelnig;
#X connect 0 0 4 0;
#X connect 1 0 15 0;
#X connect 2 0 0 0;
#X connect 2 1 3 0;
#X connect 3 0 0 1;
#X connect 3 0 17 1;
#X connect 4 0 6 0;
#X connect 4 1 5 0;
#X connect 5 0 3 1;
#X connect 7 0 8 0;
#X connect 8 0 9 0;
#X connect 9 0 3 1;
#X connect 15 0 16 0;
#X connect 15 1 2 0;
#X connect 16 0 17 0;
#X connect 16 1 3 0;
#X connect 17 0 18 0;
#X connect 18 0 6 0;
#X connect 18 1 5 0;
#X restore 150 210 pd once;
#N canvas 0 38 679 489 list-drip 0;
#X obj 52 85 t a a;
#X obj 52 242 spigot;
#X obj 91 150 bang;
#X obj 91 169 1;
#X obj 212 150 route bang;
#X obj 172 151 bang;
#X obj 172 170 0;
#X obj 91 115 list split 2;
#X obj 221 380 list split;
#X obj 288 329 list length;
#X obj 288 351 >> 1;
#X obj 52 261 t a a a a;
#X obj 52 447 list split;
#X obj 119 399 list length;
#X obj 119 424 >> 1;
#X obj 20 20 inlet;
#X obj 279 176 outlet;
#X text 62 20 Copyright 2009 by Mathieu Bouchard;
#X obj 20 54 t b a;
#X obj 454 120 outlet;
#X text 509 122 signal end of list;
#X text 370 24 made compatible with [list-drip]: fbar 2009;
#X connect 0 0 1 0;
#X connect 0 1 7 0;
#X connect 1 0 11 0;
#X connect 2 0 3 0;
#X connect 3 0 1 1;
#X connect 4 1 16 0;
#X connect 5 0 6 0;
#X connect 6 0 1 1;
#X connect 7 0 2 0;
#X connect 7 2 4 0;
#X connect 7 2 5 0;
#X connect 8 0 0 0;
#X connect 9 0 10 0;
#X connect 10 0 8 1;
#X connect 11 0 12 0;
#X connect 11 1 13 0;
#X connect 11 2 8 0;
#X connect 11 3 9 0;
#X connect 12 1 0 0;
#X connect 13 0 14 0;
#X connect 14 0 12 1;
#X connect 15 0 18 0;
#X connect 18 0 19 0;
#X connect 18 1 0 0;
#X restore 120 480 pd list-drip;
#X connect 0 0 29 0;
#X connect 1 0 2 0;
#X connect 2 0 1 1;
#X connect 2 0 5 0;
#X connect 2 2 1 1;
#X connect 3 0 4 0;
#X connect 4 0 6 0;
#X connect 5 0 3 0;
#X connect 6 0 7 0;
#X connect 7 0 8 0;
#X connect 8 0 9 1;
#X connect 8 1 7 1;
#X connect 9 0 47 0;
#X connect 12 0 11 0;
#X connect 13 0 44 0;
#X connect 14 0 43 0;
#X connect 15 0 54 0;
#X connect 16 0 14 0;
#X connect 17 0 57 0;
#X connect 19 0 16 1;
#X connect 20 0 22 0;
#X connect 21 0 20 0;
#X connect 22 1 50 0;
#X connect 23 0 21 0;
#X connect 24 0 19 0;
#X connect 24 1 16 0;
#X connect 24 2 59 0;
#X connect 24 3 30 0;
#X connect 25 0 30 1;
#X connect 27 0 30 1;
#X connect 28 0 26 0;
#X connect 28 0 16 1;
#X connect 28 0 32 0;
#X connect 29 0 59 1;
#X connect 29 1 27 0;
#X connect 29 2 28 0;
#X connect 29 3 36 0;
#X connect 30 0 25 0;
#X connect 30 0 31 0;
#X connect 31 0 32 0;
#X connect 31 1 26 0;
#X connect 35 0 36 0;
#X connect 36 0 34 0;
#X connect 36 0 53 0;
#X connect 39 0 42 1;
#X connect 40 0 41 1;
#X connect 41 0 60 0;
#X connect 42 0 41 0;
#X connect 43 0 13 0;
#X connect 43 1 7 1;
#X connect 43 1 1 1;
#X connect 44 0 42 0;
#X connect 44 1 45 0;
#X connect 46 0 52 0;
#X connect 47 0 46 0;
#X connect 48 0 47 1;
#X connect 49 0 46 1;
#X connect 50 0 47 0;
#X connect 50 1 45 0;
#X connect 51 0 34 0;
#X connect 52 0 12 0;
#X connect 52 1 10 0;
#X connect 52 2 55 0;
#X connect 54 0 24 0;
#X connect 56 0 53 0;
#X connect 57 0 29 0;
#X connect 57 1 33 0;
#X connect 57 2 33 1;
#X connect 57 3 0 0;
#X connect 59 0 23 0;
#X connect 60 0 1 0;
#X connect 60 1 9 0;
