#N canvas 812 198 694 611 12;
#X obj 30 475 *~;
#X obj 91 475 *~;
#X obj 51 328 vsl 15 128 0 1 0 0 empty empty empty 0 -8 0 8 -262144
-1 -1 7877 1;
#X obj 112 323 vsl 15 128 0 1 0 0 empty empty empty 0 -8 0 8 -262144
-1 -1 4823 1;
#X obj 49 566 dac~;
#X obj 48 518 +~;
#X obj 168 560 s~ feedback;
#X obj 168 526 *~;
#X obj 355 114 r~ feedback;
#X obj 158 207 +~;
#X obj 29 38 tgl 15 0 empty empty empty 0 -6 0 8 -262144 -1 -1 0 1
;
#X obj 29 123 readsf~ 2;
#X obj 158 231 delwrite~ height 3000;
#X obj 167 286 delread~ height 100;
#X obj 334 206 +~;
#X obj 334 231 delwrite~ width 3000;
#X obj 188 334 delread~ width 100;
#X obj 501 205 +~;
#X obj 501 230 delwrite~ length 3000;
#X obj 189 414 delread~ length 100;
#X obj 167 361 +~;
#X obj 168 441 +~;
#X floatatom 188 309 5 0 0 1 width width -, f 5;
#X floatatom 189 389 5 0 0 1 length length -, f 5;
#X obj 192 475 hsl 128 15 0 0.5 0 0 empty feedback empty -2 -8 0 10
-262144 -1 -1 1778 1;
#X obj 29 59 t f b;
#X msg 111 124 1;
#X obj 508 42 loadbang;
#X floatatom 189 499 5 0 0 0 - - -, f 5;
#N canvas 348 403 200 271 xfade 0;
#X obj 40 27 inlet;
#X msg 42 148 1;
#X obj 123 220 outlet;
#X obj 43 220 outlet;
#X obj 43 181 -;
#X obj 42 119 t b f;
#X obj 41 83 line;
#X obj 41 55 pack \$1 100;
#X connect 0 0 7 0;
#X connect 1 0 4 0;
#X connect 4 0 3 0;
#X connect 5 0 1 0;
#X connect 5 1 4 1;
#X connect 6 0 5 0;
#X connect 6 0 2 0;
#X connect 7 0 6 0;
#X restore 51 291 pd xfade;
#X obj 54 264 hsl 80 15 0 1 0 0 empty xfade empty -2 -8 0 10 -262144
-1 -1 3000 1;
#X floatatom 167 259 5 0 0 1 height height -, f 5;
#X msg 508 71 \; height 79 \; width 93 \; length 178 \; feedback 0.07
\; xfade 0 \;;
#X text 124 33 Room echo;
#X msg 66 86 open ../99-Sounds/1-4.wav;
#X connect 0 0 5 0;
#X connect 1 0 5 1;
#X connect 2 0 0 1;
#X connect 3 0 1 1;
#X connect 5 0 4 0;
#X connect 5 0 4 1;
#X connect 7 0 6 0;
#X connect 8 0 9 1;
#X connect 8 0 14 1;
#X connect 8 0 17 1;
#X connect 9 0 12 0;
#X connect 10 0 25 0;
#X connect 11 0 9 0;
#X connect 11 0 0 0;
#X connect 11 0 14 0;
#X connect 11 0 17 0;
#X connect 11 2 26 0;
#X connect 13 0 20 0;
#X connect 14 0 15 0;
#X connect 16 0 20 1;
#X connect 17 0 18 0;
#X connect 19 0 21 1;
#X connect 20 0 21 0;
#X connect 21 0 7 0;
#X connect 21 0 1 0;
#X connect 22 0 16 0;
#X connect 23 0 19 0;
#X connect 24 0 28 0;
#X connect 25 0 11 0;
#X connect 25 1 34 0;
#X connect 26 0 25 0;
#X connect 27 0 32 0;
#X connect 28 0 7 1;
#X connect 29 0 2 0;
#X connect 29 1 3 0;
#X connect 30 0 29 0;
#X connect 31 0 13 0;
#X connect 34 0 11 0;
