#N canvas 176 319 779 367 12;
#X obj 31 49 noise~;
#X obj 31 208 *~;
#X obj 52 180 line~;
#X msg 52 143 0 250;
#X obj 245 298 dac~;
#X msg 52 78 bang;
#X obj 52 117 delay 50;
#X msg 161 123 0.5 50;
#X obj 245 94 +~ 800;
#X obj 245 64 *~ 200;
#X text 110 179 gain control;
#X text 109 197 for noise;
#X text 32 318 delay input;
#X text 354 124 delay output (variable delay time);
#X text 333 36 oscillator drives variable delay time;
#X text 317 93 delay time: 800 +/- 200 = 600 <= x <= 1000 msec;
#X text 328 194 reduce gain for output and regenerative feedback;
#X text 297 298 variable delay with feedback;
#X obj 31 296 delwrite~ delay1 10000;
#X obj 245 125 vd~ delay1;
#X obj 245 36 osc~ 0.5;
#X obj 245 194 *~ 0.5;
#X obj 293 149 hsl 128 15 0.001 0.99 0 0 empty empty empty -2 -8 0
10 -262144 -1 -1 8700 1;
#X floatatom 290 170 5 0 0 0 - - -, f 5;
#X connect 0 0 1 0;
#X connect 1 0 4 0;
#X connect 1 0 18 0;
#X connect 2 0 1 1;
#X connect 3 0 2 0;
#X connect 5 0 7 0;
#X connect 5 0 6 0;
#X connect 6 0 3 0;
#X connect 7 0 2 0;
#X connect 8 0 19 0;
#X connect 9 0 8 0;
#X connect 19 0 21 0;
#X connect 20 0 9 0;
#X connect 21 0 4 0;
#X connect 21 0 18 0;
#X connect 22 0 23 0;
#X connect 23 0 21 1;
