#N canvas 302 167 487 531 12;
#X obj 67 395 *~;
#X obj 46 420 +~;
#X obj 109 287 +~;
#X obj 266 150 line~;
#X obj 109 182 osc~;
#X obj 109 241 *~;
#X obj 266 110 pack f 10;
#X obj 43 25 inlet~;
#X obj 109 154 inlet;
#X obj 266 64 inlet;
#X obj 87 91 inlet;
#X obj 190 122 inlet;
#X obj 109 322 vd~ \$0-delayline 1000;
#X obj 46 452 delwrite~ \$0-delayline 3000;
#X text 100 26 singnal in;
#X text 88 71 0 - 1;
#X text 114 135 osc;
#X text 185 85 osc-amp;
#X text 189 103 0 - 1;
#X text 265 45 delay-length;
#X text 42 494 (c) 2008 Achim Bornhoeft;
#X text 100 392 add delayed to the original signal: feedback;
#X obj 108 353 outlet~;
#X text 272 451 write to delay line;
#X text 83 57 feedback;
#X connect 0 0 1 1;
#X connect 1 0 13 0;
#X connect 2 0 12 0;
#X connect 3 0 2 1;
#X connect 4 0 5 0;
#X connect 5 0 2 0;
#X connect 6 0 3 0;
#X connect 7 0 1 0;
#X connect 8 0 4 0;
#X connect 9 0 6 0;
#X connect 10 0 0 1;
#X connect 11 0 5 1;
#X connect 12 0 0 0;
#X connect 12 0 22 0;
