#N canvas 374 164 933 707 12;
#X obj 124 303 + 1;
#X obj 69 303 f;
#X obj 69 363 hradio 15 1 0 16 empty empty empty 0 -6 0 8 -262144 -1
-1 4;
#X text 53 6 Old-Skool 16-step sequencer. Output is bangs \, which
can be used to trigger samples \, etc.;
#X obj 69 275 metro;
#X floatatom 69 387 5 0 0 0 - - -, f 5;
#X floatatom 106 113 5 0 0 1 Beats_per_minute - -, f 5;
#X obj 106 136 t b f;
#X obj 106 193 /;
#X msg 106 162 60;
#X obj 106 223 * 1000;
#X floatatom 106 251 5 0 0 0 - - -, f 5;
#X obj 69 207 tgl 15 0 empty empty empty 17 7 0 10 -262144 -1 -1 0
1;
#X obj 50 430 select 0 1 2 3 4 5 6 7 8 9 10 11 12 13 14 15;
#X obj 51 464 bng 15 250 50 0 empty empty empty 17 7 0 10 -262144 -1
-1;
#X obj 166 304 mod 16;
#X obj 54 640 dac~;
#N canvas 0 22 184 259 ran-sin 1;
#X obj 37 37 inlet;
#X obj 36 75 random 500;
#X obj 36 136 osc~;
#X obj 56 168 del 100;
#X msg 97 138 0;
#X obj 36 106 + 300;
#X obj 37 208 outlet~;
#X connect 0 0 1 0;
#X connect 1 0 5 0;
#X connect 2 0 6 0;
#X connect 3 0 4 0;
#X connect 4 0 2 0;
#X connect 5 0 2 0;
#X connect 5 0 3 0;
#X restore 51 499 pd ran-sin;
#X obj 83 461 bng 15 250 50 0 empty empty empty 17 7 0 10 -262144 -1
-1;
#N canvas 0 22 310 469 ran-sin 1;
#X obj 37 37 inlet;
#X obj 36 75 random 500;
#X obj 36 136 osc~;
#X msg 97 138 0;
#X obj 36 106 + 300;
#X obj 37 208 outlet~;
#X obj 97 108 delay 200;
#X connect 0 0 1 0;
#X connect 0 0 6 0;
#X connect 1 0 4 0;
#X connect 2 0 5 0;
#X connect 3 0 2 0;
#X connect 4 0 2 0;
#X connect 6 0 3 0;
#X restore 84 554 pd ran-sin;
#X obj 182 474 bng 15 250 50 0 empty empty empty 17 7 0 10 -262144
-1 -1;
#N canvas 0 22 184 259 ran-sin 1;
#X obj 37 37 inlet;
#X obj 36 75 random 500;
#X obj 36 136 osc~;
#X obj 56 168 del 100;
#X msg 97 138 0;
#X obj 36 106 + 300;
#X obj 37 208 outlet~;
#X connect 0 0 1 0;
#X connect 1 0 5 0;
#X connect 2 0 6 0;
#X connect 3 0 4 0;
#X connect 4 0 2 0;
#X connect 5 0 2 0;
#X connect 5 0 3 0;
#X restore 182 509 pd ran-sin;
#X connect 0 0 15 0;
#X connect 1 0 0 0;
#X connect 1 0 2 0;
#X connect 2 0 5 0;
#X connect 4 0 1 0;
#X connect 5 0 13 0;
#X connect 6 0 7 0;
#X connect 7 0 9 0;
#X connect 7 1 8 1;
#X connect 8 0 10 0;
#X connect 9 0 8 0;
#X connect 10 0 11 0;
#X connect 11 0 4 1;
#X connect 12 0 4 0;
#X connect 13 0 14 0;
#X connect 13 1 18 0;
#X connect 13 3 20 0;
#X connect 14 0 17 0;
#X connect 15 0 1 1;
#X connect 17 0 16 0;
#X connect 18 0 19 0;
#X connect 19 0 16 1;
#X connect 20 0 21 0;
#X connect 21 0 16 0;
