#N canvas 538 209 560 461 12;
#X obj 25 192 send \$0-local-data;
#X obj 26 366 receive \$0-local-data;
#X obj 215 275 netsend;
#X obj 215 302 tgl 15 0 empty empty empty 0 -6 0 8 #fcfcfc #000000 #000000 0 1;
#X obj 325 394 tgl 15 0 empty empty empty 0 -6 0 8 #fcfcfc #000000 #000000 0 1;
#X text 239 299 <-- connection status;
#X text 344 392 <-- connection status;
#X msg 234 246 disconnect;
#X msg 215 190 send \$1;
#X text 28 63 At the most basic level \, networking in Pd works a lot like the standard [send] and [receive] objects \, except there is a network port number rather than a send/receive name:;
#X text 34 27 [netsend] and [netreceive];
#X obj 28 167 hsl 128 15 0 127 0 0 empty empty empty -2 -8 0 10 #fcfcfc #000000 #000000 0 1;
#X obj 218 166 hsl 128 15 0 127 0 0 empty empty empty -2 -8 0 10 #fcfcfc #000000 #000000 0 1;
#X obj 29 419 hsl 128 15 0 127 0 0 empty empty empty -2 -8 0 10 #fcfcfc #000000 #000000 0 1;
#X obj 219 420 hsl 128 15 0 127 0 0 empty empty empty -2 -8 0 10 #fcfcfc #000000 #000000 0 1;
#X msg 232 218 connect localhost 54321;
#X obj 216 367 netreceive 54321;
#X text 410 211 localhost is the local webserver, f 16;
#X text 37 134 send & receive;
#X text 217 134 send & recieive via network;
#X connect 1 0 13 0;
#X connect 2 0 3 0;
#X connect 7 0 2 0;
#X connect 8 0 2 0;
#X connect 11 0 0 0;
#X connect 12 0 8 0;
#X connect 15 0 2 0;
#X connect 16 0 14 0;
#X connect 16 1 4 0;
