#N canvas 107 82 664 585 12;
#X msg 119 178 disconnect;
#X text 243 513 creation argument: 0 or none for TCP \, nonzero for UDP;
#X text 273 104 connecting p2p;
#X text 244 497 Send messages on remote machine;
#X text 285 141 connecting zum localhost;
#X obj 160 522 tgl 15 0 empty empty empty 0 -6 0 8 #fcfcfc #000000 #000000 0 1;
#X text 185 522 Status;
#X obj 183 376 pack f f;
#X obj 239 353 hsl 128 15 0 1 0 0 empty vol empty -2 -6 0 8 #fcfcfc #000000 #000000 0 1;
#X text 380 351 control volume over the network;
#X obj 182 266 metro 1000;
#X obj 183 247 tgl 15 0 empty empty empty 0 -6 0 8 #fcfcfc #000000 #000000 0 1;
#X obj 181 291 random 100;
#X obj 182 315 + 10;
#X msg 160 222 send achim 440 0.5;
#X obj 183 437 list trim;
#X obj 183 406 list prepend send achim;
#X text 356 439 add a name identifiers and send argument;
#X text 24 32 network identification (sender);
#X obj 305 259 loadbang;
#X msg 305 288 \; vol 0.5 \;;
#X text 266 72 connecting to the netmask (for 254 addresses);
#N canvas 442 315 603 320 p2p 0;
#X text 22 148 p2p: der Empfänger muss sich mit [netreceive] und dem gleichen port (3000) verbinden zum Empfang. Wenn er selbst senden will muss er auf einem anderen port mit der hiesigen ip-Adresse verbinden und wird mit [netreceive] auf dem port (hier 3001) empfangen.;
#X text 22 18 p2p: For sending data the sender must connect to the same IP address than the receiver. The receiver must be connected with [netreceive] and the same port (3000). If it wants to send itself \, it must connect to another port with the local ip address and is received with [netreceive] on the given port (here 3001).;
#X restore 408 105 pd p2p;
#X obj 195 467 print achim-send;
#X msg 91 141 connect localhost 3001;
#X msg 28 72 connect 255.255.255.0 3001;
#X obj 160 496 netsend 1;
#X msg 57 105 connect 10.107.2.108 3000;
#X connect 0 0 26 0;
#X connect 7 0 16 0;
#X connect 8 0 7 1;
#X connect 10 0 12 0;
#X connect 11 0 10 0;
#X connect 12 0 13 0;
#X connect 13 0 7 0;
#X connect 14 0 26 0;
#X connect 15 0 23 0;
#X connect 15 0 26 0;
#X connect 16 0 15 0;
#X connect 19 0 20 0;
#X connect 24 0 26 0;
#X connect 25 0 26 0;
#X connect 26 0 5 0;
#X connect 27 0 26 0;
