#N canvas 203 115 533 807 12;
#X obj 40 88 bng 19 250 50 0 empty empty empty 0 -10 0 12 #fcfcfc #000000 #000000;
#X floatatom 40 278 8 0 0 0 - - - 0;
#X obj 40 252 soundfiler;
#X msg 40 225 read -resize ../Sounds/1-4.wav grainarray;
#X obj 40 735 *~ 0.6;
#X obj 40 781 dac~;
#X obj 82 709 hsl 162 19 0 1 0 0 empty empty volume -2 -10 0 12 #00ff04 #ff0400 #000000 0 1;
#X obj 272 615 s g-dur;
#X obj 270 711 s g-speed;
#X msg 40 643 next \$1;
#X obj 40 389 phasor~;
#X obj 40 416 *~, f 5;
#X obj 40 581 snapshot~;
#X obj 81 476 tgl 19 0 empty empty empty 0 -10 0 12 #00ff04 #ff0400 #000000 0 1;
#X obj 81 511 metro 100;
#X obj 40 62 loadbang;
#X obj 120 586 random 200;
#X obj 40 617 +;
#X obj 81 546 t b b, f 6;
#X obj 135 269 samplerate~;
#X floatatom 135 293 5 0 0 0 - - - 0;
#X obj 40 321 expr $f2 / $f1;
#X obj 40 114 t b b b;
#X obj 190 537 hsl 162 19 50 150000 0 0 empty rnd-start random\ input\ start/hop\ (samples) -2 -10 0 12 #00ff04 #ff0400 #000000 0 1;
#X obj 143 384 hsl 162 19 20 300 0 0 empty def-speed grain\ speed\ (msecs) -2 -10 0 12 #00ff04 #ff0400 #000000 0 1;
#X floatatom 187 563 7 0 0 0 - - - 0;
#X floatatom 140 409 5 0 0 0 - - - 0;
#X obj 272 591 nbx 5 17 20 500 0 0 empty def-dur grain\ duration\ (msecs) 0 -10 0 12 #00ff04 #000000 #000000 0 256;
#X obj 270 688 nbx 5 17 0.15 30 1 0 empty def-srt transposition 0 -10 0 12 #00ff04 #000000 #000000 0 256;
#X obj 215 497 random;
#X obj 257 448 hsl 162 19 0 1000 0 0 empty rnd-speed random\ output\ speed/hop\ (msecs) -2 -10 0 12 #00ff04 #ff0400 #000000 0 1;
#X obj 140 458 +;
#X floatatom 141 485 5 0 0 0 - - - 0;
#X floatatom 254 472 5 0 0 0 - - - 0;
#X obj 140 432 t b f;
#X text 268 734 recieved in [grain] abs;
#X obj 40 670 clone grain 30;
#X text 180 292 get samplingrate from the settings;
#X msg 109 116 \; def-dur 125 \; def-srt 1 \; def-speed 100 \; rnd-start 100 \; rnd-speed 0 \;;
#X obj 23 24 cnv 19 20 20 empty empty Granular\ Synthesis 20 12 0 16 #ffffff #404040 0;
#X text 150 322 base frequency (Hz): samplingrate / samples;
#X text 101 644 send start point to each next instance of [grain];
#X obj 40 347 nbx 5 17 0 4 0 0 empty read-speed reading\ speed 70 10 0 12 #00ff04 #000000 #000000 0 256;
#X floatatom 120 610 5 0 0 0 - - - 0;
#N canvas 628 608 554 287 settings 0;
#X msg 220 165 \; def-dur 225 \; def-srt 0.17 \; def-speed 50 \; rnd-start 55000 \; rnd-speed 0 \; read-speed 0.01;
#X msg 60 161 \; def-dur 25 \; def-srt 0.17 \; def-speed 50 \; rnd-start 55000 \; rnd-speed 0 \; read-speed 0.01;
#X msg 228 32 \; def-dur 100 \; def-srt 3 \; def-speed 10 \; rnd-start 55000 \; rnd-speed 0 \; read-speed 0.2;
#X msg 387 164 \; def-dur 300 \; def-srt 1 \; def-speed 15 \; rnd-start 55000 \; rnd-speed 0 \; read-speed 0.1;
#X msg 387 30 \; def-dur 125 \; def-srt 1 \; def-speed 10 \; rnd-start 0 \; rnd-speed 0 \; read-speed 0.02;
#X msg 60 33 \; def-dur 125 \; def-srt 1 \; def-speed 50 \; rnd-start 0 \; rnd-speed 0.03 \; read-speed 0.02;
#X text 56 11 synchron \, streched;
#X restore 123 62 pd settings;
#N canvas 0 22 450 278 (subpatch) 0;
#X array grainarray 155648 float 2;
#X coords 0 1 155648 -1 200 140 1 0 0;
#X restore 279 66 graph;
#X obj 438 228 tgl 19 0 empty empty empty 0 -10 0 12 #fcfcfc #000000 #000000 0 1;
#X msg 438 252 \; pd dsp \$1;
#X text 120 758 (c) 2021 \, Andrew R. Brown \; https://youtu.be/QX_saH55cks?si=l6sQbu_aWWzyWaep;
#X connect 0 0 22 0;
#X connect 1 0 11 1;
#X connect 1 0 21 0;
#X connect 2 0 1 0;
#X connect 3 0 2 0;
#X connect 4 0 5 0;
#X connect 4 0 5 1;
#X connect 6 0 4 1;
#X connect 9 0 36 0;
#X connect 10 0 11 0;
#X connect 11 0 12 0;
#X connect 12 0 17 0;
#X connect 13 0 14 0;
#X connect 14 0 18 0;
#X connect 14 0 29 0;
#X connect 15 0 0 0;
#X connect 16 0 17 1;
#X connect 16 0 43 0;
#X connect 17 0 9 0;
#X connect 18 0 12 0;
#X connect 18 1 16 0;
#X connect 19 0 20 0;
#X connect 20 0 21 1;
#X connect 21 0 42 0;
#X connect 22 0 3 0;
#X connect 22 1 19 0;
#X connect 22 2 38 0;
#X connect 23 0 25 0;
#X connect 24 0 26 0;
#X connect 25 0 16 1;
#X connect 26 0 34 0;
#X connect 27 0 7 0;
#X connect 28 0 8 0;
#X connect 29 0 31 0;
#X connect 30 0 33 0;
#X connect 31 0 32 0;
#X connect 32 0 14 1;
#X connect 33 0 29 1;
#X connect 34 0 31 0;
#X connect 34 1 31 1;
#X connect 36 0 4 0;
#X connect 42 0 10 0;
#X connect 46 0 47 0;
