#N canvas 341 294 438 513 12;
#X msg 45 220 \$1 \, \$2 \$3;
#X obj 45 246 vline~;
#X obj 45 194 pack f f f;
#X floatatom 43 59 7 0 0 0 - - - 0;
#X obj 43 82 t f f, f 6;
#X obj 82 108 +;
#X floatatom 109 60 5 0 0 1 Dur - - 0;
#X obj 109 83 * 44.1;
#X floatatom 179 56 5 0 0 1 Speed - - 0;
#X obj 178 145 /;
#X obj 179 80 t b f;
#X obj 45 273 tabread~ grainarray;
#X text 121 222 start \, end dur;
#X obj 179 29 r g-speed;
#X obj 43 30 inlet;
#X obj 109 29 r g-dur;
#X obj 158 386 vline~;
#X msg 158 359 1 20 \, 0 20 \$1;
#X obj 176 303 - 20;
#X obj 158 333 f;
#X obj 151 303 bng 19 250 50 0 empty empty empty 0 -10 0 12 #fcfcfc #000000 #000000;
#X obj 46 440 *~;
#X obj 46 464 outlet~;
#X text 262 359 grain envelope;
#X text 217 304 dur (msecs) - 20 msecs waiting this time until going down to 0 in 20 msecs, f 27;
#X connect 0 0 1 0;
#X connect 0 0 20 0;
#X connect 1 0 11 0;
#X connect 2 0 0 0;
#X connect 3 0 4 0;
#X connect 4 0 2 0;
#X connect 4 1 5 0;
#X connect 5 0 2 1;
#X connect 6 0 7 0;
#X connect 6 0 9 0;
#X connect 7 0 5 1;
#X connect 8 0 10 0;
#X connect 9 0 2 2;
#X connect 9 0 18 0;
#X connect 10 0 9 0;
#X connect 10 1 9 1;
#X connect 11 0 21 0;
#X connect 13 0 8 0;
#X connect 14 0 3 0;
#X connect 15 0 6 0;
#X connect 16 0 21 1;
#X connect 17 0 16 0;
#X connect 18 0 19 1;
#X connect 19 0 17 0;
#X connect 20 0 19 0;
#X connect 21 0 22 0;
