#N canvas 271 35 544 967 12;
#X obj 29 339 phasor~;
#X obj 29 49 openpanel;
#X obj 29 99 soundfiler;
#X obj 29 18 bng 15 250 50 0 empty empty empty 17 7 0 10 #fcfcfc #000000 #000000;
#X obj 41 282 t b f;
#X obj 29 307 * 1;
#X obj 201 236 hsl 128 15 0.5 2 0 0 empty empty empty -2 -8 0 10 #00ff04 #000000 #000000 0 1;
#X obj 28 691 *~;
#X obj 28 783 tabread4~ table1;
#X obj 213 71 table table1;
#X msg 29 71 read -resize \$1 table1;
#X obj 46 841 lop~ 2;
#X obj 28 865 *~;
#X msg 198 208 1;
#X text 333 234 speedMultipler : 0.5 - 2;
#X obj 198 188 loadbang;
#X obj 29 206 samplerate~;
#X obj 29 233 /;
#X text 56 691 tableIndex = phasorIndex * numSamples;
#X obj 28 897 hip~ 5;
#X obj 28 929 dac~;
#X obj 233 501 hsl 128 15 0 1 0 0 empty empty empty -2 -8 0 10 #00ff04 #000000 #000000 0 1;
#X obj 78 576 *;
#X obj 46 576 *;
#X obj 207 386 hsl 128 15 0 1 0 0 empty empty empty -2 -8 0 10 #00ff04 #000000 #000000 0 1;
#X obj 46 629 -;
#X obj 28 753 +~;
#X obj 46 727 lop~ 2;
#X obj 46 660 lop~ 2;
#X text 342 384 endPosition;
#X text 367 498 startPosition;
#X obj 77 604 t f f;
#X obj 198 257 s \$0-speedMultiplier;
#X obj 41 257 r \$0-speedMultiplier;
#X obj 89 152 v \$0-numSamples;
#X obj 46 520 v \$0-numSamples;
#X obj 46 546 t f f;
#X obj 168 796 hsl 128 15 0 1 0 0 empty empty empty -2 -8 0 10 #00ff04 #000000 #000000 0 1;
#X text 303 794 Volume: 0 - 1;
#X obj 166 750 loadbang;
#X msg 165 771 0.5;
#X obj 204 336 loadbang;
#X msg 204 364 1;
#X obj 165 816 s \$0-volume;
#X obj 46 815 r \$0-volume;
#X obj 236 431 v \$0-endPosition;
#X obj 262 548 v \$0-startPosition;
#X obj 204 459 s \$0-setLoop;
#X obj 204 406 t b f;
#X obj 230 521 t b f;
#X obj 230 575 s \$0-setLoop;
#X obj 96 547 v \$0-startPosition;
#X obj 73 430 v \$0-endPosition;
#X obj 47 389 t b b b, f 8;
#X obj 47 363 r \$0-setLoop;
#X obj 69 179 s \$0-setLoop;
#X obj 29 127 t b f b f;
#X text 94 297 playBackSpeed = sampleRate / numSamples * speedMultipler, f 43;
#X connect 0 0 7 0;
#X connect 1 0 10 0;
#X connect 2 0 56 0;
#X connect 3 0 1 0;
#X connect 4 0 5 0;
#X connect 4 1 5 1;
#X connect 5 0 0 0;
#X connect 6 0 32 0;
#X connect 7 0 26 0;
#X connect 8 0 12 0;
#X connect 10 0 2 0;
#X connect 11 0 12 1;
#X connect 12 0 19 0;
#X connect 13 0 6 0;
#X connect 15 0 13 0;
#X connect 16 0 17 0;
#X connect 17 0 5 0;
#X connect 19 0 20 0;
#X connect 19 0 20 1;
#X connect 21 0 49 0;
#X connect 22 0 31 0;
#X connect 23 0 25 0;
#X connect 24 0 48 0;
#X connect 25 0 28 0;
#X connect 26 0 8 0;
#X connect 27 0 26 1;
#X connect 28 0 7 1;
#X connect 31 0 25 1;
#X connect 31 1 27 0;
#X connect 33 0 4 0;
#X connect 35 0 36 0;
#X connect 36 0 23 0;
#X connect 36 1 22 0;
#X connect 37 0 43 0;
#X connect 39 0 40 0;
#X connect 40 0 37 0;
#X connect 41 0 42 0;
#X connect 42 0 24 0;
#X connect 44 0 11 0;
#X connect 48 0 47 0;
#X connect 48 1 45 0;
#X connect 49 0 50 0;
#X connect 49 1 46 0;
#X connect 51 0 22 1;
#X connect 52 0 23 1;
#X connect 53 0 35 0;
#X connect 53 1 52 0;
#X connect 53 2 51 0;
#X connect 54 0 53 0;
#X connect 56 0 16 0;
#X connect 56 1 17 1;
#X connect 56 2 55 0;
#X connect 56 3 34 0;
