#N canvas 556 107 848 828 12;
#N canvas 0 22 157 182 init 0;
#X obj 16 21 loadbang;
#X msg 16 51 \; pd dsp 1 \; set-play 0 \; set-start 0 \; set-end 1 \; set-vol 1 \;;
#X connect 0 0 1 0;
#X restore 227 13 pd init;
#X obj 10 46 cnv 15 240 200 empty empty empty 20 12 0 14 #dcdcdc #404040 0;
#X obj 26 152 soundfiler;
#X floatatom 26 182 10 0 0 1 length_in_samples - - 0;
#X obj 26 209 s len_samples;
#X msg 26 120 read -resize \$1 sample-08;
#X obj 26 88 openpanel;
#X obj 26 63 bng 15 250 50 0 empty empty empty 17 7 0 10 #fcfcfc #000000 #000000;
#X obj 333 250 cnv 15 260 570 empty empty empty 20 12 0 14 #dcdcdc #404040 0;
#X obj 597 250 cnv 15 240 570 empty empty empty 20 12 0 14 #dcdcdc #404040 0;
#X obj 630 780 dac~;
#X obj 630 288 tgl 15 0 empty set-play play 18 8 0 12 #fcfcfc #000000 #000000 0 1;
#X obj 629 482 phasor~;
#X obj 633 308 hsl 128 15 -2 2 0 0 empty empty frequency 30 8 1 12 #fcfcfc #000000 #000000 0 1;
#X floatatom 629 362 5 0 0 0 - - - 0;
#X obj 630 743 *~;
#X obj 640 395 r base_freq;
#X obj 629 455 *;
#X obj 630 617 tabread4~ sample-08;
#X obj 629 590 +~;
#X obj 629 535 *~;
#X obj 647 562 r start;
#X floatatom 648 668 5 0 0 1 volume - - 0;
#X obj 648 718 line~;
#X obj 648 692 pack 0 10;
#X obj 651 645 hsl 101 15 0 1 0 0 empty set-vol empty -2 -6 0 8 #fcfcfc #000000 #000000 0 1;
#X obj 640 423 t b f;
#X obj 643 332 r semi;
#X obj 397 563 hsl 128 15 -24 24 0 0 empty empty semitones 30 8 1 12 #fcfcfc #000000 #000000 0 1;
#N canvas 486 223 557 285 semitones 0;
#X obj 44 126 pow 2;
#X obj 81 99 / 12;
#X obj 44 155 outlet;
#X obj 44 74 t b f;
#X msg 44 99 2;
#X obj 44 48 inlet;
#X text 32 187 semitones just returns the right src from the given semitone transposition \, e.g. (semitones 12) will return 2;
#X connect 0 0 2 0;
#X connect 1 0 0 1;
#X connect 3 0 4 0;
#X connect 3 1 1 0;
#X connect 4 0 0 0;
#X connect 5 0 3 0;
#X restore 394 645 pd semitones;
#X floatatom 394 672 7 0 0 0 - - - 0;
#X floatatom 394 619 5 0 0 0 - - - 0;
#X obj 394 591 int;
#X obj 394 702 s semi;
#X obj 394 463 metro;
#X obj 394 422 tgl 15 0 empty empty empty 17 7 0 10 #fcfcfc #000000 #000000 0 1;
#X obj 426 434 / 44.1;
#X obj 394 498 random 25;
#X obj 394 528 - 12;
#X obj 9 250 cnv 15 320 570 empty empty empty 20 12 0 14 #dcdcdc #404040 0;
#X obj 33 326 hsl 128 15 0 1 0 0 empty set-start start 50 8 1 12 #fcfcfc #000000 #000000 0 1;
#X obj 48 377 r len_samples;
#X obj 30 403 *;
#X obj 30 485 s start;
#X obj 176 566 *;
#X floatatom 30 459 10 0 0 0 - - - 0;
#X floatatom 176 621 10 0 0 0 - - - 0;
#X obj 190 401 r len_samples;
#X obj 179 327 hsl 128 15 0 1 0 0 empty set-end duration 50 8 1 12 #fcfcfc #000000 #000000 0 1;
#X floatatom 189 511 10 0 0 0 - - - 0;
#X obj 43 738 s base_freq;
#X obj 190 486 -;
#X obj 210 426 r start;
#X obj 210 453 t b f;
#X obj 189 536 t b f;
#X obj 43 683 /;
#X obj 43 625 t b f;
#X floatatom 43 711 10 0 0 1 base_frequency - - 0;
#X obj 43 653 1;
#X obj 30 430 int;
#X obj 176 595 int;
#X text 352 271 Play table at different speeds;
#X text 59 15 Playing Samples 3;
#X obj 647 510 r duration;
#X obj 176 647 s duration;
#X obj 43 538 r duration;
#X text 31 271 Set different start- and endpoints \; relatively to the soundfile duration;
#X floatatom 30 349 8 0 0 0 - - - 0;
#X floatatom 176 375 8 0 0 0 - - - 0;
#X obj 426 402 r duration;
#X obj 254 46 cnv 15 583 200 empty empty empty 20 12 0 14 #dcdcdc #404040 0;
#N canvas 0 22 450 278 (subpatch) 0;
#X array sample-08 155648 float 2;
#X coords 0 1 155648 -1 200 140 1 0 0;
#X restore 358 89 graph;
#X obj 89 566 r srate;
#X obj 640 85 loadbang;
#X obj 640 114 samplerate~;
#X floatatom 640 141 10 0 0 0 - - - 0;
#X obj 640 168 s strate;
#X text 61 403 in samples;
#X text 173 667 segment duration (samples), f 17;
#X text 240 376 comment;
#X text 182 349 1 = end of sample;
#X text 671 362 transposition in semitones;
#X text 660 536 scale to duration;
#X text 662 590 start offset;
#X obj 43 596 / 48000;
#X connect 2 0 3 0;
#X connect 3 0 4 0;
#X connect 5 0 2 0;
#X connect 6 0 5 0;
#X connect 7 0 6 0;
#X connect 11 0 13 0;
#X connect 12 0 20 0;
#X connect 13 0 14 0;
#X connect 14 0 17 0;
#X connect 15 0 10 0;
#X connect 15 0 10 1;
#X connect 16 0 26 0;
#X connect 17 0 12 0;
#X connect 18 0 15 0;
#X connect 19 0 18 0;
#X connect 20 0 19 0;
#X connect 21 0 19 1;
#X connect 22 0 24 0;
#X connect 23 0 15 1;
#X connect 24 0 23 0;
#X connect 25 0 22 0;
#X connect 26 0 17 0;
#X connect 26 1 17 1;
#X connect 27 0 14 0;
#X connect 28 0 32 0;
#X connect 29 0 30 0;
#X connect 30 0 33 0;
#X connect 31 0 29 0;
#X connect 32 0 31 0;
#X connect 34 0 37 0;
#X connect 35 0 34 0;
#X connect 36 0 34 1;
#X connect 37 0 38 0;
#X connect 38 0 28 0;
#X connect 40 0 67 0;
#X connect 41 0 42 1;
#X connect 42 0 59 0;
#X connect 44 0 60 0;
#X connect 45 0 43 0;
#X connect 46 0 64 0;
#X connect 47 0 51 0;
#X connect 48 0 68 0;
#X connect 49 0 54 0;
#X connect 51 0 49 0;
#X connect 52 0 53 0;
#X connect 53 0 51 0;
#X connect 53 1 51 1;
#X connect 54 0 44 0;
#X connect 54 1 44 1;
#X connect 55 0 57 0;
#X connect 56 0 58 0;
#X connect 56 1 55 1;
#X connect 57 0 50 0;
#X connect 58 0 55 0;
#X connect 59 0 45 0;
#X connect 60 0 46 0;
#X connect 63 0 20 1;
#X connect 65 0 84 0;
#X connect 67 0 42 0;
#X connect 68 0 44 0;
#X connect 69 0 36 0;
#X connect 72 0 84 1;
#X connect 73 0 74 0;
#X connect 74 0 75 0;
#X connect 75 0 76 0;
#X connect 84 0 56 0;
