#N canvas 252 176 1040 673 12;
#X obj 35 430 vline~;
#X obj 35 457 tabread4~ snd-buffer;
#X obj 22 630 dac~;
#X obj 34 28 loadbang;
#X obj 560 145 hsl 128 15 -24 24 0 0 empty set-freq semitones 30 8 1 12 #00ff04 #ff0400 #000000 0 1;
#N canvas 486 223 557 285 semitones 0;
#X obj 44 126 pow 2;
#X obj 81 99 / 12;
#X obj 44 155 outlet;
#X obj 44 74 t b f;
#X msg 44 99 2;
#X obj 44 48 inlet;
#X text 32 187 semitones just returns the right src from the given semitone transposition \, e.g. (semitones 12) will return 2;
#X connect 0 0 2 0;
#X connect 1 0 0 1;
#X connect 3 0 4 0;
#X connect 3 1 1 0;
#X connect 4 0 0 0;
#X connect 5 0 3 0;
#X restore 557 227 pd semitones;
#X floatatom 557 254 7 0 0 0 - - - 0;
#X floatatom 557 201 5 0 0 0 - - - 0;
#X obj 557 173 int;
#X obj 557 284 s semi;
#X obj 261 145 hsl 128 15 0 1 0 0 empty set-start start 50 8 1 12 #00ff04 #ff0400 #000000 0 1;
#X obj 257 254 *;
#X obj 257 336 s start;
#X floatatom 257 310 10 0 0 0 - - - 0;
#X floatatom 407 505 10 0 0 0 - - - 0;
#X obj 407 145 hsl 128 15 0 1 0 0 empty set-end end 50 8 1 12 #00ff04 #ff0400 #000000 0 1;
#X floatatom 257 500 10 0 0 1 - - - 0;
#X obj 257 281 int;
#X obj 407 531 s duration;
#X obj 257 372 r duration;
#X floatatom 258 168 8 0 0 0 - - - 0;
#X floatatom 404 167 8 0 0 0 - - - 0;
#X obj 276 195 r smp;
#X obj 422 191 r smp;
#X obj 289 448 / 1000;
#X obj 257 473 /;
#X obj 35 234 bng 15 250 50 0 empty empty empty 17 7 0 10 #fcfcfc #000000 #000000;
#X msg 35 374 \$1 \, \$2 \$3;
#X obj 53 287 r start;
#X obj 404 249 *;
#X floatatom 404 305 10 0 0 0 - - - 0;
#X obj 404 276 int;
#X obj 404 331 s end;
#X obj 68 314 r end;
#X obj 418 398 r start;
#X obj 406 375 r end;
#X obj 407 452 -;
#X obj 407 479 abs;
#X obj 418 424 t b f;
#X obj 35 315 f;
#X obj 289 423 samplerate~;
#X obj 257 397 t f b;
#X obj 120 227 r semi;
#X obj 121 253 t b f;
#X obj 114 287 /;
#X obj 132 28 array define snd-buffer;
#X obj 759 43 tgl 15 0 empty empty empty 17 7 0 10 #fcfcfc #000000 #000000 0 1;
#X obj 820 190 sel 1 0;
#X obj 879 288 timer;
#X msg 757 343 stop;
#X obj 879 400 *;
#X obj 728 371 tabwrite~ snd-buffer;
#X obj 911 368 / 1000;
#X obj 911 342 samplerate~;
#X obj 879 316 t f b;
#X obj 257 527 s base-time;
#X obj 101 199 r base-time;
#X floatatom 879 426 10 0 0 0 - - - 0;
#X obj 911 481 s smp;
#X obj 880 575 s play;
#X obj 35 202 r play;
#X obj 275 222 t b f;
#X obj 422 219 t b f;
#X obj 132 142 s snd-buffer;
#X obj 132 88 * 20;
#X obj 132 61 samplerate~;
#X msg 132 115 resize \$1;
#X obj 35 344 pack f f f;
#X text 169 89 buffer size (secs);
#X msg 34 66 1;
#X obj 879 452 t b f;
#X obj 35 590 *~;
#X obj 820 257 s recording;
#X obj 843 230 s stop_rec;
#X obj 112 487 r recording;
#X obj 123 532 r stop_rec;
#X msg 112 509 0;
#X msg 123 554 1;
#X obj 736 91 t f b;
#X obj 737 161 readsf~;
#X obj 788 42 t f f;
#X obj 749 222 dac~;
#X obj 880 550 delay 2000;
#X obj 120 358 vline~;
#X msg 120 326 0 \, 1 \$1;
#X msg 159 405 5;
#N canvas 236 122 209 300 env 0;
#X obj 40 64 -~ 0.5;
#X obj 40 156 clip~ -0.5 0.5;
#X obj 40 133 *~ 1;
#X obj 40 179 cos~;
#X obj 40 87 wrap~;
#X obj 40 110 -~ 0.5;
#X obj 40 227 *~ -0.5;
#X obj 40 202 -~ 1;
#X obj 40 41 inlet~;
#X obj 40 250 outlet~;
#X obj 103 42 inlet;
#X text 105 20 sharpness;
#X text 40 20 phasor;
#X obj 102 106 max 1;
#X connect 0 0 4 0;
#X connect 1 0 3 0;
#X connect 2 0 1 0;
#X connect 3 0 7 0;
#X connect 4 0 5 0;
#X connect 5 0 2 0;
#X connect 6 0 9 0;
#X connect 7 0 6 0;
#X connect 8 0 0 0;
#X connect 10 0 13 0;
#X connect 13 0 2 1;
#X restore 120 430 pd env;
#X obj 159 382 loadbang;
#X msg 34 100 \; pd dsp \$1 \; set-end \$1 \; set-freq 0 \;;
#X msg 768 119 open ../Sounds/1-4.wav;
#X text 331 24 Recording soundfile in buffer with delayed and transposed playback of parts of the sample using [vline~];
#X obj 947 522 nbx 5 17 -1e+37 1e+37 0 0 empty empty empty 0 -10 0 12 #00ff04 #ff0400 #000000 0 256;
#X text 780 520 Delay playback - - - ->;
#X text 64 629 Delayed playback;
#X connect 0 0 1 0;
#X connect 1 0 71 0;
#X connect 3 0 65 0;
#X connect 3 0 69 0;
#X connect 4 0 8 0;
#X connect 5 0 6 0;
#X connect 6 0 9 0;
#X connect 7 0 5 0;
#X connect 8 0 7 0;
#X connect 10 0 20 0;
#X connect 11 0 17 0;
#X connect 13 0 12 0;
#X connect 14 0 18 0;
#X connect 15 0 21 0;
#X connect 16 0 55 0;
#X connect 17 0 13 0;
#X connect 19 0 41 0;
#X connect 20 0 11 0;
#X connect 21 0 29 0;
#X connect 22 0 61 0;
#X connect 23 0 62 0;
#X connect 24 0 25 1;
#X connect 25 0 16 0;
#X connect 26 0 39 0;
#X connect 26 0 44 0;
#X connect 27 0 0 0;
#X connect 28 0 39 1;
#X connect 29 0 31 0;
#X connect 30 0 32 0;
#X connect 31 0 30 0;
#X connect 33 0 67 1;
#X connect 34 0 38 0;
#X connect 35 0 36 0;
#X connect 36 0 37 0;
#X connect 37 0 14 0;
#X connect 38 0 36 0;
#X connect 38 1 36 1;
#X connect 39 0 67 0;
#X connect 40 0 24 0;
#X connect 41 0 25 0;
#X connect 41 1 40 0;
#X connect 42 0 43 0;
#X connect 43 0 44 0;
#X connect 43 1 44 1;
#X connect 44 0 67 2;
#X connect 44 0 84 0;
#X connect 46 0 80 0;
#X connect 47 0 51 0;
#X connect 47 0 48 0;
#X connect 47 0 72 0;
#X connect 47 1 49 0;
#X connect 47 1 48 1;
#X connect 47 1 73 0;
#X connect 48 0 54 0;
#X connect 49 0 51 0;
#X connect 50 0 57 0;
#X connect 52 0 50 1;
#X connect 53 0 52 0;
#X connect 54 0 50 0;
#X connect 54 1 53 0;
#X connect 56 0 44 0;
#X connect 57 0 70 0;
#X connect 60 0 26 0;
#X connect 61 0 11 0;
#X connect 61 1 11 1;
#X connect 62 0 29 0;
#X connect 62 1 29 1;
#X connect 64 0 66 0;
#X connect 65 0 64 0;
#X connect 66 0 63 0;
#X connect 67 0 27 0;
#X connect 69 0 88 0;
#X connect 70 0 82 0;
#X connect 70 1 58 0;
#X connect 71 0 2 0;
#X connect 71 0 2 1;
#X connect 74 0 76 0;
#X connect 75 0 77 0;
#X connect 76 0 71 1;
#X connect 77 0 71 1;
#X connect 78 0 79 0;
#X connect 78 1 89 0;
#X connect 79 0 51 0;
#X connect 79 0 81 0;
#X connect 79 0 81 1;
#X connect 79 1 46 0;
#X connect 80 0 78 0;
#X connect 80 1 47 0;
#X connect 82 0 59 0;
#X connect 83 0 86 0;
#X connect 84 0 83 0;
#X connect 85 0 86 1;
#X connect 86 0 71 1;
#X connect 87 0 85 0;
#X connect 89 0 79 0;
#X connect 91 0 82 1;
