#N canvas 365 25 649 667 12;
#X floatatom 29 93 6 0 5 0 - transposition - 0;
#N canvas 0 0 450 300 (subpatch) 0;
#X array 1-4-sample 155648 float 0;
#X coords 0 1 155647 -1 250 150 1 0 0;
#X restore 325 454 graph;
#X obj 335 215 soundfiler;
#X obj 101 382 *~;
#X obj 119 438 samphold~;
#X obj 101 464 +~;
#X msg 81 128 set 0.5;
#X text 141 127 set phase (0 to 1);
#X text 124 154 reset phase to 0;
#X obj 35 -27 loop~;
#X text 79 -28 - phase generator for looping samplers;
#X obj 335 82 loadbang;
#X text 80 86 transposition (1 is normal \, 2 is up an octave \, etc), f 27;
#X floatatom 335 242 16 0 0 0 - - - 0;
#X obj 29 128 sig~ 1;
#X obj 101 328 loop~;
#X text 30 9 [loop~] takes input signals to set transposition and window size \, and outputs a phase and a sampled window size. The window size only changes at phase zero crossings and the phase output is adjusted so that changing window size doesn't change the transposition., f 80;
#X obj 101 154 bng 19 250 50 0 empty empty empty 17 7 0 10 #dfdfdf #000000 #000000;
#X obj 101 627 dac~;
#X obj 101 593 hip~ 5;
#X obj 101 518 *~;
#N canvas 0 38 234 400 env 0;
#X obj 56 59 -~ 0.5;
#X obj 56 227 clip~ -0.5 0.5;
#X obj 56 205 *~ 1;
#X obj 56 256 cos~;
#X obj 56 91 wrap~;
#X obj 56 120 -~ 0.5;
#X obj 57 308 *~ -0.5;
#X obj 57 283 -~ 1;
#X floatatom 81 152 0 0 0 0 - - - 0;
#X obj 81 176 max 1;
#X obj 57 332 outlet~;
#X obj 163 26 inlet;
#X obj 55 28 inlet~;
#X connect 0 0 4 0;
#X connect 1 0 3 0;
#X connect 2 0 1 0;
#X connect 3 0 7 0;
#X connect 4 0 5 0;
#X connect 5 0 2 0;
#X connect 6 0 10 0;
#X connect 7 0 6 0;
#X connect 8 0 9 0;
#X connect 9 0 2 1;
#X connect 11 0 8 0;
#X connect 12 0 0 0;
#X restore 202 446 pd env;
#X obj 242 375 loadbang;
#X text 275 400 envelope sharpness;
#X msg 242 399 10;
#X floatatom 133 182 6 0 0 0 - duration - 0;
#X obj 165 232 samplerate~;
#X obj 133 207 t f b;
#X floatatom 151 266 6 0 0 0 - - - 0;
#X obj 133 294 *~;
#X floatatom 147 321 5 0 0 0 - onset - 0;
#X obj 147 347 *~;
#X text 178 345 onset in soundfile (samples);
#X text 190 321 onset in soundfile (seconds);
#X text 144 629 (c) 2024 AChim Bornhoeft (see help file for [loop] );
#X msg 335 187 read -resize ../Sounds/1-4.wav 1-4-sample;
#X obj 101 492 tabread4~ 1-4-sample;
#X msg 349 116 \; duration 1.9 \; onset 0.8 \; transposition 1;
#X floatatom 242 423 5 0 0 0 - - - 0;
#X obj 119 545 tgl 19 0 empty empty empty 0 -10 0 12 #fcfcfc #000000 #000000 0 0.25;
#X obj 101 569 *~;
#X text 180 181 loop duration (secs);
#X text 172 295 right signal input = window size in samples;
#X connect 0 0 14 0;
#X connect 2 0 13 0;
#X connect 3 0 5 0;
#X connect 4 0 5 1;
#X connect 5 0 36 0;
#X connect 6 0 15 0;
#X connect 11 0 35 0;
#X connect 11 0 37 0;
#X connect 14 0 15 0;
#X connect 15 0 3 0;
#X connect 15 0 4 1;
#X connect 15 0 21 0;
#X connect 15 1 3 1;
#X connect 17 0 15 0;
#X connect 19 0 18 0;
#X connect 19 0 18 1;
#X connect 20 0 40 0;
#X connect 21 0 20 1;
#X connect 22 0 24 0;
#X connect 24 0 38 0;
#X connect 25 0 27 0;
#X connect 26 0 31 1;
#X connect 26 0 28 0;
#X connect 27 0 29 0;
#X connect 27 1 26 0;
#X connect 28 0 29 1;
#X connect 29 0 15 1;
#X connect 30 0 31 0;
#X connect 31 0 4 0;
#X connect 35 0 2 0;
#X connect 36 0 20 0;
#X connect 38 0 21 1;
#X connect 39 0 40 1;
#X connect 40 0 19 0;
#X coords 0 12673 10 12654 0 0 0;
