#N canvas 337 38 666 717 12;
#X text 35 35 Cut up Audio;
#N canvas 0 22 450 278 (subpatch) 0;
#X array sampleData 169413 float 2;
#X coords 0 1 169413 -1 200 140 1;
#X restore 389 87 graph;
#X obj 180 32 bng 19 250 50 0 empty empty empty 0 -10 0 12 #00ff04 #ff0400 #000000;
#X obj 180 56 openpanel;
#X msg 180 80 read -resize \$1 sampleData;
#X obj 180 140 soundfiler;
#X floatatom 180 164 7 0 0 0 - - - 0;
#X msg 134 526 \$1 \, \$2 \$3;
#X obj 134 552 vline~;
#X obj 134 579 tabread~ sampleData;
#X obj 134 630 *~ 0.6;
#X obj 134 664 dac~;
#X obj 176 604 hsl 162 19 0 1 0 0 empty empty empty -2 -10 0 12 #00ff04 #ff0400 #000000 0 1;
#X obj 217 418 / 44.1;
#X obj 134 500 pack f f f, f 12;
#X obj 180 191 t b f, f 7;
#X obj 219 298 expr $f2 / $f1;
#X floatatom 219 322 14 0 0 0 - - - 0;
#X obj 180 268 t f f, f 6;
#X obj 134 307 random, f 7;
#X obj 134 278 metro;
#X obj 134 252 bng 19 250 50 0 empty empty empty 0 -10 0 12 #00ff04 #ff0400 #000000;
#X obj 173 442 + 1;
#X obj 134 373 t f f, f 6;
#X text 232 241 < --- set number of slices;
#X obj 134 442 *;
#X obj 173 469 *;
#X obj 180 241 nbx 3 17 1 32 0 0 empty \$0-seg-no empty 0 -10 0 12 #00ff04 #ff0400 #000000 0 256;
#X text 326 299 length of segments (samples);
#X text 270 418 length of segments (msecs);
#X floatatom 134 349 5 0 0 0 - - - 0;
#X text 39 349 segment no.;
#X text 21 279 segment length;
#N canvas 92 130 418 221 init 0;
#X obj 59 37 loadbang;
#X msg 80 71 read -resize ../Sounds/1-4.wav sampleData;
#X obj 80 101 s sample-array;
#X msg 59 133 4;
#X obj 59 161 s \$0-seg-no;
#X connect 0 0 1 0;
#X connect 0 0 3 0;
#X connect 1 0 2 0;
#X connect 3 0 4 0;
#X restore 37 70 pd init;
#X obj 191 108 r sample-array;
#X text 18 437 segment start time (samples), f 14;
#X text 204 470 < - end time \, no of segments + 1 * segment length (samples), f 61;
#X text 211 525 start \, end / time (msecs);
#X text 246 640 (c) 2021 \, Andrew R. Brown \; https://youtu.be/mNjTeWZa0m4?si=I8-6eWPXZyc_1LTK;
#X connect 2 0 3 0;
#X connect 3 0 4 0;
#X connect 4 0 5 0;
#X connect 5 0 6 0;
#X connect 6 0 15 0;
#X connect 7 0 8 0;
#X connect 8 0 9 0;
#X connect 9 0 10 0;
#X connect 10 0 11 0;
#X connect 10 0 11 1;
#X connect 12 0 10 1;
#X connect 13 0 14 2;
#X connect 13 0 20 1;
#X connect 14 0 7 0;
#X connect 15 0 27 0;
#X connect 15 1 16 1;
#X connect 16 0 17 0;
#X connect 17 0 13 0;
#X connect 17 0 25 1;
#X connect 17 0 26 1;
#X connect 18 0 19 1;
#X connect 18 1 16 0;
#X connect 19 0 30 0;
#X connect 20 0 19 0;
#X connect 21 0 20 0;
#X connect 22 0 26 0;
#X connect 23 0 25 0;
#X connect 23 1 22 0;
#X connect 25 0 14 0;
#X connect 26 0 14 1;
#X connect 27 0 18 0;
#X connect 30 0 23 0;
#X connect 34 0 5 0;
