#N canvas 813 243 711 589 12;
#X msg 176 449 stop;
#X obj 176 415 bng 19 250 50 0 empty empty empty 17 7 0 10 #dfdfdf #000000 #000000;
#X obj 176 342 trigger float float bang, f 25;
#X msg 262 423 fast-forward \$1;
#X obj 262 456 send pd;
#X obj 176 380 delay;
#X floatatom 176 311 5 0 8000 0 - - - 0;
#X text 79 311 milliseconds:;
#X text 63 380 sends a bang after the time amount, f 12;
#X text 399 415 tells pd to 'fast-forward' and render a given amount of time in ms, f 35;
#X obj 348 551 tabwrite~ fast-forward;
#X msg 176 268 6000;
#N canvas 92 117 450 278 (subpatch) 0;
#X array fast-forward 441000 float 2;
#X coords 0 1 441000 -1 250 120 1 0 0;
#X restore 411 209 graph;
#X obj 371 457 noise~;
#X obj 371 516 *~;
#X obj 389 487 osc~ 0.2;
#X text 479 335 --- 10 sec ---;
#X text 60 24 Pd is mostly used to generate and process things in realtime \, nonetheless \, the "fast-forward" message allows you to 'render' an amount of audio faster than realtime (and as fast as your process can handle) - this is also called 'batch processing'. In this example we use it to record 6 seconds of amplitude modulation white noise into an array., f 76;
#X text 60 107 This is very useful if you want to process a pre recorded audio in a Pd patch or to generate an audio file with a generative (or automated) patch. You can also use [soundfiler] to export to a sound file or directly use [writesf~] instead. The 'fast-forward' message takes a time in milliseconds to fast forward to. Check the example, f 76;
#X msg 62 240 \; pd dsp \$1;
#X text 88 211 <-- DSP on/off (make sure it is on);
#X text 216 266 <-- time amount to render (6 seconds), f 19;
#X text 219 310 <-- set other lengths;
#X text 376 422 <--;
#X text 423 457 <-- white noise generator;
#X text 75 450 stops the --> recording, f 13;
#X text 150 381 -->;
#X text 406 516 <-- amplitude modulation;
#X obj 62 211 tgl 19 0 empty empty empty 0 -10 0 12 #00ff04 #000000 #000000 0 1;
#X text 439 369 <-- start recording from second 2 into the table, f 27;
#X msg 348 371 start 88200;
#X text 513 552 <- records to the array;
#N canvas 268 492 368 352 with 0;
#X msg 27 158 stop;
#X obj 27 124 bng 19 250 50 0 empty empty empty 17 7 0 10 #dfdfdf #000000 #000000;
#X msg 93 83 fast-forward \$1;
#X obj 93 111 send pd;
#X obj 27 89 delay;
#X obj 84 195 *~;
#X obj 27 22 inlet;
#X obj 84 141 osc~ 100;
#X obj 102 166 osc~ 10;
#X obj 27 51 trigger float float bang bang;
#X obj 160 319 writesf~;
#X msg 227 88 open test.wav;
#X msg 160 114 start;
#X connect 0 0 10 0;
#X connect 1 0 0 0;
#X connect 2 0 3 0;
#X connect 4 0 1 0;
#X connect 5 0 10 0;
#X connect 6 0 9 0;
#X connect 7 0 5 0;
#X connect 8 0 5 1;
#X connect 9 0 4 0;
#X connect 9 1 2 0;
#X connect 9 2 12 0;
#X connect 9 3 11 0;
#X connect 11 0 10 0;
#X connect 12 0 10 0;
#X restore 80 547 pd with writesf~;
#X floatatom 80 522 5 0 8000 0 - - - 0;
#X msg 80 498 6000;
#X connect 0 0 10 0;
#X connect 1 0 0 0;
#X connect 2 0 5 0;
#X connect 2 1 3 0;
#X connect 2 2 30 0;
#X connect 3 0 4 0;
#X connect 5 0 1 0;
#X connect 6 0 2 0;
#X connect 11 0 6 0;
#X connect 13 0 14 0;
#X connect 14 0 10 0;
#X connect 15 0 14 1;
#X connect 28 0 19 0;
#X connect 30 0 10 0;
#X connect 33 0 32 0;
#X connect 34 0 33 0;
