#N canvas 71 38 1111 636 10;
#X obj 0 0 cnv 15 160 100 empty \$0-mdtable Mod_Delay_1 18 15 0 12 #b8b8b8 #000000 0;
#X obj 282 522 *~;
#X obj 199 558 +~;
#X obj 480 431 +~;
#X obj 480 343 osc~;
#X obj 480 400 *~;
#X obj 200 151 inlet~;
#X obj 479 588 outlet~;
#X text 199 128 singnal in;
#X text 551 510 (c) 2008 Achim Bornhoeft;
#X obj 839 220 line;
#X obj 645 204 line;
#X obj 834 31 inlet delay-length;
#X obj 642 30 inlet osc-amp (0-1);
#X obj 480 207 line;
#X obj 479 26 inlet osc-freq;
#X obj 298 231 line;
#X obj 301 33 inlet feedback (0-1);
#X obj 835 320 r \$0-del-len-r;
#X obj 665 235 s \$0-osc-amp-s;
#X obj 491 239 s \$0-osc-freq-s;
#X obj 490 316 r \$0-osc-freq-r;
#X obj 318 259 s \$0-feedback-s;
#X obj 320 344 r \$0-feedback-r;
#X obj 479 466 vd~ \$0-delayline;
#X obj 199 589 delwrite~ \$0-delayline 5000;
#X obj 662 311 r \$0-osc-amp-r;
#X obj 839 193 pack;
#X obj 645 177 pack;
#X obj 480 180 pack;
#X obj 298 204 pack;
#X obj 533 103 unpack f f f f f;
#X obj 965 33 inlet paramlist;
#X obj 14 28 hsl 128 15 0 1 0 0 \$0-feedback-r \$0-feedback-s feedback:0 20 8 0 8 #fcfcfc #fc0400 #000000 0 1;
#X obj 14 43 hsl 128 15 1 5000 0 0 \$0-osc-freq-r \$0-osc-freq-s osc-freq:0 20 8 0 8 #fcfcfc #fc0400 #000000 0 1;
#X obj 14 58 hsl 128 15 0 1 0 0 \$0-osc-amp-r \$0-osc-amp-s osc-amp:0 20 8 0 8 #fcfcfc #fc0400 #000000 0 1;
#X obj 14 73 hsl 128 15 1 5000 0 0 \$0-del-len-r \$0-del-len-s del-len:0 20 8 0 8 #fcfcfc #fc0400 #000000 0 1;
#X msg 20 233 label \$1;
#X obj 20 150 loadbang;
#X obj 20 259 s \$0-mdtable;
#X obj 20 207 makefilename Mod_Delay_%i;
#X obj 837 417 line~;
#X obj 837 393 pack f 30;
#X obj 533 77 r \$1-delmod;
#X obj 20 179 int \$1;
#X msg 334 313 label \$1;
#N canvas 0 22 450 300 runden 0;
#X msg 159 115 10;
#X obj 159 92 loadbang;
#X obj 79 120 * 1;
#X obj 79 90 inlet;
#X obj 120 167 / 1;
#X msg 120 145 1;
#X obj 79 145 + 0.5;
#X obj 79 170 div;
#X obj 79 217 outlet;
#X obj 79 193 * 1;
#X obj 159 136 pow 2;
#X connect 0 0 10 0;
#X connect 1 0 0 0;
#X connect 2 0 6 0;
#X connect 3 0 2 0;
#X connect 4 0 9 1;
#X connect 5 0 4 0;
#X connect 6 0 7 0;
#X connect 7 0 9 0;
#X connect 9 0 8 0;
#X connect 10 0 2 1;
#X connect 10 0 4 1;
#X connect 10 0 5 0;
#X restore 332 379 pd runden;
#X obj 334 288 makefilename feedback:%s;
#X msg 517 287 label \$1;
#N canvas 0 22 450 300 runden 0;
#X msg 159 115 10;
#X obj 159 92 loadbang;
#X obj 79 120 * 1;
#X obj 79 90 inlet;
#X obj 120 167 / 1;
#X msg 120 145 1;
#X obj 79 145 + 0.5;
#X obj 79 170 div;
#X obj 79 217 outlet;
#X obj 79 193 * 1;
#X obj 159 136 pow 2;
#X connect 0 0 10 0;
#X connect 1 0 0 0;
#X connect 2 0 6 0;
#X connect 3 0 2 0;
#X connect 4 0 9 1;
#X connect 5 0 4 0;
#X connect 6 0 7 0;
#X connect 7 0 9 0;
#X connect 9 0 8 0;
#X connect 10 0 2 1;
#X connect 10 0 4 1;
#X connect 10 0 5 0;
#X restore 520 347 pd runden;
#X obj 517 264 makefilename osc-freq:%s;
#X msg 677 286 label \$1;
#N canvas 0 22 450 300 runden 0;
#X msg 159 115 10;
#X obj 159 92 loadbang;
#X obj 79 120 * 1;
#X obj 79 90 inlet;
#X obj 120 167 / 1;
#X msg 120 145 1;
#X obj 79 145 + 0.5;
#X obj 79 170 div;
#X obj 79 217 outlet;
#X obj 79 193 * 1;
#X obj 159 136 pow 2;
#X connect 0 0 10 0;
#X connect 1 0 0 0;
#X connect 2 0 6 0;
#X connect 3 0 2 0;
#X connect 4 0 9 1;
#X connect 5 0 4 0;
#X connect 6 0 7 0;
#X connect 7 0 9 0;
#X connect 9 0 8 0;
#X connect 10 0 2 1;
#X connect 10 0 4 1;
#X connect 10 0 5 0;
#X restore 666 345 pd runden;
#X obj 677 256 makefilename osc-amp:%s;
#X msg 856 295 label \$1;
#N canvas 0 22 450 300 runden 0;
#X msg 159 115 10;
#X obj 159 92 loadbang;
#X obj 79 120 * 1;
#X obj 79 90 inlet;
#X obj 120 167 / 1;
#X msg 120 145 1;
#X obj 79 145 + 0.5;
#X obj 79 170 div;
#X obj 79 217 outlet;
#X obj 79 193 * 1;
#X obj 159 136 pow 2;
#X connect 0 0 10 0;
#X connect 1 0 0 0;
#X connect 2 0 6 0;
#X connect 3 0 2 0;
#X connect 4 0 9 1;
#X connect 5 0 4 0;
#X connect 6 0 7 0;
#X connect 7 0 9 0;
#X connect 9 0 8 0;
#X connect 10 0 2 1;
#X connect 10 0 4 1;
#X connect 10 0 5 0;
#X restore 847 353 pd runden;
#X obj 856 273 makefilename del-len:%s;
#X obj 839 246 s \$0-del-len-s;
#X connect 1 0 2 1;
#X connect 2 0 25 0;
#X connect 3 0 24 0;
#X connect 4 0 5 0;
#X connect 5 0 3 0;
#X connect 6 0 2 0;
#X connect 10 0 57 0;
#X connect 11 0 5 1;
#X connect 11 0 19 0;
#X connect 12 0 27 0;
#X connect 13 0 28 0;
#X connect 14 0 4 0;
#X connect 14 0 20 0;
#X connect 15 0 29 0;
#X connect 16 0 22 0;
#X connect 16 0 1 1;
#X connect 17 0 30 0;
#X connect 18 0 42 0;
#X connect 18 0 55 0;
#X connect 21 0 4 0;
#X connect 21 0 49 0;
#X connect 23 0 1 1;
#X connect 23 0 46 0;
#X connect 24 0 1 0;
#X connect 24 0 7 0;
#X connect 26 0 5 1;
#X connect 26 0 52 0;
#X connect 27 0 10 0;
#X connect 28 0 11 0;
#X connect 29 0 14 0;
#X connect 30 0 16 0;
#X connect 31 0 30 0;
#X connect 31 1 29 0;
#X connect 31 2 28 0;
#X connect 31 3 27 0;
#X connect 31 4 27 1;
#X connect 31 4 28 1;
#X connect 31 4 29 1;
#X connect 31 4 30 1;
#X connect 32 0 31 0;
#X connect 37 0 39 0;
#X connect 38 0 44 0;
#X connect 40 0 37 0;
#X connect 41 0 3 1;
#X connect 42 0 41 0;
#X connect 43 0 31 0;
#X connect 44 0 40 0;
#X connect 45 0 22 0;
#X connect 46 0 47 0;
#X connect 47 0 45 0;
#X connect 48 0 20 0;
#X connect 49 0 50 0;
#X connect 50 0 48 0;
#X connect 51 0 19 0;
#X connect 52 0 53 0;
#X connect 53 0 51 0;
#X connect 54 0 57 0;
#X connect 55 0 56 0;
#X connect 56 0 54 0;
#X coords 0 -1 1 1 160 100 2 0 0;
