#N canvas 444 171 357 517 10;
#X obj 81 127 adc~;
#X obj 79 302 dac~;
#X msg 116 -78 0.7 63 0.9 345;
#X text 222 -79 Frösche;
#X msg 140 -56 0.9 28 0.15 71;
#X msg 152 -32 0.9 50 0.5 116;
#X msg 159 -7 0.944 71.84 0.25 28.36;
#X msg 165 22 0.96 1.5 0.13 13.8;
#X msg 174 47 0.98 7.1 0.32 7.5;
#X text 134 308 (c) 2008 Achim Bornhoeft;
#X obj 90 178 delmod 1 1;
#X text 59 -134 modulated delaylines;
#X text 58 -116 creation: [delmod <chan#> <instance#>];
#X obj 119 131 unpack f f f f;
#X msg 179 76 0.81 7.1 0.32 875;
#X connect 0 0 10 0;
#X connect 0 1 10 0;
#X connect 2 0 13 0;
#X connect 4 0 13 0;
#X connect 5 0 13 0;
#X connect 6 0 13 0;
#X connect 7 0 13 0;
#X connect 8 0 13 0;
#X connect 10 0 1 0;
#X connect 10 0 1 1;
#X connect 13 0 10 1;
#X connect 13 1 10 2;
#X connect 13 2 10 3;
#X connect 13 3 10 4;
#X connect 14 0 13 0;
