#N canvas 754 251 616 572 12;
#X text 41 18 space = 1 line forward;
#X text 41 41 backspace = 1 line backward;
#X text 41 64 r = reset to first line;
#X text 39 -14 [qliststep];
#X msg 299 114 label \$1;
#X obj 299 53 symbol \$1;
#X obj 299 85 makefilename %s;
#X msg 300 283 label \$1;
#X obj 300 222 symbol \$1;
#X obj 300 254 makefilename %s;
#X obj 461 319 r #;
#X text 457 294 for comments;
#X text 458 275 recieve dummy;
#X obj 298 23 r \$1-section;
#X obj 299 146 s \$1-section_canvas;
#X obj 299 192 r \$1-cue;
#X obj 300 315 s \$1-cue_canvas;
#X obj 231 505 qlist;
#N canvas 559 74 589 547 line-in-qlist 0;
#X obj 169 201 f 0;
#X obj 243 200 + 1;
#X msg 239 157 0;
#X obj 98 289 spigot;
#X obj 168 243 <;
#X obj 169 290 sel 0;
#N canvas 577 108 470 320 fastmetro 0;
#X obj 101 104 select 0 1;
#X obj 101 53 inlet;
#X obj 101 78 t a a;
#X msg 101 126 stop;
#X obj 100 256 outlet;
#X text 85 24 like [metro] \, only faster;
#X obj 100 212 t b b;
#X obj 130 232 del 0;
#X obj 100 155 del;
#X obj 100 188 spigot;
#X obj 221 126 max 0.01;
#X obj 221 83 loadbang;
#X connect 0 0 3 0;
#X connect 0 1 8 0;
#X connect 1 0 2 0;
#X connect 2 0 0 0;
#X connect 2 1 9 1;
#X connect 3 0 8 0;
#X connect 6 0 4 0;
#X connect 6 1 7 0;
#X connect 7 0 8 0;
#X connect 8 0 9 0;
#X connect 9 0 6 0;
#X connect 10 0 8 1;
#X connect 11 0 10 0;
#X restore 98 144 pd fastmetro;
#X obj 98 419 outlet;
#X obj 98 9 inlet;
#X msg 98 82 1;
#X obj 98 114 tgl 15 0 empty empty empty 0 -6 0 10 #fcfcfc #000000 #000000 0 1;
#X obj 98 46 t b f b;
#X obj 308 160 outlet;
#X obj 152 112 - 1;
#X msg 98 349 next 1;
#X msg 179 348 next;
#X msg 309 129 rewind;
#X obj 308 11 inlet;
#X connect 0 0 1 0;
#X connect 0 0 4 0;
#X connect 1 0 0 1;
#X connect 2 0 0 1;
#X connect 3 0 14 0;
#X connect 4 0 3 1;
#X connect 4 0 5 0;
#X connect 5 0 2 0;
#X connect 5 0 10 0;
#X connect 5 0 15 0;
#X connect 6 0 3 0;
#X connect 6 0 0 0;
#X connect 8 0 11 0;
#X connect 9 0 10 0;
#X connect 10 0 6 0;
#X connect 11 0 9 0;
#X connect 11 1 13 0;
#X connect 11 2 16 0;
#X connect 13 0 4 1;
#X connect 14 0 7 0;
#X connect 15 0 7 0;
#X connect 16 0 12 0;
#X connect 17 0 16 0;
#X restore 52 401 pd line-in-qlist;
#N canvas 14 170 787 581 keystepper 0;
#X text 44 114 space = 1 line forward;
#X text 44 137 backspace = 1 line backward;
#X text 44 160 r = reset to first line;
#X obj 169 497 f;
#X obj 225 23 key;
#X obj 246 496 +;
#X obj 248 271 sel 114 32 8;
#X obj 247 574 outlet;
#X msg 237 320 1;
#X msg 298 320 -1;
#X msg 152 319 0;
#X obj 236 353 t b a;
#X obj 297 353 t b a;
#X floatatom 260 528 5 0 0 0 - - - 0;
#X obj 154 353 t b a b;
#X msg 230 450 1;
#X obj 300 228 inlet;
#X floatatom 225 69 5 0 0 0 - - - 0;
#X obj 269 24 key;
#X obj 269 53 - 48;
#X obj 248 227 *;
#X obj 269 137 ==;
#X obj 270 81 t b f;
#X obj 269 105 f \$1;
#X floatatom 269 161 5 0 0 0 - - - 0;
#X obj 270 192 t b f;
#X obj 130 206 key;
#X floatatom 130 236 5 0 0 0 - - - 0;
#X floatatom 166 533 5 0 0 0 - - - 0;
#X obj 129 266 sel 82 68 83;
#X text 333 110 shift space + number of channel = 1 line forward, f 49;
#X connect 3 0 5 0;
#X connect 3 0 28 0;
#X connect 4 0 17 0;
#X connect 5 0 3 1;
#X connect 5 0 7 0;
#X connect 5 0 13 0;
#X connect 6 0 10 0;
#X connect 6 1 8 0;
#X connect 6 2 9 0;
#X connect 8 0 11 0;
#X connect 9 0 12 0;
#X connect 10 0 14 0;
#X connect 11 0 3 0;
#X connect 11 1 5 1;
#X connect 12 0 3 0;
#X connect 12 1 5 1;
#X connect 14 0 3 0;
#X connect 14 1 3 1;
#X connect 14 2 15 0;
#X connect 15 0 5 1;
#X connect 16 0 6 0;
#X connect 17 0 20 0;
#X connect 18 0 19 0;
#X connect 19 0 22 0;
#X connect 20 0 6 0;
#X connect 21 0 24 0;
#X connect 22 0 23 0;
#X connect 22 1 21 1;
#X connect 23 0 21 0;
#X connect 24 0 25 0;
#X connect 25 0 20 0;
#X connect 25 1 20 1;
#X connect 26 0 27 0;
#X connect 27 0 29 0;
#X connect 29 0 10 0;
#X connect 29 1 8 0;
#X connect 29 2 9 0;
#X restore 51 365 pd keystepper;
#X obj 169 208 loadbang;
#X msg 230 437 read \$1;
#X obj 232 301 sel 113;
#X msg 170 269 114;
#X obj 170 235 t b b;
#X obj 234 245 key;
#X floatatom 233 274 5 0 0 0 - - - 0;
#X obj 40 100 cnv 15 160 100 empty empty Cuelist 50 20 0 14 #b8b8b8 #000000 0;
#X obj 51 336 mod 128;
#X obj 43 132 cnv 15 100 20 empty \$1-section_canvas Section_02 15 12 0 12 #b8b8b8 #000000 0;
#X obj 42 155 cnv 15 100 20 empty \$1-cue_canvas Cue_03 15 12 0 12 #b8b8b8 #000000 0;
#X obj 123 174 nbx 4 20 0 999 0 0 \$0-set-cue-s \$0-set-cue-r Set_Cue 0 -8 0 12 #fcfcfc #000000 #000000 0 256;
#X obj 230 360 f \$1;
#X obj 229 396 makefilename ../qlists/%s-\$2;
#X connect 4 0 14 0;
#X connect 5 0 6 0;
#X connect 6 0 4 0;
#X connect 7 0 16 0;
#X connect 8 0 9 0;
#X connect 9 0 7 0;
#X connect 13 0 5 0;
#X connect 15 0 8 0;
#X connect 17 1 18 1;
#X connect 18 0 17 0;
#X connect 18 1 17 0;
#X connect 19 0 18 0;
#X connect 20 0 24 0;
#X connect 21 0 17 0;
#X connect 22 0 32 0;
#X connect 23 0 19 0;
#X connect 24 0 23 0;
#X connect 24 1 32 0;
#X connect 25 0 26 0;
#X connect 26 0 22 0;
#X connect 31 0 28 0;
#X connect 32 0 33 0;
#X connect 33 0 21 0;
#X coords 0 -1 1 1 160 100 2 40 100;
