#N canvas 613 115 439 393 12;
#X obj 26 14 tgl 15 0 empty empty empty 0 -6 0 8 -262144 -1 -1 0 1
;
#X obj 26 67 float;
#X obj 26 96 + 1;
#X obj 26 124 select 128;
#X msg 26 150 0;
#X obj 103 180 vsl 15 128 0 127 0 0 empty empty empty 0 -8 0 8 -262144
-1 -1 0 1;
#X floatatom 103 318 5 0 0 1 ID_in_array_(x) - -, f 5;
#X floatatom 275 150 5 0 0 0 - - -, f 5;
#X obj 275 178 vsl 15 128 -1 1 0 0 empty empty empty 0 -8 0 8 -262144
-1 -1 0 1;
#X obj 182 42 table mytable 128;
#X obj 103 344 tabread mytable;
#X floatatom 275 319 5 0 0 1 Values_(y) - -, f 5;
#X floatatom 103 153 5 0 0 0 - - -, f 5;
#X obj 26 40 metro 100;
#X connect 0 0 13 0;
#X connect 1 0 2 0;
#X connect 2 0 1 1;
#X connect 2 0 3 0;
#X connect 3 0 4 0;
#X connect 3 1 12 0;
#X connect 4 0 1 1;
#X connect 5 0 6 0;
#X connect 6 0 10 0;
#X connect 7 0 8 0;
#X connect 8 0 11 0;
#X connect 10 0 7 0;
#X connect 12 0 5 0;
#X connect 13 0 1 0;
