#N canvas 180 25 809 826 12;
#X obj 120 367 cnv 15 60 200 empty empty empty 20 12 0 14 #dcdcdc #404040 0;
#X msg 566 235 bang;
#X obj 125 379 rfft~;
#N canvas 0 22 1021 636 (subpatch) 0;
#X array \$0-oneblock 65 float 2;
#X coords 0 1 65 -1 200 140 1 0 0;
#X restore 281 189 graph;
#X msg 281 450 bang;
#X msg 281 395 bang;
#X msg 257 691 bang;
#X obj 125 528 rifft~;
#X obj 187 473 *~;
#X obj 223 474 *~;
#X obj 190 541 sqrt~;
#X msg 210 575 bang;
#X obj 37 151 * 44100;
#X obj 37 180 / 64;
#X floatatom 37 211 7 0 0 0 - - - 0;
#X obj 37 306 tabwrite~ \$0-oneblock;
#X obj 549 209 tabreceive~ \$0-oneblock;
#X obj 126 781 dac~;
#X obj 126 739 *~;
#X obj 147 717 hsl 50 15 0 1 0 0 empty empty empty -2 -8 0 10 #fcfcfc #000000 #000000 0 1;
#X text 328 614 magnitude;
#X text 86 179 block size = bin;
#X text 99 211 frequency (Hz);
#X text 173 663 normalise = / blocksize;
#X obj 549 270 print~ amplitude;
#X obj 281 422 print~ imgaginary;
#X obj 281 478 print~ real;
#X obj 190 613 print~ magnitude;
#X obj 257 724 print~ normalised;
#X text 326 392 imaginary/sine = phase;
#X text 325 453 real/cosine = amplitude;
#X text 47 381 analysis;
#X text 25 528 resynthesis;
#X msg 38 65 1;
#X obj 38 30 loadbang;
#X obj 37 236 t b f;
#X obj 75 265 osc~;
#X obj 125 662 /~ 64;
#X floatatom 38 125 5 0 0 1 frequency_bins - - 0;
#X text 254 751 Normalised amplitude (should be the same as the original)., f 29;
#X text 215 29 The size of the individual sections \, called bins \, is given by the block size. Pd always processes all tasks in blocks. Normally the block size in Pd is 64 samples. Using "print~" shows you all the values in a given block. Frequency in Bins = integer multiple of the block size. 698 Hz is the lowest fundamental possible to be analysed with a block size of 64 If the frequency is not an integer multiple of the bin size the magnitode is spread over several bins.;
#X text 520 387 The Fourier transformation. divides the entire frequency spectrum into parts of equal size and determines the amplitude and phase for each part. One could in turn reconstruct the original signal from these values. The derivation of the component parts is called analysis \; the reconstruction is called resynthesis. You can realize this using the objects "rfft~" and "irfft~", f 34;
#N canvas 752 265 443 120 credits 0;
#X text 20 15 Johannes Kreidler;
#X text 24 40 www.pd-tutorial.com;
#X text 23 66 http://www.pd-tutorial.com/english/ch03s08.html;
#X restore 699 87 pd credits;
#X text 545 296 Amplitude = y values (one block);
#X text 359 663 Usually a normalization process is conducted after a FFT process \, because the amplitude values become fairly high;
#X msg 54 94 2.7;
#X obj 190 513 +~;
#X connect 1 0 24 0;
#X connect 2 0 7 0;
#X connect 2 0 8 0;
#X connect 2 0 8 1;
#X connect 2 0 26 0;
#X connect 2 1 7 1;
#X connect 2 1 9 1;
#X connect 2 1 9 0;
#X connect 2 1 25 0;
#X connect 4 0 26 0;
#X connect 5 0 25 0;
#X connect 6 0 28 0;
#X connect 7 0 37 0;
#X connect 8 0 46 0;
#X connect 9 0 46 1;
#X connect 10 0 27 0;
#X connect 11 0 27 0;
#X connect 12 0 13 0;
#X connect 13 0 14 0;
#X connect 14 0 35 0;
#X connect 16 0 24 0;
#X connect 18 0 17 0;
#X connect 18 0 17 1;
#X connect 19 0 18 1;
#X connect 33 0 38 0;
#X connect 34 0 33 0;
#X connect 35 0 15 0;
#X connect 35 1 36 0;
#X connect 36 0 15 0;
#X connect 36 0 2 0;
#X connect 37 0 18 0;
#X connect 37 0 28 0;
#X connect 38 0 12 0;
#X connect 45 0 38 0;
#X connect 46 0 10 0;
