#N canvas 119 256 530 227 12;
#X text 27 34 FFT with overlapping blocks;
#N canvas 662 261 508 546 FFT 1;
#X floatatom 31 113 5 0 0 0 - - -, f 5;
#X obj 31 139 * 44100;
#X floatatom 31 193 7 0 0 0 - - -, f 7;
#X obj 31 219 osc~;
#X obj 31 301 rfft~;
#X obj 31 274 *~;
#X obj 31 336 *~;
#X obj 68 335 *~;
#X obj 31 376 +~;
#X obj 31 408 sqrt~;
#X obj 31 498 print~;
#X obj 57 473 bng 15 250 50 0 empty empty empty 0 -6 0 8 -262144 -1
-1;
#X obj 52 247 tabreceive~ \$0-hanning;
#X obj 34 54 hsl 128 15 0 4 0 0 empty empty empty -2 -8 0 10 -262144
-1 -1 0 1;
#X msg 56 82 1;
#X text 143 467 normalise: / overlaps * block size / 2;
#X obj 31 15 block~ 512 4;
#X obj 31 165 / 512;
#X text 139 16 block size and number of overlapped windows;
#X obj 214 440 / 768;
#X text 188 439 =;
#X obj 31 440 expr~ $v1/(3*512/2);
#X connect 0 0 1 0;
#X connect 1 0 17 0;
#X connect 2 0 3 0;
#X connect 3 0 5 0;
#X connect 4 0 6 0;
#X connect 4 0 6 1;
#X connect 4 1 7 0;
#X connect 4 1 7 1;
#X connect 5 0 4 0;
#X connect 6 0 8 0;
#X connect 7 0 8 1;
#X connect 8 0 9 0;
#X connect 9 0 21 0;
#X connect 11 0 10 0;
#X connect 12 0 5 1;
#X connect 13 0 0 0;
#X connect 14 0 0 0;
#X connect 17 0 2 0;
#X connect 21 0 10 0;
#X restore 26 157 pd FFT in subpatch;
#N canvas 1073 265 256 531 hanning 0;
#N canvas 0 22 450 300 (subpatch) 0;
#X array \$0-hanning 64 float 0;
#X coords 0 1 63 0 200 140 1 0 0;
#X restore 27 352 graph;
#X obj 56 164 samplerate~;
#X obj 56 190 / 64;
#X obj 56 218 osc~;
#X obj 56 244 *~ -0.5;
#X obj 57 272 +~ 0.5;
#X msg 150 163 0;
#X obj 40 25 loadbang;
#X msg 72 79 \; pd dsp 1 \;;
#X obj 40 123 bng 15 250 50 0 empty empty empty 17 7 0 10 -262144 -1
-1;
#X obj 40 53 t b b;
#X text 64 120 create hanning window;
#X text 117 244 unipolar;
#X text 112 271 shift 90 degrees;
#X obj 40 304 tabwrite~ \$0-hanning;
#X connect 1 0 2 0;
#X connect 2 0 3 0;
#X connect 3 0 4 0;
#X connect 4 0 5 0;
#X connect 5 0 14 0;
#X connect 6 0 3 1;
#X connect 7 0 10 0;
#X connect 9 0 6 0;
#X connect 9 0 1 0;
#X connect 9 0 14 0;
#X connect 10 0 9 0;
#X connect 10 1 8 0;
#X restore 213 158 pd hanning;
#X text 26 72 To further improve the FFT analysis (time vs frequency
resolution) the analysis windows are overlapped.;
#X text 25 110 To control the block size and their overlaps the [block]
object has to be in a subpatch.;
#N canvas 752 265 443 120 credits 0;
#X text 20 15 Johannes Kreidler;
#X text 24 40 www.pd-tutorial.com;
#X text 23 66 http://www.pd-tutorial.com/english/ch03s08.html;
#X restore 337 33 pd credits;
