#N canvas 813 239 445 550 10;
#X obj 75 179 timer;
#X obj 331 209 + 1;
#X obj 239 207 f;
#X obj 77 28 inlet;
#X obj 75 210 int;
#X obj 332 303 outlet;
#X obj 77 85 bang;
#X obj 103 385 outlet;
#X obj 124 405 outlet;
#X obj 147 430 outlet;
#X obj 169 458 outlet;
#X obj 191 482 outlet;
#X obj 236 33 inlet;
#X obj 241 302 outlet;
#X obj 240 250 mod 5;
#X obj 287 302 outlet;
#X obj 287 250 div 5;
#X obj 196 141 t b 0;
#X obj 241 273 + 1;
#X obj 287 276 + 1;
#X text 80 517 (c) 2008 Achim Bornhoeft;
#X obj 205 322 pack;
#X obj 103 358 route 1 2 3 4 5;
#X obj 116 85 bang;
#X obj 77 56 route 0;
#X connect 0 0 4 0;
#X connect 1 0 2 1;
#X connect 1 0 5 0;
#X connect 2 0 1 0;
#X connect 2 0 14 0;
#X connect 2 0 16 0;
#X connect 3 0 24 0;
#X connect 4 0 21 1;
#X connect 6 0 0 0;
#X connect 6 0 17 0;
#X connect 12 0 0 1;
#X connect 12 0 2 0;
#X connect 14 0 18 0;
#X connect 16 0 19 0;
#X connect 17 0 2 0;
#X connect 17 1 2 1;
#X connect 17 1 7 0;
#X connect 17 1 8 0;
#X connect 17 1 9 0;
#X connect 17 1 10 0;
#X connect 17 1 11 0;
#X connect 17 1 21 1;
#X connect 18 0 13 0;
#X connect 18 0 21 0;
#X connect 19 0 15 0;
#X connect 21 0 22 0;
#X connect 22 0 7 0;
#X connect 22 1 8 0;
#X connect 22 2 9 0;
#X connect 22 3 10 0;
#X connect 22 4 11 0;
#X connect 23 0 0 0;
#X connect 24 0 6 0;
#X connect 24 1 23 0;
