#N canvas 1072 460 507 595 10;
#X obj 172 414 qlist;
#N canvas 559 74 585 543 line-in-qlist 0;
#X obj 169 201 f 0;
#X obj 243 200 + 1;
#X msg 239 157 0;
#X obj 98 289 spigot;
#X obj 168 243 <;
#X obj 169 290 sel 0;
#N canvas 577 108 470 320 fastmetro 0;
#X obj 101 104 select 0 1;
#X obj 101 53 inlet;
#X obj 101 78 t a a;
#X msg 101 126 stop;
#X obj 100 256 outlet;
#X text 85 24 like [metro] \, only faster;
#X obj 100 212 t b b;
#X obj 130 232 del 0;
#X obj 100 155 del;
#X obj 100 188 spigot;
#X obj 221 126 max 0.01;
#X obj 221 83 loadbang;
#X connect 0 0 3 0;
#X connect 0 1 8 0;
#X connect 1 0 2 0;
#X connect 2 0 0 0;
#X connect 2 1 9 1;
#X connect 3 0 8 0;
#X connect 6 0 4 0;
#X connect 6 1 7 0;
#X connect 7 0 8 0;
#X connect 8 0 9 0;
#X connect 9 0 6 0;
#X connect 10 0 8 1;
#X connect 11 0 10 0;
#X restore 98 144 pd fastmetro;
#X obj 98 419 outlet;
#X obj 98 9 inlet;
#X msg 98 82 1;
#X obj 98 114 tgl 15 0 empty empty empty 0 -6 0 10 -262144 -1 -1 0
1;
#X obj 98 46 t b f b;
#X obj 308 160 outlet;
#X obj 152 112 - 1;
#X msg 98 349 next 1;
#X msg 179 348 next;
#X msg 309 129 rewind;
#X obj 308 11 inlet;
#X connect 0 0 1 0;
#X connect 0 0 4 0;
#X connect 1 0 0 1;
#X connect 2 0 0 1;
#X connect 3 0 14 0;
#X connect 4 0 3 1;
#X connect 4 0 5 0;
#X connect 5 0 2 0;
#X connect 5 0 10 0;
#X connect 5 0 15 0;
#X connect 6 0 3 0;
#X connect 6 0 0 0;
#X connect 8 0 11 0;
#X connect 9 0 10 0;
#X connect 10 0 6 0;
#X connect 11 0 9 0;
#X connect 11 1 13 0;
#X connect 11 2 16 0;
#X connect 13 0 4 1;
#X connect 14 0 7 0;
#X connect 15 0 7 0;
#X connect 16 0 12 0;
#X connect 17 0 16 0;
#X restore 172 361 pd line-in-qlist;
#X text 234 72 space = 1 line forward;
#X text 234 95 backspace = 1 line backward;
#X text 234 118 r = reset to first line;
#N canvas 403 161 622 456 keystepper 0;
#X text 283 65 space = 1 line forward;
#X text 283 88 backspace = 1 line backward;
#X text 283 111 r = reset to first line;
#X obj 131 323 f;
#X obj 142 21 key;
#X floatatom 142 50 5 0 0 0 - - -, f 5;
#X obj 208 322 +;
#X obj 142 105 sel 114 32 8;
#X obj 33 147 inlet;
#X obj 209 400 outlet;
#X msg 199 146 1;
#X msg 260 146 -1;
#X msg 114 145 0;
#X obj 198 179 t b a;
#X obj 259 179 t b a;
#X floatatom 222 354 5 0 0 0 - - -, f 5;
#X obj 116 179 t b a b;
#X msg 192 276 1;
#X obj 33 180 t b f b;
#X obj 203 29 loadbang;
#X msg 202 55 114;
#X connect 3 0 6 0;
#X connect 4 0 5 0;
#X connect 5 0 7 0;
#X connect 6 0 3 1;
#X connect 6 0 9 0;
#X connect 6 0 15 0;
#X connect 7 0 12 0;
#X connect 7 1 10 0;
#X connect 7 2 11 0;
#X connect 8 0 18 0;
#X connect 10 0 13 0;
#X connect 11 0 14 0;
#X connect 12 0 16 0;
#X connect 13 0 3 0;
#X connect 13 1 6 1;
#X connect 14 0 3 0;
#X connect 14 1 6 1;
#X connect 16 0 3 0;
#X connect 16 1 3 1;
#X connect 16 2 17 0;
#X connect 17 0 6 1;
#X connect 18 0 3 0;
#X connect 18 1 3 1;
#X connect 18 2 17 0;
#X connect 19 0 20 0;
#X connect 20 0 7 0;
#X restore 173 330 pd keystepper;
#X obj 64 290 makefilename %s;
#X obj 63 261 symbol \$1;
#X obj 64 227 loadbang;
#X msg 63 322 read \$1;
#X obj 40 423 r section;
#X msg 41 514 label \$1;
#X obj 41 546 s section_canvas;
#X obj 41 453 symbol \$1;
#X obj 41 485 makefilename %s;
#X msg 278 517 label \$1;
#X obj 278 456 symbol \$1;
#X obj 278 488 makefilename %s;
#X obj 277 426 r cue;
#X obj 278 549 s cue_canvas;
#X obj 40 67 cnv 15 140 100 empty cue_canvas Cue_00 40 20 0 15 -99865
-4034 0;
#X obj 88 115 nbx 3 20 0 999 0 0 \$0-set-cue-r set-cue-s Set 0 30 0
12 -128992 -228856 -228856 0 256;
#X obj 40 10 cnv 15 140 15 empty empty Cuelist 40 8 0 11 -191407 -1
0;
#X obj 354 382 r #;
#X text 350 357 for comments;
#X text 351 338 recieve dummy;
#X obj 197 160 key;
#X floatatom 196 189 5 0 0 0 - - -, f 5;
#X obj 195 216 sel 113;
#X obj 40 167 cnv 15 140 32 empty empty empty 20 25 0 15 -99865 -228856
0;
#N canvas 546 337 430 644 clock 0;
#X obj 125 71 tgl 15 0 empty empty empty 17 7 0 10 -262144 -1 -1 0
1;
#X obj 125 153 f;
#X obj 125 93 t f b;
#X msg 177 119 0;
#X obj 141 358 div 1000;
#X obj 223 358 mod 1000;
#X obj 72 357 div 60000;
#X msg 73 586 label \$1;
#X obj 73 610 s \$0-label;
#N canvas 0 22 450 300 format 0;
#X obj 24 20 inlet;
#X obj 24 224 outlet;
#X obj 91 105 + 1;
#X obj 24 47 t f f;
#X obj 24 171 makefilename 0%d;
#X obj 176 171 makefilename %d;
#X obj 91 80 >= 10;
#N canvas 0 22 450 300 gate2 0;
#X obj 44 237 spigot;
#X obj 44 262 outlet;
#X obj 123 238 spigot;
#X obj 123 263 outlet;
#X obj 21 30 inlet;
#X obj 288 38 inlet;
#X obj 359 129 loadbang;
#X obj 93 194 unpack 0 0;
#X obj 288 62 route 0 1 2;
#X msg 350 95 0 1;
#X msg 319 127 1 0;
#X msg 288 166 0 0;
#X connect 0 0 1 0;
#X connect 2 0 3 0;
#X connect 4 0 0 0;
#X connect 4 0 2 0;
#X connect 5 0 8 0;
#X connect 6 0 11 0;
#X connect 7 0 0 1;
#X connect 7 1 2 1;
#X connect 8 0 11 0;
#X connect 8 1 10 0;
#X connect 8 2 9 0;
#X connect 9 0 7 0;
#X connect 10 0 7 0;
#X connect 11 0 7 0;
#X restore 24 133 pd gate2;
#X connect 0 0 3 0;
#X connect 2 0 7 1;
#X connect 3 0 7 0;
#X connect 3 1 6 0;
#X connect 4 0 1 0;
#X connect 5 0 1 0;
#X connect 6 0 2 0;
#X connect 7 0 4 0;
#X connect 7 1 5 0;
#X restore 142 407 pd format;
#N canvas 0 22 450 300 format 0;
#X obj 24 20 inlet;
#X obj 24 224 outlet;
#X obj 91 105 + 1;
#X obj 24 47 t f f;
#X obj 24 171 makefilename 0%d;
#X obj 176 171 makefilename %d;
#X obj 91 80 >= 10;
#N canvas 0 22 450 300 gate2 0;
#X obj 44 237 spigot;
#X obj 44 262 outlet;
#X obj 123 238 spigot;
#X obj 123 263 outlet;
#X obj 21 30 inlet;
#X obj 288 38 inlet;
#X obj 359 129 loadbang;
#X obj 93 194 unpack 0 0;
#X obj 288 62 route 0 1 2;
#X msg 350 95 0 1;
#X msg 319 127 1 0;
#X msg 288 166 0 0;
#X connect 0 0 1 0;
#X connect 2 0 3 0;
#X connect 4 0 0 0;
#X connect 4 0 2 0;
#X connect 5 0 8 0;
#X connect 6 0 11 0;
#X connect 7 0 0 1;
#X connect 7 1 2 1;
#X connect 8 0 11 0;
#X connect 8 1 10 0;
#X connect 8 2 9 0;
#X connect 9 0 7 0;
#X connect 10 0 7 0;
#X connect 11 0 7 0;
#X restore 24 133 pd gate2;
#X connect 0 0 3 0;
#X connect 2 0 7 1;
#X connect 3 0 7 0;
#X connect 3 1 6 0;
#X connect 4 0 1 0;
#X connect 5 0 1 0;
#X connect 6 0 2 0;
#X connect 7 0 4 0;
#X connect 7 1 5 0;
#X restore 72 406 pd format;
#N canvas 0 22 450 300 format 0;
#X obj 24 20 inlet;
#X obj 24 224 outlet;
#X obj 91 105 + 1;
#X obj 24 47 t f f;
#X obj 24 171 makefilename 0%d;
#X obj 176 171 makefilename %d;
#X obj 91 80 >= 10;
#N canvas 0 22 450 300 gate2 0;
#X obj 44 237 spigot;
#X obj 44 262 outlet;
#X obj 123 238 spigot;
#X obj 123 263 outlet;
#X obj 21 30 inlet;
#X obj 288 38 inlet;
#X obj 359 129 loadbang;
#X obj 93 194 unpack 0 0;
#X obj 288 62 route 0 1 2;
#X msg 350 95 0 1;
#X msg 319 127 1 0;
#X msg 288 166 0 0;
#X connect 0 0 1 0;
#X connect 2 0 3 0;
#X connect 4 0 0 0;
#X connect 4 0 2 0;
#X connect 5 0 8 0;
#X connect 6 0 11 0;
#X connect 7 0 0 1;
#X connect 7 1 2 1;
#X connect 8 0 11 0;
#X connect 8 1 10 0;
#X connect 8 2 9 0;
#X connect 9 0 7 0;
#X connect 10 0 7 0;
#X connect 11 0 7 0;
#X restore 24 133 pd gate2;
#X connect 0 0 3 0;
#X connect 2 0 7 1;
#X connect 3 0 7 0;
#X connect 3 1 6 0;
#X connect 4 0 1 0;
#X connect 5 0 1 0;
#X connect 6 0 2 0;
#X connect 7 0 4 0;
#X connect 7 1 5 0;
#X restore 223 409 pd format;
#X obj 142 384 mod 60;
#X obj 125 291 t f f f b;
#X obj 196 243 sel 1;
#X obj 159 154 + 1;
#X obj 125 120 metro 1;
#X obj 223 383 / 10;
#X obj 196 270 outlet;
#X msg 135 266 0;
#X obj 135 242 loadbang;
#X msg 222 455 set \$1;
#X obj 222 432 makefilename %%s:%s;
#X obj 142 487 makefilename;
#X obj 141 509 makefilename %%s:%s;
#X msg 140 531 set \$1;
#X obj 73 562 makefilename;
#X obj 285 107 loadbang;
#X obj 237 242 spigot;
#X obj 270 154 != 0;
#X obj 270 131 float \$2;
#X obj 196 218 == \$2;
#X obj 124 40 r \$0-st-clock;
#X obj 294 84 tgl 15 0 empty empty empty 17 7 0 10 -262144 -1 -1 0
1;
#X obj 293 189 tgl 15 0 empty empty empty 17 7 0 10 -262144 -1 -1 0
1;
#X obj 270 47 r set-time;
#X obj 220 18 r \$0-interim;
#X obj 220 74 == 0;
#X obj 125 213 spigot;
#X obj 70 20 key;
#X floatatom 70 47 5 0 0 0 - - -, f 5;
#X obj 70 70 sel 83;
#X connect 0 0 2 0;
#X connect 1 0 15 0;
#X connect 1 0 31 0;
#X connect 1 0 38 0;
#X connect 2 0 16 0;
#X connect 2 1 3 0;
#X connect 3 0 1 1;
#X connect 4 0 12 0;
#X connect 5 0 17 0;
#X connect 6 0 10 0;
#X connect 7 0 8 0;
#X connect 9 0 23 0;
#X connect 10 0 26 0;
#X connect 11 0 22 0;
#X connect 12 0 9 0;
#X connect 13 0 6 0;
#X connect 13 1 4 0;
#X connect 13 2 5 0;
#X connect 14 0 18 0;
#X connect 14 0 28 0;
#X connect 15 0 1 1;
#X connect 16 0 1 0;
#X connect 17 0 11 0;
#X connect 19 0 13 0;
#X connect 20 0 19 0;
#X connect 21 0 23 0;
#X connect 22 0 21 0;
#X connect 23 0 24 0;
#X connect 24 0 25 0;
#X connect 25 0 26 0;
#X connect 26 0 7 0;
#X connect 27 0 30 0;
#X connect 27 0 37 0;
#X connect 28 0 0 0;
#X connect 29 0 28 1;
#X connect 29 0 34 0;
#X connect 30 0 29 0;
#X connect 31 0 14 0;
#X connect 32 0 0 0;
#X connect 35 0 30 0;
#X connect 35 0 31 1;
#X connect 35 0 33 0;
#X connect 36 0 37 0;
#X connect 37 0 38 1;
#X connect 38 0 13 0;
#X connect 39 0 40 0;
#X connect 40 0 41 0;
#X connect 41 0 0 0;
#X restore 201 27 pd clock;
#X obj 72 169 cnv 10 65 13 dummy \$0-label 00:00:00 10 8 0 12 -99865
-228856 0;
#X obj 59 169 bng 15 250 50 0 \$0-st-clock st-clock empty 17 7 0 10
-162280 -261234 -1;
#X obj 145 169 tgl 15 0 \$0-interim interim-r empty 17 7 0 10 -162280
-4034 -1 0 1;
#X obj 173 302 r \$0-set-cue-r;
#X obj 201 57 bng 15 250 50 0 empty empty empty 17 7 0 10 -262144 -1
-1;
#X msg 286 181 \; pd-big-clock vis \$1;
#X obj 40 26 cnv 15 140 40 empty section_canvas <<Reset>> 25 25 0 15
-99865 -228856 0;
#X obj 286 153 r \$0-big-clock-vis-s;
#N canvas 386 344 965 726 big-clock 0;
#X obj 2 -4 cnv 15 960 720 empty empty empty 20 25 0 15 -99865 -228856
0;
#X obj 105 321 cnv 50 130 100 empty cue_canvas Cue_00 35 20 0 120 -99865
-4034 0;
#X obj 651 306 nbx 3 80 0 999 0 0 \$0-set-cue-r set-cue-s empty 0 30
0 60 -128992 -228856 -228856 0 256;
#X obj 167 557 cnv 50 65 120 dummy \$0-label 00:00:00 10 8 0 120 -99865
-228856 0;
#X obj 73 538 bng 60 250 50 0 \$0-st-clock st-clock empty 17 7 0 10
-162280 -261234 -1;
#X obj 797 535 tgl 60 0 \$0-interim interim-r empty 17 7 0 10 -162280
-4034 -1 0 1;
#X obj 900 20 tgl 12 0 \$0-big-clock-vis-s \$0-big-clock-vis-r empty
17 7 0 10 -191407 -1 -1 0 1;
#X obj 115 115 cnv 15 130 40 empty section_canvas <<Reset>> 20 25 0
120 -99865 -228856 0;
#X coords 0 -1 1 1 12 12 2 900 20;
#X restore 164 12 pd big-clock;
#X connect 0 1 1 1;
#X connect 1 0 0 0;
#X connect 1 1 0 0;
#X connect 5 0 1 0;
#X connect 6 0 9 0;
#X connect 7 0 6 0;
#X connect 8 0 7 0;
#X connect 9 0 0 0;
#X connect 10 0 13 0;
#X connect 11 0 12 0;
#X connect 13 0 14 0;
#X connect 14 0 11 0;
#X connect 15 0 19 0;
#X connect 16 0 17 0;
#X connect 17 0 15 0;
#X connect 18 0 16 0;
#X connect 26 0 27 0;
#X connect 27 0 28 0;
#X connect 28 0 7 0;
#X connect 30 0 35 0;
#X connect 34 0 5 0;
#X connect 38 0 36 0;
#X coords 0 -1 1 1 140 190 2 40 10;
