#N canvas 703 444 314 357 10;
#X obj 53 58 inlet;
#X text 93 57 line 0-1;
#X obj 53 304 outlet;
#N canvas 0 22 450 300 (subpatch) 0;
#X array \$0-curve 200 float 0;
#X coords 0 1 199 0 50 50 2 0 0;
#X restore 100 100 graph;
#N canvas 786 75 427 417 draw_array 0;
#X msg 54 82 bang;
#X obj 54 103 until;
#X text 85 82 start;
#X obj 54 125 f;
#X obj 83 125 + 1;
#X obj 54 43 loadbang;
#X obj 54 180 trigger float float;
#X obj 127 127 select 0;
#X obj 53 313 tabwrite \$0-curve;
#X obj 138 9 inlet;
#X obj 153 32 send \$0-to-numbox;
#X obj 139 53 trigger bang float;
#X obj 83 147 mod 200;
#X obj 54 257 / 200;
#X text 96 257 mapping output range: 0 to 1;
#N canvas 0 22 491 504 curve 0;
#X obj 116 335 pow 1;
#X obj 72 20 inlet;
#X obj 267 19 inlet;
#X obj 116 415 outlet;
#X obj 281 253 exp;
#X msg 297 187 2;
#X obj 297 208 log;
#X obj 281 231 *;
#X obj 72 258 moses 0;
#X obj 72 293 * -1;
#X obj 72 335 pow 1;
#X obj 72 362 * -1;
#X obj 309 20 loadbang;
#X obj 267 165 t f b;
#X obj 267 129 * 10;
#X text 49 444 (C) Copyright 2004 Hans-Christoph Steiner <hans@at.or.at>
;
#X text 266 458 released under the GNU GPL;
#X obj 267 60 f \$1;
#X connect 0 0 3 0;
#X connect 1 0 8 0;
#X connect 2 0 17 0;
#X connect 4 0 0 1;
#X connect 4 0 10 1;
#X connect 5 0 6 0;
#X connect 6 0 7 1;
#X connect 7 0 4 0;
#X connect 8 0 9 0;
#X connect 8 1 0 0;
#X connect 9 0 10 0;
#X connect 10 0 11 0;
#X connect 11 0 3 0;
#X connect 12 0 17 0;
#X connect 13 0 7 0;
#X connect 13 1 5 0;
#X connect 14 0 13 0;
#X connect 17 0 14 0;
#X restore 54 284 pd curve;
#X connect 0 0 1 0;
#X connect 1 0 3 0;
#X connect 3 0 4 0;
#X connect 3 0 6 0;
#X connect 4 0 12 0;
#X connect 5 0 0 0;
#X connect 6 0 13 0;
#X connect 6 1 8 1;
#X connect 7 0 1 1;
#X connect 9 0 10 0;
#X connect 9 0 11 0;
#X connect 11 0 0 0;
#X connect 11 1 15 1;
#X connect 12 0 3 1;
#X connect 12 0 7 0;
#X connect 13 0 15 0;
#X connect 15 0 8 0;
#X restore 183 186 pd draw_array;
#X floatatom 103 154 8 0 0 0 - - -, f 8;
#X obj 187 134 loadbang;
#X obj 174 160 f \$1;
#X obj 174 57 inlet;
#X obj 173 80 pack 0 10;
#X obj 174 109 line;
#X text 213 58 change curve;
#X text 178 297 doettlinger09;
#N canvas 0 22 491 504 curve 0;
#X obj 116 335 pow 1;
#X obj 72 20 inlet;
#X obj 267 19 inlet;
#X obj 116 415 outlet;
#X obj 281 253 exp;
#X msg 297 187 2;
#X obj 297 208 log;
#X obj 281 231 *;
#X obj 72 258 moses 0;
#X obj 72 293 * -1;
#X obj 72 335 pow 1;
#X obj 72 362 * -1;
#X obj 309 20 loadbang;
#X obj 267 165 t f b;
#X obj 267 129 * 10;
#X text 49 444 (C) Copyright 2004 Hans-Christoph Steiner <hans@at.or.at>
;
#X text 266 458 released under the GNU GPL;
#X obj 267 60 f \$1;
#X connect 0 0 3 0;
#X connect 1 0 8 0;
#X connect 2 0 17 0;
#X connect 4 0 0 1;
#X connect 4 0 10 1;
#X connect 5 0 6 0;
#X connect 6 0 7 1;
#X connect 7 0 4 0;
#X connect 8 0 9 0;
#X connect 8 1 0 0;
#X connect 9 0 10 0;
#X connect 10 0 11 0;
#X connect 11 0 3 0;
#X connect 12 0 17 0;
#X connect 13 0 7 0;
#X connect 13 1 5 0;
#X connect 14 0 13 0;
#X connect 17 0 14 0;
#X restore 53 214 pd curve;
#X text 53 8 arg: curve between -1 and 1 (0 =linear);
#X obj 147 37 r \$1-curved;
#X connect 0 0 13 0;
#X connect 6 0 7 0;
#X connect 7 0 4 0;
#X connect 7 0 5 0;
#X connect 7 0 13 1;
#X connect 8 0 9 0;
#X connect 9 0 10 0;
#X connect 10 0 7 0;
#X connect 13 0 2 0;
#X connect 15 0 9 0;
#X coords 0 357 1 356 50 50 0;
