#N canvas 0 22 450 300 10;
#X obj 155 204 int;
#X obj 155 147 inlet;
#X obj 155 262 outlet;
#X obj 253 17 loadbang;
#X obj 253 179 /;
#X obj 253 117 pow;
#X obj 253 69 t b f;
#X msg 253 92 10;
#X obj 253 153 list prepend 1;
#X obj 253 47 int \$1;
#X obj 155 175 * \$1;
#X obj 155 234 * \$1;
#X obj 321 17 inlet;
#X connect 0 0 11 0;
#X connect 1 0 10 0;
#X connect 3 0 9 0;
#X connect 4 0 11 1;
#X connect 5 0 8 0;
#X connect 5 0 10 1;
#X connect 6 0 7 0;
#X connect 6 1 5 1;
#X connect 7 0 5 0;
#X connect 8 0 4 0;
#X connect 9 0 6 0;
#X connect 10 0 0 0;
#X connect 11 0 2 0;
#X connect 12 0 9 0;
