#N canvas 457 122 288 259 10;
#X obj 95 141 timer;
#X obj 95 115 t b b;
#X floatatom 95 167 5 0 0 0 - - -, f 5;
#X obj 95 61 tgl 15 0 empty empty empty 0 -6 0 8 -262144 -1 -1 0 1
;
#X floatatom 170 61 5 0 0 0 - - -, f 5;
#X obj 95 87 delmetro 0.01;
#X text 95 29 a faster metro;
#X connect 0 0 2 0;
#X connect 1 0 0 0;
#X connect 1 1 0 1;
#X connect 3 0 5 0;
#X connect 4 0 5 1;
#X connect 5 0 1 0;
