#N canvas 0 22 499 410 10;
#X obj 49 51 inlet;
#X obj 73 78 inlet;
#X obj 49 208 outlet;
#X obj 49 182 delay;
#X obj 49 157 random 500;
#X obj 49 130 metro 500;
#X text 104 48 toggle on/off;
#X text 18 11 a random impulse generator ala Supercollider;
#X text 53 260 right out of delay-help.pd;
#X text 53 242 Dan Wilcox 2008;
#X text 114 79 density;
#X text 138 112 low numbers yeild more dust;
#X obj 73 103 moses 0;
#X obj 112 209 outlet;
#X connect 0 0 5 0;
#X connect 1 0 12 0;
#X connect 3 0 2 0;
#X connect 4 0 3 0;
#X connect 4 0 13 0;
#X connect 5 0 4 0;
#X connect 12 1 4 1;
#X connect 12 1 5 1;
