#N canvas 1418 560 301 274 10;
#X obj 113 128 f;
#X obj 141 128 + 1;
#X obj 171 128 mod;
#X floatatom 113 152 5 0 0 0 - - -, f 5;
#X obj 119 178 == 0;
#X obj 86 207 spigot;
#X obj 23 26 inlet;
#X obj 86 230 outlet;
#X obj 186 26 inlet;
#X obj 197 66 loadbang;
#X obj 197 90 f \$1;
#X text 145 227 (c) Achim Bornhoeft 2015;
#X obj 86 89 t a b;
#X obj 23 55 route reset;
#X msg 23 86 0;
#X connect 0 0 1 0;
#X connect 0 0 3 0;
#X connect 1 0 2 0;
#X connect 2 0 0 1;
#X connect 3 0 4 0;
#X connect 4 0 5 1;
#X connect 5 0 7 0;
#X connect 6 0 13 0;
#X connect 8 0 2 1;
#X connect 9 0 10 0;
#X connect 10 0 2 1;
#X connect 12 0 5 0;
#X connect 12 1 0 0;
#X connect 13 0 14 0;
#X connect 13 1 12 0;
#X connect 14 0 0 1;
