#N canvas 543 377 395 308 10;
#X obj 59 165 timer;
#X obj 284 187 + 1;
#X obj 243 187 f;
#X obj 61 18 inlet;
#X obj 196 22 inlet;
#X obj 59 196 int;
#X obj 243 134 t b 0;
#X obj 59 236 outlet;
#X obj 243 234 outlet;
#X obj 60 83 bang;
#X obj 61 42 route start reset;
#X obj 110 82 bang;
#X connect 0 0 5 0;
#X connect 1 0 2 1;
#X connect 2 0 1 0;
#X connect 2 0 8 0;
#X connect 3 0 10 0;
#X connect 4 0 0 1;
#X connect 4 0 2 0;
#X connect 5 0 7 0;
#X connect 6 0 2 0;
#X connect 6 1 2 1;
#X connect 6 1 7 0;
#X connect 9 0 6 0;
#X connect 9 0 0 0;
#X connect 10 0 9 0;
#X connect 10 1 11 0;
#X connect 11 0 0 0;
