#N canvas 168 74 341 311 10;
#X text 81 64 input1;
#X text 126 64 input2;
#X obj 170 83 inlet;
#X text 170 64 toggle;
#X text 65 34 with toggle on it switsches to 2nd input;
#X obj 82 82 inlet;
#X obj 126 82 inlet;
#X text 63 22 switch between two inputs;
#X obj 82 236 spigot;
#X obj 136 189 spigot;
#X obj 199 162 - 1;
#X obj 199 187 abs;
#X obj 134 282 outlet;
#X obj 170 122 f 0;
#X obj 225 77 loadbang;
#X connect 2 0 13 0;
#X connect 5 0 8 0;
#X connect 6 0 9 0;
#X connect 8 0 12 0;
#X connect 9 0 12 0;
#X connect 10 0 11 0;
#X connect 11 0 8 1;
#X connect 13 0 10 0;
#X connect 13 0 9 1;
#X connect 14 0 13 0;
