#N canvas 377 290 425 491 10;
#X text 21 427 for name see: http://de.wikipedia.org/wiki/Instinkttheorie
;
#X obj 140 345 bng 15 250 50 0 empty empty empty 17 7 0 10 -262144
-1 -1;
#X floatatom 82 274 4 0 0 0 - low -, f 4;
#X floatatom 110 254 5 0 0 0 - retrig -, f 5;
#X floatatom 52 294 4 0 0 0 - high -, f 4;
#X floatatom 23 346 5 0 0 0 - - -, f 5;
#X obj 224 122 loadbang;
#X obj 24 108 tgl 15 0 empty tgl empty 17 7 0 10 -262144 -1 -1 1 1
;
#X obj 23 166 random 100;
#X obj 59 194 * 10;
#X obj 23 222 pack f f;
#X obj 23 250 line;
#X text 17 409 (c) Achim Bornhoeft 2009 / 2015;
#X obj 140 295 tgl 15 0 empty empty empty 17 7 0 10 -262144 -1 -1 0
1;
#X text 21 24 [konrad] threshold detection;
#X msg 224 148 \; tgl 1 \; high 50 \; low 50 \; retrig 200;
#X text 23 45 args: <thres high> (0 - 100) \, <thres low> (0 - 100)
\, <retrigger> (0 - 1000 msec) \, <bang on thres low> (0 or 1) \, <gui
on/off> (0: no gui \, 1: gop \, 2: gop without object names and arguments.
;
#X obj 23 321 konrad 1 50 50 200 0;
#X obj 24 138 metro 2000;
#X obj 223 243 konrad-gui 1;
#X connect 2 0 17 2;
#X connect 3 0 17 3;
#X connect 4 0 17 1;
#X connect 6 0 15 0;
#X connect 7 0 18 0;
#X connect 8 0 9 0;
#X connect 8 0 10 0;
#X connect 9 0 10 1;
#X connect 9 0 18 1;
#X connect 10 0 11 0;
#X connect 11 0 17 0;
#X connect 13 0 17 4;
#X connect 17 0 5 0;
#X connect 17 1 1 0;
#X connect 18 0 8 0;
#X coords 0 491 1 490 105 39 0;
