#N canvas 304 191 218 226 16;
#X obj 30 148 line;
#X obj 31 49 r \$1;
#X obj 30 176 outlet;
#X obj 105 77 f \$2;
#X obj 105 47 loadbang;
#X obj 31 112 pack f f;
#X connect 0 0 2 0;
#X connect 1 0 5 0;
#X connect 3 0 5 1;
#X connect 4 0 3 0;
#X connect 5 0 0 0;
