#N canvas 515 140 732 221 12;
#X symbolatom 334 140 30 0 0 0 - - -, f 30;
#X obj 205 21 bng 15 250 50 0 empty empty empty 17 7 0 10 -262144 -1
-1;
#X obj 205 53 f;
#X obj 245 53 + 1;
#X obj 334 110 make_pathname ../snd floete;
#X text 560 111 args: path name;
#X text 294 54 (c) 2014 Achim Bornhoeft;
#X symbolatom 41 140 30 0 0 0 - - -, f 30;
#X obj 41 111 makefilename ../snd/%d-floete.aiff;
#X connect 1 0 2 0;
#X connect 2 0 3 0;
#X connect 2 0 4 0;
#X connect 2 0 8 0;
#X connect 3 0 2 1;
#X connect 4 0 0 0;
#X connect 8 0 7 0;
