#N canvas 168 74 371 341 10;
#X text 99 82 input1;
#X obj 209 98 inlet;
#X text 209 79 toggle;
#X text 65 34 with toggle on it switsches to 2nd input;
#X obj 100 100 inlet;
#X obj 99 231 spigot;
#X obj 193 232 spigot;
#X obj 132 176 - 1;
#X obj 132 202 abs;
#X obj 194 295 outlet;
#X obj 209 135 f 0;
#X obj 262 92 loadbang;
#X obj 99 297 outlet;
#X text 63 22 switch between two outputs;
#X connect 1 0 10 0;
#X connect 4 0 5 0;
#X connect 4 0 6 0;
#X connect 5 0 12 0;
#X connect 6 0 9 0;
#X connect 7 0 8 0;
#X connect 8 0 5 1;
#X connect 10 0 7 0;
#X connect 10 0 6 1;
#X connect 11 0 10 0;
