#N canvas 199 529 341 511 10;
#X obj 75 99 inlet~;
#X text 75 81 input1;
#X obj 105 405 *~;
#X obj 192 408 *~;
#X obj 123 98 inlet;
#X text 123 79 toggle;
#X obj 192 430 outlet~;
#X obj 105 430 outlet~;
#X text 64 21 switch between two audio outputs;
#X text 65 34 with toggle on it switsches to 2nd output;
#X obj 207 316 line~;
#X obj 207 344 cos~;
#X obj 124 314 line~;
#X obj 124 342 cos~;
#X obj 123 288 pack;
#X obj 122 233 t f b;
#X obj 207 289 pack;
#X obj 207 261 - 0.25;
#X obj 205 233 t f b;
#X obj 122 183 / 4;
#X obj 122 156 line;
#X msg 166 260 5;
#X msg 257 262 5;
#X connect 0 0 2 0;
#X connect 0 0 3 0;
#X connect 2 0 7 0;
#X connect 3 0 6 0;
#X connect 4 0 20 0;
#X connect 10 0 11 0;
#X connect 11 0 3 1;
#X connect 12 0 13 0;
#X connect 13 0 2 1;
#X connect 14 0 12 0;
#X connect 15 0 14 0;
#X connect 15 1 21 0;
#X connect 16 0 10 0;
#X connect 17 0 16 0;
#X connect 18 0 17 0;
#X connect 18 1 22 0;
#X connect 19 0 15 0;
#X connect 19 0 18 0;
#X connect 20 0 19 0;
#X connect 21 0 14 1;
#X connect 22 0 16 1;
