#N canvas 408 346 359 523 10;
#X msg 237 129 \; pd dsp 1;
#X msg 98 154 0;
#X obj 101 50 hsl 128 15 0 1 0 0 empty empty empty -2 -8 0 10 -262144
-1 -1 0 1;
#X obj 98 120 t b f;
#X text 169 70 phase 0-360 degrees;
#N canvas 464 140 266 176 META 0;
#X text 12 25 LICENSE GPL v2;
#X text 12 5 KEYWORDS phase;
#X text 12 75 INLET_0 Input 1;
#X text 12 95 INLET_1 Input 2;
#X text 12 45 DESCRIPTION phase difference meter;
#X text 12 115 AUTHOR Whale-av;
#X msg 16 141 0.43.4-extended;
#X restore 251 472 pd META;
#X obj 154 93 * 360;
#X floatatom 154 235 5 0 0 0 - - -, f 5;
#X obj 52 258 phase_meter;
#X obj 53 193 osc~ 100;
#X obj 246 193 osc~ 100;
#X obj 237 104 loadbang;
#X connect 1 0 9 1;
#X connect 2 0 3 0;
#X connect 2 0 6 0;
#X connect 3 0 1 0;
#X connect 3 1 10 1;
#X connect 6 0 7 0;
#X connect 9 0 8 0;
#X connect 10 0 8 1;
#X connect 11 0 0 0;
