#N canvas 396 292 484 330 10;
#X floatatom 25 108 5 0 0 0 - - -;
#X obj 25 185 mtof;
#X text 73 36 audio input;
#X obj 25 80 fiddle~ 1024;
#X text 116 79 fiddle~ is for fundamental frequency estimation;
#X text 66 108 output is in midi note numbers: use mtof to convert
to hertz;
#X obj 96 158 int;
#X text 247 184 midi frequency truncated;
#X obj 25 37 inlet~;
#X obj 96 187 outlet;
#X obj 148 186 s \$1-freq-midi;
#X obj 25 228 outlet;
#X obj 82 229 s \$1-freq-hz;
#X text 171 229 frequency in herz;
#X connect 0 0 1 0;
#X connect 0 0 6 0;
#X connect 1 0 11 0;
#X connect 1 0 12 0;
#X connect 3 0 0 0;
#X connect 6 0 9 0;
#X connect 6 0 10 0;
#X connect 8 0 3 0;
