#N canvas 396 292 371 277 10;
#X obj 32 29 pitch_tracking;
#X obj 34 88 adc~;
#X obj 34 134 pitch_tracking 1;
#X text 146 135 arg 1: identifier for sends;
#X floatatom 34 187 5 0 0 0 - - -;
#X floatatom 127 164 5 0 0 0 - - -;
#X text 163 163 coerced midi frequency;
#X text 76 186 frequency in hz;
#X text 35 229 (c) 2008 Achim Bornhoeft;
#X connect 1 0 2 0;
#X connect 2 0 4 0;
#X connect 2 1 5 0;
