#N canvas 733 72 635 455 10;
#X msg 35 62 1-4.wav;
#X msg 117 173 10;
#X msg 76 121 20;
#X msg 86 148 1 200;
#X msg 127 202 0 200;
#X floatatom 158 228 5 0 1 0 - - -, f 5;
#X text 136 147 immediately ramp up (msec);
#X text 116 122 set ramp up at the beginning of the soundfile (msec)
;
#X text 176 203 immediately ramp down (msec);
#X text 206 227 overall amplitude;
#X msg 169 254 0.2 1000;
#X text 250 253 change to amplitude in msecs;
#X msg 467 69 \; pd dsp \$1;
#X obj 467 45 tgl 15 0 empty empty empty 17 7 0 10 -262144 -1 -1 1
1;
#X text 245 278 starttime (msec);
#X obj 35 358 throw~ \$0-dac;
#X obj 493 328 catch~ \$0-dac;
#X obj 482 365 dac~;
#X text 282 300 duration (msec);
#N canvas 1159 516 685 562 examples 0;
#X obj 26 67 throw~ \$0-dac;
#X msg 25 9 1-4.wav;
#X obj 25 238 throw~ \$0-dac;
#X msg 24 180 1-4.wav;
#X obj 26 327 throw~ \$0-dac;
#X obj 26 414 throw~ \$0-dac;
#X obj 32 499 throw~ \$0-dac;
#X obj 27 152 throw~ \$0-dac;
#X msg 26 94 1-4.wav;
#X text 145 384 Sound is started at 700 milliseconds and played to
the end without ramps and a general dynamic of 1;
#X text 141 298 Sound is played completely without ramps and a general
dynamic of 0.25.;
#X text 135 203 Sound is played completely with a fadein of 500 milliseconds
and a fadeout of 3000 milliseconds.;
#X text 112 117 Sound is played completely with a fadein of 2000 milliseconds.
;
#X text 82 39 Sound is played completely without ramps.;
#X text 168 467 Sound is started at the beginning and played 2500 milliseconds
without ramps and a general dynamic of 1;
#X msg 25 269 1-4.wav;
#X msg 33 446 1-4.wav;
#X msg 26 361 1-4.wav;
#X obj 25 209 playhd~ 500 3000;
#X obj 26 38 playhd~;
#X obj 27 123 playhd~ 2000;
#X obj 32 472 playhd~ 0 0 1 0 2500;
#X obj 26 298 playhd~ 0 0 0.25;
#X obj 26 388 playhd~ 0 0 1 700;
#X connect 1 0 19 0;
#X connect 3 0 18 0;
#X connect 8 0 20 0;
#X connect 15 0 22 0;
#X connect 16 0 21 0;
#X connect 17 0 23 0;
#X connect 18 0 2 0;
#X connect 19 0 0 0;
#X connect 20 0 7 0;
#X connect 21 0 6 0;
#X connect 22 0 4 0;
#X connect 23 0 5 0;
#X restore 329 40 pd examples;
#X msg 240 302 1000;
#X msg 199 279 1700;
#X text 153 174 set ramp down at the end of the soundfile/duration
(msec);
#X obj 467 16 loadbang;
#X text 27 396 (c) 2015 Achim Bornhoeft;
#X text 29 28 soundfile player;
#X text 265 356 arg 2: ramp up (msec);
#X text 265 373 arg 3: ramp down (msec);
#X text 265 390 arg 4: amplitude (0-1);
#X text 265 409 arg 5: starttime (msec);
#X text 265 427 arg 6: duration (msec);
#X text 266 339 arg 1: soundfile path/name;
#X obj 36 328 playhd~ 800 500 1 500 2000;
#X msg 97 61 cl.wav 0 0 1 0 2000;
#X msg 49 92 1-4.wav 1000 1500 1 500 1000;
#X connect 0 0 32 0;
#X connect 1 0 32 2;
#X connect 2 0 32 1;
#X connect 3 0 32 1;
#X connect 4 0 32 2;
#X connect 5 0 32 3;
#X connect 10 0 32 3;
#X connect 13 0 12 0;
#X connect 16 0 17 0;
#X connect 16 0 17 1;
#X connect 20 0 32 5;
#X connect 21 0 32 4;
#X connect 23 0 13 0;
#X connect 32 0 15 0;
#X connect 33 0 32 0;
#X connect 34 0 32 0;
