#N canvas 483 394 302 286 10;
#X floatatom -48 87 5 0 0 0 amplitude-> - -;
#X floatatom 28 69 5 0 0 1 <-phase - -;
#X obj 28 104 t b f;
#X obj -49 172 *;
#X obj -22 132 cos;
#X obj 62 135 sin;
#X obj 50 175 *;
#X obj -48 50 inlet;
#X obj 28 41 inlet;
#X obj -49 216 outlet;
#X obj 50 216 outlet;
#X connect 0 0 3 0;
#X connect 0 0 6 0;
#X connect 1 0 2 0;
#X connect 1 0 4 0;
#X connect 1 0 5 0;
#X connect 2 0 0 0;
#X connect 3 0 9 0;
#X connect 4 0 3 1;
#X connect 5 0 6 1;
#X connect 6 0 10 0;
#X connect 7 0 0 0;
#X connect 8 0 1 0;
