#N canvas 396 284 322 386 10;
#X obj 45 271 moses;
#X obj 213 143 t b f;
#X obj 100 229 -;
#X obj 72 297 moses;
#X obj 176 229 +;
#X obj 229 120 f \$2;
#X obj 46 45 inlet;
#X obj 72 331 outlet;
#X obj 101 47 inlet;
#X text 43 25 values;
#X text 215 25 +/- range;
#X obj 214 46 inlet;
#X obj 100 146 f;
#X text 99 26 control values;
#X obj 122 121 f \$1;
#X obj 155 76 loadbang;
#X text 126 297 (c) 2008 Achim Bornhoeft;
#X connect 0 1 3 0;
#X connect 1 0 2 0;
#X connect 1 0 4 0;
#X connect 1 1 2 1;
#X connect 1 1 4 1;
#X connect 2 0 0 1;
#X connect 3 0 7 0;
#X connect 4 0 3 1;
#X connect 5 0 1 0;
#X connect 6 0 0 0;
#X connect 8 0 12 0;
#X connect 11 0 1 0;
#X connect 12 0 2 0;
#X connect 12 0 4 0;
#X connect 14 0 12 0;
#X connect 15 0 14 0;
#X connect 15 0 5 0;
