#N canvas 402 345 583 387 12;
#X floatatom 57 197 5 0 0 0 - - -, f 5;
#X floatatom 57 310 5 0 0 0 - - -, f 5;
#X msg 222 245 1;
#X msg 139 218 8;
#X obj 57 70 tgl 15 0 empty empty empty 0 -6 0 10 -262144 -1 -1 0 1
;
#X obj 57 171 + 5;
#X obj 57 119 random 1000;
#X obj 57 145 / 100;
#X text 103 195 input values;
#X text 174 218 value passing the gate;
#X text 256 243 +/- range around the passing value;
#X text 228 278 arg 1: passing value \, arg 2: +/- range;
#X text 54 342 (c) 2008 Achim Bornhoeft;
#X obj 106 311 bng 15 250 50 0 empty empty empty 17 7 0 10 -262144
-1 -1;
#X obj 57 94 metro 200;
#X text 54 30 [symmetric_gate]: values passed within a certain range
;
#X obj 57 276 symmetric_gate 10 0.3;
#X connect 0 0 16 0;
#X connect 2 0 16 2;
#X connect 3 0 16 1;
#X connect 4 0 14 0;
#X connect 5 0 0 0;
#X connect 6 0 7 0;
#X connect 7 0 5 0;
#X connect 14 0 6 0;
#X connect 16 0 1 0;
#X connect 16 0 13 0;
