#N canvas 601 360 456 230 10;
#X obj 67 72 bng 15 250 50 0 empty empty empty 17 7 0 10 -262144 -1
-1;
#X obj 142 90 bng 15 250 50 0 empty empty empty 17 7 0 10 -262144 -1
-1;
#X floatatom 67 146 10 0 0 0 - - -, f 10;
#X obj 68 173 bng 15 250 50 0 empty empty empty 17 7 0 10 -262144 -1
-1;
#X obj 67 113 time-interval;
#X obj 97 172 print;
#X text 62 25 Starting (and resetting to 0) with the left bang the
time intervals (msecs) of the right bangs are returned.;
#X connect 0 0 4 0;
#X connect 1 0 4 1;
#X connect 2 0 3 0;
#X connect 2 0 5 0;
#X connect 4 0 2 0;
