#N canvas 344 146 257 369 10;
#X obj 76 52 loadbang;
#X obj 160 26 inlet;
#X obj 43 25 inlet;
#X obj 146 169 sel 1;
#X msg 146 194 0;
#X msg 174 194 1;
#X obj 77 181 f 1;
#X obj 43 245 spigot;
#X obj 160 126 delay;
#X obj 187 99 f \$1;
#X obj 69 304 outlet;
#X obj 42 272 t b a;
#X text 35 337 (c) Achim Bornhoeft 2011;
#X connect 0 0 9 0;
#X connect 0 0 6 0;
#X connect 1 0 8 0;
#X connect 2 0 7 0;
#X connect 3 0 4 0;
#X connect 3 1 5 0;
#X connect 4 0 6 1;
#X connect 5 0 6 1;
#X connect 6 0 3 0;
#X connect 6 0 7 1;
#X connect 7 0 11 0;
#X connect 8 0 6 0;
#X connect 9 0 8 1;
#X connect 11 0 8 0;
#X connect 11 0 6 0;
#X connect 11 1 10 0;
