#N canvas 465 279 208 241 10;
#X obj 90 88 timer;
#X obj 90 115 t f f;
#X obj 75 149 -;
#X obj 75 192 outlet;
#X obj 47 34 inlet;
#X obj 117 34 inlet;
#X msg 47 87 0;
#X connect 0 0 1 0;
#X connect 1 0 2 1;
#X connect 1 1 2 0;
#X connect 2 0 3 0;
#X connect 4 0 0 0;
#X connect 4 0 6 0;
#X connect 5 0 0 1;
#X connect 6 0 2 1;
#X connect 6 0 3 0;
