#N canvas 398 266 383 286 10;
#X msg 29 14 C:/Users/My Folder/Audio File -2.5 2017 2.wav;
#X symbolatom 29 92 50 0 0 0 - - -, f 50;
#X obj 29 39 vl2s;
#X symbolatom 29 234 24 0 0 0 - - -, f 24;
#X msg 29 144 merge this one 1 2 3;
#X text 203 143 delimiter;
#X msg 173 143 -;
#X obj 29 170 vl2s -;
#X obj 45 204 print;
#X obj 44 68 print;
#X connect 0 0 2 0;
#X connect 2 0 1 0;
#X connect 2 0 9 0;
#X connect 4 0 7 0;
#X connect 6 0 7 1;
#X connect 7 0 3 0;
#X connect 7 0 8 0;
