#N canvas 474 109 247 553 10;
#X obj 105 281 list fromsymbol;
#X obj 72 175 list split 1;
#X obj 72 118 until;
#X obj 72 146 list append;
#X obj 188 363 t l;
#X obj 105 363 list prepend;
#X obj 39 390 list append;
#X obj 39 363 spigot;
#X obj 72 332 f 1;
#X obj 105 332 t f b;
#X obj 12 363 f 0;
#X obj 39 414 route bang;
#X obj 96 461 list prepend;
#X obj 96 437 list tosymbol;
#X obj 72 306 sel 32;
#X obj 105 231 list append \$1;
#X obj 105 206 loadbang;
#X obj 33 63 list fromsymbol;
#X obj 33 38 symbol;
#X obj 33 12 inlet;
#X obj 33 484 list append;
#X obj 172 175 bang;
#X obj 33 85 t b b l b, f 20;
#X obj 178 461 t a;
#X obj 33 511 outlet;
#X obj 105 254 route symbol;
#X obj 173 38 symbol;
#X obj 173 12 inlet;
#X connect 0 0 14 1;
#X connect 1 0 14 0;
#X connect 1 1 3 1;
#X connect 1 2 21 0;
#X connect 2 0 3 0;
#X connect 3 0 1 0;
#X connect 4 0 5 1;
#X connect 5 0 4 0;
#X connect 5 0 6 1;
#X connect 6 0 11 0;
#X connect 7 0 6 0;
#X connect 7 0 5 1;
#X connect 7 0 10 0;
#X connect 8 0 7 1;
#X connect 9 0 5 0;
#X connect 9 1 7 0;
#X connect 10 0 7 1;
#X connect 11 1 13 0;
#X connect 12 0 20 1;
#X connect 12 0 23 0;
#X connect 13 0 12 0;
#X connect 14 0 8 0;
#X connect 14 1 9 0;
#X connect 15 0 25 0;
#X connect 16 0 15 0;
#X connect 17 0 22 0;
#X connect 18 0 17 0;
#X connect 19 0 18 0;
#X connect 20 0 24 0;
#X connect 21 0 6 0;
#X connect 21 0 2 1;
#X connect 22 0 20 0;
#X connect 22 1 2 0;
#X connect 22 2 3 1;
#X connect 22 3 5 1;
#X connect 22 3 12 1;
#X connect 22 3 6 1;
#X connect 22 3 20 1;
#X connect 23 0 12 1;
#X connect 25 0 0 0;
#X connect 26 0 0 0;
#X connect 27 0 26 0;
