#N canvas 388 639 282 336 10;
#X obj 123 33 loadbang;
#X floatatom 108 217 5 0 0 0 - - -, f 5;
#X obj 108 188 max;
#X msg 123 160 0;
#X obj 61 246 - 100;
#X obj 106 246 - 100;
#X obj 60 115 env~ 1024;
#X obj 61 275 pack f f;
#X obj 221 56 inlet;
#X obj 135 55 inlet;
#X obj 61 300 outlet;
#X obj 60 58 inlet~;
#X obj 123 90 metro \$1;
#X connect 0 0 12 0;
#X connect 1 0 2 1;
#X connect 1 0 5 0;
#X connect 2 0 1 0;
#X connect 3 0 2 1;
#X connect 4 0 7 0;
#X connect 5 0 7 1;
#X connect 6 0 4 0;
#X connect 6 0 2 0;
#X connect 7 0 10 0;
#X connect 8 0 3 0;
#X connect 9 0 12 0;
#X connect 11 0 6 0;
#X connect 12 0 3 0;
