#N canvas 247 84 833 347 10;
#X msg 109 28 0 0 0 0 0 0 0 0 0 0 0 0 0 0 0 0 0 0 0 0 0;
#X obj -11 11 ptn 0;
#X obj 32 45 s r_row_0;
#X msg 109 45 0 0 0 0 0 0 0 0 0 0 0 0 0 0 0 0 0 0 0 0 0;
#X obj -11 28 ptn 1;
#X obj 32 62 s r_row_1;
#X msg 109 62 0 0 0 0 0 0 0 0 0 0 0 0 0 0 0 0 0 0 0 0 0;
#X msg 109 79 0 0 0 0 0 0 0 0 0 0 0 0 0 0 0 0 0 0 0 0 0;
#X obj 32 79 s r_row_2;
#X obj 32 96 s r_row_3;
#X obj -11 45 ptn 2;
#X obj -11 62 ptn 3;
#X msg 109 96 0 0 0 0 0 0 0 0 0 0 0 0 0 0 0 0 0 0 0 0 0;
#X msg 109 113 0 0 0 0 0 0 0 0 0 0 0 0 0 0 0 0 0 0 0 0 0;
#X msg 109 130 0 0 0 0 0 0 0 0 0 0 0 0 0 0 0 0 0 0 0 0 0;
#X msg 109 147 0 0 0 0 0 0 0 0 0 0 0 0 0 0 0 0 0 0 0 0 0;
#X obj -11 79 ptn 4;
#X obj -11 96 ptn 5;
#X obj -11 113 ptn 6;
#X obj -11 130 ptn 7;
#X obj 32 113 s r_row_4;
#X obj 32 130 s r_row_5;
#X obj 32 147 s r_row_6;
#X obj 32 164 s r_row_7;
#X msg 109 164 0 0 0 0 0 0 0 0 0 0 0 0 0 0 0 0 0 0 0 0 0;
#X msg 109 181 0 0 0 0 0 0 0 0 0 0 0 0 0 0 0 0 0 0 0 0 0;
#X msg 109 198 0 0 0 0 0 0 0 0 0 0 0 0 0 0 0 0 0 0 0 0 0;
#X msg 109 215 0 0 0 0 0 0 0 0 0 0 0 0 0 0 0 0 0 0 0 0 0;
#X msg 109 232 0 0 0 0 0 0 0 0 0 0 0 0 0 0 0 0 0 0 0 0 0;
#X msg 109 249 0 0 0 0 0 0 0 0 0 0 0 0 0 0 0 0 0 0 0 0 0;
#X msg 109 266 0 0 0 0 0 0 0 0 0 0 0 0 0 0 0 0 0 0 0 0 0;
#X msg 109 283 0 0 0 0 0 0 0 0 0 0 0 0 0 0 0 0 0 0 0 0 0;
#X obj -11 147 ptn 8;
#X obj -11 164 ptn 9;
#X obj -11 181 ptn 10;
#X obj -11 198 ptn 11;
#X obj -11 215 ptn 12;
#X obj -11 232 ptn 13;
#X obj -11 249 ptn 14;
#X obj -11 266 ptn 15;
#X obj 32 300 s r_row_15;
#X obj 32 283 s r_row_14;
#X obj 32 266 s r_row_13;
#X obj 32 249 s r_row_12;
#X obj 32 232 s r_row_11;
#X obj 32 215 s r_row_10;
#X obj 32 198 s r_row_9;
#X obj 32 181 s r_row_8;
#N canvas 0 22 450 300 (subpatch) 0;
#X array s_row_0 21 float 3;
#A 0 0 0 0 0 0 0 0 0 0 0 0 0 0 0 0 0 0 0 0 0 0;
#X coords 0 1 21 -1 200 20 1;
#X restore 383 14 graph;
#N canvas 0 22 450 300 (subpatch) 0;
#X array s_row_2 21 float 3;
#A 0 0 0 0 0 0 0 0 0 0 0 0 0 0 0 0 0 0 0 0 0 0;
#X coords 0 1 21 -1 200 20 1;
#X restore 383 55 graph;
#N canvas 0 22 450 300 (subpatch) 0;
#X array s_row_4 21 float 3;
#A 0 0 0 0 0 0 0 0 0 0 0 0 0 0 0 0 0 0 0 0 0 0;
#X coords 0 1 21 -1 200 20 1;
#X restore 383 96 graph;
#N canvas 0 22 450 300 (subpatch) 0;
#X array s_row_6 21 float 3;
#A 0 0 0 0 0 0 0 0 0 0 0 0 0 0 0 0 0 0 0 0 0 0;
#X coords 0 1 21 -1 200 20 1;
#X restore 383 137 graph;
#N canvas 0 22 450 300 (subpatch) 0;
#X array s_row_1 21 float 3;
#A 0 0 0 0 0 0 0 0 0 0 0 0 0 0 0 0 0 0 0 0 0 0;
#X coords 0 1 21 -1 200 20 1;
#X restore 596 15 graph;
#N canvas 0 22 450 300 (subpatch) 0;
#X array s_row_3 21 float 3;
#A 0 0 0 0 0 0 0 0 0 0 0 0 0 0 0 0 0 0 0 0 0 0;
#X coords 0 1 21 -1 200 20 1;
#X restore 596 56 graph;
#N canvas 0 22 450 300 (subpatch) 0;
#X array s_row_5 21 float 3;
#A 0 0 0 0 0 0 0 0 0 0 0 0 0 0 0 0 0 0 0 0 0 0;
#X coords 0 1 21 -1 200 20 1;
#X restore 596 97 graph;
#N canvas 0 22 450 300 (subpatch) 0;
#X array s_row_7 21 float 3;
#A 0 0 0 0 0 0 0 0 0 0 0 0 0 0 0 0 0 0 0 0 0 0;
#X coords 0 1 21 -1 200 20 1;
#X restore 596 138 graph;
#N canvas 0 22 450 300 (subpatch) 0;
#X array s_row_8 21 float 3;
#A 0 0 0 0 0 0 0 0 0 0 0 0 0 0 0 0 0 0 0 0 0 0;
#X coords 0 1 21 -1 200 20 1;
#X restore 383 181 graph;
#N canvas 0 22 450 300 (subpatch) 0;
#X array s_row_10 21 float 3;
#A 0 0 0 0 0 0 0 0 0 0 0 0 0 0 0 0 0 0 0 0 0 0;
#X coords 0 1 21 -1 200 20 1;
#X restore 383 222 graph;
#N canvas 0 22 450 300 (subpatch) 0;
#X array s_row_12 21 float 3;
#A 0 0 0 0 0 0 0 0 0 0 0 0 0 0 0 0 0 0 0 0 0 0;
#X coords 0 1 21 -1 200 20 1;
#X restore 383 263 graph;
#N canvas 0 22 450 300 (subpatch) 0;
#X array s_row_14 21 float 3;
#A 0 0 0 0 0 0 0 0 0 0 0 0 0 0 0 0 0 0 0 0 0 0;
#X coords 0 1 21 -1 200 20 1;
#X restore 383 304 graph;
#N canvas 0 22 450 300 (subpatch) 0;
#X array s_row_9 21 float 3;
#A 0 0 0 0 0 0 0 0 0 0 0 0 0 0 0 0 0 0 0 0 0 0;
#X coords 0 1 21 -1 200 20 1;
#X restore 596 182 graph;
#N canvas 0 22 450 300 (subpatch) 0;
#X array s_row_11 21 float 3;
#A 0 0 0 0 0 0 0 0 0 0 0 0 0 0 0 0 0 0 0 0 0 0;
#X coords 0 1 21 -1 200 20 1;
#X restore 596 223 graph;
#N canvas 0 22 450 300 (subpatch) 0;
#X array s_row_13 21 float 3;
#A 0 0 0 0 0 0 0 0 0 0 0 0 0 0 0 0 0 0 0 0 0 0;
#X coords 0 1 21 -1 200 20 1;
#X restore 596 264 graph;
#N canvas 0 22 450 300 (subpatch) 0;
#X array s_row_15 21 float 3;
#A 0 0 0 0 0 0 0 0 0 0 0 0 0 0 0 0 0 0 0 0 0 0;
#X coords 0 1 21 -1 200 20 1;
#X restore 596 305 graph;
#X connect 0 0 2 0;
#X connect 1 0 0 0;
#X connect 3 0 5 0;
#X connect 4 0 3 0;
#X connect 6 0 8 0;
#X connect 7 0 9 0;
#X connect 10 0 6 0;
#X connect 11 0 7 0;
#X connect 12 0 20 0;
#X connect 13 0 21 0;
#X connect 14 0 22 0;
#X connect 15 0 23 0;
#X connect 16 0 12 0;
#X connect 17 0 13 0;
#X connect 18 0 14 0;
#X connect 19 0 15 0;
#X connect 24 0 47 0;
#X connect 25 0 46 0;
#X connect 26 0 45 0;
#X connect 27 0 44 0;
#X connect 28 0 43 0;
#X connect 29 0 42 0;
#X connect 30 0 41 0;
#X connect 31 0 40 0;
#X connect 32 0 24 0;
#X connect 33 0 25 0;
#X connect 34 0 26 0;
#X connect 35 0 27 0;
#X connect 36 0 28 0;
#X connect 37 0 29 0;
#X connect 38 0 30 0;
#X connect 39 0 31 0;
#X coords 0 0 1 1 250 270 0;
