#N canvas 301 89 651 706 12;
#X floatatom 25 572 5 0 0 0 - - -;
#X floatatom 68 572 5 0 0 0 - - -;
#X floatatom 111 572 5 0 0 0 - - -;
#X floatatom 157 572 5 0 0 0 - - -;
#X floatatom 202 573 5 0 0 0 - - -;
#X floatatom 246 572 5 0 0 0 - - -;
#X floatatom 287 572 5 0 0 0 - - -;
#X floatatom 332 571 5 0 0 0 - - -;
#X msg 22 33 bang;
#X msg 72 214 randfill;
#X msg 87 241 fill 0;
#X msg 103 268 lo 2;
#X msg 111 295 hi 3;
#X msg 123 322 nset 3;
#X text 181 324 set neighbourhood;
#X text 154 296 set high;
#X text 149 267 set low;
#X text 154 241 fill cells with 0;
#X text 148 214 fill cells with random value;
#X msg 36 126 1;
#X text 63 33 calculate next generation and output;
#X text 64 50 bangs on every cell that is alife;
#X text 69 126 calculate next generation and output;
#X text 69 143 1 if cell is alife \, 0 if dead;
#X text 143 409 mlife <number of cells> <view_start>;
#X text 190 424 <view_size> <closed>;
#X text 271 440 closed universe if;
#X text 271 454 <closed> = 1;
#X msg 137 349 randseed 4;
#X text 228 349 seed array with random no.;
#X text 228 375 seed array with a number;
#X msg 152 376 seed 1 4;
#X text 44 5 mlife :: a cellular automata object;
#X obj 24 410 mlife 8 1 8 0;
#N canvas 464 26 494 344 META 0;
#X text 12 155 HELP_PATCH_AUTHORS "pd meta" information added by Jonathan
Wilkes for Pd version 0.42.;
#X text 12 25 LICENSE GPL v2;
#X text 12 135 AUTHOR Olaf Matthes <olaf.matthes@gmx.de>;
#X text 12 5 KEYWORDS control;
#X text 12 45 DESCRIPTION a cellular automata object;
#X text 12 65 INLET_0 bang float randfill fill lo hi nset randseed
seed display;
#X text 12 105 OUTLET_N float;
#X restore 344 11 pd META;
#X obj 33 549 bng 15 250 50 0 empty empty empty 17 7 0 10 -262144 -1
-1;
#X obj 70 550 bng 15 250 50 0 empty empty empty 17 7 0 10 -262144 -1
-1;
#X obj 110 550 bng 15 250 50 0 empty empty empty 17 7 0 10 -262144
-1 -1;
#X obj 157 550 bng 15 250 50 0 empty empty empty 17 7 0 10 -262144
-1 -1;
#X obj 201 550 bng 15 250 50 0 empty empty empty 17 7 0 10 -262144
-1 -1;
#X obj 245 550 bng 15 250 50 0 empty empty empty 17 7 0 10 -262144
-1 -1;
#X obj 286 550 bng 15 250 50 0 empty empty empty 17 7 0 10 -262144
-1 -1;
#X obj 330 549 bng 15 250 50 0 empty empty empty 17 7 0 10 -262144
-1 -1;
#X msg 58 172 display;
#X text 124 189 in Pd console window;
#X text 123 172 display next state of cells;
#X obj 25 600 tgl 15 0 empty empty empty 17 7 0 10 -262144 -1 -1 1
1;
#X obj 68 600 tgl 15 0 empty empty empty 17 7 0 10 -262144 -1 -1 1
1;
#X obj 111 600 tgl 15 0 empty empty empty 17 7 0 10 -262144 -1 -1 0
1;
#X obj 155 600 tgl 15 0 empty empty empty 17 7 0 10 -262144 -1 -1 0
1;
#X obj 202 601 tgl 15 0 empty empty empty 17 7 0 10 -262144 -1 -1 0
1;
#X obj 246 600 tgl 15 0 empty empty empty 17 7 0 10 -262144 -1 -1 1
1;
#X obj 288 599 tgl 15 0 empty empty empty 17 7 0 10 -262144 -1 -1 1
1;
#X obj 332 599 tgl 15 0 empty empty empty 17 7 0 10 -262144 -1 -1 1
1;
#N canvas 0 22 450 278 (subpatch) 0;
#X array array1 8 float 3;
#A 0 1 1 0 0 0 1 1 1;
#X coords 0 1.5 8 -0.5 200 140 1 0 0;
#X restore 417 511 graph;
#X obj 36 72 key;
#X obj 36 99 sel 32;
#X obj 103 638 pack f f f f f f f f;
#N canvas 484 318 261 380 write2array 1;
#X obj 36 24 inlet;
#X obj 143 198 f;
#X obj 185 197 + 1;
#X obj 36 84 list length;
#X obj 160 134 t b;
#X obj 37 270 list split;
#X obj 143 229 t f f;
#X obj 36 119 until;
#X obj 37 192 list;
#X obj 36 51 t l l;
#X floatatom 70 301 5 0 0 0 - - -;
#X msg 161 163 0;
#X obj 70 333 tabwrite array1;
#X connect 0 0 9 0;
#X connect 1 0 2 0;
#X connect 1 0 6 0;
#X connect 2 0 1 1;
#X connect 3 0 4 0;
#X connect 3 0 7 0;
#X connect 4 0 11 0;
#X connect 5 1 10 0;
#X connect 6 0 5 1;
#X connect 6 1 12 1;
#X connect 7 0 1 0;
#X connect 7 0 8 0;
#X connect 8 0 5 0;
#X connect 9 0 3 0;
#X connect 9 1 8 1;
#X connect 10 0 12 0;
#X connect 11 0 1 1;
#X restore 103 666 pd write2array;
#X connect 0 0 46 0;
#X connect 1 0 47 0;
#X connect 2 0 48 0;
#X connect 3 0 49 0;
#X connect 4 0 50 0;
#X connect 5 0 51 0;
#X connect 6 0 52 0;
#X connect 7 0 53 0;
#X connect 8 0 33 0;
#X connect 9 0 33 0;
#X connect 10 0 33 0;
#X connect 11 0 33 0;
#X connect 12 0 33 0;
#X connect 13 0 33 0;
#X connect 19 0 33 0;
#X connect 19 0 43 0;
#X connect 28 0 33 0;
#X connect 31 0 33 0;
#X connect 33 0 0 0;
#X connect 33 0 35 0;
#X connect 33 1 1 0;
#X connect 33 1 36 0;
#X connect 33 2 2 0;
#X connect 33 2 37 0;
#X connect 33 3 3 0;
#X connect 33 3 38 0;
#X connect 33 4 4 0;
#X connect 33 4 39 0;
#X connect 33 5 5 0;
#X connect 33 5 40 0;
#X connect 33 6 6 0;
#X connect 33 6 41 0;
#X connect 33 7 7 0;
#X connect 33 7 42 0;
#X connect 43 0 33 0;
#X connect 46 0 57 0;
#X connect 47 0 57 1;
#X connect 48 0 57 2;
#X connect 49 0 57 3;
#X connect 50 0 57 4;
#X connect 51 0 57 5;
#X connect 52 0 57 6;
#X connect 53 0 57 7;
#X connect 55 0 56 0;
#X connect 56 0 19 0;
#X connect 57 0 58 0;
