#N canvas 95 216 792 382 10;
#X obj 118 278 s s_row_\$1;
#X obj -86 165 bng 8 250 50 0 topack empty empty 17 7 0 5 -262144 -1
-1;
#X obj 47 238 bng 15 250 50 0 empty topack empty 17 7 0 10 -262144
-1 -1;
#X obj -48 166 bng 8 250 50 0 topack empty empty 17 7 0 10 -262144
-1 -1;
#X obj -11 165 bng 8 250 50 0 topack empty empty 17 7 0 10 -262144
-1 -1;
#X obj 26 166 bng 8 250 50 0 topack empty empty 17 7 0 10 -262144 -1
-1;
#X obj 62 168 bng 8 250 50 0 topack empty empty 17 7 0 5 -262144 -1
-1;
#X obj 98 166 bng 8 250 50 0 topack empty empty 17 7 0 10 -262144 -1
-1;
#X obj 134 166 bng 8 250 50 0 topack empty empty 17 7 0 10 -262144
-1 -1;
#X obj 171 167 bng 8 250 50 0 topack empty empty 17 7 0 10 -262144
-1 -1;
#X obj 208 167 bng 8 250 50 0 topack empty empty 17 7 0 5 -262144 -1
-1;
#X obj 245 164 bng 8 250 50 0 topack empty empty 17 7 0 10 -262144
-1 -1;
#X obj 282 168 bng 8 250 50 0 topack empty empty 17 7 0 10 -262144
-1 -1;
#X obj 319 168 bng 8 250 50 0 topack empty empty 17 7 0 10 -262144
-1 -1;
#X obj 358 168 bng 8 250 50 0 topack empty empty 17 7 0 5 -262144 -1
-1;
#X obj 395 167 bng 8 250 50 0 topack empty empty 17 7 0 10 -262144
-1 -1;
#X obj 428 172 bng 8 250 50 0 topack empty empty 17 7 0 10 -262144
-1 -1;
#X obj 465 168 bng 8 250 50 0 topack empty empty 17 7 0 10 -262144
-1 -1;
#X obj 498 164 bng 8 250 50 0 topack empty empty 17 7 0 5 -262144 -1
-1;
#X obj 538 166 bng 8 250 50 0 topack empty empty 17 7 0 10 -262144
-1 -1;
#X obj 574 167 bng 8 250 50 0 topack empty empty 17 7 0 5 -262144 -1
-1;
#X obj 612 166 bng 8 250 50 0 topack empty empty 17 7 0 10 -262144
-1 -1;
#X obj -86 141 t b f;
#X obj -48 141 t b f;
#X obj 612 142 t b f;
#X obj 574 143 t b f;
#X obj 538 142 t b f;
#X obj -11 141 t b f;
#X obj 26 142 t b f;
#X obj 62 141 t b f;
#X obj 501 144 t b f;
#X obj 429 144 t b f;
#X obj 465 144 t b f;
#X obj 394 143 t b f;
#X obj 319 145 t b f;
#X obj 357 144 t b f;
#X obj 282 144 t b f;
#X obj 245 143 t b f;
#X obj 98 142 t b f;
#X obj 134 142 t b f;
#X obj 171 143 t b f;
#X obj 208 143 t b f;
#X obj 118 253 pack 0 f f f f f f f f f f f f f f f f f f f f;
#N canvas 266 22 879 982 ============================= 1;
#N canvas 890 223 550 430 array1 0;
#X floatatom 280 336 5 0 0 0 - - -;
#X obj 280 256 + 1;
#X floatatom 78 336 5 0 0 0 - - -;
#X floatatom 183 336 5 0 0 0 - - -;
#X obj 78 310 tabread s_row_5;
#X obj 183 310 tabread s_row_5;
#X obj 280 310 tabread s_row_5;
#X msg 11 194 set s_row_\$1;
#X obj 78 256 + -1;
#X obj 155 -29 inlet;
#X msg 155 63 -1;
#X msg 189 63 1;
#X obj 155 26 bng 15 250 50 0 empty empty empty 17 7 0 10 -262144 -1
-1;
#X msg 206 129 1;
#X obj 172 92 bng 15 250 50 0 empty empty empty 17 7 0 10 -262144 -1
-1;
#X msg 172 129 19;
#X obj 221 29 bng 15 250 50 0 empty empty empty 17 7 0 10 -262144 -1
-1;
#X msg 254 65 -19;
#X msg 221 65 -1;
#X obj 155 4 sel 0 1 2;
#X obj 312 -28 inlet;
#X obj 78 359 outlet;
#X obj 182 360 outlet;
#X obj 281 359 outlet;
#X floatatom 281 285 5 0 0 0 - - -;
#X floatatom 79 286 5 0 0 0 - - -;
#X floatatom 183 284 5 0 0 0 - - -;
#X obj -1 -11 inlet;
#X obj 0 16 route 0 1 2;
#X floatatom 0 44 5 0 0 0 - - -;
#X floatatom 21 69 5 0 0 0 - - -;
#X floatatom 42 93 5 0 0 0 - - -;
#X floatatom 11 167 5 0 0 0 - - -;
#X floatatom 311 122 5 0 0 0 - - -;
#X connect 0 0 23 0;
#X connect 1 0 24 0;
#X connect 2 0 21 0;
#X connect 3 0 22 0;
#X connect 4 0 2 0;
#X connect 5 0 3 0;
#X connect 6 0 0 0;
#X connect 7 0 4 0;
#X connect 7 0 5 0;
#X connect 7 0 6 0;
#X connect 8 0 25 0;
#X connect 9 0 19 0;
#X connect 10 0 8 1;
#X connect 11 0 1 1;
#X connect 12 0 10 0;
#X connect 12 0 11 0;
#X connect 13 0 1 1;
#X connect 14 0 15 0;
#X connect 14 0 13 0;
#X connect 15 0 8 1;
#X connect 16 0 17 0;
#X connect 16 0 18 0;
#X connect 17 0 1 1;
#X connect 18 0 8 1;
#X connect 19 0 12 0;
#X connect 19 1 14 0;
#X connect 19 2 16 0;
#X connect 20 0 33 0;
#X connect 24 0 6 0;
#X connect 25 0 4 0;
#X connect 26 0 5 0;
#X connect 27 0 28 0;
#X connect 28 0 29 0;
#X connect 28 1 30 0;
#X connect 28 2 31 0;
#X connect 29 0 32 0;
#X connect 30 0 32 0;
#X connect 31 0 32 0;
#X connect 32 0 7 0;
#X connect 33 0 8 0;
#X connect 33 0 26 0;
#X connect 33 0 1 0;
#X restore -20 338 pd array1;
#N canvas 699 205 550 430 array0 0;
#X floatatom 280 336 5 0 0 0 - - -;
#X obj 280 258 + 1;
#X floatatom 78 336 5 0 0 0 - - -;
#X floatatom 183 336 5 0 0 0 - - -;
#X obj 78 310 tabread s_row_5;
#X obj 183 310 tabread s_row_5;
#X obj 280 310 tabread s_row_5;
#X msg 11 194 set s_row_\$1;
#X obj 11 125 - 1;
#X obj 78 258 + -1;
#X obj -11 -21 inlet;
#X obj 155 -29 inlet;
#X msg 155 63 -1;
#X msg 189 63 1;
#X obj 155 26 bng 15 250 50 0 empty empty empty 17 7 0 10 -262144 -1
-1;
#X msg 206 129 1;
#X obj 172 92 bng 15 250 50 0 empty empty empty 17 7 0 10 -262144 -1
-1;
#X msg 172 129 19;
#X obj 221 29 bng 15 250 50 0 empty empty empty 17 7 0 10 -262144 -1
-1;
#X msg 254 65 -19;
#X msg 221 65 -1;
#X obj 155 4 sel 0 1 2;
#X obj 312 -28 inlet;
#X obj 78 367 outlet;
#X obj 182 364 outlet;
#X obj 280 362 outlet;
#X floatatom 11 158 5 0 0 0 - - -;
#X floatatom 312 202 5 0 0 0 - - -;
#X obj -10 6 route 0 1 2;
#X floatatom -10 34 5 0 0 0 - - -;
#X floatatom 11 59 5 0 0 0 - - -;
#X floatatom 32 83 5 0 0 0 - - -;
#X obj -20 125 + 15;
#X floatatom 183 288 5 0 0 0 - - -;
#X floatatom 79 284 5 0 0 0 - - -;
#X floatatom 278 285 5 0 0 0 - - -;
#X connect 0 0 25 0;
#X connect 1 0 35 0;
#X connect 2 0 23 0;
#X connect 3 0 24 0;
#X connect 4 0 2 0;
#X connect 5 0 3 0;
#X connect 6 0 0 0;
#X connect 7 0 4 0;
#X connect 7 0 5 0;
#X connect 7 0 6 0;
#X connect 8 0 26 0;
#X connect 9 0 34 0;
#X connect 10 0 28 0;
#X connect 11 0 21 0;
#X connect 12 0 9 1;
#X connect 13 0 1 1;
#X connect 14 0 12 0;
#X connect 14 0 13 0;
#X connect 15 0 1 1;
#X connect 16 0 17 0;
#X connect 16 0 15 0;
#X connect 17 0 9 1;
#X connect 18 0 19 0;
#X connect 18 0 20 0;
#X connect 19 0 1 1;
#X connect 20 0 9 1;
#X connect 21 0 14 0;
#X connect 21 1 16 0;
#X connect 21 2 18 0;
#X connect 22 0 27 0;
#X connect 26 0 7 0;
#X connect 27 0 1 0;
#X connect 27 0 9 0;
#X connect 27 0 33 0;
#X connect 28 0 29 0;
#X connect 28 1 30 0;
#X connect 28 2 31 0;
#X connect 29 0 32 0;
#X connect 30 0 8 0;
#X connect 31 0 8 0;
#X connect 32 0 26 0;
#X connect 33 0 5 0;
#X connect 34 0 4 0;
#X connect 35 0 6 0;
#X restore -84 337 pd array0;
#N canvas 890 194 550 430 array2 0;
#X floatatom 280 336 5 0 0 0 - - -;
#X obj 280 285 + 1;
#X floatatom 78 336 5 0 0 0 - - -;
#X floatatom 183 336 5 0 0 0 - - -;
#X obj 78 310 tabread s_row_5;
#X obj 183 310 tabread s_row_5;
#X obj 280 310 tabread s_row_5;
#X msg 13 215 set s_row_\$1;
#X obj 78 285 + -1;
#X obj 155 -29 inlet;
#X msg 155 63 -1;
#X msg 189 63 1;
#X obj 155 26 bng 15 250 50 0 empty empty empty 17 7 0 10 -262144 -1
-1;
#X msg 206 129 1;
#X obj 172 92 bng 15 250 50 0 empty empty empty 17 7 0 10 -262144 -1
-1;
#X msg 172 129 19;
#X obj 221 29 bng 15 250 50 0 empty empty empty 17 7 0 10 -262144 -1
-1;
#X msg 254 65 -19;
#X msg 221 65 -1;
#X obj 155 4 sel 0 1 2;
#X obj 312 -28 inlet;
#X obj 11 147 + 1;
#X obj 78 363 outlet;
#X obj 183 360 outlet;
#X obj 280 357 outlet;
#X obj 391 310 outlet;
#X obj -3 20 inlet;
#X obj -2 47 route 0 1 2;
#X floatatom -2 75 5 0 0 0 - - -;
#X floatatom 19 100 5 0 0 0 - - -;
#X floatatom 40 124 5 0 0 0 - - -;
#X obj 41 146 - 15;
#X floatatom 12 174 5 0 0 0 - - -;
#X floatatom 312 142 5 0 0 0 - - -;
#X connect 0 0 24 0;
#X connect 1 0 6 0;
#X connect 2 0 22 0;
#X connect 3 0 23 0;
#X connect 4 0 2 0;
#X connect 5 0 3 0;
#X connect 6 0 0 0;
#X connect 7 0 4 0;
#X connect 7 0 5 0;
#X connect 7 0 6 0;
#X connect 8 0 4 0;
#X connect 9 0 19 0;
#X connect 10 0 8 1;
#X connect 11 0 1 1;
#X connect 12 0 10 0;
#X connect 12 0 11 0;
#X connect 13 0 1 1;
#X connect 14 0 15 0;
#X connect 14 0 13 0;
#X connect 15 0 8 1;
#X connect 16 0 17 0;
#X connect 16 0 18 0;
#X connect 17 0 1 1;
#X connect 18 0 8 1;
#X connect 19 0 12 0;
#X connect 19 1 14 0;
#X connect 19 2 16 0;
#X connect 20 0 33 0;
#X connect 21 0 32 0;
#X connect 26 0 27 0;
#X connect 27 0 28 0;
#X connect 27 1 29 0;
#X connect 27 2 30 0;
#X connect 28 0 21 0;
#X connect 29 0 21 0;
#X connect 30 0 31 0;
#X connect 31 0 32 0;
#X connect 32 0 7 0;
#X connect 33 0 8 0;
#X connect 33 0 5 0;
#X connect 33 0 1 0;
#X connect 33 0 25 0;
#X restore 45 339 pd array2;
#X msg 81 791 0;
#X msg 123 792 1;
#X obj -320 626 demux 0 1 2 3 4 5 6 7 8 9 10 11 12 13 14 15 16 17 18
19;
#X obj -273 769 pack 0 f f f f f f f f f f f f f f f f f f f f;
#X msg -262 79 0;
#X obj -262 104 + \$1;
#X obj -273 797 s r_row_\$1;
#X obj -262 130 s name\$1;
#X obj -263 176 r name\$1;
#X obj -262 54 loadbang;
#N canvas 202 123 761 647 (subpatch) 0;
#X floatatom 78 53 5 0 0 0 - - -;
#X floatatom 5 53 5 0 0 0 - - -;
#X floatatom 40 53 5 0 0 0 - - -;
#X floatatom 77 97 5 0 0 0 - - -;
#X floatatom 5 96 5 0 0 0 - - -;
#X floatatom 42 97 5 0 0 0 - - -;
#X floatatom 79 6 5 0 0 0 - - -;
#X floatatom 5 4 5 0 0 0 - - -;
#X floatatom 42 5 5 0 0 0 - - -;
#X obj 5 28 tgl 15 0 o1 empty empty 17 7 0 10 -262144 -1 -1 0 1;
#X obj 42 28 tgl 15 0 o2 empty empty 17 7 0 10 -262144 -1 -1 0 1;
#X obj 79 27 tgl 15 0 o3 empty empty 17 7 0 10 -262144 -1 -1 0 1;
#X obj 6 76 tgl 15 0 o4 empty empty 17 7 0 10 -262144 -1 -1 0 1;
#X obj 40 75 tgl 15 0 o5 empty empty 17 7 0 10 -262144 -1 -1 0 1;
#X obj 78 75 tgl 15 0 o6 empty empty 17 7 0 10 -262144 -1 -1 0 1;
#X obj 5 117 tgl 15 0 o7 empty empty 17 7 0 10 -262144 -1 -1 0 1;
#X obj 42 117 tgl 15 0 o8 empty empty 17 7 0 10 -262144 -1 -1 0 1;
#X obj 77 117 tgl 15 0 o9 empty empty 17 7 0 10 -262144 -1 -1 0 1;
#X obj 60 177 +;
#X obj 59 199 +;
#X obj 58 224 +;
#X obj 58 247 +;
#X obj 59 272 +;
#X obj 59 295 +;
#X obj 59 321 +;
#X obj -27 350 outlet;
#X obj 59 363 outlet;
#X floatatom -27 328 5 0 0 0 - - -;
#X floatatom 59 343 5 0 0 0 - - -;
#X obj -105 -97 inlet;
#X obj -65 -98 inlet;
#X obj -23 -97 inlet;
#X obj 57 -94 inlet;
#X obj 95 -94 inlet;
#X obj 133 -93 inlet;
#X obj 212 -87 inlet;
#X obj 249 -87 inlet;
#X obj 287 -87 inlet;
#X obj 28 -41 buddy 9 ======================;
#X connect 0 0 14 0;
#X connect 0 0 21 1;
#X connect 1 0 12 0;
#X connect 1 0 20 1;
#X connect 2 0 13 0;
#X connect 2 0 27 0;
#X connect 3 0 17 0;
#X connect 3 0 24 1;
#X connect 4 0 15 0;
#X connect 4 0 22 1;
#X connect 5 0 16 0;
#X connect 5 0 23 1;
#X connect 6 0 11 0;
#X connect 6 0 19 1;
#X connect 7 0 9 0;
#X connect 7 0 18 0;
#X connect 8 0 10 0;
#X connect 8 0 18 1;
#X connect 18 0 19 0;
#X connect 19 0 20 0;
#X connect 20 0 21 0;
#X connect 21 0 22 0;
#X connect 22 0 23 0;
#X connect 23 0 24 0;
#X connect 24 0 28 0;
#X connect 27 0 25 0;
#X connect 28 0 26 0;
#X connect 29 0 38 1;
#X connect 30 0 38 2;
#X connect 31 0 38 3;
#X connect 32 0 38 4;
#X connect 33 0 38 0;
#X connect 34 0 38 5;
#X connect 35 0 38 6;
#X connect 36 0 38 7;
#X connect 37 0 38 8;
#X connect 38 0 2 0;
#X connect 38 1 7 0;
#X connect 38 2 8 0;
#X connect 38 3 6 0;
#X connect 38 4 1 0;
#X connect 38 5 0 0;
#X connect 38 6 4 0;
#X connect 38 7 5 0;
#X connect 38 8 3 0;
#X coords 0 1 100 -1 140 140 1 0 0;
#X restore -84 374 graph;
#X obj 123 772 bng 15 250 50 0 empty empty empty 17 7 0 10 -262144
-1 -1;
#X obj 4 296 unpack f f;
#X obj 79 295 unpack f f;
#X obj -90 296 unpack f f;
#X obj 81 772 bng 15 250 50 0 empty empty empty 17 7 0 10 -262144 -1
-1;
#X obj 33 270 print;
#X obj 33 245 spigot;
#X obj 66 224 tgl 15 0 empty empty empty 17 7 0 10 -262144 -1 -1 0
1;
#X floatatom -263 196 5 0 15 0 - - -;
#X floatatom -224 245 5 0 0 0 - - -;
#X floatatom -263 245 5 0 0 0 - - -;
#X obj -263 218 moses 1;
#X floatatom -224 294 5 0 0 0 - - -;
#X floatatom -179 295 5 0 0 0 - - -;
#X obj -155 245 t a a a;
#X obj -308 315 pack 0 f;
#X obj -252 357 pack 1 f;
#X obj -190 356 pack 2 f;
#X obj -308 292 bng 15 250 50 0 empty empty empty 17 7 0 10 -262144
-1 -1;
#X obj -252 333 bng 15 250 50 0 empty empty empty 17 7 0 10 -262144
-1 -1;
#X obj -190 335 bng 15 250 50 0 empty empty empty 17 7 0 10 -262144
-1 -1;
#X floatatom 96 498 5 0 0 0 - - -;
#X obj -224 269 moses 14.1;
#X obj -335 754 bng 15 250 50 0 empty tosendbang empty 17 7 0 10 -262144
-1 -1;
#X obj -362 655 tgl 15 0 empty empty empty 17 7 0 10 -262144 -1 -1
0 1;
#X obj -343 655 tgl 15 0 empty empty empty 17 7 0 10 -262144 -1 -1
0 1;
#X obj -325 655 tgl 15 0 empty empty empty 17 7 0 10 -262144 -1 -1
0 1;
#X obj -306 655 tgl 15 0 empty empty empty 17 7 0 10 -262144 -1 -1
0 1;
#X obj -286 655 tgl 15 0 empty empty empty 17 7 0 10 -262144 -1 -1
0 1;
#X obj -267 655 tgl 15 0 empty empty empty 17 7 0 10 -262144 -1 -1
0 1;
#X obj -249 655 tgl 15 0 empty empty empty 17 7 0 10 -262144 -1 -1
0 1;
#X obj -230 655 tgl 15 0 empty empty empty 17 7 0 10 -262144 -1 -1
0 1;
#X obj -209 654 tgl 15 0 empty empty empty 17 7 0 10 -262144 -1 -1
0 1;
#X obj -190 654 tgl 15 0 empty empty empty 17 7 0 10 -262144 -1 -1
0 1;
#X obj -172 654 tgl 15 0 empty empty empty 17 7 0 10 -262144 -1 -1
0 1;
#X obj -153 654 tgl 15 0 empty empty empty 17 7 0 10 -262144 -1 -1
0 1;
#X obj -133 654 tgl 15 0 empty empty empty 17 7 0 10 -262144 -1 -1
0 1;
#X obj -114 654 tgl 15 0 empty empty empty 17 7 0 10 -262144 -1 -1
0 1;
#X obj -96 654 tgl 15 0 empty empty empty 17 7 0 10 -262144 -1 -1 0
1;
#X obj -77 654 tgl 15 0 empty empty empty 17 7 0 10 -262144 -1 -1 0
1;
#X obj -53 653 tgl 15 0 empty empty empty 17 7 0 10 -262144 -1 -1 0
1;
#X obj -33 653 tgl 15 0 empty empty empty 17 7 0 10 -262144 -1 -1 0
1;
#X obj -14 653 tgl 15 0 empty empty empty 17 7 0 10 -262144 -1 -1 0
1;
#X obj 4 653 tgl 15 0 empty empty empty 17 7 0 10 -262144 -1 -1 0 1
;
#N canvas 680 387 450 300 pack 0;
#X obj 167 21 inlet;
#X obj 220 186 outlet;
#X obj 181 53 moses 1;
#X obj 181 115 pack f 1;
#X obj 220 91 moses 18.1;
#X obj 220 137 pack f 0;
#X obj 277 118 pack f 2;
#X connect 0 0 2 0;
#X connect 2 0 3 0;
#X connect 2 1 4 0;
#X connect 3 0 1 0;
#X connect 4 0 5 0;
#X connect 4 1 6 0;
#X connect 5 0 1 0;
#X connect 6 0 1 0;
#X restore 4 211 pd pack;
#X obj 42 721 sel 3;
#X obj 85 721 sel 2 3;
#X msg -146 584 0;
#X obj -146 560 bng 15 250 50 0 empty step empty 17 7 0 10 -258113
-1 -1;
#X floatatom 40 640 5 0 0 0 - - -;
#X floatatom 84 639 5 0 0 0 - - -;
#X floatatom 127 639 5 0 0 0 - - -;
#X obj 42 691 demux 0 1;
#X obj 42 665 swap;
#X obj 4 122 r countsignal;
#X obj 4 149 route \$1;
#X floatatom 4 180 5 0 0 0 - - -;
#X obj -27 552 buddy 3;
#X obj 194 626 print;
#X obj -27 580 pack f f f \$1;
#X obj 150 598 spigot;
#X obj 183 576 tgl 15 0 empty display-t empty 17 7 0 10 -262144 -1
-1 0 1;
#X obj 181 852 bng 15 250 50 0 tosendbang empty empty 17 7 0 10 -262144
-1 -1;
#X obj 40 616 unpack f f f;
#X obj 180 733 swap;
#X obj 181 760 pack f f;
#X obj 181 782 route 15;
#X obj 181 826 sel 19;
#X obj 200 682 r name\$1;
#X floatatom 200 702 5 0 15 0 - - -;
#X floatatom 181 805 5 0 0 0 - - -;
#X connect 0 0 13 3;
#X connect 0 1 13 4;
#X connect 0 2 13 5;
#X connect 1 0 13 0;
#X connect 1 1 13 1;
#X connect 1 2 13 2;
#X connect 2 0 13 6;
#X connect 2 1 13 7;
#X connect 2 2 13 8;
#X connect 2 3 35 0;
#X connect 3 0 5 0;
#X connect 4 0 5 0;
#X connect 5 0 38 0;
#X connect 5 1 39 0;
#X connect 5 2 40 0;
#X connect 5 3 41 0;
#X connect 5 4 42 0;
#X connect 5 5 43 0;
#X connect 5 6 44 0;
#X connect 5 7 45 0;
#X connect 5 8 46 0;
#X connect 5 9 47 0;
#X connect 5 10 48 0;
#X connect 5 11 49 0;
#X connect 5 12 50 0;
#X connect 5 13 51 0;
#X connect 5 14 52 0;
#X connect 5 15 53 0;
#X connect 5 16 54 0;
#X connect 5 17 55 0;
#X connect 5 18 56 0;
#X connect 5 19 57 0;
#X connect 6 0 9 0;
#X connect 7 0 8 0;
#X connect 8 0 10 0;
#X connect 11 0 22 0;
#X connect 12 0 7 0;
#X connect 13 0 71 0;
#X connect 13 1 71 1;
#X connect 14 0 4 0;
#X connect 15 0 0 2;
#X connect 15 1 0 1;
#X connect 16 0 2 2;
#X connect 16 1 2 1;
#X connect 17 0 1 2;
#X connect 17 1 1 1;
#X connect 18 0 3 0;
#X connect 20 0 19 0;
#X connect 21 0 20 1;
#X connect 22 0 25 0;
#X connect 23 0 36 0;
#X connect 24 0 29 1;
#X connect 24 0 32 0;
#X connect 25 0 24 0;
#X connect 25 1 23 0;
#X connect 26 0 30 1;
#X connect 26 0 33 0;
#X connect 27 0 31 1;
#X connect 27 0 34 0;
#X connect 28 0 1 0;
#X connect 28 1 0 0;
#X connect 28 2 2 0;
#X connect 29 0 28 0;
#X connect 30 0 28 0;
#X connect 31 0 28 0;
#X connect 32 0 29 0;
#X connect 33 0 30 0;
#X connect 34 0 31 0;
#X connect 35 0 71 2;
#X connect 36 0 26 0;
#X connect 36 1 27 0;
#X connect 37 0 6 0;
#X connect 38 0 6 1;
#X connect 39 0 6 2;
#X connect 40 0 6 3;
#X connect 41 0 6 4;
#X connect 42 0 6 5;
#X connect 43 0 6 6;
#X connect 44 0 6 7;
#X connect 45 0 6 8;
#X connect 46 0 6 9;
#X connect 47 0 6 10;
#X connect 48 0 6 11;
#X connect 49 0 6 12;
#X connect 50 0 6 13;
#X connect 51 0 6 14;
#X connect 52 0 6 15;
#X connect 53 0 6 16;
#X connect 54 0 6 17;
#X connect 55 0 6 18;
#X connect 56 0 6 19;
#X connect 57 0 6 20;
#X connect 58 0 17 0;
#X connect 58 0 15 0;
#X connect 58 0 20 0;
#X connect 58 0 16 0;
#X connect 59 0 14 0;
#X connect 59 1 18 0;
#X connect 60 0 14 0;
#X connect 60 1 14 0;
#X connect 60 2 18 0;
#X connect 61 0 57 0;
#X connect 61 0 56 0;
#X connect 61 0 55 0;
#X connect 61 0 38 0;
#X connect 61 0 39 0;
#X connect 61 0 40 0;
#X connect 61 0 41 0;
#X connect 61 0 42 0;
#X connect 61 0 43 0;
#X connect 61 0 44 0;
#X connect 61 0 45 0;
#X connect 61 0 46 0;
#X connect 61 0 47 0;
#X connect 61 0 48 0;
#X connect 61 0 49 0;
#X connect 61 0 50 0;
#X connect 61 0 51 0;
#X connect 61 0 52 0;
#X connect 61 0 53 0;
#X connect 61 0 54 0;
#X connect 62 0 61 0;
#X connect 63 0 67 0;
#X connect 64 0 67 1;
#X connect 65 0 5 1;
#X connect 65 0 78 0;
#X connect 66 0 59 0;
#X connect 66 1 60 0;
#X connect 67 0 66 0;
#X connect 67 1 66 1;
#X connect 68 0 69 0;
#X connect 69 0 70 0;
#X connect 70 0 58 0;
#X connect 71 0 73 0;
#X connect 71 1 73 1;
#X connect 71 2 73 2;
#X connect 73 0 74 0;
#X connect 73 0 77 0;
#X connect 74 0 72 0;
#X connect 75 0 74 1;
#X connect 77 0 63 0;
#X connect 77 1 64 0;
#X connect 77 2 65 0;
#X connect 78 0 79 0;
#X connect 78 1 79 1;
#X connect 79 0 80 0;
#X connect 80 0 84 0;
#X connect 81 0 76 0;
#X connect 82 0 83 0;
#X connect 83 0 78 1;
#X connect 84 0 81 0;
#X restore 117 328 pd =============================;
#X obj 100 100 b_box 0 \$1;
#X obj 115 100 b_box 1 \$1;
#X obj 130 100 b_box 2 \$1;
#X obj 145 100 b_box 3 \$1;
#X obj 160 100 b_box 4 \$1;
#X obj 175 100 b_box 5 \$1;
#X obj 190 100 b_box 6 \$1;
#X obj 205 100 b_box 7 \$1;
#X obj 220 100 b_box 8 \$1;
#X obj 235 100 b_box 9 \$1;
#X obj 250 100 b_box 10 \$1;
#X obj 265 100 b_box 11 \$1;
#X obj 280 100 b_box 12 \$1;
#X obj 295 100 b_box 13 \$1;
#X obj 310 100 b_box 14 \$1;
#X obj 325 100 b_box 15 \$1;
#X obj 340 100 b_box 16 \$1;
#X obj 355 100 b_box 17 \$1;
#X obj 370 100 b_box 18 \$1;
#X obj 385 100 b_box 19 \$1;
#X obj 100 20 r r_row_\$1;
#X obj 100 49 unpack 0 f f f f f f f f f f f f f f f f f f f f;
#X connect 2 0 42 0;
#X connect 22 0 1 0;
#X connect 22 1 42 1;
#X connect 23 0 3 0;
#X connect 23 1 42 2;
#X connect 24 0 21 0;
#X connect 24 1 42 20;
#X connect 25 0 20 0;
#X connect 25 1 42 19;
#X connect 26 0 19 0;
#X connect 26 1 42 18;
#X connect 27 0 4 0;
#X connect 27 1 42 3;
#X connect 28 0 5 0;
#X connect 28 1 42 4;
#X connect 29 0 6 0;
#X connect 29 1 42 5;
#X connect 30 0 18 0;
#X connect 30 1 42 17;
#X connect 31 0 16 0;
#X connect 31 1 42 15;
#X connect 32 0 17 0;
#X connect 32 1 42 16;
#X connect 33 0 15 0;
#X connect 33 1 42 14;
#X connect 34 0 13 0;
#X connect 34 1 42 12;
#X connect 35 0 14 0;
#X connect 35 1 42 13;
#X connect 36 0 12 0;
#X connect 36 1 42 11;
#X connect 37 0 11 0;
#X connect 37 1 42 10;
#X connect 38 0 7 0;
#X connect 38 1 42 6;
#X connect 39 0 8 0;
#X connect 39 1 42 7;
#X connect 40 0 9 0;
#X connect 40 1 42 8;
#X connect 41 0 10 0;
#X connect 41 1 42 9;
#X connect 42 0 0 0;
#X connect 44 0 22 0;
#X connect 45 0 23 0;
#X connect 46 0 27 0;
#X connect 47 0 28 0;
#X connect 48 0 29 0;
#X connect 49 0 38 0;
#X connect 50 0 39 0;
#X connect 51 0 40 0;
#X connect 52 0 41 0;
#X connect 53 0 37 0;
#X connect 54 0 36 0;
#X connect 55 0 34 0;
#X connect 56 0 35 0;
#X connect 57 0 33 0;
#X connect 58 0 31 0;
#X connect 59 0 32 0;
#X connect 60 0 30 0;
#X connect 61 0 26 0;
#X connect 62 0 25 0;
#X connect 63 0 24 0;
#X connect 64 0 65 0;
#X connect 65 1 44 0;
#X connect 65 2 45 0;
#X connect 65 3 46 0;
#X connect 65 4 47 0;
#X connect 65 5 48 0;
#X connect 65 6 49 0;
#X connect 65 7 50 0;
#X connect 65 8 51 0;
#X connect 65 9 52 0;
#X connect 65 10 53 0;
#X connect 65 11 54 0;
#X connect 65 12 55 0;
#X connect 65 13 56 0;
#X connect 65 14 57 0;
#X connect 65 15 58 0;
#X connect 65 16 59 0;
#X connect 65 17 60 0;
#X connect 65 18 61 0;
#X connect 65 19 62 0;
#X connect 65 20 63 0;
#X coords 0 -1 1 1 300 15 2 100 100;
