#N canvas 398 174 983 745 10;
#X obj 391 142 unpack f f f f f f;
#X obj 0 0 cnv 15 160 100 empty empty Pitchshifter 20 16 0 12 -233017
-1 0;
#X obj 14 28 hsl 128 12 -24 24 0 0 \$0-transp1-r \$0-transp1-s -1.99
50 8 0 8 -262144 -258113 -1 5821 1;
#X msg 189 323 label \$1;
#X obj 171 278 s \$0-transp1-s;
#X obj 174 344 r \$0-transp1-r;
#X obj 42 332 inlet~ signal;
#X obj 428 700 outlet~ signal;
#X obj 427 670 *~ 0.1999;
#X obj 14 40 hsl 128 12 -24 24 0 0 \$0-transp2-r \$0-transp2-s -0.99
50 8 0 8 -262144 -258113 -1 6085 1;
#X obj 14 52 hsl 128 12 -24 24 0 0 \$0-transp3-r \$0-transp3-s 0 50
8 0 8 -262144 -258113 -1 6350 1;
#X obj 14 64 hsl 128 12 -24 24 0 0 \$0-transp4-r \$0-transp4-s 1 50
8 0 8 -262144 -258113 -1 6615 1;
#X obj 14 76 hsl 128 12 -24 24 0 0 \$0-transp5-r \$0-transp5-s 2 50
8 0 8 -262144 -258113 -1 6879 1;
#X msg 327 323 label \$1;
#X msg 462 330 label \$1;
#X msg 594 327 label \$1;
#X msg 722 334 label \$1;
#X obj 309 278 s \$0-transp2-s;
#X obj 312 344 r \$0-transp2-r;
#X obj 444 285 s \$0-transp3-s;
#X obj 447 351 r \$0-transp3-r;
#X obj 576 282 s \$0-transp4-s;
#X obj 579 348 r \$0-transp4-r;
#X obj 704 289 s \$0-transp5-s;
#X obj 707 355 r \$0-transp5-r;
#X obj 171 225 pack;
#X obj 170 254 line;
#X obj 311 222 pack;
#X obj 310 251 line;
#X obj 447 229 pack;
#X obj 446 258 line;
#X obj 576 227 pack;
#X obj 575 256 line;
#X obj 706 235 pack;
#X obj 705 264 line;
#X obj 392 83 inlet transpositions (semitones);
#X obj 838 377 unpack f f f;
#X obj 838 348 r \$1-5ps-param;
#X obj 155 553 pitchshift \$2 \$3 \$4;
#X obj 295 552 pitchshift \$2 \$3 \$4;
#X obj 427 554 pitchshift \$2 \$3 \$4;
#X obj 556 553 pitchshift \$2 \$3 \$4;
#X obj 684 553 pitchshift \$2 \$3 \$4;
#X obj 189 299 makefilename %s;
#X obj 327 299 makefilename %s;
#X obj 462 306 makefilename %s;
#X obj 594 303 makefilename %s;
#X obj 722 310 makefilename %s;
#X obj 606 85 loadbang;
#X msg 606 111 0 0 0 0 0 0;
#X obj 409 111 r \$1-5pitch;
#N canvas 0 22 205 197 runden 0;
#X msg 113 50 10;
#X obj 113 27 loadbang;
#X obj 33 55 * 1;
#X obj 33 25 inlet;
#X obj 74 102 / 1;
#X msg 74 80 1;
#X obj 33 80 + 0.5;
#X obj 33 105 div;
#X obj 33 152 outlet;
#X obj 33 128 * 1;
#X obj 113 71 pow 2;
#X connect 0 0 10 0;
#X connect 1 0 0 0;
#X connect 2 0 6 0;
#X connect 3 0 2 0;
#X connect 4 0 9 1;
#X connect 5 0 4 0;
#X connect 6 0 7 0;
#X connect 7 0 9 0;
#X connect 9 0 8 0;
#X connect 10 0 2 1;
#X connect 10 0 4 1;
#X connect 10 0 5 0;
#X restore 204 367 pd runden;
#N canvas 0 22 205 197 runden 0;
#X msg 113 50 10;
#X obj 113 27 loadbang;
#X obj 33 55 * 1;
#X obj 33 25 inlet;
#X obj 74 102 / 1;
#X msg 74 80 1;
#X obj 33 80 + 0.5;
#X obj 33 105 div;
#X obj 33 152 outlet;
#X obj 33 128 * 1;
#X obj 113 71 pow 2;
#X connect 0 0 10 0;
#X connect 1 0 0 0;
#X connect 2 0 6 0;
#X connect 3 0 2 0;
#X connect 4 0 9 1;
#X connect 5 0 4 0;
#X connect 6 0 7 0;
#X connect 7 0 9 0;
#X connect 9 0 8 0;
#X connect 10 0 2 1;
#X connect 10 0 4 1;
#X connect 10 0 5 0;
#X restore 344 368 pd runden;
#N canvas 0 22 205 197 runden 0;
#X msg 113 50 10;
#X obj 113 27 loadbang;
#X obj 33 55 * 1;
#X obj 33 25 inlet;
#X obj 74 102 / 1;
#X msg 74 80 1;
#X obj 33 80 + 0.5;
#X obj 33 105 div;
#X obj 33 152 outlet;
#X obj 33 128 * 1;
#X obj 113 71 pow 2;
#X connect 0 0 10 0;
#X connect 1 0 0 0;
#X connect 2 0 6 0;
#X connect 3 0 2 0;
#X connect 4 0 9 1;
#X connect 5 0 4 0;
#X connect 6 0 7 0;
#X connect 7 0 9 0;
#X connect 9 0 8 0;
#X connect 10 0 2 1;
#X connect 10 0 4 1;
#X connect 10 0 5 0;
#X restore 478 375 pd runden;
#N canvas 0 22 205 197 runden 0;
#X msg 113 50 10;
#X obj 113 27 loadbang;
#X obj 33 55 * 1;
#X obj 33 25 inlet;
#X obj 74 102 / 1;
#X msg 74 80 1;
#X obj 33 80 + 0.5;
#X obj 33 105 div;
#X obj 33 152 outlet;
#X obj 33 128 * 1;
#X obj 113 71 pow 2;
#X connect 0 0 10 0;
#X connect 1 0 0 0;
#X connect 2 0 6 0;
#X connect 3 0 2 0;
#X connect 4 0 9 1;
#X connect 5 0 4 0;
#X connect 6 0 7 0;
#X connect 7 0 9 0;
#X connect 9 0 8 0;
#X connect 10 0 2 1;
#X connect 10 0 4 1;
#X connect 10 0 5 0;
#X restore 610 370 pd runden;
#N canvas 0 22 205 197 runden 0;
#X msg 113 50 10;
#X obj 113 27 loadbang;
#X obj 33 55 * 1;
#X obj 33 25 inlet;
#X obj 74 102 / 1;
#X msg 74 80 1;
#X obj 33 80 + 0.5;
#X obj 33 105 div;
#X obj 33 152 outlet;
#X obj 33 128 * 1;
#X obj 113 71 pow 2;
#X connect 0 0 10 0;
#X connect 1 0 0 0;
#X connect 2 0 6 0;
#X connect 3 0 2 0;
#X connect 4 0 9 1;
#X connect 5 0 4 0;
#X connect 6 0 7 0;
#X connect 7 0 9 0;
#X connect 9 0 8 0;
#X connect 10 0 2 1;
#X connect 10 0 4 1;
#X connect 10 0 5 0;
#X restore 736 377 pd runden;
#X connect 0 0 25 0;
#X connect 0 1 27 0;
#X connect 0 2 29 0;
#X connect 0 3 31 0;
#X connect 0 4 33 0;
#X connect 0 5 25 1;
#X connect 0 5 33 1;
#X connect 0 5 31 1;
#X connect 0 5 29 1;
#X connect 0 5 27 1;
#X connect 3 0 4 0;
#X connect 5 0 38 1;
#X connect 5 0 51 0;
#X connect 6 0 38 0;
#X connect 6 0 39 0;
#X connect 6 0 40 0;
#X connect 6 0 41 0;
#X connect 6 0 42 0;
#X connect 8 0 7 0;
#X connect 13 0 17 0;
#X connect 14 0 19 0;
#X connect 15 0 21 0;
#X connect 16 0 23 0;
#X connect 18 0 39 1;
#X connect 18 0 52 0;
#X connect 20 0 40 1;
#X connect 20 0 53 0;
#X connect 22 0 41 1;
#X connect 22 0 54 0;
#X connect 24 0 42 1;
#X connect 24 0 55 0;
#X connect 25 0 26 0;
#X connect 26 0 4 0;
#X connect 27 0 28 0;
#X connect 28 0 17 0;
#X connect 29 0 30 0;
#X connect 30 0 19 0;
#X connect 31 0 32 0;
#X connect 32 0 21 0;
#X connect 33 0 34 0;
#X connect 34 0 23 0;
#X connect 35 0 0 0;
#X connect 36 0 38 2;
#X connect 36 0 39 2;
#X connect 36 0 40 2;
#X connect 36 0 41 2;
#X connect 36 0 42 2;
#X connect 36 1 38 3;
#X connect 36 1 39 3;
#X connect 36 1 40 3;
#X connect 36 1 41 3;
#X connect 36 1 42 3;
#X connect 36 2 38 4;
#X connect 36 2 39 4;
#X connect 36 2 40 4;
#X connect 36 2 41 4;
#X connect 36 2 42 4;
#X connect 37 0 36 0;
#X connect 38 0 8 0;
#X connect 39 0 8 0;
#X connect 40 0 8 0;
#X connect 41 0 8 0;
#X connect 42 0 8 0;
#X connect 43 0 3 0;
#X connect 44 0 13 0;
#X connect 45 0 14 0;
#X connect 46 0 15 0;
#X connect 47 0 16 0;
#X connect 48 0 49 0;
#X connect 49 0 0 0;
#X connect 50 0 0 0;
#X connect 51 0 43 0;
#X connect 52 0 44 0;
#X connect 53 0 45 0;
#X connect 54 0 46 0;
#X connect 55 0 47 0;
#X coords 0 -1 1 1 160 100 2 0 0;
