#N canvas 329 298 683 481 12;
#X obj 380 412 dac~;
#X obj 477 268 hsl 128 15 -12 24 0 0 empty transp transp 25 8 0 10
-262144 -1 -1 9433 1;
#X floatatom 474 290 5 0 0 0 - - -, f 5;
#X obj 459 218 hsl 128 15 0.01 1 1 0 empty seg-length seg-length 25
8 0 10 -262144 -1 -1 12700 1;
#X obj 437 164 hsl 128 15 1 5000 1 0 empty input-hop input-hop 25 8
0 10 -262144 -1 -1 8600 1;
#X obj 418 113 hsl 128 15 5 1000 0 0 empty output-hop output-hop 25
8 0 10 -262144 -1 -1 1283 1;
#X obj 25 394 table sample-99;
#X obj 25 285 soundfiler;
#X floatatom 25 312 10 0 0 1 length_in_samples - -, f 10;
#X obj 25 339 s buf;
#X floatatom 415 136 5 0 0 0 - - -, f 5;
#X obj 499 315 hsl 128 15 1 10 0 1 empty empty env-sharp 25 8 0 10
-262144 -1 -1 4100 1;
#X floatatom 495 336 5 0 0 0 - - -, f 5;
#X floatatom 454 239 5 0 0 0 - - -, f 5;
#X obj 394 89 tgl 15 0 empty empty empty 17 7 0 10 -262144 -258113
-1 1 1;
#X text 503 238 x output-hop;
#X floatatom 434 187 5 0 0 0 - - -, f 5;
#X text 462 135 output-hop (msec);
#X text 39 434 (c) 2009 Achim Bornhoeft;
#X text 481 187 slices in input-file;
#X text 521 289 in semitones;
#X obj 394 360 grain-stream1;
#X obj 25 80 loadbang;
#X msg 25 253 read -resize ../99-Sounds/1-4.wav sample-99;
#X msg 47 140 \; pd dsp 1 \; output-hop 35 \; input-hop 1000 \; seg-length
1 \; transp 0 \;;
#X text 114 29 Single synchronous grain stream;
#X connect 1 0 2 0;
#X connect 2 0 21 4;
#X connect 3 0 13 0;
#X connect 4 0 16 0;
#X connect 5 0 10 0;
#X connect 7 0 8 0;
#X connect 8 0 9 0;
#X connect 10 0 21 1;
#X connect 11 0 12 0;
#X connect 12 0 21 5;
#X connect 13 0 21 3;
#X connect 14 0 21 0;
#X connect 16 0 21 2;
#X connect 21 0 0 0;
#X connect 21 0 0 1;
#X connect 22 0 24 0;
#X connect 22 0 23 0;
#X connect 23 0 7 0;
