#N canvas 223 54 647 729 12;
#X obj 291 669 dac~;
#X obj 382 293 hsl 128 15 -12 24 0 0 empty transp transp 25 8 0 10
-262144 -1 -1 4233 1;
#X floatatom 379 313 5 0 0 0 - - -, f 5;
#X obj 359 247 hsl 128 15 0.01 1 1 0 empty seg-length seg-length 25
8 0 10 -262144 -1 -1 12700 1;
#X obj 315 152 hsl 128 15 1 5000 1 0 empty input-hop input-hop 25 8
0 10 -262144 -1 -1 10300 1;
#X obj 261 52 hsl 128 15 5 1000 0 0 empty output-hop output-hop 25
8 0 10 -262144 -1 -1 447 1;
#X obj 47 98 tgl 15 0 empty empty 1 22 7 0 14 -262144 -1 -258113 1
1;
#X obj 39 324 bng 15 250 50 0 empty empty 2 22 7 0 14 -262144 -1 -258113
;
#X obj 40 442 soundfiler;
#X floatatom 40 469 10 0 0 1 length_in_samples - -, f 10;
#X obj 40 496 s buf;
#X floatatom 258 75 5 0 0 0 - - -, f 5;
#X obj 292 101 hsl 128 15 0 500 0 0 empty empty output-hop-rand 25
8 0 10 -262144 -1 -1 0 1;
#X obj 428 387 hsl 128 15 1 10 0 1 empty empty env-sharp 25 8 0 10
-262144 -1 -1 12400 1;
#X obj 337 202 hsl 128 15 0 0.5 0 0 empty empty input-hop-rand 25 8
0 10 -262144 -1 -1 0 1;
#X floatatom 424 408 5 0 0 0 - - -, f 5;
#X floatatom 356 268 5 0 0 0 - - -, f 5;
#X text 404 268 x output-hop;
#X floatatom 334 223 5 0 0 0 - - -, f 5;
#X floatatom 312 175 5 0 0 0 - - -, f 5;
#X text 301 74 output-hop (msec);
#X floatatom 289 125 5 0 0 0 - - -, f 5;
#X text 377 222 * buffer-duration \, +/- random;
#X text 332 123 + max msec \, random;
#X text 358 173 slices in input-file;
#X obj 403 339 hsl 128 15 0 12 0 0 empty transp-rand transp-rand 25
8 0 10 -262144 -1 -1 0 1;
#X floatatom 400 364 5 0 0 0 - - -, f 5;
#X text 426 312 in semitones;
#X text 448 362 semitones random +/-;
#N canvas 756 23 855 676 3streams 0;
#X obj 110 340 > 0;
#X obj 370 347 > 1;
#X obj 110 397 tgl 15 0 empty empty empty 0 -6 0 8 -262144 -1 -1 1
1;
#X obj 370 399 tgl 15 0 empty empty empty 0 -6 0 8 -262144 -1 -1 1
1;
#X obj 370 372 change;
#X obj 620 138 expr 1 / $f1;
#X obj 620 49 int;
#X floatatom 366 191 5 0 0 0 - - -, f 5;
#X obj 316 247 pipe;
#X floatatom 345 120 5 0 0 0 out_hop - -, f 5;
#X obj 345 216 *;
#X obj 569 247 pipe;
#X obj 599 216 *;
#X obj 307 21 inlet grain parameter;
#X obj 307 51 t l f;
#X obj 55 249 pipe;
#X obj 620 21 inlet number of streams;
#X floatatom 620 173 5 0 0 0 - - -, f 5;
#X obj 624 404 tgl 15 0 empty empty empty 0 -6 0 8 -262144 -1 -1 1
1;
#X obj 623 377 change;
#X obj 623 350 > 2;
#X obj 165 397 r grain-parameter;
#X obj 425 394 r grain-parameter;
#X obj 679 398 r grain-parameter;
#X obj 307 85 s grain-parameter;
#X floatatom 87 280 5 0 0 0 - - -, f 5;
#X floatatom 332 275 5 0 0 0 - - -, f 5;
#X floatatom 578 275 5 0 0 0 - - -, f 5;
#X obj 110 313 r str-tgl;
#X obj 370 321 r str-tgl;
#X obj 623 320 r str-tgl;
#X obj 631 80 s str-tgl;
#X obj 76 481 *~;
#X obj 97 453 r dyn-div;
#X obj 316 483 *~;
#X obj 337 456 r dyn-div;
#X obj 571 483 *~;
#X obj 592 456 r dyn-div;
#X obj 316 599 outlet~;
#X obj 88 306 bng 15 250 50 0 empty empty empty 17 7 0 10 -262144 -1
-1;
#X obj 331 299 bng 15 250 50 0 empty empty empty 17 7 0 10 -262144
-1 -1;
#X obj 578 299 bng 15 250 50 0 empty empty empty 17 7 0 10 -262144
-1 -1;
#X obj 643 244 line;
#X obj 644 273 s dyn-div;
#X obj 620 107 max 1;
#X obj 643 214 pack f 100;
#X obj 110 366 change;
#X obj 56 423 grain-stream 0;
#X obj 316 423 grain-stream 0;
#X obj 570 427 grain-stream 0;
#X connect 0 0 46 0;
#X connect 1 0 4 0;
#X connect 2 0 15 0;
#X connect 2 0 47 1;
#X connect 3 0 48 1;
#X connect 4 0 3 0;
#X connect 5 0 7 0;
#X connect 5 0 17 0;
#X connect 6 0 31 0;
#X connect 6 0 44 0;
#X connect 7 0 10 1;
#X connect 8 0 11 0;
#X connect 8 0 26 0;
#X connect 8 0 48 0;
#X connect 9 0 10 0;
#X connect 9 0 12 0;
#X connect 10 0 8 1;
#X connect 11 0 27 0;
#X connect 11 0 49 0;
#X connect 12 0 11 1;
#X connect 13 0 14 0;
#X connect 14 0 24 0;
#X connect 14 1 9 0;
#X connect 15 0 8 0;
#X connect 15 0 25 0;
#X connect 15 0 47 0;
#X connect 16 0 6 0;
#X connect 17 0 12 1;
#X connect 17 0 45 0;
#X connect 18 0 49 1;
#X connect 19 0 18 0;
#X connect 20 0 19 0;
#X connect 21 0 47 2;
#X connect 22 0 48 2;
#X connect 23 0 49 2;
#X connect 25 0 39 0;
#X connect 26 0 40 0;
#X connect 27 0 41 0;
#X connect 28 0 0 0;
#X connect 29 0 1 0;
#X connect 30 0 20 0;
#X connect 32 0 38 0;
#X connect 33 0 32 1;
#X connect 34 0 38 0;
#X connect 35 0 34 1;
#X connect 36 0 38 0;
#X connect 37 0 36 1;
#X connect 42 0 43 0;
#X connect 44 0 5 0;
#X connect 45 0 42 0;
#X connect 46 0 2 0;
#X connect 47 0 32 0;
#X connect 48 0 34 0;
#X connect 49 0 36 0;
#X restore 304 639 pd 3streams;
#X obj 39 536 table 0-buffer;
#X obj 304 538 pack f f f f f f f f;
#X obj 289 305 t b f;
#X obj 312 342 t b f;
#X obj 334 378 t b f;
#X obj 356 410 t b f;
#X obj 379 446 t b f;
#X obj 401 475 t b f;
#X obj 424 507 t b f;
#X obj 389 587 hradio 15 1 0 4 empty empty 3 0 -12 0 14 -262144 -1
-258113 3;
#X floatatom 389 610 5 0 0 0 - - -, f 5;
#X obj 47 64 loadbang;
#X msg 47 119 \; pd dsp \$1 \; output-hop 40 \; input-hop 1000 \; seg-length
1 \; transp 0 \; transp-rand 0 \;;
#X msg 40 417 read -resize \$1 0-buffer;
#X msg 39 354 ../99-Sounds/1-4.wav;
#X obj 40 386 symbol;
#X obj 39 291 loadbang;
#X connect 1 0 2 0;
#X connect 2 0 36 0;
#X connect 3 0 16 0;
#X connect 4 0 19 0;
#X connect 5 0 11 0;
#X connect 6 0 42 0;
#X connect 7 0 44 0;
#X connect 8 0 9 0;
#X connect 9 0 10 0;
#X connect 11 0 31 0;
#X connect 12 0 21 0;
#X connect 13 0 15 0;
#X connect 14 0 18 0;
#X connect 15 0 38 0;
#X connect 16 0 35 0;
#X connect 18 0 34 0;
#X connect 19 0 33 0;
#X connect 21 0 32 0;
#X connect 25 0 26 0;
#X connect 26 0 37 0;
#X connect 29 0 0 0;
#X connect 29 0 0 1;
#X connect 31 0 29 0;
#X connect 32 0 31 0;
#X connect 32 1 31 1;
#X connect 33 0 31 0;
#X connect 33 1 31 2;
#X connect 34 0 31 0;
#X connect 34 1 31 3;
#X connect 35 0 31 0;
#X connect 35 1 31 4;
#X connect 36 0 31 0;
#X connect 36 1 31 5;
#X connect 37 0 31 0;
#X connect 37 1 31 6;
#X connect 38 0 31 0;
#X connect 38 1 31 7;
#X connect 39 0 40 0;
#X connect 40 0 29 1;
#X connect 41 0 6 0;
#X connect 43 0 8 0;
#X connect 44 0 45 0;
#X connect 45 0 43 0;
#X connect 46 0 7 0;
