#N canvas 10 80 739 751 10;
#X obj 475 713 outlet~;
#X obj 475 686 *~;
#X obj 406 607 +~;
#X obj 176 463 *;
#X obj 176 490 int;
#X obj 406 546 *~;
#N canvas 236 122 209 300 env 0;
#X obj 40 64 -~ 0.5;
#X obj 40 156 clip~ -0.5 0.5;
#X obj 40 133 *~ 1;
#X obj 40 179 cos~;
#X obj 40 87 wrap~;
#X obj 40 110 -~ 0.5;
#X obj 40 227 *~ -0.5;
#X obj 40 202 -~ 1;
#X obj 40 41 inlet~;
#X obj 40 250 outlet~;
#X obj 103 42 inlet;
#X text 105 20 sharpness;
#X text 40 20 phasor;
#X obj 102 106 max 1;
#X connect 0 0 4 0;
#X connect 1 0 3 0;
#X connect 2 0 1 0;
#X connect 3 0 7 0;
#X connect 4 0 5 0;
#X connect 5 0 2 0;
#X connect 6 0 9 0;
#X connect 7 0 6 0;
#X connect 8 0 0 0;
#X connect 10 0 13 0;
#X connect 13 0 2 1;
#X restore 535 635 pd env;
#N canvas 0 22 279 265 dur 0;
#X obj 59 32 inlet dur (msec);
#X obj 62 211 outlet dur (samples);
#X obj 62 156 *;
#X obj 62 183 int;
#X obj 58 62 t f b;
#X obj 81 129 / 1000;
#X obj 172 34 loadbang;
#X obj 173 62 samplerate~;
#X obj 82 103 f;
#X connect 0 0 4 0;
#X connect 2 0 3 0;
#X connect 3 0 1 0;
#X connect 4 0 2 0;
#X connect 4 1 8 0;
#X connect 5 0 2 1;
#X connect 6 0 7 0;
#X connect 7 0 8 1;
#X connect 8 0 5 0;
#X restore 488 362 pd dur msec->samp;
#X obj 404 413 vline~;
#X msg 404 389 0 \, 1 \$1;
#X obj 402 362 /;
#X obj 424 511 samphold~;
#X obj 419 577 samphold~;
#X obj 405 636 tabread4~ sample-99;
#X obj 568 69 inlet sharp;
#X obj 400 204 *;
#X obj 101 46 inlet out-hop;
#X obj 400 39 inlet seglength;
#X floatatom 176 407 10 0 0 0 - - -, f 10;
#X obj 72 152 metro 100;
#X obj 74 263 f;
#X obj 144 264 mod;
#X obj 105 264 + 1;
#X obj 217 319 /;
#X msg 89 238 0;
#N canvas 0 22 264 299 pos-rand 0;
#X obj 94 225 +;
#X obj 92 93 t f b b;
#X obj 94 68 f;
#X obj 94 259 outlet;
#X obj 33 19 inlet;
#X obj 109 21 inlet;
#X obj 162 22 inlet;
#X obj 113 175 random;
#X obj 113 201 / 100;
#X obj 146 125 f;
#X obj 146 150 * 100;
#X connect 0 0 3 0;
#X connect 1 0 0 0;
#X connect 1 1 7 0;
#X connect 1 2 9 0;
#X connect 2 0 1 0;
#X connect 4 0 2 0;
#X connect 5 0 2 1;
#X connect 6 0 9 1;
#X connect 7 0 8 0;
#X connect 8 0 0 1;
#X connect 9 0 10 0;
#X connect 10 0 7 1;
#X restore 124 130 pd pos-rand;
#N canvas 0 22 287 357 center-rand 0;
#X obj 93 288 +;
#X obj 92 93 t f b b;
#X obj 112 249 -;
#X obj 92 44 t b f;
#X obj 94 68 f;
#X obj 93 322 outlet;
#X obj 33 19 inlet;
#X obj 91 19 inlet;
#X obj 160 19 inlet;
#X obj 112 188 random;
#X obj 112 214 / 100;
#X obj 145 135 f;
#X obj 145 162 * 209;
#X connect 0 0 5 0;
#X connect 1 0 0 0;
#X connect 1 1 9 0;
#X connect 1 2 11 0;
#X connect 2 0 0 1;
#X connect 3 0 4 0;
#X connect 3 1 4 1;
#X connect 4 0 1 0;
#X connect 6 0 4 0;
#X connect 7 0 3 0;
#X connect 8 0 11 1;
#X connect 9 0 10 0;
#X connect 10 0 2 0;
#X connect 11 0 2 1;
#X connect 11 0 12 0;
#X connect 12 0 9 1;
#X restore 177 347 pd center-rand;
#X obj 177 377 wrap;
#X obj 7 45 inlet toggle;
#X obj 187 46 inlet out-hop-rand;
#X obj 260 92 inlet in-hop-rand;
#X obj 242 67 inlet in-hop;
#X obj 191 436 r buf;
#N canvas 0 22 249 366 center-rand 1;
#X obj 99 278 +;
#X obj 94 92 t f b b;
#X obj 114 248 -;
#X obj 92 44 t b f;
#X obj 94 68 f;
#X obj 99 312 outlet;
#X obj 33 19 inlet;
#X obj 91 19 inlet;
#X obj 163 44 inlet;
#X obj 114 187 random;
#X obj 114 213 / 100;
#X obj 147 134 f;
#X obj 147 161 * 209;
#X connect 0 0 5 0;
#X connect 1 0 0 0;
#X connect 1 1 9 0;
#X connect 1 2 11 0;
#X connect 2 0 0 1;
#X connect 3 0 4 0;
#X connect 3 1 4 1;
#X connect 4 0 1 0;
#X connect 6 0 4 0;
#X connect 7 0 3 0;
#X connect 8 0 11 1;
#X connect 9 0 10 0;
#X connect 10 0 2 0;
#X connect 11 0 2 1;
#X connect 11 0 12 0;
#X connect 12 0 9 1;
#X restore 420 269 pd center-rand;
#X obj 417 321 t b f;
#X floatatom 613 562 5 0 0 0 - - -, f 5;
#N canvas 0 22 450 300 semitone 0;
#X obj 34 116 pow 2;
#X obj 63 90 / 12;
#X obj 34 167 outlet;
#X obj 33 64 t b f;
#X msg 33 89 2;
#X obj 32 41 inlet;
#X text 28 203 semitones just returns the right src from the given
semitone transposition \, e.g. (semitones 12) will return 2;
#X connect 0 0 2 0;
#X connect 1 0 0 1;
#X connect 3 0 4 0;
#X connect 3 1 1 0;
#X connect 4 0 0 0;
#X connect 5 0 3 0;
#X restore 420 295 pd semitone;
#X obj 461 70 inlet transp;
#X obj 502 42 inlet transp-rand;
#X obj 613 530 r \$0-env-sharp-s;
#X obj 177 522 sig~;
#X obj 488 404 sig~;
#X text 40 379 [wrap] between 0 - 1;
#X text 210 379 stay within sound duration;
#X connect 1 0 0 0;
#X connect 2 0 13 0;
#X connect 3 0 4 0;
#X connect 4 0 40 0;
#X connect 5 0 2 0;
#X connect 6 0 1 1;
#X connect 7 0 41 0;
#X connect 8 0 5 0;
#X connect 8 0 11 1;
#X connect 8 0 12 1;
#X connect 8 0 6 0;
#X connect 9 0 8 0;
#X connect 10 0 9 0;
#X connect 11 0 5 1;
#X connect 12 0 2 1;
#X connect 13 0 1 0;
#X connect 14 0 6 1;
#X connect 15 0 7 0;
#X connect 15 0 10 0;
#X connect 16 0 25 1;
#X connect 16 0 15 1;
#X connect 17 0 15 0;
#X connect 18 0 3 0;
#X connect 19 0 20 0;
#X connect 19 0 25 0;
#X connect 19 0 33 0;
#X connect 20 0 22 0;
#X connect 20 0 23 0;
#X connect 21 0 20 1;
#X connect 22 0 21 0;
#X connect 23 0 26 1;
#X connect 24 0 20 1;
#X connect 25 0 19 1;
#X connect 26 0 27 0;
#X connect 27 0 18 0;
#X connect 28 0 24 0;
#X connect 28 0 19 0;
#X connect 29 0 25 2;
#X connect 30 0 26 2;
#X connect 31 0 21 1;
#X connect 31 0 23 1;
#X connect 32 0 3 1;
#X connect 33 0 36 0;
#X connect 34 0 10 0;
#X connect 34 1 10 1;
#X connect 35 0 6 1;
#X connect 36 0 34 0;
#X connect 37 0 33 1;
#X connect 38 0 33 2;
#X connect 39 0 35 0;
#X connect 40 0 12 0;
#X connect 41 0 11 0;
