#N canvas 465 403 534 364 12;
#X obj 240 30 inlet;
#N canvas 129 22 1075 778 parameter 0;
#X obj 46 169 line;
#X floatatom 43 324 5 0 0 0 - - -, f 5;
#X obj 47 118 r \$1-numb-streams;
#X obj 47 198 s \$0-numb-streams-s;
#X obj 42 269 r \$0-numb-streams-r;
#X obj 46 144 pack \$1 5;
#X obj 216 170 line;
#X floatatom 214 314 10 0 0 0 - - -, f 10;
#X obj 216 143 r \$1-out-hop;
#X obj 216 201 s \$0-out-hop-s;
#X obj 215 276 r \$0-out-hop-r;
#X msg 258 248 label \$1;
#X obj 42 294 int;
#X obj 409 169 line;
#X floatatom 408 313 5 0 0 0 - - -, f 5;
#X msg 451 247 label \$1;
#X obj 410 142 r \$1-out-hop-ran;
#X obj 409 200 s \$0-out-hop-ran-s;
#X obj 452 222 makefilename out-hop-ran:%i;
#X obj 408 276 r \$0-out-hop-ran-r;
#X obj 643 172 line;
#X floatatom 642 316 5 0 0 0 - - -, f 5;
#X msg 685 250 label \$1;
#X obj 643 145 r \$1-in-hop;
#X obj 643 203 s \$0-in-hop-s;
#X obj 642 278 r \$0-in-hop-r;
#X obj 847 177 line;
#X floatatom 846 321 5 0 0 0 - - -, f 5;
#X obj 847 150 r \$1-in-hop-ran;
#X obj 847 208 s \$0-in-hop-ran-s;
#X obj 846 283 r \$0-in-hop-ran-r;
#X obj 258 220 makefilename out-hop:%i;
#X obj 129 439 line;
#X floatatom 130 589 5 0 0 0 - - -, f 5;
#X obj 131 476 s \$0-seg-len-s;
#X obj 129 412 r \$1-seg-len;
#X obj 130 551 r \$0-seg-len-r;
#X obj 335 439 line;
#X floatatom 336 589 5 0 0 0 - - -, f 5;
#X obj 335 412 r \$1-transp;
#X obj 337 476 s \$0-transp-s;
#X obj 336 549 r \$0-transp-r;
#X obj 534 436 line;
#X floatatom 535 586 5 0 0 0 - - -, f 5;
#X obj 534 409 r \$1-transp-ran;
#X obj 536 473 s \$0-transp-ran-s;
#X obj 535 546 r \$0-transp-ran-r;
#X obj 757 453 line;
#X floatatom 758 603 5 0 0 0 - - -, f 5;
#X msg 801 537 label \$1;
#X obj 757 426 r \$1-env-sharp;
#X obj 759 490 s \$0-env-sharp-s;
#X obj 802 508 makefilename env-sharp:%i;
#X obj 758 563 r \$0-env-sharp-r;
#X obj 443 706 pack f f f f f f f f;
#X obj 343 26 unpack f f f f f f f f f f;
#X obj 410 356 t b f;
#X obj 643 348 t b f;
#X obj 844 359 t b f;
#X obj 133 617 t b f;
#X obj 336 626 t b f;
#X obj 535 619 t b f;
#X obj 758 627 t b f;
#X obj 344 1 inlet send & receive;
#X obj 443 736 outlet grain parameter;
#X text 551 18 interaction with the sliders and forwarding the parameters
to the streamer;
#X obj 55 717 outlet first metro toggle;
#X msg 60 243 label \$1;
#X obj 60 220 makefilename Streams:%i;
#X obj 685 222 makefilename in-hop:%i;
#X obj 163 515 guilabel seg-len;
#X obj 362 514 guilabel transp;
#X obj 565 511 guilabel transp-ran;
#X obj 876 248 guilabel in-hop-ran;
#X connect 0 0 3 0;
#X connect 1 0 66 0;
#X connect 2 0 5 0;
#X connect 4 0 12 0;
#X connect 4 0 68 0;
#X connect 5 0 0 0;
#X connect 6 0 9 0;
#X connect 7 0 54 0;
#X connect 8 0 6 0;
#X connect 10 0 7 0;
#X connect 10 0 31 0;
#X connect 11 0 9 0;
#X connect 12 0 1 0;
#X connect 13 0 17 0;
#X connect 14 0 56 0;
#X connect 15 0 17 0;
#X connect 16 0 13 0;
#X connect 18 0 15 0;
#X connect 19 0 14 0;
#X connect 19 0 18 0;
#X connect 20 0 24 0;
#X connect 21 0 57 0;
#X connect 22 0 24 0;
#X connect 23 0 20 0;
#X connect 25 0 21 0;
#X connect 25 0 69 0;
#X connect 26 0 29 0;
#X connect 27 0 58 0;
#X connect 28 0 26 0;
#X connect 30 0 27 0;
#X connect 30 0 73 0;
#X connect 31 0 11 0;
#X connect 32 0 34 0;
#X connect 33 0 59 0;
#X connect 35 0 32 0;
#X connect 36 0 33 0;
#X connect 36 0 70 0;
#X connect 37 0 40 0;
#X connect 38 0 60 0;
#X connect 39 0 37 0;
#X connect 41 0 38 0;
#X connect 41 0 71 0;
#X connect 42 0 45 0;
#X connect 43 0 61 0;
#X connect 44 0 42 0;
#X connect 46 0 43 0;
#X connect 46 0 72 0;
#X connect 47 0 51 0;
#X connect 48 0 62 0;
#X connect 49 0 51 0;
#X connect 50 0 47 0;
#X connect 52 0 49 0;
#X connect 53 0 48 0;
#X connect 53 0 52 0;
#X connect 54 0 64 0;
#X connect 55 0 5 0;
#X connect 55 1 6 0;
#X connect 55 2 13 0;
#X connect 55 3 20 0;
#X connect 55 4 26 0;
#X connect 55 5 32 0;
#X connect 55 6 37 0;
#X connect 55 7 42 0;
#X connect 55 8 47 0;
#X connect 55 9 6 1;
#X connect 55 9 13 1;
#X connect 55 9 20 1;
#X connect 55 9 26 1;
#X connect 55 9 32 1;
#X connect 55 9 37 1;
#X connect 55 9 42 1;
#X connect 55 9 47 1;
#X connect 56 0 54 0;
#X connect 56 1 54 1;
#X connect 57 0 54 0;
#X connect 57 1 54 2;
#X connect 58 0 54 0;
#X connect 58 1 54 3;
#X connect 59 0 54 0;
#X connect 59 1 54 4;
#X connect 60 0 54 0;
#X connect 60 1 54 5;
#X connect 61 0 54 0;
#X connect 61 1 54 6;
#X connect 62 0 54 0;
#X connect 62 1 54 7;
#X connect 63 0 55 0;
#X connect 67 0 3 0;
#X connect 68 0 67 0;
#X connect 69 0 22 0;
#X connect 70 0 34 0;
#X connect 71 0 40 0;
#X connect 72 0 45 0;
#X connect 73 0 29 0;
#X restore 243 83 pd parameter send & receive;
#X obj 0 0 cnv 15 200 200 empty empty Granulator 35 15 0 12 -233017
-1 0;
#X obj 43 130 hsl 128 15 -12 12 0 0 \$0-transp-r \$0-transp-s transp:0
20 8 0 10 -262144 -258113 -1 0 1;
#X obj 43 115 hsl 128 15 0.01 1 0 0 \$0-seg-len-r \$0-seg-len-s seg-len:0.5
20 8 0 10 -262144 -258113 -1 0 1;
#X obj 43 85 hsl 128 15 1 5000 1 0 \$0-in-hop-r \$0-in-hop-s in-hop:500
20 8 0 10 -262144 -258113 -1 0 1;
#X obj 43 55 hsl 128 15 5 1000 0 0 \$0-out-hop-r \$0-out-hop-s out-hop:40
20 8 0 10 -262144 -258113 -1 0 1;
#X obj 43 70 hsl 128 15 0 500 0 0 \$0-out-hop-ran-r \$0-out-hop-ran-s
out-hop-ran:82 20 8 0 10 -262144 -258113 -1 2100 1;
#X obj 43 160 hsl 128 15 0 10 0 1 \$0-env-sharp-r \$0-env-sharp-s env-sharp:2
20 8 0 10 -262144 -258113 -1 6470 1;
#X obj 43 100 hsl 128 15 0 0.5 0 0 \$0-in-hop-ran-r \$0-in-hop-ran-s
in-hop-ran:0 20 8 0 10 -262144 -258113 -1 0 1;
#X obj 43 145 hsl 128 15 0 12 0 0 \$0-transp-ran-r \$0-transp-ran-s
transp-ran:0 20 8 0 10 -262144 -258113 -1 0 1;
#X obj 26 57 vsl 15 115 0 20 0 0 \$0-numb-streams-r \$0-numb-streams-s
Streams:5 0 -12 0 10 -262144 -258113 -1 0 1;
#N canvas 51 100 1229 750 streams 0;
#X obj 599 707 outlet~;
#X obj 147 81 > 0;
#X obj 193 81 > 1;
#X obj 241 81 > 2;
#X obj 286 81 > 3;
#X obj 328 81 > 4;
#X obj 147 147 tgl 15 0 empty empty empty 0 -6 0 8 -262144 -1 -1 0
1;
#X obj 192 145 tgl 15 0 empty empty empty 0 -6 0 8 -262144 -1 -1 0
1;
#X obj 240 148 tgl 15 0 empty empty empty 0 -6 0 8 -262144 -1 -1 0
1;
#X obj 281 150 tgl 15 0 empty empty empty 0 -6 0 8 -262144 -1 -1 0
1;
#X obj 331 153 tgl 15 0 empty empty empty 0 -6 0 8 -262144 -1 -1 0
1;
#X obj 373 153 tgl 15 0 empty empty empty 0 -6 0 8 -262144 -1 -1 0
1;
#X obj 421 153 tgl 15 0 empty empty empty 0 -6 0 8 -262144 -1 -1 0
1;
#X obj 468 153 tgl 15 0 empty empty empty 0 -6 0 8 -262144 -1 -1 0
1;
#X obj 516 153 tgl 15 0 empty empty empty 0 -6 0 8 -262144 -1 -1 0
1;
#X obj 556 157 tgl 15 0 empty empty empty 0 -6 0 8 -262144 -1 -1 0
1;
#X obj 606 157 tgl 15 0 empty empty empty 0 -6 0 8 -262144 -1 -1 0
1;
#X obj 654 153 tgl 15 0 empty empty empty 0 -6 0 8 -262144 -1 -1 0
1;
#X obj 701 153 tgl 15 0 empty empty empty 0 -6 0 8 -262144 -1 -1 0
1;
#X obj 752 157 tgl 15 0 empty empty empty 0 -6 0 8 -262144 -1 -1 0
1;
#X obj 800 157 tgl 15 0 empty empty empty 0 -6 0 8 -262144 -1 -1 0
1;
#X obj 369 86 > 5;
#X obj 418 86 > 6;
#X obj 466 86 > 7;
#X obj 511 86 > 8;
#X obj 553 86 > 9;
#X obj 601 85 > 10;
#X obj 651 85 > 11;
#X obj 699 85 > 12;
#X obj 747 85 > 13;
#X obj 797 85 > 14;
#X obj 147 117 change;
#X obj 191 118 change;
#X obj 241 118 change;
#X obj 284 118 change;
#X obj 328 117 change;
#X obj 375 118 change;
#X obj 419 120 change;
#X obj 464 118 change;
#X obj 511 121 change;
#X obj 556 122 change;
#X obj 603 126 change;
#X obj 651 127 change;
#X obj 701 127 change;
#X obj 753 126 change;
#X obj 800 124 change;
#X obj 855 156 tgl 15 0 empty empty empty 0 -6 0 8 -262144 -1 -1 0
1;
#X obj 903 156 tgl 15 0 empty empty empty 0 -6 0 8 -262144 -1 -1 0
1;
#X obj 853 123 change;
#X obj 902 120 change;
#X obj 850 84 > 15;
#X obj 900 84 > 16;
#X obj 994 153 tgl 15 0 empty empty empty 0 -6 0 8 -262144 -1 -1 0
1;
#X obj 994 118 change;
#X obj 948 156 tgl 15 0 empty empty empty 0 -6 0 8 -262144 -1 -1 0
1;
#X obj 949 121 change;
#X obj 1036 154 tgl 15 0 empty empty empty 0 -6 0 8 -262144 -1 -1 0
1;
#X obj 945 84 > 17;
#X obj 991 81 > 18;
#X obj 1033 82 > 19;
#X obj 60 209 expr 1 / $f1;
#X floatatom 1046 359 5 0 0 0 - - -, f 5;
#X obj 60 151 int;
#X obj 1037 118 change;
#X obj 60 183 max 1;
#X obj 1011 410 pipe;
#X floatatom 237 357 5 0 0 0 - - -, f 5;
#X obj 200 405 pipe;
#X floatatom 1087 174 5 0 0 0 out_hop - -, f 5;
#X obj 222 380 *;
#X obj 1031 383 *;
#X floatatom 282 359 5 0 0 0 - - -, f 5;
#X obj 246 404 pipe;
#X obj 267 381 *;
#X obj 597 18 inlet number of streams;
#X obj 1064 429 inlet grain parameter;
#X floatatom 326 359 5 0 0 0 - - -, f 5;
#X obj 290 404 pipe;
#X obj 311 381 *;
#X floatatom 369 359 5 0 0 0 - - -, f 5;
#X obj 333 404 pipe;
#X obj 354 381 *;
#X floatatom 412 360 5 0 0 0 - - -, f 5;
#X obj 376 405 pipe;
#X obj 397 382 *;
#X floatatom 456 360 5 0 0 0 - - -, f 5;
#X obj 420 405 pipe;
#X obj 441 382 *;
#X floatatom 507 360 5 0 0 0 - - -, f 5;
#X obj 471 405 pipe;
#X obj 492 382 *;
#X floatatom 550 360 5 0 0 0 - - -, f 5;
#X obj 514 405 pipe;
#X obj 535 382 *;
#X floatatom 610 362 5 0 0 0 - - -, f 5;
#X obj 574 407 pipe;
#X obj 595 384 *;
#X floatatom 653 363 5 0 0 0 - - -, f 5;
#X obj 617 408 pipe;
#X obj 638 385 *;
#X floatatom 696 363 5 0 0 0 - - -, f 5;
#X obj 660 408 pipe;
#X obj 681 385 *;
#X floatatom 739 363 5 0 0 0 - - -, f 5;
#X obj 703 408 pipe;
#X obj 724 385 *;
#X floatatom 782 362 5 0 0 0 - - -, f 5;
#X obj 746 407 pipe;
#X obj 767 384 *;
#X floatatom 825 362 5 0 0 0 - - -, f 5;
#X obj 789 407 pipe;
#X obj 810 384 *;
#X floatatom 869 361 5 0 0 0 - - -, f 5;
#X obj 833 406 pipe;
#X obj 854 383 *;
#X floatatom 915 362 5 0 0 0 - - -, f 5;
#X obj 879 407 pipe;
#X obj 900 384 *;
#X floatatom 960 362 5 0 0 0 - - -, f 5;
#X obj 924 407 pipe;
#X obj 945 384 *;
#X floatatom 1003 360 5 0 0 0 - - -, f 5;
#X obj 968 407 pipe;
#X obj 989 384 *;
#X obj 1065 456 t l f;
#X obj 153 407 pipe;
#X obj 411 593 grain-stream \$1;
#X obj 1092 484 max 1;
#X obj 126 595 grain-stream \$1;
#X obj 499 598 grain-stream \$1;
#X obj 185 563 grain-stream \$1;
#X obj 217 592 grain-stream \$1;
#X obj 276 561 grain-stream \$1;
#X obj 313 594 grain-stream \$1;
#X obj 368 566 grain-stream \$1;
#X obj 464 573 grain-stream \$1;
#X obj 571 571 grain-stream \$1;
#X obj 616 597 grain-stream \$1;
#X obj 666 569 grain-stream \$1;
#X obj 717 599 grain-stream \$1;
#X obj 765 572 grain-stream \$1;
#X obj 821 599 grain-stream \$1;
#X obj 868 572 grain-stream \$1;
#X obj 915 600 grain-stream \$1;
#X obj 959 569 grain-stream \$1;
#X obj 1003 598 grain-stream \$1;
#X obj 1045 569 grain-stream \$1;
#X connect 1 0 31 0;
#X connect 2 0 32 0;
#X connect 3 0 33 0;
#X connect 4 0 34 0;
#X connect 5 0 35 0;
#X connect 6 0 125 0;
#X connect 6 0 128 1;
#X connect 7 0 130 1;
#X connect 8 0 131 1;
#X connect 9 0 132 1;
#X connect 10 0 133 1;
#X connect 11 0 134 1;
#X connect 12 0 126 1;
#X connect 13 0 135 1;
#X connect 14 0 129 1;
#X connect 15 0 136 1;
#X connect 16 0 137 1;
#X connect 17 0 138 1;
#X connect 18 0 139 1;
#X connect 19 0 140 1;
#X connect 20 0 141 1;
#X connect 21 0 36 0;
#X connect 22 0 37 0;
#X connect 23 0 38 0;
#X connect 24 0 39 0;
#X connect 25 0 40 0;
#X connect 26 0 41 0;
#X connect 27 0 42 0;
#X connect 28 0 43 0;
#X connect 29 0 44 0;
#X connect 30 0 45 0;
#X connect 31 0 6 0;
#X connect 32 0 7 0;
#X connect 33 0 8 0;
#X connect 34 0 9 0;
#X connect 35 0 10 0;
#X connect 36 0 11 0;
#X connect 37 0 12 0;
#X connect 38 0 13 0;
#X connect 39 0 14 0;
#X connect 40 0 15 0;
#X connect 41 0 16 0;
#X connect 42 0 17 0;
#X connect 43 0 18 0;
#X connect 44 0 19 0;
#X connect 45 0 20 0;
#X connect 46 0 142 1;
#X connect 47 0 143 1;
#X connect 48 0 46 0;
#X connect 49 0 47 0;
#X connect 50 0 48 0;
#X connect 51 0 49 0;
#X connect 52 0 145 1;
#X connect 53 0 52 0;
#X connect 54 0 144 1;
#X connect 55 0 54 0;
#X connect 56 0 146 1;
#X connect 57 0 55 0;
#X connect 58 0 53 0;
#X connect 59 0 63 0;
#X connect 60 0 61 0;
#X connect 60 0 66 0;
#X connect 60 0 71 0;
#X connect 60 0 76 0;
#X connect 60 0 79 0;
#X connect 60 0 82 0;
#X connect 60 0 85 0;
#X connect 60 0 88 0;
#X connect 60 0 91 0;
#X connect 60 0 94 0;
#X connect 60 0 97 0;
#X connect 60 0 100 0;
#X connect 60 0 103 0;
#X connect 60 0 106 0;
#X connect 60 0 109 0;
#X connect 60 0 112 0;
#X connect 60 0 115 0;
#X connect 60 0 118 0;
#X connect 60 0 121 0;
#X connect 61 0 70 1;
#X connect 62 0 64 0;
#X connect 63 0 56 0;
#X connect 64 0 60 0;
#X connect 65 0 146 0;
#X connect 66 0 69 1;
#X connect 67 0 72 0;
#X connect 67 0 130 0;
#X connect 68 0 69 0;
#X connect 68 0 70 0;
#X connect 68 0 73 0;
#X connect 68 0 78 0;
#X connect 68 0 81 0;
#X connect 68 0 84 0;
#X connect 68 0 87 0;
#X connect 68 0 90 0;
#X connect 68 0 93 0;
#X connect 68 0 96 0;
#X connect 68 0 99 0;
#X connect 68 0 102 0;
#X connect 68 0 105 0;
#X connect 68 0 108 0;
#X connect 68 0 111 0;
#X connect 68 0 114 0;
#X connect 68 0 117 0;
#X connect 68 0 120 0;
#X connect 68 0 123 0;
#X connect 69 0 67 1;
#X connect 70 0 65 1;
#X connect 71 0 73 1;
#X connect 72 0 77 0;
#X connect 72 0 131 0;
#X connect 73 0 72 1;
#X connect 74 0 1 0;
#X connect 74 0 2 0;
#X connect 74 0 3 0;
#X connect 74 0 4 0;
#X connect 74 0 5 0;
#X connect 74 0 21 0;
#X connect 74 0 22 0;
#X connect 74 0 23 0;
#X connect 74 0 24 0;
#X connect 74 0 25 0;
#X connect 74 0 26 0;
#X connect 74 0 27 0;
#X connect 74 0 28 0;
#X connect 74 0 29 0;
#X connect 74 0 30 0;
#X connect 74 0 50 0;
#X connect 74 0 51 0;
#X connect 74 0 57 0;
#X connect 74 0 58 0;
#X connect 74 0 59 0;
#X connect 74 0 62 0;
#X connect 75 0 124 0;
#X connect 76 0 78 1;
#X connect 77 0 80 0;
#X connect 77 0 132 0;
#X connect 78 0 77 1;
#X connect 79 0 81 1;
#X connect 80 0 83 0;
#X connect 80 0 133 0;
#X connect 81 0 80 1;
#X connect 82 0 84 1;
#X connect 83 0 86 0;
#X connect 83 0 134 0;
#X connect 84 0 83 1;
#X connect 85 0 87 1;
#X connect 86 0 89 0;
#X connect 86 0 126 0;
#X connect 87 0 86 1;
#X connect 88 0 90 1;
#X connect 89 0 92 0;
#X connect 89 0 135 0;
#X connect 90 0 89 1;
#X connect 91 0 93 1;
#X connect 92 0 95 0;
#X connect 92 0 129 0;
#X connect 93 0 92 1;
#X connect 94 0 96 1;
#X connect 95 0 98 0;
#X connect 95 0 136 0;
#X connect 96 0 95 1;
#X connect 97 0 99 1;
#X connect 98 0 101 0;
#X connect 98 0 137 0;
#X connect 99 0 98 1;
#X connect 100 0 102 1;
#X connect 101 0 104 0;
#X connect 101 0 138 0;
#X connect 102 0 101 1;
#X connect 103 0 105 1;
#X connect 104 0 107 0;
#X connect 104 0 139 0;
#X connect 105 0 104 1;
#X connect 106 0 108 1;
#X connect 107 0 110 0;
#X connect 107 0 140 0;
#X connect 108 0 107 1;
#X connect 109 0 111 1;
#X connect 110 0 113 0;
#X connect 110 0 141 0;
#X connect 111 0 110 1;
#X connect 112 0 114 1;
#X connect 113 0 116 0;
#X connect 113 0 142 0;
#X connect 114 0 113 1;
#X connect 115 0 117 1;
#X connect 116 0 119 0;
#X connect 116 0 143 0;
#X connect 117 0 116 1;
#X connect 118 0 120 1;
#X connect 119 0 122 0;
#X connect 119 0 144 0;
#X connect 120 0 119 1;
#X connect 121 0 123 1;
#X connect 122 0 145 0;
#X connect 123 0 122 1;
#X connect 124 0 126 2;
#X connect 124 0 128 2;
#X connect 124 0 129 2;
#X connect 124 0 130 2;
#X connect 124 0 131 2;
#X connect 124 0 132 2;
#X connect 124 0 133 2;
#X connect 124 0 134 2;
#X connect 124 0 135 2;
#X connect 124 0 136 2;
#X connect 124 0 137 2;
#X connect 124 0 138 2;
#X connect 124 0 139 2;
#X connect 124 0 140 2;
#X connect 124 0 141 2;
#X connect 124 0 142 2;
#X connect 124 0 143 2;
#X connect 124 0 144 2;
#X connect 124 0 145 2;
#X connect 124 0 146 2;
#X connect 124 1 127 0;
#X connect 125 0 67 0;
#X connect 125 0 128 0;
#X connect 126 0 0 0;
#X connect 127 0 68 0;
#X connect 128 0 0 0;
#X connect 129 0 0 0;
#X connect 130 0 0 0;
#X connect 131 0 0 0;
#X connect 132 0 0 0;
#X connect 133 0 0 0;
#X connect 134 0 0 0;
#X connect 135 0 0 0;
#X connect 136 0 0 0;
#X connect 137 0 0 0;
#X connect 138 0 0 0;
#X connect 139 0 0 0;
#X connect 140 0 0 0;
#X connect 141 0 0 0;
#X connect 142 0 0 0;
#X connect 143 0 0 0;
#X connect 144 0 0 0;
#X connect 145 0 0 0;
#X connect 146 0 0 0;
#X restore 244 137 pd streams;
#X obj 294 30 r \$1-granulator;
#X obj 333 163 expr 1 / $f1;
#X obj 246 235 *~;
#X obj 334 195 sig~;
#X floatatom 387 202 5 0 0 0 - - -, f 5;
#X obj 333 138 max 1;
#X obj 239 303 dac~;
#X connect 0 0 1 0;
#X connect 1 0 12 0;
#X connect 1 0 18 0;
#X connect 1 1 12 1;
#X connect 12 0 15 0;
#X connect 13 0 1 0;
#X connect 14 0 17 0;
#X connect 14 0 16 0;
#X connect 15 0 19 0;
#X connect 15 0 19 1;
#X connect 16 0 15 1;
#X connect 18 0 14 0;
#X coords 0 -1 1 1 200 200 2 0 0;
