#N canvas 502 106 451 513 10;
#X declare -path abs -path qlists;
#X obj 3 3 cnv 15 440 60 empty empty <Title> 20 30 0 22 -228856 -66577
0;
#X obj 333 232 output 1;
#N canvas 1040 404 442 221 init 0;
#X obj 59 27 loadbang;
#X obj 58 88 declare -path abs -path qlists;
#X obj 58 129 8in~;
#X obj 57 165 8out~;
#X text 122 26 general initialisation with [loadbang];
#X text 256 90 search paths for subfolder;
#X text 102 129 patch matrix physical inputs -> patch inputs;
#X text 102 165 patch matrix patch outputs -> physical outputs;
#X restore 361 12 pd init;
#N canvas 1179 438 309 154 info 0;
#X text 32 31 (c) 2001 by <name of composer>;
#X text 31 55 for Violin \, Voice \, Live-Electronics;
#X text 32 106 see README.txt for instructions;
#X restore 362 36 pd info;
#X obj 3 66 chan1 1 Violine;
#X obj 168 66 chan2 2 Stimme;
#X obj 333 66 dspp;
#X obj 391 233 output 2;
#X obj 333 120 clock;
