#N canvas 589 32 549 603 12;
#N canvas 0 23 588 523 example 0;
#X obj 85 131 phasor~;
#X obj 85 227 cos~;
#X obj 68 328 *~ 0.5;
#N canvas 0 22 450 300 (subpatch) 0;
#X array cos-scaled2 44100 float 0;
#X coords 0 1.02 44100 -1.02 200 100 1;
#X restore 346 368 graph;
#N canvas 0 22 450 300 (subpatch) 0;
#X array cos2 44100 float 0;
#X coords 0 1.02 44100 -1.02 200 100 1;
#X restore 346 245 graph;
#X obj 28 227 sig~ 1;
#X msg 164 151 bang;
#X obj 67 294 -~;
#N canvas 0 22 450 300 (subpatch) 0;
#X array phasor2 44100 float 0;
#X coords 0 1.02 44100 -1.02 200 100 1;
#X restore 345 124 graph;
#X obj 190 204 tabwrite~ phasor2;
#X obj 85 103 sig~;
#X obj 85 40 loadbang;
#X obj 209 323 tabwrite~ cos2;
#X obj 164 447 tabwrite~ cos-scaled2;
#X msg 86 74 2;
#X text 187 384 scaled cos func;
#X text 198 39 Create a hanning window from a phasor;
#X connect 0 0 1 0;
#X connect 0 0 9 0;
#X connect 1 0 7 1;
#X connect 1 0 12 0;
#X connect 2 0 13 0;
#X connect 5 0 7 0;
#X connect 6 0 9 0;
#X connect 6 0 12 0;
#X connect 6 0 13 0;
#X connect 7 0 2 0;
#X connect 10 0 0 0;
#X connect 11 0 6 0;
#X connect 11 0 14 0;
#X connect 14 0 10 0;
#X restore 55 329 pd example;
#N canvas 0 22 450 300 (subpatch) 0;
#X array array99 100 float 0;
#X coords 0 1 100 -1 200 100 1;
#X restore 224 185 graph;
#X obj 55 292 tabwrite~ array99;
#X obj 55 121 sig~ 2;
#X obj 55 182 *~;
#X obj 112 190 loadbang;
#X obj 73 154 phasor~ 880;
#X text 50 360 [snapshot~] converts a signal to a number whenever it receives a bang in its left outlet. This object is particularly useful for monitoring outputs.;
#X obj 51 505 snapshot~;
#X floatatom 51 534 0 0 0 0 - - - 0;
#X text 139 536 This output updates each time bang is clicked above.;
#X obj 51 422 osc~ 0.1;
#X text 123 422 signal in to take snapshots of;
#X text 53 14 Conversion between control and audio objects;
#X obj 55 221 -~ 1;
#X msg 112 224 \; pd dsp 1 \; metro-tgl 1;
#X obj 65 448 tgl 15 0 empty metro-tgl empty 17 7 0 10 #fcfcfc #000000 #000000 0 1;
#X text 53 45 [sig~] converts control numbers into audio signals p.e. to included mathematical operations in audio streams. In the following example a [phasor~] (uniplolar signal) is converted to a sawtooth (bipolar signal).;
#X obj 65 471 metro 50;
#X connect 3 0 4 0;
#X connect 4 0 14 0;
#X connect 5 0 15 0;
#X connect 5 0 2 0;
#X connect 6 0 4 1;
#X connect 8 0 9 0;
#X connect 11 0 8 0;
#X connect 14 0 2 0;
#X connect 16 0 18 0;
#X connect 18 0 8 0;
