#N canvas 702 115 613 367 12;
#X text 43 311 https://forum.pdpatchrepo.info/topic/805/send-receive-problem, f 63;
#X text 43 292 https://forum.pdpatchrepo.info/topic/6537/throw-and-catch;
#X text 46 16 Differences throw~/catch~ vs. send~/receive~;
#X text 44 215 [send~]/[receive~] is computationally more efficient as you can just point to the [send~] input buffer. But with [throw~]/[catch~] you have to multiplex the signals together.;
#X text 194 100 One [send~] to multiple [receive~]s with the same name.;
#X text 193 136 Multiple [throw~]s to one [catch~] with the same name.;
#N canvas 1143 752 450 300 throw~/catch~ 0;
#X obj 59 49 sig~;
#X obj 62 20 hsl 128 15 0 127 0 0 empty empty empty -2 -8 0 10 #fcfcfc #000000 #000000 0 1;
#X obj 176 177 bang~;
#X obj 156 216 snapshot~;
#X floatatom 157 241 0 0 0 0 - - - 0;
#X obj 59 77 throw~ bus1;
#X obj 231 49 sig~;
#X obj 234 20 hsl 128 15 0 127 0 0 empty empty empty -2 -8 0 10 #fcfcfc #000000 #000000 0 1;
#X obj 231 77 throw~ bus1;
#X obj 156 141 catch~ bus1;
#X connect 0 0 5 0;
#X connect 1 0 0 0;
#X connect 2 0 3 0;
#X connect 3 0 4 0;
#X connect 6 0 8 0;
#X connect 7 0 6 0;
#X connect 9 0 3 0;
#X restore 49 134 pd throw~/catch~;
#N canvas 969 300 450 300 send~/receive~ 0;
#X obj 59 49 sig~;
#X obj 62 20 hsl 128 15 0 127 0 0 empty empty empty -2 -8 0 10 #fcfcfc #000000 #000000 0 1;
#X obj 59 77 send~ val1;
#X obj 60 134 receive~ val1;
#X obj 80 170 bang~;
#X obj 60 209 snapshot~;
#X floatatom 61 234 0 0 0 0 - - - 0;
#X obj 194 135 receive~ val1;
#X obj 214 171 bang~;
#X obj 194 210 snapshot~;
#X floatatom 195 235 0 0 0 0 - - - 0;
#X connect 0 0 2 0;
#X connect 1 0 0 0;
#X connect 3 0 5 0;
#X connect 4 0 5 0;
#X connect 5 0 6 0;
#X connect 7 0 9 0;
#X connect 8 0 9 0;
#X connect 9 0 10 0;
#X restore 48 100 pd send~/receive~;
#X obj 431 17 loadbang;
#X msg 431 48 \; pd dsp 1;
#N canvas 121 146 523 356 s~/r~ 0;
#X obj 64 240 s~ channel-1;
#X obj 238 211 throw~ channel-1;
#X obj 63 311 dac~ 1;
#X obj 63 272 r~ channel-1;
#X obj 64 112 *~ 0.2;
#X obj 238 274 catch~ channel-1;
#X obj 238 304 dac~ 2;
#X obj 64 81 osc~ 300;
#X obj 238 177 *~ 0.1;
#X obj 238 144 noise~;
#X obj 111 210 throw~ channel-1;
#X obj 129 156 tgl 19 0 empty empty empty 0 -10 0 12 #fcfcfc #000000 #000000 0 1;
#X obj 111 182 *~;
#X obj 82 181 tgl 19 0 empty empty empty 0 -10 0 12 #fcfcfc #000000 #000000 0 1;
#X obj 64 207 *~;
#X text 64 19 It is possible to use one name for either send~ and receive~ or throw~ and catch~ without interfering. Throw~ is ONLY received from the according catch~.;
#X connect 3 0 2 0;
#X connect 4 0 12 0;
#X connect 4 0 14 0;
#X connect 5 0 6 0;
#X connect 7 0 4 0;
#X connect 8 0 1 0;
#X connect 9 0 8 0;
#X connect 11 0 12 1;
#X connect 12 0 10 0;
#X connect 13 0 14 1;
#X connect 14 0 0 0;
#X restore 48 170 pd s~/r~ vs. throw~/catch~;
#X text 248 171 Using both with the same name.;
#X connect 8 0 9 0;
