#N canvas 383 204 496 525 12;
#X floatatom 153 245 5 0 0 0 - - - 0;
#X floatatom 200 245 5 0 0 0 - - - 0;
#X floatatom 248 246 5 0 0 0 - - - 0;
#X obj 153 406 snake~ out 3, f 13;
#X text 32 24 Sound engineers call multi-channel audio cables "snakes." The [snake~] object can be invoked as [snake~ in] to create a muiltichannel signal from a set of single-channel ones \, or [snake~ out] to extract the channels in a multi-channel signal. Typing just [snake~] defaults to [snake~ in]. In either case \, a numeric argument sets the number of channels., f 59;
#X obj 153 280 osc~;
#X obj 200 279 osc~;
#X obj 248 280 osc~;
#X obj 153 216 unpack f f f, f 14;
#X obj 153 479 dac~ 1 2 3, f 13;
#X msg 159 440 set 2 1 2;
#X obj 153 378 *~ 0.5;
#X obj 195 345 hsl 162 19 0 1 0 0 empty empty empty -2 -10 0 12 #fcfcfc #000000 #000000 0 1;
#X text 367 347 general volume;
#X text 254 481 multichannel output;
#X msg 167 178 100 150 280;
#X msg 153 144 220 300 500;
#X obj 36 317 snake~ in 3;
#X obj 153 315 snake~ 3, f 14;
#X text 125 316 OR;
#X text 259 316 arg: number of in channels;
#X text 254 407 arg: number of out channels;
#X connect 0 0 5 0;
#X connect 1 0 6 0;
#X connect 2 0 7 0;
#X connect 3 0 9 0;
#X connect 3 1 9 1;
#X connect 3 2 9 2;
#X connect 5 0 18 0;
#X connect 6 0 18 1;
#X connect 7 0 18 2;
#X connect 8 0 0 0;
#X connect 8 1 1 0;
#X connect 8 2 2 0;
#X connect 10 0 9 0;
#X connect 11 0 3 0;
#X connect 12 0 11 1;
#X connect 15 0 8 0;
#X connect 16 0 8 0;
#X connect 18 0 11 0;
