#N canvas 89 23 1191 720 12;
#X obj 56 530 vline~;
#X msg 56 498 \$1 \, \$2 \$3;
#X obj 56 439 f;
#X obj 156 354 t b f;
#X obj 125 389 /;
#X obj 313 207 sel 1 0;
#X obj 310 414 timer;
#X msg 331 355 stop;
#X obj 344 523 *;
#X obj 362 497 / 1000;
#X obj 362 471 samplerate~;
#X obj 310 442 t f b;
#X obj 52 136 samplerate~;
#X msg 52 215 resize \$1;
#X obj 56 468 pack f f f;
#X obj 270 544 metro;
#X floatatom 133 214 10 0 0 0 - - -;
#X obj 56 357 t b b;
#X obj 309 469 t f f;
#X obj 418 109 route once loop;
#X text 85 165 init buffer size (secs);
#X text 426 300 resize to max=30'' \; for every rec;
#X msg 519 439 \; \$1 normalize;
#X obj 312 266 t b b b;
#X obj 402 266 t b b b;
#X obj 127 84 loadbang;
#N canvas 0 23 450 300 env 1;
#X obj 65 57 inlet~;
#X obj 65 225 outlet~;
#X obj 122 59 inlet;
#X text 184 165 kleiner env (kill klicks);
#X obj 118 149 line~;
#X obj 65 186 *~;
#X obj 119 126 pack f 10;
#X connect 0 0 5 0;
#X connect 2 0 6 0;
#X connect 4 0 5 1;
#X connect 5 0 1 0;
#X connect 6 0 4 0;
#X restore 276 167 pd env;
#X obj 342 122 t f f;
#X text 469 224 wegen env on mic;
#X obj 197 88 r reset;
#X msg 270 496 0;
#X obj 118 637 sel 0;
#X text 115 656 autooff loop if mute;
#N canvas 275 81 597 584 env 0;
#X obj 37 37 inlet~;
#X obj 42 453 outlet~;
#X obj 66 355 line~;
#X obj 42 379 *~;
#X text 101 36 simple on/off env;
#X obj 166 109 inlet;
#X obj 67 95 loadbang;
#X msg 68 125 0;
#X text 67 73 init mute;
#X msg 230 154 1 5000 5000 0 3000;
#X obj 219 290 delay;
#X obj 159 223 pack;
#X text 162 242 att;
#X obj 259 347 pack f f;
#X obj 259 322 f;
#X text 193 310 sus;
#X text 248 372 rel;
#X text 219 104 asr type env \; attTrgt att-dur sus-dur relTrgt rel-dur
;
#N canvas 0 23 450 300 unsig~ 0;
#X obj 53 209 outlet;
#X obj 58 15 inlet~;
#X obj 57 101 snapshot~;
#X obj 73 73 metro 50;
#X obj 75 49 loadbang;
#X floatatom 53 129 5 0 0 0 - - -;
#X connect 1 0 2 0;
#X connect 2 0 5 0;
#X connect 3 0 2 0;
#X connect 4 0 3 0;
#X connect 5 0 0 0;
#X restore 140 395 pd unsig~;
#X text 219 403 get 0 to kill loop;
#X obj 142 447 outlet;
#X obj 143 424 hsl 128 15 0 1 0 0 empty empty empty -2 -8 0 10 -262144
-1 -1 0 1;
#X obj 181 185 unpack f f f f f, f 22;
#X obj 209 266 delay;
#X obj 207 239 t b f;
#X connect 0 0 3 0;
#X connect 2 0 3 1;
#X connect 2 0 18 0;
#X connect 3 0 1 0;
#X connect 5 0 22 0;
#X connect 6 0 7 0;
#X connect 7 0 2 0;
#X connect 9 0 22 0;
#X connect 10 0 14 0;
#X connect 11 0 2 0;
#X connect 13 0 2 0;
#X connect 14 0 13 0;
#X connect 18 0 21 0;
#X connect 21 0 20 0;
#X connect 22 0 11 0;
#X connect 22 1 11 1;
#X connect 22 1 24 0;
#X connect 22 2 10 1;
#X connect 22 3 14 1;
#X connect 22 4 13 1;
#X connect 23 0 10 0;
#X connect 24 0 23 0;
#X connect 24 1 23 1;
#X restore 53 617 pd env;
#X obj 117 614 change;
#X obj 1013 130 hsl 128 15 -24 24 0 0 empty \$1-set-freq semitones
30 8 1 12 -262144 -1 -1 6350 1;
#N canvas 486 223 557 285 semitones 0;
#X obj 44 126 pow 2;
#X obj 81 99 / 12;
#X obj 44 155 outlet;
#X obj 44 74 t b f;
#X msg 44 99 2;
#X obj 44 48 inlet;
#X text 32 187 semitones just returns the right src from the given
semitone transposition \, e.g. (semitones 12) will return 2;
#X connect 0 0 2 0;
#X connect 1 0 0 1;
#X connect 3 0 4 0;
#X connect 3 1 1 0;
#X connect 4 0 0 0;
#X connect 5 0 3 0;
#X restore 1010 212 pd semitones;
#X floatatom 1010 239 7 0 0 0 - - -;
#X floatatom 1010 186 5 0 0 0 - - -;
#X obj 1010 158 int;
#X obj 714 130 hsl 128 15 0 1 0 0 empty \$1-set-start start 50 8 1
12 -262144 -1 -1 0 1;
#X obj 710 239 *;
#X floatatom 710 295 10 0 0 0 - - -;
#X floatatom 884 505 10 0 0 0 - - -;
#X obj 860 130 hsl 128 15 0 1 0 0 empty \$1-set-end end 50 8 1 12 -262144
-1 -1 12700 1;
#X floatatom 709 511 10 0 0 1 - - -;
#X obj 710 266 int;
#X floatatom 711 153 8 0 0 0 - - -;
#X floatatom 857 152 8 0 0 0 - - -;
#X obj 741 459 / 1000;
#X obj 709 484 /;
#X obj 857 234 *;
#X floatatom 857 290 10 0 0 0 - - -;
#X obj 857 261 int;
#X obj 884 452 -;
#X obj 884 479 abs;
#X obj 895 424 t b f;
#X obj 741 434 samplerate~;
#X obj 709 408 t f b;
#X obj 728 207 t b f;
#X obj 875 204 t b f;
#X obj 712 31 loadbang;
#X text 708 110 Set different start- and endpoints(start:1 end:0 =
backward);
#X obj 710 77 unpack f f f;
#X msg 710 54 0 1 0;
#X obj 779 31 inlet params;
#X text 304 29 pno ignal in;
#X obj 49 681 outlet~;
#X obj 126 108 t b b;
#X obj 470 490 print;
#X obj 464 384 bng 15 250 50 0 empty empty empty 17 7 0 10 -262144
-1 -1;
#X obj 52 86 r \$1-init;
#X obj 133 189 r \$1-smp;
#X obj 56 333 r \$1-play;
#X obj 127 303 r \$1-base-time;
#X obj 155 328 r \$1-semi;
#X obj 74 411 r \$1-start;
#X obj 89 438 r \$1-end;
#X obj 93 589 r \$1-env;
#X obj 267 520 r \$1-loop;
#X obj 269 569 s \$1-play;
#X obj 346 569 s \$1-smp;
#X obj 342 96 r \$1-rec;
#X obj 418 82 r \$1-play;
#X obj 418 136 s \$1-play;
#X obj 468 189 s \$1-loop;
#X obj 729 180 r \$1-smp;
#X obj 875 176 r \$1-smp;
#X obj 1010 269 s \$1-semi;
#X obj 857 316 s \$1-end;
#X obj 710 321 s \$1-start;
#X obj 709 383 r \$1-duration;
#X obj 883 375 r \$1-end;
#X obj 895 398 r \$1-start;
#X obj 884 531 s \$1-duration;
#X obj 709 538 s \$1-base-time;
#X obj 356 293 s \$1-init;
#X obj 52 274 s \$1-array;
#X obj 52 49 array define \$1-array;
#X obj 56 558 tabread4~ \$1-array;
#X obj 293 383 tabwrite~ \$1-array;
#X obj 502 396 symbol \$1-array;
#X obj 288 52 inlet~;
#X obj 427 49 inlet;
#X obj 496 48 inlet;
#X obj 562 601 inlet;
#X obj 240 575 bng 15 250 50 0 empty empty empty 17 7 0 10 -262144
-1 -1;
#X obj 52 163 * 2;
#X obj 404 226 delay 10;
#X obj 487 365 delay 50;
#X obj 596 366 delay 50;
#X connect 0 0 99 0;
#X connect 1 0 0 0;
#X connect 2 0 14 0;
#X connect 3 0 4 0;
#X connect 3 1 4 1;
#X connect 4 0 14 2;
#X connect 5 0 23 0;
#X connect 5 1 108 0;
#X connect 6 0 11 0;
#X connect 7 0 100 0;
#X connect 8 0 81 0;
#X connect 9 0 8 1;
#X connect 10 0 9 0;
#X connect 11 0 18 0;
#X connect 11 1 10 0;
#X connect 12 0 107 0;
#X connect 13 0 97 0;
#X connect 14 0 1 0;
#X connect 15 0 80 0;
#X connect 15 0 106 0;
#X connect 17 0 2 0;
#X connect 17 1 4 0;
#X connect 18 0 8 0;
#X connect 18 1 15 1;
#X connect 19 0 84 0;
#X connect 19 1 85 0;
#X connect 23 0 100 0;
#X connect 23 1 6 0;
#X connect 23 2 96 0;
#X connect 24 0 6 1;
#X connect 24 1 109 0;
#X connect 24 2 7 0;
#X connect 25 0 68 0;
#X connect 26 0 100 0;
#X connect 27 0 26 1;
#X connect 27 1 5 0;
#X connect 29 0 12 0;
#X connect 29 0 30 0;
#X connect 30 0 15 0;
#X connect 31 0 30 0;
#X connect 33 0 67 0;
#X connect 33 1 34 0;
#X connect 34 0 31 0;
#X connect 35 0 39 0;
#X connect 36 0 37 0;
#X connect 37 0 88 0;
#X connect 38 0 36 0;
#X connect 39 0 38 0;
#X connect 40 0 47 0;
#X connect 41 0 46 0;
#X connect 42 0 90 0;
#X connect 43 0 94 0;
#X connect 44 0 48 0;
#X connect 45 0 95 0;
#X connect 46 0 42 0;
#X connect 47 0 41 0;
#X connect 48 0 51 0;
#X connect 49 0 50 1;
#X connect 50 0 45 0;
#X connect 51 0 53 0;
#X connect 52 0 89 0;
#X connect 53 0 52 0;
#X connect 54 0 55 0;
#X connect 55 0 43 0;
#X connect 56 0 54 0;
#X connect 56 1 54 1;
#X connect 57 0 49 0;
#X connect 58 0 50 0;
#X connect 58 1 57 0;
#X connect 59 0 41 0;
#X connect 59 1 41 1;
#X connect 60 0 51 0;
#X connect 60 1 51 1;
#X connect 61 0 64 0;
#X connect 63 0 40 0;
#X connect 63 1 44 0;
#X connect 63 2 35 0;
#X connect 64 0 63 0;
#X connect 65 0 63 0;
#X connect 68 0 12 0;
#X connect 70 0 109 0;
#X connect 71 0 12 0;
#X connect 72 0 13 0;
#X connect 72 0 16 0;
#X connect 73 0 17 0;
#X connect 74 0 4 0;
#X connect 75 0 3 0;
#X connect 76 0 2 1;
#X connect 77 0 14 1;
#X connect 78 0 33 1;
#X connect 79 0 15 0;
#X connect 82 0 27 0;
#X connect 83 0 19 0;
#X connect 86 0 59 0;
#X connect 87 0 60 0;
#X connect 91 0 58 0;
#X connect 92 0 54 0;
#X connect 93 0 56 0;
#X connect 99 0 33 0;
#X connect 101 0 22 0;
#X connect 101 0 69 0;
#X connect 102 0 26 0;
#X connect 103 0 27 0;
#X connect 104 0 19 0;
#X connect 105 0 33 1;
#X connect 107 0 13 0;
#X connect 108 0 24 0;
#X connect 109 0 101 0;
#X connect 109 0 110 0;
#X connect 110 0 85 0;
