#N canvas 133 23 1102 730 12;
#X obj 56 530 vline~;
#X msg 56 498 \$1 \, \$2 \$3;
#X obj 56 439 f;
#X obj 156 354 t b f;
#X obj 125 389 /;
#X obj 313 207 sel 1 0;
#X obj 310 414 timer;
#X msg 331 355 stop;
#X obj 344 523 *;
#X obj 362 497 / 1000;
#X obj 362 471 samplerate~;
#X obj 310 442 t f b;
#X obj 52 111 samplerate~;
#X msg 52 190 resize \$1;
#X obj 56 468 pack f f f;
#X obj 270 544 metro;
#X floatatom 133 189 10 0 0 0 - - -;
#X obj 52 138 * 30;
#X obj 52 49 array define \$1;
#X obj 56 558 tabread4~ \$1;
#X obj 293 383 tabwrite~ \$1;
#N canvas 83 32 899 385 array-ctls 0;
#X obj 359 118 hsl 128 15 -24 24 0 0 empty \$0-set-freq semitones 30
8 1 12 -262144 -1 -1 6350 1;
#N canvas 486 223 557 285 semitones 0;
#X obj 44 126 pow 2;
#X obj 81 99 / 12;
#X obj 44 155 outlet;
#X obj 44 74 t b f;
#X msg 44 99 2;
#X obj 44 48 inlet;
#X text 32 187 semitones just returns the right src from the given
semitone transposition \, e.g. (semitones 12) will return 2;
#X connect 0 0 2 0;
#X connect 1 0 0 1;
#X connect 3 0 4 0;
#X connect 3 1 1 0;
#X connect 4 0 0 0;
#X connect 5 0 3 0;
#X restore 356 200 pd semitones;
#X floatatom 356 227 7 0 0 0 - - -;
#X floatatom 356 174 5 0 0 0 - - -;
#X obj 356 146 int;
#X obj 60 118 hsl 128 15 0 1 0 0 empty \$0-set-start start 50 8 1 12
-262144 -1 -1 0 1;
#X obj 56 227 *;
#X floatatom 56 283 10 0 0 0 - - -;
#X floatatom 721 265 10 0 0 0 - - -;
#X obj 206 118 hsl 128 15 0 1 0 0 empty \$0-set-end end 50 8 1 12 -262144
-1 -1 12700 1;
#X floatatom 546 271 10 0 0 1 - - -;
#X obj 56 254 int;
#X floatatom 57 141 8 0 0 0 - - -;
#X floatatom 203 140 8 0 0 0 - - -;
#X obj 578 219 / 1000;
#X obj 546 244 /;
#X obj 203 222 *;
#X floatatom 203 278 10 0 0 0 - - -;
#X obj 203 249 int;
#X obj 721 212 -;
#X obj 721 239 abs;
#X obj 732 184 t b f;
#X obj 578 194 samplerate~;
#X obj 546 168 t f b;
#X obj 74 195 t b f;
#X obj 221 192 t b f;
#X obj 58 19 loadbang;
#X text 185 67 Set different start- and endpoints(start:1 end:0 = backward)
;
#X obj 126 19 inlet;
#X obj 56 65 unpack f f f;
#X msg 56 42 0 1 0;
#X obj 56 309 s \$1-start;
#X obj 203 304 s \$1-end;
#X obj 356 257 s \$1-semi;
#X obj 546 298 s \$1-base-time;
#X obj 720 135 r \$1-end;
#X obj 732 158 r \$1-start;
#X obj 546 143 r \$0-duration;
#X obj 721 291 s \$0-duration;
#X obj 75 168 r \$1-smp;
#X obj 221 164 r \$1-smp;
#X connect 0 0 4 0;
#X connect 1 0 2 0;
#X connect 2 0 33 0;
#X connect 3 0 1 0;
#X connect 4 0 3 0;
#X connect 5 0 12 0;
#X connect 6 0 11 0;
#X connect 7 0 31 0;
#X connect 8 0 38 0;
#X connect 9 0 13 0;
#X connect 10 0 34 0;
#X connect 11 0 7 0;
#X connect 12 0 6 0;
#X connect 13 0 16 0;
#X connect 14 0 15 1;
#X connect 15 0 10 0;
#X connect 16 0 18 0;
#X connect 17 0 32 0;
#X connect 18 0 17 0;
#X connect 19 0 20 0;
#X connect 20 0 8 0;
#X connect 21 0 19 0;
#X connect 21 1 19 1;
#X connect 22 0 14 0;
#X connect 23 0 15 0;
#X connect 23 1 22 0;
#X connect 24 0 6 0;
#X connect 24 1 6 1;
#X connect 25 0 16 0;
#X connect 25 1 16 1;
#X connect 26 0 30 0;
#X connect 28 0 29 0;
#X connect 29 0 5 0;
#X connect 29 1 9 0;
#X connect 29 2 0 0;
#X connect 30 0 29 0;
#X connect 35 0 19 0;
#X connect 36 0 21 0;
#X connect 37 0 23 0;
#X connect 39 0 24 0;
#X connect 40 0 25 0;
#X restore 576 104 pd array-ctls;
#X obj 418 134 s \$0-play;
#X obj 56 333 r \$0-play;
#X obj 269 569 s \$0-play;
#X obj 56 357 t b b;
#X obj 309 469 t f f;
#X obj 418 109 route once loop;
#X obj 489 134 s \$0-loop;
#X obj 267 520 r \$0-loop;
#X text 85 140 init buffer size (secs);
#X text 426 300 resize to max=30'' \; for every rec;
#X msg 487 437 \; \$1 normalize;
#X obj 487 390 symbol \$1;
#X obj 312 266 t b b b;
#X obj 402 266 t b b b;
#X obj 487 365 delay 25;
#X obj 52 217 s \$1;
#X obj 346 569 s \$1-smp;
#X obj 133 164 r \$1-smp;
#X obj 155 328 r \$1-semi;
#X obj 127 303 r \$1-base-time;
#X obj 74 411 r \$1-start;
#X obj 89 438 r \$1-end;
#X obj 356 293 s \$0-init;
#X obj 52 86 r \$0-init;
#X obj 127 87 loadbang;
#X obj 576 79 r \$1-params;
#X obj 418 82 r \$1-play;
#X obj 93 589 r \$1-env;
#X obj 330 102 r \$1-rec;
#X obj 133 215 value \$1-smp;
#X text 129 237 store for granulator;
#N canvas 0 23 450 300 env 0;
#X obj 65 57 inlet~;
#X obj 65 225 outlet~;
#X obj 122 59 inlet;
#X text 184 165 kleiner env (kill klicks);
#X obj 118 149 line~;
#X obj 65 186 *~;
#X obj 119 126 pack f 50;
#X connect 0 0 5 0;
#X connect 2 0 6 0;
#X connect 4 0 5 1;
#X connect 5 0 1 0;
#X connect 6 0 4 0;
#X restore 289 153 pd env;
#X obj 330 128 t f f;
#X obj 404 242 delay 50;
#X text 469 240 wegen env on mic;
#X obj 197 88 r reset;
#X text 495 416 unused;
#X msg 270 496 0;
#X obj 118 637 sel 0;
#X text 115 656 autooff loop if mute;
#N canvas 275 81 597 584 env 0;
#X obj 37 37 inlet~;
#X obj 42 453 outlet~;
#X obj 66 355 line~;
#X obj 42 379 *~;
#X text 101 36 simple on/off env;
#X obj 166 109 inlet;
#X obj 67 95 loadbang;
#X msg 68 125 0;
#X text 67 73 init mute;
#X msg 230 154 1 5000 5000 0 3000;
#X obj 219 290 delay;
#X obj 159 223 pack;
#X text 162 242 att;
#X obj 259 347 pack f f;
#X obj 259 322 f;
#X text 193 310 sus;
#X text 248 372 rel;
#X text 219 104 asr type env \; attTrgt att-dur sus-dur relTrgt rel-dur
;
#N canvas 0 23 450 300 unsig~ 0;
#X obj 53 209 outlet;
#X obj 58 15 inlet~;
#X obj 57 101 snapshot~;
#X obj 73 73 metro 50;
#X obj 75 49 loadbang;
#X floatatom 53 129 5 0 0 0 - - -;
#X connect 1 0 2 0;
#X connect 2 0 5 0;
#X connect 3 0 2 0;
#X connect 4 0 3 0;
#X connect 5 0 0 0;
#X restore 140 395 pd unsig~;
#X text 219 403 get 0 to kill loop;
#X obj 142 447 outlet;
#X obj 143 424 hsl 128 15 0 1 0 0 empty empty empty -2 -8 0 10 -262144
-1 -1 12700 1;
#X obj 181 185 unpack f f f f f, f 22;
#X obj 209 266 delay;
#X obj 207 239 t b f;
#X connect 0 0 3 0;
#X connect 2 0 3 1;
#X connect 2 0 18 0;
#X connect 3 0 1 0;
#X connect 5 0 22 0;
#X connect 6 0 7 0;
#X connect 7 0 2 0;
#X connect 9 0 22 0;
#X connect 10 0 14 0;
#X connect 11 0 2 0;
#X connect 13 0 2 0;
#X connect 14 0 13 0;
#X connect 18 0 21 0;
#X connect 21 0 20 0;
#X connect 22 0 11 0;
#X connect 22 1 11 1;
#X connect 22 1 24 0;
#X connect 22 2 10 1;
#X connect 22 3 14 1;
#X connect 22 4 13 1;
#X connect 23 0 10 0;
#X connect 24 0 23 0;
#X connect 24 1 23 1;
#X restore 53 617 pd env;
#X obj 117 614 change;
#X obj 675 211 bng 15 250 50 0 empty empty load 18 8 0 12 -262144 -1
-1;
#X obj 675 234 openpanel;
#X msg 675 260 read -resize \$1 sample-07;
#X obj 675 287 soundfiler;
#X floatatom 675 316 10 0 0 1 length_in_samples - -;
#X obj 691 342 s len_samples;
#X obj 288 52 inlet~;
#X obj 352 76 inlet;
#X obj 444 49 inlet;
#X obj 604 48 inlet;
#X obj 54 674 outlet~;
#X obj 233 579 bng 15 250 50 0 empty empty empty 17 7 0 10 -262144
-1 -1;
#X connect 0 0 19 0;
#X connect 1 0 0 0;
#X connect 2 0 14 0;
#X connect 3 0 4 0;
#X connect 3 1 4 1;
#X connect 4 0 14 2;
#X connect 5 0 34 0;
#X connect 5 1 55 0;
#X connect 6 0 11 0;
#X connect 7 0 20 0;
#X connect 8 0 38 0;
#X connect 9 0 8 1;
#X connect 10 0 9 0;
#X connect 11 0 26 0;
#X connect 11 1 10 0;
#X connect 12 0 17 0;
#X connect 13 0 37 0;
#X connect 14 0 1 0;
#X connect 15 0 24 0;
#X connect 15 0 75 0;
#X connect 16 0 51 0;
#X connect 17 0 13 0;
#X connect 19 0 62 0;
#X connect 23 0 25 0;
#X connect 25 0 2 0;
#X connect 25 1 4 0;
#X connect 26 0 8 0;
#X connect 26 1 15 1;
#X connect 27 0 22 0;
#X connect 27 1 28 0;
#X connect 29 0 15 0;
#X connect 34 0 20 0;
#X connect 34 1 6 0;
#X connect 35 0 6 1;
#X connect 35 1 36 0;
#X connect 35 2 7 0;
#X connect 36 0 33 0;
#X connect 39 0 16 0;
#X connect 39 0 13 0;
#X connect 40 0 3 0;
#X connect 41 0 4 0;
#X connect 42 0 2 1;
#X connect 43 0 14 1;
#X connect 45 0 12 0;
#X connect 46 0 12 0;
#X connect 47 0 21 0;
#X connect 48 0 27 0;
#X connect 49 0 62 1;
#X connect 50 0 54 0;
#X connect 53 0 20 0;
#X connect 54 0 53 1;
#X connect 54 1 5 0;
#X connect 55 0 35 0;
#X connect 57 0 12 0;
#X connect 57 0 59 0;
#X connect 59 0 15 0;
#X connect 60 0 59 0;
#X connect 62 0 74 0;
#X connect 62 1 63 0;
#X connect 63 0 60 0;
#X connect 64 0 65 0;
#X connect 65 0 66 0;
#X connect 66 0 67 0;
#X connect 67 0 68 0;
#X connect 68 0 69 0;
#X connect 70 0 53 0;
#X connect 71 0 54 0;
#X connect 72 0 27 0;
#X connect 73 0 21 0;
