#N canvas 194 51 689 307 10;
#X obj 137 103 bng 15 250 50 0 empty empty empty 17 7 0 10 #fcfcfc
#000000 #000000;
#X floatatom 135 173 5 0 0 0 - - - 0;
#X obj 136 127 brown -1 1 3;
#X obj 226 103 bng 15 250 50 0 empty empty empty 17 7 0 10 #fcfcfc
#000000 #000000;
#X floatatom 224 173 5 0 0 0 - - - 0;
#X obj 332 103 bng 15 250 50 0 empty empty empty 17 7 0 10 #fcfcfc
#000000 #000000;
#X floatatom 330 173 5 0 0 0 - - - 0;
#X obj 225 127 brown 10 100 50;
#X obj 331 127 brown 0.2 0.4 0.02;
#X text 159 57 brownian motion like random value generation: low high
stepsize;
#X obj 468 104 bng 15 250 50 0 empty empty empty 17 7 0 10 #fcfcfc
#000000 #000000;
#X floatatom 466 174 5 0 0 0 - - - 0;
#X obj 467 128 brown 1 10 1;
#X connect 0 0 2 0;
#X connect 2 0 1 0;
#X connect 3 0 7 0;
#X connect 5 0 8 0;
#X connect 7 0 4 0;
#X connect 8 0 6 0;
#X connect 10 0 12 0;
#X connect 12 0 11 0;
