#N canvas 337 83 636 484 10;
#X obj 25 23 inlet;
#X obj 242 23 inlet;
#X obj 149 23 inlet;
#X obj 300 19 inlet;
#X obj 24 439 outlet;
#X obj 299 100 f \$3;
#X obj 99 192 expr $f2 - $f1;
#X obj 149 104 f \$1;
#X obj 242 102 f \$2;
#X obj 163 46 loadbang;
#X text 31 47 bng;
#X floatatom 27 349 11 0 0 0 - - -;
#X obj 27 375 / 1000;
#X msg 302 151 1000;
#X floatatom 307 199 5 0 0 0 - - -;
#X obj 308 176 *;
#X obj 300 124 t b f;
#X text 147 363 cheap brownian motion;
#X floatatom 103 237 5 0 0 0 - - -;
#X obj 26 281 drunk 1000;
#X msg 40 192 1000;
#X floatatom 45 240 5 0 0 0 - - -;
#X obj 46 217 *;
#X obj 38 165 t b f;
#X floatatom 26 410 5 0 0 0 - - -;
#X obj 102 216 * 1000;
#X obj 27 324 +;
#X obj 236 121 t b f;
#X obj 148 123 t f f;
#X obj 163 70 t b b b;
#X text 411 21 based on a patch by dan wilcox;
#X connect 0 0 19 0;
#X connect 1 0 8 0;
#X connect 2 0 7 0;
#X connect 3 0 5 0;
#X connect 5 0 16 0;
#X connect 6 0 25 0;
#X connect 7 0 28 0;
#X connect 8 0 27 0;
#X connect 9 0 29 0;
#X connect 11 0 12 0;
#X connect 12 0 24 0;
#X connect 13 0 15 0;
#X connect 14 0 19 2;
#X connect 15 0 14 0;
#X connect 16 0 13 0;
#X connect 16 1 15 1;
#X connect 18 0 19 1;
#X connect 19 0 26 0;
#X connect 20 0 22 0;
#X connect 21 0 26 1;
#X connect 22 0 21 0;
#X connect 23 0 20 0;
#X connect 23 1 22 1;
#X connect 24 0 4 0;
#X connect 25 0 18 0;
#X connect 26 0 11 0;
#X connect 27 0 6 0;
#X connect 27 1 6 1;
#X connect 28 0 6 0;
#X connect 28 1 23 0;
#X connect 29 0 7 0;
#X connect 29 1 8 0;
#X connect 29 2 5 0;
