#N canvas 42 23 952 685 12;
#X obj 24 427 vline~;
#X msg 24 403 \$1 \, \$2 \$3;
#X obj 24 352 f;
#X obj 124 267 t b f;
#X obj 93 302 /;
#X obj 345 141 sel 1 0;
#X msg 316 229 stop;
#X obj 27 87 samplerate~;
#X msg 48 139 resize \$1;
#X obj 24 381 pack f f f;
#X obj 225 468 metro;
#X floatatom 137 177 10 0 0 0 - - -;
#X text 74 114 init buffer size (secs);
#X msg 449 413 \; \$1 normalize;
#X obj 25 60 loadbang;
#N canvas 0 23 450 300 env 0;
#X obj 65 57 inlet~;
#X obj 65 225 outlet~;
#X obj 122 59 inlet;
#X text 184 165 kleiner env (kill klicks);
#X obj 118 149 line~;
#X obj 65 186 *~;
#X obj 119 126 pack f 25;
#X connect 0 0 5 0;
#X connect 2 0 6 0;
#X connect 4 0 5 1;
#X connect 5 0 1 0;
#X connect 6 0 4 0;
#X restore 272 140 pd env;
#X obj 312 116 t f f;
#X msg 189 494 0;
#X obj 90 549 sel 0;
#X text 140 528 autooff loop if mute;
#X obj 89 526 change;
#N canvas 486 223 557 285 semitones 0;
#X obj 44 126 pow 2;
#X obj 81 99 / 12;
#X obj 44 155 outlet;
#X obj 44 74 t b f;
#X msg 44 99 2;
#X obj 44 48 inlet;
#X text 32 187 semitones just returns the right src from the given
semitone transposition \, e.g. (semitones 12) will return 2;
#X connect 0 0 2 0;
#X connect 1 0 0 1;
#X connect 3 0 4 0;
#X connect 3 1 1 0;
#X connect 4 0 0 0;
#X connect 5 0 3 0;
#X restore 826 268 pd semitones;
#X floatatom 826 292 7 0 0 0 - - -;
#X floatatom 826 246 5 0 0 0 - - -;
#X obj 826 218 int;
#X obj 638 296 *;
#X floatatom 638 345 10 0 0 0 - - -;
#X floatatom 779 532 10 0 0 0 - - -;
#X floatatom 639 533 10 0 0 1 - - -;
#X obj 638 323 int;
#X floatatom 639 218 8 0 0 0 - - -;
#X floatatom 730 219 8 0 0 0 - - -;
#X obj 671 481 / 1000;
#X obj 639 506 /;
#X obj 730 293 *;
#X floatatom 730 342 10 0 0 0 - - -;
#X obj 730 320 int;
#X obj 779 479 -;
#X obj 779 506 abs;
#X obj 790 451 t b f;
#X obj 671 456 samplerate~;
#X obj 639 430 t f b;
#X obj 656 270 t b f;
#X obj 748 269 t b f;
#X obj 137 152 r \$1-smp;
#X obj 24 246 r \$1-play;
#X obj 95 216 r \$1-base-time;
#X obj 123 241 r \$1-semi;
#X obj 42 324 r \$1-start;
#X obj 57 351 r \$1-end;
#X obj 222 444 r \$1-loop;
#X obj 230 492 s \$1-play;
#X obj 372 424 s \$1-loop;
#X obj 657 243 r \$1-smp;
#X obj 748 241 r \$1-smp;
#X obj 826 315 s \$1-semi;
#X obj 730 368 s \$1-end;
#X obj 638 368 s \$1-start;
#X obj 639 405 r \$1-duration;
#X obj 778 402 r \$1-end;
#X obj 790 425 r \$1-start;
#X obj 779 558 s \$1-duration;
#X obj 639 560 s \$1-base-time;
#X obj 48 163 s \$1-array;
#X obj 24 17 array define \$1-array;
#X obj 24 450 tabread4~ \$1-array;
#X obj 269 256 tabwrite~ \$1-array;
#X obj 449 385 symbol \$1-array;
#X obj 602 28 inlet;
#X obj 225 514 bng 15 250 50 0 empty empty empty 17 7 0 10 -262144
-1 -1;
#X text 237 13 pno signal in;
#X msg 343 86 0;
#X msg 313 86 1;
#X obj 270 33 r~ insig;
#X obj 371 337 t b b;
#X text 602 8 params;
#X msg 477 309 0.4 333 5000 0 3000;
#X obj 451 333 list;
#X obj 760 98 pack f f f f f;
#X obj 605 102 t b f;
#X text 334 25 rec dur immer 500 \; resize macht klicks \, wenn jedes
mal;
#X obj 367 195 t b b;
#X obj 380 170 delay 25;
#X obj 372 398 delay 5;
#X obj 605 53 unpack f f f f f f f f f f;
#X obj 450 356 s \$1-env;
#X obj 70 501 r \$1-env;
#N canvas 0 23 504 456 dist&filter~ 0;
#X obj 83 67 inlet~;
#X obj 82 397 outlet~;
#X floatatom 268 245 5 0 0 0 - - -;
#X obj 220 188 t f f;
#N canvas 0 23 550 447 nearest 0;
#X obj 149 300 >= 3;
#X obj 142 246 t b a;
#X floatatom 142 219 5 0 0 0 - - -;
#X obj 52 299 list-filter;
#X text 199 300 remove values smaller than x from list;
#X obj 51 330 list split 1;
#X floatatom 56 377 11 0 0 0 - - -;
#X obj 50 28 loadbang;
#X text 144 29 frq series (harmonics) to map tracked frqs on (via gliss)
;
#X obj 144 193 inlet;
#X obj 54 404 outlet;
#X text 199 220 tracked freq;
#X text 143 375 sine gliss target freq;
#X msg 50 54 101.973 174.811 247.65 320.488 393.326 466.164 539.002
611.84 684.678 757.516 830.354 903.192 976.031 1048.87 1121.71 1194.54
1267.38 1340.22 1413.06 1485.9 1558.74 1631.57 1704.41 1777.25 1850.09
1922.93 1995.76 2068.6 2141.44 2214.28 2287.12 2359.95 2432.79 2505.63
2578.47 2651.31 2724.15 2796.98 2869.82 2942.66 3015.5 3088.33 3161.17
3234.01 3306.85 3379.69 3452.52 3525.37 3598.2;
#X connect 0 0 3 1;
#X connect 1 0 3 0;
#X connect 1 1 0 1;
#X connect 2 0 1 0;
#X connect 3 0 5 0;
#X connect 3 1 0 0;
#X connect 5 0 6 0;
#X connect 6 0 10 0;
#X connect 7 0 13 0;
#X connect 9 0 2 0;
#X connect 13 0 3 0;
#X restore 268 222 pd nearest par;
#X obj 82 205 disto~;
#X obj 195 67 inlet;
#X floatatom 195 104 5 0 0 0 - - -;
#X obj 83 293 vcf~;
#X floatatom 245 107 5 0 0 0 - - -;
#X obj 83 365 vcf~;
#X obj 251 295 line~;
#X obj 247 68 inlet;
#X text 291 93 frq / Q;
#X obj 96 253 sig~;
#X obj 433 287 line;
#X floatatom 431 311 5 0 0 0 - - -;
#X obj 268 268 pack f 7000;
#X text 434 268 check;
#X obj 245 154 * 2.5;
#X connect 0 0 5 0;
#X connect 2 0 17 0;
#X connect 3 0 4 0;
#X connect 3 1 11 0;
#X connect 3 1 15 0;
#X connect 4 0 2 0;
#X connect 5 0 8 0;
#X connect 6 0 7 0;
#X connect 7 0 3 0;
#X connect 7 0 14 0;
#X connect 8 0 10 0;
#X connect 9 0 8 2;
#X connect 9 0 10 2;
#X connect 9 0 19 0;
#X connect 10 0 1 0;
#X connect 11 0 10 1;
#X connect 12 0 9 0;
#X connect 14 0 8 1;
#X connect 15 0 16 0;
#X connect 17 0 11 0;
#X connect 17 0 15 0;
#X connect 19 0 5 1;
#X restore 24 476 pd dist&filter~;
#X text 134 131 no resize!;
#X obj 344 61 delay 475;
#X obj 23 639 outlet~;
#N canvas 642 151 524 368 pan~ 0;
#X obj 153 88 expr ($f1*$f2/2)-$f2/4;
#X obj 302 64 f 3.14159;
#X text 369 65 pi;
#X obj 302 40 loadbang;
#X obj 153 62 clip 0 1;
#X obj 153 142 expr (cos($f1)+sin($f1))*(sqrt(2)/2);
#X obj 261 168 expr (cos($f1)-sin($f1))*(sqrt(2)/2);
#X text 186 114 angle;
#X obj 153 33 inlet;
#X obj 155 238 line~;
#X obj 263 240 line~;
#X obj 29 334 outlet~;
#X obj 128 327 outlet~;
#X obj 27 33 inlet~;
#X obj 29 300 *~;
#X obj 128 299 *~;
#X text 162 166 right;
#X text 270 190 left;
#X obj 155 217 pack 0 50;
#X obj 263 218 pack 0 50;
#X connect 0 0 5 0;
#X connect 0 0 6 0;
#X connect 1 0 0 1;
#X connect 3 0 1 0;
#X connect 4 0 0 0;
#X connect 5 0 18 0;
#X connect 6 0 19 0;
#X connect 8 0 4 0;
#X connect 9 0 15 1;
#X connect 10 0 14 1;
#X connect 13 0 14 0;
#X connect 13 0 15 0;
#X connect 14 0 11 0;
#X connect 15 0 12 0;
#X connect 18 0 9 0;
#X connect 19 0 10 0;
#X restore 25 604 pd pan~;
#X obj 71 582 brown 0 1 0.75;
#X obj 81 639 outlet~;
#X obj 24 270 t b b b;
#X obj 306 172 t b;
#X text 445 168 wegen env on input;
#X text 867 245 rate;
#X obj 27 114 * 0.5;
#X obj 28 187 s \$1-smp;
#X obj 25 557 *~ 0.25;
#N canvas 275 81 597 584 env~ 1;
#X obj 37 37 inlet~;
#X obj 42 453 outlet~;
#X obj 66 355 line~;
#X obj 42 379 *~;
#X text 101 36 simple on/off env;
#X obj 166 109 inlet;
#X obj 67 95 loadbang;
#X msg 68 125 0;
#X text 67 73 init mute;
#X msg 230 154 1 5000 5000 0 3000;
#X obj 219 290 delay;
#X obj 159 223 pack;
#X text 162 242 att;
#X obj 259 347 pack f f;
#X obj 259 322 f;
#X text 193 310 sus;
#X text 248 372 rel;
#X text 219 104 asr type env \; attTrgt att-dur sus-dur relTrgt rel-dur
;
#N canvas 0 23 450 300 unsig~ 0;
#X obj 53 209 outlet;
#X obj 58 15 inlet~;
#X obj 57 101 snapshot~;
#X obj 73 73 metro 50;
#X obj 75 49 loadbang;
#X floatatom 53 129 5 0 0 0 - - -;
#X connect 1 0 2 0;
#X connect 2 0 5 0;
#X connect 3 0 2 0;
#X connect 4 0 3 0;
#X connect 5 0 0 0;
#X restore 140 395 pd unsig~;
#X text 219 403 get 0 to kill loop;
#X obj 142 447 outlet;
#X obj 143 424 hsl 128 15 0 1 0 0 empty empty empty -2 -8 0 10 -262144
-1 -1 0 1;
#X obj 181 185 unpack f f f f f, f 22;
#X obj 209 266 delay;
#X obj 207 239 t b f;
#X obj 80 153 r reset;
#X connect 0 0 3 0;
#X connect 2 0 3 1;
#X connect 2 0 18 0;
#X connect 3 0 1 0;
#X connect 5 0 22 0;
#X connect 6 0 7 0;
#X connect 7 0 2 0;
#X connect 9 0 22 0;
#X connect 10 0 14 0;
#X connect 11 0 2 0;
#X connect 13 0 2 0;
#X connect 14 0 13 0;
#X connect 18 0 21 0;
#X connect 21 0 20 0;
#X connect 22 0 11 0;
#X connect 22 1 11 1;
#X connect 22 1 24 0;
#X connect 22 2 10 1;
#X connect 22 3 14 1;
#X connect 22 4 13 1;
#X connect 23 0 10 0;
#X connect 24 0 23 0;
#X connect 24 1 23 1;
#X connect 25 0 7 0;
#X restore 25 529 pd env~;
#X connect 0 0 65 0;
#X connect 1 0 0 0;
#X connect 2 0 9 0;
#X connect 3 0 4 0;
#X connect 3 1 4 1;
#X connect 4 0 9 2;
#X connect 5 0 95 0;
#X connect 5 1 82 0;
#X connect 5 1 81 0;
#X connect 6 0 66 0;
#X connect 7 0 98 0;
#X connect 8 0 63 0;
#X connect 9 0 1 0;
#X connect 10 0 51 0;
#X connect 10 0 69 0;
#X connect 14 0 7 0;
#X connect 15 0 66 0;
#X connect 16 0 15 1;
#X connect 16 1 5 0;
#X connect 17 0 10 0;
#X connect 18 0 17 0;
#X connect 20 0 18 0;
#X connect 21 0 22 0;
#X connect 22 0 55 0;
#X connect 23 0 21 0;
#X connect 24 0 23 0;
#X connect 25 0 29 0;
#X connect 26 0 57 0;
#X connect 27 0 61 0;
#X connect 28 0 62 0;
#X connect 28 0 10 1;
#X connect 29 0 26 0;
#X connect 30 0 25 0;
#X connect 31 0 34 0;
#X connect 32 0 33 1;
#X connect 33 0 28 0;
#X connect 34 0 36 0;
#X connect 35 0 56 0;
#X connect 36 0 35 0;
#X connect 37 0 38 0;
#X connect 38 0 27 0;
#X connect 39 0 37 0;
#X connect 39 1 37 1;
#X connect 40 0 32 0;
#X connect 41 0 33 0;
#X connect 41 1 40 0;
#X connect 42 0 25 0;
#X connect 42 1 25 1;
#X connect 43 0 34 0;
#X connect 43 1 34 1;
#X connect 44 0 11 0;
#X connect 45 0 94 0;
#X connect 46 0 4 0;
#X connect 47 0 3 0;
#X connect 48 0 2 1;
#X connect 49 0 9 1;
#X connect 50 0 10 0;
#X connect 53 0 42 0;
#X connect 54 0 43 0;
#X connect 58 0 41 0;
#X connect 59 0 37 0;
#X connect 60 0 39 0;
#X connect 65 0 87 0;
#X connect 67 0 13 0;
#X connect 68 0 84 0;
#X connect 71 0 16 0;
#X connect 72 0 16 0;
#X connect 73 0 15 0;
#X connect 74 0 83 0;
#X connect 74 1 67 0;
#X connect 76 0 77 1;
#X connect 77 0 85 0;
#X connect 78 0 77 1;
#X connect 79 0 72 0;
#X connect 79 0 89 0;
#X connect 79 1 30 0;
#X connect 81 0 74 0;
#X connect 81 1 6 0;
#X connect 83 0 52 0;
#X connect 83 0 77 0;
#X connect 84 0 79 0;
#X connect 84 1 31 0;
#X connect 84 2 24 0;
#X connect 84 3 78 0;
#X connect 84 4 78 1;
#X connect 84 5 78 2;
#X connect 84 6 78 3;
#X connect 84 7 78 4;
#X connect 84 8 87 1;
#X connect 84 9 87 2;
#X connect 86 0 101 1;
#X connect 87 0 101 0;
#X connect 89 0 71 0;
#X connect 91 0 90 0;
#X connect 91 1 93 0;
#X connect 92 0 91 1;
#X connect 94 0 2 0;
#X connect 94 1 4 0;
#X connect 94 2 92 0;
#X connect 95 0 66 0;
#X connect 98 0 8 0;
#X connect 98 0 99 0;
#X connect 100 0 91 0;
#X connect 101 0 100 0;
#X connect 101 1 20 0;
