#N canvas 64 97 529 462 12;
#X obj 27 19 inlet;
#X obj 28 270 osc~;
#X obj 26 414 outlet~;
#X obj 28 299 *~;
#X obj 260 168 line~;
#X obj 259 81 del 5000;
#X floatatom 85 154 5 0 0 0 - - -;
#X obj 26 219 line;
#X floatatom 26 244 5 0 0 0 - - -;
#X obj 376 147 pack 0 30000;
#X obj 85 181 pack f 30000;
#X obj 379 118 del 9000;
#N canvas 0 23 550 447 nearest 0;
#X obj 149 300 >= 3;
#X obj 142 246 t b a;
#X floatatom 142 219 5 0 0 0 - - -;
#X obj 52 299 list-filter;
#X text 199 300 remove values smaller than x from list;
#X obj 51 330 list split 1;
#X floatatom 56 377 11 0 0 0 - - -;
#X obj 50 28 loadbang;
#X text 144 29 frq series (harmonics) to map tracked frqs on (via gliss)
;
#X obj 144 193 inlet;
#X obj 54 404 outlet;
#X text 199 220 tracked freq;
#X text 143 375 sine gliss target freq;
#X msg 50 54 101.973 174.811 247.65 320.488 393.326 466.164 539.002
611.84 684.678 757.516 830.354 903.192 976.031 1048.87 1121.71 1194.54
1267.38 1340.22 1413.06 1485.9 1558.74 1631.57 1704.41 1777.25 1850.09
1922.93 1995.76 2068.6 2141.44 2214.28 2287.12 2359.95 2432.79 2505.63
2578.47 2651.31 2724.15 2796.98 2869.82 2942.66 3015.5 3088.33 3161.17
3234.01 3306.85 3379.69 3452.52 3525.37 3598.2;
#X connect 0 0 3 1;
#X connect 1 0 3 0;
#X connect 1 1 0 1;
#X connect 2 0 1 0;
#X connect 3 0 5 0;
#X connect 3 1 0 0;
#X connect 5 0 6 0;
#X connect 6 0 10 0;
#X connect 7 0 13 0;
#X connect 9 0 2 0;
#X connect 13 0 3 0;
#X restore 85 131 pd nearest par;
#X obj 209 115 pack 0.25 5000;
#X obj 260 143 pack 0.1 5000;
#N canvas 642 151 524 368 pan~ 0;
#X obj 153 88 expr ($f1*$f2/2)-$f2/4;
#X obj 302 64 f 3.14159;
#X text 369 65 pi;
#X obj 302 40 loadbang;
#X obj 153 62 clip 0 1;
#X obj 153 142 expr (cos($f1)+sin($f1))*(sqrt(2)/2);
#X obj 261 168 expr (cos($f1)-sin($f1))*(sqrt(2)/2);
#X text 186 114 angle;
#X obj 153 33 inlet;
#X obj 155 238 line~;
#X obj 263 240 line~;
#X obj 29 334 outlet~;
#X obj 128 327 outlet~;
#X obj 27 33 inlet~;
#X obj 29 300 *~;
#X obj 128 299 *~;
#X text 162 166 right;
#X text 270 190 left;
#X obj 155 217 pack 0 50;
#X obj 263 218 pack 0 50;
#X connect 0 0 5 0;
#X connect 0 0 6 0;
#X connect 1 0 0 1;
#X connect 3 0 1 0;
#X connect 4 0 0 0;
#X connect 5 0 18 0;
#X connect 6 0 19 0;
#X connect 8 0 4 0;
#X connect 9 0 15 1;
#X connect 10 0 14 1;
#X connect 13 0 14 0;
#X connect 13 0 15 0;
#X connect 14 0 11 0;
#X connect 15 0 12 0;
#X connect 18 0 9 0;
#X connect 19 0 10 0;
#X restore 28 379 pd pan~;
#X obj 88 353 brown 0 1 0.75;
#X obj 27 100 t f f b;
#X obj 84 414 outlet~;
#N canvas 0 23 564 352 todo 0;
#X text 608 42 todo indiv envs and gliss durs etc.;
#X obj 662 87 t b b b b b;
#X obj 661 116 brown 0.3 0.5 0.1;
#X obj 593 155 brown 0.1 0.3 0.1;
#X obj 593 179 t f b;
#X obj 624 202 brown 1000 5000 3000;
#X obj 573 228 pack f f;
#X text 644 228 att;
#X obj 578 286 line~;
#X obj 703 229 delay;
#X obj 807 161 brown 0.1 0.3 0.1;
#X obj 807 185 t f b;
#X obj 838 208 brown 1000 5000 3000;
#X obj 787 234 pack f f;
#X text 858 234 dec;
#X connect 3 0 4 0;
#X connect 4 0 6 0;
#X connect 4 1 5 0;
#X connect 5 0 6 1;
#X connect 5 0 9 1;
#X connect 6 0 8 0;
#X connect 10 0 11 0;
#X connect 11 0 13 0;
#X connect 11 1 12 0;
#X connect 12 0 13 1;
#X restore 412 20 pd todo;
#X obj 121 289 r reset;
#X msg 122 313 0;
#X obj 27 46 t f b b;
#X msg 72 300 0.125;
#X obj 27 325 *~ 0.125;
#X connect 0 0 22 0;
#X connect 1 0 3 0;
#X connect 3 0 24 0;
#X connect 4 0 3 1;
#X connect 5 0 11 0;
#X connect 5 0 14 0;
#X connect 6 0 10 0;
#X connect 7 0 8 0;
#X connect 8 0 1 0;
#X connect 9 0 4 0;
#X connect 10 0 7 0;
#X connect 11 0 9 0;
#X connect 12 0 6 0;
#X connect 13 0 4 0;
#X connect 14 0 4 0;
#X connect 15 0 2 0;
#X connect 15 1 18 0;
#X connect 16 0 15 1;
#X connect 17 0 12 0;
#X connect 17 1 7 0;
#X connect 17 2 16 0;
#X connect 20 0 21 0;
#X connect 21 0 24 1;
#X connect 22 0 17 0;
#X connect 22 1 5 0;
#X connect 22 1 13 0;
#X connect 22 2 23 0;
#X connect 23 0 24 1;
#X connect 24 0 15 0;
