#N canvas 484 117 352 483 10;
#X obj 137 289 *~;
#X obj 46 51 inlet~;
#X obj 52 381 outlet~;
#X obj 242 57 inlet;
#X obj 154 267 line~;
#X obj 155 247 pack 0 10;
#X obj 136 313 clip~ -0.99 0.99;
#X text 181 79 dist-index(0-n);
#X text 91 51 ~~sig;
#X obj 51 249 env~;
#X obj 49 311 line~;
#X obj 50 291 pack 0 10;
#X obj 49 350 *~;
#X obj 51 269 / 300;
#X connect 0 0 6 0;
#X connect 1 0 0 0;
#X connect 1 0 9 0;
#X connect 3 0 5 0;
#X connect 4 0 0 1;
#X connect 5 0 4 0;
#X connect 6 0 12 1;
#X connect 9 0 13 0;
#X connect 10 0 12 0;
#X connect 11 0 10 0;
#X connect 12 0 2 0;
#X connect 13 0 11 0;
