#N canvas 560 199 346 407 10;
#X text 63 22 switch between two audio inputs;
#X obj 75 99 inlet~;
#X text 75 81 input1;
#X obj 105 303 *~;
#X obj 197 305 *~;
#X obj 151 337 +~;
#X obj 161 98 inlet~;
#X text 157 78 input2;
#X obj 151 364 outlet~;
#X text 65 34 with toggle on it switsches to 2nd input;
#X obj 210 97 inlet;
#X text 210 78 toggle;
#X obj 212 246 line~;
#X obj 212 266 cos~;
#X obj 120 236 line~;
#X obj 120 259 cos~;
#X obj 120 212 pack;
#X obj 119 168 t f b;
#X obj 212 223 pack;
#X obj 212 199 - 0.25;
#X obj 210 171 t f b;
#X obj 210 142 / 4;
#X obj 210 120 line;
#X msg 146 190 5;
#X msg 262 200 5;
#X connect 1 0 3 0;
#X connect 3 0 5 0;
#X connect 4 0 5 1;
#X connect 5 0 8 0;
#X connect 6 0 4 0;
#X connect 10 0 22 0;
#X connect 12 0 13 0;
#X connect 13 0 4 1;
#X connect 14 0 15 0;
#X connect 15 0 3 1;
#X connect 16 0 14 0;
#X connect 17 0 16 0;
#X connect 17 1 23 0;
#X connect 18 0 12 0;
#X connect 19 0 18 0;
#X connect 20 0 19 0;
#X connect 20 1 24 0;
#X connect 21 0 17 0;
#X connect 21 0 20 0;
#X connect 22 0 21 0;
#X connect 23 0 16 1;
#X connect 24 0 18 1;
