#N canvas 620 344 487 267 10;
#X obj 19 18 inlet;
#X obj 73 95 sel 0 1;
#X msg 67 145 0;
#X msg 94 146 1;
#X obj 284 47 loadbang;
#X symbolatom 285 94 30 0 0 0 - - -;
#X obj 284 73 symbol \$1;
#X obj 244 149 symbol \$1;
#X obj 286 117 t s b;
#X msg 247 170 open \$1;
#X text 131 11 arg: 1=sfname (incl. pfad & format \; 2= loop(1) no
loop(0);
#X obj 71 67 t f b;
#X obj 150 152 spigot \$2;
#X text 161 137 loop;
#X msg 149 48 1;
#X obj 77 197 readsf~ 1;
#X obj 19 43 route bang;
#X msg 18 66 1;
#X obj 78 222 outlet~;
#X connect 0 0 16 0;
#X connect 1 0 2 0;
#X connect 1 1 3 0;
#X connect 2 0 15 0;
#X connect 3 0 15 0;
#X connect 4 0 6 0;
#X connect 5 0 8 0;
#X connect 6 0 5 0;
#X connect 7 0 9 0;
#X connect 8 0 7 1;
#X connect 8 1 7 0;
#X connect 9 0 15 0;
#X connect 11 0 1 0;
#X connect 11 1 6 0;
#X connect 12 0 14 0;
#X connect 14 0 11 0;
#X connect 15 0 18 0;
#X connect 15 1 12 0;
#X connect 16 0 17 0;
#X connect 16 1 11 0;
#X connect 17 0 11 0;
