#N canvas 448 216 856 584 12;
#X text 32 71 The [ctlout] objects sends control messages to the MIDI
port. See a MIDI specification chart for various controller numbers/values
descriptions.;
#X text 31 135 Arguments (optional):;
#X text 31 158 1st (or only one) argument represents the controller
number to transmit to.;
#X text 30 199 2nd argument designates the channel number to transmit
on. If no channel is specified it transmits on channel 1;
#X floatatom 30 254 5 0 0 0 - - -, f 5;
#X obj 30 336 ctlout;
#X floatatom 58 281 5 0 0 0 - - -, f 5;
#X floatatom 87 308 5 0 0 0 - - -, f 5;
#X text 120 336 Outlets: none. Transmits directly to the MIDI port.
;
#X text 77 253 Left: (int) control value (0-127).;
#X text 105 279 Middle: (int) controller number.;
#X text 150 307 Right: (int) channel number.;
#X obj 311 427 tgl 15 0 empty empty empty 0 -6 0 10 -262144 -1 -1 0
1;
#X obj 311 456 * 127;
#X obj 311 488 ctlout 64;
#X obj 105 433 makenote 64 250;
#X msg 105 400 60;
#X obj 105 476 noteout;
#X text 306 374 To control the sustain pedal (controller number 64)
all numbers < 64 are OFF and > 64 are ON.;
#X obj 461 489 ctlout 1;
#X obj 463 445 hsl 128 15 0 127 0 0 empty empty empty -2 -6 0 10 -262144
-1 -1 0 1;
#X text 457 519 Modulation Wheel (controller number 1);
#X text 37 525 See also:;
#X obj 141 526 ctlin;
#X text 34 29 Send MIDI control messages to the MIDI port;
#X connect 4 0 5 0;
#X connect 6 0 5 1;
#X connect 7 0 5 2;
#X connect 12 0 13 0;
#X connect 13 0 14 0;
#X connect 15 0 17 0;
#X connect 15 1 17 1;
#X connect 16 0 15 0;
#X connect 20 0 19 0;
