#N canvas 249 451 909 485 10;
#X obj 108 253 makenote;
#X obj 69 231 f;
#X obj 374 33 tgl 15 0 empty empty empty 0 -6 0 10 -262144 -1 -1 0
1;
#X msg 163 138 64;
#X obj 186 217 + 200;
#X obj 69 95 metro 250;
#X obj 113 308 noteout 1;
#X obj 336 253 makenote;
#X obj 297 231 f;
#X msg 391 138 64;
#X obj 414 217 + 200;
#X obj 341 308 noteout 2;
#X obj 84 195 + 55;
#X obj 312 195 + 55;
#X obj 528 244 makenote;
#X obj 489 222 f;
#X msg 583 129 64;
#X obj 606 208 + 200;
#X obj 504 186 + 48;
#X obj 712 249 makenote;
#X obj 673 227 f;
#X msg 767 134 64;
#X obj 790 213 + 200;
#X obj 533 299 noteout 3;
#X obj 717 304 noteout 4;
#X obj 674 91 metro 500;
#X obj 298 95 metro 250;
#X obj 490 86 metro 333;
#X obj 84 160 random 30;
#X obj 312 160 random 30;
#X obj 504 151 random 30;
#X obj 688 156 random 30;
#X obj 39 152 bng 15 250 50 0 empty empty empty 17 7 0 10 -262144 -1
-1;
#X obj 263 143 bng 15 250 50 0 empty empty empty 17 7 0 10 -262144
-1 -1;
#X obj 461 130 bng 15 250 50 0 empty empty empty 17 7 0 10 -262144
-1 -1;
#X obj 644 138 bng 15 250 50 0 empty empty empty 17 7 0 10 -262144
-1 -1;
#X obj 688 191 + 36;
#X connect 0 0 6 0;
#X connect 0 1 6 1;
#X connect 1 0 0 0;
#X connect 2 0 5 0;
#X connect 2 0 25 0;
#X connect 2 0 26 0;
#X connect 2 0 27 0;
#X connect 3 0 0 1;
#X connect 4 0 0 2;
#X connect 5 0 1 0;
#X connect 5 0 3 0;
#X connect 5 0 28 0;
#X connect 5 0 32 0;
#X connect 7 0 11 0;
#X connect 7 1 11 1;
#X connect 8 0 7 0;
#X connect 9 0 7 1;
#X connect 10 0 7 2;
#X connect 12 0 1 1;
#X connect 13 0 8 1;
#X connect 14 0 23 0;
#X connect 14 1 23 1;
#X connect 15 0 14 0;
#X connect 16 0 14 1;
#X connect 17 0 14 2;
#X connect 18 0 15 1;
#X connect 19 0 24 0;
#X connect 19 1 24 1;
#X connect 20 0 19 0;
#X connect 21 0 19 1;
#X connect 22 0 19 2;
#X connect 25 0 20 0;
#X connect 25 0 21 0;
#X connect 25 0 31 0;
#X connect 25 0 35 0;
#X connect 26 0 8 0;
#X connect 26 0 9 0;
#X connect 26 0 29 0;
#X connect 26 0 33 0;
#X connect 27 0 15 0;
#X connect 27 0 16 0;
#X connect 27 0 30 0;
#X connect 27 0 34 0;
#X connect 28 0 4 0;
#X connect 28 0 12 0;
#X connect 29 0 10 0;
#X connect 29 0 13 0;
#X connect 30 0 17 0;
#X connect 30 0 18 0;
#X connect 31 0 22 0;
#X connect 31 0 36 0;
#X connect 36 0 20 1;
