#N canvas 308 166 1243 630 12;
#X obj 90 388 print done;
#X floatatom 23 461 5 0 0 0 - - -, f 5;
#X text 182 388 This outlet gets a bang when you hit the end of the
sequence.;
#X floatatom 70 461 5 0 0 0 - - -, f 5;
#X text 183 358 go to beginning (and stop);
#X msg 126 358 rewind;
#X obj 37 356 textfile;
#X msg 85 274 read ./lists.txt;
#X obj 625 141 metro 1000;
#X obj 625 191 f;
#X obj 659 191 + 1;
#X obj 625 119 tgl 15 0 empty empty empty 17 7 0 10 -262144 -1 -1 0
1;
#X msg 625 448 add \$1;
#X floatatom 625 217 5 0 0 0 - - -, f 5;
#X obj 662 266 bng 15 250 50 0 empty empty empty 17 7 0 10 -262144
-1 -1;
#X obj 625 266 bng 15 250 50 0 empty empty empty 17 7 0 10 -262144
-1 -1;
#X msg 663 335 add2 \$1;
#X msg 79 232 clear;
#X floatatom 114 461 5 0 0 0 - - -, f 5;
#X obj 23 487 osc~;
#X obj 103 591 dac~;
#X obj 695 191 mod 4;
#X obj 625 239 sel 3;
#X obj 37 418 unpack f f f f;
#X floatatom 157 461 5 0 0 0 - - -, f 5;
#X obj 71 487 osc~;
#X obj 114 489 osc~;
#X obj 157 489 osc~;
#X obj 71 544 *~ 0.25;
#X obj 156 545 *~ 0.25;
#X obj 625 422 + 200;
#X obj 663 311 + 200;
#X obj 625 397 random 200;
#X obj 663 286 random 200;
#X text 224 275 read file (the file is called with its path);
#X msg 54 192 write ./lists.txt;
#X text 211 192 write file (the file is called with its path);
#X obj 73 322 r msg;
#X text 147 156 single-step forward + print textfile;
#X obj 37 125 r bang;
#X msg 37 157 print \, bang;
#X obj 625 479 t b a;
#X obj 625 535 s bang;
#X obj 662 503 s msg;
#X obj 662 361 s msg;
#X msg 642 163 0;
#X text 34 64 The textfile object reads and writes text files to and
from memory. You can read a file and output sequential lines as lists
\, or collect lines and write them out.;
#X obj 203 512 tgl 15 0 empty empty empty 17 7 0 10 -262144 -1 -1 0.25
0.25;
#X text 34 34 Recording sequences with [textfile];
#X text 726 334 The message \, "add2" adds a list of atoms without
finishing with a semicolon in case you want to make variable-length
messages.;
#X text 682 447 Add messages (terminated with semicolons.) Here each
forth number terminates the list with a semicolon.;
#X text 691 529 With the bang the sequencer file lists.txt is printed
and written and the next line in this file is evaluated.;
#X connect 1 0 19 0;
#X connect 3 0 25 0;
#X connect 5 0 6 0;
#X connect 6 0 23 0;
#X connect 6 1 0 0;
#X connect 6 1 5 0;
#X connect 7 0 6 0;
#X connect 8 0 9 0;
#X connect 9 0 10 0;
#X connect 9 0 13 0;
#X connect 10 0 21 0;
#X connect 11 0 8 0;
#X connect 12 0 41 0;
#X connect 13 0 22 0;
#X connect 14 0 33 0;
#X connect 15 0 32 0;
#X connect 16 0 44 0;
#X connect 17 0 6 0;
#X connect 18 0 26 0;
#X connect 19 0 28 0;
#X connect 21 0 9 1;
#X connect 22 0 15 0;
#X connect 22 1 14 0;
#X connect 23 0 1 0;
#X connect 23 1 3 0;
#X connect 23 2 18 0;
#X connect 23 3 24 0;
#X connect 24 0 27 0;
#X connect 25 0 28 0;
#X connect 26 0 29 0;
#X connect 27 0 29 0;
#X connect 28 0 20 0;
#X connect 29 0 20 1;
#X connect 30 0 12 0;
#X connect 31 0 16 0;
#X connect 32 0 30 0;
#X connect 33 0 31 0;
#X connect 35 0 6 0;
#X connect 37 0 6 0;
#X connect 39 0 40 0;
#X connect 39 0 35 0;
#X connect 40 0 6 0;
#X connect 41 0 42 0;
#X connect 41 1 43 0;
#X connect 45 0 9 1;
#X connect 47 0 29 1;
#X connect 47 0 28 1;
