#N canvas 869 204 1105 787 16;
#X obj 28 106 inlet;
#X msg 647 100 16 20;
#X obj 296 413 f 0;
#X obj 337 411 + 1;
#X obj 337 440 mod 4;
#X obj 28 503 list prepend;
#X obj 28 532 route 0 1 2 3;
#N canvas 1171 357 869 534 1n 1;
#X obj 28 7 inlet;
#X obj 28 36 t l l;
#X obj 411 232 spigot;
#X obj 166 70 list length;
#X obj 173 230 spigot;
#X obj 306 231 spigot;
#X obj 411 342 unpack f f f;
#X obj 423 470 pack;
#X obj 416 409 del;
#X obj 410 373 t b f;
#X obj 416 438 f;
#X obj 203 509 outlet;
#X text 282 512 to line~;
#X obj 16 153 == 0;
#X obj 88 142 == 1;
#X obj 167 146 == 2;
#X obj 468 187 == 3;
#X obj 173 411 f;
#X text 204 17 there are maximum 3 elements in a SUBlist for vline
;
#X obj 679 193 inlet;
#X msg 679 222 stop;
#X text 678 163 clear delay;
#X connect 0 0 1 0;
#X connect 1 0 2 0;
#X connect 1 0 4 0;
#X connect 1 0 5 0;
#X connect 1 1 3 0;
#X connect 2 0 6 0;
#X connect 3 0 13 0;
#X connect 3 0 14 0;
#X connect 3 0 15 0;
#X connect 3 0 16 0;
#X connect 4 0 17 0;
#X connect 5 0 11 0;
#X connect 6 0 9 0;
#X connect 6 1 7 1;
#X connect 6 2 8 1;
#X connect 7 0 11 0;
#X connect 8 0 10 0;
#X connect 9 0 8 0;
#X connect 9 1 10 1;
#X connect 10 0 7 0;
#X connect 14 0 4 1;
#X connect 15 0 5 1;
#X connect 16 0 2 1;
#X connect 17 0 11 0;
#X connect 19 0 20 0;
#X connect 20 0 8 0;
#X restore 62 596 pd 1n;
#X msg 213 96 1 200 \, 2 400 1900;
#X obj 63 674 line~;
#X obj 63 703 outlet~;
#X obj 263 678 line;
#X obj 263 707 outlet;
#X msg 428 99 0 \, 1 200 \, 0 10 2000;
#X obj 476 703 outlet;
#X obj 28 158 t l a;
#X obj 201 193 list split 2;
#X obj 259 270 route bang float;
#X obj 337 305 select 0;
#X text 12 741 sublists = lists gescheiden door commas in 1 message
box;
#N canvas 549 106 869 534 1n 0;
#X obj 28 7 inlet;
#X obj 28 36 t l l;
#X obj 411 232 spigot;
#X obj 166 70 list length;
#X obj 173 230 spigot;
#X obj 306 231 spigot;
#X obj 411 342 unpack f f f;
#X obj 423 470 pack;
#X obj 416 409 del;
#X obj 410 373 t b f;
#X obj 416 438 f;
#X obj 203 509 outlet;
#X text 282 512 to line~;
#X obj 16 153 == 0;
#X obj 88 142 == 1;
#X obj 167 146 == 2;
#X obj 468 187 == 3;
#X obj 173 411 f;
#X text 204 17 there are maximum 3 elements in a SUBlist for vline
;
#X obj 679 193 inlet;
#X msg 679 222 stop;
#X text 678 163 clear delay;
#X connect 0 0 1 0;
#X connect 1 0 2 0;
#X connect 1 0 4 0;
#X connect 1 0 5 0;
#X connect 1 1 3 0;
#X connect 2 0 6 0;
#X connect 3 0 13 0;
#X connect 3 0 14 0;
#X connect 3 0 15 0;
#X connect 3 0 16 0;
#X connect 4 0 17 0;
#X connect 5 0 11 0;
#X connect 6 0 9 0;
#X connect 6 1 7 1;
#X connect 6 2 8 1;
#X connect 7 0 11 0;
#X connect 8 0 10 0;
#X connect 9 0 8 0;
#X connect 9 1 10 1;
#X connect 10 0 7 0;
#X connect 14 0 4 1;
#X connect 15 0 5 1;
#X connect 16 0 2 1;
#X connect 17 0 11 0;
#X connect 19 0 20 0;
#X connect 20 0 8 0;
#X restore 159 597 pd 1n;
#N canvas 549 106 869 534 1n 0;
#X obj 28 7 inlet;
#X obj 28 36 t l l;
#X obj 411 232 spigot;
#X obj 166 70 list length;
#X obj 173 230 spigot;
#X obj 306 231 spigot;
#X obj 411 342 unpack f f f;
#X obj 423 470 pack;
#X obj 416 409 del;
#X obj 410 373 t b f;
#X obj 416 438 f;
#X obj 203 509 outlet;
#X text 282 512 to line~;
#X obj 16 153 == 0;
#X obj 88 142 == 1;
#X obj 167 146 == 2;
#X obj 468 187 == 3;
#X obj 173 411 f;
#X text 204 17 there are maximum 3 elements in a SUBlist for vline
;
#X obj 679 193 inlet;
#X msg 679 222 stop;
#X text 678 163 clear delay;
#X connect 0 0 1 0;
#X connect 1 0 2 0;
#X connect 1 0 4 0;
#X connect 1 0 5 0;
#X connect 1 1 3 0;
#X connect 2 0 6 0;
#X connect 3 0 13 0;
#X connect 3 0 14 0;
#X connect 3 0 15 0;
#X connect 3 0 16 0;
#X connect 4 0 17 0;
#X connect 5 0 11 0;
#X connect 6 0 9 0;
#X connect 6 1 7 1;
#X connect 6 2 8 1;
#X connect 7 0 11 0;
#X connect 8 0 10 0;
#X connect 9 0 8 0;
#X connect 9 1 10 1;
#X connect 10 0 7 0;
#X connect 14 0 4 1;
#X connect 15 0 5 1;
#X connect 16 0 2 1;
#X connect 17 0 11 0;
#X connect 19 0 20 0;
#X connect 20 0 8 0;
#X restore 253 598 pd 1n;
#N canvas 549 106 869 534 1n 0;
#X obj 28 7 inlet;
#X obj 28 36 t l l;
#X obj 411 232 spigot;
#X obj 166 70 list length;
#X obj 173 230 spigot;
#X obj 306 231 spigot;
#X obj 411 342 unpack f f f;
#X obj 423 470 pack;
#X obj 416 409 del;
#X obj 410 373 t b f;
#X obj 416 438 f;
#X obj 203 509 outlet;
#X text 282 512 to line~;
#X obj 16 153 == 0;
#X obj 88 142 == 1;
#X obj 167 146 == 2;
#X obj 468 187 == 3;
#X obj 173 411 f;
#X text 204 17 there are maximum 3 elements in a SUBlist for vline
;
#X obj 679 193 inlet;
#X msg 679 222 stop;
#X text 678 163 clear delay;
#X connect 0 0 1 0;
#X connect 1 0 2 0;
#X connect 1 0 4 0;
#X connect 1 0 5 0;
#X connect 1 1 3 0;
#X connect 2 0 6 0;
#X connect 3 0 13 0;
#X connect 3 0 14 0;
#X connect 3 0 15 0;
#X connect 3 0 16 0;
#X connect 4 0 17 0;
#X connect 5 0 11 0;
#X connect 6 0 9 0;
#X connect 6 1 7 1;
#X connect 6 2 8 1;
#X connect 7 0 11 0;
#X connect 8 0 10 0;
#X connect 9 0 8 0;
#X connect 9 1 10 1;
#X connect 10 0 7 0;
#X connect 14 0 4 1;
#X connect 15 0 5 1;
#X connect 16 0 2 1;
#X connect 17 0 11 0;
#X connect 19 0 20 0;
#X connect 20 0 8 0;
#X restore 341 598 pd 1n;
#X text 401 596 delay sublists if necessary (rigth in: clear delay)
, f 27;
#X msg 497 136 0 \, 4 1 0 \, 0 1 2000 \, 4 1 3000;
#X text 104 100 examples:;
#X msg 736 110 3;
#X text 45 8 substitute for vline with line (accepts the same comma
separated messages) for reblocked subpatches (vline~ is not reliable
\, see vline-help.pd, f 77;
#X text 89 161 this splits the sublists from the message with commas
;
#X obj 134 272 print ggg;
#X obj 187 364 b;
#X text 443 234 enkel als derde element van sublist 0 is \, een bang
om de delays leeg te maken (zodat achteraf -met delay- niet nog waarden
naar line verstuurd <worden. derde element = 0: als sublist 1 of 2
elementen heeft en als derde element 0 is. \; Als het derde element
positief getal is \, telt de teller en wordt waarde naar een andere
delay gestuurd.;
#X obj 296 373 b;
#X text 435 188 the third element in a sublist (if present) is the
incremental time \,, f 47;
#X text 12 769 maximum 3 waarden binnen 1 (sub)list gescheiden door
comma aan inlet (zoals bij messages naar vline~ ), f 104;
#X text 14 789 [pd 1n] copieren als je messages met meer dan 4 sublists
wil sturen naar inlet van deze abstraction, f 104;
#X obj 446 520 print prp;
#X msg 371 369 0;
#X obj 434 370 loadbang;
#X connect 0 0 15 0;
#X connect 1 0 15 0;
#X connect 2 0 3 0;
#X connect 3 0 2 1;
#X connect 3 0 4 0;
#X connect 4 0 5 1;
#X connect 5 0 6 0;
#X connect 6 0 7 0;
#X connect 6 1 20 0;
#X connect 6 2 21 0;
#X connect 6 3 22 0;
#X connect 7 0 9 0;
#X connect 7 0 11 0;
#X connect 7 0 14 0;
#X connect 8 0 15 0;
#X connect 9 0 10 0;
#X connect 11 0 12 0;
#X connect 13 0 15 0;
#X connect 15 0 5 0;
#X connect 15 1 16 0;
#X connect 16 1 17 0;
#X connect 16 2 30 0;
#X connect 17 0 30 0;
#X connect 17 1 18 0;
#X connect 18 0 30 0;
#X connect 18 1 32 0;
#X connect 20 0 14 0;
#X connect 20 0 9 0;
#X connect 20 0 11 0;
#X connect 21 0 14 0;
#X connect 21 0 11 0;
#X connect 21 0 9 0;
#X connect 22 0 14 0;
#X connect 22 0 11 0;
#X connect 22 0 9 0;
#X connect 24 0 15 0;
#X connect 26 0 15 0;
#X connect 30 0 7 1;
#X connect 30 0 20 1;
#X connect 30 0 21 1;
#X connect 30 0 22 1;
#X connect 32 0 2 0;
#X connect 37 0 2 0;
#X connect 38 0 37 0;
