#N canvas 262 473 474 406 10;
#X obj 203 31 ctlin \$3;
#X obj 290 20 ctlin \$2;
#X obj 139 131 ctlin \$4;
#X obj 136 190 ctlin \$5;
#X obj 115 244 s \$1-nk-tgl1;
#X obj 114 297 s \$1-nk-tgl2;
#X obj 210 363 s \$1-nk-slider;
#X obj 276 194 s \$1-nk-knob;
#X obj 290 58 / 127;
#X obj 290 108 * 127;
#X obj 46 27 loadbang;
#X obj 46 59 f \$1;
#X obj 46 83 makefilename %d;
#X msg 46 107 label \$1;
#X obj 46 132 s \$1-cnv;
#X floatatom 210 339 5 0 0 0 - - -, f 5;
#X obj 210 315 r \$0-nanosliderno-r;
#X obj 277 147 r \$0-nanoknobno-r;
#X floatatom 276 171 5 0 0 0 - - -, f 5;
#X floatatom 203 52 5 0 0 0 - - -, f 5;
#X floatatom 290 41 5 0 0 0 - - -, f 5;
#N canvas 0 22 330 359 curve 1;
#X obj 42 56 inlet;
#X text 82 55 line 0-1;
#X obj 42 302 outlet;
#N canvas 0 22 450 300 (subpatch) 0;
#X array \$0-curve 200 float 0;
#X coords 0 1 199 0 50 50 2 0 0;
#X restore 89 98 graph;
#N canvas 786 75 427 417 draw_array 0;
#X msg 54 82 bang;
#X obj 54 103 until;
#X text 85 82 start;
#X obj 54 125 f;
#X obj 83 125 + 1;
#X obj 54 43 loadbang;
#X obj 54 180 trigger float float;
#X obj 127 127 select 0;
#X obj 53 313 tabwrite \$0-curve;
#X obj 138 9 inlet;
#X obj 153 32 send \$0-to-numbox;
#X obj 139 53 trigger bang float;
#X obj 83 147 mod 200;
#X obj 54 257 / 200;
#X text 96 257 mapping output range: 0 to 1;
#N canvas 0 22 491 504 curve 0;
#X obj 116 335 pow 1;
#X obj 72 20 inlet;
#X obj 267 19 inlet;
#X obj 116 415 outlet;
#X obj 281 253 exp;
#X msg 297 187 2;
#X obj 297 208 log;
#X obj 281 231 *;
#X obj 72 258 moses 0;
#X obj 72 293 * -1;
#X obj 72 335 pow 1;
#X obj 72 362 * -1;
#X obj 309 20 loadbang;
#X obj 267 165 t f b;
#X obj 267 129 * 10;
#X text 49 444 (C) Copyright 2004 Hans-Christoph Steiner <hans@at.or.at>
;
#X text 266 458 released under the GNU GPL;
#X obj 267 60 f \$1;
#X connect 0 0 3 0;
#X connect 1 0 8 0;
#X connect 2 0 17 0;
#X connect 4 0 0 1;
#X connect 4 0 10 1;
#X connect 5 0 6 0;
#X connect 6 0 7 1;
#X connect 7 0 4 0;
#X connect 8 0 9 0;
#X connect 8 1 0 0;
#X connect 9 0 10 0;
#X connect 10 0 11 0;
#X connect 11 0 3 0;
#X connect 12 0 17 0;
#X connect 13 0 7 0;
#X connect 13 1 5 0;
#X connect 14 0 13 0;
#X connect 17 0 14 0;
#X restore 54 284 pd curve;
#X connect 0 0 1 0;
#X connect 1 0 3 0;
#X connect 3 0 4 0;
#X connect 3 0 6 0;
#X connect 4 0 12 0;
#X connect 5 0 0 0;
#X connect 6 0 13 0;
#X connect 6 1 8 1;
#X connect 7 0 1 1;
#X connect 9 0 10 0;
#X connect 9 0 11 0;
#X connect 11 0 0 0;
#X connect 11 1 15 1;
#X connect 12 0 3 1;
#X connect 12 0 7 0;
#X connect 13 0 15 0;
#X connect 15 0 8 0;
#X restore 172 184 pd draw_array;
#X floatatom 164 215 8 0 0 0 - - -, f 8;
#X obj 201 109 loadbang;
#X obj 163 55 inlet;
#X obj 162 78 pack 0 10;
#X obj 163 107 line;
#X text 202 56 change curve;
#X text 167 295 doettlinger09;
#N canvas 0 22 491 504 curve 0;
#X obj 116 335 pow 1;
#X obj 72 20 inlet;
#X obj 267 19 inlet;
#X obj 116 415 outlet;
#X obj 281 253 exp;
#X msg 297 187 2;
#X obj 297 208 log;
#X obj 281 231 *;
#X obj 72 258 moses 0;
#X obj 72 293 * -1;
#X obj 72 335 pow 1;
#X obj 72 362 * -1;
#X obj 309 20 loadbang;
#X obj 267 165 t f b;
#X obj 267 129 * 10;
#X text 49 444 (C) Copyright 2004 Hans-Christoph Steiner <hans@at.or.at>
;
#X text 266 458 released under the GNU GPL;
#X obj 267 60 f \$1;
#X connect 0 0 3 0;
#X connect 1 0 8 0;
#X connect 2 0 17 0;
#X connect 4 0 0 1;
#X connect 4 0 10 1;
#X connect 5 0 6 0;
#X connect 6 0 7 1;
#X connect 7 0 4 0;
#X connect 8 0 9 0;
#X connect 8 1 0 0;
#X connect 9 0 10 0;
#X connect 10 0 11 0;
#X connect 11 0 3 0;
#X connect 12 0 17 0;
#X connect 13 0 7 0;
#X connect 13 1 5 0;
#X connect 14 0 13 0;
#X connect 17 0 14 0;
#X restore 42 212 pd curve;
#X text 42 6 arg: curve between -1 and 1 (0 =linear);
#X obj 163 158 f;
#X obj 237 132 bng 15 250 50 0 empty empty empty 17 7 0 10 -262144
-1 -1;
#X obj 199 133 0.06;
#X connect 0 0 12 0;
#X connect 6 0 16 0;
#X connect 7 0 8 0;
#X connect 8 0 9 0;
#X connect 9 0 14 0;
#X connect 12 0 2 0;
#X connect 14 0 4 0;
#X connect 14 0 5 0;
#X connect 14 0 12 1;
#X connect 15 0 16 0;
#X connect 16 0 14 0;
#X restore 290 83 pd curve;
#X obj 200 70 cnv 15 50 230 empty empty empty 20 12 0 14 -191407 -66577
0;
#X floatatom 208 99 5 0 0 0 - #0-nanoknob-s #0-nanoknobno-r, f 5;
#X obj 207 79 hsl 35 15 0 127 0 0 \$0-nanoknob-s \$0-nanoknob-r empty
-2 -8 0 10 -1 -258113 -1 0 1;
#X obj 207 130 cnv 15 15 20 empty \$1-cnv 1 5 10 0 14 -66577 -262144
0;
#X obj 206 177 tgl 15 0 \$0-nanotoggle1-s \$0-nanotoggle1-r empty 17
7 0 10 -262144 -258113 -1 0 1;
#X obj 205 236 tgl 15 0 \$0-nanotoggle2-s \$0-nanotoggle1-r empty 17
7 0 10 -262144 -258113 -1 0 1;
#X obj 227 142 vsl 15 128 0 127 0 0 \$0-nanoslider-s \$0-nanoslider-r
empty 0 -9 0 10 -1 -258113 -1 0 1;
#X floatatom 209 277 5 0 0 0 - #0-nanoslider-s #0-nanosliderno-r,
f 5;
#X obj 399 59 ctlin;
#X floatatom 412 94 5 0 0 0 - - -, f 5;
#X connect 0 0 19 0;
#X connect 1 0 20 0;
#X connect 2 0 26 0;
#X connect 3 0 27 0;
#X connect 8 0 21 0;
#X connect 9 0 28 0;
#X connect 10 0 11 0;
#X connect 11 0 12 0;
#X connect 12 0 13 0;
#X connect 13 0 14 0;
#X connect 15 0 6 0;
#X connect 16 0 15 0;
#X connect 17 0 18 0;
#X connect 18 0 7 0;
#X connect 19 0 24 0;
#X connect 20 0 8 0;
#X connect 21 0 9 0;
#X connect 26 0 4 0;
#X connect 27 0 5 0;
#X connect 30 1 31 0;
#X coords 0 -1 1 1 50 230 2 200 70;
