#N canvas 324 349 671 655 10;
#X obj 230 450 tabwrite~ \$0-rec-1;
#X obj 367 452 tabwrite~ \$0-rec-2;
#X obj 44 560 dac~;
#X obj 32 461 tabplay~ \$0-rec-1;
#X obj 81 481 tabplay~ \$0-rec-2;
#X obj 31 508 hip~ 5;
#X obj 111 510 hip~ 5;
#X obj 239 199 metro 30000;
#X obj 242 239 f 0;
#X obj 295 223 + 1;
#X obj 296 245 mod 2;
#X obj 265 278 select 0 1;
#X msg 375 425 stop;
#X msg 231 428 stop;
#X obj 32 420 f 0;
#X msg 32 441 0 \$1;
#X obj 81 421 f 0;
#X msg 81 440 0 \$1;
#X obj 31 347 t b b;
#X obj 80 347 t b b;
#X msg 39 377 normalize 1;
#X obj 39 398 s \$0-rec-1;
#X msg 128 377 normalize 1;
#X obj 127 399 s \$0-rec-2;
#X obj 20 16 bng 64 250 50 0 empty empty empty 17 7 0 10 #fcac44 #000000 #000000;
#X obj 92 16 bng 64 250 50 0 empty empty empty 17 7 0 10 #e8e828 #000000 #000000;
#X obj 49 104 timer;
#X obj 59 322 * 44100;
#X obj 49 133 t b f f;
#X obj 350 316 adc~;
#X obj 350 336 hip~ 5;
#X obj 350 366 lop~ 5000;
#X obj 112 534 lop~ 5000;
#X obj 32 534 lop~ 5000;
#X obj 138 89 metro 1000;
#X obj 139 115 f 0;
#X obj 178 116 + 1;
#X floatatom 138 145 5 0 0 0 - - - 0;
#X obj 398 144 table \$0-rec-1 4.41e+06;
#X obj 398 165 table \$0-rec-2 4.41e+06;
#X obj 234 561 writesf~ 2;
#X msg 193 514 stop;
#X msg 232 515 open -bytes 4 sitting.wav \, start;
#X text 202 28 Pd implementation for Alvin Lucier's "I Am Sitting in a Room".;
#X connect 3 0 5 0;
#X connect 3 0 6 0;
#X connect 4 0 5 0;
#X connect 4 0 6 0;
#X connect 5 0 33 0;
#X connect 6 0 32 0;
#X connect 7 0 8 0;
#X connect 8 0 9 0;
#X connect 8 0 11 0;
#X connect 9 0 10 0;
#X connect 10 0 8 1;
#X connect 11 0 1 0;
#X connect 11 0 13 0;
#X connect 11 0 18 0;
#X connect 11 1 0 0;
#X connect 11 1 12 0;
#X connect 11 1 19 0;
#X connect 12 0 1 0;
#X connect 13 0 0 0;
#X connect 14 0 15 0;
#X connect 15 0 3 0;
#X connect 16 0 17 0;
#X connect 17 0 4 0;
#X connect 18 0 14 0;
#X connect 18 1 20 0;
#X connect 19 0 16 0;
#X connect 19 1 22 0;
#X connect 20 0 21 0;
#X connect 22 0 23 0;
#X connect 24 0 26 0;
#X connect 24 0 0 0;
#X connect 24 0 34 0;
#X connect 24 0 42 0;
#X connect 25 0 26 1;
#X connect 26 0 28 0;
#X connect 27 0 14 1;
#X connect 27 0 16 1;
#X connect 28 0 7 0;
#X connect 28 1 27 0;
#X connect 28 2 7 1;
#X connect 29 0 30 0;
#X connect 30 0 31 0;
#X connect 31 0 0 0;
#X connect 31 0 1 0;
#X connect 32 0 2 1;
#X connect 32 0 40 1;
#X connect 33 0 2 0;
#X connect 33 0 40 0;
#X connect 34 0 35 0;
#X connect 35 0 37 0;
#X connect 35 0 36 0;
#X connect 36 0 35 1;
#X connect 41 0 40 0;
#X connect 42 0 40 0;
