#N canvas 491 435 374 589 10;
#X obj 66 106 osc~ 200;
#X obj 181 403 env~;
#X floatatom 213 406 5 0 0 0 - - -, f 5;
#X obj 164 423 env~;
#X floatatom 196 426 5 0 0 0 - - -, f 5;
#X obj 148 443 env~;
#X floatatom 180 446 5 0 0 0 - - -, f 5;
#X obj 131 463 env~;
#X floatatom 163 466 5 0 0 0 - - -, f 5;
#X obj 115 484 env~;
#X floatatom 147 487 5 0 0 0 - - -, f 5;
#X obj 98 504 env~;
#X floatatom 130 507 5 0 0 0 - - -, f 5;
#X obj 82 524 env~;
#X floatatom 114 527 5 0 0 0 - - -, f 5;
#X obj 66 545 env~;
#X floatatom 98 548 5 0 0 0 - - -, f 5;
#X obj 83 127 osc~ 200;
#X obj 98 147 osc~ 200;
#X obj 115 168 osc~ 200;
#X obj 131 187 osc~ 200;
#X obj 148 210 osc~ 200;
#X obj 164 232 osc~ 200;
#X obj 181 253 osc~ 200;
#X text 43 26 8x8 mono audio patching matrix.;
#X obj 66 276 8in-out~ \$0;
#X text 44 53 rows top-to-bottom correspond to inputs 1-8;
#X text 44 71 columns left-to-right correspond to outputs 1-8.;
#X connect 0 0 25 0;
#X connect 1 0 2 0;
#X connect 3 0 4 0;
#X connect 5 0 6 0;
#X connect 7 0 8 0;
#X connect 9 0 10 0;
#X connect 11 0 12 0;
#X connect 13 0 14 0;
#X connect 15 0 16 0;
#X connect 17 0 25 1;
#X connect 18 0 25 2;
#X connect 19 0 25 3;
#X connect 20 0 25 4;
#X connect 21 0 25 5;
#X connect 22 0 25 6;
#X connect 23 0 25 7;
#X connect 25 0 15 0;
#X connect 25 1 13 0;
#X connect 25 2 11 0;
#X connect 25 3 9 0;
#X connect 25 4 7 0;
#X connect 25 5 5 0;
#X connect 25 6 3 0;
#X connect 25 7 1 0;
