#N canvas 198 68 763 438 10;
#X obj 111 266 select 0 1;
#X msg 109 288 10;
#X obj 110 87 route dsp;
#X msg 30 230 \; pd dsp \$1;
#X text 268 388 released under the GNU GPL;
#X text 51 374 (C) Copyright 2005 Hans-Christoph Steiner <hans@at.or.at>
;
#X msg 140 215 \; GLOBAL_PDDP_DSP_TOGGLE set \$1;
#X obj 223 163 float;
#X obj 111 165 float;
#X obj 109 60 receive pd;
#X obj 223 61 receive GLOBAL_PDDP_DSP;
#X obj 223 110 bang;
#X obj 337 81 loadbang;
#X obj 345 122 send GLOBAL_PDDP_DSP;
#X obj 223 130 spigot 0;
#X msg 309 105 1;
#X msg 109 318 \; GLOBAL_PDDP_DSP_TOGGLE color \$1 12 12 \;;
#X msg 143 288 73;
#X text 508 372 (c) 2008 (additions) Achim Bornhoeft;
#X obj 0 0 cnv 15 110 50 empty empty empty 20 12 0 14 -233017 -66577
0;
#X obj 518 201 cputime;
#X obj 518 61 loadbang;
#X obj 518 145 metro 1000;
#X msg 518 89 1;
#X floatatom 518 117 0 0 0 0 - - -;
#X obj 518 173 t b b;
#X obj 518 261 * 0.1;
#X obj 518 230 int;
#X text 563 117 <-- on/off;
#X text 512 324 CPU load in percent;
#X obj 518 290 s \$0-cpu;
#X obj 8 14 tgl 20 0 \$0-global-dsp-toggle-s GLOBAL_PDDP_DSP_TOGGLE
empty 0 -6 0 10 -258699 -33289 -33289 0 1;
#X floatatom 42 15 0 0 0 1 cpu #0-cpu cpu-s;
#X connect 0 0 1 0;
#X connect 0 1 17 0;
#X connect 1 0 16 0;
#X connect 2 0 8 0;
#X connect 2 0 7 1;
#X connect 7 0 6 0;
#X connect 7 0 3 0;
#X connect 8 0 6 0;
#X connect 8 0 0 0;
#X connect 9 0 2 0;
#X connect 10 0 11 0;
#X connect 11 0 14 0;
#X connect 12 0 13 0;
#X connect 12 0 15 0;
#X connect 14 0 7 0;
#X connect 15 0 14 1;
#X connect 17 0 16 0;
#X connect 20 0 27 0;
#X connect 21 0 23 0;
#X connect 22 0 25 0;
#X connect 23 0 24 0;
#X connect 24 0 22 0;
#X connect 25 0 20 0;
#X connect 25 1 20 1;
#X connect 26 0 30 0;
#X connect 27 0 26 0;
#X connect 31 0 3 0;
#X connect 31 0 8 0;
#X coords 0 -1 1 1 110 50 1 0 0;
