#N canvas 845 115 772 839 12;
#X obj 460 724 outlet~;
#X obj 460 697 *~;
#X obj 363 610 +~;
#X obj 229 463 *;
#X obj 230 490 int;
#X obj 363 549 *~;
#N canvas 236 122 209 300 env 0;
#X obj 40 64 -~ 0.5;
#X obj 40 156 clip~ -0.5 0.5;
#X obj 40 133 *~ 1;
#X obj 40 179 cos~;
#X obj 40 87 wrap~;
#X obj 40 110 -~ 0.5;
#X obj 40 227 *~ -0.5;
#X obj 40 202 -~ 1;
#X obj 40 41 inlet~;
#X obj 40 250 outlet~;
#X obj 103 42 inlet;
#X text 105 20 sharpness;
#X text 40 20 phasor;
#X obj 102 106 max 1;
#X connect 0 0 4 0;
#X connect 1 0 3 0;
#X connect 2 0 1 0;
#X connect 3 0 7 0;
#X connect 4 0 5 0;
#X connect 5 0 2 0;
#X connect 6 0 9 0;
#X connect 7 0 6 0;
#X connect 8 0 0 0;
#X connect 10 0 13 0;
#X connect 13 0 2 1;
#X restore 541 638 pd env;
#X obj 361 443 vline~;
#X msg 361 419 0 \, 1 \$1;
#X obj 359 365 /;
#X obj 384 581 samphold~;
#X obj 363 641 tabread4~ sample-99;
#X obj 588 46 inlet sharp;
#X obj 356 244 *;
#X obj 354 148 t b f;
#X obj 135 46 inlet out-hop;
#X obj 354 46 inlet seglength;
#X floatatom 228 407 10 0 0 0 - - -, f 10;
#X obj 30 150 metro 100;
#X obj 72 293 f;
#X obj 142 294 mod;
#X obj 103 294 + 1;
#X obj 228 379 /;
#X msg 92 267 0;
#X obj 30 47 inlet toggle;
#X obj 249 46 inlet in-hop;
#X obj 250 435 r buf;
#X obj 482 174 t b f;
#X floatatom 599 612 5 0 0 0 - - -, f 5;
#N canvas 0 22 450 300 semitone 0;
#X obj 34 116 pow 2;
#X obj 63 90 / 12;
#X obj 34 167 outlet;
#X obj 33 64 t b f;
#X msg 33 89 2;
#X obj 32 41 inlet;
#X text 28 203 semitones just returns the right src from the given
semitone transposition \, e.g. (semitones 12) will return 2;
#X connect 0 0 2 0;
#X connect 1 0 0 1;
#X connect 3 0 4 0;
#X connect 3 1 1 0;
#X connect 4 0 0 0;
#X connect 5 0 3 0;
#X restore 482 147 pd semitone;
#X obj 482 46 inlet transp;
#X obj 599 584 r \$0-env-sharp-s;
#X obj 99 120 f;
#X floatatom 142 322 5 0 0 0 - - -, f 5;
#X obj 361 392 line \$1 100;
#N canvas 0 22 384 274 dur: 0;
#X obj 59 32 inlet dur (msec);
#X obj 58 237 outlet dur (samples);
#X obj 58 182 *;
#X obj 58 209 int;
#X obj 58 62 t f b;
#X obj 94 146 / 1000;
#X obj 116 64 loadbang;
#X obj 116 92 samplerate~;
#X obj 95 120 f;
#X connect 0 0 4 0;
#X connect 2 0 3 0;
#X connect 3 0 1 0;
#X connect 4 0 2 0;
#X connect 4 1 8 0;
#X connect 5 0 2 1;
#X connect 6 0 7 0;
#X connect 7 0 8 1;
#X connect 8 0 5 0;
#X restore 462 392 pd dur: ms->smp;
#X text 397 246 out-hop * seglength = grain duration;
#X text 598 556 shape of envelope;
#X text 501 697 dynamic with envelope;
#X text 23 464 starting points in input;
#X text 24 435 duration of the soundfile;
#X text 177 294 increment input-put;
#X text 131 119 distance between grains (msec);
#X text 38 407 starting points 0 - 1;
#X text 399 365 transposition;
#X obj 230 519 sig~;
#X obj 384 516 samphold~;
#X obj 463 432 sig~;
#X text 77 757 The samphold~ object samples its left input whenever
its right input decreases in value \, here the [vline~] with each grain.
This avoids clicks when parameters are changed.;
#X connect 1 0 0 0;
#X connect 2 0 11 0;
#X connect 3 0 4 0;
#X connect 4 0 45 0;
#X connect 5 0 2 0;
#X connect 6 0 1 1;
#X connect 7 0 5 0;
#X connect 7 0 10 1;
#X connect 7 0 6 0;
#X connect 7 0 46 1;
#X connect 8 0 7 0;
#X connect 9 0 34 0;
#X connect 10 0 2 1;
#X connect 11 0 1 0;
#X connect 12 0 6 1;
#X connect 13 0 35 0;
#X connect 13 0 9 0;
#X connect 14 0 13 0;
#X connect 14 1 13 1;
#X connect 15 0 13 0;
#X connect 15 0 32 1;
#X connect 16 0 14 0;
#X connect 17 0 3 0;
#X connect 18 0 19 0;
#X connect 18 0 32 0;
#X connect 18 0 9 0;
#X connect 19 0 21 0;
#X connect 19 0 22 0;
#X connect 20 0 19 1;
#X connect 20 0 33 0;
#X connect 21 0 20 0;
#X connect 22 0 17 0;
#X connect 23 0 19 1;
#X connect 24 0 23 0;
#X connect 24 0 18 0;
#X connect 25 0 20 1;
#X connect 25 0 22 1;
#X connect 26 0 3 1;
#X connect 27 0 9 0;
#X connect 27 1 9 1;
#X connect 28 0 6 1;
#X connect 29 0 27 0;
#X connect 30 0 29 0;
#X connect 31 0 28 0;
#X connect 32 0 18 1;
#X connect 34 0 8 0;
#X connect 35 0 47 0;
#X connect 45 0 10 0;
#X connect 46 0 5 1;
#X connect 47 0 46 0;
