#N canvas 161 339 220 354 10;
#X msg 31 134 label \$1;
#X obj 34 24 inlet;
#X obj 30 169 outlet;
#N canvas 0 22 450 300 runden 0;
#X msg 159 115 10;
#X obj 159 92 loadbang;
#X obj 79 120 * 1;
#X obj 79 90 inlet;
#X obj 120 167 / 1;
#X msg 120 145 1;
#X obj 79 145 + 0.5;
#X obj 79 170 div;
#X obj 79 217 outlet;
#X obj 79 193 * 1;
#X obj 159 136 pow 2;
#X connect 0 0 10 0;
#X connect 1 0 0 0;
#X connect 2 0 6 0;
#X connect 3 0 2 0;
#X connect 4 0 9 1;
#X connect 5 0 4 0;
#X connect 6 0 7 0;
#X connect 7 0 9 0;
#X connect 9 0 8 0;
#X connect 10 0 2 1;
#X connect 10 0 4 1;
#X connect 10 0 5 0;
#X restore 33 52 pd runden;
#X obj 32 107 makefilename \$1:%s;
#X connect 0 0 2 0;
#X connect 1 0 3 0;
#X connect 3 0 4 0;
#X connect 4 0 0 0;
