#N canvas 364 22 531 763 12;
#X floatatom 90 555 5 0 0 3 freq - frequency;
#X obj 28 413 vsl 15 128 0 5 0 0 empty amplitude-set empty 0 -8 0 8
-262144 -1 -1 0 1;
#X obj 28 393 tgl 15 0 audio_on empty audio_on 18 8 0 12 -262144 -1
-1 0 1;
#X obj 90 415 vsl 15 128 100 2000 0 0 empty frequency-set empty 0 -8
0 12 -262144 -1 -1 2273 1;
#X floatatom 28 553 5 0 0 3 amp - amplitude;
#N canvas 0 22 454 304 (subpatch) 0;
#X array display-05 110 float 0;
#X coords 0 2 109 -2 200 140 1;
#X restore 292 381 graph;
#X text 454 521 time;
#X text 255 374 amp;
#X obj 29 606 vradio 15 1 0 3 empty waveform-set empty 0 -6 0 8 -262144
-1 -1 0;
#X text 46 605 sine;
#X text 47 621 sawtooth;
#X text 48 636 noise;
#X text 19 193 The "cutoff" frequency determines the point at which
a filter starts removing frequencies.;
#X obj 366 572 vradio 15 1 0 4 empty filter-set empty 0 -6 0 8 -262144
-1 -1 0;
#X obj 366 655 s filter;
#X text 385 566 off;
#X text 384 582 lowpass;
#X text 384 599 highpass;
#X text 383 615 bandpass;
#X obj 29 677 s waveform;
#X obj 175 555 vsl 15 128 10 12000 1 0 empty empty freq -10 -10 0 12
-262144 -1 -1 0 1;
#X obj 175 716 s cutoff;
#X floatatom 175 691 5 0 0 0 - - -;
#X obj 268 555 vsl 15 128 0 100 0 0 empty empty Q 0 -10 0 12 -262144
-1 -1 0 1;
#X floatatom 268 691 5 0 0 0 - - -;
#X obj 268 716 s q;
#X text 19 241 In the case of a bandpass filter \, we specify the "bandwidth"
\, or q. This is the size of the frequency range the filter lets through.
;
#X text 21 310 PD also includes vcf~ \, which works just like bp~ but
takes a signal for cutoff \, allowing for smooth changes in frequency.
;
#N canvas 0 22 422 593 control 0;
#X obj 78 489 1;
#X obj 105 489 0;
#X obj 145 489 1;
#X obj 172 489 0;
#X obj 213 489 1;
#X obj 240 489 0;
#X obj 28 366 t b f;
#X obj 27 428 s graphit;
#X obj 28 405 del 10;
#X obj 28 344 r filter;
#X obj 143 527 s lop;
#X obj 214 530 s hip;
#X obj 76 524 s dry;
#X obj 283 490 1;
#X obj 310 490 0;
#X obj 283 528 s bp;
#X obj 150 410 sel 0 1 2 3;
#X obj 48 246 r dry;
#X obj 112 249 r lop;
#X obj 165 250 r hip;
#X obj 238 250 r bp;
#X obj 32 267 *~;
#X obj 96 224 lop~;
#X obj 179 59 r cutoff;
#X obj 96 270 *~;
#X obj 149 271 *~;
#X obj 149 226 hip~;
#X obj 180 89 t b f;
#X obj 179 145 s graphit;
#X obj 180 122 del 10;
#X obj 221 271 *~;
#X obj 221 226 bp~;
#X obj 277 55 r q;
#X obj 276 84 t b f;
#X obj 273 140 s graphit;
#X obj 274 117 del 10;
#N canvas 46 42 577 445 controls-1 0;
#X obj 45 -23 r audio_on;
#X msg 77 38 \; pd dsp \$1;
#X obj 45 114 s graphit;
#X obj 45 12 t b f;
#X obj 45 88 del 10;
#X obj 36 220 loadbang;
#X obj 307 -30 r waveform;
#X obj 323 145 s sine;
#X obj 380 142 s saw;
#X obj 438 142 s noise;
#X obj 324 109 1;
#X obj 351 109 0;
#X obj 381 109 1;
#X obj 408 109 0;
#X obj 439 109 1;
#X obj 471 108 0;
#X obj 307 1 t b f;
#X obj 277 63 s graphit;
#X obj 278 40 del 10;
#X obj 217 156 t b f;
#X obj 217 129 r frequency;
#X obj 317 215 phasor~ 440;
#X obj 247 215 osc~ 440;
#X obj 318 317 *~;
#X obj 247 268 *~;
#X obj 336 292 r saw;
#X obj 265 242 r sine;
#X obj 409 215 noise~;
#X obj 409 260 *~;
#X obj 426 241 r noise;
#X obj 317 245 *~ 2;
#X obj 318 270 -~ 1;
#X text 320 191 each with its own volume control;
#X obj 318 362 outlet~;
#X obj 369 26 sel 0 1 2;
#X obj 164 218 s graphit;
#X obj 36 249 del 10;
#X msg 36 276 \; pd dsp 0 \; amplitude-set 0 \; frequency-set 440 \;
waveform-set 0 \; filter-set 0 \;;
#X text 320 178 Three different sound generators \,;
#X connect 0 0 3 0;
#X connect 3 0 4 0;
#X connect 3 1 1 0;
#X connect 4 0 2 0;
#X connect 5 0 36 0;
#X connect 6 0 16 0;
#X connect 10 0 7 0;
#X connect 11 0 7 0;
#X connect 12 0 8 0;
#X connect 13 0 8 0;
#X connect 14 0 9 0;
#X connect 15 0 9 0;
#X connect 16 0 18 0;
#X connect 16 1 34 0;
#X connect 18 0 17 0;
#X connect 19 0 35 0;
#X connect 19 1 21 0;
#X connect 19 1 22 0;
#X connect 20 0 19 0;
#X connect 21 0 30 0;
#X connect 22 0 24 0;
#X connect 23 0 33 0;
#X connect 24 0 33 0;
#X connect 25 0 23 1;
#X connect 26 0 24 1;
#X connect 27 0 28 0;
#X connect 28 0 33 0;
#X connect 29 0 28 1;
#X connect 30 0 31 0;
#X connect 31 0 23 0;
#X connect 34 0 10 0;
#X connect 34 0 13 0;
#X connect 34 0 15 0;
#X connect 34 1 12 0;
#X connect 34 1 11 0;
#X connect 34 1 15 0;
#X connect 34 2 14 0;
#X connect 34 2 11 0;
#X connect 34 2 13 0;
#X connect 36 0 37 0;
#X restore 32 24 pd controls-1;
#N canvas 0 22 316 312 controls-2 0;
#X obj 179 120 line~;
#X obj 125 53 t b f;
#X obj 103 88 s graphit;
#X obj 126 24 r amplitude;
#X obj 180 87 pack 0 10;
#X obj 35 104 inlet~;
#X obj 35 238 dac~;
#X obj 35 163 *~;
#X obj 35 204 *~ 0.2;
#X obj 105 179 r graphit;
#X obj 104 209 tabwrite~ display-05;
#X connect 0 0 7 1;
#X connect 1 0 2 0;
#X connect 1 1 4 0;
#X connect 3 0 1 0;
#X connect 4 0 0 0;
#X connect 5 0 7 0;
#X connect 7 0 8 0;
#X connect 7 0 10 0;
#X connect 8 0 6 0;
#X connect 8 0 6 1;
#X connect 9 0 10 0;
#X restore 124 313 pd controls-2;
#X text 126 378 selector for filter types;
#X connect 0 0 12 0;
#X connect 1 0 12 0;
#X connect 2 0 10 0;
#X connect 3 0 10 0;
#X connect 4 0 11 0;
#X connect 5 0 11 0;
#X connect 6 0 8 0;
#X connect 6 1 16 0;
#X connect 8 0 7 0;
#X connect 9 0 6 0;
#X connect 13 0 15 0;
#X connect 14 0 15 0;
#X connect 16 0 0 0;
#X connect 16 0 3 0;
#X connect 16 0 5 0;
#X connect 16 0 14 0;
#X connect 16 1 2 0;
#X connect 16 1 1 0;
#X connect 16 1 5 0;
#X connect 16 1 14 0;
#X connect 16 2 4 0;
#X connect 16 2 1 0;
#X connect 16 2 3 0;
#X connect 16 2 14 0;
#X connect 16 3 5 0;
#X connect 16 3 3 0;
#X connect 16 3 1 0;
#X connect 16 3 13 0;
#X connect 17 0 21 1;
#X connect 18 0 24 1;
#X connect 19 0 25 1;
#X connect 20 0 30 1;
#X connect 21 0 37 0;
#X connect 22 0 24 0;
#X connect 23 0 27 0;
#X connect 24 0 37 0;
#X connect 25 0 37 0;
#X connect 26 0 25 0;
#X connect 27 0 29 0;
#X connect 27 1 22 1;
#X connect 27 1 26 1;
#X connect 27 1 31 1;
#X connect 29 0 28 0;
#X connect 30 0 37 0;
#X connect 31 0 30 0;
#X connect 32 0 33 0;
#X connect 33 0 35 0;
#X connect 33 1 31 2;
#X connect 35 0 34 0;
#X connect 36 0 21 0;
#X connect 36 0 22 0;
#X connect 36 0 26 0;
#X connect 36 0 31 0;
#X restore 403 22 pd control;
#X text 22 16 Filters;
#X text 19 66 Filters remove certain frequencies from a sound. Three
common types are known as lowpass \, highpass and bandpass filters.
They do what you would expect: allow certain frequency ranges to pass
through. This range is called "passband". The region in which frequencies
are subpressed ist called "stopband";
#X text 301 716 bp~ only;
#X connect 1 0 4 0;
#X connect 3 0 0 0;
#X connect 8 0 19 0;
#X connect 13 0 14 0;
#X connect 20 0 22 0;
#X connect 22 0 21 0;
#X connect 23 0 24 0;
#X connect 24 0 25 0;
