#N canvas 557 391 326 277 12;
#N canvas 581 113 280 537 10pol-lop 0;
#X obj 171 35 inlet;
#X obj 37 454 outlet~;
#X obj 37 36 inlet~;
#X obj 37 125 lop~;
#X obj 37 162 lop~;
#X obj 37 200 lop~;
#X obj 37 88 lop~;
#X obj 37 235 lop~;
#X obj 36 310 lop~;
#X obj 36 347 lop~;
#X obj 36 385 lop~;
#X obj 36 273 lop~;
#X obj 36 420 lop~;
#X connect 0 0 3 1;
#X connect 0 0 4 1;
#X connect 0 0 5 1;
#X connect 0 0 6 1;
#X connect 0 0 11 1;
#X connect 0 0 8 1;
#X connect 0 0 9 1;
#X connect 0 0 10 1;
#X connect 0 0 12 1;
#X connect 0 0 7 1;
#X connect 2 0 6 0;
#X connect 3 0 4 0;
#X connect 4 0 5 0;
#X connect 5 0 7 0;
#X connect 6 0 3 0;
#X connect 7 0 11 0;
#X connect 8 0 9 0;
#X connect 9 0 10 0;
#X connect 10 0 12 0;
#X connect 11 0 8 0;
#X connect 12 0 1 0;
#X restore 64 121 pd 10pol-lop;
#N canvas 581 113 280 537 10pol-hip 0;
#X obj 171 35 inlet;
#X obj 37 454 outlet~;
#X obj 37 36 inlet~;
#X obj 37 88 hip~;
#X obj 37 125 hip~;
#X obj 37 162 hip~;
#X obj 37 200 hip~;
#X obj 37 235 hip~;
#X obj 36 273 hip~;
#X obj 36 310 hip~;
#X obj 36 347 hip~;
#X obj 36 385 hip~;
#X obj 36 420 hip~;
#X connect 0 0 3 1;
#X connect 0 0 4 1;
#X connect 0 0 5 1;
#X connect 0 0 6 1;
#X connect 0 0 7 1;
#X connect 0 0 8 1;
#X connect 0 0 9 1;
#X connect 0 0 10 1;
#X connect 0 0 11 1;
#X connect 0 0 12 1;
#X connect 2 0 3 0;
#X connect 3 0 4 0;
#X connect 4 0 5 0;
#X connect 5 0 6 0;
#X connect 6 0 7 0;
#X connect 7 0 8 0;
#X connect 8 0 9 0;
#X connect 9 0 10 0;
#X connect 10 0 11 0;
#X connect 11 0 12 0;
#X connect 12 0 1 0;
#X restore 64 175 pd 10pol-hip;
#X obj 64 33 inlet~;
#X obj 64 221 outlet~;
#X obj 248 52 loadbang;
#X obj 197 135 f \$1;
#X obj 157 92 f \$2;
#X obj 145 34 inlet;
#X obj 197 33 inlet;
#X connect 0 0 1 0;
#X connect 1 0 3 0;
#X connect 2 0 0 0;
#X connect 4 0 5 0;
#X connect 4 0 6 0;
#X connect 5 0 1 1;
#X connect 6 0 0 1;
#X connect 7 0 6 0;
#X connect 8 0 5 0;
