#N canvas 884 257 536 618 12;
#X floatatom 66 388 5 0 0 0 midi - -, f 5;
#X floatatom 143 387 5 0 0 1 volume - -, f 5;
#X floatatom 66 471 5 0 0 0 - - -, f 5;
#X obj 66 416 mtof;
#X obj 66 357 unpack f f;
#X obj 101 107 unpack s f f;
#X symbolatom 101 175 10 0 0 0 - - -, f 10;
#X floatatom 147 154 5 0 0 0 - - -, f 5;
#X floatatom 194 134 5 0 0 0 - - -, f 5;
#X obj 84 203 route achim golo guy;
#X obj 85 309 print achim;
#X obj 136 281 print golo;
#X obj 241 230 print;
#X obj 188 254 print guy;
#X obj 66 497 osc~;
#X obj 66 568 dac~;
#X obj 66 534 *~;
#X obj 66 443 clip 200 1000;
#X text 187 443 set limits;
#X text 42 22 network identification (receiver);
#X text 194 311 routing incoming streams by name tag;
#X obj 322 64 tgl 15 0 empty empty empty 17 7 0 10 -262144 -1 -1 0
1;
#X msg 322 91 \; pd dsp \$1 \;;
#X obj 83 69 netreceive 3001 1;
#X connect 0 0 3 0;
#X connect 1 0 16 1;
#X connect 2 0 14 0;
#X connect 3 0 17 0;
#X connect 4 0 0 0;
#X connect 4 1 1 0;
#X connect 5 0 6 0;
#X connect 5 1 7 0;
#X connect 5 2 8 0;
#X connect 9 0 10 0;
#X connect 9 0 4 0;
#X connect 9 1 11 0;
#X connect 9 2 13 0;
#X connect 9 3 12 0;
#X connect 14 0 16 0;
#X connect 16 0 15 0;
#X connect 16 0 15 1;
#X connect 17 0 2 0;
#X connect 21 0 22 0;
#X connect 23 0 5 0;
#X connect 23 0 9 0;
