#N canvas 366 68 714 575 12;
#X obj 89 285 qlist;
#X msg 90 238 rewind;
#X msg 33 237 next;
#X obj 89 366 del;
#X obj 89 339 t b f;
#X obj 327 129 cnv 15 250 350 empty empty empty 20 12 0 14 -228856
-66577 0;
#X obj 337 452 hsl 128 15 0 1 0 0 empty empty empty -2 -6 0 8 -262144
-1 -1 2218 1;
#X obj 337 171 unpack f f f;
#X floatatom 336 218 5 0 0 0 - - -, f 5;
#X floatatom 411 218 5 0 0 0 - - -, f 5;
#X obj 337 136 r werte;
#X floatatom 519 218 5 0 0 0 - - -, f 5;
#X floatatom 334 428 5 0 0 0 - - -, f 5;
#X obj 334 401 line;
#X obj 446 305 del;
#X obj 335 342 pack f f;
#X obj 445 342 pack 0 f;
#X obj 446 265 t b f;
#X text 138 311 *);
#X text 28 56 Envelopes can be controlled via lists from a qlist file.
(It is possible to have more than one qlist object with more than one
qlist file in one patch.);
#X text 19 491 *) the leading argument in every line of a qlist file
= milliseconds until the next line is executed. This numbers are not
given when qlist is automatically sequencing.;
#X text 27 20 Sequencing envelopes with a qlist;
#X obj 33 211 bng 15 250 50 0 empty empty empty 17 7 0 10 -262144 -1
-1;
#X floatatom 89 313 6 0 0 0 - - -, f 6;
#X obj 124 191 t b b;
#X obj 124 159 loadbang;
#X msg 161 238 read 02-werte.txt;
#X connect 0 0 23 0;
#X connect 0 1 1 0;
#X connect 1 0 0 0;
#X connect 2 0 0 0;
#X connect 3 0 2 0;
#X connect 4 0 3 0;
#X connect 4 1 3 1;
#X connect 7 0 8 0;
#X connect 7 1 9 0;
#X connect 7 2 11 0;
#X connect 8 0 15 0;
#X connect 9 0 17 0;
#X connect 9 0 15 1;
#X connect 10 0 7 0;
#X connect 11 0 16 1;
#X connect 12 0 6 0;
#X connect 13 0 12 0;
#X connect 14 0 16 0;
#X connect 15 0 13 0;
#X connect 16 0 13 0;
#X connect 17 0 14 0;
#X connect 17 1 14 1;
#X connect 22 0 2 0;
#X connect 23 0 4 0;
#X connect 24 0 1 0;
#X connect 24 1 26 0;
#X connect 25 0 24 0;
#X connect 26 0 0 0;
