#N canvas 444 314 602 322 12;
#X obj 359 261 qlist;
#X msg 359 171 next;
#X obj 421 150 loadbang;
#X obj 375 204 bng 15 250 50 0 empty autobang empty 0 -6 0 8 -262144
-1 -1;
#X obj 359 118 key;
#X obj 359 144 sel 32;
#X msg 414 219 print;
#X msg 415 261 rewind;
#X obj 57 206 receive_qlist_abs 2;
#X text 54 68 The abstraction [receive_qlist_abs] is called twice \,
with 1 and 2 as variable (see inside);
#X text 54 23 [qlist] and abstractions with independent receive objects
named with different variables.;
#X msg 421 177 read 03-qlist.txt;
#X obj 56 147 receive_qlist_abs 1;
#X connect 0 1 7 0;
#X connect 1 0 0 0;
#X connect 2 0 11 0;
#X connect 3 0 0 0;
#X connect 4 0 5 0;
#X connect 5 0 1 0;
#X connect 6 0 0 0;
#X connect 7 0 0 0;
#X connect 11 0 0 0;
