#N canvas 541 290 667 415 12;
#X obj 88 320 r send1;
#X obj 88 348 line;
#X obj 91 376 hsl 128 15 0 8 0 0 empty empty empty -2 -6 0 8 -262144
-1 -1 3175 1;
#X obj 252 345 line;
#X obj 255 373 hsl 128 15 0 8 0 0 empty empty empty -2 -6 0 8 -262144
-1 -1 4762 1;
#X obj 252 317 r send2;
#X text 259 100 space = 1 line forward;
#X text 259 125 backspace = 1 line backward;
#X text 259 150 r = reset to first line;
#X text 259 200 enter number to jump to cue;
#X text 36 21 [cuelist];
#X obj 36 101 cuelist cuelist.txt;
#X text 36 46 Creation: [cuelist <name of cuelist file>];
#X text 200 270 See cuelist.txt for parameters.;
#X text 200 245 (Cue_00 is actually the first line in the qlist file.)
;
#X text 259 175 q = read the qlist file into [qlist];
#X connect 0 0 1 0;
#X connect 1 0 2 0;
#X connect 3 0 4 0;
#X connect 5 0 3 0;
#X coords 0 0 1 1 200 80 0;
