#N canvas 22 126 625 280 10;
#X obj 12 9 cnv 15 600 260 empty empty empty 20 12 0 14 #404040 #fcfcfc 0;
#X obj 68 30 cnv 15 40 20 empty empty KORG 5 12 0 14 #404040 #fcfcfc 0;
#X obj 69 62 cnv 15 40 20 empty empty KONTROL 5 12 1 14 #404040 #fcfcfc 0;
#X obj 27 66 cnv 15 40 15 empty empty nano 5 8 0 12 #fcfcfc #404040 0;
#X obj 24 59 cnv 1 120 1 empty empty empty 5 8 0 12 #fcfcfc #404040 0;
#X obj 205 23 nanokontrol-ch 2 2 11 20 29;
#N canvas 0 23 1448 968 scene 0;
#X obj 177 39 t b f;
#X obj 177 92 spigot;
#X obj 210 69 tgl 15 0 empty empty empty 17 7 0 10 #fcfcfc #000000 #000000 0 127;
#X obj 177 69 bng 15 250 50 0 empty empty empty 17 7 0 10 #fcfcfc #000000 #000000;
#X obj 177 119 tgl 15 0 empty empty empty 17 7 0 10 #fcfcfc #000000 #000000 0 1;
#X obj 177 144 sel 0 1;
#X msg 194 249 label \$1;
#X obj 194 196 symbol;
#X obj 194 222 makefilename %s;
#X msg 152 250 label;
#X obj 20 100 cnv 15 120 50 empty empty empty 30 12 0 16 #b8b8b8 #404040 0;
#X obj 375 44 t b f;
#X obj 375 97 spigot;
#X obj 408 74 tgl 15 0 empty empty empty 17 7 0 10 #fcfcfc #000000 #000000 0 127;
#X obj 375 74 bng 15 250 50 0 empty empty empty 17 7 0 10 #fcfcfc #000000 #000000;
#X obj 375 124 tgl 15 0 empty empty empty 17 7 0 10 #fcfcfc #000000 #000000 0 1;
#X obj 375 146 sel 0 1;
#X msg 393 251 label \$1;
#X obj 393 198 symbol;
#X obj 393 224 makefilename %s;
#X msg 350 252 label;
#X obj 177 11 ctlin 37;
#X obj 194 279 s 37-cnv-r;
#X obj 548 46 t b f;
#X obj 548 99 spigot;
#X obj 581 76 tgl 15 0 empty empty empty 17 7 0 10 #fcfcfc #000000 #000000 0 127;
#X obj 548 76 bng 15 250 50 0 empty empty empty 17 7 0 10 #fcfcfc #000000 #000000;
#X obj 548 126 tgl 15 0 empty empty empty 17 7 0 10 #fcfcfc #000000 #000000 0 1;
#X obj 548 151 sel 0 1;
#X msg 566 256 label \$1;
#X obj 566 203 symbol;
#X obj 566 229 makefilename %s;
#X msg 524 256 label;
#X obj 548 18 ctlin 39;
#X obj 566 286 s 39-cnv-r;
#X obj 375 16 ctlin 38;
#X obj 393 281 s 38-cnv-r;
#X msg 394 173 >;
#X obj 176 348 t b f;
#X obj 176 401 spigot;
#X obj 209 378 tgl 15 0 empty empty empty 17 7 0 10 #fcfcfc #000000 #000000 0 127;
#X obj 176 378 bng 15 250 50 0 empty empty empty 17 7 0 10 #fcfcfc #000000 #000000;
#X obj 176 428 tgl 15 0 empty empty empty 17 7 0 10 #fcfcfc #000000 #000000 0 1;
#X obj 176 453 sel 0 1;
#X msg 194 556 label \$1;
#X obj 194 503 symbol;
#X obj 194 529 makefilename %s;
#X msg 151 555 label;
#X obj 374 353 t b f;
#X obj 374 406 spigot;
#X obj 407 383 tgl 15 0 empty empty empty 17 7 0 10 #fcfcfc #000000 #000000 0 127;
#X obj 374 383 bng 15 250 50 0 empty empty empty 17 7 0 10 #fcfcfc #000000 #000000;
#X obj 374 433 tgl 15 0 empty empty empty 17 7 0 10 #fcfcfc #000000 #000000 0 1;
#X obj 374 458 sel 0 1;
#X msg 392 561 label \$1;
#X obj 392 508 symbol;
#X obj 392 534 makefilename %s;
#X msg 348 561 label;
#X obj 561 351 t b f;
#X obj 561 404 spigot;
#X obj 594 381 tgl 15 0 empty empty empty 17 7 0 10 #fcfcfc #000000 #000000 0 127;
#X obj 561 381 bng 15 250 50 0 empty empty empty 17 7 0 10 #fcfcfc #000000 #000000;
#X obj 561 431 tgl 15 0 empty empty empty 17 7 0 10 #fcfcfc #000000 #000000 0 1;
#X obj 561 456 sel 0 1;
#X msg 579 560 label \$1;
#X obj 579 507 symbol;
#X obj 579 533 makefilename %s;
#X msg 537 560 label;
#X obj 176 320 ctlin 40;
#X obj 374 325 ctlin 41;
#X obj 561 323 ctlin 42;
#X obj 194 586 s 40-cnv-r;
#X obj 392 591 s 41-cnv-r;
#X obj 579 590 s 42-cnv-r;
#X msg 195 478 @;
#X msg 195 171 «;
#X msg 567 178 »;
#X msg 580 482 •;
#X msg 393 483 ◊;
#X obj 25 105 cnv 15 33 18 37-cnv-s 37-cnv-r empty 11 7 0 20 #fcfcfc #404040 0;
#X obj 63 105 cnv 15 33 18 38-cnv-s 38-cnv-r empty 12 8 0 16 #fcfcfc #404040 0;
#X obj 25 127 cnv 15 33 18 40-cnv-s 40-cnv-r empty 12 9 0 16 #fcfcfc #404040 0;
#X obj 101 105 cnv 15 33 18 39-cnv-s 39-cnv-r empty 11 7 0 20 #fcfcfc #404040 0;
#X obj 101 127 cnv 15 33 18 42-cnv-s 42-cnv-r empty 10 10 0 24 #fcfcfc #404040 0;
#X obj 63 127 cnv 15 33 18 41-cnv-s 41-cnv-r empty 10 9 0 18 #fcfcfc #404040 0;
#X connect 0 0 3 0;
#X connect 0 1 2 0;
#X connect 1 0 4 0;
#X connect 2 0 1 1;
#X connect 3 0 1 0;
#X connect 4 0 5 0;
#X connect 5 0 9 0;
#X connect 5 1 75 0;
#X connect 6 0 22 0;
#X connect 7 0 8 0;
#X connect 8 0 6 0;
#X connect 9 0 22 0;
#X connect 11 0 14 0;
#X connect 11 1 13 0;
#X connect 12 0 15 0;
#X connect 13 0 12 1;
#X connect 14 0 12 0;
#X connect 15 0 16 0;
#X connect 16 0 20 0;
#X connect 16 1 37 0;
#X connect 17 0 36 0;
#X connect 18 0 19 0;
#X connect 19 0 17 0;
#X connect 20 0 36 0;
#X connect 21 0 0 0;
#X connect 23 0 26 0;
#X connect 23 1 25 0;
#X connect 24 0 27 0;
#X connect 25 0 24 1;
#X connect 26 0 24 0;
#X connect 27 0 28 0;
#X connect 28 0 32 0;
#X connect 28 1 76 0;
#X connect 29 0 34 0;
#X connect 30 0 31 0;
#X connect 31 0 29 0;
#X connect 32 0 34 0;
#X connect 33 0 23 0;
#X connect 35 0 11 0;
#X connect 37 0 18 0;
#X connect 38 0 41 0;
#X connect 38 1 40 0;
#X connect 39 0 42 0;
#X connect 40 0 39 1;
#X connect 41 0 39 0;
#X connect 42 0 43 0;
#X connect 43 0 47 0;
#X connect 43 1 74 0;
#X connect 44 0 71 0;
#X connect 45 0 46 0;
#X connect 46 0 44 0;
#X connect 47 0 71 0;
#X connect 48 0 51 0;
#X connect 48 1 50 0;
#X connect 49 0 52 0;
#X connect 50 0 49 1;
#X connect 51 0 49 0;
#X connect 52 0 53 0;
#X connect 53 0 57 0;
#X connect 53 1 78 0;
#X connect 54 0 72 0;
#X connect 55 0 56 0;
#X connect 56 0 54 0;
#X connect 57 0 72 0;
#X connect 58 0 61 0;
#X connect 58 1 60 0;
#X connect 59 0 62 0;
#X connect 60 0 59 1;
#X connect 61 0 59 0;
#X connect 62 0 63 0;
#X connect 63 0 67 0;
#X connect 63 1 77 0;
#X connect 64 0 73 0;
#X connect 65 0 66 0;
#X connect 66 0 64 0;
#X connect 67 0 73 0;
#X connect 68 0 38 0;
#X connect 69 0 48 0;
#X connect 70 0 58 0;
#X connect 74 0 45 0;
#X connect 75 0 7 0;
#X connect 76 0 30 0;
#X connect 77 0 65 0;
#X connect 78 0 55 0;
#X coords 0 -1 1 1 120 50 2 20 100;
#X restore 23 140 pd scene;
#X obj 155 23 nanokontrol-ch 1 1 10 19 28;
#X obj 553 23 nanokontrol-ch 9 9 18 27 36;
#X obj 503 23 nanokontrol-ch 8 8 17 26 35;
#X obj 453 23 nanokontrol-ch 7 7 16 25 34;
#X obj 403 23 nanokontrol-ch 6 6 15 24 33;
#X obj 353 23 nanokontrol-ch 5 5 14 23 32;
#X obj 303 23 nanokontrol-ch 4 4 13 22 31;
#X obj 254 23 nanokontrol-ch 3 3 12 21 30;
