#N canvas 150 188 547 292 12;
#X obj 34 159 samplerate~;
#X floatatom 34 186 7 0 0 0 - - - 0;
#X obj 34 119 bng 19 250 50 0 empty empty empty 17 7 0 10 #dfdfdf #000000 #000000;
#X obj 34 86 receive pd-dsp-started;
#X obj 246 88 receive pd-dsp-stopped;
#X text 58 119 when DSP is turned on;
#X text 269 121 when DSP is turned off;
#X obj 246 121 bng 19 250 50 0 empty empty empty 17 7 0 10 #dfdfdf #000000 #000000;
#X text 27 23 You can get a bang message sent by Pd when DSP starts or stops if you receive from 'pd-dsp-started' and 'pd-dsp-stopped'., f 65;
#N canvas 771 223 443 248 resampling 1;
#X obj 90 140 block~ 64 1 0.5;
#X obj 231 130 samplerate~;
#X floatatom 231 165 6 0 0 0 - - - 0;
#X text 53 30 This window is downsampled by a factor of 2 \, so the samplerate must be half of the parent patch., f 44;
#X obj 231 98 bng 19 250 50 0 empty empty empty 17 7 0 10 #dfdfdf #000000 #000000;
#X text 255 96 <-- click;
#X obj 231 195 print downsampled;
#X connect 1 0 2 0;
#X connect 2 0 6 0;
#X connect 4 0 1 0;
#X restore 134 242 pd resampling;
#X text 131 154 When sent a "bang" message \, [samplerate~] outputs the current audio sample rate. If called within a subwindow that is up/down-sampled \, the sample rate of signals within that subwindow are reported (see [pd resampling] subpatch below)., f 49;
#X connect 0 0 1 0;
#X connect 2 0 0 0;
#X connect 3 0 2 0;
#X connect 4 0 7 0;
