#N canvas 423 138 585 535 12;
#X obj 132 312 f;
#X msg 211 265 1;
#X msg 267 265 -1;
#X floatatom 132 348 5 0 0 0 - - - 0;
#X obj 193 312 + 1;
#X floatatom 267 178 5 0 0 0 from - - 0;
#X floatatom 306 204 5 0 0 0 to - - 0;
#X obj 245 312 t a a;
#X text 27 65 The simple approach is to use two select objects and change the counter-direction accordingly:;
#X text 34 20 Counting up and down;
#X obj 132 235 tgl 15 0 empty empty empty 17 7 0 10 #fcfcfc #000000 #000000 0 1;
#X obj 228 204 select;
#X obj 267 233 select;
#X obj 132 265 metro 500;
#X obj 306 103 loadbang;
#X msg 267 151 1;
#X msg 306 177 10;
#X obj 132 373 + 60;
#X obj 132 400 makenote 80 200;
#X obj 132 429 noteout;
#X connect 0 0 3 0;
#X connect 0 0 4 0;
#X connect 1 0 4 1;
#X connect 2 0 4 1;
#X connect 3 0 17 0;
#X connect 4 0 7 0;
#X connect 5 0 11 1;
#X connect 6 0 12 1;
#X connect 7 0 0 1;
#X connect 7 1 11 0;
#X connect 10 0 13 0;
#X connect 11 0 1 0;
#X connect 11 1 12 0;
#X connect 12 0 2 0;
#X connect 13 0 0 0;
#X connect 14 0 16 0;
#X connect 14 0 15 0;
#X connect 15 0 5 0;
#X connect 16 0 6 0;
#X connect 17 0 18 0;
#X connect 18 0 19 0;
#X connect 18 1 19 1;
