#N canvas 204 23 616 723 12;
#X text 25 47 With a little change to the counter idiom you get another
operation: an accumulator to sum incoming numbers.;
#X text 26 88 Remember the counter:;
#X obj 57 119 f 0;
#X obj 101 170 f 0;
#X obj 104 119 +;
#X obj 53 170 +;
#X obj 100 257 f 0;
#X obj 52 257 +;
#X text 24 198 and send numbers into it:;
#X floatatom 52 287 5 0 0 0 - - -, f 5;
#X obj 50 400 +;
#X msg 50 341 1 \, 2 \, 3 \, 4 \, 5;
#X floatatom 50 430 5 0 0 0 - - -, f 5;
#X msg 52 228 1 \, 2 \, 3 \, 4 \, 5;
#X msg 71 372 0;
#X text 21 316 Resetting works like this:;
#X text 41 469 And if you only want the final result \, you can store
the intermediate sums in a float object:;
#X obj 133 628 f 0;
#X obj 85 628 +;
#X msg 85 569 1 \, 2 \, 3 \, 4 \, 5;
#X floatatom 48 689 5 0 0 0 - - -, f 5;
#X msg 133 600 0;
#X text 172 605 <== Reset;
#X obj 48 656 f;
#X obj 48 541 t b b;
#X msg 48 514 bang;
#X text 112 289 == 1+2+3+4+5 = 15;
#X text 23 145 Now just turn the objects around like this:;
#X text 118 373 <== Reset;
#X obj 389 400 f 0;
#X obj 341 400 +;
#X msg 341 342 1 \, 2 \, 3 \, 4 \, 5;
#X floatatom 341 430 5 0 0 0 - - -, f 5;
#X msg 389 373 0;
#X text 426 372 <== Reset;
#X text 336 318 Or this:;
#X text 368 678 (C) Frank Barknecht;
#X text 27 17 Accumulating and Summing;
#X obj 99 430 print;
#X obj 101 687 print;
#X obj 98 400 f;
#X connect 2 0 4 0;
#X connect 3 0 5 1;
#X connect 4 0 2 1;
#X connect 5 0 3 0;
#X connect 6 0 7 1;
#X connect 7 0 6 0;
#X connect 7 0 9 0;
#X connect 10 0 12 0;
#X connect 10 0 38 0;
#X connect 10 0 40 0;
#X connect 11 0 10 0;
#X connect 13 0 7 0;
#X connect 14 0 10 1;
#X connect 17 0 18 1;
#X connect 18 0 17 0;
#X connect 18 0 23 1;
#X connect 19 0 18 0;
#X connect 21 0 17 0;
#X connect 23 0 20 0;
#X connect 23 0 39 0;
#X connect 24 0 23 0;
#X connect 24 1 19 0;
#X connect 25 0 24 0;
#X connect 29 0 30 1;
#X connect 30 0 32 0;
#X connect 30 0 29 0;
#X connect 31 0 30 0;
#X connect 33 0 29 0;
#X connect 40 0 10 1;
