#N canvas 430 112 592 408 12;
#X obj 88 259 f;
#X obj 141 259 + 1;
#X obj 195 258 mod 10;
#X obj 88 192 tgl 15 0 empty empty empty 17 7 0 10 #fcfcfc #000000 #000000 0 1;
#X obj 88 221 metro 100;
#X obj 89 318 print metro-loop1;
#X obj 320 201 f;
#X obj 373 201 + 1;
#X obj 427 200 mod 10;
#X obj 320 139 tgl 15 0 empty empty empty 17 7 0 10 #fcfcfc #000000 #000000 0 1;
#X obj 320 163 metro 100;
#X text 315 110 Continuous looping;
#X text 86 107 Looping with stop argument;
#X text 92 49 Looping with [metro];
#X obj 88 167 bng 15 250 50 0 empty empty empty 17 7 0 10 #fcfcfc #000000 #000000;
#X obj 88 135 sel 0;
#X floatatom 195 286 5 0 0 0 - - - 0;
#X obj 320 306 makenote 80 200;
#X obj 320 343 noteout;
#X obj 320 282 + 60;
#X floatatom 320 258 5 0 0 0 - - - 0;
#X obj 320 229 * 2;
#X connect 0 0 1 0;
#X connect 0 0 5 0;
#X connect 1 0 2 0;
#X connect 2 0 0 1;
#X connect 2 0 15 0;
#X connect 2 0 16 0;
#X connect 3 0 4 0;
#X connect 4 0 0 0;
#X connect 6 0 7 0;
#X connect 6 0 21 0;
#X connect 7 0 8 0;
#X connect 8 0 6 1;
#X connect 9 0 10 0;
#X connect 10 0 6 0;
#X connect 14 0 3 0;
#X connect 15 0 14 0;
#X connect 17 0 18 0;
#X connect 17 1 18 1;
#X connect 19 0 17 0;
#X connect 20 0 19 0;
#X connect 21 0 20 0;
