#N canvas 124 204 854 513 12;
#X text 37 15 ramping up and down;
#X msg 231 107 1 1000;
#X msg 253 155 0 1000;
#X msg 291 201 0 100;
#X text 306 106 ramp to 1 in 1 second;
#X text 327 155 ramp to 0 in 1 second;
#X text 346 202 ramp to 0 in 100 ms;
#X msg 272 178 0.5 100;
#X obj 233 272 line;
#X text 347 177 ramp to 0.5 in 100 ms;
#X text 334 130 same with reset to 0 first;
#X obj 236 325 hsl 128 15 0 1 0 0 empty empty empty -2 -8 0 10 #fcfcfc #000000 #000000 0 1;
#X text 37 34 The [line] object generate ramps. Ramps are useful when you want to have a smooth transition from one thing to another \, for example amplitude or frequency. See the [line] help file the details of line.;
#X floatatom 233 298 5 0 0 0 - - - 0;
#X text 324 230 send a single number to jump;
#X floatatom 41 137 5 0 127 0 - - - 0;
#X obj 41 237 line;
#X obj 44 292 hsl 128 15 0 127 0 0 empty empty empty -2 -8 0 10 #fcfcfc #000000 #000000 0 1;
#X floatatom 41 263 5 0 0 0 - - - 0;
#X obj 41 167 t f b;
#X floatatom 73 206 5 0 0 0 - - - 0;
#X msg 99 117 1000;
#X obj 558 118 bng 15 250 50 0 empty empty empty 0 -6 0 8 #fcfcfc #000000 #000000;
#X obj 558 147 t b b;
#X msg 595 231 0 1000;
#X floatatom 558 293 5 0 0 0 - - - 0;
#X obj 558 263 line;
#X text 554 86 typical enelope generation;
#X obj 595 204 del 2000;
#X obj 561 325 hsl 128 15 0 100 0 0 empty empty empty -2 -8 0 10 #fcfcfc #000000 #000000 0 1;
#X msg 111 145 200;
#X msg 122 170 0;
#X msg 245 131 0 0 \, 1 1000;
#X msg 289 232 0.5;
#X obj 559 352 osc~;
#X obj 551 382 dac~;
#X msg 558 178 1000 1000;
#X connect 1 0 8 0;
#X connect 2 0 8 0;
#X connect 3 0 8 0;
#X connect 7 0 8 0;
#X connect 8 0 13 0;
#X connect 13 0 11 0;
#X connect 15 0 19 0;
#X connect 16 0 18 0;
#X connect 18 0 17 0;
#X connect 19 0 16 0;
#X connect 19 1 20 0;
#X connect 20 0 16 1;
#X connect 21 0 20 0;
#X connect 22 0 23 0;
#X connect 23 0 36 0;
#X connect 23 1 28 0;
#X connect 24 0 26 0;
#X connect 25 0 29 0;
#X connect 26 0 25 0;
#X connect 28 0 24 0;
#X connect 29 0 34 0;
#X connect 30 0 20 0;
#X connect 31 0 20 0;
#X connect 32 0 8 0;
#X connect 33 0 8 0;
#X connect 34 0 35 0;
#X connect 34 0 35 1;
#X connect 36 0 26 0;
