#N canvas 131 88 804 370 12;
#X text 37 15 ramping up and down;
#X msg 231 107 1 1000;
#X msg 253 155 0 1000;
#X msg 291 201 0 100;
#X text 306 106 ramp to 1 in 1 second;
#X text 327 155 ramp to 0 in 1 second;
#X text 346 202 ramp to 0 in 100 ms;
#X msg 272 178 0.5 100;
#X obj 233 272 line;
#X text 347 177 ramp to 0.5 in 100 ms;
#X msg 245 131 0 \, 1 1000;
#X text 321 131 same with reset to 0 first;
#X obj 236 330 hsl 128 15 0 1 0 0 empty empty empty -2 -8 0 10 -262144
-1 -1 0 1;
#X text 37 34 The [line] object generate ramps. Ramps are useful when
you want to have a smooth transition from one thing to another \, for
example amplitude or frequency. See the [line] help file the details
of line.;
#X floatatom 233 298 5 0 0 0 - - -, f 5;
#X text 324 230 send a single number to jump;
#X msg 289 232 0.5;
#X floatatom 41 137 5 0 127 0 - - -, f 5;
#X obj 41 237 line;
#X obj 44 292 hsl 128 15 0 127 0 0 empty empty empty -2 -8 0 10 -262144
-1 -1 7300 1;
#X floatatom 41 263 5 0 0 0 - - -, f 5;
#X obj 41 167 t f b;
#X floatatom 73 206 5 0 0 0 - - -, f 5;
#X msg 99 117 1000;
#X obj 558 118 bng 15 250 50 0 empty empty empty 0 -6 0 8 -262144 -1
-1;
#X obj 558 147 t b b;
#X msg 595 231 0 1000;
#X floatatom 558 293 5 0 0 0 - - -, f 5;
#X obj 558 263 line;
#X text 554 86 typical enelope generation;
#X msg 558 178 100 1000;
#X obj 595 204 del 2000;
#X obj 561 325 hsl 128 15 0 100 0 0 empty empty empty -2 -8 0 10 -262144
-1 -1 0 1;
#X msg 111 145 200;
#X msg 122 170 0;
#X connect 1 0 8 0;
#X connect 2 0 8 0;
#X connect 3 0 8 0;
#X connect 7 0 8 0;
#X connect 8 0 14 0;
#X connect 10 0 8 0;
#X connect 14 0 12 0;
#X connect 16 0 8 0;
#X connect 17 0 21 0;
#X connect 18 0 20 0;
#X connect 20 0 19 0;
#X connect 21 0 18 0;
#X connect 21 1 22 0;
#X connect 22 0 18 1;
#X connect 23 0 22 0;
#X connect 24 0 25 0;
#X connect 25 0 30 0;
#X connect 25 1 31 0;
#X connect 26 0 28 0;
#X connect 27 0 32 0;
#X connect 28 0 27 0;
#X connect 30 0 28 0;
#X connect 31 0 26 0;
#X connect 33 0 22 0;
#X connect 34 0 22 0;
