#N canvas 325 22 599 759 12;
#X obj 50 172 == 42;
#X floatatom 92 142 5 0 0 0 - - -, f 5;
#X floatatom 50 203 2 0 0 0 - - -, f 2;
#X obj 78 206 bng 15 250 50 0 empty empty empty 0 -6 0 8 -262144 -1
-1;
#X msg 51 141 42;
#X text 46 114 For example: IF 42 is equal to x \, then "1" (True)
;
#X text 102 198 Note that the object outputs 1 or 0 with every incoming
message.;
#X text 46 42 Most relational operators output a boolean value: true
or false (1 or 0) depending on the relation between the input (left
inlet) and the condition (right inlet or creation argument).;
#X floatatom 268 368 0 0 0 0 - - -;
#X floatatom 328 475 0 0 0 0 - - -;
#X obj 269 340 >;
#X obj 328 449 ==;
#X floatatom 366 257 5 0 0 0 - - -, f 5;
#X floatatom 415 228 5 0 0 0 - - -, f 5;
#X text 101 341 Is a greater than b?;
#X floatatom 299 419 0 0 0 0 - - -;
#X text 32 394 Is a greater than or equal to b?;
#X obj 299 392 >=;
#X text 189 449 Is a equal to b?;
#X obj 361 503 !=;
#X floatatom 362 529 0 0 0 0 - - -;
#X text 193 504 Is a NOT equal to b?;
#X floatatom 400 580 0 0 0 0 - - -;
#X text 256 551 Is a less than b?;
#X obj 400 553 <;
#X floatatom 433 633 0 0 0 0 - - -;
#X text 192 606 Is a less than or equal to b?;
#X obj 414 255 t b f;
#X text 343 257 a;
#X text 395 228 b;
#X obj 433 605 <=;
#X connect 0 0 2 0;
#X connect 0 0 3 0;
#X connect 1 0 0 0;
#X connect 4 0 0 0;
#X connect 10 0 8 0;
#X connect 11 0 9 0;
#X connect 12 0 10 0;
#X connect 12 0 17 0;
#X connect 12 0 11 0;
#X connect 12 0 19 0;
#X connect 12 0 24 0;
#X connect 12 0 30 0;
#X connect 13 0 27 0;
#X connect 17 0 15 0;
#X connect 19 0 20 0;
#X connect 24 0 22 0;
#X connect 27 0 12 0;
#X connect 27 1 10 1;
#X connect 27 1 17 1;
#X connect 27 1 11 1;
#X connect 27 1 19 1;
#X connect 27 1 24 1;
#X connect 27 1 30 1;
#X connect 30 0 25 0;
