#N canvas 428 121 527 366 12;
#X obj 162 62 tgl 15 0 empty empty empty 0 -6 0 8 -262144 -1 -1 0 1
;
#X floatatom 52 289 5 0 0 0 - - -, f 5;
#X text 106 25 Clip numbers in range;
#X obj 52 255 clip -50 50;
#X obj 162 121 random 200;
#X obj 162 148 - 100;
#X floatatom 303 291 5 0 0 0 - - -, f 5;
#X obj 303 256 clip 40 -70;
#X floatatom 407 289 5 0 0 0 - - -, f 5;
#X obj 407 215 tgl 15 0 empty empty empty 0 -6 0 8 -262144 -1 -1 0
1;
#X obj 407 256 clip 1 -1024;
#X text 307 316 switch between 2 numbers;
#X text 300 211 < 40 = 40;
#X text 298 233 > 40 = -70;
#X floatatom 161 174 5 0 0 0 - - -, f 5;
#X obj 162 90 metro 1000;
#X obj 164 259 hsl 128 15 -50 50 0 0 empty empty empty -2 -8 0 10 -262144
-1 -1 0 1;
#X floatatom 161 291 5 0 0 0 - - -, f 5;
#X connect 0 0 15 0;
#X connect 3 0 1 0;
#X connect 4 0 5 0;
#X connect 5 0 14 0;
#X connect 7 0 6 0;
#X connect 9 0 10 0;
#X connect 10 0 8 0;
#X connect 14 0 7 0;
#X connect 14 0 3 0;
#X connect 14 0 16 0;
#X connect 15 0 4 0;
#X connect 15 0 9 0;
#X connect 16 0 17 0;
