#N canvas 632 269 318 374 12;
#X obj 121 257 div;
#X obj 158 152 pow 2;
#X msg 121 31 1.23456;
#X obj 121 99 t f b;
#X obj 121 201 *;
#X floatatom 121 342 10 0 0 0 - - -, f 10;
#X obj 158 127 f 10;
#X msg 195 31 1.54635;
#X msg 51 31 23.5678;
#X msg 196 92 3;
#X msg 235 92 1;
#X obj 121 229 + 0.5;
#X obj 121 315 /;
#X connect 0 0 12 0;
#X connect 1 0 4 1;
#X connect 1 0 12 1;
#X connect 2 0 3 0;
#X connect 3 0 4 0;
#X connect 3 1 6 0;
#X connect 4 0 11 0;
#X connect 6 0 1 0;
#X connect 7 0 3 0;
#X connect 8 0 3 0;
#X connect 9 0 1 1;
#X connect 10 0 1 1;
#X connect 11 0 0 0;
#X connect 12 0 5 0;
