#N canvas 542 93 705 725 12;
#X obj 44 177 tabwrite numbers2;
#N canvas 0 22 450 300 (subpatch) 0;
#X array numbers2 5 float 2;
#X coords 0 5 5 0 200 140 1;
#X restore 460 391 graph;
#X msg 46 65 1 0 \, 4 1 \, 3 2 \, 4.5 3 \, 2.5 4;
#X msg 460 543 \; numbers2 const 0 \;;
#X obj 39 473 bng 15 250 50 0 empty empty empty 17 7 0 10 -262144 -1
-1;
#X obj 38 525 tabread numbers2;
#X obj 39 496 f;
#X obj 92 497 + 1;
#X obj 143 498 mod 5;
#X floatatom 38 556 5 0 0 0 - - -, f 5;
#X floatatom 40 375 5 0 4 0 - - -, f 5;
#X obj 40 413 tabread numbers2;
#X floatatom 39 442 5 0 0 0 - - -, f 5;
#X msg 71 103 1 2;
#X obj 37 585 tgl 15 0 empty empty empty 17 7 0 10 -262144 -1 -1 1
1;
#X obj 37 611 metro 300;
#X obj 37 639 random 5;
#X obj 37 666 tabread numbers2;
#X floatatom 37 694 5 0 0 0 - - -, f 5;
#X msg 91 375 4;
#X text 104 102 set a specific values in the array;
#X text 189 496 read sequencially with a loop;
#X text 116 638 read rhythmically values at random points in the array
;
#X text 208 138 index;
#X text 104 137 value;
#X msg 177 138 3;
#X msg 75 137 1.5;
#X text 187 413 arg: array name;
#X text 194 175 arg: array name;
#X text 125 373 read a specific value in the array;
#X obj 176 303 f;
#X obj 214 303 + 1;
#X obj 43 267 until;
#X msg 194 276 0;
#X msg 42 213 5;
#X obj 43 331 tabwrite numbers2;
#X obj 43 303 random 6;
#X text 288 63 y/x value-pairs;
#X obj 43 240 t f b;
#X text 45 14 Write to and read consecutively from arrays with [tabwrite]
and [tabread];
#X obj 423 254 f;
#X obj 461 254 + 1;
#X obj 346 317 tabwrite numbers2;
#X obj 386 196 random 6;
#X obj 386 226 t f b;
#X obj 386 173 bng 15 250 50 0 empty empty empty 17 7 0 10 -262144
-1 -1;
#X floatatom 479 290 5 0 0 0 - - -, f 5;
#X floatatom 346 289 5 0 0 0 - - -, f 5;
#X text 83 214 Write random numbers to an array;
#X obj 492 253 mod 5;
#X obj 89 695 bng 15 250 50 0 empty empty empty 17 7 0 10 -262144 -1
-1;
#X connect 2 0 0 0;
#X connect 4 0 6 0;
#X connect 5 0 9 0;
#X connect 6 0 7 0;
#X connect 6 0 5 0;
#X connect 7 0 8 0;
#X connect 8 0 6 1;
#X connect 10 0 11 0;
#X connect 11 0 12 0;
#X connect 13 0 0 0;
#X connect 14 0 15 0;
#X connect 15 0 16 0;
#X connect 16 0 17 0;
#X connect 17 0 18 0;
#X connect 17 0 50 0;
#X connect 19 0 11 0;
#X connect 25 0 0 1;
#X connect 26 0 0 0;
#X connect 30 0 31 0;
#X connect 30 0 35 1;
#X connect 31 0 30 1;
#X connect 32 0 30 0;
#X connect 32 0 36 0;
#X connect 33 0 30 1;
#X connect 34 0 38 0;
#X connect 36 0 35 0;
#X connect 38 0 32 0;
#X connect 38 1 33 0;
#X connect 40 0 41 0;
#X connect 40 0 46 0;
#X connect 41 0 49 0;
#X connect 43 0 44 0;
#X connect 44 0 47 0;
#X connect 44 1 40 0;
#X connect 45 0 43 0;
#X connect 46 0 42 1;
#X connect 47 0 42 0;
#X connect 49 0 40 1;
