#N canvas 227 38 450 440 12;
#X obj 36 14 tgl 15 0 empty empty empty 0 -6 0 8 #fcfcfc #000000 #000000 0 1;
#X obj 36 96 + 1;
#X obj 103 176 vsl 15 128 0 127 0 0 empty empty empty 0 -8 0 8 #fcfcfc #000000 #000000 0 1;
#X floatatom 103 314 5 0 0 1 ID_in_array_(x) - - 0;
#X obj 210 22 table mytable 128;
#X obj 103 340 tabread mytable;
#X floatatom 103 149 5 0 0 0 - - - 0;
#X obj 243 159 until;
#X obj 306 242 f;
#X obj 198 244 random 100;
#X obj 343 242 + 1;
#X obj 377 243 mod;
#X obj 282 122 t f f;
#X obj 241 184 t b b;
#X msg 243 89 128;
#X obj 197 272 tabwrite mytable;
#X obj 36 40 metro 200;
#X obj 106 370 hsl 128 15 0 127 0 0 empty empty empty -2 -8 0 10 #fcfcfc #000000 #000000 0 1;
#X floatatom 102 394 5 0 0 1 Values_(y) - - 0;
#X obj 243 57 loadbang;
#X obj 36 124 select 128;
#X msg 36 150 -1;
#X obj 36 67 f;
#X connect 0 0 16 0;
#X connect 1 0 20 0;
#X connect 1 0 22 1;
#X connect 2 0 3 0;
#X connect 3 0 5 0;
#X connect 5 0 17 0;
#X connect 6 0 2 0;
#X connect 7 0 13 0;
#X connect 8 0 10 0;
#X connect 8 0 15 1;
#X connect 9 0 15 0;
#X connect 10 0 11 0;
#X connect 11 0 8 1;
#X connect 12 0 7 0;
#X connect 12 1 11 1;
#X connect 13 0 9 0;
#X connect 13 1 8 0;
#X connect 14 0 7 0;
#X connect 14 0 12 0;
#X connect 16 0 22 0;
#X connect 17 0 18 0;
#X connect 19 0 14 0;
#X connect 20 0 21 0;
#X connect 20 1 6 0;
#X connect 21 0 22 1;
#X connect 22 0 1 0;
