#N canvas 491 435 450 588 10;
#X obj 49 99 adc~ 1;
#X obj 66 120 adc~ 2;
#X obj 81 140 adc~ 3;
#X obj 98 161 adc~ 4;
#X obj 114 180 adc~ 5;
#X obj 131 203 adc~ 6;
#X obj 147 225 adc~ 7;
#X obj 164 246 adc~ 8;
#X obj 49 538 s~ 1-in;
#X obj 65 517 s~ 2-in;
#X obj 81 497 s~ 3-in;
#X obj 98 477 s~ 4-in;
#X obj 114 456 s~ 5-in;
#X obj 131 436 s~ 6-in;
#X obj 147 416 s~ 7-in;
#X obj 164 396 s~ 8-in;
#X obj 49 269 8in-out~ \$0 in;
#X text 47 54 rows top-to-bottom correspond to the microphone inputs
1-8;
#X text 47 72 columns left-to-right correspond to the patch inputs
1-8.;
#X text 48 33 8 x 8 hardware input matrix;
#X connect 0 0 16 0;
#X connect 1 0 16 1;
#X connect 2 0 16 2;
#X connect 3 0 16 3;
#X connect 4 0 16 4;
#X connect 5 0 16 5;
#X connect 6 0 16 6;
#X connect 7 0 16 7;
#X connect 16 0 8 0;
#X connect 16 1 9 0;
#X connect 16 2 10 0;
#X connect 16 3 11 0;
#X connect 16 4 12 0;
#X connect 16 5 13 0;
#X connect 16 6 14 0;
#X connect 16 7 15 0;
