#N canvas 794 413 425 585 10;
#X obj 40 272 8in-out~ \$0 out;
#X obj 40 102 catch~ 1-out;
#X obj 57 123 catch~ 2-out;
#X obj 72 143 catch~ 3-out;
#X obj 89 164 catch~ 4-out;
#X obj 105 183 catch~ 5-out;
#X obj 122 206 catch~ 6-out;
#X obj 138 228 catch~ 7-out;
#X obj 155 249 catch~ 8-out;
#X obj 155 399 dac~ 8;
#X obj 138 419 dac~ 7;
#X obj 122 439 dac~ 6;
#X obj 105 459 dac~ 5;
#X obj 89 480 dac~ 4;
#X obj 72 500 dac~ 3;
#X obj 56 520 dac~ 2;
#X obj 40 541 dac~ 1;
#X text 38 55 rows top-to-bottom correspond to patch outputs 1-8;
#X text 38 73 columns left-to-right correspond to soundcard outputs
1-8.;
#X text 40 25 8 x 8 hardware output matrix;
#X connect 0 0 16 0;
#X connect 0 1 15 0;
#X connect 0 2 14 0;
#X connect 0 3 13 0;
#X connect 0 4 12 0;
#X connect 0 5 11 0;
#X connect 0 6 10 0;
#X connect 0 7 9 0;
#X connect 1 0 0 0;
#X connect 2 0 0 1;
#X connect 3 0 0 2;
#X connect 4 0 0 3;
#X connect 5 0 0 4;
#X connect 6 0 0 5;
#X connect 7 0 0 6;
#X connect 8 0 0 7;
