#N canvas 658 191 293 299 10;
#X obj 46 41 inlet~;
#X obj 46 260 outlet~;
#X obj 115 158 *~;
#X obj 130 38 inlet;
#X obj 115 259 outlet~;
#X obj 155 67 r \$1-tgl-\$2\$3;
#X obj 130 123 line~;
#X msg 130 97 \$1 5;
#X connect 0 0 2 0;
#X connect 0 0 1 0;
#X connect 2 0 4 0;
#X connect 3 0 7 0;
#X connect 5 0 7 0;
#X connect 6 0 2 1;
#X connect 7 0 6 0;
