#N canvas 465 25 462 667 12;
#X declare -path abs;
#X floatatom 244 77 5 0 1e+06 1 axiom.length - - 0;
#X floatatom 159 254 5 0 0 0 iteration_n - - 0;
#N canvas 74 64 275 223 random.axiom 0;
#X obj 71 39 inlet;
#X obj 73 173 outlet;
#X obj 73 124 list prepend axiom;
#X obj 71 64 t b f;
#X obj 72 149 list trim;
#N canvas 746 216 473 517 list-random 0;
#X obj 42 53 inlet;
#X msg 42 109 seed \$1;
#X obj 130 350 list prepend;
#X obj 223 351 t a;
#X obj 130 254 until;
#X obj 107 107 t b b b;
#X obj 107 371 list;
#X obj 188 51 inlet;
#X obj 261 52 inlet;
#X obj 261 131 f \$2;
#X obj 272 103 loadbang;
#X obj 42 84 route seed;
#X obj 107 404 outlet;
#X text 42 27 seed/bang;
#X text 189 29 range;
#X text 262 28 length;
#X obj 130 233 f 1;
#X obj 261 151 max 1;
#X obj 130 288 random 2;
#X connect 0 0 11 0;
#X connect 1 0 18 0;
#X connect 2 0 3 0;
#X connect 2 0 6 1;
#X connect 3 0 2 1;
#X connect 4 0 18 0;
#X connect 5 0 6 0;
#X connect 5 1 16 0;
#X connect 5 2 2 1;
#X connect 6 0 12 0;
#X connect 7 0 18 1;
#X connect 8 0 9 0;
#X connect 9 0 17 0;
#X connect 10 0 9 0;
#X connect 11 0 1 0;
#X connect 11 1 5 0;
#X connect 16 0 4 0;
#X connect 17 0 16 1;
#X connect 18 0 2 0;
#X restore 72 98 pd list-random;
#X connect 0 0 3 0;
#X connect 2 0 4 0;
#X connect 3 0 5 0;
#X connect 3 1 5 2;
#X connect 4 0 1 0;
#X connect 5 0 2 0;
#X restore 226 127 pd random.axiom;
#X obj 226 102 f;
#X obj 57 167 bng 30 250 50 0 empty empty iter 3 14 0 10 #fcfcfc #ff0400 #000000;
#X obj 57 227 wolfram 90 loop;
#X obj 225 155 route axiom;
#X obj 224 181 list length;
#X floatatom 224 205 5 0 0 0 - - - 0;
#X obj 125 364 f;
#X obj 162 365 + 1;
#X obj 202 364 mod;
#X obj 93 283 tgl 19 0 empty empty empty 0 -10 0 12 #00ff04 #000000 #000000 0 1;
#X obj 52 536 list split;
#X floatatom 85 562 5 0 0 0 - - - 0;
#X listbox 52 503 33 0 0 0 - - - 0;
#X obj 93 334 t b b;
#X obj 226 53 bng 19 250 50 0 empty empty random\ axiom 0 -10 0 12 #00ff04 #000000 #000000;
#X obj 162 423 ==;
#X obj 162 448 sel 1;
#X obj 161 472 s iter;
#X obj 58 72 r iter;
#X obj 128 189 t b a;
#X obj 86 585 sel 1;
#X obj 86 610 random 10;
#X obj 86 634 + 60;
#X obj 106 740 hsl 128 15 0 1 0 0 empty empty empty -2 -8 0 10 #00ff04 #000000 #000000 0 1;
#X obj 73 802 dac~;
#X obj 85 710 clone sound 16;
#X msg 85 683 next \$1;
#X obj 85 763 *~;
#X floatatom 86 658 5 0 0 0 - - - 0;
#X floatatom 162 394 5 0 0 0 - - - 0;
#X obj 57 140 spigot;
#X obj 96 114 tgl 19 0 empty empty iter\ y/n 0 -10 0 12 #00ff04 #000000 #000000 0 1;
#X obj 93 307 metro 125;
#X text 49 17 Cellular sequencer;
#X text 135 789 (c) 2024 Achim Bornhoeft;
#X obj 289 278 declare -path abs;
#X connect 0 0 3 1;
#X connect 2 0 6 0;
#X connect 2 0 22 0;
#X connect 3 0 2 0;
#X connect 4 0 5 0;
#X connect 5 0 15 0;
#X connect 5 1 1 0;
#X connect 6 0 7 0;
#X connect 7 0 8 0;
#X connect 8 0 11 1;
#X connect 8 0 18 1;
#X connect 9 0 10 0;
#X connect 9 0 13 1;
#X connect 10 0 11 0;
#X connect 10 0 32 0;
#X connect 11 0 9 1;
#X connect 12 0 35 0;
#X connect 13 1 14 0;
#X connect 14 0 23 0;
#X connect 15 0 13 0;
#X connect 16 0 15 0;
#X connect 16 1 9 0;
#X connect 17 0 3 0;
#X connect 18 0 19 0;
#X connect 19 0 20 0;
#X connect 21 0 33 0;
#X connect 22 0 5 0;
#X connect 22 1 5 1;
#X connect 23 0 24 0;
#X connect 24 0 25 0;
#X connect 25 0 31 0;
#X connect 26 0 30 1;
#X connect 28 0 30 0;
#X connect 29 0 28 0;
#X connect 30 0 27 0;
#X connect 30 0 27 1;
#X connect 31 0 29 0;
#X connect 32 0 18 0;
#X connect 33 0 4 0;
#X connect 34 0 33 1;
#X connect 35 0 16 0;
