#N canvas 206 134 519 528 10;
#X obj 33 50 inlet~;
#X text 34 23 signal;
#X obj 155 50 inlet;
#X text 141 18 pitchshift;
#X text 142 29 semitones;
#X obj 24 487 outlet~;
#X obj 24 457 *~ 0.19;
#X obj 155 77 unpack f f f f f f;
#X obj 106 240 ssbmod;
#X obj 290 366 ssbmod;
#X obj 183 310 ssbmod;
#X obj 141 274 ssbmod;
#X obj 243 338 ssbmod;
#X connect 0 0 8 0;
#X connect 0 0 9 0;
#X connect 0 0 10 0;
#X connect 0 0 11 0;
#X connect 0 0 12 0;
#X connect 2 0 7 0;
#X connect 6 0 5 0;
#X connect 7 0 8 1;
#X connect 7 1 11 1;
#X connect 7 2 10 1;
#X connect 7 3 12 1;
#X connect 7 4 9 1;
#X connect 7 5 8 2;
#X connect 7 5 9 2;
#X connect 7 5 10 2;
#X connect 7 5 11 2;
#X connect 7 5 12 2;
#X connect 8 0 6 0;
#X connect 9 0 6 0;
#X connect 10 0 6 0;
#X connect 11 0 6 0;
#X connect 12 0 6 0;
