#N canvas 287 35 775 461 10;
#X obj 64 203 osc~;
#X obj 50 66 tgl 15 0 empty empty empty 0 -6 0 10 -262144 -1 -1 0 1
;
#X obj 63 119 metro 1000;
#X obj 64 173 + 100;
#X obj 63 148 random 1000;
#X obj 36 412 dac~;
#X obj 36 381 *~;
#X obj 87 228 r set;
#X msg 441 97 \; set -2 -1 0 1 2 5000 \;;
#X msg 441 227 \; set -14 -7 0 7 14 1000 \;;
#X msg 441 184 \; set -0.2 -0.1 0 0.1 0.2 500 \;;
#X obj 441 60 loadbang;
#X text 416 358 message consists of 5 semitone transpositions and one
glissando duration in milliseconds;
#X obj 113 251 tgl 15 0 empty empty empty 0 -6 0 10 -262144 -1 -1 0
1;
#X obj 141 280 hsl 128 15 1 2046 0 0 empty empty empty -2 -6 0 10 -262144
-1 -1 0 1;
#X obj 165 306 hsl 128 15 1.5 5000 0 0 empty empty empty -2 -6 0 10
-262144 -1 -1 0 1;
#X text 136 250 forward/backward;
#X text 279 276 delay window;
#X text 303 304 delay length (msec);
#X text 96 390 (c) 2008 Achim Bornhoeft;
#X msg 443 272 \; set -24 -22 -20 -18 -16 1000 \;;
#X msg 443 320 \; set 24 22 20 18 16 2000 \;;
#X msg 441 139 \; set -24 -12 0 12 24 1000 \;;
#X obj 64 330 5_tape_pitchshift;
#X obj 51 25 5_tape_pitchshift;
#X text 170 24 5 voice classic rotating-tape-head style pitch shifter
;
#X connect 0 0 23 0;
#X connect 1 0 2 0;
#X connect 1 0 6 1;
#X connect 2 0 4 0;
#X connect 3 0 0 0;
#X connect 3 0 2 1;
#X connect 4 0 3 0;
#X connect 6 0 5 0;
#X connect 6 0 5 1;
#X connect 7 0 23 1;
#X connect 11 0 8 0;
#X connect 13 0 23 2;
#X connect 14 0 23 3;
#X connect 15 0 23 4;
#X connect 23 0 6 0;
