#N canvas 174 46 674 627 10;
#X obj 23 53 inlet~;
#X obj 293 557 outlet~;
#X text 24 26 signal;
#X obj 249 52 inlet;
#X text 251 33 fw/bw;
#X obj 127 52 inlet;
#X text 106 21 pitchshift;
#X text 107 32 semitones;
#X obj 322 53 inlet;
#X text 310 30 del-window;
#X obj 527 54 inlet;
#X text 527 18 delay;
#X text 524 36 (msec);
#N canvas 404 151 320 387 semitones 0;
#X obj 47 169 exp;
#X floatatom 47 195 6 0 0 0 - - -;
#X obj 47 218 - 1;
#X obj 47 244 * -1;
#X obj 163 165 exp;
#X floatatom 163 191 6 0 0 0 - - -;
#X obj 163 214 - 1;
#X obj 163 139 * 0.057776;
#X obj 163 240 * 1;
#X obj 163 266 + 2;
#X obj 47 143 * 0.057776;
#X obj 47 117 spigot;
#X obj 83 96 expr 1-$f1;
#X obj 162 96 spigot;
#X obj 54 70 t b f;
#X obj 162 70 t b f;
#X obj 48 295 outlet;
#X obj 48 27 inlet;
#X obj 162 27 inlet;
#X connect 0 0 1 0;
#X connect 1 0 2 0;
#X connect 2 0 3 0;
#X connect 3 0 16 0;
#X connect 4 0 5 0;
#X connect 5 0 6 0;
#X connect 6 0 8 0;
#X connect 7 0 4 0;
#X connect 8 0 9 0;
#X connect 9 0 16 0;
#X connect 10 0 0 0;
#X connect 11 0 10 0;
#X connect 12 0 11 1;
#X connect 13 0 7 0;
#X connect 14 0 11 0;
#X connect 14 1 12 0;
#X connect 15 0 13 0;
#X connect 15 1 13 1;
#X connect 17 0 11 0;
#X connect 17 0 13 0;
#X connect 18 0 15 0;
#X connect 18 0 14 0;
#X restore 228 200 pd semitones;
#X floatatom 229 177 0 0 0 0 - - -;
#X obj 290 359 *~;
#X obj 405 285 line~;
#X obj 405 259 pack 0 200;
#X obj 224 262 /;
#X obj 324 178 * 0.001;
#X obj 528 306 line~;
#X obj 528 281 pack 0 200;
#X obj 290 385 +~;
#X obj 227 411 cos~;
#X obj 227 438 *~;
#X obj 293 526 +~;
#X obj 398 394 wrap~;
#X obj 461 424 *~;
#X obj 461 445 +~;
#X obj 398 469 cos~;
#X obj 398 494 *~;
#X obj 324 202 t b f;
#X obj 398 371 +~ 0.5;
#X obj 227 359 -~ 0.5;
#X obj 227 385 *~ 0.5;
#X obj 398 423 -~ 0.5;
#X obj 398 446 *~ 0.5;
#X text 125 186 (halftones);
#X text 262 253 tape head;
#X obj 224 285 phasor~;
#X obj 528 257 max 1.5;
#X obj 322 154 max 1;
#X text 263 266 rotation freq;
#X obj 253 149 t b f;
#X text 128 172 transposition;
#X obj 23 215 delwrite~ \$0-pitch-delay 5000;
#X obj 461 466 vd~ \$0-pitch-delay;
#X obj 265 412 vd~ \$0-pitch-delay;
#X obj 407 54 loadbang;
#X obj 345 99 f \$1;
#X obj 403 99 f \$2;
#X obj 468 103 f \$3;
#X obj 127 118 line;
#X obj 127 82 pack f f;
#X obj 172 53 inlet;
#X text 172 33 glissdur;
#X connect 0 0 45 0;
#X connect 3 0 43 0;
#X connect 5 0 53 0;
#X connect 8 0 41 0;
#X connect 10 0 40 0;
#X connect 13 0 18 0;
#X connect 14 0 13 0;
#X connect 15 0 22 0;
#X connect 16 0 15 1;
#X connect 16 0 27 1;
#X connect 17 0 16 0;
#X connect 18 0 39 0;
#X connect 19 0 31 0;
#X connect 20 0 22 1;
#X connect 20 0 28 1;
#X connect 21 0 20 0;
#X connect 22 0 47 0;
#X connect 23 0 24 0;
#X connect 24 0 25 0;
#X connect 25 0 1 0;
#X connect 26 0 27 0;
#X connect 26 0 35 0;
#X connect 27 0 28 0;
#X connect 28 0 46 0;
#X connect 29 0 30 0;
#X connect 30 0 25 1;
#X connect 31 0 18 0;
#X connect 31 1 18 1;
#X connect 32 0 26 0;
#X connect 33 0 34 0;
#X connect 34 0 23 0;
#X connect 35 0 36 0;
#X connect 36 0 29 0;
#X connect 39 0 15 0;
#X connect 39 0 33 0;
#X connect 39 0 32 0;
#X connect 40 0 21 0;
#X connect 41 0 19 0;
#X connect 41 0 17 0;
#X connect 43 0 14 0;
#X connect 43 1 13 1;
#X connect 46 0 30 1;
#X connect 47 0 24 1;
#X connect 48 0 51 0;
#X connect 48 0 50 0;
#X connect 48 0 49 0;
#X connect 49 0 43 0;
#X connect 50 0 41 0;
#X connect 51 0 40 0;
#X connect 52 0 14 0;
#X connect 53 0 52 0;
#X connect 54 0 53 1;
