#N canvas 440 22 640 724 12;
#X obj 31 82 adc~;
#X obj 31 366 mtof;
#X floatatom 31 398 5 0 0 0 - - -, f 5;
#X obj 31 671 dac~;
#X obj 31 531 osc~;
#X obj 31 584 *~;
#X obj 121 537 line~;
#X msg 121 501 0 1000;
#X obj 31 430 t f b b;
#X text 73 81 audio input;
#X text 139 132 fiddle~ is for fundamental frequency estimation;
#X text 80 397 frequency in hertz;
#X text 181 500 shut off oscillator in one second unless pitches;
#X text 168 536 (new inputs to line~ object override old...);
#X obj 31 634 *~;
#X text 121 261 (pitch-tracking) output is in midi note numbers;
#X obj 62 157 bng 15 250 50 0 empty empty empty 0 -6 0 8 -262144 -1
-1;
#X text 111 156 bang on attack;
#X obj 415 40 tgl 15 0 empty empty empty 17 7 0 10 -262144 -1 -1 0
1;
#X msg 415 64 \; pd dsp \$1;
#X text 27 23 pitch tracking with [fiddle~] and [sigmund~];
#X obj 55 611 hsl 128 15 0.01 1 1 0 empty empty empty -2 -8 0 10 -262144
-1 -1 0 1;
#X floatatom 72 248 5 0 0 0 - - -, f 5;
#X obj 116 312 hradio 15 1 0 2 empty empty empty 0 -8 0 10 -262144
-1 -1 0;
#N canvas 0 22 442 353 inswitch 1;
#X obj 259 93 inlet;
#X text 74 49 with toggle on it switsches to 2nd input;
#X text 73 32 switch between two inputs;
#X obj 92 246 spigot;
#X obj 176 200 spigot;
#X obj 288 172 - 1;
#X obj 288 197 abs;
#X obj 176 305 outlet;
#X obj 259 132 f 0;
#X obj 312 93 loadbang;
#X obj 92 92 inlet in1;
#X obj 176 93 inlet in2;
#X connect 0 0 8 0;
#X connect 3 0 7 0;
#X connect 4 0 7 0;
#X connect 5 0 6 0;
#X connect 6 0 3 1;
#X connect 8 0 5 0;
#X connect 8 0 4 1;
#X connect 9 0 8 0;
#X connect 10 0 3 0;
#X connect 11 0 4 0;
#X restore 31 338 pd inswitch;
#X floatatom 31 273 5 0 0 0 - - -, f 5;
#X obj 121 473 delay 100;
#X msg 57 501 1 100;
#X obj 73 221 sigmund~ -hop 2048 notes;
#X text 277 219 see help for more information;
#X obj 31 130 fiddle~ 2048;
#X obj 60 183 adc~;
#X text 153 311 switch between [fiddle~] and [bonk~].;
#X text 75 365 midi-to-frequency;
#X connect 0 0 30 0;
#X connect 0 1 30 0;
#X connect 1 0 2 0;
#X connect 2 0 8 0;
#X connect 4 0 5 0;
#X connect 5 0 14 0;
#X connect 6 0 5 1;
#X connect 7 0 6 0;
#X connect 8 0 4 0;
#X connect 8 1 27 0;
#X connect 8 2 26 0;
#X connect 14 0 3 0;
#X connect 14 0 3 1;
#X connect 18 0 19 0;
#X connect 21 0 14 1;
#X connect 22 0 24 1;
#X connect 23 0 24 2;
#X connect 24 0 1 0;
#X connect 25 0 24 0;
#X connect 26 0 7 0;
#X connect 27 0 6 0;
#X connect 28 0 22 0;
#X connect 30 0 25 0;
#X connect 30 1 16 0;
#X connect 31 0 28 0;
#X connect 31 1 28 0;
