#N canvas 269 87 591 583 12;
#X obj 173 225 mtof;
#X floatatom 173 170 5 0 0 0 carrier - -, f 5;
#X obj 217 302 +~;
#X obj 238 266 *~;
#X obj 238 214 osc~;
#X text 201 59 sing into the mic to control the FM synthesizer;
#X obj 238 185 * 2;
#X obj 286 162 - 50;
#X obj 286 184 * 20;
#X obj 182 400 *~;
#X obj 217 335 osc~;
#X obj 104 301 line~;
#X msg 104 227 1 10;
#X msg 30 227 0 1000;
#X obj 30 174 delay 100;
#N canvas 0 22 450 300 (subpatch) 0;
#X array \$0-wavetable 8820 float 0;
#X coords 0 1 8819 -1 200 140 1;
#X restore 354 248 graph;
#X obj 356 424 metro 200;
#X obj 356 402 tgl 15 0 empty empty empty 0 -6 0 8 -262144 -1 -1 1
1;
#X text 374 400 see it;
#X obj 356 462 tabwrite~ \$0-wavetable;
#X obj 171 550 dac~;
#X obj 182 514 *~;
#X text 95 19 Voice FM;
#X obj 206 488 hsl 128 15 0 1 0 0 empty empty empty -2 -8 0 10 -262144
-1 -1 900 1;
#X floatatom 238 131 5 0 0 1 modulator_&_index - -, f 5;
#X obj 104 132 bng 15 250 50 0 empty empty empty 17 7 0 10 -262144
-1 -1;
#X obj 142 90 fiddle~ 4048;
#X obj 142 60 adc~ 1;
#X connect 0 0 2 0;
#X connect 1 0 0 0;
#X connect 2 0 10 0;
#X connect 3 0 2 1;
#X connect 4 0 3 0;
#X connect 6 0 4 0;
#X connect 7 0 8 0;
#X connect 8 0 3 1;
#X connect 9 0 19 0;
#X connect 9 0 21 0;
#X connect 10 0 9 1;
#X connect 11 0 9 0;
#X connect 12 0 11 0;
#X connect 13 0 11 0;
#X connect 14 0 13 0;
#X connect 16 0 19 0;
#X connect 17 0 16 0;
#X connect 21 0 20 0;
#X connect 21 0 20 1;
#X connect 23 0 21 1;
#X connect 24 0 7 0;
#X connect 24 0 6 0;
#X connect 25 0 14 0;
#X connect 25 0 12 0;
#X connect 26 0 1 0;
#X connect 26 1 25 0;
#X connect 26 3 24 0;
#X connect 27 0 26 0;
