#N canvas 535 35 618 697 12;
#X obj 163 636 dac~;
#X text 203 122 audio input;
#X obj 244 544 *~;
#X obj 403 108 tgl 15 0 empty empty empty 17 7 0 10 -262144 -1 -1 1
1;
#X msg 403 132 \; pd dsp \$1;
#X obj 183 269 route 0 1 2 3 4;
#X obj 123 68 tgl 20 0 empty empty empty 0 -6 0 8 -262144 -1 -1 0.992126
0.992126;
#X obj 123 109 t f b;
#X obj 123 177 readsf~ 1;
#X msg 218 177 1;
#N canvas 348 403 200 271 xfade 0;
#X obj 40 27 inlet;
#X msg 42 148 1;
#X obj 123 220 outlet;
#X obj 43 220 outlet;
#X obj 43 181 -;
#X obj 42 119 t b f;
#X obj 41 83 line;
#X obj 41 55 pack \$1 100;
#X connect 0 0 7 0;
#X connect 1 0 4 0;
#X connect 4 0 3 0;
#X connect 5 0 1 0;
#X connect 5 1 4 1;
#X connect 6 0 5 0;
#X connect 6 0 2 0;
#X connect 7 0 6 0;
#X restore 143 508 pd xfade;
#X obj 146 482 hsl 80 15 0 1 0 0 empty xfade empty -2 -8 0 10 -262144
-1 -1 7900 1;
#X obj 122 543 *~;
#X obj 173 587 +~;
#X obj 313 400 partial_osc;
#X text 61 27 pitch tracking and additive synthesis with [sigmund~]
;
#X obj 143 450 loadbang;
#X obj 345 371 partial_osc;
#X obj 244 479 partial_osc;
#X obj 266 453 partial_osc;
#X obj 285 426 partial_osc;
#X obj 194 242 print;
#X obj 183 215 sigmund~ -hop 4096 -maxfreq 5000 -npeak 5 peaks;
#X msg 160 143 open ../99-sounds/1-4.wav;
#X obj 47 230 metro 30;
#X connect 2 0 13 1;
#X connect 3 0 4 0;
#X connect 5 0 18 1;
#X connect 5 1 19 1;
#X connect 5 2 20 1;
#X connect 5 3 14 1;
#X connect 5 4 17 1;
#X connect 6 0 7 0;
#X connect 6 0 24 0;
#X connect 7 0 8 0;
#X connect 7 1 23 0;
#X connect 8 0 12 0;
#X connect 8 0 22 0;
#X connect 8 1 9 0;
#X connect 9 0 7 0;
#X connect 10 0 12 1;
#X connect 10 1 2 1;
#X connect 11 0 10 0;
#X connect 12 0 13 0;
#X connect 13 0 0 0;
#X connect 13 0 0 1;
#X connect 14 0 2 0;
#X connect 16 0 11 0;
#X connect 17 0 2 0;
#X connect 18 0 2 0;
#X connect 19 0 2 0;
#X connect 20 0 2 0;
#X connect 22 0 5 0;
#X connect 22 0 21 0;
#X connect 23 0 8 0;
#X connect 24 0 14 0;
#X connect 24 0 17 0;
#X connect 24 0 18 0;
#X connect 24 0 19 0;
#X connect 24 0 20 0;
