#N canvas 635 113 620 725 12;
#X obj 197 669 dac~;
#X obj 271 527 *~;
#X obj 436 138 tgl 15 0 empty empty empty 17 7 0 10 -262144 -1 -1 1
1;
#X obj 270 69 tgl 20 0 empty empty empty 0 -6 0 8 -262144 -1 -1 0.992126
0.992126;
#X obj 142 129 t f b;
#X obj 143 212 readsf~ 1;
#X msg 142 76 1;
#N canvas 348 403 200 271 xfade 0;
#X obj 40 27 inlet;
#X msg 42 148 1;
#X obj 123 220 outlet;
#X obj 43 220 outlet;
#X obj 43 181 -;
#X obj 42 119 t b f;
#X obj 41 83 line;
#X obj 41 55 pack \$1 100;
#X connect 0 0 7 0;
#X connect 1 0 4 0;
#X connect 4 0 3 0;
#X connect 5 0 1 0;
#X connect 5 1 4 1;
#X connect 6 0 5 0;
#X connect 6 0 2 0;
#X connect 7 0 6 0;
#X restore 167 532 pd xfade;
#X obj 170 506 hsl 80 15 0 1 0 0 empty xfade empty -2 -8 0 10 -262144
-1 -1 7900 1;
#X obj 146 568 *~;
#X obj 210 632 +~;
#X obj 383 384 hsl 128 15 30 2000 1 0 empty filter-q Filter-Q -2 -8
0 10 -262144 -1 -1 4800 1;
#X obj 295 503 hsl 128 15 0 500 0 0 empty filt-amp Amplification -2
-8 0 10 -262144 -1 -1 6700 1;
#X obj 271 589 *~;
#X text 37 21 pitch tracking and subtractive synthesis with [sigmund~]
;
#X obj 271 360 metro 500;
#X obj 340 193 vsl 15 128 5 500 0 0 empty metro empty 0 -9 0 10 -262144
-1 -1 0 1;
#X floatatom 340 332 5 0 0 0 - - -, f 5;
#X obj 436 109 loadbang;
#X msg 179 164 open ../99-Sounds/1-4.wav;
#N canvas 0 22 621 446 subtractive 0;
#X obj 196 24 inlet~;
#X obj 359 125 inlet;
#X obj 276 392 outlet~;
#X obj 196 99 route 0 1 2 3 4;
#X obj 196 68 sigmund~ -hop 4096 -maxfreq 5000 -npeak 5 peaks;
#X obj 301 199 partial_filt;
#X obj 269 228 partial_filt;
#X obj 241 254 partial_filt;
#X obj 222 281 partial_filt;
#X obj 200 304 partial_filt;
#X obj 41 47 inlet;
#X connect 0 0 4 0;
#X connect 1 0 5 2;
#X connect 1 0 6 2;
#X connect 1 0 7 2;
#X connect 1 0 8 2;
#X connect 1 0 9 2;
#X connect 3 0 9 1;
#X connect 3 1 8 1;
#X connect 3 2 7 1;
#X connect 3 3 6 1;
#X connect 3 4 5 1;
#X connect 4 0 3 0;
#X connect 5 0 2 0;
#X connect 6 0 2 0;
#X connect 7 0 2 0;
#X connect 8 0 2 0;
#X connect 9 0 2 0;
#X connect 10 0 9 0;
#X connect 10 0 8 0;
#X connect 10 0 7 0;
#X connect 10 0 6 0;
#X connect 10 0 5 0;
#X restore 271 458 pd subtractive;
#X floatatom 380 415 5 0 0 0 - - -, f 5;
#X msg 436 162 \; pd dsp \$1 \; metro 5 \; filter-q 1000 \; filt-amp
200 \; xfade 0 \;;
#X connect 1 0 13 0;
#X connect 2 0 22 0;
#X connect 3 0 4 0;
#X connect 3 0 15 0;
#X connect 4 0 5 0;
#X connect 4 1 19 0;
#X connect 5 0 9 0;
#X connect 5 0 20 1;
#X connect 5 1 6 0;
#X connect 6 0 4 0;
#X connect 7 0 9 1;
#X connect 7 1 13 1;
#X connect 8 0 7 0;
#X connect 9 0 10 0;
#X connect 10 0 0 0;
#X connect 10 0 0 1;
#X connect 11 0 21 0;
#X connect 12 0 1 1;
#X connect 13 0 10 1;
#X connect 15 0 20 0;
#X connect 16 0 17 0;
#X connect 17 0 15 1;
#X connect 18 0 2 0;
#X connect 19 0 5 0;
#X connect 20 0 1 0;
#X connect 21 0 20 2;
