#N canvas 846 871 559 330 12;
#X text 33 30 Cellular Automaton;
#X obj 35 175 pdcontrol;
#X msg 35 150 browse https://mathworld.wolfram.com/CellularAutomaton.html;
#X msg 34 208 browse https://mathworld.wolfram.com/ElementaryCellularAutomaton.html, f 69;
#X obj 34 232 pdcontrol;
#X msg 35 93 browse https://en.wikipedia.org/wiki/Cellular_automaton;
#X obj 35 118 pdcontrol;
#X text 33 67 General information about Cellular Automaton;
#X connect 2 0 1 0;
#X connect 3 0 4 0;
#X connect 5 0 6 0;
