#N canvas 294 68 292 461 12;
#N canvas 562 153 738 438 snare 0;
#X obj 128 33 inlet;
#X obj 128 171 vline~;
#X obj 128 207 osc~;
#X obj 130 352 *~;
#X msg 295 150 1 \, 0 500;
#X obj 295 174 vline~;
#X obj 295 198 pow~ 2;
#X obj 127 379 outlet~;
#X obj 129 272 expr~ tanh($v1);
#X obj 476 167 vline~;
#X obj 476 191 pow~ 2;
#X obj 129 306 +~;
#X obj 433 218 *~;
#X obj 425 35 noise~;
#X msg 476 143 1 \, 0 250;
#X msg 127 142 400 \, \$1 20;
#X obj 425 92 lop~ 1000;
#X obj 127 109 expr random(195 \, 215);
#X obj 488 60 expr random(1000 \, 2000);
#X obj 128 57 t b b b b;
#X connect 0 0 19 0;
#X connect 1 0 2 0;
#X connect 2 0 8 0;
#X connect 3 0 7 0;
#X connect 4 0 5 0;
#X connect 5 0 6 0;
#X connect 6 0 3 1;
#X connect 8 0 11 0;
#X connect 9 0 10 0;
#X connect 10 0 12 1;
#X connect 11 0 3 0;
#X connect 12 0 11 1;
#X connect 13 0 16 0;
#X connect 14 0 9 0;
#X connect 15 0 1 0;
#X connect 16 0 12 0;
#X connect 17 0 15 0;
#X connect 18 0 16 1;
#X connect 19 0 17 0;
#X connect 19 1 4 0;
#X connect 19 2 14 0;
#X connect 19 3 18 0;
#X restore 88 206 pd snare;
#X obj 41 153 select 0 1 2 3;
#X obj 41 124 random 4;
#X obj 41 69 tgl 19 0 empty empty empty 0 -10 0 12 #fcfcfc #000000 #000000 0 1;
#X floatatom 101 67 5 0 0 0 - - - 0;
#N canvas 443 180 738 411 clap 0;
#X obj 248 2 inlet;
#X obj 127 351 outlet~;
#X obj 231 194 vline~;
#X obj 231 218 pow~ 2;
#X obj 124 264 +~;
#X obj 124 237 *~;
#X obj 118 36 noise~;
#X obj 367 169 vline~;
#X obj 367 193 pow~ 2;
#X obj 437 222 *~;
#X obj 170 107 line~;
#X obj 543 87 line~;
#X obj 248 33 t b b b b;
#X obj 477 87 noise~;
#X msg 170 75 2000 \, 1000 20;
#X msg 543 58 2000 \, 1000 20;
#X msg 231 170 1 \, 0 150;
#X msg 367 145 1 \, 0 250;
#X obj 477 116 vcf~ 6;
#X obj 118 138 vcf~ 6;
#X obj 124 291 *~ 2;
#X obj 367 121 delay 50;
#X connect 0 0 12 0;
#X connect 2 0 3 0;
#X connect 3 0 5 1;
#X connect 4 0 20 0;
#X connect 5 0 4 0;
#X connect 6 0 19 0;
#X connect 7 0 8 0;
#X connect 8 0 9 0;
#X connect 9 0 4 1;
#X connect 10 0 19 1;
#X connect 11 0 18 1;
#X connect 12 0 14 0;
#X connect 12 1 16 0;
#X connect 12 2 21 0;
#X connect 12 3 15 0;
#X connect 13 0 18 0;
#X connect 14 0 10 0;
#X connect 15 0 11 0;
#X connect 16 0 2 0;
#X connect 17 0 7 0;
#X connect 18 0 9 1;
#X connect 19 0 5 0;
#X connect 20 0 1 0;
#X connect 21 0 17 0;
#X restore 112 181 pd clap;
#N canvas 757 224 266 240 kick 0;
#X obj 102 25 inlet;
#X msg 102 62 0 \, 1 200;
#X obj 102 86 line~;
#X obj 102 110 sqrt~;
#X obj 102 134 *~ 20;
#X obj 102 158 cos~;
#X obj 102 182 outlet~;
#X connect 0 0 1 0;
#X connect 1 0 2 0;
#X connect 2 0 3 0;
#X connect 3 0 4 0;
#X connect 4 0 5 0;
#X connect 5 0 6 0;
#X restore 41 255 pd kick;
#N canvas 659 161 671 469 trashycym 0;
#X obj 90 5 noise~;
#X obj 108 74 delwrite~ noise 100;
#X obj 305 116 delread~ noise 100;
#X obj 104 216 +~;
#X msg 248 234 1 4 \, 0 496 4;
#X obj 248 263 vline~;
#X obj 248 287 pow~ 2;
#X obj 102 253 *~;
#X obj 370 163 delread~ noise 100;
#X obj 247 2 inlet;
#X obj 101 385 outlet~;
#X obj 248 36 t b b b;
#X obj 304 88 random 100;
#X obj 370 141 random 100;
#X obj 93 35 hip~ 5000;
#X obj 101 289 *~ 0.5;
#X connect 0 0 14 0;
#X connect 2 0 3 1;
#X connect 3 0 7 0;
#X connect 4 0 5 0;
#X connect 5 0 6 0;
#X connect 6 0 7 1;
#X connect 7 0 15 0;
#X connect 8 0 3 1;
#X connect 9 0 11 0;
#X connect 11 0 4 0;
#X connect 11 1 12 0;
#X connect 11 2 13 0;
#X connect 12 0 2 0;
#X connect 13 0 8 0;
#X connect 14 0 1 0;
#X connect 14 0 3 0;
#X connect 15 0 10 0;
#X restore 64 231 pd trashycym;
#X text 38 30 Random drums;
#X obj 119 316 *~ 0.2;
#X obj 108 356 dac~;
#X obj 41 93 metro 140;
#X text 32 405 (C) 2024 Alexander Bauer;
#X connect 0 0 9 0;
#X connect 1 0 6 0;
#X connect 1 1 7 0;
#X connect 1 2 0 0;
#X connect 1 3 5 0;
#X connect 2 0 1 0;
#X connect 3 0 11 0;
#X connect 4 0 11 1;
#X connect 5 0 9 0;
#X connect 6 0 9 0;
#X connect 7 0 9 0;
#X connect 9 0 10 0;
#X connect 9 0 10 1;
#X connect 11 0 2 0;
