#N canvas 627 38 525 827 12;
#X obj 37 196 t f b;
#X obj 36 483 +;
#X floatatom 36 536 5 0 0 0 - - - 0;
#X obj 36 675 osc~;
#X obj 35 765 *~;
#X obj 36 624 mtof;
#X obj 23 798 dac~;
#X floatatom 69 275 5 0 0 0 - - - 0;
#X obj 69 223 random 2;
#X obj 69 249 + 1;
#X obj 69 299 t f b;
#X obj 101 323 random 2;
#X obj 69 403 *;
#X msg 101 373 1;
#X obj 101 348 sel 0;
#X floatatom 69 427 5 0 0 0 - - - 0;
#X msg 133 373 -1;
#X obj 82 701 vline~;
#X obj 75 729 *~;
#X obj 36 648 t f b, f 7;
#X obj 37 52 tgl 19 0 empty empty empty 0 -10 0 12 #fcfcfc #000000 #000000 0 1;
#X obj 37 78 metro 300;
#X msg 82 674 0.3 10 \, 0 300 10;
#N canvas 0 22 450 278 (subpatch) 0;
#X array walk 30 float 3;
#A 0 11 8 7 5 4 1 0 4 3 4 7 10 13 14 17 12 13 18 20 15 20 24 27 24 27 24 23 11 7 6;
#X coords 0 100 30 0 200 140 1 0 0;
#X restore 218 469 graph;
#X text 35 19 Random walk;
#X text 166 373 steps up or down;
#X text 211 673 exponential envelope;
#X text 83 772 (c) 2024 https://youtu.be/CJoyJfdchjs?si=LL1bUlmKVkbknYzT;
#X floatatom 122 198 5 0 0 1 step\ size - - 0;
#X text 107 273 single step;
#X text 65 482 adding new step;
#X obj 100 51 hsl 162 19 5 1000 0 0 empty empty empty -2 -10 0 12 #fcfcfc #000000 #000000 0 0;
#X text 92 111 reset;
#X obj 71 137 r last-val;
#N canvas 440 465 507 267 display 0;
#X obj 169 130 f;
#X obj 207 130 + 1;
#X obj 100 66 t f b;
#X floatatom 170 157 5 0 0 0 - - - 0;
#X floatatom 82 156 5 0 0 0 - - - 0;
#X obj 238 129 mod 30;
#X obj 101 11 inlet;
#X obj 82 184 tabwrite walk;
#X obj 27 219 outlet;
#X text 184 185 send to walk array for display;
#X text 80 221 direct out;
#X connect 0 0 1 0;
#X connect 0 0 3 0;
#X connect 1 0 5 0;
#X connect 2 0 4 0;
#X connect 2 1 0 0;
#X connect 3 0 7 1;
#X connect 4 0 7 0;
#X connect 5 0 0 1;
#X connect 6 0 2 0;
#X connect 6 0 8 0;
#X restore 36 595 pd display;
#X obj 48 566 s last-val;
#X obj 37 168 f 60;
#X msg 62 111 60;
#N canvas 962 284 364 297 range 0;
#X obj 54 41 inlet;
#X floatatom 53 210 5 0 0 0 - - - 0;
#X obj 54 75 moses 0;
#X obj 100 119 moses 100;
#X obj 54 99 * -1;
#X obj 160 147 * -1;
#X obj 160 169 + 200;
#X text 106 100 negativ = positive;
#X text 177 118 0-99 direct out;
#X text 202 148 > 100 = reflected;
#X obj 53 237 outlet;
#X connect 0 0 2 0;
#X connect 1 0 10 0;
#X connect 2 0 4 0;
#X connect 2 1 3 0;
#X connect 3 0 1 0;
#X connect 3 1 5 0;
#X connect 4 0 1 0;
#X connect 5 0 6 0;
#X connect 6 0 1 0;
#X restore 36 509 pd range;
#X connect 0 0 1 0;
#X connect 0 1 8 0;
#X connect 1 0 38 0;
#X connect 2 0 34 0;
#X connect 2 0 35 0;
#X connect 3 0 4 0;
#X connect 4 0 6 0;
#X connect 4 0 6 1;
#X connect 5 0 19 0;
#X connect 7 0 10 0;
#X connect 8 0 9 0;
#X connect 9 0 7 0;
#X connect 10 0 12 0;
#X connect 10 1 11 0;
#X connect 11 0 14 0;
#X connect 12 0 15 0;
#X connect 13 0 12 1;
#X connect 14 0 13 0;
#X connect 14 1 16 0;
#X connect 15 0 1 1;
#X connect 16 0 12 1;
#X connect 17 0 18 1;
#X connect 17 0 18 0;
#X connect 18 0 4 1;
#X connect 19 0 3 0;
#X connect 19 1 22 0;
#X connect 20 0 21 0;
#X connect 21 0 36 0;
#X connect 22 0 17 0;
#X connect 28 0 8 1;
#X connect 31 0 21 1;
#X connect 33 0 36 1;
#X connect 34 0 5 0;
#X connect 36 0 0 0;
#X connect 37 0 36 1;
#X connect 38 0 2 0;
