#N canvas 311 175 598 589 12;
#X declare -path abs;
#X obj 138 208 s-lsystem 4;
#X msg 147 176 3 2 2 5 1;
#X obj 55 174 tgl 15 0 empty empty empty 0 -6 0 8 #fcfcfc #000000 #000000 0 1;
#X obj 68 447 osc~;
#X obj 68 424 mtof;
#X obj 107 447 line~;
#X msg 107 420 1 \, 0 100;
#X obj 79 483 *~;
#X obj 55 200 metro 110;
#X msg 115 338 60 62 64 68 71 0;
#X msg 137 92 clear \, rule 1 2 3 2 \, rule 2 6 5 1 \, rule 3 6 1 4 \, rule 4 3 1 1 \, rule 5 6 6 6 \, rule 6 1 2 3;
#X obj 137 68 loadbang;
#X obj 115 313 loadbang;
#X obj 316 199 s-lsystem 4;
#X msg 316 169 6 6 6 2 3;
#X obj 233 447 osc~;
#X obj 233 424 mtof;
#X obj 272 447 line~;
#X obj 243 484 *~;
#X obj 294 316 loadbang;
#X msg 273 421 1 \, 0 200;
#X msg 294 342 0 62 64 68 60 0;
#X obj 156 538 dac~;
#X obj 55 223 t b b;
#X obj 68 391 t f b;
#X obj 234 393 t f b;
#N canvas 902 300 167 188 serialize 0;
#X obj 6 71 list split 1;
#X obj 56 96 list append;
#X obj 6 96 t l b;
#X obj 6 50 list;
#X obj 6 22 inlet;
#X obj 49 22 inlet;
#X obj 6 121 outlet;
#X obj 85 121 outlet;
#X connect 0 0 2 0;
#X connect 0 1 1 1;
#X connect 0 2 7 0;
#X connect 1 0 3 1;
#X connect 2 0 6 0;
#X connect 2 1 1 0;
#X connect 3 0 0 0;
#X connect 4 0 3 0;
#X connect 5 0 3 1;
#X restore 235 283 pd serialize;
#N canvas 902 300 167 188 serialize 0;
#X obj 6 71 list split 1;
#X obj 56 96 list append;
#X obj 6 96 t l b;
#X obj 6 50 list;
#X obj 6 22 inlet;
#X obj 49 22 inlet;
#X obj 6 121 outlet;
#X obj 85 121 outlet;
#X connect 0 0 2 0;
#X connect 0 1 1 1;
#X connect 0 2 7 0;
#X connect 1 0 3 1;
#X connect 2 0 6 0;
#X connect 2 1 1 0;
#X connect 3 0 0 0;
#X connect 4 0 3 0;
#X connect 5 0 3 1;
#X restore 56 279 pd serialize;
#N canvas 0 22 450 300 lookup 0;
#X obj 13 88 list append;
#X msg 13 66 bang;
#X obj 13 114 list split 0;
#X obj 13 142 list split 1;
#X obj 13 40 t b f;
#X obj 108 13 inlet list-or-bang-to-clear;
#X obj 13 13 inlet lookup;
#X obj 13 169 outlet;
#X connect 0 0 2 0;
#X connect 1 0 0 0;
#X connect 2 1 3 0;
#X connect 3 0 7 0;
#X connect 4 0 1 0;
#X connect 4 1 2 1;
#X connect 5 0 0 1;
#X connect 6 0 4 0;
#X restore 234 369 pd lookup;
#N canvas 0 22 450 300 lookup 0;
#X obj 13 88 list append;
#X msg 13 66 bang;
#X obj 13 114 list split 0;
#X obj 13 142 list split 1;
#X obj 13 40 t b f;
#X obj 108 13 inlet list-or-bang-to-clear;
#X obj 13 13 inlet lookup;
#X obj 13 169 outlet;
#X connect 0 0 2 0;
#X connect 1 0 0 0;
#X connect 2 1 3 0;
#X connect 3 0 7 0;
#X connect 4 0 1 0;
#X connect 4 1 2 1;
#X connect 5 0 0 1;
#X connect 6 0 4 0;
#X restore 55 368 pd lookup;
#X obj 316 142 loadbang;
#X obj 147 151 loadbang;
#X obj 333 29 declare -path abs;
#N canvas 150 188 307 75 credits 0;
#X text 20 22 patch originally by Chris McCormick;
#X restore 243 28 pd credits;
#X text 56 28 L-System minimal tune;
#X connect 0 0 27 1;
#X connect 1 0 0 0;
#X connect 2 0 8 0;
#X connect 3 0 7 0;
#X connect 4 0 3 0;
#X connect 5 0 7 1;
#X connect 6 0 5 0;
#X connect 7 0 22 0;
#X connect 8 0 23 0;
#X connect 9 0 29 1;
#X connect 10 0 0 0;
#X connect 10 0 13 0;
#X connect 11 0 10 0;
#X connect 12 0 9 0;
#X connect 13 0 26 1;
#X connect 14 0 13 0;
#X connect 15 0 18 0;
#X connect 16 0 15 0;
#X connect 17 0 18 1;
#X connect 18 0 22 1;
#X connect 19 0 21 0;
#X connect 20 0 17 0;
#X connect 21 0 28 1;
#X connect 23 0 27 0;
#X connect 23 1 26 0;
#X connect 24 0 4 0;
#X connect 24 1 6 0;
#X connect 25 0 16 0;
#X connect 25 1 20 0;
#X connect 26 0 28 0;
#X connect 27 0 29 0;
#X connect 28 0 25 0;
#X connect 29 0 24 0;
#X connect 30 0 14 0;
#X connect 31 0 1 0;
