#N canvas 140 22 723 338 10;
#N canvas 0 22 450 300 (subpatch) 0;
#X array \$0-waveshaper 259 float 0;
#X coords 0 1 258 -1 100 100 1;
#X restore 104 116 graph;
#X obj 261 149 outlet~;
#X obj 261 71 *~ 128;
#X obj 261 96 +~ 129;
#X obj 261 120 tabread4~ \$0-waveshaper;
#X obj 207 116 vradio 10 1 0 8 empty empty empty 0 -6 0 8 -262144 -1
-1 0;
#X obj 261 42 inlet~;
#X obj 259 182 loadbang;
#X msg 259 234 0;
#X msg 299 272 \; pd dsp \$1 \;;
#X obj 299 246 tgl 15 0 empty empty empty 17 7 0 10 -262144 -1 -1 1
1;
#X obj 259 205 t b b;
#N canvas 0 22 588 631 waveforms 0;
#X obj 57 40 inlet;
#X obj 74 153 until;
#X obj 115 181 + 1;
#X obj 74 181 f 1;
#X obj 74 205 t f f;
#X obj 74 243 - 129;
#X obj 74 267 / 128;
#X obj 197 489 expr .8*tanh(5*$f1);
#X obj 76 385 expr $f1;
#X obj 221 515 expr sin(3.1415*$f1);
#X msg 120 96 xticks 0 8 4 \, yticks 0 8 4;
#X obj 234 539 expr if($f1>0 \, 0.8*sin(3.1415*$f1) \, 0.4*tanh(5*$f1))
;
#X obj 120 117 s \$0-waveshaper;
#X obj 222 580 tabwrite \$0-waveshaper;
#X obj 75 290 t b f;
#X obj 75 338 pack f f;
#X obj 75 314 f 0;
#X obj 57 68 t b b b f b;
#X obj 130 426 expr $f1*0.5;
#X obj 103 406 expr -$f1;
#X obj 175 469 expr cos($f1)*2-1;
#X obj 150 447 expr $f1*$f1*2-1;
#X obj 76 361 route 0 1 2 3 4 5 6 7 8;
#X msg 74 130 259;
#X msg 115 153 0;
#X connect 0 0 17 0;
#X connect 1 0 3 0;
#X connect 2 0 3 1;
#X connect 3 0 2 0;
#X connect 3 0 4 0;
#X connect 4 0 5 0;
#X connect 4 1 13 1;
#X connect 5 0 6 0;
#X connect 6 0 14 0;
#X connect 7 0 13 0;
#X connect 8 0 13 0;
#X connect 9 0 13 0;
#X connect 10 0 12 0;
#X connect 11 0 13 0;
#X connect 14 0 16 0;
#X connect 14 1 15 1;
#X connect 15 0 22 0;
#X connect 16 0 15 0;
#X connect 17 1 23 0;
#X connect 17 2 24 0;
#X connect 17 3 16 1;
#X connect 17 4 10 0;
#X connect 18 0 13 0;
#X connect 19 0 13 0;
#X connect 20 0 13 0;
#X connect 21 0 13 0;
#X connect 22 0 8 0;
#X connect 22 1 19 0;
#X connect 22 2 18 0;
#X connect 22 3 21 0;
#X connect 22 4 20 0;
#X connect 22 5 7 0;
#X connect 22 6 9 0;
#X connect 22 7 11 0;
#X connect 23 0 1 0;
#X connect 24 0 3 1;
#X restore 205 285 pd waveforms;
#X text 313 76 ranges values from -1 - 1 between 0 and 258 (table size
= 259);
#X connect 2 0 3 0;
#X connect 3 0 4 0;
#X connect 4 0 1 0;
#X connect 5 0 12 0;
#X connect 6 0 2 0;
#X connect 7 0 11 0;
#X connect 8 0 12 0;
#X connect 10 0 9 0;
#X connect 11 0 8 0;
#X connect 11 1 10 0;
#X coords 0 -1 1 1 121 121 2 100 100;
