#N canvas 99 44 652 839 12;
#X obj 241 566 hsl 200 80 0 127 0 0 empty empty Slider 80 40 0 24 -2369
-64 -258049 0 1;
#X obj 206 442 list prepend color;
#X obj 204 476 list trim;
#X text 55 738 -pow(2 \, 16) * R - pow(2 \, 8) * G - pow(2 \, 0) *
B - 1;
#X obj 131 236 vsl 15 64 0 255 0 0 empty empty empty 0 -8 0 8 -258699
-1 -1 0 0;
#X obj 148 236 vsl 15 64 0 255 0 0 empty empty empty 0 -8 0 8 -24198
-1 -1 3700 0;
#X obj 165 236 vsl 15 64 0 255 0 0 empty empty empty 0 -8 0 8 -62784
-1 -1 0 0;
#X text 187 265 Back;
#X text 295 262 Front;
#X text 409 258 Label;
#N canvas 0 23 224 236 pak3 0;
#X obj 76 71 t b f;
#X obj 123 72 t b f;
#X obj 24 38 inlet;
#X obj 76 35 inlet;
#X obj 123 35 inlet;
#X obj 24 158 outlet;
#X obj 24 133 pack 0 0 0;
#X connect 0 0 6 0;
#X connect 0 1 6 1;
#X connect 1 0 6 0;
#X connect 1 1 6 2;
#X connect 2 0 6 0;
#X connect 3 0 0 0;
#X connect 4 0 1 0;
#X connect 6 0 5 0;
#X restore 122 323 pd pak3;
#N canvas 0 23 224 236 pak3 0;
#X obj 76 71 t b f;
#X obj 123 72 t b f;
#X obj 24 38 inlet;
#X obj 76 35 inlet;
#X obj 123 35 inlet;
#X obj 24 158 outlet;
#X obj 24 133 pack 0 0 0;
#X connect 0 0 6 0;
#X connect 0 1 6 1;
#X connect 1 0 6 0;
#X connect 1 1 6 2;
#X connect 2 0 6 0;
#X connect 3 0 0 0;
#X connect 4 0 1 0;
#X connect 6 0 5 0;
#X restore 206 384 pd pak3;
#X obj 241 239 vsl 15 64 0 255 0 0 empty empty empty 0 -8 0 8 -258699
-1 -1 0 0;
#X obj 258 239 vsl 15 64 0 255 0 0 empty empty empty 0 -8 0 8 -24198
-1 -1 0 0;
#X obj 275 239 vsl 15 64 0 255 0 0 empty empty empty 0 -8 0 8 -62784
-1 -1 6300 0;
#N canvas 0 22 224 236 pak3 0;
#X obj 76 71 t b f;
#X obj 123 72 t b f;
#X obj 24 38 inlet;
#X obj 76 35 inlet;
#X obj 123 35 inlet;
#X obj 24 158 outlet;
#X obj 24 133 pack 0 0 0;
#X connect 0 0 6 0;
#X connect 0 1 6 1;
#X connect 1 0 6 0;
#X connect 1 1 6 2;
#X connect 2 0 6 0;
#X connect 3 0 0 0;
#X connect 4 0 1 0;
#X connect 6 0 5 0;
#X restore 232 320 pd pak3;
#X obj 351 236 vsl 15 64 0 255 0 0 empty empty empty 0 -8 0 8 -258699
-1 -1 6300 0;
#X obj 368 236 vsl 15 64 0 255 0 0 empty empty empty 0 -8 0 8 -24198
-1 -1 0 0;
#X obj 385 236 vsl 15 64 0 255 0 0 empty empty empty 0 -8 0 8 -62784
-1 -1 0 0;
#N canvas 0 22 224 236 pak3 0;
#X obj 76 71 t b f;
#X obj 123 72 t b f;
#X obj 24 38 inlet;
#X obj 76 35 inlet;
#X obj 123 35 inlet;
#X obj 24 158 outlet;
#X obj 24 133 pack 0 0 0;
#X connect 0 0 6 0;
#X connect 0 1 6 1;
#X connect 1 0 6 0;
#X connect 1 1 6 2;
#X connect 2 0 6 0;
#X connect 3 0 0 0;
#X connect 4 0 1 0;
#X connect 6 0 5 0;
#X restore 342 311 pd pak3;
#N canvas 281 345 447 195 rgbtopd 0;
#X obj 35 59 expr -65536 * $i1 - 256 * $i2 - $i3 - 1 \;;
#X obj 35 25 inlet;
#X obj 35 89 outlet;
#X text 26 121 -pow(2 \, 16) * R - pow(2 \, 8) * G - pow(2 \, 0) *
B - 1;
#X connect 0 0 2 0;
#X connect 1 0 0 0;
#X restore 342 337 pd rgbtopd;
#N canvas 281 345 447 195 rgbtopd 0;
#X obj 35 59 expr -65536 * $i1 - 256 * $i2 - $i3 - 1 \;;
#X obj 35 25 inlet;
#X obj 35 89 outlet;
#X text 26 121 -pow(2 \, 16) * R - pow(2 \, 8) * G - pow(2 \, 0) *
B - 1;
#X connect 0 0 2 0;
#X connect 1 0 0 0;
#X restore 232 344 pd rgbtopd;
#N canvas 633 187 447 195 rgbtopd 1;
#X obj 35 59 expr -65536 * $i1 - 256 * $i2 - $i3 - 1 \;;
#X obj 35 25 inlet;
#X obj 35 89 outlet;
#X text 26 121 -pow(2 \, 16) * R - pow(2 \, 8) * G - pow(2 \, 0) *
B - 1;
#X connect 0 0 2 0;
#X connect 1 0 0 0;
#X restore 122 347 pd rgbtopd;
#X obj 249 529 nbx 5 20 -1e+37 1e+37 0 0 empty empty empty 0 -6 0 15
-2369 -64 -258049 0 256;
#X obj 107 558 tgl 50 1 empty empty LABEL 0 60 0 12 -2369 -64 -258049
1 1;
#X obj 102 172 unpack 0 0 0;
#X obj 212 172 unpack 0 0 0;
#X obj 323 172 unpack 0 0 0;
#X obj 287 658 cnv 15 100 30 empty \$0-CNV _Colors_ 7 14 0 14 -2369
-258049 0;
#X text 54 717 Formula:;
#X obj 345 530 bng 32 2000 50 0 empty empty |bang( -8 -10 0 12 -2369
-64 -258049;
#X obj 478 522 hradio 32 1 0 3 empty empty Radio 42 42 0 15 -2369 -64
-258049 0;
#X text 59 766 Example color schemes taken from: http://www.returnofdesign.com/colors/
and http://wellstyled.com/tools/colorscheme2/index-en.html;
#X obj 201 662 s \$0-CNV;
#X obj 477 689 hradio 32 1 0 3 empty empty Radio 42 42 0 15 -64 -258049
-2369 0;
#X obj 478 606 hradio 32 1 0 3 empty empty Radio 42 42 0 15 -258049
-2369 -64 0;
#X obj 219 417 s \$0-color;
#N canvas 0 23 450 300 rot1 0;
#X obj 69 79 list prepend color;
#X obj 69 102 list trim;
#X obj 69 36 r \$0-color;
#N canvas 0 22 450 300 rotate1 0;
#X obj 173 193 list prepend;
#X obj 151 44 inlet;
#X obj 259 115 inlet;
#X text 311 115 how often to rotate;
#X obj 151 220 list;
#X text 198 43 list to rotate;
#X obj 151 250 outlet;
#X text 267 194 move right part of list to left.;
#X obj 151 70 t b a b;
#X obj 173 152 list split 1;
#X connect 0 0 4 1;
#X connect 1 0 8 0;
#X connect 2 0 9 1;
#X connect 4 0 6 0;
#X connect 8 0 4 0;
#X connect 8 1 9 0;
#X connect 8 2 0 1;
#X connect 9 0 0 0;
#X connect 9 1 0 1;
#X restore 69 57 pd rotate1;
#X obj 69 128 outlet;
#X connect 0 0 1 0;
#X connect 1 0 4 0;
#X connect 2 0 3 0;
#X connect 3 0 0 0;
#X restore 477 662 pd rot1;
#N canvas 676 298 450 300 rot2 0;
#X obj 69 79 list prepend color;
#X obj 69 102 list trim;
#X obj 69 36 r \$0-color;
#X obj 69 128 outlet;
#N canvas 0 22 655 388 rotate2 0;
#X obj 173 193 list prepend;
#X obj 151 44 inlet;
#X obj 259 115 inlet;
#X text 311 115 how often to rotate;
#X obj 151 220 list;
#X text 198 43 list to rotate;
#X obj 151 250 outlet;
#X text 267 194 move right part of list to left.;
#X obj 151 70 t b a b;
#X obj 173 152 list split 2;
#X connect 0 0 4 1;
#X connect 1 0 8 0;
#X connect 2 0 9 1;
#X connect 4 0 6 0;
#X connect 8 0 4 0;
#X connect 8 1 9 0;
#X connect 8 2 0 1;
#X connect 9 0 0 0;
#X connect 9 1 0 1;
#X restore 69 57 pd rotate2;
#X connect 0 0 1 0;
#X connect 1 0 3 0;
#X connect 2 0 4 0;
#X connect 4 0 0 0;
#X restore 478 581 pd rot2;
#X obj 212 92 loadbang;
#X text 124 43 Colorschemes in PD;
#X msg 323 144 255 0 0;
#X msg 212 145 0 0 255;
#X msg 102 146 0 255 0;
#X connect 1 0 2 0;
#X connect 2 0 0 0;
#X connect 2 0 24 0;
#X connect 2 0 23 0;
#X connect 2 0 30 0;
#X connect 2 0 31 0;
#X connect 2 0 33 0;
#X connect 4 0 10 0;
#X connect 5 0 10 1;
#X connect 6 0 10 2;
#X connect 10 0 22 0;
#X connect 11 0 1 0;
#X connect 11 0 36 0;
#X connect 12 0 15 0;
#X connect 13 0 15 1;
#X connect 14 0 15 2;
#X connect 15 0 21 0;
#X connect 16 0 19 0;
#X connect 17 0 19 1;
#X connect 18 0 19 2;
#X connect 19 0 20 0;
#X connect 20 0 11 2;
#X connect 21 0 11 1;
#X connect 22 0 11 0;
#X connect 25 0 4 0;
#X connect 25 1 5 0;
#X connect 25 2 6 0;
#X connect 26 0 12 0;
#X connect 26 1 13 0;
#X connect 26 2 14 0;
#X connect 27 0 16 0;
#X connect 27 1 17 0;
#X connect 27 2 18 0;
#X connect 37 0 34 0;
#X connect 38 0 35 0;
#X connect 39 0 43 0;
#X connect 39 0 42 0;
#X connect 39 0 41 0;
#X connect 41 0 27 0;
#X connect 42 0 26 0;
#X connect 43 0 25 0;
