#N canvas 844 464 429 424 12;
#N canvas 0 22 563 515 test 0;
#X obj 202 436 ctlout;
#X msg 60 368 125 0 1;
#X text 288 345 off;
#X text 81 346 low;
#X text 132 346 medium;
#X text 207 345 high;
#X msg 126 368 126 0 1;
#X msg 204 366 127 0 1;
#X obj 84 266 f;
#X obj 125 265 + 1;
#X msg 280 266 0;
#X obj 82 145 tgl 15 0 empty empty empty 17 7 0 10 -262144 -1 -1 0
1;
#X obj 82 175 t f b;
#X obj 82 237 metro;
#X msg 280 364 0 0 1;
#X obj 84 299 sel 0 1 2 3;
#X obj 170 266 mod 4;
#X obj 82 114 loadbang;
#X msg 119 205 1000;
#X text 42 28 novation LAUNCHPAD: Brightness test;
#X text 43 54 (All fields for 1 second: yellow low \, yellow mid \,
yellow bright \, off);
#X text 116 142 <- click;
#X connect 1 0 0 0;
#X connect 6 0 0 0;
#X connect 7 0 0 0;
#X connect 8 0 9 0;
#X connect 8 0 15 0;
#X connect 9 0 16 0;
#X connect 10 0 11 0;
#X connect 11 0 12 0;
#X connect 12 0 13 0;
#X connect 12 1 18 0;
#X connect 13 0 8 0;
#X connect 14 0 0 0;
#X connect 15 0 1 0;
#X connect 15 1 6 0;
#X connect 15 2 7 0;
#X connect 15 3 14 0;
#X connect 15 3 10 0;
#X connect 16 0 8 1;
#X connect 17 0 11 0;
#X connect 18 0 13 1;
#X restore 351 15 pd test;
#X obj 13 11 cnv 15 400 400 empty empty empty 20 12 0 14 -66577 -66577
0;
#X obj 24 379 cnv 15 100 15 empty empty novation 10 12 0 14 -66577
-262144 0;
#X obj 296 379 cnv 15 100 15 empty empty LAUNCHPAD 10 12 0 14 -66577
-4034 0;
#X obj 393 65 cnv 2 2 305 empty empty empty 20 12 0 14 -4034 -66577
0;
#X obj 30 65 lp_tgl 0 15;
#X obj 32 342 lp_tgl 112 15;
#X obj 70 65 lp_tgl 1 15;
#X obj 109 65 lp_tgl 2 15;
#X obj 308 65 lp_tgl 7 15;
#X obj 268 65 lp_tgl 6 15;
#X obj 228 65 lp_tgl 5 15;
#X obj 189 65 lp_tgl 4 15;
#X obj 149 65 lp_tgl 3 15;
#X obj 30 104 lp_tgl 16 15;
#X obj 70 104 lp_tgl 17 15;
#X obj 30 144 lp_tgl 32 15;
#X obj 30 184 lp_tgl 48 15;
#X obj 31 224 lp_tgl 64 15;
#X obj 32 263 lp_tgl 80 15;
#X obj 32 303 lp_tgl 96 15;
#X obj 109 104 lp_tgl 18 15;
#X obj 149 104 lp_tgl 19 15;
#X obj 189 105 lp_tgl 20 15;
#X obj 228 104 lp_tgl 21 15;
#X obj 268 104 lp_tgl 22 15;
#X obj 308 104 lp_tgl 23 15;
#X obj 71 144 lp_tgl 33 15;
#X obj 110 144 lp_tgl 34 15;
#X obj 150 144 lp_tgl 35 15;
#X obj 189 144 lp_tgl 36 15;
#X obj 228 144 lp_tgl 37 15;
#X obj 268 144 lp_tgl 38 15;
#X obj 308 144 lp_tgl 39 15;
#X obj 71 184 lp_tgl 49 15;
#X obj 110 183 lp_tgl 50 15;
#X obj 150 183 lp_tgl 51 15;
#X obj 189 183 lp_tgl 52 15;
#X obj 228 184 lp_tgl 53 15;
#X obj 268 183 lp_tgl 54 15;
#X obj 309 183 lp_tgl 55 15;
#X obj 110 225 lp_tgl 66 15;
#X obj 71 224 lp_tgl 65 15;
#X obj 150 224 lp_tgl 67 15;
#X obj 229 224 lp_tgl 69 15;
#X obj 190 224 lp_tgl 68 15;
#X obj 269 224 lp_tgl 70 15;
#X obj 309 224 lp_tgl 71 15;
#X obj 110 263 lp_tgl 82 15;
#X obj 72 263 lp_tgl 81 15;
#X obj 190 263 lp_tgl 84 15;
#X obj 150 263 lp_tgl 83 15;
#X obj 229 263 lp_tgl 85 15;
#X obj 310 264 lp_tgl 87 15;
#X obj 269 263 lp_tgl 86 15;
#X obj 72 303 lp_tgl 97 15;
#X obj 110 303 lp_tgl 98 15;
#X obj 150 303 lp_tgl 99 15;
#X obj 190 303 lp_tgl 100 15;
#X obj 230 303 lp_tgl 101 15;
#X obj 310 303 lp_tgl 103 15;
#X obj 269 303 lp_tgl 102 15;
#X obj 110 342 lp_tgl 114 15;
#X obj 72 342 lp_tgl 113 15;
#X obj 191 342 lp_tgl 116 15;
#X obj 150 342 lp_tgl 115 15;
#X obj 230 342 lp_tgl 117 15;
#X obj 270 342 lp_tgl 118 15;
#X obj 310 342 lp_tgl 119 15;
#X obj 348 65 lp_bng 8 60;
#X obj 348 105 lp_bng 24 60;
#X obj 348 144 lp_bng 40 60;
#X obj 349 185 lp_bng 56 60;
#X obj 349 225 lp_bng 72 60;
#X obj 349 264 lp_bng 88 60;
#X obj 350 304 lp_bng 104 60;
#X obj 349 341 lp_bng 120 60;
