#N canvas 509 264 585 504 12;
#X obj 191 443 ctlout;
#X msg 60 368 125 0 1;
#X text 288 345 off;
#X text 81 346 low;
#X text 132 346 medium;
#X text 207 345 high;
#X msg 126 368 126 0 1;
#X msg 204 366 127 0 1;
#X obj 84 266 f;
#X obj 125 265 + 1;
#X msg 280 266 0;
#X obj 82 145 tgl 15 0 empty empty empty 17 7 0 10 -262144 -1 -1 0
1;
#X obj 82 175 t f b;
#X obj 82 237 metro;
#X msg 280 364 0 0 1;
#X obj 84 299 sel 0 1 2 3;
#X obj 170 266 mod 4;
#X obj 82 114 loadbang;
#X msg 119 206 1000;
#X text 42 28 novation LAUNCHPAD: Brightness test;
#X text 43 54 (All fields for 1 second: yellow low \, yellow mid \,
yellow bright \, off);
#X text 116 142 <- click;
#X connect 1 0 0 0;
#X connect 6 0 0 0;
#X connect 7 0 0 0;
#X connect 8 0 9 0;
#X connect 8 0 15 0;
#X connect 9 0 16 0;
#X connect 10 0 11 0;
#X connect 11 0 12 0;
#X connect 12 0 13 0;
#X connect 12 1 18 0;
#X connect 13 0 8 0;
#X connect 14 0 0 0;
#X connect 15 0 1 0;
#X connect 15 1 6 0;
#X connect 15 2 7 0;
#X connect 15 3 14 0;
#X connect 15 3 10 0;
#X connect 16 0 8 1;
#X connect 17 0 11 0;
#X connect 18 0 13 1;
