#N canvas 380 25 559 644 12;
#X floatatom 39 74 0 0 0 0 - - - 0;
#X text 78 72 numbers to store and output later;
#X text 102 98 output all stored messages immediately;
#X msg 50 99 flush;
#X msg 67 150 clear;
#X text 115 150 forget all stored messages;
#X msg 60 125 bang;
#X text 103 124 output the most recently stored message;
#X floatatom 39 211 5 0 0 0 - - - 0;
#X text 228 401 A pipe for one float \, and one symbol.;
#X symbolatom 190 426 10 0 0 0 - - - 0;
#X floatatom 38 429 5 0 0 0 - - - 0;
#X msg 49 371 100 dog;
#X msg 37 344 42 cat;
#X text 104 343 messages can be sent as lists like this example.;
#X floatatom 46 464 0 0 0 0 - - - 0;
#X floatatom 39 579 0 0 0 0 - - - 0;
#X floatatom 104 604 0 0 0 0 - - - 0;
#X floatatom 169 602 0 0 0 0 - - - 0;
#X obj 73 519 + 1;
#X obj 117 518 + 2;
#X text 36 315 scheduled splitting of messages;
#X obj 39 552 pipe f f f 2000, f 19;
#X obj 47 489 t f f f;
#X obj 104 578 pipe 250;
#X obj 169 577 pipe 500;
#X text 37 34 Delay number streams;
#X obj 290 515 bng 15 250 50 0 empty empty empty 17 7 0 10 #fcfcfc #000000 #000000;
#X obj 290 548 pipe 1000;
#X obj 290 589 bng 15 250 50 0 empty empty empty 17 7 0 10 #fcfcfc #000000 #000000;
#X text 183 489 pipe as a delay for bang sequences;
#X text 315 513 bang more than once;
#X obj 91 212 print;
#X obj 39 399 pipe float symbol 1000;
#X obj 39 180 pipe 3000;
#X obj 38 243 makenote 80 200;
#X obj 38 279 noteout;
#X connect 0 0 34 0;
#X connect 3 0 34 0;
#X connect 4 0 34 0;
#X connect 6 0 34 0;
#X connect 8 0 35 0;
#X connect 12 0 33 0;
#X connect 13 0 33 0;
#X connect 15 0 23 0;
#X connect 19 0 22 1;
#X connect 20 0 22 2;
#X connect 22 0 16 0;
#X connect 22 1 24 0;
#X connect 22 2 25 0;
#X connect 23 0 22 0;
#X connect 23 1 19 0;
#X connect 23 2 20 0;
#X connect 24 0 17 0;
#X connect 25 0 18 0;
#X connect 27 0 28 0;
#X connect 28 0 29 0;
#X connect 33 0 11 0;
#X connect 33 1 10 0;
#X connect 34 0 8 0;
#X connect 34 0 32 0;
#X connect 35 0 36 0;
#X connect 35 1 36 1;
