#N canvas 465 279 491 334 12;
#X declare -path ../Abstractions/;
#X declare -path ../Abstractions/;
#X obj 98 175 timer;
#X obj 98 202 t f f;
#X obj 77 254 -;
#X msg 55 174 0;
#X obj 55 105 bng 15 250 50 0 empty empty empty 17 7 0 10 #fcfcfc #000000 #000000;
#X floatatom 55 289 10 0 0 1 msecs - - 0;
#X text 44 22 Calculating time intervals;
#N canvas 751 312 257 372 hourglass 0;
#X obj 12 21 declare -path ../Abstractions/;
#X obj 47 166 bng 15 250 50 0 empty empty empty 17 7 0 10 #fcfcfc #000000 #000000;
#X msg 139 182 4000;
#X msg 132 158 10000;
#X msg 115 111 456;
#X msg 105 88 0;
#X msg 124 135 70000;
#X obj 47 277 bng 15 250 50 0 empty empty empty 17 7 0 10 #fcfcfc #fc0400 #000000;
#X obj 47 222 hourglass;
#X text 11 45 See [hourglass] \; in Folder "Abstractions";
#X text 22 310 (c) 2010 Achim Bornhoeft;
#X connect 1 0 8 0;
#X connect 2 0 8 1;
#X connect 3 0 8 1;
#X connect 4 0 8 1;
#X connect 5 0 8 1;
#X connect 6 0 8 1;
#X connect 8 0 7 0;
#X restore 267 175 pd hourglass;
#N canvas 606 477 773 414 5-time-points 0;
#X obj 22 17 declare -path ../Abstractions/;
#X text 20 47 See [5-time-points] \; in Folder "Abstractions";
#X floatatom 197 332 8 0 0 0 - - - 0;
#X obj 384 46 tgl 15 0 empty empty empty 0 -6 0 10 #fcfcfc #000000 #000000 0 1;
#X obj 458 96 metro 1000;
#X obj 481 122 random 3500;
#X obj 481 148 + 500;
#X floatatom 259 333 8 0 0 0 - - - 0;
#X floatatom 321 333 8 0 0 0 - - - 0;
#X floatatom 383 334 8 0 0 0 - - - 0;
#X floatatom 444 334 8 0 0 0 - - - 0;
#X floatatom 471 236 8 0 0 0 - - - 0;
#X floatatom 449 289 8 0 0 0 - - - 0;
#X msg 282 153 reset;
#X obj 471 178 bng 15 250 50 0 empty empty empty 0 -6 0 10 #fcfcfc #000000 #000000;
#X floatatom 460 261 8 0 0 0 - - - 0;
#X text 190 369 (c) 2008 Achim Bornhoeft;
#X text 142 151 set timer to zero;
#X text 527 261 pass number;
#X text 512 288 output number;
#X text 535 237 number of points in time;
#X text 508 333 outputs 1 - 5 (msec);
#X msg 342 155 0;
#X obj 383 205 5-time-points;
#X text 23 93 Counting successive points in time into 5 outputs;
#X connect 3 0 4 0;
#X connect 3 0 23 0;
#X connect 4 0 5 0;
#X connect 4 0 14 0;
#X connect 5 0 6 0;
#X connect 6 0 4 1;
#X connect 13 0 23 0;
#X connect 14 0 23 1;
#X connect 22 0 23 0;
#X connect 23 0 2 0;
#X connect 23 1 7 0;
#X connect 23 2 8 0;
#X connect 23 3 9 0;
#X connect 23 4 10 0;
#X connect 23 5 12 0;
#X connect 23 6 15 0;
#X connect 23 7 11 0;
#X restore 267 202 pd 5-time-points;
#X text 265 148 Related Abstractions;
#X obj 129 83 metro 1000;
#X obj 152 109 random 3500;
#X obj 152 135 + 500;
#X obj 130 153 bng 15 250 50 0 empty empty empty 0 -6 0 10 #fcfcfc #000000 #000000;
#X obj 128 58 tgl 19 0 empty empty empty 0 -10 0 12 #fcfcfc #000000 #000000 0 1;
#X text 111 256 New timestamp - last timestamp = time interval;
#X connect 0 0 1 0;
#X connect 1 0 2 1;
#X connect 1 1 2 0;
#X connect 2 0 5 0;
#X connect 3 0 2 1;
#X connect 3 0 5 0;
#X connect 4 0 3 0;
#X connect 4 0 0 0;
#X connect 10 0 11 0;
#X connect 10 0 13 0;
#X connect 11 0 12 0;
#X connect 12 0 10 1;
#X connect 13 0 0 1;
#X connect 14 0 10 0;
