#N canvas 1112 301 934 853 12;
#X obj 24 427 vline~;
#X msg 24 403 \$1 \, \$2 \$3;
#X obj 24 352 f;
#X obj 124 267 t b f;
#X obj 93 302 /;
#X obj 345 141 sel 1 0;
#X msg 316 229 stop;
#X obj 27 87 samplerate~;
#X msg 48 139 resize \$1;
#X obj 24 381 pack f f f;
#X obj 225 468 metro;
#X floatatom 137 177 10 0 0 0 - - - 0;
#X text 74 114 init buffer size (secs);
#X msg 449 413 \; \$1 normalize;
#X obj 25 60 loadbang;
#N canvas 0 23 450 300 env 0;
#X obj 65 57 inlet~;
#X obj 65 225 outlet~;
#X obj 122 59 inlet;
#X text 184 165 kleiner env (kill klicks);
#X obj 118 149 line~;
#X obj 65 186 *~;
#X obj 119 126 pack f 25;
#X connect 0 0 5 0;
#X connect 2 0 6 0;
#X connect 4 0 5 1;
#X connect 5 0 1 0;
#X connect 6 0 4 0;
#X restore 272 140 pd env;
#X obj 312 116 t f f;
#X text 246 526 autooff loop if mute;
#N canvas 486 223 557 285 semitones 0;
#X obj 44 126 pow 2;
#X obj 81 99 / 12;
#X obj 44 155 outlet;
#X obj 44 74 t b f;
#X msg 44 99 2;
#X obj 44 48 inlet;
#X text 32 187 semitones just returns the right src from the given
semitone transposition \, e.g. (semitones 12) will return 2;
#X connect 0 0 2 0;
#X connect 1 0 0 1;
#X connect 3 0 4 0;
#X connect 3 1 1 0;
#X connect 4 0 0 0;
#X connect 5 0 3 0;
#X restore 826 268 pd semitones;
#X floatatom 826 292 7 0 0 0 - - - 0;
#X floatatom 826 246 5 0 0 0 - - - 0;
#X obj 826 218 int;
#X obj 638 296 *;
#X floatatom 638 345 10 0 0 0 - - - 0;
#X floatatom 779 532 10 0 0 0 - - - 0;
#X floatatom 639 533 10 0 0 1 - - - 0;
#X obj 638 323 int;
#X floatatom 639 218 8 0 0 0 - - - 0;
#X floatatom 730 219 8 0 0 0 - - - 0;
#X obj 671 481 / 1000;
#X obj 639 506 /;
#X obj 730 293 *;
#X floatatom 730 342 10 0 0 0 - - - 0;
#X obj 730 320 int;
#X obj 779 479 -;
#X obj 779 506 abs;
#X obj 790 451 t b f;
#X obj 671 456 samplerate~;
#X obj 639 430 t f b;
#X obj 656 270 t b f;
#X obj 748 269 t b f;
#X obj 602 28 inlet;
#X obj 225 526 bng 15 250 50 0 empty empty empty 17 7 0 10 #fcfcfc
#000000 #000000;
#X msg 343 86 0;
#X msg 313 86 1;
#X obj 371 337 t b b;
#X text 602 8 params;
#X obj 451 333 list;
#X obj 605 102 t b f;
#X obj 367 195 t b b;
#X obj 368 169 delay 25;
#X text 134 131 no resize!;
#X obj 24 270 t b b b;
#X obj 306 172 t b;
#X text 867 245 rate;
#N canvas 0 23 504 456 filter~ 0;
#X obj 83 67 inlet~;
#X obj 82 397 outlet~;
#X obj 195 67 inlet;
#X floatatom 195 104 5 0 0 0 - - - 0;
#X floatatom 245 107 5 0 0 0 - - - 0;
#X obj 83 365 vcf~;
#X obj 131 190 line~;
#X obj 247 68 inlet;
#X text 291 93 frq / Q;
#X msg 131 159 \$1 5000;
#X connect 0 0 5 0;
#X connect 2 0 3 0;
#X connect 3 0 9 0;
#X connect 4 0 5 2;
#X connect 5 0 1 0;
#X connect 6 0 5 1;
#X connect 7 0 4 0;
#X connect 9 0 6 0;
#X restore 24 476 pd filter~;
#N canvas 593 672 355 664 rnd-pan 0;
#X obj 119 515 line;
#X obj 119 491 pack;
#X floatatom 179 311 5 0 0 0 - - - 0;
#X obj 148 381 random;
#X obj 144 431 +;
#X floatatom 144 453 5 0 0 0 - - - 0;
#X floatatom 68 357 5 0 0 0 - - - 0;
#X obj 49 331 random;
#X obj 50 382 +;
#X floatatom 50 429 5 0 0 0 - - - 0;
#X obj 99 254 -;
#X floatatom 93 297 5 0 0 0 - - - 0;
#X obj 102 195 t b f;
#X obj 180 278 -;
#X obj 173 244 t b f;
#X floatatom 162 409 5 0 0 0 - - - 0;
#X obj 50 407 min 200;
#X obj 97 147 unpack f f f f;
#X obj 119 623 outlet;
#X obj 119 561 / 200;
#X obj 51 13 inlet;
#X obj 18 52 bng 15 250 50 0 empty empty empty 17 7 0 10 #fcfcfc #000000
#000000;
#X obj 139 599 hsl 128 15 0 1 0 0 empty empty empty -2 -8 0 10 #fcfcfc
#000000 #000000 0 1;
#X obj 196 565 s \$1-metro-bang;
#X obj 89 51 r \$1-metro-bang;
#X obj 51 82 t b b b b;
#X obj 197 513 delay;
#X obj 195 483 t b f;
#X obj 196 540 bng 15 250 50 0 empty empty empty 17 7 0 10 #fcfcfc
#000000 #000000;
#X msg 101 117 0 200 500 5000;
#X connect 0 0 19 0;
#X connect 1 0 0 0;
#X connect 2 0 3 1;
#X connect 3 0 4 0;
#X connect 4 0 5 0;
#X connect 5 0 1 1;
#X connect 5 0 27 0;
#X connect 6 0 8 1;
#X connect 7 0 8 0;
#X connect 8 0 16 0;
#X connect 9 0 1 0;
#X connect 10 0 11 0;
#X connect 11 0 7 1;
#X connect 12 0 10 0;
#X connect 12 1 10 1;
#X connect 13 0 2 0;
#X connect 14 0 13 0;
#X connect 14 1 13 1;
#X connect 15 0 4 1;
#X connect 16 0 9 0;
#X connect 17 0 12 0;
#X connect 17 0 6 0;
#X connect 17 1 10 0;
#X connect 17 2 14 0;
#X connect 17 2 15 0;
#X connect 17 3 13 0;
#X connect 19 0 18 0;
#X connect 19 0 22 0;
#X connect 20 0 25 0;
#X connect 21 0 25 0;
#X connect 24 0 25 0;
#X connect 25 1 7 0;
#X connect 25 2 3 0;
#X connect 25 3 29 0;
#X connect 26 0 28 0;
#X connect 27 0 26 0;
#X connect 27 1 26 1;
#X connect 28 0 23 0;
#X connect 29 0 17 0;
#X restore 112 729 pd rnd-pan;
#N canvas 635 718 215 370 eq-pwr-pan 0;
#X obj 33 293 *~;
#X obj 90 291 *~;
#X obj 114 207 line~;
#X obj 114 235 cos~;
#X obj 51 207 line~;
#X obj 51 235 cos~;
#X obj 50 181 pack;
#X obj 46 93 t f b;
#X obj 114 180 pack;
#X obj 114 122 - 0.25;
#X obj 114 90 t f b;
#X obj 47 52 / 4;
#X obj 33 252 inlet~;
#X obj 47 24 inlet;
#X obj 91 323 outlet~;
#X obj 33 322 outlet~;
#X msg 81 151 5;
#X msg 148 150 5;
#X connect 0 0 15 0;
#X connect 1 0 14 0;
#X connect 2 0 3 0;
#X connect 3 0 1 1;
#X connect 4 0 5 0;
#X connect 5 0 0 1;
#X connect 6 0 4 0;
#X connect 7 0 6 0;
#X connect 7 1 16 0;
#X connect 8 0 2 0;
#X connect 9 0 8 0;
#X connect 10 0 9 0;
#X connect 10 1 17 0;
#X connect 11 0 7 0;
#X connect 11 0 10 0;
#X connect 12 0 0 0;
#X connect 12 0 1 0;
#X connect 13 0 11 0;
#X connect 16 0 6 1;
#X connect 17 0 8 1;
#X restore 24 780 pd eq-pwr-pan;
#X obj 24 813 outlet~;
#X obj 112 813 outlet~;
#N canvas 110 143 658 522 once 0;
#X obj 131 198 spigot;
#X obj 76 91 inlet;
#X obj 133 138 t a b;
#X obj 164 167 f 1;
#X obj 131 230 t a b;
#X obj 129 274 f 0;
#X obj 76 298 outlet;
#X obj 243 84 inlet;
#X obj 243 107 bang;
#X obj 243 130 f 1;
#X text 50 42 once;
#X text 106 43 only the first message passes through;
#X text 71 73 message in;
#X text 71 325 message out (only once);
#X obj 76 115 route bang;
#X obj 76 138 t b b;
#X obj 76 198 spigot;
#X obj 76 230 t b b;
#X text 347 332 IEM KUG;
#X text 308 296 musil;
#X text 355 296 @;
#X text 369 295 iem.at;
#X text 268 273 (c) Thomas Musil 2000 - 2005;
#X text 335 344 Graz \, Austria;
#X text 397 251 @;
#X text 409 253 iem.at;
#X text 271 232 (c) zmoelnig;
#X text 242 65 reset;
#X connect 0 0 4 0;
#X connect 1 0 14 0;
#X connect 2 0 0 0;
#X connect 2 1 3 0;
#X connect 3 0 0 1;
#X connect 3 0 16 1;
#X connect 4 0 6 0;
#X connect 4 1 5 0;
#X connect 5 0 3 1;
#X connect 7 0 8 0;
#X connect 8 0 9 0;
#X connect 9 0 3 1;
#X connect 14 0 15 0;
#X connect 14 1 2 0;
#X connect 15 0 16 0;
#X connect 15 1 3 0;
#X connect 16 0 17 0;
#X connect 17 0 6 0;
#X connect 17 1 5 0;
#X restore 42 658 pd once;
#N canvas 593 672 355 664 rnd-dyn 0;
#X obj 119 515 line;
#X obj 119 491 pack;
#X floatatom 179 311 5 0 0 0 - - - 0;
#X obj 148 381 random;
#X obj 144 431 +;
#X floatatom 144 453 5 0 0 0 - - - 0;
#X floatatom 68 357 5 0 0 0 - - - 0;
#X obj 49 331 random;
#X obj 50 382 +;
#X floatatom 50 429 5 0 0 0 - - - 0;
#X obj 99 254 -;
#X floatatom 93 297 5 0 0 0 - - - 0;
#X obj 102 195 t b f;
#X obj 180 278 -;
#X obj 173 244 t b f;
#X floatatom 162 409 5 0 0 0 - - - 0;
#X obj 50 407 min 200;
#X obj 97 147 unpack f f f f;
#X obj 119 623 outlet;
#X obj 119 561 / 200;
#X obj 51 13 inlet;
#X obj 18 52 bng 15 250 50 0 empty empty empty 17 7 0 10 #fcfcfc #000000
#000000;
#X obj 139 599 hsl 128 15 0 1 0 0 empty empty empty -2 -8 0 10 #fcfcfc
#000000 #000000 0 1;
#X obj 196 565 s \$1-metro-bang;
#X obj 89 51 r \$1-metro-bang;
#X obj 51 82 t b b b b;
#X obj 197 513 delay;
#X obj 195 483 t b f;
#X obj 196 540 bng 15 250 50 0 empty empty empty 17 7 0 10 #fcfcfc
#000000 #000000;
#X msg 101 117 1 200 500 5000;
#X floatatom 177 623 5 0 0 0 - - - 0;
#X connect 0 0 19 0;
#X connect 1 0 0 0;
#X connect 2 0 3 1;
#X connect 3 0 4 0;
#X connect 4 0 5 0;
#X connect 5 0 1 1;
#X connect 5 0 27 0;
#X connect 6 0 8 1;
#X connect 7 0 8 0;
#X connect 8 0 16 0;
#X connect 9 0 1 0;
#X connect 10 0 11 0;
#X connect 11 0 7 1;
#X connect 12 0 10 0;
#X connect 12 1 10 1;
#X connect 13 0 2 0;
#X connect 14 0 13 0;
#X connect 14 1 13 1;
#X connect 15 0 4 1;
#X connect 16 0 9 0;
#X connect 17 0 12 0;
#X connect 17 0 6 0;
#X connect 17 1 10 0;
#X connect 17 2 14 0;
#X connect 17 2 15 0;
#X connect 17 3 13 0;
#X connect 19 0 18 0;
#X connect 19 0 22 0;
#X connect 20 0 25 0;
#X connect 21 0 25 0;
#X connect 22 0 30 0;
#X connect 24 0 25 0;
#X connect 25 1 7 0;
#X connect 25 2 3 0;
#X connect 25 3 29 0;
#X connect 26 0 28 0;
#X connect 27 0 26 0;
#X connect 27 1 26 1;
#X connect 28 0 23 0;
#X connect 29 0 17 0;
#X restore 42 686 pd rnd-dyn;
#X floatatom 42 710 5 0 0 0 - - - 0;
#X floatatom 112 755 6 0 0 0 - - - 0;
#X obj 23 733 *~;
#N canvas 656 741 405 447 expenv~ 0;
#X obj 62 183 vline~;
#X obj 169 184 vline~;
#X obj 170 255 pow~ 2;
#X obj 62 254 pow~ 0.7;
#X msg 62 141 1 \$1 \, 0 0 \$1;
#X msg 169 142 1 0 \$1 \, 0 \$3 \$1;
#X msg 116 220 \$2;
#X msg 209 226 \$4;
#X obj 63 39 inlet;
#X obj 62 312 outlet~;
#X connect 0 0 3 0;
#X connect 1 0 2 0;
#X connect 2 0 9 0;
#X connect 3 0 9 0;
#X connect 4 0 0 0;
#X connect 5 0 1 0;
#X connect 6 0 3 1;
#X connect 7 0 2 1;
#X connect 8 0 4 0;
#X connect 8 0 6 0;
#X connect 8 0 5 0;
#X connect 8 0 7 0;
#X restore 43 550 pd expenv~;
#X obj 782 145 pack f f f f;
#X obj 602 61 unpack f f f f f f f f f;
#X obj 23 616 *~;
#N canvas 341 396 287 285 loop-end 0;
#X obj 32 25 inlet~;
#N canvas 0 23 216 216 unsig~ 0;
#X obj 52 154 outlet;
#X obj 58 15 inlet~;
#X obj 57 101 snapshot~;
#X obj 73 73 metro 50;
#X obj 75 49 loadbang;
#X floatatom 53 129 5 0 0 0 - - - 0;
#X connect 1 0 2 0;
#X connect 2 0 5 0;
#X connect 3 0 2 0;
#X connect 4 0 3 0;
#X connect 5 0 0 0;
#X restore 32 60 pd unsig~;
#X text 115 60 get 0 to kill loop;
#X obj 32 225 outlet;
#X obj 35 92 hsl 128 15 0 1 0 0 empty empty empty -2 -8 0 10 #fcfcfc
#000000 #000000 0 1;
#X msg 32 193 0;
#X obj 32 167 sel 0;
#X obj 32 119 change;
#X obj 113 151 > 0;
#X obj 113 178 tgl 15 0 empty empty empty 17 7 0 10 #fcfcfc #000000
#000000 0 1;
#X obj 113 205 s \$2-loop-env;
#X connect 0 0 1 0;
#X connect 1 0 4 0;
#X connect 4 0 7 0;
#X connect 5 0 3 0;
#X connect 6 0 5 0;
#X connect 7 0 6 0;
#X connect 7 0 8 0;
#X connect 8 0 9 0;
#X connect 9 0 10 0;
#X restore 63 581 pd loop-end;
#X obj 27 114 * 0.8;
#X obj 372 398 delay 5;
#X obj 24 17 array define \$0-array;
#X obj 48 163 s \$0-array;
#X obj 28 187 s \$0-smp;
#X obj 137 152 r \$0-smp;
#X obj 95 216 r \$0-base-time;
#X obj 24 246 r \$0-play;
#X obj 123 241 r \$0-semi;
#X obj 42 324 r \$0-start;
#X obj 57 351 r \$0-end;
#X obj 24 450 tabread4~ \$0-array;
#X obj 226 444 r \$0-loop;
#X obj 230 504 s \$0-play;
#X obj 269 256 tabwrite~ \$0-array;
#X obj 344 61 delay 775;
#X text 445 168 wegen env;
#X obj 450 356 s \$0-env;
#X obj 43 521 r \$0-env;
#X obj 449 385 symbol \$0-array;
#X obj 657 243 r \$0-smp;
#X obj 748 241 r \$0-smp;
#X obj 826 315 s \$0-semi;
#X obj 638 368 s \$0-start;
#X obj 730 368 s \$0-end;
#X obj 639 560 s \$0-base-time;
#X obj 779 558 s \$0-duration;
#X obj 372 424 s \$0-loop;
#X obj 639 405 r \$0-duration;
#X obj 778 402 r \$0-end;
#X obj 790 425 r \$0-start;
#X text 358 23 rec dur immer 800 mecs \; resize macht klicks \, wenn
jedes mal;
#X floatatom 232 98 5 0 0 0 - - - 0;
#X obj 232 74 env~;
#X obj 272 33 r~ \$2-sig-in;
#X connect 0 0 81 0;
#X connect 1 0 0 0;
#X connect 2 0 9 0;
#X connect 3 0 4 0;
#X connect 3 1 4 1;
#X connect 4 0 9 2;
#X connect 5 0 53 0;
#X connect 5 1 50 0;
#X connect 6 0 84 0;
#X connect 7 0 70 0;
#X connect 8 0 73 0;
#X connect 9 0 1 0;
#X connect 10 0 42 0;
#X connect 10 0 83 0;
#X connect 14 0 7 0;
#X connect 15 0 84 0;
#X connect 16 0 15 1;
#X connect 16 1 5 0;
#X connect 18 0 19 0;
#X connect 19 0 92 0;
#X connect 20 0 18 0;
#X connect 21 0 20 0;
#X connect 22 0 26 0;
#X connect 23 0 93 0;
#X connect 24 0 96 0;
#X connect 25 0 10 1;
#X connect 25 0 95 0;
#X connect 26 0 23 0;
#X connect 27 0 22 0;
#X connect 28 0 31 0;
#X connect 29 0 30 1;
#X connect 30 0 25 0;
#X connect 31 0 33 0;
#X connect 32 0 94 0;
#X connect 33 0 32 0;
#X connect 34 0 35 0;
#X connect 35 0 24 0;
#X connect 36 0 34 0;
#X connect 36 1 34 1;
#X connect 37 0 29 0;
#X connect 38 0 30 0;
#X connect 38 1 37 0;
#X connect 39 0 22 0;
#X connect 39 1 22 1;
#X connect 40 0 31 0;
#X connect 40 1 31 1;
#X connect 41 0 67 0;
#X connect 43 0 16 0;
#X connect 44 0 16 0;
#X connect 45 0 71 0;
#X connect 45 1 89 0;
#X connect 47 0 87 0;
#X connect 48 0 44 0;
#X connect 48 0 85 0;
#X connect 48 1 27 0;
#X connect 49 0 45 0;
#X connect 49 1 6 0;
#X connect 50 0 49 0;
#X connect 52 0 2 0;
#X connect 52 1 4 0;
#X connect 52 2 60 0;
#X connect 53 0 84 0;
#X connect 55 0 68 0;
#X connect 56 0 63 0;
#X connect 57 0 58 0;
#X connect 57 1 59 0;
#X connect 60 0 56 0;
#X connect 60 0 61 0;
#X connect 61 0 62 0;
#X connect 62 0 64 1;
#X connect 63 0 57 1;
#X connect 64 0 57 0;
#X connect 65 0 68 1;
#X connect 65 0 69 0;
#X connect 66 0 47 1;
#X connect 67 0 48 0;
#X connect 67 1 28 0;
#X connect 67 2 21 0;
#X connect 67 3 55 1;
#X connect 67 4 55 2;
#X connect 67 5 66 0;
#X connect 67 6 66 1;
#X connect 67 7 66 2;
#X connect 67 8 66 3;
#X connect 68 0 64 0;
#X connect 69 0 10 0;
#X connect 70 0 8 0;
#X connect 70 0 74 0;
#X connect 71 0 47 0;
#X connect 71 0 97 0;
#X connect 75 0 11 0;
#X connect 76 0 4 0;
#X connect 77 0 52 0;
#X connect 78 0 3 0;
#X connect 79 0 2 1;
#X connect 80 0 9 1;
#X connect 81 0 55 0;
#X connect 82 0 10 0;
#X connect 85 0 43 0;
#X connect 88 0 65 0;
#X connect 89 0 13 0;
#X connect 90 0 39 0;
#X connect 91 0 40 0;
#X connect 98 0 38 0;
#X connect 99 0 34 0;
#X connect 100 0 36 0;
#X connect 103 0 102 0;
#X connect 104 0 15 0;
#X connect 104 0 103 0;
