#N canvas 590 146 842 679 12;
#X text 56 83 r = reset to first line;
#X obj 414 580 r #;
#X text 410 555 for comments;
#X text 411 536 recieve dummy;
#X obj 252 392 qlist;
#N canvas 559 74 395 475 line-in-qlist 0;
#X obj 169 201 f 0;
#X obj 243 200 + 1;
#X msg 239 157 0;
#X obj 98 289 spigot;
#X obj 168 243 <;
#X obj 169 290 sel 0;
#N canvas 577 108 470 320 fastmetro 0;
#X obj 101 104 select 0 1;
#X obj 101 53 inlet;
#X obj 101 78 t a a;
#X msg 101 126 stop;
#X obj 100 256 outlet;
#X text 85 24 like [metro] \, only faster;
#X obj 100 212 t b b;
#X obj 130 232 del 0;
#X obj 100 155 del;
#X obj 100 188 spigot;
#X obj 221 126 max 0.01;
#X obj 221 83 loadbang;
#X connect 0 0 3 0;
#X connect 0 1 8 0;
#X connect 1 0 2 0;
#X connect 2 0 0 0;
#X connect 2 1 9 1;
#X connect 3 0 8 0;
#X connect 6 0 4 0;
#X connect 6 1 7 0;
#X connect 7 0 8 0;
#X connect 8 0 9 0;
#X connect 9 0 6 0;
#X connect 10 0 8 1;
#X connect 11 0 10 0;
#X restore 98 144 pd fastmetro;
#X obj 98 419 outlet;
#X obj 98 9 inlet;
#X msg 98 82 1;
#X obj 98 114 tgl 15 0 empty empty empty 0 -6 0 10 #fcfcfc #000000 #000000 0 1;
#X obj 98 46 t b f b;
#X obj 308 160 outlet;
#X msg 98 349 next 1;
#X msg 179 348 next;
#X msg 309 129 rewind;
#X obj 308 11 inlet;
#X obj 198 115 + 1;
#X connect 0 0 1 0;
#X connect 0 0 4 0;
#X connect 1 0 0 1;
#X connect 2 0 0 1;
#X connect 3 0 13 0;
#X connect 4 0 3 1;
#X connect 4 0 5 0;
#X connect 5 0 2 0;
#X connect 5 0 10 0;
#X connect 5 0 14 0;
#X connect 6 0 3 0;
#X connect 6 0 0 0;
#X connect 8 0 11 0;
#X connect 9 0 10 0;
#X connect 10 0 6 0;
#X connect 11 0 9 0;
#X connect 11 1 17 0;
#X connect 11 2 15 0;
#X connect 13 0 7 0;
#X connect 14 0 7 0;
#X connect 15 0 12 0;
#X connect 16 0 15 0;
#X connect 17 0 4 1;
#X restore 82 630 pd line-in-qlist;
#N canvas 14 170 431 724 keystepper 0;
#X text 84 44 r = reset to first line;
#X obj 156 611 f;
#X obj 174 144 key;
#X obj 233 610 +;
#X obj 197 390 sel 114 32 8;
#X obj 58 435 inlet;
#X msg 224 434 1;
#X msg 285 434 -1;
#X msg 139 433 0;
#X obj 223 467 t b a;
#X obj 284 467 t b a;
#X obj 141 467 t b a b;
#X msg 217 564 1;
#X obj 58 468 t b f b;
#X obj 249 347 inlet;
#X floatatom 174 188 5 0 0 0 - - - 0;
#X obj 218 143 key;
#X obj 218 172 - 48;
#X obj 197 346 *;
#X obj 218 256 ==;
#X obj 219 200 t b f;
#X obj 218 224 f \$1;
#X floatatom 218 280 5 0 0 0 - - - 0;
#X obj 219 311 t b f;
#X text 82 70 shift - space -> \$1 = 1 line forward;
#X text 82 93 shift - backspace -> \$1 = 1 line backward;
#X obj 156 668 outlet;
#X floatatom 156 641 5 0 0 0 - - - 0;
#X connect 1 0 3 0;
#X connect 1 0 27 0;
#X connect 2 0 15 0;
#X connect 3 0 1 1;
#X connect 4 0 8 0;
#X connect 4 1 6 0;
#X connect 4 2 7 0;
#X connect 5 0 13 0;
#X connect 6 0 9 0;
#X connect 7 0 10 0;
#X connect 8 0 11 0;
#X connect 9 0 1 0;
#X connect 9 1 3 1;
#X connect 10 0 1 0;
#X connect 10 1 3 1;
#X connect 11 0 1 0;
#X connect 11 1 1 1;
#X connect 11 2 12 0;
#X connect 12 0 3 1;
#X connect 13 0 1 0;
#X connect 13 1 1 1;
#X connect 13 2 12 0;
#X connect 14 0 4 0;
#X connect 15 0 18 0;
#X connect 16 0 17 0;
#X connect 17 0 20 0;
#X connect 18 0 4 0;
#X connect 19 0 22 0;
#X connect 20 0 21 0;
#X connect 20 1 19 1;
#X connect 21 0 19 0;
#X connect 22 0 23 0;
#X connect 23 0 18 0;
#X connect 23 1 18 1;
#X connect 27 0 26 0;
#X restore 82 571 pd keystepper;
#X obj 253 323 makefilename %s;
#X obj 165 175 loadbang;
#X msg 252 355 read \$1;
#X obj 252 234 sel 113;
#X msg 166 294 114;
#X obj 166 202 t b b;
#X obj 254 178 key;
#X floatatom 253 207 5 0 0 1 - - - 0;
#X obj 252 294 symbol \$2;
#X obj 84 295 pgmin \$3;
#X text 56 105 q = read qlist file;
#X text 198 294 "r";
#X text 57 34 shift - space -> \$1 = 1 line forward;
#X text 57 57 shift - backspace -> \$1 = 1 line backward;
#X obj 83 477 s \$1-setq-in;
#X obj 95 175 key;
#X floatatom 95 204 5 0 0 1 - - - 0;
#X obj 95 230 sel 114;
#X obj 82 507 r \$1-setq-out;
#X text 312 234 "q";
#X floatatom 82 599 5 0 0 0 - - - 0;
#X obj 411 131 t a b;
#X obj 443 163 s \$1-param-bang;
#X obj 441 76 s sel-pitch;
#X obj 411 41 r \$1-sel-pitch;
#N canvas 1307 697 205 257 show 1;
#X obj 35 189 cnv 15 100 20 empty 1-cue-param track_freq 10 12 0 12 #dcdcdc #000000 0;
#X msg 34 124 label \$1;
#X obj 34 63 symbol \$1;
#X obj 34 95 makefilename %s;
#X msg 34 29 track_freq;
#X obj 34 156 s \$1-cue-param;
#X connect 1 0 5 0;
#X connect 2 0 3 0;
#X connect 3 0 1 0;
#X connect 4 0 2 0;
#X restore 440 103 pd show;
#X obj 410 433 r \$1-mdly-param;
#X obj 410 344 s \$1-param-drone;
#X obj 410 468 s \$1-param-mdly;
#X msg 644 514 color \$1 \$1 0;
#X obj 644 550 s \$1-loop-tgl-in;
#X obj 643 481 * 19;
#X obj 644 427 r \$1-loop-env;
#X obj 643 456 tgl 15 0 empty empty empty 17 7 0 10 #fcfcfc #000000 #000000 0 1;
#X obj 448 214 list split 1;
#N canvas 236 281 489 475 freqtoname 0;
#X msg 283 252 A;
#X msg 343 252 B;
#X msg 10 252 C;
#X msg 73 252 D;
#X msg 133 252 E;
#X obj 389 253 t b f;
#X symbolatom 175 408 10 0 0 0 - - - 0;
#X obj 175 362 pack s f;
#X obj 76 192 select 0 1 2 3 4 5 6 7 8 9 10 11;
#X obj 76 168 mod 12;
#X msg 161 252 F;
#X msg 225 252 G;
#X obj 387 190 / 12;
#X msg 43 252 C#;
#X msg 102 252 Eb;
#X msg 194 252 F#;
#X msg 254 252 G#;
#X msg 313 252 Bb;
#X obj 421 280 - 1;
#X obj 76 27 inlet;
#X obj 175 431 outlet;
#X obj 76 142 t f f;
#X text 249 406 <-- MIDI note name;
#X msg 175 385 symbol \$1\$2;
#X obj 76 83 ftom;
#X obj 387 223 int;
#X floatatom 76 112 5 0 127 0 - - - 0;
#X text 115 110 <-- MIDI number;
#X floatatom 76 51 5 0 0 0 - - - 0;
#X text 120 52 <-- Frequency (Hz);
#X connect 0 0 7 0;
#X connect 1 0 7 0;
#X connect 2 0 7 0;
#X connect 3 0 7 0;
#X connect 4 0 7 0;
#X connect 5 0 7 0;
#X connect 5 1 18 0;
#X connect 6 0 20 0;
#X connect 7 0 23 0;
#X connect 8 0 2 0;
#X connect 8 1 13 0;
#X connect 8 2 3 0;
#X connect 8 3 14 0;
#X connect 8 4 4 0;
#X connect 8 5 10 0;
#X connect 8 6 15 0;
#X connect 8 7 11 0;
#X connect 8 8 16 0;
#X connect 8 9 0 0;
#X connect 8 10 17 0;
#X connect 8 11 1 0;
#X connect 9 0 8 0;
#X connect 10 0 7 0;
#X connect 11 0 7 0;
#X connect 12 0 25 0;
#X connect 13 0 7 0;
#X connect 14 0 7 0;
#X connect 15 0 7 0;
#X connect 16 0 7 0;
#X connect 17 0 7 0;
#X connect 18 0 7 1;
#X connect 19 0 28 0;
#X connect 21 0 9 0;
#X connect 21 1 12 0;
#X connect 23 0 6 0;
#X connect 24 0 26 0;
#X connect 25 0 5 0;
#X connect 26 0 21 0;
#X connect 28 0 24 0;
#X restore 488 284 pd freqtoname;
#X obj 488 317 s \$1-freq2note;
#X floatatom 487 251 10 0 0 0 - - - 0;
#X msg 53 341 127;
#X msg 91 341 128;
#X msg 127 341 1;
#X obj 83 441 - 1;
#X obj 84 392 + 1;
#X obj 84 416 mod 128;
#X obj 82 538 + 1;
#X connect 4 1 5 1;
#X connect 5 0 4 0;
#X connect 5 1 4 0;
#X connect 6 0 27 0;
#X connect 7 0 9 0;
#X connect 8 0 12 0;
#X connect 9 0 4 0;
#X connect 10 0 15 0;
#X connect 11 0 6 1;
#X connect 12 0 11 0;
#X connect 12 1 15 0;
#X connect 13 0 14 0;
#X connect 14 0 10 0;
#X connect 15 0 7 0;
#X connect 16 0 49 0;
#X connect 22 0 23 0;
#X connect 23 0 24 0;
#X connect 24 0 11 0;
#X connect 25 0 51 0;
#X connect 27 0 5 0;
#X connect 28 0 34 0;
#X connect 28 0 41 0;
#X connect 28 1 29 0;
#X connect 31 0 28 0;
#X connect 31 0 30 0;
#X connect 33 0 35 0;
#X connect 36 0 37 0;
#X connect 38 0 36 0;
#X connect 39 0 40 0;
#X connect 40 0 38 0;
#X connect 41 1 44 0;
#X connect 42 0 43 0;
#X connect 44 0 42 0;
#X connect 45 0 49 0;
#X connect 46 0 49 0;
#X connect 47 0 49 0;
#X connect 48 0 21 0;
#X connect 49 0 50 0;
#X connect 50 0 48 0;
#X connect 51 0 6 0;
