#N canvas 1701 637 299 371 12;
#X obj 207 245 line~;
#X obj 189 280 *~;
#N canvas 822 273 532 584 dly-deviation 0;
#X obj 123 124 inlet;
#X obj 125 363 random;
#X obj 182 245 *;
#X floatatom 177 272 5 0 0 0 - - - 0;
#X obj 125 441 +;
#X obj 125 393 -;
#X obj 209 327 / 2;
#X floatatom 209 356 5 0 0 0 - - - 0;
#X floatatom 125 417 5 0 0 0 - - - 0;
#X floatatom 125 465 5 0 0 0 - - - 0;
#X text 263 123 3000 1 = 1500 - 4500 \; 3000 0.5 = 2250 - 3750 \; 3000
0 = 3000;
#X msg 264 37 3000 0.5;
#X obj 177 301 t f f;
#X obj 125 488 outlet;
#X obj 122 193 t b f;
#X obj 201 123 inlet;
#X obj 264 61 unpack;
#X connect 0 0 14 0;
#X connect 1 0 5 0;
#X connect 2 0 3 0;
#X connect 3 0 12 0;
#X connect 4 0 9 0;
#X connect 5 0 8 0;
#X connect 6 0 7 0;
#X connect 7 0 5 1;
#X connect 8 0 4 0;
#X connect 9 0 13 0;
#X connect 11 0 16 0;
#X connect 12 0 1 1;
#X connect 12 1 6 0;
#X connect 14 0 1 0;
#X connect 14 1 4 1;
#X connect 14 1 2 0;
#X connect 15 0 2 1;
#X connect 16 0 14 0;
#X connect 16 1 2 1;
#X restore 82 111 pd dly-deviation;
#X obj 34 332 delwrite~ \$0-dly 5000;
#X msg 207 218 \$1 50;
#X msg 82 161 \$1 50;
#X obj 82 190 line;
#X obj 82 217 delread4~ \$0-dly;
#X obj 151 42 unpack f f f;
#X floatatom 82 135 5 0 0 0 - - - 0;
#X obj 34 25 inlet~;
#X obj 194 332 outlet~;
#X floatatom 82 84 5 0 0 0 - - - 0;
#X floatatom 191 81 5 0 0 0 - - - 0;
#X floatatom 232 81 5 0 0 0 - - - 0;
#X obj 151 17 r \$2-\$3-dly-param;
#X connect 0 0 1 1;
#X connect 1 0 3 0;
#X connect 2 0 9 0;
#X connect 4 0 0 0;
#X connect 5 0 6 0;
#X connect 6 0 7 0;
#X connect 7 0 1 0;
#X connect 7 0 11 0;
#X connect 8 0 12 0;
#X connect 8 1 13 0;
#X connect 8 2 14 0;
#X connect 9 0 5 0;
#X connect 10 0 3 0;
#X connect 12 0 2 0;
#X connect 13 0 2 1;
#X connect 14 0 4 0;
#X connect 15 0 8 0;
