#N canvas 1007 535 504 538 10;
#X obj 73 52 inlet;
#X obj 93 260 until;
#X obj 93 312 f;
#X obj 123 314 + 1;
#X obj 93 334 t f f f;
#X obj 151 382 i;
#X obj 151 404 * 25;
#X obj 112 380 * 150;
#X obj 151 360 / 6;
#X obj 112 358 % 6;
#X obj 113 135 f \$1;
#X obj 93 234 t f b;
#X msg 108 286 1;
#X obj 95 443 pack f f f \$1 \$2;
#X msg 95 473 \; pd-\$4-\$5-filter-pool obj \$2 \$3 vcf-noisefilter
\$4 \$5 \$1 \;;
#X msg 125 186 \; pd-\$1-\$2-filter-pool clear \;, f 29;
#X obj 154 135 f \$2;
#X obj 125 164 pack;
#X obj 74 80 t f b b;
#X connect 0 0 18 0;
#X connect 1 0 2 0;
#X connect 2 0 3 0;
#X connect 2 0 4 0;
#X connect 3 0 2 1;
#X connect 4 0 13 0;
#X connect 4 1 9 0;
#X connect 4 2 8 0;
#X connect 5 0 6 0;
#X connect 6 0 13 2;
#X connect 7 0 13 1;
#X connect 8 0 5 0;
#X connect 9 0 7 0;
#X connect 10 0 17 0;
#X connect 11 0 1 0;
#X connect 11 1 12 0;
#X connect 12 0 2 1;
#X connect 13 0 14 0;
#X connect 16 0 17 1;
#X connect 17 0 15 0;
#X connect 18 0 11 0;
#X connect 18 1 10 0;
#X connect 18 2 16 0;
