#N canvas 658 227 356 664 12;
#X obj 23 351 *~;
#X obj 23 296 hip~ 5;
#X text 153 422 -> vu-meter;
#X text 165 325 <- gain slider;
#N canvas 977 337 675 687 pitch-tracking 0;
#N canvas 187 131 243 425 range 0;
#X obj 33 25 inlet~;
#X obj 31 333 outlet~;
#X obj 33 154 hip~;
#X obj 88 80 mtof;
#X obj 33 179 hip~;
#X obj 101 193 mtof;
#X obj 33 286 lop~;
#X obj 33 311 lop~;
#X obj 89 25 r init;
#X msg 88 51 21;
#X msg 101 165 105;
#X floatatom 88 106 5 0 0 0 - - - 0;
#X floatatom 101 221 5 0 0 0 - - - 0;
#X text 31 361 tracking/analysis-range \; 27.5-3520 Hz;
#X connect 0 0 2 0;
#X connect 2 0 4 0;
#X connect 3 0 11 0;
#X connect 4 0 6 0;
#X connect 5 0 12 0;
#X connect 6 0 7 0;
#X connect 7 0 1 0;
#X connect 8 0 9 0;
#X connect 8 0 10 0;
#X connect 9 0 3 0;
#X connect 10 0 5 0;
#X connect 11 0 2 1;
#X connect 11 0 4 1;
#X connect 12 0 6 1;
#X connect 12 0 7 1;
#X restore 49 44 pd range sig~;
#X obj 49 16 inlet~;
#X obj 50 220 mtof;
#X floatatom 50 245 5 0 0 0 - - - 0;
#X obj 128 241 change;
#X obj 127 266 bng 15 250 50 0 empty empty empty 17 7 0 10 #fcfcfc
#000000 #000000;
#X obj 288 390 f;
#X obj 305 212 unpack;
#X obj 305 186 route 0;
#X obj 156 469 f;
#N canvas 126 632 252 184 guilabel 0;
#X msg 43 107 label \$1;
#X obj 43 26 inlet;
#X obj 43 132 outlet;
#N canvas 371 178 187 217 round 0;
#X msg 107 79 10;
#X obj 107 56 loadbang;
#X obj 27 84 * 1;
#X obj 27 19 inlet;
#X obj 68 131 / 1;
#X msg 68 109 1;
#X obj 27 109 + 0.5;
#X obj 27 134 div;
#X obj 27 181 outlet;
#X obj 27 157 * 1;
#X obj 107 102 pow 2;
#X obj 27 45 t f b;
#X connect 0 0 10 0;
#X connect 1 0 0 0;
#X connect 2 0 6 0;
#X connect 3 0 11 0;
#X connect 4 0 9 1;
#X connect 5 0 4 0;
#X connect 6 0 7 0;
#X connect 7 0 9 0;
#X connect 9 0 8 0;
#X connect 10 0 2 1;
#X connect 10 0 4 1;
#X connect 10 0 5 0;
#X connect 11 0 2 0;
#X connect 11 1 0 0;
#X restore 43 53 pd round;
#X obj 43 79 makefilename freq1:%s;
#X connect 0 0 2 0;
#X connect 1 0 3 0;
#X connect 3 0 4 0;
#X connect 4 0 0 0;
#X restore 190 415 pd guilabel;
#N canvas 320 373 332 191 different 0;
#X floatatom 32 118 5 0 0 0 - - - 0;
#X obj 32 93 unpack;
#X obj 35 37 sigmund~ -maxfreq 3600 -npeak 2 peaks;
#X obj 33 142 s trackedFrq1;
#X obj 35 65 route 0 1;
#X floatatom 141 119 5 0 0 0 - - - 0;
#X obj 141 94 unpack;
#X obj 141 141 s trackedFrq2;
#X connect 0 0 3 0;
#X connect 1 0 0 0;
#X connect 2 0 4 0;
#X connect 4 0 1 0;
#X connect 4 1 6 0;
#X connect 5 0 7 0;
#X connect 6 0 5 0;
#X restore 168 41 pd different tracking;
#X floatatom 306 238 5 0 0 0 - - - 0;
#X obj 48 503 outlet;
#X obj 287 500 outlet;
#N canvas 126 632 252 184 guilabel 0;
#X msg 43 107 label \$1;
#X obj 43 26 inlet;
#X obj 43 132 outlet;
#N canvas 371 178 187 217 round 0;
#X msg 107 79 10;
#X obj 107 56 loadbang;
#X obj 27 84 * 1;
#X obj 27 19 inlet;
#X obj 68 131 / 1;
#X msg 68 109 1;
#X obj 27 109 + 0.5;
#X obj 27 134 div;
#X obj 27 181 outlet;
#X obj 27 157 * 1;
#X obj 107 102 pow 2;
#X obj 27 45 t f b;
#X connect 0 0 10 0;
#X connect 1 0 0 0;
#X connect 2 0 6 0;
#X connect 3 0 11 0;
#X connect 4 0 9 1;
#X connect 5 0 4 0;
#X connect 6 0 7 0;
#X connect 7 0 9 0;
#X connect 9 0 8 0;
#X connect 10 0 2 1;
#X connect 10 0 4 1;
#X connect 10 0 5 0;
#X connect 11 0 2 0;
#X connect 11 1 0 0;
#X restore 43 53 pd round;
#X obj 43 79 makefilename freq2:%s;
#X connect 0 0 2 0;
#X connect 1 0 3 0;
#X connect 3 0 4 0;
#X connect 4 0 0 0;
#X restore 303 448 pd guilabel;
#X obj 305 161 sigmund~ -maxfreq 3520 -hop 8192 -npeak 1 peaks;
#N canvas 47 74 431 375 timed_gate 0;
#X obj 76 52 loadbang;
#X obj 160 26 inlet;
#X obj 43 25 inlet;
#X obj 146 169 sel 1;
#X msg 146 194 0;
#X msg 174 194 1;
#X obj 77 181 f 1;
#X obj 43 245 spigot;
#X obj 160 126 delay;
#X obj 192 99 f \$1;
#X obj 69 304 outlet;
#X obj 42 272 t b a;
#X text 35 337 (c) Achim Bornhoeft 2011;
#X connect 0 0 9 0;
#X connect 0 0 6 0;
#X connect 1 0 8 0;
#X connect 2 0 7 0;
#X connect 3 0 4 0;
#X connect 3 1 5 0;
#X connect 4 0 6 1;
#X connect 5 0 6 1;
#X connect 6 0 3 0;
#X connect 6 0 7 1;
#X connect 7 0 11 0;
#X connect 8 0 6 0;
#X connect 9 0 8 1;
#X connect 11 0 8 0;
#X connect 11 0 6 0;
#X connect 11 1 10 0;
#X restore 50 187 pd timed_gate;
#X obj 49 119 t f b;
#X msg 138 160 200;
#X obj 50 75 sigmund~ -npts 512 -hop 8192 -minpower 50 -stabletime
50 -growth 3 notes;
#X obj 159 298 s freq-trg-in-\$1;
#X obj 158 326 r freq-trg-out-\$1;
#X obj 176 391 s freq1-in-\$1;
#X obj 174 438 r freq1-out-\$1;
#X obj 289 424 s freq2-in-\$1;
#X obj 287 471 r freq2-out-\$1;
#X obj 125 502 s freq-trig-\$1;
#X connect 0 0 16 0;
#X connect 0 0 20 0;
#X connect 1 0 0 0;
#X connect 2 0 3 0;
#X connect 3 0 13 0;
#X connect 3 0 4 0;
#X connect 4 0 5 0;
#X connect 5 0 21 0;
#X connect 5 0 27 0;
#X connect 6 0 25 0;
#X connect 7 0 12 0;
#X connect 8 0 7 0;
#X connect 10 0 23 0;
#X connect 12 0 6 1;
#X connect 15 0 25 0;
#X connect 16 0 8 0;
#X connect 17 0 2 0;
#X connect 18 0 17 0;
#X connect 18 1 19 0;
#X connect 19 0 17 1;
#X connect 20 0 18 0;
#X connect 22 0 9 0;
#X connect 22 0 6 0;
#X connect 24 0 9 1;
#X connect 24 0 10 0;
#X connect 26 0 15 0;
#X connect 26 0 14 0;
#X restore 24 589 pd pitch-tracking;
#N canvas 804 215 234 347 vu-meter 0;
#X floatatom 81 206 5 0 0 0 - - - 0;
#X obj 81 177 max;
#X msg 99 149 0, f 2;
#X obj 26 265 pack f f;
#X obj 99 106 metro \$1;
#X obj 98 47 t b b;
#X msg 152 78 5000;
#X obj 26 296 outlet vu-meter;
#X obj 26 236 - 100;
#X obj 79 235 - 100;
#X obj 98 17 r init;
#X obj 25 105 env~ 2048;
#X obj 24 16 inlet~;
#X obj 141 213 r vu-0;
#X msg 140 239 -100 -100;
#X connect 0 0 1 1;
#X connect 0 0 9 0;
#X connect 1 0 0 0;
#X connect 2 0 1 1;
#X connect 3 0 7 0;
#X connect 4 0 2 0;
#X connect 5 0 4 0;
#X connect 5 1 6 0;
#X connect 6 0 4 1;
#X connect 8 0 3 0;
#X connect 9 0 3 1;
#X connect 10 0 5 0;
#X connect 11 0 1 0;
#X connect 11 0 8 0;
#X connect 12 0 11 0;
#X connect 13 0 14 0;
#X connect 14 0 7 0;
#X restore 67 421 pd vu-meter;
#X text 134 476 -> env-meter;
#X obj 38 535 threshold~ 55 100 50 100;
#N canvas 985 329 495 317 threshold 0;
#N canvas 126 632 267 190 guilabel 0;
#X msg 43 107 label \$1;
#X obj 43 26 inlet;
#X obj 43 132 outlet;
#N canvas 371 178 187 217 round 0;
#X msg 107 79 10;
#X obj 107 56 loadbang;
#X obj 27 84 * 1;
#X obj 27 19 inlet;
#X obj 68 131 / 1;
#X msg 68 109 1;
#X obj 27 109 + 0.5;
#X obj 27 134 div;
#X obj 27 181 outlet;
#X obj 27 157 * 1;
#X obj 107 102 pow 2;
#X obj 27 45 t f b;
#X connect 0 0 10 0;
#X connect 1 0 0 0;
#X connect 2 0 6 0;
#X connect 3 0 11 0;
#X connect 4 0 9 1;
#X connect 5 0 4 0;
#X connect 6 0 7 0;
#X connect 7 0 9 0;
#X connect 9 0 8 0;
#X connect 10 0 2 1;
#X connect 10 0 4 1;
#X connect 10 0 5 0;
#X connect 11 0 2 0;
#X connect 11 1 0 0;
#X restore 43 53 pd round;
#X obj 44 79 makefilename thres-high:%s;
#X connect 0 0 2 0;
#X connect 1 0 3 0;
#X connect 3 0 4 0;
#X connect 4 0 0 0;
#X restore 78 67 pd guilabel;
#N canvas 126 632 247 190 guilabel 0;
#X msg 43 107 label \$1;
#X obj 43 26 inlet;
#X obj 43 132 outlet;
#N canvas 371 178 187 217 round 0;
#X msg 107 79 10;
#X obj 107 56 loadbang;
#X obj 27 84 * 1;
#X obj 27 19 inlet;
#X obj 68 131 / 1;
#X msg 68 109 1;
#X obj 27 109 + 0.5;
#X obj 27 134 div;
#X obj 27 181 outlet;
#X obj 27 157 * 1;
#X obj 107 102 pow 2;
#X obj 27 45 t f b;
#X connect 0 0 10 0;
#X connect 1 0 0 0;
#X connect 2 0 6 0;
#X connect 3 0 11 0;
#X connect 4 0 9 1;
#X connect 5 0 4 0;
#X connect 6 0 7 0;
#X connect 7 0 9 0;
#X connect 9 0 8 0;
#X connect 10 0 2 1;
#X connect 10 0 4 1;
#X connect 10 0 5 0;
#X connect 11 0 2 0;
#X connect 11 1 0 0;
#X restore 43 53 pd round;
#X obj 43 79 makefilename thres-low:%s;
#X connect 0 0 2 0;
#X connect 1 0 3 0;
#X connect 3 0 4 0;
#X connect 4 0 0 0;
#X restore 227 69 pd guilabel;
#N canvas 126 632 336 211 guilabel 0;
#X msg 43 107 label \$1;
#X obj 43 26 inlet;
#X obj 43 132 outlet;
#N canvas 371 178 187 217 round 0;
#X msg 107 79 10;
#X obj 107 56 loadbang;
#X obj 27 84 * 1;
#X obj 27 19 inlet;
#X obj 68 131 / 1;
#X msg 68 109 1;
#X obj 27 109 + 0.5;
#X obj 27 134 div;
#X obj 27 181 outlet;
#X obj 27 157 * 1;
#X obj 107 102 pow 2;
#X obj 27 45 t f b;
#X connect 0 0 10 0;
#X connect 1 0 0 0;
#X connect 2 0 6 0;
#X connect 3 0 11 0;
#X connect 4 0 9 1;
#X connect 5 0 4 0;
#X connect 6 0 7 0;
#X connect 7 0 9 0;
#X connect 9 0 8 0;
#X connect 10 0 2 1;
#X connect 10 0 4 1;
#X connect 10 0 5 0;
#X connect 11 0 2 0;
#X connect 11 1 0 0;
#X restore 43 53 pd round;
#X obj 43 79 makefilename retrig-time:%s;
#X connect 0 0 2 0;
#X connect 1 0 3 0;
#X connect 3 0 4 0;
#X connect 4 0 0 0;
#X restore 356 69 pd guilabel;
#X floatatom 34 129 5 0 0 0 - - - 0;
#X floatatom 190 126 5 0 0 0 - - - 0;
#X floatatom 337 117 5 0 0 0 - - - 0;
#X obj 86 211 pack f f f;
#X obj 190 149 t b f;
#X obj 337 140 t b f;
#X msg 86 235 set \$1 \$3 \$2 \$3;
#X obj 86 259 outlet;
#X obj 37 43 s thres-high-in-\$1;
#X obj 35 92 r thres-high-out-\$1;
#X obj 193 43 s thres-low-in-\$1;
#X obj 191 92 r thres-low-out-\$1;
#X obj 339 44 s retrig-time-in-\$1;
#X obj 338 92 r retrig-time-out-\$1;
#X connect 0 0 11 0;
#X connect 1 0 13 0;
#X connect 2 0 15 0;
#X connect 3 0 6 0;
#X connect 4 0 7 0;
#X connect 5 0 8 0;
#X connect 6 0 9 0;
#X connect 7 0 6 0;
#X connect 7 1 6 1;
#X connect 8 0 6 0;
#X connect 8 1 6 2;
#X connect 9 0 10 0;
#X connect 12 0 0 0;
#X connect 12 0 3 0;
#X connect 14 0 1 0;
#X connect 14 0 4 0;
#X connect 16 0 2 0;
#X connect 16 0 5 0;
#X restore 56 501 pd threshold;
#N canvas 1181 517 223 214 env-meter 0;
#N canvas 126 632 267 195 guilabel 0;
#X msg 43 107 label \$1;
#X obj 43 26 inlet;
#X obj 43 132 outlet;
#X obj 43 79 makefilename %s;
#N canvas 371 178 187 217 round 0;
#X msg 107 79 10;
#X obj 107 56 loadbang;
#X obj 27 84 * 1;
#X obj 27 19 inlet;
#X obj 68 131 / 1;
#X msg 68 109 1;
#X obj 27 109 + 0.5;
#X obj 27 134 div;
#X obj 27 181 outlet;
#X obj 27 157 * 1;
#X obj 107 102 pow 2;
#X obj 27 45 t f b;
#X connect 0 0 10 0;
#X connect 1 0 0 0;
#X connect 2 0 6 0;
#X connect 3 0 11 0;
#X connect 4 0 9 1;
#X connect 5 0 4 0;
#X connect 6 0 7 0;
#X connect 7 0 9 0;
#X connect 9 0 8 0;
#X connect 10 0 2 1;
#X connect 10 0 4 1;
#X connect 10 0 5 0;
#X connect 11 0 2 0;
#X connect 11 1 0 0;
#X restore 43 53 pd round;
#X connect 0 0 2 0;
#X connect 1 0 4 0;
#X connect 3 0 0 0;
#X connect 4 0 3 0;
#X restore 49 115 pd guilabel;
#X obj 36 29 inlet~;
#X obj 36 59 env~ 8192;
#X obj 34 169 outlet;
#X obj 36 90 s env-meter-in-\$1;
#X obj 34 139 r env-meter-out-\$1;
#X connect 0 0 4 0;
#X connect 1 0 2 0;
#X connect 2 0 4 0;
#X connect 5 0 0 0;
#X connect 5 0 3 0;
#X restore 38 476 pd env-meter;
#X obj 38 559 s thres-bang;
#X text 132 560 -> threshold bang;
#X text 150 501 <- 3 threshold sliders;
#N canvas 880 423 164 234 in-gain-vu 0;
#X obj 26 182 outlet;
#N canvas 126 632 159 184 guilabel 0;
#X msg 43 107 label \$1;
#X obj 43 26 inlet;
#X obj 43 132 outlet;
#X obj 43 79 makefilename %s;
#N canvas 371 178 187 217 round 0;
#X msg 107 79 10;
#X obj 107 56 loadbang;
#X obj 27 84 * 1;
#X obj 27 19 inlet;
#X obj 68 131 / 1;
#X msg 68 109 1;
#X obj 27 109 + 0.5;
#X obj 27 134 div;
#X obj 27 181 outlet;
#X obj 27 157 * 1;
#X obj 107 102 pow 2;
#X obj 27 45 t f b;
#X connect 0 0 10 0;
#X connect 1 0 0 0;
#X connect 2 0 6 0;
#X connect 3 0 11 0;
#X connect 4 0 9 1;
#X connect 5 0 4 0;
#X connect 6 0 7 0;
#X connect 7 0 9 0;
#X connect 9 0 8 0;
#X connect 10 0 2 1;
#X connect 10 0 4 1;
#X connect 10 0 5 0;
#X connect 11 0 2 0;
#X connect 11 1 0 0;
#X restore 43 53 pd round;
#X connect 0 0 2 0;
#X connect 1 0 4 0;
#X connect 3 0 0 0;
#X connect 4 0 3 0;
#X restore 35 121 pd guilabel;
#X obj 27 71 line \$1 100;
#X obj 27 39 r mic-gain-\$1;
#X obj 27 98 s gain-in-\$1;
#X obj 26 146 r gain-out-\$1;
#X connect 1 0 4 0;
#X connect 2 0 4 0;
#X connect 3 0 2 0;
#X connect 5 0 0 0;
#X connect 5 0 1 0;
#X restore 40 326 pd in-gain-vu;
#X text 150 501 <- 3 threshold sliders;
#X obj 23 151 adc~ \$1;
#X obj 68 450 s \$1-in-gain-vu;
#X obj 68 383 s~ \$1-sig-in;
#X obj 24 616 s \$1-f1;
#X obj 141 615 s \$1-f2;
#N canvas 47 74 429 434 inswitch~ 0;
#X text 63 22 switch between two audio inputs;
#X obj 75 99 inlet~;
#X text 75 81 input1;
#X obj 105 303 *~;
#X obj 197 305 *~;
#X obj 151 337 +~;
#X obj 161 98 inlet~;
#X text 157 78 input2;
#X obj 151 364 outlet~;
#X text 65 34 with toggle on it switsches to 2nd input;
#X obj 210 97 inlet;
#X text 210 78 toggle;
#X obj 212 246 line~;
#X obj 212 266 cos~;
#X obj 120 236 line~;
#X obj 120 259 cos~;
#X obj 120 212 pack;
#X obj 119 168 t f b;
#X obj 212 223 pack;
#X obj 212 199 - 0.25;
#X obj 210 171 t f b;
#X obj 210 142 / 4;
#X obj 210 120 line;
#X msg 146 190 5;
#X msg 262 200 5;
#X connect 1 0 3 0;
#X connect 3 0 5 0;
#X connect 4 0 5 1;
#X connect 5 0 8 0;
#X connect 6 0 4 0;
#X connect 10 0 22 0;
#X connect 12 0 13 0;
#X connect 13 0 4 1;
#X connect 14 0 15 0;
#X connect 15 0 3 1;
#X connect 16 0 14 0;
#X connect 17 0 16 0;
#X connect 17 1 23 0;
#X connect 18 0 12 0;
#X connect 19 0 18 0;
#X connect 20 0 19 0;
#X connect 20 1 24 0;
#X connect 21 0 17 0;
#X connect 21 0 20 0;
#X connect 22 0 21 0;
#X connect 23 0 16 1;
#X connect 24 0 18 1;
#X restore 23 261 pd inswitch~;
#X obj 63 184 r~ \$1-sim;
#X obj 104 210 r sim-switch;
#X obj 104 238 tgl 15 0 empty empty empty 17 7 0 10 #fcfcfc #000000
#000000 0 1;
#X obj 23 34 loadbang;
#X obj 23 58 f \$1;
#X msg 23 119 set \$1;
#X obj 23 87 + 0;
#X connect 0 0 4 0;
#X connect 0 0 9 0;
#X connect 0 0 5 0;
#X connect 0 0 17 0;
#X connect 1 0 0 0;
#X connect 4 0 18 0;
#X connect 4 1 19 0;
#X connect 5 0 16 0;
#X connect 7 0 10 0;
#X connect 8 0 7 0;
#X connect 9 0 7 0;
#X connect 13 0 0 1;
#X connect 15 0 20 0;
#X connect 20 0 1 0;
#X connect 21 0 20 1;
#X connect 22 0 23 0;
#X connect 23 0 20 2;
#X connect 24 0 25 0;
#X connect 25 0 27 0;
#X connect 26 0 15 0;
#X connect 27 0 26 0;
