#N canvas 1009 260 415 622 12;
#X obj 29 160 f;
#X obj 29 184 + 1;
#N canvas 947 467 395 668 params 0;
#X obj 82 621 outlet;
#X msg 142 333 -12;
#X msg 177 333 0;
#X floatatom 146 379 5 0 0 1 transposition - - 0;
#X msg 206 333 -7;
#X obj 126 210 + 25;
#X floatatom 126 258 5 0 0 1 end\ 0.25\ -\ 0.5 - - 0;
#X obj 126 234 / 100;
#X floatatom 106 147 5 0 0 1 start\ 0\ -\ 0.2 - - 0;
#X obj 107 120 / 100;
#X obj 107 93 random 21;
#X floatatom 177 532 5 0 0 1 Q - - 0;
#X obj 177 460 random 91;
#X obj 177 484 + 10;
#X obj 88 63 t f b b b b b b;
#X obj 158 408 f;
#X floatatom 158 432 5 0 0 0 - - - 0;
#X obj 82 590 pack f f f f f f f f f f;
#N canvas 677 764 599 498 rnd-env 0;
#X obj 173 404 outlet;
#X obj 229 203 -;
#X floatatom 228 226 5 0 0 0 - - - 0;
#X obj 320 204 -;
#X floatatom 319 227 5 0 0 0 - - - 0;
#X obj 304 153 t b f;
#X obj 227 158 t b f;
#X obj 171 326 +;
#X obj 172 280 random;
#X obj 219 108 unpack f f f f f f f f;
#X floatatom 187 303 5 0 0 0 - - - 0;
#X obj 315 324 +;
#X obj 316 278 random;
#X floatatom 331 301 5 0 0 0 - - - 0;
#X floatatom 245 346 5 0 0 0 - - - 0;
#X floatatom 171 348 5 0 0 0 - - - 0;
#X floatatom 315 346 5 0 0 0 - - - 0;
#X floatatom 375 348 5 0 0 0 - - - 0;
#X obj 97 56 bng 15 250 50 0 empty empty empty 17 7 0 10 #fcfcfc #000000
#000000;
#X obj 97 31 t b b;
#X obj 97 8 inlet;
#N canvas 1257 591 604 663 frandom 0;
#X obj 124 431 random;
#X floatatom 291 212 5 0 0 0 - - - 0;
#X floatatom 296 344 5 0 0 0 - - - 0;
#X msg 291 279 10;
#X obj 169 384 *;
#X obj 139 468 /;
#X floatatom 103 573 15 0 0 0 - - - 0;
#X obj 291 239 t b f;
#X floatatom 172 215 5 0 0 0 - - - 0;
#X floatatom 112 216 5 0 0 0 - - - 0;
#X obj 172 243 t b f;
#X obj 141 310 abs;
#X floatatom 141 347 5 0 0 0 - - - 0;
#X obj 103 545 +;
#X obj 139 497 t b f;
#X obj 39 24 inlet;
#X obj 114 26 inlet;
#X obj 172 27 inlet;
#X obj 291 26 inlet;
#X obj 103 600 outlet;
#X obj 157 278 - 1;
#X obj 220 42 loadbang;
#X obj 296 315 pow 2;
#X obj 314 89 f \$3;
#X obj 126 95 f \$1;
#X obj 314 116 == 0;
#X obj 209 122 == 0;
#X obj 209 94 f \$2;
#X obj 209 149 sel 0;
#X msg 249 175 1;
#X obj 206 176 f \$2;
#X obj 314 145 sel 0;
#X obj 309 178 f \$3;
#X msg 349 177 2;
#X text 218 526 (c) 2010 Achim Bornhoeft;
#X obj 169 408 + 1;
#X obj 391 29 inlet;
#X msg 392 330 seed \$1;
#X obj 391 91 f \$4;
#X connect 0 0 5 0;
#X connect 1 0 7 0;
#X connect 2 0 4 1;
#X connect 2 0 5 1;
#X connect 3 0 22 0;
#X connect 4 0 35 0;
#X connect 5 0 14 0;
#X connect 6 0 19 0;
#X connect 7 0 3 0;
#X connect 7 0 4 0;
#X connect 7 1 22 1;
#X connect 8 0 10 0;
#X connect 9 0 13 0;
#X connect 9 0 20 0;
#X connect 10 0 20 0;
#X connect 10 1 20 1;
#X connect 11 0 12 0;
#X connect 12 0 4 0;
#X connect 13 0 6 0;
#X connect 14 0 13 0;
#X connect 14 1 13 1;
#X connect 15 0 0 0;
#X connect 16 0 9 0;
#X connect 17 0 8 0;
#X connect 18 0 1 0;
#X connect 20 0 11 0;
#X connect 21 0 23 0;
#X connect 21 0 24 0;
#X connect 21 0 27 0;
#X connect 21 0 38 0;
#X connect 22 0 2 0;
#X connect 23 0 25 0;
#X connect 24 0 9 0;
#X connect 25 0 31 0;
#X connect 26 0 28 0;
#X connect 27 0 26 0;
#X connect 28 0 30 0;
#X connect 28 1 29 0;
#X connect 29 0 8 0;
#X connect 30 0 8 0;
#X connect 31 0 32 0;
#X connect 31 1 33 0;
#X connect 32 0 1 0;
#X connect 33 0 1 0;
#X connect 35 0 0 1;
#X connect 36 0 38 0;
#X connect 37 0 0 0;
#X connect 38 0 37 0;
#X restore 239 280 pd frandom;
#N canvas 1257 591 604 663 frandom 0;
#X obj 124 431 random;
#X floatatom 291 212 5 0 0 0 - - - 0;
#X floatatom 296 344 5 0 0 0 - - - 0;
#X msg 291 279 10;
#X obj 169 384 *;
#X obj 139 468 /;
#X floatatom 103 573 15 0 0 0 - - - 0;
#X obj 291 239 t b f;
#X floatatom 172 215 5 0 0 0 - - - 0;
#X floatatom 112 216 5 0 0 0 - - - 0;
#X obj 172 243 t b f;
#X obj 141 310 abs;
#X floatatom 141 347 5 0 0 0 - - - 0;
#X obj 103 545 +;
#X obj 139 497 t b f;
#X obj 39 24 inlet;
#X obj 114 26 inlet;
#X obj 172 27 inlet;
#X obj 291 26 inlet;
#X obj 103 600 outlet;
#X obj 157 278 - 1;
#X obj 220 42 loadbang;
#X obj 296 315 pow 2;
#X obj 314 89 f \$3;
#X obj 126 95 f \$1;
#X obj 314 116 == 0;
#X obj 209 122 == 0;
#X obj 209 94 f \$2;
#X obj 209 149 sel 0;
#X msg 249 175 1;
#X obj 206 176 f \$2;
#X obj 314 145 sel 0;
#X obj 309 178 f \$3;
#X msg 349 177 2;
#X text 218 526 (c) 2010 Achim Bornhoeft;
#X obj 169 408 + 1;
#X obj 391 29 inlet;
#X msg 392 330 seed \$1;
#X obj 391 91 f \$4;
#X connect 0 0 5 0;
#X connect 1 0 7 0;
#X connect 2 0 4 1;
#X connect 2 0 5 1;
#X connect 3 0 22 0;
#X connect 4 0 35 0;
#X connect 5 0 14 0;
#X connect 6 0 19 0;
#X connect 7 0 3 0;
#X connect 7 0 4 0;
#X connect 7 1 22 1;
#X connect 8 0 10 0;
#X connect 9 0 13 0;
#X connect 9 0 20 0;
#X connect 10 0 20 0;
#X connect 10 1 20 1;
#X connect 11 0 12 0;
#X connect 12 0 4 0;
#X connect 13 0 6 0;
#X connect 14 0 13 0;
#X connect 14 1 13 1;
#X connect 15 0 0 0;
#X connect 16 0 9 0;
#X connect 17 0 8 0;
#X connect 18 0 1 0;
#X connect 20 0 11 0;
#X connect 21 0 23 0;
#X connect 21 0 24 0;
#X connect 21 0 27 0;
#X connect 21 0 38 0;
#X connect 22 0 2 0;
#X connect 23 0 25 0;
#X connect 24 0 9 0;
#X connect 25 0 31 0;
#X connect 26 0 28 0;
#X connect 27 0 26 0;
#X connect 28 0 30 0;
#X connect 28 1 29 0;
#X connect 29 0 8 0;
#X connect 30 0 8 0;
#X connect 31 0 32 0;
#X connect 31 1 33 0;
#X connect 32 0 1 0;
#X connect 33 0 1 0;
#X connect 35 0 0 1;
#X connect 36 0 38 0;
#X connect 37 0 0 0;
#X connect 38 0 37 0;
#X restore 375 277 pd frandom;
#X obj 242 407 outlet;
#X obj 315 410 outlet;
#X obj 376 407 outlet;
#X msg 219 77 300 500 0.5 2 10000 15000 0.7 3;
#X connect 1 0 2 0;
#X connect 2 0 8 1;
#X connect 3 0 4 0;
#X connect 4 0 12 1;
#X connect 5 0 3 0;
#X connect 5 1 3 1;
#X connect 6 0 1 0;
#X connect 6 1 1 1;
#X connect 7 0 15 0;
#X connect 8 0 7 0;
#X connect 9 0 6 0;
#X connect 9 0 10 0;
#X connect 9 1 1 0;
#X connect 9 2 21 1;
#X connect 9 3 21 2;
#X connect 9 4 5 0;
#X connect 9 4 13 0;
#X connect 9 5 3 0;
#X connect 9 6 22 1;
#X connect 9 7 22 2;
#X connect 10 0 7 1;
#X connect 11 0 16 0;
#X connect 12 0 11 0;
#X connect 13 0 11 1;
#X connect 14 0 23 0;
#X connect 15 0 0 0;
#X connect 16 0 24 0;
#X connect 17 0 25 0;
#X connect 18 0 12 0;
#X connect 18 0 8 0;
#X connect 18 0 21 0;
#X connect 18 0 22 0;
#X connect 19 0 18 0;
#X connect 19 1 26 0;
#X connect 20 0 19 0;
#X connect 21 0 14 0;
#X connect 22 0 17 0;
#X connect 26 0 9 0;
#X restore 190 561 pd rnd-env;
#X obj 228 27 inlet tracked frq;
#X obj 89 29 inlet idx;
#X obj 147 306 sel 0 1 2 3 4;
#X msg 243 333 7;
#X msg 278 333 12.1;
#X obj 148 283 random 5;
#X obj 126 186 random 50;
#X obj 177 508 / 75;
#X connect 1 0 3 0;
#X connect 2 0 3 0;
#X connect 3 0 17 3;
#X connect 4 0 3 0;
#X connect 5 0 7 0;
#X connect 6 0 17 2;
#X connect 7 0 6 0;
#X connect 8 0 17 1;
#X connect 9 0 8 0;
#X connect 10 0 9 0;
#X connect 11 0 17 5;
#X connect 12 0 13 0;
#X connect 13 0 26 0;
#X connect 14 0 17 0;
#X connect 14 1 10 0;
#X connect 14 2 25 0;
#X connect 14 3 24 0;
#X connect 14 4 15 0;
#X connect 14 5 12 0;
#X connect 14 6 18 0;
#X connect 15 0 16 0;
#X connect 16 0 17 4;
#X connect 17 0 0 0;
#X connect 18 0 17 6;
#X connect 18 1 17 7;
#X connect 18 2 17 8;
#X connect 18 3 17 9;
#X connect 19 0 15 1;
#X connect 20 0 14 0;
#X connect 21 0 1 0;
#X connect 21 1 2 0;
#X connect 21 2 4 0;
#X connect 21 3 22 0;
#X connect 21 4 23 0;
#X connect 22 0 3 0;
#X connect 23 0 3 0;
#X connect 24 0 21 0;
#X connect 25 0 5 0;
#X connect 26 0 11 0;
#X restore 30 239 pd params;
#X floatatom 109 137 5 0 0 0 - - - 0;
#X obj 90 161 f;
#X obj 28 122 t b b;
#X floatatom 90 186 5 36 144 0 - - - 0;
#X listbox 30 271 50 0 0 0 - - - 0;
#X obj 80 424 rev3~ 100 90 5000 20;
#X obj 34 377 clone clone-arrays \$2 \$1;
#X obj 51 325 tgl 15 0 empty empty empty 17 7 0 10 #fcfcfc #000000
#000000 0 1;
#X msg 50 348 vis 6 \$1;
#X obj 29 208 mod 10;
#X obj 78 90 r \$1-f1;
#N canvas 262 528 442 454 test 0;
#X obj 110 116 readsf~;
#X obj 115 18 tgl 15 0 empty empty empty 17 7 0 10 #fcfcfc #000000
#000000 0 1;
#X obj 116 36 t f b;
#X msg 184 93 1;
#X floatatom 72 353 5 0 0 0 - - - 0;
#X obj 72 327 unpack;
#N canvas 187 131 248 452 range 0;
#X obj 29 25 inlet~;
#X obj 36 331 outlet~;
#X obj 33 154 hip~;
#X obj 66 118 mtof;
#X obj 33 179 hip~;
#X obj 114 117 mtof;
#X obj 39 254 lop~;
#X obj 39 279 lop~;
#X obj 123 52 r init;
#X text 21 358 tracking/analysis-range \; ca100-3600Hz;
#X obj 103 25 loadbang;
#X msg 66 91 40;
#X msg 114 90 85;
#X connect 0 0 2 0;
#X connect 2 0 4 0;
#X connect 3 0 2 1;
#X connect 3 0 4 1;
#X connect 4 0 6 0;
#X connect 5 0 6 1;
#X connect 5 0 7 1;
#X connect 6 0 7 0;
#X connect 7 0 1 0;
#X connect 8 0 11 0;
#X connect 8 0 12 0;
#X connect 10 0 11 0;
#X connect 10 0 12 0;
#X connect 11 0 3 0;
#X connect 12 0 5 0;
#X restore 73 234 pd range sig~;
#X obj 124 209 dac~ 1;
#X obj 73 298 route 0;
#X obj 73 270 sigmund~ -maxfreq 10000 -npeak 1 peaks;
#X obj 124 183 *~ 0.2;
#X msg 147 63 open ../../tests/EBow.wav;
#X obj 72 377 outlet;
#X connect 0 0 6 0;
#X connect 0 0 10 0;
#X connect 0 1 3 0;
#X connect 1 0 2 0;
#X connect 2 0 0 0;
#X connect 2 1 11 0;
#X connect 3 0 1 0;
#X connect 4 0 12 0;
#X connect 5 0 4 0;
#X connect 6 0 9 0;
#X connect 8 0 5 0;
#X connect 9 0 8 0;
#X connect 10 0 7 0;
#X connect 11 0 0 0;
#X restore 145 90 pd test;
#X obj 52 299 s \$1-param-loop;
#X obj 27 11 r \$1-samp-loop;
#X obj 27 45 sel 1;
#X obj 154 16 inlet;
#X obj 40 512 outlet~;
#X obj 136 511 outlet~;
#X obj 38 476 *~ 0.4;
#X obj 136 477 *~ 0.4;
#X connect 0 0 1 0;
#X connect 1 0 12 0;
#X connect 2 0 7 0;
#X connect 3 0 4 1;
#X connect 4 0 6 0;
#X connect 5 0 0 0;
#X connect 5 1 4 0;
#X connect 6 0 2 1;
#X connect 7 0 9 0;
#X connect 7 0 15 0;
#X connect 8 0 21 0;
#X connect 8 1 22 0;
#X connect 9 0 8 0;
#X connect 9 0 21 0;
#X connect 9 1 8 1;
#X connect 9 1 22 0;
#X connect 10 0 11 0;
#X connect 11 0 9 0;
#X connect 12 0 0 1;
#X connect 12 0 2 0;
#X connect 13 0 3 0;
#X connect 14 0 3 0;
#X connect 16 0 17 0;
#X connect 17 0 5 0;
#X connect 18 0 5 0;
#X connect 21 0 19 0;
#X connect 22 0 20 0;
