#N canvas 1778 726 432 644 12;
#X obj 73 34 inlet~;
#X obj 75 568 outlet~;
#X msg 102 354 vis 3 1;
#X obj 92 416 loadbang;
#X obj 75 539 *~;
#X msg 93 473 1;
#X obj 93 507 /;
#X obj 93 444 t b b;
#X obj 125 473 f \$1;
#X obj 93 139 tgl 15 0 empty empty empty 17 7 0 10 #fcfcfc #000000
#000000 0 1;
#X floatatom 92 88 5 0 0 0 - - - 0;
#X obj 92 61 r \$2-del-on;
#X obj 93 113 == \$1;
#X msg 93 160 \$1 30;
#X obj 93 184 line~;
#X obj 75 211 *~;
#X obj 205 35 inlet;
#X listbox 246 128 20 0 0 0 - - - 0;
#X obj 206 79 list split 1;
#X floatatom 206 155 5 0 0 0 - - - 0;
#X obj 246 154 s \$1-\$2-dly-param;
#X obj 75 388 clone dly \$3 \$1 \$2;
#N canvas 131 166 740 428 eql-pwr-mix 0;
#X obj 25 304 *~;
#X obj 104 303 *~;
#X obj 267 212 line~;
#X obj 267 240 cos~;
#X obj 184 210 line~;
#X obj 184 238 cos~;
#X obj 183 184 pack;
#X obj 182 129 t f b;
#X msg 226 156 10;
#X obj 267 185 pack;
#X msg 317 157 10;
#X obj 267 157 - 0.25;
#X obj 265 129 t f b;
#X obj 181 85 / 4;
#X obj 25 58 inlet~;
#X obj 102 61 inlet~;
#X obj 181 58 inlet;
#X text 31 376 after equal pwer panning (C) 2005 Christopher Burns
;
#X obj 56 343 outlet~;
#X text 306 240 scale by cosine of pan angle: constant-power;
#X text 143 301 change gain for channel according to constant-power
formula;
#X text 212 87 scale to 0 <= n <= 0.25 (for idiosyncratic pd cos~ object)
;
#X text 348 159 shift right channel 90 degrees in phase from left;
#X text 309 186 combine angle with 10 msec ramp time in a list;
#X text 318 212 create smooth (10 msec) transition to new pan angle
;
#X text 25 20 Equal power mix;
#X connect 0 0 18 0;
#X connect 1 0 18 0;
#X connect 2 0 3 0;
#X connect 3 0 1 1;
#X connect 4 0 5 0;
#X connect 5 0 0 1;
#X connect 6 0 4 0;
#X connect 7 0 6 0;
#X connect 7 1 8 0;
#X connect 8 0 6 1;
#X connect 9 0 2 0;
#X connect 10 0 9 1;
#X connect 11 0 9 0;
#X connect 12 0 11 0;
#X connect 12 1 10 0;
#X connect 13 0 7 0;
#X connect 13 0 12 0;
#X connect 14 0 0 0;
#X connect 15 0 1 0;
#X connect 16 0 13 0;
#X restore 75 313 pd eql-pwr-mix;
#X obj 122 262 rev2~ 100 85 5000 10;
#X connect 0 0 15 0;
#X connect 2 0 21 0;
#X connect 3 0 7 0;
#X connect 4 0 1 0;
#X connect 5 0 6 0;
#X connect 6 0 4 1;
#X connect 7 0 5 0;
#X connect 7 1 8 0;
#X connect 8 0 6 1;
#X connect 9 0 13 0;
#X connect 10 0 12 0;
#X connect 11 0 10 0;
#X connect 12 0 9 0;
#X connect 13 0 14 0;
#X connect 14 0 15 1;
#X connect 15 0 22 0;
#X connect 15 0 23 0;
#X connect 16 0 18 0;
#X connect 17 0 20 0;
#X connect 18 0 19 0;
#X connect 18 1 17 0;
#X connect 19 0 22 2;
#X connect 21 0 4 0;
#X connect 22 0 21 0;
#X connect 23 0 22 1;
#X connect 23 1 22 1;
