#N canvas 617 189 434 765 12;
#X obj 214 547 f;
#X obj 264 545 + 1;
#X obj 215 510 t b a;
#X obj 222 610 list;
#X obj 56 706 throw~ \$1-multidly-out;
#X listbox 221 639 20 0 0 0 - - - 0;
#X obj 79 577 tgl 15 0 empty empty empty 17 7 0 10 #fcfcfc #000000
#000000 0 1;
#X obj 303 545 mod \$2;
#X obj 264 587 s \$1-del-on;
#X obj 56 665 clone -s 1 mdly \$2 \$1 \$3;
#X msg 80 597 vis 3 \$1;
#X msg 91 628 vis 2 \$1;
#X obj 56 542 *~;
#X obj 214 444 r \$1-mdly-param;
#X obj 223 479 inlet;
#X obj 57 20 r~ \$1-sig-in;
#X obj 73 105 tgl 15 0 empty empty empty 17 7 0 10 #fcfcfc #000000
#000000 0 1;
#X obj 154 133 tgl 15 0 empty empty empty 17 7 0 10 #fcfcfc #000000
#000000 0 1;
#N canvas 179 217 319 322 outswitch 0;
#X text 37 22 input1;
#X obj 147 38 inlet;
#X text 147 19 toggle;
#X obj 38 40 inlet;
#X obj 36 189 spigot;
#X obj 130 190 spigot;
#X obj 69 139 - 1;
#X obj 69 165 abs;
#X obj 131 253 outlet;
#X obj 147 75 f 0;
#X obj 200 32 loadbang;
#X obj 36 255 outlet;
#X obj 146 101 t f f;
#X connect 1 0 9 0;
#X connect 3 0 4 0;
#X connect 3 0 5 0;
#X connect 4 0 11 0;
#X connect 5 0 8 0;
#X connect 6 0 7 0;
#X connect 7 0 4 1;
#X connect 9 0 12 0;
#X connect 10 0 9 0;
#X connect 12 0 6 0;
#X connect 12 1 5 1;
#X restore 73 156 pd outswitch;
#X msg 73 128 \$1 30;
#X obj 153 187 t b;
#X msg 151 370 0 30;
#X msg 223 383 0;
#X obj 223 412 s \$0-null;
#X obj 90 75 r \$0-null;
#X obj 74 48 r \$1-multidly-onoff;
#X obj 74 430 line~;
#X obj 98 514 snapshot~;
#X obj 98 468 tgl 15 0 empty empty empty 17 7 0 10 #fcfcfc #000000
#000000 0 1;
#X obj 98 488 metro 10;
#X msg 224 164 color \$1 \$1 0;
#X obj 224 193 s \$1-dly-tgl-in;
#X obj 224 136 * 17;
#X obj 154 101 r \$1-auto-delay;
#X obj 153 218 random 3000;
#X obj 153 242 + 5000;
#X obj 220 342 del 5000;
#X obj 151 342 del 4000;
#X obj 151 318 - 30;
#X floatatom 153 266 5 0 0 0 - - - 0;
#X obj 153 289 t f f;
#X msg 170 24 1;
#X connect 0 0 1 0;
#X connect 1 0 7 0;
#X connect 1 0 8 0;
#X connect 1 0 3 0;
#X connect 2 0 0 0;
#X connect 2 1 3 1;
#X connect 3 0 5 0;
#X connect 5 0 9 1;
#X connect 6 0 10 0;
#X connect 6 0 11 0;
#X connect 7 0 0 1;
#X connect 9 0 4 0;
#X connect 10 0 9 0;
#X connect 11 0 9 0;
#X connect 12 0 9 0;
#X connect 13 0 2 0;
#X connect 14 0 2 0;
#X connect 15 0 12 0;
#X connect 16 0 19 0;
#X connect 16 0 32 0;
#X connect 17 0 18 1;
#X connect 18 0 26 0;
#X connect 18 1 20 0;
#X connect 18 1 26 0;
#X connect 19 0 18 0;
#X connect 20 0 34 0;
#X connect 21 0 26 0;
#X connect 22 0 23 0;
#X connect 24 0 16 0;
#X connect 24 0 17 0;
#X connect 25 0 16 0;
#X connect 26 0 12 1;
#X connect 26 0 27 0;
#X connect 28 0 29 0;
#X connect 29 0 27 0;
#X connect 30 0 31 0;
#X connect 32 0 30 0;
#X connect 33 0 17 0;
#X connect 34 0 35 0;
#X connect 35 0 39 0;
#X connect 36 0 22 0;
#X connect 37 0 21 0;
#X connect 38 0 37 0;
#X connect 39 0 40 0;
#X connect 40 0 38 0;
#X connect 40 1 36 0;
#X connect 41 0 16 0;
