#N canvas 1154 339 358 592 12;
#X obj 30 337 *~;
#X floatatom 30 214 5 0 0 0 - - - 0;
#N canvas 593 672 355 664 rnd-pan 0;
#X obj 119 515 line;
#X obj 119 491 pack;
#X floatatom 179 311 5 0 0 0 - - - 0;
#X obj 148 381 random;
#X obj 144 431 +;
#X floatatom 144 453 5 0 0 0 - - - 0;
#X floatatom 68 357 5 0 0 0 - - - 0;
#X obj 49 331 random;
#X obj 50 382 +;
#X floatatom 50 429 5 0 0 0 - - - 0;
#X obj 99 254 -;
#X floatatom 93 297 5 0 0 0 - - - 0;
#X obj 102 195 t b f;
#X obj 180 278 -;
#X obj 173 244 t b f;
#X floatatom 162 409 5 0 0 0 - - - 0;
#X obj 50 407 min 200;
#X obj 97 147 unpack f f f f;
#X obj 119 623 outlet;
#X obj 119 561 / 200;
#X obj 51 13 inlet;
#X obj 18 52 bng 15 250 50 0 empty empty empty 17 7 0 10 #fcfcfc #000000 #000000;
#X obj 139 599 hsl 128 15 0 1 0 0 empty empty empty -2 -8 0 10 #fcfcfc #000000 #000000 0 1;
#X obj 196 565 s \$1-metro-bang;
#X obj 89 51 r \$1-metro-bang;
#X obj 51 82 t b b b b;
#X obj 197 513 delay;
#X obj 195 483 t b f;
#X obj 196 540 bng 15 250 50 0 empty empty empty 17 7 0 10 #fcfcfc #000000 #000000;
#X msg 101 117 0 200 500 5000;
#X connect 0 0 19 0;
#X connect 1 0 0 0;
#X connect 2 0 3 1;
#X connect 3 0 4 0;
#X connect 4 0 5 0;
#X connect 5 0 1 1;
#X connect 5 0 27 0;
#X connect 6 0 8 1;
#X connect 7 0 8 0;
#X connect 8 0 16 0;
#X connect 9 0 1 0;
#X connect 10 0 11 0;
#X connect 11 0 7 1;
#X connect 12 0 10 0;
#X connect 12 1 10 1;
#X connect 13 0 2 0;
#X connect 14 0 13 0;
#X connect 14 1 13 1;
#X connect 15 0 4 1;
#X connect 16 0 9 0;
#X connect 17 0 12 0;
#X connect 17 0 6 0;
#X connect 17 1 10 0;
#X connect 17 2 14 0;
#X connect 17 2 15 0;
#X connect 17 3 13 0;
#X connect 19 0 18 0;
#X connect 19 0 22 0;
#X connect 20 0 25 0;
#X connect 21 0 25 0;
#X connect 24 0 25 0;
#X connect 25 1 7 0;
#X connect 25 2 3 0;
#X connect 25 3 29 0;
#X connect 26 0 28 0;
#X connect 27 0 26 0;
#X connect 27 1 26 1;
#X connect 28 0 23 0;
#X connect 29 0 17 0;
#X restore 118 362 pd rnd-pan;
#N canvas 635 718 215 370 eq-pwr-pan 0;
#X obj 33 293 *~;
#X obj 90 291 *~;
#X obj 114 207 line~;
#X obj 114 235 cos~;
#X obj 51 207 line~;
#X obj 51 235 cos~;
#X obj 50 181 pack;
#X obj 46 93 t f b;
#X obj 114 180 pack;
#X obj 114 122 - 0.25;
#X obj 114 90 t f b;
#X obj 47 52 / 4;
#X obj 33 252 inlet~;
#X obj 47 24 inlet;
#X obj 91 323 outlet~;
#X obj 33 322 outlet~;
#X msg 81 151 5;
#X msg 148 150 5;
#X connect 0 0 15 0;
#X connect 1 0 14 0;
#X connect 2 0 3 0;
#X connect 3 0 1 1;
#X connect 4 0 5 0;
#X connect 5 0 0 1;
#X connect 6 0 4 0;
#X connect 7 0 6 0;
#X connect 7 1 16 0;
#X connect 8 0 2 0;
#X connect 9 0 8 0;
#X connect 10 0 9 0;
#X connect 10 1 17 0;
#X connect 11 0 7 0;
#X connect 11 0 10 0;
#X connect 12 0 0 0;
#X connect 12 0 1 0;
#X connect 13 0 11 0;
#X connect 16 0 6 1;
#X connect 17 0 8 1;
#X restore 29 480 pd eq-pwr-pan;
#X obj 29 513 outlet~;
#X obj 117 513 outlet~;
#N canvas 975 531 369 336 sub-synth 0;
#X text 90 151 Amplification related to filter-Q;
#X obj 32 238 outlet~;
#X obj 61 56 inlet;
#X obj 31 27 r~ noise;
#X obj 31 84 vcf~ 5000;
#X obj 32 149 *~ 420;
#X obj 33 206 lop~ 5000;
#X connect 2 0 4 1;
#X connect 3 0 4 0;
#X connect 4 0 5 0;
#X connect 5 0 6 0;
#X connect 6 0 1 0;
#X restore 104 262 pd sub-synth;
#X obj 27 19 r sel-pitch;
#X obj 27 48 route \$1;
#X obj 30 189 line \$1 50;
#X obj 67 139 vline~;
#X obj 27 72 unpack f f f;
#X obj 104 234 t f b;
#X obj 30 259 osc~;
#N canvas 110 143 658 522 once 0;
#X obj 131 198 spigot;
#X obj 76 91 inlet;
#X obj 133 138 t a b;
#X obj 164 167 f 1;
#X obj 131 230 t a b;
#X obj 129 274 f 0;
#X obj 76 298 outlet;
#X obj 243 84 inlet;
#X obj 243 107 bang;
#X obj 243 130 f 1;
#X text 50 42 once;
#X text 106 43 only the first message passes through;
#X text 71 73 message in;
#X text 71 325 message out (only once);
#X obj 76 115 route bang;
#X obj 76 138 t b b;
#X obj 76 198 spigot;
#X obj 76 230 t b b;
#X text 347 332 IEM KUG;
#X text 308 296 musil;
#X text 355 296 @;
#X text 369 295 iem.at;
#X text 268 273 (c) Thomas Musil 2000 - 2005;
#X text 335 344 Graz \, Austria;
#X text 397 251 @;
#X text 409 253 iem.at;
#X text 271 232 (c) zmoelnig;
#X text 242 65 reset;
#X connect 0 0 4 0;
#X connect 1 0 14 0;
#X connect 2 0 0 0;
#X connect 2 1 3 0;
#X connect 3 0 0 1;
#X connect 3 0 16 1;
#X connect 4 0 6 0;
#X connect 4 1 5 0;
#X connect 5 0 3 1;
#X connect 7 0 8 0;
#X connect 8 0 9 0;
#X connect 9 0 3 1;
#X connect 14 0 15 0;
#X connect 14 1 2 0;
#X connect 15 0 16 0;
#X connect 15 1 3 0;
#X connect 16 0 17 0;
#X connect 17 0 6 0;
#X connect 17 1 5 0;
#X restore 118 326 pd once;
#N canvas 593 672 355 664 rnd-dyn 0;
#X obj 119 515 line;
#X obj 119 491 pack;
#X floatatom 179 311 5 0 0 0 - - - 0;
#X obj 148 381 random;
#X obj 144 431 +;
#X floatatom 144 453 5 0 0 0 - - - 0;
#X floatatom 68 357 5 0 0 0 - - - 0;
#X obj 49 331 random;
#X obj 50 382 +;
#X floatatom 50 429 5 0 0 0 - - - 0;
#X obj 99 254 -;
#X floatatom 93 297 5 0 0 0 - - - 0;
#X obj 102 195 t b f;
#X obj 180 278 -;
#X obj 173 244 t b f;
#X floatatom 162 409 5 0 0 0 - - - 0;
#X obj 50 407 min 200;
#X obj 97 147 unpack f f f f;
#X obj 119 623 outlet;
#X obj 119 561 / 200;
#X obj 51 13 inlet;
#X obj 18 52 bng 15 250 50 0 empty empty empty 17 7 0 10 #fcfcfc #000000 #000000;
#X obj 139 599 hsl 128 15 0 1 0 0 empty empty empty -2 -8 0 10 #fcfcfc #000000 #000000 0 1;
#X obj 196 565 s \$1-metro-bang;
#X obj 89 51 r \$1-metro-bang;
#X obj 51 82 t b b b b;
#X obj 197 513 delay;
#X obj 195 483 t b f;
#X obj 196 540 bng 15 250 50 0 empty empty empty 17 7 0 10 #fcfcfc #000000 #000000;
#X msg 101 117 1 200 500 5000;
#X connect 0 0 19 0;
#X connect 1 0 0 0;
#X connect 2 0 3 1;
#X connect 3 0 4 0;
#X connect 4 0 5 0;
#X connect 5 0 1 1;
#X connect 5 0 27 0;
#X connect 6 0 8 1;
#X connect 7 0 8 0;
#X connect 8 0 16 0;
#X connect 9 0 1 0;
#X connect 10 0 11 0;
#X connect 11 0 7 1;
#X connect 12 0 10 0;
#X connect 12 1 10 1;
#X connect 13 0 2 0;
#X connect 14 0 13 0;
#X connect 14 1 13 1;
#X connect 15 0 4 1;
#X connect 16 0 9 0;
#X connect 17 0 12 0;
#X connect 17 0 6 0;
#X connect 17 1 10 0;
#X connect 17 2 14 0;
#X connect 17 2 15 0;
#X connect 17 3 13 0;
#X connect 19 0 18 0;
#X connect 19 0 22 0;
#X connect 20 0 25 0;
#X connect 21 0 25 0;
#X connect 24 0 25 0;
#X connect 25 1 7 0;
#X connect 25 2 3 0;
#X connect 25 3 29 0;
#X connect 26 0 28 0;
#X connect 27 0 26 0;
#X connect 27 1 26 1;
#X connect 28 0 23 0;
#X connect 29 0 17 0;
#X restore 41 372 pd rnd-dyn;
#X floatatom 41 396 5 0 0 0 - - - 0;
#X obj 126 303 bng 15 250 50 0 empty empty empty 17 7 0 10 #fcfcfc #000000 #000000;
#X floatatom 118 400 5 0 0 0 - - - 0;
#X obj 29 423 *~;
#X obj 152 45 r on-off;
#X obj 152 76 sel 0;
#X msg 152 100 0 100;
#X obj 28 298 *~ 0.5;
#X obj 81 298 *~ 0.5;
#X obj 29 452 *~ 0.03;
#X connect 0 0 19 0;
#X connect 1 0 12 0;
#X connect 1 0 13 0;
#X connect 2 0 18 0;
#X connect 3 0 4 0;
#X connect 3 1 5 0;
#X connect 6 0 24 0;
#X connect 7 0 8 0;
#X connect 8 0 11 0;
#X connect 9 0 1 0;
#X connect 10 0 0 1;
#X connect 11 0 9 0;
#X connect 11 1 10 0;
#X connect 11 2 10 1;
#X connect 12 0 6 0;
#X connect 12 1 14 0;
#X connect 13 0 23 0;
#X connect 14 0 2 0;
#X connect 14 0 15 0;
#X connect 15 0 16 0;
#X connect 16 0 19 1;
#X connect 17 0 14 0;
#X connect 18 0 3 1;
#X connect 19 0 25 0;
#X connect 20 0 21 0;
#X connect 21 0 22 0;
#X connect 22 0 10 0;
#X connect 23 0 0 0;
#X connect 24 0 0 0;
#X connect 25 0 3 0;
