#N canvas 745 56 552 612 10;
#X obj 43 -43 inlet;
#X obj 169 179 outlet;
#X obj 100 100 tgl 15 0 empty empty empty 17 7 0 10 -258699 -258568
-262144 1 1;
#X msg 100 68 color \$1;
#X obj 116 178 sel 1 0;
#X obj 89 218 bng 15 250 50 0 empty empty empty 17 7 0 10 -262144 -1
-1;
#X obj 152 228 bng 15 250 50 0 empty empty empty 17 7 0 10 -262144
-1 -1;
#X floatatom 116 124 5 0 0 0 - - -;
#X obj 7 49 loadbang;
#X msg 7 75 0;
#X obj 116 145 t f f;
#X obj -12 268 s s_pitch_\$1;
#X obj -6 183 r s_pitch_\$1;
#X floatatom -6 206 5 0 0 0 - - -;
#X msg 241 151 loadbang;
#X obj 180 313 + \$1;
#X obj 180 262 loadbang;
#X msg 180 285 1;
#X obj 180 377 mtof;
#X obj 180 422 osc~;
#X floatatom 180 399 5 0 0 0 - - -;
#X obj 180 506 throw~ all;
#X msg 89 257 1;
#X obj 89 391 metro 300;
#X msg 44 470 0;
#X obj 88 415 f 0;
#X obj 116 414 + 1;
#X obj 143 414 % 2;
#X obj 88 439 sel 0 1;
#X msg 111 470 0;
#X obj 180 343 * 5;
#X msg 90 15 43;
#X obj 229 470 line~;
#X msg 80 470 0.1;
#X obj 180 457 *~;
#X obj 291 405 r lengh;
#X obj 291 427 - 100;
#X floatatom 291 451 5 0 0 0 - - -;
#X msg 229 443 \$1 100;
#X msg 153 12 12;
#X connect 0 0 2 0;
#X connect 2 0 7 0;
#X connect 3 0 2 0;
#X connect 4 0 5 0;
#X connect 4 1 6 0;
#X connect 5 0 31 0;
#X connect 5 0 22 0;
#X connect 6 0 39 0;
#X connect 7 0 10 0;
#X connect 8 0 9 0;
#X connect 9 0 2 0;
#X connect 10 0 4 0;
#X connect 10 1 1 0;
#X connect 12 0 13 0;
#X connect 15 0 30 0;
#X connect 16 0 17 0;
#X connect 17 0 15 0;
#X connect 18 0 20 0;
#X connect 19 0 34 0;
#X connect 20 0 19 0;
#X connect 22 0 23 0;
#X connect 23 0 25 0;
#X connect 24 0 23 0;
#X connect 25 0 26 0;
#X connect 25 0 28 0;
#X connect 26 0 27 0;
#X connect 27 0 25 1;
#X connect 28 0 33 0;
#X connect 28 1 29 0;
#X connect 28 1 24 0;
#X connect 29 0 38 0;
#X connect 30 0 18 0;
#X connect 31 0 3 0;
#X connect 32 0 34 1;
#X connect 33 0 38 0;
#X connect 34 0 21 0;
#X connect 35 0 36 0;
#X connect 36 0 37 0;
#X connect 37 0 32 1;
#X connect 38 0 32 0;
#X connect 39 0 3 0;
#X coords 0 -1 1 1 15 15 2 100 100;
