#N canvas 867 22 374 484 10;
#N canvas 649 177 576 546 count 0;
#X floatatom 167 -115 5 0 19 0 - - -, f 5;
#X obj 167 -140 f 0;
#X obj 195 -140 + 1;
#X obj 196 -332 inlet;
#X msg 182 -164 0;
#X obj 124 -19 outlet;
#X obj 234 -41 f 0;
#X obj 266 -41 + 1;
#X floatatom 234 -19 5 0 0 0 - - -, f 5;
#X obj 234 54 outlet;
#X msg 234 30 0;
#X obj 185 28 outlet;
#X obj 273 -293 inlet;
#X obj 167 -216 until;
#X obj 196 -279 bng 15 250 50 0 empty empty empty 17 7 0 10 -262144
-1 -1;
#X obj 297 -42 % 17;
#X msg 249 -69 0;
#X obj 196 -254 t b b b b;
#X obj 167 -85 sel 19;
#X obj 222 -141 % 20;
#X obj 234 4 sel 16;
#X connect 0 0 5 0;
#X connect 0 0 18 0;
#X connect 1 0 0 0;
#X connect 1 0 2 0;
#X connect 2 0 19 0;
#X connect 3 0 14 0;
#X connect 4 0 1 1;
#X connect 6 0 7 0;
#X connect 6 0 8 0;
#X connect 7 0 15 0;
#X connect 8 0 11 0;
#X connect 8 0 20 0;
#X connect 10 0 9 0;
#X connect 13 0 1 0;
#X connect 14 0 17 0;
#X connect 15 0 6 1;
#X connect 16 0 6 1;
#X connect 17 0 13 0;
#X connect 17 1 4 0;
#X connect 17 2 6 0;
#X connect 17 3 16 0;
#X connect 18 0 6 0;
#X connect 19 0 1 1;
#X connect 20 0 10 0;
#X connect 20 0 13 1;
#X restore 51 197 pd count;
#X floatatom 51 222 5 0 0 0 - - -, f 5;
#X obj 51 172 t f b;
#X floatatom 92 222 5 0 0 0 - - -, f 5;
#X obj 51 284 pack f f;
#X obj 51 358 s countsignal;
#X obj 51 252 swap;
#X obj 150 338 print;
#X obj 51 102 tgl 15 0 empty start empty 17 7 0 10 -258113 -1 -1 0
1;
#X obj 91 29 inlet;
#X obj 92 54 sel 0 1 2 3;
#X obj 51 134 metro 1000;
#X obj 150 315 spigot;
#X obj 183 291 tgl 15 0 empty empty empty 17 7 0 10 -262144 -1 -1 0
1;
#X obj 29 134 bng 15 250 50 0 empty step empty 17 7 0 10 -258113 -1
-1;
#X obj 147 149 s lengh;
#X msg 87 91 300;
#X msg 123 93 600;
#X msg 157 94 1200;
#X msg 193 93 2400;
#X connect 0 0 1 0;
#X connect 0 1 3 0;
#X connect 1 0 6 0;
#X connect 2 0 0 0;
#X connect 2 1 0 1;
#X connect 3 0 6 1;
#X connect 4 0 5 0;
#X connect 4 0 12 0;
#X connect 6 0 4 0;
#X connect 6 1 4 1;
#X connect 8 0 11 0;
#X connect 9 0 10 0;
#X connect 10 0 16 0;
#X connect 10 1 17 0;
#X connect 10 2 18 0;
#X connect 10 3 19 0;
#X connect 11 0 2 0;
#X connect 12 0 7 0;
#X connect 13 0 12 1;
#X connect 14 0 2 0;
#X connect 16 0 11 1;
#X connect 16 0 15 0;
#X connect 17 0 11 1;
#X connect 17 0 15 0;
#X connect 18 0 11 1;
#X connect 18 0 15 0;
#X connect 19 0 11 1;
#X connect 19 0 15 0;
