#N canvas 391 22 551 781 12;
#X msg 30 119 clear \, rule 1 2 3 2 \, rule 2 3 3 1 \, rule 3 2 1;
#X msg 46 199 1;
#X obj 28 353 s-lsystem 2;
#X obj 123 267 + 1;
#X obj 78 267 f;
#X obj 46 225 t f b;
#X floatatom 123 294 5 0 0 0 - - -;
#X msg 96 231 0;
#X obj 29 491 list;
#X obj 28 416 list prepend;
#X obj 96 203 r res;
#X obj 109 388 r res;
#X obj 54 457 r res;
#N canvas 0 22 450 300 (subpatch) 0;
#X array lsys 375 float 2;
#X coords 0 4 375 0 200 140 1;
#X restore 289 503 graph;
#X obj 29 708 list prepend 0;
#X obj 29 740 s lsys;
#X msg 53 57 \; res bang \; lsys const 0 \;;
#X obj 29 22 loadbang;
#X obj 61 582 list length;
#X floatatom 61 615 5 0 0 0 - - -;
#X msg 61 648 resize \$1;
#X obj 60 681 s lsys;
#X obj 29 553 t l l;
#X text 85 145 click for each generation;
#X obj 41 523 print;
#X text 126 416 prepend new to old list;
#X text 140 706 set 0 as first list element for index offset in table
;
#X obj 109 22 r rest;
#X obj 133 354 s rest;
#X text 221 265 no. of generation;
#X text 219 284 (stack overflow >6 generations);
#X obj 169 266 mod 6;
#X obj 133 325 == 6;
#X obj 46 145 key;
#X obj 46 172 sel 32;
#X connect 0 0 2 0;
#X connect 1 0 5 0;
#X connect 2 0 9 0;
#X connect 3 0 6 0;
#X connect 3 0 31 0;
#X connect 4 0 3 0;
#X connect 5 0 2 0;
#X connect 5 1 4 0;
#X connect 6 0 2 1;
#X connect 6 0 32 0;
#X connect 7 0 4 1;
#X connect 8 0 9 1;
#X connect 8 0 22 0;
#X connect 8 0 24 0;
#X connect 9 0 8 0;
#X connect 10 0 7 0;
#X connect 11 0 9 1;
#X connect 12 0 8 1;
#X connect 14 0 15 0;
#X connect 17 0 16 0;
#X connect 17 0 0 0;
#X connect 18 0 19 0;
#X connect 19 0 20 0;
#X connect 20 0 21 0;
#X connect 22 0 14 0;
#X connect 22 1 18 0;
#X connect 27 0 16 0;
#X connect 31 0 4 1;
#X connect 32 0 28 0;
#X connect 33 0 34 0;
#X connect 34 0 1 0;
