#N canvas 158 75 927 888 12;
#X obj 37 546 qlist;
#X msg 37 155 next;
#X obj 147 350 loadbang;
#X text 98 563 This outlet gets a bang when you hit the end of the sequence.;
#X floatatom 223 668 5 0 0 0 - - - 0;
#X obj 223 641 r send2;
#X text 25 722 the corresponding send objects (send1 \, send2) are listed as the second argument in the qlist file;
#X obj 107 183 bng 15 250 50 0 empty autobang empty 0 -6 0 8 #fcfcfc #000000 #000000;
#X msg 131 321 tempo \$1;
#X text 130 180 automatic sequencing;
#X obj 144 421 bng 15 250 50 0 empty empty empty 0 -6 0 8 #fcfcfc #000000 #000000;
#X obj 144 443 openpanel;
#X msg 144 470 read \$1;
#X text 30 607 ___________________________________________________________;
#X text 206 508 go to beginning (and stop);
#X msg 144 511 rewind;
#X msg 131 236 0.5;
#X msg 153 291 2;
#X text 36 23 Stepping sequences with [qlist];
#X text 36 61 The [qlist] object reads text files containing time-tagged Pd messages.;
#X obj 225 692 hsl 128 15 0 8 0 0 empty empty empty -2 -8 0 10 #fcfcfc #000000 #000000 0 1;
#X floatatom 66 668 5 0 0 0 - - - 0;
#X obj 68 692 hsl 128 15 0 8 0 0 empty empty empty -2 -8 0 10 #fcfcfc #000000 #000000 0 1;
#X obj 66 641 r send1;
#X obj 37 102 key;
#X obj 37 128 sel 32;
#X text 91 128 single-step forward with the space-bar;
#X msg 143 263 1;
#X text 290 378 read file (the file is called with its path);
#X msg 88 155 print;
#X text 141 156 print qlist to PD window;
#X obj 69 574 bng 15 250 50 0 autobang empty empty 17 7 0 10 #fcfcfc #000000 #000000;
#X text 223 442 alternatively any qlist textfile can be opened via the file browser;
#X msg 147 377 read 01-step.txt;
#X msg 121 206 clear;
#X text 198 250 relative tempo: divisor for the first argument (delay until the next event in msecs) in the qlist file: 0.5 = half speed \, 2 = double speed;
#X connect 0 1 31 0;
#X connect 1 0 0 0;
#X connect 2 0 33 0;
#X connect 4 0 20 0;
#X connect 5 0 4 0;
#X connect 7 0 0 0;
#X connect 8 0 0 0;
#X connect 10 0 11 0;
#X connect 11 0 12 0;
#X connect 12 0 0 0;
#X connect 15 0 0 0;
#X connect 16 0 8 0;
#X connect 17 0 8 0;
#X connect 21 0 22 0;
#X connect 23 0 21 0;
#X connect 24 0 25 0;
#X connect 25 0 1 0;
#X connect 27 0 8 0;
#X connect 29 0 0 0;
#X connect 31 0 15 0;
#X connect 33 0 0 0;
#X connect 34 0 0 0;
