#N canvas 289 164 574 724 12;
#X obj 69 266 + 1;
#X floatatom 36 494 5 0 0 1 ID_in_array_(x) - - 0;
#X obj 36 520 tabread mytable;
#X floatatom 36 293 5 0 0 1 Modulo\ counter\ 0\ -\ 127 - - 0;
#X obj 306 356 until;
#X obj 369 447 f;
#X obj 406 447 + 1;
#X obj 440 448 mod;
#X obj 306 321 t f f;
#X obj 304 381 t b b;
#X msg 306 294 128;
#X obj 261 501 tabwrite mytable;
#X floatatom 36 547 5 0 0 1 Values_(y)\ =\ freq - - 0;
#X obj 306 262 loadbang;
#X obj 36 265 f;
#X obj 105 266 mod 128;
#X obj 36 574 osc~;
#X obj 36 656 dac~;
#X obj 78 594 hsl 162 19 0 1 0 0 empty vol Volume -2 -10 0 12 #fcfcfc #000000 #000000 0 1;
#X obj 36 320 vsl 19 162 0 127 0 0 empty empty empty 0 -9 0 12 #fcfcfc #000000 #000000 0 1;
#X obj 261 470 + 200;
#X text 38 29 Define an array with a size of 128 (0 - 127);
#X obj 261 441 random 501;
#X text 202 235 Fill the array with numbers from 200 to 700;
#X obj 71 190 hsl 162 19 5 5000 1 1 empty speed Speed\ (5-5000\ msecs) -2 -10 0 12 #fcfcfc #000000 #000000 6982 0;
#X floatatom 68 215 5 0 0 0 - - - 0;
#X obj 36 238 metro;
#X obj 406 59 loadbang;
#X obj 406 83 tgl 19 0 empty empty empty 0 -10 0 12 #fcfcfc #000000 #000000 0 1;
#X msg 406 108 \; pd dsp \$1 \; speed 100 \;;
#X obj 36 135 tgl 19 0 vol empty start/stop 0 -10 0 12 #fcfcfc #000000 #000000 0 0.5;
#X obj 36 619 *~ 0.5;
#X text 340 294 Fill new.;
#X obj 37 77 array define -yrange 200 700 mytable 128;
#X text 37 47 for y-values between 200 and 700 (frequencies);
#X connect 0 0 15 0;
#X connect 1 0 2 0;
#X connect 2 0 12 0;
#X connect 3 0 19 0;
#X connect 4 0 9 0;
#X connect 5 0 6 0;
#X connect 5 0 11 1;
#X connect 6 0 7 0;
#X connect 7 0 5 1;
#X connect 8 0 4 0;
#X connect 8 1 7 1;
#X connect 9 0 22 0;
#X connect 9 1 5 0;
#X connect 10 0 8 0;
#X connect 12 0 16 0;
#X connect 13 0 10 0;
#X connect 14 0 0 0;
#X connect 14 0 3 0;
#X connect 15 0 14 1;
#X connect 16 0 31 0;
#X connect 18 0 31 1;
#X connect 19 0 1 0;
#X connect 20 0 11 0;
#X connect 22 0 20 0;
#X connect 24 0 25 0;
#X connect 25 0 26 1;
#X connect 26 0 14 0;
#X connect 27 0 28 0;
#X connect 28 0 29 0;
#X connect 30 0 26 0;
#X connect 31 0 17 0;
#X connect 31 0 17 1;
