#N canvas 116 168 661 579 12;
#X obj 76 259 until;
#X msg 76 189 100;
#X obj 162 345 f;
#X obj 32 345 random 100;
#X obj 199 345 + 1;
#X obj 236 346 mod;
#X obj 115 222 t f f;
#X obj 76 285 t b b;
#X msg 36 47 const 0;
#X floatatom 299 245 7 0 100 3 value - - 0;
#X obj 300 125 bng 15 250 50 0 empty empty bang_to_find_maximum 17 7 0 12 #fcfcfc #000000 #000000;
#X floatatom 313 150 5 0 0 1 onset\ =\ start\ ID\ (default\ 0) - - 0;
#X floatatom 368 170 5 0 0 1 number_of_points\ from\ start-ID - - 0;
#X floatatom 437 246 5 0 100 3 index - - 0;
#X floatatom 296 389 7 0 100 3 value - - 0;
#X obj 297 292 bng 15 250 50 0 empty empty bang_to_find_minimum 17 7 0 12 #fcfcfc #000000 #000000;
#X floatatom 313 316 5 0 0 1 onset - - 0;
#X floatatom 365 339 5 0 0 1 number_of_points - - 0;
#X floatatom 434 388 5 0 100 3 index - - 0;
#X text 102 47 Define a new array with y-values from 0 to 99 \, all set to 0;
#X text 37 148 Write random numbers to array;
#X floatatom 312 471 5 1 100 0 - - - 0;
#X obj 297 446 bng 15 250 50 0 empty empty empty 17 7 0 10 #fcfcfc #000000 #000000;
#X text 357 470 number to set size;
#X text 321 445 bang outputs size;
#X floatatom 297 531 10 0 0 1 length_in_samples - - 0;
#X obj 32 373 tabwrite test-array;
#X obj 300 219 array max test-array;
#X obj 297 363 array min test-array;
#X obj 297 500 array size test-array;
#X obj 36 77 array define -yrange 0 99 test-array 100;
#X text 372 191 (default -1 for the end of the array);
#X connect 0 0 7 0;
#X connect 1 0 0 0;
#X connect 1 0 6 0;
#X connect 2 0 4 0;
#X connect 2 0 26 1;
#X connect 3 0 26 0;
#X connect 4 0 5 0;
#X connect 5 0 2 1;
#X connect 6 0 0 0;
#X connect 6 1 5 1;
#X connect 7 0 3 0;
#X connect 7 1 2 0;
#X connect 8 0 30 0;
#X connect 10 0 27 0;
#X connect 11 0 27 0;
#X connect 12 0 27 1;
#X connect 15 0 28 0;
#X connect 16 0 28 0;
#X connect 17 0 28 1;
#X connect 21 0 29 0;
#X connect 22 0 29 0;
#X connect 27 0 9 0;
#X connect 27 1 13 0;
#X connect 28 0 14 0;
#X connect 28 1 18 0;
#X connect 29 0 25 0;
