#N canvas 761 658 420 692 12;
#X declare -path abs;
#X obj 71 389 euclid 5 0 8;
#X obj 71 104 tgl 15 0 empty empty empty 17 7 0 10 #fcfcfc #000000 #000000 0 1;
#X obj 71 166 f;
#X obj 115 166 + 1;
#X obj 71 137 metro 200;
#X floatatom 131 112 5 0 0 0 - - - 0;
#X floatatom 98 306 5 0 0 0 - - - 0;
#X floatatom 125 364 5 0 0 0 - - - 0;
#X floatatom 155 212 5 0 0 0 - - - 0;
#X obj 71 418 bng 15 250 50 0 empty empty empty 17 7 0 10 #fcfcfc #000000 #000000;
#X obj 134 89 hsl 100 15 100 199 0 0 empty empty speed\ (msecs) -2 -8 0 10 #fcfcfc #000000 #000000 0 1;
#X obj 101 254 hsl 100 15 1 100 0 0 empty empty number\ of\ hits\ per\ bar -2 -8 0 10 #fcfcfc #000000 #000000 0 1;
#X obj 128 344 hsl 100 15 0 99 0 0 empty empty rhythm\ offset/rotation -2 -8 0 10 #fcfcfc #000000 #000000 0 1;
#X obj 158 192 hsl 100 15 1 100 0 0 empty empty specify\ length\ of\ bar -2 -8 0 10 #fcfcfc #000000 #000000 0 1;
#X obj 98 282 min;
#X obj 269 87 declare -path abs;
#X obj 237 24 bng 16 250 50 0 empty empty empty 0 -8 0 10 #fcfcfc #000000 #000000;
#N canvas 266 291 534 172 info 0;
#X obj 37 37 inlet;
#X msg 37 65 browse https://cgm.cs.mcgill.ca/~godfried/publications/banff.pdf;
#X obj 37 103 pdcontrol;
#X connect 0 0 1 0;
#X connect 1 0 2 0;
#X restore 237 45 pd info;
#X text 75 33 Euclidean Rhythms;
#X obj 71 587 osc~;
#X obj 71 653 dac~;
#X obj 71 462 + 100;
#X obj 71 438 random 200;
#X obj 71 488 t f b b;
#X obj 117 587 line~;
#X obj 71 616 *~;
#X msg 94 561 1 5;
#X obj 117 514 del 50;
#X msg 117 538 0 100;
#X connect 0 0 9 0;
#X connect 1 0 4 0;
#X connect 2 0 3 0;
#X connect 2 0 0 0;
#X connect 3 0 2 1;
#X connect 4 0 2 0;
#X connect 5 0 4 1;
#X connect 6 0 0 1;
#X connect 7 0 0 2;
#X connect 8 0 0 3;
#X connect 8 0 14 1;
#X connect 9 0 22 0;
#X connect 10 0 5 0;
#X connect 11 0 14 0;
#X connect 12 0 7 0;
#X connect 13 0 8 0;
#X connect 14 0 6 0;
#X connect 16 0 17 0;
#X connect 19 0 25 0;
#X connect 21 0 23 0;
#X connect 22 0 21 0;
#X connect 23 0 19 0;
#X connect 23 1 26 0;
#X connect 23 2 27 0;
#X connect 24 0 25 1;
#X connect 25 0 20 0;
#X connect 25 0 20 1;
#X connect 26 0 24 0;
#X connect 27 0 28 0;
#X connect 28 0 24 0;
