#N canvas 247 38 604 688 12;
#X obj 125 305 / 64;
#X floatatom 125 329 7 0 0 0 - - - 0;
#X obj 125 351 osc~;
#X obj 197 457 rfft~;
#X obj 197 506 *~;
#X obj 233 507 *~;
#X obj 196 547 +~;
#X obj 196 584 sqrt~;
#X obj 196 643 print~;
#X obj 213 618 bng 15 250 50 0 empty empty empty 0 -6 0 8 #fcfcfc #000000 #000000;
#X obj 124 406 *~;
#X obj 142 379 tabreceive~ hanning;
#N canvas 288 330 450 300 (subpatch) 0;
#X array hanning 64 float 1;
#A 0 0 0.00240764 0.00960734 0.0215298 0.0380601 0.0590392 0.0842649 0.113494 0.146446 0.182803 0.222214 0.264301 0.308658 0.354857 0.402455 0.450991 0.5 0.549009 0.597545 0.645143 0.691342 0.735699 0.777786 0.817197 0.853554 0.886506 0.915736 0.940961 0.96194 0.978471 0.990393 0.997593 1 0.997592 0.990392 0.978469 0.961939 0.940959 0.915733 0.886503 0.853551 0.817194 0.777782 0.735695 0.691338 0.645139 0.597541 0.549004 0.499996 0.450987 0.40245 0.354853 0.308654 0.264297 0.222211 0.182799 0.146443 0.113491 0.084262 0.0590366 0.038058 0.0215281 0.00960615 0.00240701;
#X coords 0 1 63 0 200 140 1 0 0;
#X restore 376 519 graph;
#X obj 404 301 samplerate~;
#X obj 404 327 / 64;
#X obj 404 385 osc~;
#X obj 404 411 *~ -0.5;
#X obj 404 438 +~ 0.5;
#X obj 389 471 tabwrite~ hanning;
#X msg 498 300 0;
#X text 63 20 Windowed analysis;
#X obj 388 162 loadbang;
#X msg 420 216 \; pd dsp 1 \;;
#X obj 388 260 bng 15 250 50 0 empty empty empty 17 7 0 10 #fcfcfc #000000 #000000;
#X obj 388 190 t b b;
#X text 412 257 create hanning window;
#X text 245 582 magnitude;
#X text 62 46 To reduce spectral leackage the signal is windowed before analysis.;
#X obj 47 460 rfft~;
#X obj 47 509 *~;
#X obj 83 510 *~;
#X obj 46 550 +~;
#X obj 46 587 sqrt~;
#X obj 46 646 print~;
#X obj 63 621 bng 15 250 50 0 empty empty empty 0 -6 0 8 #fcfcfc #000000 #000000;
#X text 95 585 magnitude;
#X text 90 618 non windowed;
#X text 473 423 unipolar;
#X floatatom 404 356 5 0 0 0 - - - 0;
#X text 240 615 windowed version;
#N canvas 752 265 443 120 credits 0;
#X text 20 15 Johannes Kreidler;
#X text 24 40 www.pd-tutorial.com;
#X text 23 66 http://www.pd-tutorial.com/english/ch03s08.html;
#X restore 432 15 pd credits;
#X msg 125 133 1.436;
#X obj 125 85 loadbang;
#X obj 128 157 hsl 128 15 1 32 0 0 empty empty empty -2 -8 0 10 #00ff04 #000000 #000000 0 1;
#X obj 157 234 samplerate~;
#X floatatom 157 258 10 0 0 0 - - - 0;
#X obj 125 109 bng 19 250 50 0 empty empty empty 0 -10 0 12 #fcfcfc #000000 #000000;
#X obj 125 281 *, f 5;
#X obj 125 211 t f b;
#X floatatom 125 182 9 0 0 0 - - - 0;
#X connect 0 0 1 0;
#X connect 1 0 2 0;
#X connect 2 0 10 0;
#X connect 2 0 28 0;
#X connect 3 0 4 0;
#X connect 3 0 4 1;
#X connect 3 1 5 0;
#X connect 3 1 5 1;
#X connect 4 0 6 0;
#X connect 5 0 6 1;
#X connect 6 0 7 0;
#X connect 7 0 8 0;
#X connect 9 0 8 0;
#X connect 10 0 3 0;
#X connect 11 0 10 1;
#X connect 13 0 14 0;
#X connect 14 0 38 0;
#X connect 15 0 16 0;
#X connect 16 0 17 0;
#X connect 17 0 18 0;
#X connect 19 0 15 1;
#X connect 21 0 24 0;
#X connect 23 0 19 0;
#X connect 23 0 13 0;
#X connect 23 0 18 0;
#X connect 24 0 23 0;
#X connect 24 1 22 0;
#X connect 28 0 29 0;
#X connect 28 0 29 1;
#X connect 28 1 30 0;
#X connect 28 1 30 1;
#X connect 29 0 31 0;
#X connect 30 0 31 1;
#X connect 31 0 32 0;
#X connect 32 0 33 0;
#X connect 34 0 33 0;
#X connect 38 0 15 0;
#X connect 41 0 43 0;
#X connect 42 0 46 0;
#X connect 43 0 49 0;
#X connect 44 0 45 0;
#X connect 45 0 47 1;
#X connect 46 0 41 0;
#X connect 47 0 0 0;
#X connect 48 0 47 0;
#X connect 48 1 44 0;
#X connect 49 0 48 0;
