#N canvas 240 221 703 492 12;
#N canvas 0 22 450 300 (subpatch) 0;
#X array gain 256 float 1;
#A 0 0 0 0 0 0 0 0 0 0 0 0 0 0 0 0 0 0 1.09367 0.592 0 0 0 0 0 0 0 0 0 0 0 0 0 0 0 0 0 1.6455 0 0 0 0 0 0 0 0 0 0 0 0 0 0 0 0 0 0 0 0 0 0 0 0 0 0 0 0 0 0 0 0 0 0 0 0 0 0 0 0 0 0 0 0 0 0 0 0 0 0 0 0 0 0 0 0 0 0 0 0 0 0 0 0 0 0 0 0 0 0 0 0 0 0 0 0 0 0 0 0 0 0 0 0 0 0 0 0 0 0 0 0 0 0 0 0 0 0 0 0 0 0 0 0 0 0 0 0 0 0 0 0 0 0 0 0 0 0 0 0 0 0 0 0 0 0 0 0 0 0 0 0 0 0 0 0 0 0 0 0 0 0 0 0 0 0 0 0 0 0 0 0 0 0 0 0 0 0 0 0 0 0 0 0 0 0 0 0 0 0 0 0 0 0 0 0 0 0 0 0 0 0 0 0 0 0 0 0 0 0 0 0 0 0 0 0 0 0 0 0 0 0 0 0 0 0 0 0 0 0 0 0 0 0 0 0 0 0 0;
#X coords 0 3 255 -0.01 512 60 1 0 0;
#X restore 48 73 graph;
#X text 43 133 0;
#X text 6 121 0.01;
#X text 37 151 0 Hz;
#X obj 38 415 *~;
#X floatatom 56 389 5 0 0 0 - - - 0;
#X obj 39 452 dac~;
#N canvas 0 22 450 300 (subpatch) 0;
#X array hanning 512 float 0;
#X coords 0 1 511 0 200 120 1;
#X restore 467 328 graph;
#X msg 343 356 0;
#X obj 293 379 osc~, f 7;
#X obj 293 331 samplerate~;
#X obj 293 402 *~ -0.5;
#X obj 293 425 +~ 0.5;
#X text 453 320 1;
#X text 446 438 0;
#X text 462 451 0;
#X obj 293 355 / 512;
#X obj 285 308 bng 15 250 50 0 empty empty empty 0 -6 0 8 #fcfcfc #000000 #000000;
#X text 648 454 511;
#N canvas 856 241 462 480 fft-analyse 0;
#X obj 21 122 *~;
#X obj 21 60 inlet~;
#X obj 21 176 rfft~, f 6;
#X obj 21 312 *~;
#X obj 60 311 *~;
#X obj 17 17 block~ 512 4;
#X obj 78 184 *~;
#X obj 21 399 *~;
#X obj 79 210 *~;
#X obj 21 343 rifft~;
#X obj 21 428 outlet~;
#X obj 77 155 tabreceive~ gain;
#X obj 39 97 tabreceive~ hanning;
#X obj 39 372 tabreceive~ hanning;
#X obj 78 242 /~ 512;
#X text 113 196 amplification of array values;
#X text 135 243 normalisation;
#X text 74 131 read a block of a signal from an array continuously;
#X connect 0 0 2 0;
#X connect 1 0 0 0;
#X connect 2 0 3 0;
#X connect 2 1 4 0;
#X connect 3 0 9 0;
#X connect 4 0 9 1;
#X connect 6 0 8 0;
#X connect 6 0 8 1;
#X connect 7 0 10 0;
#X connect 8 0 14 0;
#X connect 9 0 7 0;
#X connect 11 0 6 0;
#X connect 11 0 6 1;
#X connect 12 0 0 1;
#X connect 13 0 7 1;
#X connect 14 0 3 1;
#X connect 14 0 4 1;
#X restore 37 338 pd fft-analyse;
#X obj 285 450 tabwrite~ hanning;
#X text 102 242 audio input;
#X obj 37 206 tgl 20 0 empty empty empty 0 -6 0 8 #00ff04 #000000 #000000 0 0.992126;
#X obj 37 247 t f b;
#X obj 37 310 readsf~ 1;
#X msg 71 206 1;
#X obj 59 368 hsl 128 15 0 2 0 0 empty empty empty -2 -8 0 10 #00ff04 #000000 #000000 0 1;
#X text 570 92 draw filter;
#X text 536 141 256 array values;
#X obj 285 190 loadbang;
#X obj 317 244 tgl 15 0 empty empty empty 17 7 0 10 #fcfcfc #000000 #000000 0 1;
#X obj 285 217 t b b;
#X text 29 64 3;
#X text 129 31 Spectral Filter;
#N canvas 752 265 443 120 credits 0;
#X text 20 15 Johannes Kreidler;
#X text 24 40 www.pd-tutorial.com;
#X text 23 66 http://www.pd-tutorial.com/english/ch03s08.html;
#X restore 473 27 pd credits;
#X msg 69 277 open ../Sounds/1-4.wav;
#X obj 466 273 send gain;
#X msg 466 217 const 1;
#X obj 466 190 loadbang;
#X text 524 217 reset filter array;
#X msg 476 245 const 0;
#X text 102 207 loop;
#X msg 317 270 \; pd dsp \$1 \;;
#X connect 4 0 6 0;
#X connect 4 0 6 1;
#X connect 5 0 4 1;
#X connect 8 0 9 1;
#X connect 9 0 11 0;
#X connect 10 0 16 0;
#X connect 11 0 12 0;
#X connect 12 0 20 0;
#X connect 16 0 9 0;
#X connect 17 0 10 0;
#X connect 17 0 20 0;
#X connect 17 0 8 0;
#X connect 19 0 4 0;
#X connect 22 0 23 0;
#X connect 23 0 24 0;
#X connect 23 1 35 0;
#X connect 24 0 19 0;
#X connect 24 1 25 0;
#X connect 25 0 23 0;
#X connect 26 0 5 0;
#X connect 29 0 31 0;
#X connect 30 0 42 0;
#X connect 31 0 17 0;
#X connect 31 1 30 0;
#X connect 35 0 24 0;
#X connect 37 0 36 0;
#X connect 38 0 37 0;
#X connect 40 0 36 0;
