#N canvas 1277 425 620 376 12;
#X text 103 120 controller #;
#X floatatom 192 184 4 0 127 0 - - - 0;
#X floatatom 215 119 0 1 64 0 - - - 0;
#X obj 249 66 loadbang;
#X obj 249 94 f \$1;
#X floatatom 249 118 5 0 0 0 - - - 0;
#X obj 327 94 + 12;
#X floatatom 327 118 5 0 0 0 - - - 0;
#X obj 405 95 + 12;
#X floatatom 405 119 5 0 0 0 - - - 0;
#X obj 483 96 + 12;
#X floatatom 483 120 5 0 0 0 - - - 0;
#X obj 555 97 + 12;
#X floatatom 555 121 5 0 0 0 - - - 0;
#X obj 231 184 ==;
#X obj 192 245 spigot;
#X obj 309 184 ==;
#X obj 270 244 spigot;
#X obj 387 184 ==;
#X obj 348 244 spigot;
#X obj 465 184 ==;
#X obj 426 244 spigot;
#X obj 537 184 ==;
#X obj 498 244 spigot;
#X text 147 184 value;
#X obj 348 270 s \$1-fader;
#X obj 426 270 s \$1-tog1;
#X obj 498 270 s \$1-tog2;
#X obj 350 302 r \$1-fader;
#X obj 428 301 r \$1-tog1;
#X obj 500 301 r \$1-tog2;
#X floatatom 54 67 3 0 0 0 - \$1-knb1r \$1-knb1s 0;
#X floatatom 54 90 3 0 0 0 - \$1-knb2r \$1-knb2s 0;
#X text 102 27 FaderFox MX12 - Fader interaction;
#X obj 192 67 ctlin, f 7;
#X obj 55 166 vsl 19 162 0 127 0 0 \$1-dummys \$1-dummyr empty 0 -9 0 12 #fcfcfc #000000 #000000 0 1;
#X obj 55 138 tgl 19 0 \$1-dummys \$1-dummyr empty 0 -10 0 12 #fcfcfc #000000 #000000 0 1;
#X obj 55 113 tgl 19 0 \$1-dummys \$1-dummyr empty 0 -10 0 12 #fcfcfc #000000 #000000 0 1;
#X obj 192 271 s \$1-knb1r;
#X obj 192 303 r \$1-knb1s;
#X floatatom 192 327 5 0 0 0 - - - 0;
#X obj 270 270 s \$1-knb2r;
#X obj 271 302 r \$1-knb2s;
#X floatatom 271 326 5 0 0 0 - - - 0;
#X floatatom 350 326 5 0 0 0 - - - 0;
#X floatatom 428 325 5 0 0 0 - - - 0;
#X floatatom 500 325 5 0 0 0 - - - 0;
#X connect 1 0 15 0;
#X connect 1 0 17 0;
#X connect 1 0 19 0;
#X connect 1 0 21 0;
#X connect 1 0 23 0;
#X connect 2 0 14 0;
#X connect 2 0 16 0;
#X connect 2 0 18 0;
#X connect 2 0 20 0;
#X connect 2 0 22 0;
#X connect 3 0 4 0;
#X connect 4 0 5 0;
#X connect 5 0 6 0;
#X connect 5 0 14 1;
#X connect 6 0 7 0;
#X connect 7 0 8 0;
#X connect 7 0 16 1;
#X connect 8 0 9 0;
#X connect 9 0 10 0;
#X connect 9 0 18 1;
#X connect 10 0 11 0;
#X connect 11 0 12 0;
#X connect 11 0 20 1;
#X connect 12 0 13 0;
#X connect 13 0 22 1;
#X connect 14 0 15 1;
#X connect 15 0 38 0;
#X connect 16 0 17 1;
#X connect 17 0 41 0;
#X connect 18 0 19 1;
#X connect 19 0 25 0;
#X connect 20 0 21 1;
#X connect 21 0 26 0;
#X connect 22 0 23 1;
#X connect 23 0 27 0;
#X connect 28 0 35 0;
#X connect 28 0 44 0;
#X connect 29 0 37 0;
#X connect 29 0 45 0;
#X connect 30 0 36 0;
#X connect 30 0 46 0;
#X connect 34 0 1 0;
#X connect 34 1 2 0;
#X connect 39 0 40 0;
#X connect 42 0 43 0;
#X coords 0 -1 1 1 30 300 2 50 50;
