#N canvas 1323 481 568 504 12;
#X obj 31 128 clone -s 1 fader-mx12 12;
#X text 191 75 (all controllers \, omni);
#X obj 243 99 midiin;
#X floatatom 243 128 4 0 127 0 - - - 0;
#X floatatom 282 128 4 0 127 0 - - - 0;
#X text 30 21 FaderFox MX12;
#X obj 31 70 tgl 19 0 empty empty empty 0 -10 0 12 #fcfcfc #000000 #000000 0 1;
#X obj 32 190 fader-mx12 1;
#X obj 62 190 fader-mx12 2;
#X obj 92 190 fader-mx12 3;
#X obj 122 190 fader-mx12 4;
#X obj 164 190 fader-mx12 5;
#X obj 194 190 fader-mx12 6;
#X obj 224 190 fader-mx12 7;
#X obj 254 190 fader-mx12 8;
#X obj 297 190 fader-mx12 9;
#X obj 327 190 fader-mx12 10;
#X obj 357 190 fader-mx12 11;
#X obj 387 190 fader-mx12 12;
#X obj 445 257 ctlin, f 7;
#X obj 468 309 == 61;
#X obj 445 339 spigot;
#X floatatom 445 363 5 0 0 0 - - - 0;
#X obj 445 386 s \$0-main-knob;
#X text 444 235 main knob;
#X msg 31 98 vis 1 \$1;
#X connect 2 0 3 0;
#X connect 2 1 4 0;
#X connect 6 0 25 0;
#X connect 19 0 21 0;
#X connect 19 1 20 0;
#X connect 20 0 21 1;
#X connect 21 0 22 0;
#X connect 22 0 23 0;
#X connect 25 0 0 0;
