#N canvas 887 235 667 470 10;
#X obj 25 392 *~;
#X obj 107 394 *~;
#X obj 247 304 line~;
#X obj 247 332 cos~;
#X obj 164 302 line~;
#X obj 164 330 cos~;
#X obj 163 276 pack;
#X obj 162 221 t f b;
#X msg 206 248 10;
#X obj 247 277 pack;
#X msg 320 248 10;
#X text 300 333 scale by cosine of pan angle: constant-power;
#X text 146 394 change gain for channel according to constant-power
formula;
#X text 315 114 control input: pan angle;
#X text 202 175 scale to 0 <= n <= 0.25 (for idiosyncratic pd cos~
object);
#X text 302 221 shift right channel 90 degrees in phase from left;
#X text 298 277 combine angle with 10 msec ramp time in a list;
#X text 307 303 create smooth (10 msec) transition to new pan angle
;
#X obj 247 249 - 0.25;
#X text 133 72 turn on and off noise generator;
#X obj 245 221 t f b;
#X text 361 130 0 = left \, 1 = right;
#X obj 161 177 / 4;
#X text 355 430 (C) 2005 Christopher Burns;
#X obj 518 37 loadbang;
#X text 33 21 Equal power panning;
#X obj 185 22 r \$1-pan;
#X obj 150 100 cnv 15 160 50 empty empty Panorama 50 12 0 12 -191407
-66577 0;
#X obj 165 124 hsl 128 15 0 1 0 0 dummy set-pan empty -2 -6 0 8 -262144
-1 -1 6350 1;
#X text 158 105 L;
#X text 288 106 R;
#X obj 27 257 inlet~;
#X obj 24 429 throw~ bus1;
#X obj 111 429 throw~ bus2;
#X obj 185 48 line;
#X msg 518 72 \; set-pan 0.5 \;;
#X connect 0 0 32 0;
#X connect 1 0 33 0;
#X connect 2 0 3 0;
#X connect 3 0 1 1;
#X connect 4 0 5 0;
#X connect 5 0 0 1;
#X connect 6 0 4 0;
#X connect 7 0 6 0;
#X connect 7 1 8 0;
#X connect 8 0 6 1;
#X connect 9 0 2 0;
#X connect 10 0 9 1;
#X connect 18 0 9 0;
#X connect 20 0 18 0;
#X connect 20 1 10 0;
#X connect 22 0 7 0;
#X connect 22 0 20 0;
#X connect 24 0 35 0;
#X connect 26 0 34 0;
#X connect 28 0 22 0;
#X connect 31 0 0 0;
#X connect 31 0 1 0;
#X connect 34 0 28 0;
#X coords 0 -1 1 1 160 50 1 150 100;
