#N canvas 374 164 485 624 12;
#X obj 108 303 + 1;
#X obj 69 303 f;
#X obj 69 330 hradio 15 1 0 16 empty empty empty 0 -6 0 8 #fcfcfc #000000 #000000 0;
#X text 57 18 Old-Skool 16-step sequencer. Output is bangs \, which can be used to trigger samples \, etc., f 46;
#X obj 69 275 metro;
#X floatatom 69 354 5 0 0 0 - - - 0;
#X floatatom 101 114 5 0 0 1 Beats_per_minute - - 0;
#X obj 101 137 t b f;
#X obj 101 194 /;
#X msg 101 163 60;
#X obj 101 224 * 1000;
#X floatatom 101 252 5 0 0 0 - - - 0;
#X obj 69 381 select 0 1 2 3 4 5 6 7 8 9 10 11 12 13 14 15;
#X obj 69 408 bng 15 250 50 0 empty empty empty 17 7 0 10 #fcfcfc #000000 #000000;
#X obj 150 304 mod 16;
#X obj 196 572 dac~;
#N canvas 0 22 184 259 ran-sin 0;
#X obj 37 37 inlet;
#X obj 36 75 random 500;
#X obj 36 136 osc~;
#X obj 56 168 del 100;
#X msg 97 138 0;
#X obj 36 106 + 300;
#X obj 37 208 outlet~;
#X connect 0 0 1 0;
#X connect 1 0 5 0;
#X connect 2 0 6 0;
#X connect 3 0 4 0;
#X connect 4 0 2 0;
#X connect 5 0 2 0;
#X connect 5 0 3 0;
#X restore 69 457 pd ran-sin;
#X obj 107 408 bng 15 250 50 0 empty empty empty 17 7 0 10 #fcfcfc #000000 #000000;
#N canvas 730 755 310 469 ran-sin 0;
#X obj 37 37 inlet;
#X obj 36 75 random 500;
#X obj 36 136 osc~;
#X msg 97 138 0;
#X obj 36 106 + 300;
#X obj 37 208 outlet~;
#X obj 97 108 delay 200;
#X connect 0 0 1 0;
#X connect 0 0 6 0;
#X connect 1 0 4 0;
#X connect 2 0 5 0;
#X connect 3 0 2 0;
#X connect 4 0 2 0;
#X connect 6 0 3 0;
#X restore 107 429 pd ran-sin;
#N canvas 0 22 184 259 ran-sin 0;
#X obj 37 37 inlet;
#X obj 36 75 random 500;
#X obj 36 136 osc~;
#X obj 56 168 del 100;
#X msg 97 138 0;
#X obj 36 106 + 300;
#X obj 37 208 outlet~;
#X connect 0 0 1 0;
#X connect 1 0 5 0;
#X connect 2 0 6 0;
#X connect 3 0 4 0;
#X connect 4 0 2 0;
#X connect 5 0 2 0;
#X connect 5 0 3 0;
#X restore 145 457 pd ran-sin;
#X obj 221 412 bng 15 250 50 0 empty empty empty 17 7 0 10 #fcfcfc #000000 #000000;
#N canvas 0 22 184 259 ran-sin 0;
#X obj 37 37 inlet;
#X obj 36 75 random 500;
#X obj 36 136 osc~;
#X obj 56 168 del 100;
#X msg 97 138 0;
#X obj 36 106 + 300;
#X obj 37 208 outlet~;
#X connect 0 0 1 0;
#X connect 1 0 5 0;
#X connect 2 0 6 0;
#X connect 3 0 4 0;
#X connect 4 0 2 0;
#X connect 5 0 2 0;
#X connect 5 0 3 0;
#X restore 221 432 pd ran-sin;
#X obj 335 410 bng 15 250 50 0 empty empty empty 17 7 0 10 #fcfcfc #000000 #000000;
#N canvas 0 22 184 259 ran-sin 0;
#X obj 37 37 inlet;
#X obj 36 75 random 500;
#X obj 36 136 osc~;
#X obj 56 168 del 100;
#X msg 97 138 0;
#X obj 36 106 + 300;
#X obj 37 208 outlet~;
#X connect 0 0 1 0;
#X connect 1 0 5 0;
#X connect 2 0 6 0;
#X connect 3 0 4 0;
#X connect 4 0 2 0;
#X connect 5 0 2 0;
#X connect 5 0 3 0;
#X restore 335 433 pd ran-sin;
#X obj 100 60 loadbang;
#X obj 145 408 bng 15 250 50 0 empty empty empty 17 7 0 10 #fcfcfc #000000 #000000;
#N canvas 0 22 184 259 ran-sin 0;
#X obj 37 37 inlet;
#X obj 36 75 random 500;
#X obj 36 136 osc~;
#X obj 56 168 del 100;
#X msg 97 138 0;
#X obj 36 106 + 300;
#X obj 37 208 outlet~;
#X connect 0 0 1 0;
#X connect 1 0 5 0;
#X connect 2 0 6 0;
#X connect 3 0 4 0;
#X connect 4 0 2 0;
#X connect 5 0 2 0;
#X connect 5 0 3 0;
#X restore 258 460 pd ran-sin;
#X msg 100 86 240;
#X obj 258 411 bng 15 250 50 0 empty empty empty 17 7 0 10 #fcfcfc #000000 #000000;
#N canvas 0 22 184 259 ran-sin 0;
#X obj 37 37 inlet;
#X obj 36 75 random 500;
#X obj 36 136 osc~;
#X obj 56 168 del 100;
#X msg 97 138 0;
#X obj 36 106 + 300;
#X obj 37 208 outlet~;
#X connect 0 0 1 0;
#X connect 1 0 5 0;
#X connect 2 0 6 0;
#X connect 3 0 4 0;
#X connect 4 0 2 0;
#X connect 5 0 2 0;
#X connect 5 0 3 0;
#X restore 354 458 pd ran-sin;
#X obj 354 410 bng 15 250 50 0 empty empty empty 17 7 0 10 #fcfcfc #000000 #000000;
#X obj 69 247 tgl 19 0 empty empty empty 0 -10 0 12 #c6ffc7 #ff0400 #000000 0 1;
#X obj 322 97 tgl 19 0 empty empty empty 0 -10 0 12 #fcfcfc #000000 #000000 0 1;
#X msg 322 121 \; pd dsp \$1;
#X connect 0 0 14 0;
#X connect 1 0 0 0;
#X connect 1 0 2 0;
#X connect 2 0 5 0;
#X connect 4 0 1 0;
#X connect 5 0 12 0;
#X connect 6 0 7 0;
#X connect 7 0 9 0;
#X connect 7 1 8 1;
#X connect 8 0 10 0;
#X connect 9 0 8 0;
#X connect 10 0 11 0;
#X connect 11 0 4 1;
#X connect 12 0 13 0;
#X connect 12 2 17 0;
#X connect 12 4 25 0;
#X connect 12 8 20 0;
#X connect 12 10 28 0;
#X connect 12 14 22 0;
#X connect 12 15 30 0;
#X connect 13 0 16 0;
#X connect 14 0 1 1;
#X connect 16 0 15 0;
#X connect 17 0 18 0;
#X connect 18 0 15 1;
#X connect 19 0 15 0;
#X connect 20 0 21 0;
#X connect 21 0 15 1;
#X connect 22 0 23 0;
#X connect 23 0 15 1;
#X connect 24 0 27 0;
#X connect 25 0 19 0;
#X connect 26 0 15 0;
#X connect 27 0 6 0;
#X connect 28 0 26 0;
#X connect 29 0 15 1;
#X connect 30 0 29 0;
#X connect 31 0 4 0;
#X connect 32 0 33 0;
