#N canvas 681 447 407 628 12;
#X obj 33 14 hsl 128 15 0 127 0 0 empty empty empty -2 -8 0 10 #fcfcfc #000000 #000000 0 1;
#N canvas 0 22 450 300 show 0;
#X obj 41 39 inlet;
#X obj 153 39 inlet;
#X obj 41 124 outlet;
#X msg 153 79 set;
#X obj 41 59 list prepend set;
#X obj 41 83 list trim;
#X connect 0 0 4 0;
#X connect 1 0 3 0;
#X connect 3 0 2 0;
#X connect 4 0 5 0;
#X connect 5 0 2 0;
#X restore 30 146 pd show;
#X msg 30 176 ~/Desktop/testsound-127.wav;
#X obj 30 94 makefilename ~/Desktop/testsound-%d.wav;
#X obj 76 124 bng 15 250 50 0 empty empty Reset 17 7 0 10 #fcfcfc #000000 #000000;
#X obj 31 369 key;
#X obj 31 456 makefilename ~/Desktop/testsound-%s.wav;
#N canvas 0 230 450 300 show 0;
#X obj 41 39 inlet;
#X obj 189 40 inlet;
#X obj 41 124 outlet;
#X msg 189 80 set;
#X obj 41 59 list prepend set;
#X obj 41 83 list trim;
#X connect 0 0 4 0;
#X connect 1 0 3 0;
#X connect 3 0 2 0;
#X connect 4 0 5 0;
#X connect 5 0 2 0;
#X restore 31 515 pd show;
#X obj 77 494 bng 15 250 50 0 empty empty Reset 17 7 0 10 #fcfcfc #000000 #000000;
#X obj 31 427 list tosymbol;
#X msg 31 398 \$1;
#X text 142 115 numbers replace "%d" in string;
#X text 142 477 symbols replace "%s" in string;
#X msg 31 545 ~/Desktop/testsound-.wav;
#X symbolatom 31 305 30 0 0 0 - - - 0;
#X obj 30 229 bng 15 250 50 0 empty empty empty 17 7 0 10 #fcfcfc #000000 #000000;
#X obj 31 248 f;
#X obj 71 248 + 1;
#X obj 31 275 make_pathname ../snd floete;
#X text 234 274 args: <path names>;
#X msg 42 44 set /Users/born/Desktop/%d-newsound.wav;
#X text 123 74 Pathename with relative path;
#X text 169 14 Pathename with absolute path;
#X text 63 369 Pathname with keyboard;
#N canvas 788 813 576 555 concatenate 0;
#X text 330 205 "%s" is replaced by the symbol;
#X text 333 189 here \, "%%" becomes "%" and;
#X msg 168 227 set \$1;
#X obj 142 260 makefilename;
#X msg 142 308 set \$1;
#X obj 75 345 makefilename;
#X msg 168 151 symbol aif;
#X msg 178 177 symbol wav;
#X obj 168 204 makefilename %%d.%s;
#X msg 75 75 symbol testsound;
#X obj 143 286 makefilename /%%s-%s;
#X msg 37 50 symbol Desktop;
#X msg 74 396 set \$1;
#N canvas 0 22 450 300 show 0;
#X obj 41 39 inlet;
#X obj 153 39 inlet;
#X obj 41 124 outlet;
#X msg 153 79 set;
#X obj 41 59 list prepend set;
#X obj 41 83 list trim;
#X connect 0 0 4 0;
#X connect 1 0 3 0;
#X connect 3 0 2 0;
#X connect 4 0 5 0;
#X connect 5 0 2 0;
#X restore 37 476 pd show;
#X msg 37 506 ~/Desktop/testsound-120.wav;
#X obj 83 454 bng 15 250 50 0 empty empty Reset 17 7 0 10 #fcfcfc #000000 #000000;
#X obj 37 431 makefilename;
#X msg 157 122 23;
#X obj 145 101 hsl 128 15 0 127 0 0 empty empty empty -2 -8 0 10 #fcfcfc #000000 #000000 0 1;
#X text 229 228 ... so this becomes "set %d.wav" \, for example.;
#X obj 75 373 makefilename ~/%%s%s;
#X text 206 309 ... so this becomes "set /%s-23.wav".;
#X text 136 397 ... so this becomes "set ~/%s/testsound-23.wav".;
#X text 33 25 Concatenate pathnames;
#X connect 2 0 3 0;
#X connect 3 0 10 0;
#X connect 4 0 5 0;
#X connect 5 0 20 0;
#X connect 6 0 8 0;
#X connect 7 0 8 0;
#X connect 8 0 2 0;
#X connect 9 0 5 0;
#X connect 10 0 4 0;
#X connect 11 0 16 0;
#X connect 12 0 16 0;
#X connect 13 0 14 0;
#X connect 15 0 13 1;
#X connect 16 0 13 0;
#X connect 17 0 3 0;
#X connect 18 0 3 0;
#X connect 20 0 12 0;
#X restore 30 590 pd concatenate pathnames;
#X text 67 398 convert number to list;
#X text 110 248 Pathname abstraction variables;
#X connect 0 0 3 0;
#X connect 1 0 2 0;
#X connect 3 0 1 0;
#X connect 4 0 1 1;
#X connect 5 0 10 0;
#X connect 6 0 7 0;
#X connect 7 0 13 0;
#X connect 8 0 7 1;
#X connect 9 0 6 0;
#X connect 10 0 9 0;
#X connect 15 0 16 0;
#X connect 16 0 17 0;
#X connect 16 0 18 0;
#X connect 17 0 16 1;
#X connect 18 0 14 0;
#X connect 20 0 3 0;
