#N canvas 951 172 567 478 12;
#X text 35 380 If you change one copy of an abstraction the change isn't automatically made on any other copies. You must keep track \, save the changes \, and cause Pd to reload the other copies (for example \, by closing and reopening the containing patch.);
#X obj 43 225 hsl 128 15 0 127 0 0 empty empty empty -2 -6 0 8 #fcfcfc #000000 #000000 0 1;
#X floatatom 40 254 5 0 0 0 - - - 0;
#X floatatom 40 345 5 0 0 0 - - - 0;
#X obj 40 308 scaler 2;
#X floatatom 121 345 5 0 0 0 - - - 0;
#X obj 189 130 dollarsign three 4;
#X text 39 23 Abstractions with arguments;
#X text 36 50 Abstractions can be sent with an optional argument to give each instance of it unique identifiers \, names or variables. An abstraction's creation arguments may be either numbers or symbols.;
#X text 35 173 The abstraction [scaler] is called twice with two different arguments (2 and 4) to scale the number.;
#X obj 122 308 scaler 4;
#X obj 39 130 dollarsign two 3;
#X obj 193 309 scaler 0.5;
#X floatatom 193 346 5 0 0 0 - - - 0;
#X connect 1 0 2 0;
#X connect 2 0 10 0;
#X connect 2 0 12 0;
#X connect 2 0 4 0;
#X connect 4 0 3 0;
#X connect 10 0 5 0;
#X connect 12 0 13 0;
