#N canvas 681 384 543 283 12;
#X floatatom 54 229 0 0 0 0 - - -;
#X floatatom 313 229 0 0 0 0 - - -;
#X text 30 49 You can use dollarsigns in abstractions to get local
sends and receives as shown here.;
#X obj 54 202 r one-a;
#X obj 313 202 r two-a;
#X floatatom 189 230 0 0 0 0 - - -;
#X floatatom 450 230 0 0 0 0 - - -;
#X obj 189 202 r one-b;
#X obj 450 201 r two-b;
#X text 52 172 Open both copies to see what's happening...;
#X floatatom 56 112 0 0 0 0 - - -;
#X floatatom 165 113 0 0 0 0 - - -;
#X floatatom 313 114 0 0 0 0 - - -;
#X floatatom 421 114 0 0 0 0 - - -;
#X text 31 19 named local [send]s and [receive]s;
#X obj 56 141 local_send one;
#X obj 312 142 local_send two;
#X connect 3 0 0 0;
#X connect 4 0 1 0;
#X connect 7 0 5 0;
#X connect 8 0 6 0;
#X connect 10 0 15 0;
#X connect 11 0 15 1;
#X connect 12 0 16 0;
#X connect 13 0 16 1;
