#N canvas 918 769 435 284 12;
#X obj 53 176 variable-options;
#X floatatom 53 207 5 0 0 0 - - - 0;
#X floatatom 54 143 5 0 0 0 - - - 0;
#X obj 54 112 variable-options 200;
#X floatatom 54 78 5 0 0 0 - - - 0;
#X text 52 39 Options for $ variable in abstractions;
#X text 96 79 value set from outside;
#X text 206 113 default value from variable;
#X text 179 176 fixed default value;
#X text 53 241 (c) 2024 AChim Bornhoeft;
#X connect 0 0 1 0;
#X connect 3 0 2 0;
#X connect 4 0 3 0;
