#N canvas 638 260 630 586 12;
#X obj 108 92 inlet;
#X obj 108 195 osc~;
#X obj 108 424 outlet~;
#X obj 108 393 *~;
#X obj 186 291 *~;
#X obj 165 333 *~;
#X obj 207 249 line~;
#X obj 206 204 del 10;
#X obj 108 120 t f b;
#X obj 108 149 mtof;
#X obj 206 226 pack 0 4000;
#X obj 153 176 pack 1 10;
#X obj 428 389 float \$1;
#X obj 428 367 bng 15 250 50 0 empty empty empty 17 7 0 10 -262144
-1 -1;
#X obj 428 411 print;
#X text 191 388 You can access the instance number within the patch:
, f 27;
#X obj 376 291 *;
#X obj 379 246 hsl 128 15 0 1 0 0 empty empty empty -2 -8 0 10 -262144
-1 -1 0 1;
#X floatatom 376 325 5 0 0 0 - - -, f 5;
#X text 218 291 exponential curve;
#X text 30 39 This is the subpatch for the cloning patch. It plays
tones at pitches sent to its inlet.;
#X connect 0 0 8 0;
#X connect 1 0 3 0;
#X connect 3 0 2 0;
#X connect 4 0 5 0;
#X connect 4 0 5 1;
#X connect 5 0 3 1;
#X connect 6 0 4 0;
#X connect 6 0 4 1;
#X connect 7 0 10 0;
#X connect 8 0 9 0;
#X connect 8 1 7 0;
#X connect 8 1 11 0;
#X connect 9 0 1 0;
#X connect 10 0 6 0;
#X connect 11 0 6 0;
#X connect 12 0 14 0;
#X connect 13 0 12 0;
#X connect 16 0 18 0;
#X connect 17 0 16 1;
#X connect 17 0 16 0;
