#N canvas 532 152 511 540 12;
#X floatatom 217 247 5 0 0 0 - - - 0;
#X obj 217 218 + 50;
#X obj 217 192 random 21;
#X obj 217 468 noteout;
#X floatatom 334 431 5 0 0 0 - - - 0;
#X floatatom 217 431 5 0 0 0 - - - 0;
#X obj 217 162 metro 1000;
#X obj 217 404 makenote 80 100;
#X obj 238 326 pipe 250;
#X obj 238 300 + 4;
#X obj 312 326 pipe 500;
#X obj 312 301 + 7;
#X obj 217 142 tgl 15 0 empty empty empty 17 7 0 10 #fcfcfc #000000 #000000 0 1;
#X text 42 31 Take the solution of hw03 (see below) and make an abstraction from it. Make one or more parameters e.g. the random choice \, the rhythms or the durations setable via \$1 \, \$2 \, etc. variable. Make three different instances of it (in a parent patch) which all play at the same time.;
#X connect 0 0 11 0;
#X connect 0 0 7 0;
#X connect 0 0 9 0;
#X connect 1 0 0 0;
#X connect 2 0 1 0;
#X connect 4 0 3 1;
#X connect 5 0 3 0;
#X connect 6 0 2 0;
#X connect 7 0 5 0;
#X connect 7 1 4 0;
#X connect 8 0 7 0;
#X connect 9 0 8 0;
#X connect 10 0 7 0;
#X connect 11 0 10 0;
#X connect 12 0 6 0;
