#N canvas 1510 228 619 821 12;
#X obj 92 490 random;
#X floatatom 238 236 5 0 0 0 - - -, f 5;
#X floatatom 238 369 5 0 0 0 - - -, f 5;
#X msg 238 307 10;
#X obj 137 426 *;
#X obj 92 535 /;
#X obj 238 275 t b f;
#X floatatom 137 236 5 0 0 0 - - -, f 5;
#X floatatom 83 237 5 0 0 0 - - -, f 5;
#X obj 137 266 t b f;
#X obj 137 328 abs;
#X floatatom 137 357 5 0 0 0 - - -, f 5;
#X obj 83 598 +;
#X obj 92 568 t b f;
#X obj 137 299 - 1;
#X obj 238 342 pow 2;
#X obj 137 453 + 1;
#X msg 65 113 20 0 10 3;
#X obj 30 237 until;
#X msg 82 628 add2 \$1;
#X obj 65 148 unpack f f f f;
#X msg 201 626 set;
#X msg 82 730 6.456 9.347 2.074 3.95 3.239 0.686 9.928 3.201 6.382
2.975 2.355 3.146 8.259 3.743 9.224 3.318 3.062 1.989 7.139 0.89 9.148
;
#X obj 201 206 t b f;
#X text 160 112 no. of values \, min \, max (both including) \, decimals
;
#X text 62 48 float random numbers between min and max (including)
with defined decimals.;
#X text 316 689 (c) 2010/2018 Achim Bornhoeft;
#X text 180 453 n+1 value to include max;
#X text 118 599 shift values between min and max;
#X text 174 426 max multiplied by 10^decimals;
#X text 125 535 random number divided by 10^decimals;
#X connect 0 0 5 0;
#X connect 1 0 6 0;
#X connect 2 0 5 1;
#X connect 2 0 4 1;
#X connect 3 0 15 0;
#X connect 4 0 16 0;
#X connect 5 0 13 0;
#X connect 6 0 3 0;
#X connect 6 0 4 0;
#X connect 6 1 15 1;
#X connect 7 0 9 0;
#X connect 8 0 12 0;
#X connect 8 0 14 0;
#X connect 9 0 14 0;
#X connect 9 1 14 1;
#X connect 10 0 11 0;
#X connect 11 0 4 0;
#X connect 12 0 19 0;
#X connect 13 0 12 0;
#X connect 13 1 12 1;
#X connect 14 0 10 0;
#X connect 15 0 2 0;
#X connect 16 0 0 1;
#X connect 17 0 20 0;
#X connect 18 0 0 0;
#X connect 19 0 22 0;
#X connect 20 0 18 0;
#X connect 20 1 8 0;
#X connect 20 2 7 0;
#X connect 20 3 23 0;
#X connect 21 0 22 0;
#X connect 23 0 21 0;
#X connect 23 1 1 0;
