#N canvas 181 66 594 398 12;
#X obj 132 312 f;
#X msg 214 265 1;
#X msg 267 265 -1;
#X floatatom 132 348 5 0 0 0 - - -, f 5;
#X obj 193 312 + 1;
#X floatatom 259 173 5 0 0 0 from - -, f 5;
#X floatatom 312 191 5 0 0 0 to - -, f 5;
#X obj 245 312 t a a;
#X text 27 65 The simple approach is to use two select objects and
change the counter-direction accordingly:;
#X text 34 20 Counting up and down;
#X obj 132 235 tgl 15 0 empty empty empty 17 7 0 10 -262144 -1 -1 0
1;
#X obj 214 203 select;
#X obj 267 233 select;
#X obj 132 265 metro 500;
#X obj 312 101 loadbang;
#X msg 259 146 1;
#X msg 312 164 10;
#X floatatom 312 266 5 0 0 0 - - -, f 5;
#X connect 0 0 3 0;
#X connect 0 0 4 0;
#X connect 1 0 4 1;
#X connect 2 0 4 1;
#X connect 4 0 7 0;
#X connect 5 0 11 1;
#X connect 6 0 12 1;
#X connect 7 0 0 1;
#X connect 7 1 11 0;
#X connect 10 0 13 0;
#X connect 11 0 1 0;
#X connect 11 1 12 0;
#X connect 12 0 2 0;
#X connect 12 1 17 0;
#X connect 13 0 0 0;
#X connect 14 0 16 0;
#X connect 14 0 15 0;
#X connect 15 0 5 0;
#X connect 16 0 6 0;
