#N canvas 226 142 592 408 12;
#X obj 88 259 f;
#X obj 141 259 + 1;
#X obj 195 258 mod 10;
#X obj 88 192 tgl 15 0 empty empty empty 17 7 0 10 -262144 -1 -1 0
1;
#X obj 88 221 metro 100;
#X obj 89 318 print metro-loop1;
#X obj 320 222 f;
#X obj 373 222 + 1;
#X obj 427 221 mod 10;
#X obj 320 160 tgl 15 0 empty empty empty 17 7 0 10 -262144 -1 -1 1
1;
#X obj 320 184 metro 100;
#X obj 320 252 print metro-loop2;
#X text 315 110 Continuous looping;
#X text 86 107 Looping with stop argument;
#X text 92 49 Looping with [metro];
#X obj 88 167 bng 15 250 50 0 empty empty empty 17 7 0 10 -262144 -1
-1;
#X obj 88 135 sel 0;
#X floatatom 195 286 5 0 0 0 - - -, f 5;
#X connect 0 0 1 0;
#X connect 0 0 5 0;
#X connect 1 0 2 0;
#X connect 2 0 0 1;
#X connect 2 0 16 0;
#X connect 2 0 17 0;
#X connect 3 0 4 0;
#X connect 4 0 0 0;
#X connect 6 0 7 0;
#X connect 6 0 11 0;
#X connect 7 0 8 0;
#X connect 8 0 6 1;
#X connect 9 0 10 0;
#X connect 10 0 6 0;
#X connect 15 0 3 0;
#X connect 16 0 15 0;
