#N canvas 548 225 372 535 12;
#X obj 61 495 dac~;
#X obj 101 186 noise~;
#X obj 83 287 *~;
#X obj 101 215 lop~ 0.5;
#X obj 154 151 /~ 2;
#X obj 154 186 snapshot~;
#X obj 216 132 tgl 15 0 empty empty empty 17 7 0 10 #fcfcfc #000000 #000000 0 1;
#X obj 216 152 metro 10;
#X obj 154 125 +~ 1.5;
#X obj 33 186 osc~ 300;
#X obj 154 98 osc~ 0.1;
#X obj 83 311 *~ 12;
#X obj 33 361 *~ 0.3;
#X obj 83 335 *~ 0.3;
#N canvas 0 22 534 507 eq-pwr-mix 0;
#X obj 33 293 *~;
#X obj 89 292 *~;
#X obj 107 209 line~;
#X obj 107 237 cos~;
#X obj 51 207 line~;
#X obj 51 235 cos~;
#X obj 50 181 pack;
#X obj 46 93 t f b;
#X msg 75 153 10;
#X obj 107 182 pack;
#X msg 132 154 10;
#X obj 107 124 - 0.25;
#X obj 107 92 t f b;
#X obj 107 62 / 4;
#X obj 33 261 inlet~;
#X obj 89 262 inlet~;
#X obj 89 337 outlet~;
#X obj 107 34 inlet;
#X obj 49 34 loadbang;
#X obj 33 335 outlet~;
#X connect 0 0 19 0;
#X connect 1 0 16 0;
#X connect 2 0 3 0;
#X connect 3 0 1 1;
#X connect 4 0 5 0;
#X connect 5 0 0 1;
#X connect 6 0 4 0;
#X connect 7 0 6 0;
#X connect 7 1 8 0;
#X connect 8 0 6 1;
#X connect 9 0 2 0;
#X connect 10 0 9 1;
#X connect 11 0 9 0;
#X connect 12 0 11 0;
#X connect 12 1 10 0;
#X connect 13 0 7 0;
#X connect 13 0 12 0;
#X connect 14 0 0 0;
#X connect 15 0 1 0;
#X connect 17 0 13 0;
#X connect 18 0 13 0;
#X restore 33 442 pd eq-pwr-mix;
#X f 15;
#X obj 138 420 hsl 128 15 0 1 0 0 empty empty empty -2 -8 0 10 #fcfcfc #000000 #000000 0 1;
#X obj 135 370 loadbang;
#X msg 135 396 0.5;
#X obj 136 239 hsl 128 15 5 50 0 0 empty empty empty -2 -8 0 10 #fcfcfc #000000 #000000 0 1;
#X obj 101 259 *~ 10;
#X text 149 45 changing lop~ filter frequency in 10 seconds (0.1 hz) between 0.2 - 1.2, f 26;
#X text 37 18 Ringmodulation with lowpass filtered noise;
#X connect 1 0 3 0;
#X connect 2 0 11 0;
#X connect 3 0 19 0;
#X connect 4 0 5 0;
#X connect 5 0 3 1;
#X connect 6 0 7 0;
#X connect 7 0 5 0;
#X connect 8 0 4 0;
#X connect 9 0 2 0;
#X connect 9 0 12 0;
#X connect 10 0 8 0;
#X connect 11 0 13 0;
#X connect 12 0 14 0;
#X connect 13 0 14 1;
#X connect 14 0 0 0;
#X connect 14 1 0 1;
#X connect 15 0 14 2;
#X connect 16 0 17 0;
#X connect 17 0 15 0;
#X connect 18 0 19 1;
#X connect 19 0 2 1;
