#N canvas 656 342 341 382 10;
#X obj 46 19 inlet;
#X obj 46 105 - \$1;
#X obj 142 170 -;
#X obj 46 273 *;
#X obj 137 234 /;
#X obj 87 169 -;
#X obj 46 296 + \$3;
#X obj 46 345 outlet;
#X obj 140 203 t b f;
#X obj 86 108 list \$4 \$3 \$2 \$1;
#X obj 86 136 unpack 0 0 0 0;
#X obj 46 320 clip \$3 \$4;
#N canvas 0 22 450 300 once 0;
#X obj 99 172 spigot;
#X obj 44 69 inlet;
#X obj 99 121 t a b;
#X obj 136 150 f 1;
#X obj 99 204 t a b;
#X obj 129 226 f 0;
#X obj 99 257 outlet;
#X obj 217 66 inlet;
#X obj 217 89 bang;
#X obj 217 112 f 1;
#X text 18 16 once;
#X text 74 17 only the first message passes through;
#X text 39 47 message in;
#X text 39 299 message out (only once);
#X text 213 46 anything to init once;
#X obj 44 90 route bang;
#X obj 44 120 t b b;
#X obj 44 172 spigot;
#X obj 44 204 t b b;
#X text 246 242 IEM KUG;
#X text 230 230 musil;
#X text 260 230 @;
#X text 266 230 iem.at;
#X text 181 219 (c) Thomas Musil 2000 - 2005;
#X text 229 252 Graz \, Austria;
#X text 252 203 @;
#X text 258 203 iem.at;
#X text 180 203 (c) zmoelnig;
#X connect 0 0 4 0;
#X connect 1 0 15 0;
#X connect 2 0 0 0;
#X connect 2 1 3 0;
#X connect 3 0 0 1;
#X connect 3 0 17 1;
#X connect 4 0 6 0;
#X connect 4 1 5 0;
#X connect 5 0 3 1;
#X connect 7 0 8 0;
#X connect 8 0 9 0;
#X connect 9 0 3 1;
#X connect 15 0 16 0;
#X connect 15 1 2 0;
#X connect 16 0 17 0;
#X connect 16 1 3 0;
#X connect 17 0 18 0;
#X connect 18 0 6 0;
#X connect 18 1 5 0;
#X restore 86 79 pd once;
#X obj 47 39 t f b;
#X connect 0 0 13 0;
#X connect 1 0 3 0;
#X connect 2 0 8 0;
#X connect 3 0 6 0;
#X connect 4 0 3 1;
#X connect 5 0 4 0;
#X connect 6 0 11 0;
#X connect 8 0 4 0;
#X connect 8 1 4 1;
#X connect 9 0 10 0;
#X connect 10 0 5 0;
#X connect 10 1 5 1;
#X connect 10 2 2 0;
#X connect 10 3 2 1;
#X connect 11 0 7 0;
#X connect 12 0 9 0;
#X connect 13 0 1 0;
#X connect 13 1 12 0;
