#N canvas 761 658 345 594 12;
#X declare -path abs;
#X obj 71 389 euclid 5 0 8;
#X obj 71 104 tgl 15 0 empty empty empty 17 7 0 10 #fcfcfc #000000 #000000 0 1;
#X obj 71 166 f;
#X obj 115 166 + 1;
#X obj 71 137 metro 200;
#X floatatom 131 112 5 0 0 0 - - - 0;
#X floatatom 98 306 5 0 0 0 - - - 0;
#X floatatom 125 364 5 0 0 0 - - - 0;
#X floatatom 155 212 5 0 0 0 - - - 0;
#X obj 71 418 bng 15 250 50 0 empty empty empty 17 7 0 10 #fcfcfc #000000 #000000;
#X msg 71 442 60;
#X obj 134 89 hsl 100 15 100 199 0 0 empty empty speed\ (msecs) -2 -8 0 10 #fcfcfc #000000 #000000 0 1;
#X obj 101 254 hsl 100 15 1 100 0 0 empty empty number\ of\ hits\ per\ bar -2 -8 0 10 #fcfcfc #000000 #000000 0 1;
#X obj 128 344 hsl 100 15 0 99 0 0 empty empty rhythm\ offset/rotation -2 -8 0 10 #fcfcfc #000000 #000000 0 1;
#X obj 158 192 hsl 100 15 1 100 0 0 empty empty specify\ length\ of\ bar -2 -8 0 10 #fcfcfc #000000 #000000 0 1;
#X obj 71 511 noteout 1;
#X obj 71 468 makenote 100 100;
#X obj 98 282 min;
#X obj 69 553 declare -path abs;
#X obj 237 24 bng 16 250 50 0 empty empty empty 0 -8 0 10 #fcfcfc #000000 #000000;
#N canvas 266 291 534 172 info 0;
#X obj 37 37 inlet;
#X msg 37 65 browse https://cgm.cs.mcgill.ca/~godfried/publications/banff.pdf;
#X obj 37 103 pdcontrol;
#X connect 0 0 1 0;
#X connect 1 0 2 0;
#X restore 237 45 pd info;
#X text 75 33 Euclidean Rhythms;
#X connect 0 0 9 0;
#X connect 1 0 4 0;
#X connect 2 0 3 0;
#X connect 2 0 0 0;
#X connect 3 0 2 1;
#X connect 4 0 2 0;
#X connect 5 0 4 1;
#X connect 6 0 0 1;
#X connect 7 0 0 2;
#X connect 8 0 0 3;
#X connect 8 0 17 1;
#X connect 9 0 10 0;
#X connect 10 0 16 0;
#X connect 11 0 5 0;
#X connect 12 0 17 0;
#X connect 13 0 7 0;
#X connect 14 0 8 0;
#X connect 16 0 15 0;
#X connect 16 1 15 1;
#X connect 17 0 6 0;
#X connect 19 0 20 0;
