#N canvas 204 144 972 630 12;
#X declare -path abs;
#X obj 195 112 bng 24 250 50 0 reset-show get-reset reset\ weighted\ distribution 0 -12 0 12 #fcfcfc #000000 #000000;
#X text 49 33 Weighted random;
#X obj 50 151 tgl 24 0 empty empty empty 0 -12 0 16 #fcfcfc #000000 #000000 0 1;
#N canvas 179 204 450 278 (subpatch) 0;
#X array weighted-random 127 float 1;
#A 0 0 0 0 0 0 0 0 0 0 0 0 0 0 0 0 0 0 0 0 0 0 0 0 0 10 0 0 0 0 0 0 0 0 0 0 0 30 0 0 0 0 0 0 40 0 0 0 0 10 0 10 0 0 0 0 0 0 0 0 0 0 0 0 0 0 0 0 0 0 0 0 0 0 0 0 0 0 0 0 0 0 0 0 0 0 0 0 0 0 0 0 0 0 0 0 0 0 0 0 0 0 0 0 0 0 0 0 0 0 0 0 0 0 0 0 0 0 0 0 0 0 0 0 0 0 0 0;
#X coords 0 100 126 0 449 274 2 0 0;
#X restore 478 152 graph;
#X obj 50 194 metro 120;
#N canvas 0 609 661 512 (subpatch) 0;
#X array show 127 float 7;
#A 0 0 0 0 0 0 0 0 0 0 0 0 0 0 0 0 0 0 0 0 0 0 0 0 0 8 0 0 0 0 0 0 0 0 0 0 0 30.5 0 0 0 0 0 0 35.5 0 0 0 0 12 0 14 0 0 0 0 0 0 0 0 0 0 0 0 0 0 0 0 0 0 0 0 0 0 0 0 0 0 0 0 0 0 0 0 0 0 0 0 0 0 0 0 0 0 0 0 0 0 0 0 0 0 0 0 0 0 0 0 0 0 0 0 0 0 0 0 0 0 0 0 0 0 0 0 0 0 0 0;
#X coords 0 100 127 0 449 274 1;
#X restore 478 152 graph;
#X msg 280 234 const 0 \, 24 10 \, 48 10 \, 36 30 \, 43 40 \, 50 10, f 8;
#X text 479 446 © 2024 Achim Bornhoeft;
#X msg 80 234 const 0 \, 27 10 \, 39 30 \, 46 40 \, 51 20 \, 58 10 \,, f 8;
#X text 50 57 With weighted randomness \, the probabilities for certain events are set as percentages, f 88;
#N canvas 1096 319 365 276 key-control 1;
#X obj 38 30 key;
#X floatatom 37 66 5 0 0 0 - - - 0;
#X obj 38 135 outlet;
#X obj 38 95 sel 32 110;
#X obj 195 138 + 1;
#X obj 133 172 outlet;
#X obj 133 137 f 1;
#X obj 253 136 mod 6;
#X obj 40 230 declare -path abs;
#X connect 0 0 1 0;
#X connect 1 0 3 0;
#X connect 3 0 2 0;
#X connect 3 1 6 0;
#X connect 4 0 7 0;
#X connect 6 0 4 0;
#X connect 6 0 5 0;
#X connect 7 0 6 1;
#X restore 50 114 pd key-control;
#X f 15;
#X msg 180 234 const 0 \, 34 10 \, 46 65 \, 65 10 \, 70 10 \, 86 5 \,, f 8;
#X floatatom 50 433 5 0 0 0 - - - 0;
#X obj 50 488 t f f;
#X obj 160 570 noteout;
#X obj 160 485 t f b;
#X obj 51 544 + 0.5;
#X obj 50 516 tabread show;
#X obj 51 570 tabwrite show;
#X obj 279 471 s weighted-random;
#X obj 50 403 array random weighted-random;
#X obj 192 543 + 40;
#X obj 192 510 random 80;
#X msg 195 165 const 0;
#X obj 280 116 loadbang;
#X obj 195 195 s show;
#X msg 312 428 \; get-reset bang;
#X obj 280 403 t a b;
#X text 363 235 Weights: 24: 10 % 48: 10 % 36: 30 % 43: 40 % 50: 10 %, f 11;
#X connect 0 0 23 0;
#X connect 2 0 4 0;
#X connect 4 0 20 0;
#X connect 6 0 27 0;
#X connect 8 0 27 0;
#X connect 10 0 2 0;
#X connect 11 0 27 0;
#X connect 12 0 13 0;
#X connect 12 0 15 0;
#X connect 13 0 17 0;
#X connect 13 1 18 1;
#X connect 15 0 14 0;
#X connect 15 1 22 0;
#X connect 16 0 18 0;
#X connect 17 0 16 0;
#X connect 20 0 12 0;
#X connect 21 0 14 1;
#X connect 22 0 21 0;
#X connect 23 0 25 0;
#X connect 24 0 23 0;
#X connect 24 0 6 0;
#X connect 27 0 19 0;
#X connect 27 1 26 0;
