#N canvas 367 346 607 460 12;
#X msg 110 267 60;
#X obj 110 343 noteout;
#X obj 39 17 pgmout;
#X obj 36 217 pgmout;
#X floatatom 36 153 5 0 0 0 - - -;
#X floatatom 75 181 5 0 0 0 - - -;
#X text 84 151 Left: int \, program change value;
#X text 118 180 Right: int \, MIDI channel to send the program change
message on.;
#X text 36 58 Arguments: (optional) and int representing the MIDI channel
to which the program change should be sent. Without an argument it
will send on channel 1 by default.;
#X msg 313 271 0;
#X msg 353 335 20;
#X msg 359 371 74;
#X text 121 17 send program change messages to the MIDI port;
#X text 363 271 Piano;
#X text 398 335 Church Organ;
#X text 405 370 Flute;
#X obj 110 300 makenote 64 1000;
#X obj 313 421 pgmout 0;
#X msg 339 302 12;
#X text 385 301 Vibraphone;
#X text 91 219 No outlets. Sends directly to the MIDI port.;
#X connect 0 0 16 0;
#X connect 4 0 3 0;
#X connect 5 0 3 1;
#X connect 9 0 17 0;
#X connect 10 0 17 0;
#X connect 11 0 17 0;
#X connect 16 0 1 0;
#X connect 16 1 1 1;
#X connect 18 0 17 0;
