#N canvas 181 207 1136 486 10;
#X text 166 266 random zw. 30-70;
#X text 172 238 anschlagsstärke;
#X floatatom 115 304 5 0 0 0 - - - 0;
#X floatatom 37 295 5 0 0 0 - - - 0;
#X obj 89 205 t b b;
#X obj 90 149 metro 1000;
#X obj 457 48 tgl 15 0 empty empty empty 0 -6 0 10 #fcfcfc #000000 #000000 0 1;
#X text 41 252 noten;
#X floatatom 224 170 5 0 0 0 - - - 0;
#X text 151 186 einsatzabstände in msec;
#X text 423 49 start;
#X obj 178 168 * 1.11;
#X obj 174 141 + 200;
#X obj 177 120 random 444;
#X obj 112 281 + 20;
#X obj 49 355 noteout 1;
#X floatatom 377 303 5 0 0 0 - - - 0;
#X floatatom 292 293 5 0 0 0 - - - 0;
#X obj 351 204 t b b;
#X obj 374 280 + 20;
#X obj 323 152 metro 1000;
#X floatatom 457 173 5 0 0 0 - - - 0;
#X obj 411 171 * 1.11;
#X obj 407 144 + 200;
#X obj 311 354 noteout 1;
#X floatatom 570 303 5 0 0 0 - - - 0;
#X floatatom 485 287 5 0 0 0 - - - 0;
#X obj 544 204 t b b;
#X obj 567 280 + 20;
#X obj 516 152 metro 1000;
#X floatatom 650 173 5 0 0 0 - - - 0;
#X obj 604 171 * 1.11;
#X obj 504 354 noteout 1;
#X obj 111 239 random 80;
#X obj 112 261 * 1;
#X obj 373 238 random 80;
#X obj 372 260 * 1;
#X obj 566 238 random 80;
#X obj 565 260 * 1;
#X obj 410 123 random 333;
#X obj 37 273 + 22;
#X obj 33 239 random 80;
#X obj 295 238 random 80;
#X obj 294 270 + 22;
#X obj 486 266 + 22;
#X obj 488 238 random 80;
#X obj 603 123 random 777;
#X obj 600 144 + 300;
#X floatatom 765 308 5 0 0 0 - - - 0;
#X floatatom 680 298 5 0 0 0 - - - 0;
#X obj 739 209 t b b;
#X obj 762 285 + 20;
#X obj 711 157 metro 1000;
#X floatatom 845 178 5 0 0 0 - - - 0;
#X obj 799 176 * 1.11;
#X obj 795 149 + 200;
#X obj 699 359 noteout 1;
#X floatatom 950 301 5 0 0 0 - - - 0;
#X floatatom 865 285 5 0 0 0 - - - 0;
#X obj 924 202 t b b;
#X obj 947 278 + 20;
#X obj 896 150 metro 1000;
#X floatatom 1033 174 5 0 0 0 - - - 0;
#X obj 984 169 * 1.11;
#X obj 884 352 noteout 1;
#X obj 761 243 random 80;
#X obj 760 265 * 1;
#X obj 946 236 random 80;
#X obj 945 258 * 1;
#X obj 683 243 random 80;
#X obj 682 275 + 22;
#X obj 866 264 + 22;
#X obj 868 236 random 80;
#X obj 980 142 + 300;
#X obj 798 128 random 400;
#X obj 983 121 random 800;
#X connect 2 0 15 1;
#X connect 3 0 15 0;
#X connect 4 0 41 0;
#X connect 4 1 33 0;
#X connect 5 0 4 0;
#X connect 5 0 13 0;
#X connect 6 0 5 0;
#X connect 6 0 20 0;
#X connect 6 0 29 0;
#X connect 6 0 52 0;
#X connect 6 0 61 0;
#X connect 8 0 5 1;
#X connect 11 0 8 0;
#X connect 12 0 11 0;
#X connect 13 0 12 0;
#X connect 14 0 2 0;
#X connect 16 0 24 1;
#X connect 17 0 24 0;
#X connect 18 0 42 0;
#X connect 18 1 35 0;
#X connect 19 0 16 0;
#X connect 20 0 18 0;
#X connect 20 0 39 0;
#X connect 21 0 20 1;
#X connect 22 0 21 0;
#X connect 23 0 22 0;
#X connect 25 0 32 1;
#X connect 26 0 32 0;
#X connect 27 0 45 0;
#X connect 27 1 37 0;
#X connect 28 0 25 0;
#X connect 29 0 27 0;
#X connect 29 0 46 0;
#X connect 30 0 29 1;
#X connect 31 0 30 0;
#X connect 33 0 34 0;
#X connect 34 0 14 0;
#X connect 35 0 36 0;
#X connect 36 0 19 0;
#X connect 37 0 38 0;
#X connect 38 0 28 0;
#X connect 39 0 23 0;
#X connect 40 0 3 0;
#X connect 41 0 40 0;
#X connect 42 0 43 0;
#X connect 43 0 17 0;
#X connect 44 0 26 0;
#X connect 45 0 44 0;
#X connect 46 0 47 0;
#X connect 47 0 31 0;
#X connect 48 0 56 1;
#X connect 49 0 56 0;
#X connect 50 0 69 0;
#X connect 50 1 65 0;
#X connect 51 0 48 0;
#X connect 52 0 50 0;
#X connect 52 0 74 0;
#X connect 53 0 52 1;
#X connect 54 0 53 0;
#X connect 55 0 54 0;
#X connect 57 0 64 1;
#X connect 58 0 64 0;
#X connect 59 0 72 0;
#X connect 59 1 67 0;
#X connect 60 0 57 0;
#X connect 61 0 59 0;
#X connect 61 0 75 0;
#X connect 62 0 61 1;
#X connect 63 0 62 0;
#X connect 65 0 66 0;
#X connect 66 0 51 0;
#X connect 67 0 68 0;
#X connect 68 0 60 0;
#X connect 69 0 70 0;
#X connect 70 0 49 0;
#X connect 71 0 58 0;
#X connect 72 0 71 0;
#X connect 73 0 63 0;
#X connect 74 0 55 0;
#X connect 75 0 73 0;
