#N canvas 712 23 608 829 12;
#X floatatom 116 251 5 0 0 0 - - -, f 5;
#X text 161 308 You can use arguments to reorder elements:;
#X floatatom 197 545 5 0 0 0 - - -, f 5;
#X floatatom 110 547 5 0 0 0 - - -, f 5;
#X floatatom 24 547 5 0 0 0 - - -, f 5;
#X obj 24 515 trigger bang bang bang;
#X obj 24 577 pack float float float;
#X floatatom 23 668 5 0 0 0 - - -, f 5;
#X obj 23 759 line;
#X floatatom 23 786 5 0 0 0 - - -, f 5;
#X text 237 158 is the same as;
#X obj 24 157 pack float symbol pointer;
#X obj 366 158 pack f s p;
#X text 20 186 A new value for the first element will reset the first
element and force [pack] to output the entire package of stored values.
;
#X text 21 641 List creation for a [line] object:;
#X msg 86 309 \$3 \$1 \$2;
#X obj 26 275 pack symbol float float;
#X floatatom 207 251 5 0 0 0 - - -, f 5;
#X msg 27 248 cat;
#X text 19 19 Building lists;
#X msg 150 711 0 1000;
#X obj 150 751 print;
#X obj 23 709 pack \$1 1000;
#X floatatom 116 670 5 0 0 0 - - -, f 5;
#X obj 24 489 bng 15 250 50 0 empty empty empty 17 7 0 10 -262144 -1
-1;
#X obj 506 608 +;
#X floatatom 506 638 5 0 0 0 - - -, f 5;
#X floatatom 507 504 5 0 0 0 - - -, f 5;
#X obj 506 582 pack f f;
#X floatatom 523 528 5 0 0 0 - - -, f 5;
#X obj 523 553 t b f;
#X text 20 419 The numbers from the second argument on will update
each of the 'float' values and will NOT output the package - because
the first inlet is not receiving a message - to change this behavior
\, you should use the [trigger] object.;
#X obj 24 616 print;
#X msg 460 554 15 5;
#X text 18 47 The [pack] object takes a series of inputs and then outputs
a concatenated list. The number of creation arguments determines the
number of inlets while the type of creation arguments determines the
types of messages that [pack] should expect to receive at each inlet
(i.e. floats \, symbols \, or pointers -- or their abbreviations f
\, s \, or p).;
#X text 136 689 a message with more than one argument is a list!;
#X obj 86 337 print ordered;
#X obj 27 366 list trim;
#X obj 27 397 print original;
#X text 111 367 - trim the "list" selector off;
#X floatatom 396 500 5 0 0 0 - - -, f 5;
#X floatatom 310 504 5 0 0 0 - - -, f 5;
#X floatatom 261 501 5 0 0 0 - - -, f 5;
#X obj 260 578 pack float float float;
#X obj 260 607 print;
#X obj 310 530 t b f;
#X obj 396 530 t b f;
#X connect 0 0 16 1;
#X connect 2 0 6 2;
#X connect 3 0 6 1;
#X connect 4 0 6 0;
#X connect 5 0 4 0;
#X connect 5 1 3 0;
#X connect 5 2 2 0;
#X connect 6 0 32 0;
#X connect 7 0 22 0;
#X connect 8 0 9 0;
#X connect 15 0 36 0;
#X connect 16 0 15 0;
#X connect 16 0 37 0;
#X connect 17 0 16 2;
#X connect 18 0 16 0;
#X connect 20 0 8 0;
#X connect 20 0 21 0;
#X connect 22 0 8 0;
#X connect 23 0 22 1;
#X connect 24 0 5 0;
#X connect 25 0 26 0;
#X connect 27 0 28 0;
#X connect 28 0 25 0;
#X connect 29 0 30 0;
#X connect 30 0 28 0;
#X connect 30 1 28 1;
#X connect 33 0 25 0;
#X connect 37 0 38 0;
#X connect 40 0 46 0;
#X connect 41 0 45 0;
#X connect 42 0 43 0;
#X connect 43 0 44 0;
#X connect 45 0 43 0;
#X connect 45 1 43 1;
#X connect 46 0 43 0;
#X connect 46 1 43 2;
