#N canvas 100 177 498 300 12;
#X msg 85 114 24 36 48 60 72 84;
#X floatatom 65 217 5 0 0 0 - - -, f 5;
#X msg 66 76 30;
#X text 63 34 Getting the list length (number of elements);
#X obj 65 181 list length;
#X connect 0 0 4 0;
#X connect 2 0 4 0;
#X connect 4 0 1 0;
