#N canvas 800 290 395 561 12;
#X obj 84 304 rev1~;
#X obj 84 183 readsf~;
#X obj 105 228 hsl 128 15 0 100 0 0 empty empty decay(0-100) 8 8 0
10 -262144 -1 -1 4900 1;
#X obj 84 470 dac~;
#X obj 84 433 *~;
#X floatatom 102 357 5 0 0 1 volume - -, f 5;
#X obj 102 407 line~;
#X obj 102 381 pack 0 10;
#X obj 151 514 rev2~;
#X obj 217 514 rev3~;
#X text 50 515 see also:;
#X text 67 15 Basic reverb;
#X obj 170 187 bng 15 250 50 0 empty empty empty 17 7 0 10 -262144
-1 -1;
#X obj 83 55 tgl 15 0 dummy dummy Start/Stop 17 7 0 10 -262144 -1 -1
1 1;
#X obj 121 281 bng 15 250 50 0 empty empty empty 17 7 0 10 -262144
-1 -1;
#X text 140 282 Reset;
#X floatatom 102 255 5 0 0 0 - - -, f 5;
#X obj 84 78 sel 0 1;
#X msg 84 111 0;
#X obj 106 333 hsl 128 15 0 1 0 0 empty empty empty -2 -8 0 10 -262144
-1 -1 2400 1;
#X msg 110 134 open ../99-Sounds/1-4.wav \, 1;
#X connect 0 0 4 0;
#X connect 1 0 0 0;
#X connect 1 1 12 0;
#X connect 2 0 16 0;
#X connect 4 0 3 0;
#X connect 4 0 3 1;
#X connect 5 0 7 0;
#X connect 6 0 4 1;
#X connect 7 0 6 0;
#X connect 12 0 20 0;
#X connect 13 0 17 0;
#X connect 14 0 0 2;
#X connect 16 0 0 1;
#X connect 17 0 18 0;
#X connect 17 1 20 0;
#X connect 18 0 1 0;
#X connect 19 0 5 0;
#X connect 20 0 1 0;
