#N canvas 644 248 756 613 12;
#X obj 233 302 *;
#X obj 266 302 *;
#X obj 277 385 pack;
#X msg 277 420 0 \, 1 \$1 \, 0 \$2 \$1;
#X obj 280 570 hsl 128 15 0 1 0 0 empty empty empty -2 -8 0 10 #fcfcfc #000000 #000000 0 1;
#X obj 299 504 metro 10;
#X obj 300 479 tgl 15 0 empty metro-tgl empty 17 7 0 10 #fcfcfc #000000 #000000 0 1;
#X obj 277 542 snapshot~;
#X obj 277 352 *;
#X obj 311 352 *;
#X obj 233 130 unpack f f f f;
#X obj 233 157 / 100;
#X obj 168 240 unpack;
#X msg 259 92 1000;
#X msg 305 91 5000;
#X msg 390 237 0.5;
#X obj 233 183 t f f;
#X obj 321 309 t f f;
#X msg 353 90 2000;
#X msg 233 28 5000 20 80 1;
#X msg 244 61 5000 10 90;
#X msg 168 215 80 20;
#X text 331 29 duration \, attack % \, release % \, duration factor;
#X obj 321 286 f 1;
#X obj 277 445 vline~;
#X text 411 396 seperate messages: \; - set to 0 \; - to 1 in x msecs \; - to 0 in x msecs \; - waiting time for the argument to cue;
#X text 148 156 msecs -> %;
#X text 146 303 % -> msecs;
#X text 426 238 set duration;
#X text 357 287 default duration \, multiplication by 1;
#X text 345 352 multiplicated by duration;
#X text 34 214 new relation of \; attack and relase \; in percent;
#X text 326 59 without duration \, default * 1;
#X text 393 89 duaration only;
#X text 24 74 Envelope with [vline~];
#X obj 558 149 tgl 19 0 empty empty empty 0 -10 0 12 #fcfcfc #000000 #000000 0 1;
#X obj 558 122 loadbang;
#X msg 558 183 \; pd dsp \$1 \; metro-tgl \$1 \;;
#X msg 346 237 2;
#X connect 0 0 8 0;
#X connect 1 0 9 0;
#X connect 2 0 3 0;
#X connect 3 0 24 0;
#X connect 5 0 7 0;
#X connect 6 0 5 0;
#X connect 7 0 4 0;
#X connect 8 0 2 0;
#X connect 9 0 2 1;
#X connect 10 0 11 0;
#X connect 10 1 0 1;
#X connect 10 2 1 1;
#X connect 10 3 23 0;
#X connect 11 0 16 0;
#X connect 12 0 0 1;
#X connect 12 1 1 1;
#X connect 13 0 10 0;
#X connect 14 0 10 0;
#X connect 15 0 23 0;
#X connect 16 0 0 0;
#X connect 16 1 1 0;
#X connect 17 0 8 1;
#X connect 17 1 9 1;
#X connect 18 0 10 0;
#X connect 19 0 10 0;
#X connect 20 0 10 0;
#X connect 21 0 12 0;
#X connect 23 0 17 0;
#X connect 24 0 7 0;
#X connect 35 0 37 0;
#X connect 36 0 35 0;
#X connect 38 0 23 0;
