#N canvas 1319 550 631 618 12;
#X obj 87 304 *;
#X obj 120 304 *;
#X obj 131 387 pack;
#X msg 131 422 0 \, 1 \$1 \, 0 \$2 \$1;
#X obj 134 572 hsl 128 15 0 1 0 0 empty empty empty -2 -8 0 10 -262144
-1 -1 0 1;
#X obj 153 506 metro 10;
#X obj 154 481 tgl 15 0 empty \$0-metro empty 17 7 0 10 -262144 -1
-1 1 1;
#X obj 131 544 snapshot~;
#X obj 131 354 *;
#X obj 167 352 *;
#X obj 96 132 unpack f f f f;
#X obj 96 159 / 100;
#X msg 200 239 0.1;
#X obj 24 246 unpack;
#X msg 122 94 1000;
#X msg 168 95 5000;
#X msg 244 239 0.5;
#X obj 96 185 t f f;
#X obj 175 311 t f f;
#X msg 222 96 2000;
#X msg 96 30 5000 20 80 1;
#X msg 107 63 5000 10 90;
#X msg 24 221 80 20;
#X text 209 28 duration \, attack % \, release % \, duration factor
;
#X obj 175 288 f 1;
#X obj 295 112 loadbang;
#X obj 311 153 bng 15 250 50 0 empty empty empty 17 7 0 10 -262144
-1 -1;
#X msg 296 187 \; pd dsp 1 \; \$0-metro 1 \;;
#X obj 131 447 vline~;
#X connect 0 0 8 0;
#X connect 1 0 9 0;
#X connect 2 0 3 0;
#X connect 3 0 28 0;
#X connect 5 0 7 0;
#X connect 6 0 5 0;
#X connect 7 0 4 0;
#X connect 8 0 2 0;
#X connect 9 0 2 1;
#X connect 10 0 11 0;
#X connect 10 1 0 1;
#X connect 10 2 1 1;
#X connect 10 3 24 0;
#X connect 11 0 17 0;
#X connect 12 0 24 0;
#X connect 13 0 0 1;
#X connect 13 1 1 1;
#X connect 14 0 10 0;
#X connect 15 0 10 0;
#X connect 16 0 24 0;
#X connect 17 0 0 0;
#X connect 17 1 1 0;
#X connect 18 0 8 1;
#X connect 18 1 9 1;
#X connect 19 0 10 0;
#X connect 20 0 10 0;
#X connect 21 0 10 0;
#X connect 22 0 13 0;
#X connect 24 0 18 0;
#X connect 25 0 27 0;
#X connect 26 0 27 0;
#X connect 28 0 7 0;
