#N canvas 114 108 994 792 12;
#N canvas 0 22 450 300 (subpatch) 0;
#X array cos-output 44100 float 0;
#X coords 0 1.02 44100 -1.02 200 100 1;
#X restore 752 647 graph;
#N canvas 0 22 450 300 (subpatch) 0;
#X array sample-table 155648 float 0;
#X coords 0 1.02 155647 -1.02 200 130 1;
#X restore 58 566 graph;
#X obj 61 426 loadbang;
#X obj 347 632 tabread4~ sample-table;
#X floatatom 542 22 0 0 0 0 - frq - 0;
#X text 578 21 <-- frequency (Hz.);
#X floatatom 372 523 0 0 0 0 - - - 0;
#X obj 347 576 *~ 0;
#X obj 347 601 +~ 1;
#X msg 699 77 bang;
#X obj 540 167 -~ 0.5;
#X obj 539 442 clip~ -0.5 0.5;
#X obj 539 420 *~ 1;
#N canvas 0 22 450 300 (subpatch) 0;
#X array cos-input 44100 float 0;
#X coords 0 1.02 44100 -1.02 200 100 1;
#X restore 755 406 graph;
#X obj 590 485 tabwrite~ cos-input;
#X obj 539 510 cos~;
#X obj 540 199 wrap~;
#X obj 540 298 -~ 0.5;
#X obj 539 633 *~ -0.5;
#X obj 539 608 -~ 1;
#X obj 579 725 tabwrite~ cos-output;
#X floatatom 568 367 0 0 0 0 - - - 0;
#X obj 347 695 *~;
#X text 40 148 subtracting 0.5 and wrapping produces a sawtooth wave 180 degrees out of phase from the original.;
#X text 53 297 as before we subtract 1/2 again to center the sawtooth from -1/2 to 1/2.;
#X obj 62 475 soundfiler;
#X obj 568 391 max 1;
#X obj 542 63 phasor~;
#X obj 610 116 tabwrite~ phasor;
#N canvas 0 22 450 300 (subpatch) 0;
#X array 180phasor 44100 float 0;
#X coords 0 1.02 44100 -1.02 200 100 1;
#X restore 756 161 graph;
#X obj 590 238 tabwrite~ 180phasor;
#N canvas 0 22 450 300 (subpatch) 0;
#X array cos 44100 float 0;
#X coords 0 1.02 44100 -1.02 200 100 1;
#X restore 753 528 graph;
#N canvas 0 22 450 300 (subpatch) 0;
#X array center 44100 float 0;
#X coords 0 1.02 44100 -1.02 200 100 1;
#X restore 754 282 graph;
#X obj 611 353 tabwrite~ center;
#X text 341 391 sharpness (at least 1) -->;
#X obj 638 602 tabwrite~ cos;
#X obj 347 723 *~;
#X obj 335 758 dac~;
#X obj 381 699 tgl 15 0 empty empty empty 0 -6 0 8 #fcfcfc #000000 #000000 0 1;
#X text 84 520 chunk size (100ths of a second) ->;
#X obj 364 50 loadbang;
#X text 37 50 Construction of envelopes from a phazor;
#N canvas 0 22 450 300 (subpatch) 0;
#X array phasor 44100 float 0;
#X coords 0 1.02 44100 -1.02 200 100 1;
#X restore 755 37 graph;
#X msg 364 86 \; pd dsp 1 \; frq 3 \;;
#X msg 61 452 read -resize ../Sounds/1-4.wav sample-table;
#X obj 372 548 * 480;
#X connect 2 0 44 0;
#X connect 3 0 22 0;
#X connect 4 0 27 0;
#X connect 4 0 9 0;
#X connect 6 0 45 0;
#X connect 7 0 8 0;
#X connect 8 0 3 0;
#X connect 9 0 14 0;
#X connect 9 0 20 0;
#X connect 9 0 28 0;
#X connect 9 0 30 0;
#X connect 9 0 33 0;
#X connect 9 0 35 0;
#X connect 10 0 16 0;
#X connect 11 0 15 0;
#X connect 11 0 14 0;
#X connect 12 0 11 0;
#X connect 15 0 19 0;
#X connect 15 0 35 0;
#X connect 16 0 17 0;
#X connect 16 0 30 0;
#X connect 17 0 12 0;
#X connect 17 0 33 0;
#X connect 18 0 22 1;
#X connect 18 0 20 0;
#X connect 19 0 18 0;
#X connect 21 0 26 0;
#X connect 22 0 36 0;
#X connect 26 0 12 1;
#X connect 27 0 7 0;
#X connect 27 0 10 0;
#X connect 27 0 28 0;
#X connect 36 0 37 0;
#X connect 36 0 37 1;
#X connect 38 0 36 1;
#X connect 40 0 43 0;
#X connect 44 0 25 0;
#X connect 45 0 7 1;
