#N canvas 297 214 969 612 12;
#X obj 584 352 print done;
#X floatatom 517 425 5 0 0 0 - - - 0;
#X text 676 352 This outlet gets a bang when you hit the end of the sequence., f 34;
#X floatatom 564 425 5 0 0 0 - - - 0;
#X text 677 322 go to beginning (and stop);
#X msg 620 322 rewind;
#X obj 531 320 textfile;
#X msg 579 238 read ./lists.txt;
#X obj 42 147 metro 1000;
#X obj 42 197 f;
#X obj 76 197 + 1;
#X obj 42 125 tgl 15 0 empty empty empty 17 7 0 10 #fcfcfc #000000 #000000 0 1;
#X msg 42 454 add \$1;
#X floatatom 42 223 5 0 0 0 - - - 0;
#X obj 74 271 bng 15 250 50 0 empty empty empty 17 7 0 10 #fcfcfc #000000 #000000;
#X obj 42 272 bng 15 250 50 0 empty empty empty 17 7 0 10 #fcfcfc #000000 #000000;
#X msg 75 340 add2 \$1;
#X msg 573 196 clear;
#X floatatom 608 425 5 0 0 0 - - - 0;
#X obj 517 451 osc~;
#X obj 597 555 dac~;
#X obj 112 197 mod 4;
#X obj 42 245 sel 3;
#X obj 531 382 unpack f f f f;
#X floatatom 651 425 5 0 0 0 - - - 0;
#X obj 565 451 osc~;
#X obj 608 453 osc~;
#X obj 651 453 osc~;
#X obj 565 508 *~ 0.25;
#X obj 650 509 *~ 0.25;
#X obj 42 428 + 200;
#X obj 75 316 + 200;
#X obj 42 403 random 200;
#X obj 75 291 random 200;
#X text 711 237 read file (the file is called with its path), f 23;
#X msg 548 156 write ./lists.txt;
#X text 688 151 write file (the file is called with its path), f 24;
#X obj 567 286 r msg;
#X text 620 121 single-step forward + print textfile;
#X obj 531 89 r bang;
#X msg 531 121 print \, bang;
#X obj 42 485 t b a;
#X obj 42 541 s bang;
#X obj 74 510 s msg;
#X obj 75 366 s msg;
#X msg 62 171 0;
#X text 34 64 The textfile object reads and writes text files to and from memory. You can read a file and output sequential lines as lists \, or collect lines and write them out.;
#X obj 697 476 tgl 15 0 empty empty empty 17 7 0 10 #fcfcfc #000000 #000000 0 0.25;
#X text 34 34 Recording sequences with [textfile];
#X text 137 334 The message \, "add2" adds a list of atoms without finishing with a semicolon in case you want to make variable-length messages., f 42;
#X text 99 453 Add messages (terminated with semicolons.) Here each forth number terminates the list with a semicolon., f 53;
#X text 108 535 With the bang the sequencer file lists.txt is printed and written and the next line in this file is evaluated.;
#X obj 496 268 bng 15 250 50 0 empty empty empty 17 7 0 10 #fcfcfc #000000 #000000;
#X connect 1 0 19 0;
#X connect 3 0 25 0;
#X connect 5 0 6 0;
#X connect 6 0 23 0;
#X connect 6 1 0 0;
#X connect 6 1 5 0;
#X connect 7 0 6 0;
#X connect 8 0 9 0;
#X connect 9 0 10 0;
#X connect 9 0 13 0;
#X connect 10 0 21 0;
#X connect 11 0 8 0;
#X connect 12 0 41 0;
#X connect 13 0 22 0;
#X connect 14 0 33 0;
#X connect 15 0 32 0;
#X connect 16 0 44 0;
#X connect 17 0 6 0;
#X connect 18 0 26 0;
#X connect 19 0 28 0;
#X connect 21 0 9 1;
#X connect 22 0 15 0;
#X connect 22 1 14 0;
#X connect 23 0 1 0;
#X connect 23 1 3 0;
#X connect 23 2 18 0;
#X connect 23 3 24 0;
#X connect 24 0 27 0;
#X connect 25 0 28 0;
#X connect 26 0 29 0;
#X connect 27 0 29 0;
#X connect 28 0 20 0;
#X connect 29 0 20 1;
#X connect 30 0 12 0;
#X connect 31 0 16 0;
#X connect 32 0 30 0;
#X connect 33 0 31 0;
#X connect 35 0 6 0;
#X connect 37 0 6 0;
#X connect 39 0 40 0;
#X connect 39 0 35 0;
#X connect 40 0 6 0;
#X connect 41 0 42 0;
#X connect 41 1 43 0;
#X connect 45 0 9 1;
#X connect 47 0 29 1;
#X connect 47 0 28 1;
#X connect 52 0 6 0;
