#N canvas 385 85 1141 398 12;
#X obj 781 190 textfile;
#X obj 781 145 until;
#X obj 752 221 list;
#X msg 752 77 1;
#X msg 789 77 2;
#X msg 827 77 3;
#X msg 864 77 4;
#X obj 752 113 t b f b;
#X obj 421 280 textfile;
#X obj 421 244 until;
#X obj 392 309 list;
#X obj 392 204 t b f b;
#X obj 392 337 print;
#X obj 392 150 + 1;
#X obj 427 152 mod;
#X obj 449 83 r \$0-mod;
#X obj 359 98 bng 15 250 50 0 empty empty empty 17 7 0 10 #fcfcfc #000000 #000000;
#X obj 359 151 f 1;
#X floatatom 392 179 5 0 0 0 - - - 0;
#X obj 57 196 textfile;
#X obj 31 159 until;
#X msg 31 56 bang;
#X obj 31 265 f;
#X obj 75 264 + 1;
#X msg 87 230 0;
#X obj 31 90 t b b b;
#X floatatom 31 299 5 0 0 0 - - - 0;
#X obj 31 327 s \$0-mod;
#X msg 380 123 0;
#X text 440 178 line no. in textfile;
#X text 900 78 line no. in textfile;
#N canvas 229 305 472 422 alternative 0;
#X obj 126 146 textfile;
#X obj 126 100 until;
#X msg 189 102 read soundfiles.txt \, rewind;
#X obj 126 43 bng 15 250 50 0 empty empty empty 17 7 0 10 #fcfcfc #000000 #000000;
#X obj 126 70 t b b;
#X obj 126 211 list;
#X obj 126 178 list prepend;
#X obj 47 280 list split 1;
#X floatatom 47 155 5 1 5 0 - - - 0;
#X obj 47 182 t b f;
#X obj 94 356 print;
#X obj 48 318 list split 1;
#X obj 47 244 list;
#X obj 153 280 - 1;
#X connect 0 0 6 0;
#X connect 0 1 1 1;
#X connect 1 0 0 0;
#X connect 2 0 0 0;
#X connect 3 0 4 0;
#X connect 4 0 1 0;
#X connect 4 1 2 0;
#X connect 4 1 6 1;
#X connect 5 0 6 1;
#X connect 6 0 5 0;
#X connect 6 0 12 1;
#X connect 7 0 11 0;
#X connect 8 0 9 0;
#X connect 9 0 12 0;
#X connect 9 1 7 1;
#X connect 9 1 13 0;
#X connect 11 1 10 0;
#X connect 12 0 7 0;
#X connect 13 0 11 1;
#X restore 532 337 pd alternative;
#X obj 84 57 loadbang;
#X text 81 299 no. of lines in textfile;
#X obj 752 283 print;
#X text 28 18 numbers of lines in textfile;
#X text 366 21 carriage returns in soundfiles.txt are mapped to semicolons \, good for lists with only up to a few arguments., f 38;
#X text 739 23 textfile with semicolons terminating lines \, easier for formatting long argument lists.;
#X text 26 366 (c) 2015 Achim Bornhoeft;
#X msg 57 124 read textfile2list1.txt cr \, rewind;
#X msg 472 245 read textfile2list1.txt cr \, rewind;
#X msg 834 145 read textfile2list2.txt \, rewind;
#X obj 752 255 list trim;
#X connect 0 0 2 1;
#X connect 0 1 1 1;
#X connect 1 0 0 0;
#X connect 2 0 42 0;
#X connect 3 0 7 0;
#X connect 4 0 7 0;
#X connect 5 0 7 0;
#X connect 6 0 7 0;
#X connect 7 0 2 0;
#X connect 7 1 1 0;
#X connect 7 2 41 0;
#X connect 8 0 10 1;
#X connect 8 1 9 1;
#X connect 9 0 8 0;
#X connect 10 0 12 0;
#X connect 11 0 10 0;
#X connect 11 1 9 0;
#X connect 11 2 40 0;
#X connect 13 0 14 0;
#X connect 13 0 18 0;
#X connect 14 0 17 1;
#X connect 15 0 14 1;
#X connect 15 0 28 0;
#X connect 16 0 17 0;
#X connect 17 0 13 0;
#X connect 18 0 11 0;
#X connect 19 1 20 1;
#X connect 20 0 19 0;
#X connect 20 0 22 0;
#X connect 21 0 25 0;
#X connect 22 0 23 0;
#X connect 22 0 26 0;
#X connect 23 0 22 1;
#X connect 24 0 22 1;
#X connect 25 0 20 0;
#X connect 25 1 39 0;
#X connect 25 2 24 0;
#X connect 26 0 27 0;
#X connect 28 0 17 1;
#X connect 32 0 25 0;
#X connect 39 0 19 0;
#X connect 40 0 8 0;
#X connect 41 0 0 0;
#X connect 42 0 34 0;
