#N canvas 923 57 550 815 12;
#X text 46 44 The term harmonic has a precise meaning - that of an
integer (whole number) multiple of the fundamental frequency of a vibrating
object. The term overtone is used to refer to any resonant frequency
above the fundamental frequency - an overtone may or may not be a harmonic.
Many of the instruments of the orchestra \, those utilizing strings
or air columns \, produce the fundamental frequency and harmonics.
Their overtones can be said to be harmonic. Other sound sources such
as the membranes or other percussive sources may have resonant frequencies
which are not whole number multiples of their fundamental frequencies.
They are said to have non-harmonic overtones.;
#X text 46 19 Harmonics and Overtones;
#X floatatom 50 246 5 0 0 0 - - -, f 5;
#X obj 50 301 * 1;
#X obj 50 427 /~ 12;
#X obj 50 464 dac~;
#X obj 50 329 osc~;
#X obj 50 376 *~;
#X obj 68 354 tgl 15 0 empty tgl1 empty 17 7 0 10 -262144 -1 -1 0 1
;
#X obj 95 329 osc~;
#X obj 95 376 *~;
#X obj 113 354 tgl 15 0 empty tgl1 empty 17 7 0 10 -262144 -1 -1 0
1;
#X obj 136 329 osc~;
#X obj 136 376 *~;
#X obj 154 354 tgl 15 0 empty tgl1 empty 17 7 0 10 -262144 -1 -1 0
1;
#X obj 177 329 osc~;
#X obj 177 376 *~;
#X obj 195 354 tgl 15 0 empty tgl1 empty 17 7 0 10 -262144 -1 -1 0
1;
#X obj 218 329 osc~;
#X obj 218 376 *~;
#X obj 236 354 tgl 15 0 empty tgl1 empty 17 7 0 10 -262144 -1 -1 0
1;
#X obj 259 329 osc~;
#X obj 259 376 *~;
#X obj 277 354 tgl 15 0 empty tgl1 empty 17 7 0 10 -262144 -1 -1 0
1;
#X obj 300 329 osc~;
#X obj 300 376 *~;
#X obj 318 354 tgl 15 0 empty tgl1 empty 17 7 0 10 -262144 -1 -1 0
1;
#X obj 341 329 osc~;
#X obj 341 376 *~;
#X obj 359 354 tgl 15 0 empty tgl1 empty 17 7 0 10 -262144 -1 -1 0
1;
#X obj 381 329 osc~;
#X obj 381 376 *~;
#X obj 399 354 tgl 15 0 empty tgl1 empty 17 7 0 10 -262144 -1 -1 0
1;
#X obj 420 329 osc~;
#X obj 420 376 *~;
#X obj 438 354 tgl 15 0 empty tgl1 empty 17 7 0 10 -262144 -1 -1 0
1;
#X obj 95 301 * 2;
#X obj 136 301 * 3;
#X obj 177 301 * 4;
#X obj 218 301 * 5;
#X obj 259 301 * 6;
#X obj 300 301 * 7;
#X obj 341 301 * 8;
#X obj 381 301 * 9;
#X floatatom 283 540 5 0 0 0 - - -, f 5;
#X obj 284 771 dac~;
#X obj 326 654 osc~;
#X obj 326 698 *~;
#X obj 344 676 tgl 15 0 empty empty empty 17 7 0 10 -262144 -1 -1 0
1;
#X obj 371 652 osc~;
#X obj 371 698 *~;
#X obj 389 676 tgl 15 0 empty empty empty 17 7 0 10 -262144 -1 -1 0
1;
#X obj 412 653 osc~;
#X obj 412 698 *~;
#X obj 430 676 tgl 15 0 empty empty empty 17 7 0 10 -262144 -1 -1 0
1;
#X obj 453 650 osc~;
#X obj 453 697 *~;
#X obj 471 675 tgl 15 0 empty empty empty 17 7 0 10 -262144 -1 -1 0
1;
#X obj 286 654 osc~;
#X obj 286 699 *~;
#X obj 303 678 tgl 15 0 empty empty empty 17 7 0 10 -262144 -1 -1 0
1;
#X obj 284 743 /~ 5;
#X floatatom 50 540 5 0 0 0 - - -, f 5;
#X obj 51 771 dac~;
#X obj 92 650 osc~;
#X obj 93 703 *~;
#X obj 111 681 tgl 15 0 empty empty empty 17 7 0 10 -262144 -1 -1 0
1;
#X obj 138 650 osc~;
#X obj 138 703 *~;
#X obj 156 681 tgl 15 0 empty empty empty 17 7 0 10 -262144 -1 -1 0
1;
#X obj 179 650 osc~;
#X obj 179 703 *~;
#X obj 197 681 tgl 15 0 empty empty empty 17 7 0 10 -262144 -1 -1 0
1;
#X obj 220 650 osc~;
#X obj 220 703 *~;
#X obj 238 681 tgl 15 0 empty empty empty 17 7 0 10 -262144 -1 -1 0
1;
#X obj 51 651 osc~;
#X obj 51 703 *~;
#X obj 69 681 tgl 15 0 empty empty empty 17 7 0 10 -262144 -1 -1 0
1;
#X obj 51 743 /~ 5;
#X text 348 541 Subharmonics;
#X obj 219 622 / 4;
#X obj 178 622 / 3;
#X obj 137 622 / 2;
#X obj 91 622 / 1;
#X obj 90 593 * 2;
#X obj 177 593 * 4;
#X obj 218 593 * 5;
#X obj 136 593 * 3;
#X obj 325 594 * 5;
#X obj 370 595 * 6;
#X obj 326 624 / 6;
#X obj 412 597 * 7;
#X obj 452 596 * 8;
#X obj 453 624 / 9;
#X obj 412 624 / 8;
#X obj 371 624 / 7;
#X obj 472 354 tgl 15 0 tgl1 dummy Toggle_all -10 -10 0 10 -262144
-1 -1 0 1;
#X text 131 540 Harmonics;
#X text 48 502 just/pure intervals;
#X obj 420 301 * 10;
#X text 127 246 harmonic overtones;
#X connect 2 0 3 0;
#X connect 2 0 36 0;
#X connect 2 0 37 0;
#X connect 2 0 38 0;
#X connect 2 0 39 0;
#X connect 2 0 40 0;
#X connect 2 0 41 0;
#X connect 2 0 42 0;
#X connect 2 0 43 0;
#X connect 2 0 100 0;
#X connect 3 0 6 0;
#X connect 4 0 5 0;
#X connect 4 0 5 1;
#X connect 6 0 7 0;
#X connect 7 0 4 0;
#X connect 8 0 7 1;
#X connect 9 0 10 0;
#X connect 10 0 4 0;
#X connect 11 0 10 1;
#X connect 12 0 13 0;
#X connect 13 0 4 0;
#X connect 14 0 13 1;
#X connect 15 0 16 0;
#X connect 16 0 4 0;
#X connect 17 0 16 1;
#X connect 18 0 19 0;
#X connect 19 0 4 0;
#X connect 20 0 19 1;
#X connect 21 0 22 0;
#X connect 22 0 4 0;
#X connect 23 0 22 1;
#X connect 24 0 25 0;
#X connect 25 0 4 0;
#X connect 26 0 25 1;
#X connect 27 0 28 0;
#X connect 28 0 4 0;
#X connect 29 0 28 1;
#X connect 30 0 31 0;
#X connect 31 0 4 0;
#X connect 32 0 31 1;
#X connect 33 0 34 0;
#X connect 34 0 4 0;
#X connect 35 0 34 1;
#X connect 36 0 9 0;
#X connect 37 0 12 0;
#X connect 38 0 15 0;
#X connect 39 0 18 0;
#X connect 40 0 21 0;
#X connect 41 0 24 0;
#X connect 42 0 27 0;
#X connect 43 0 30 0;
#X connect 44 0 58 0;
#X connect 44 0 89 0;
#X connect 44 0 90 0;
#X connect 44 0 92 0;
#X connect 44 0 93 0;
#X connect 46 0 47 0;
#X connect 47 0 61 0;
#X connect 48 0 47 1;
#X connect 49 0 50 0;
#X connect 50 0 61 0;
#X connect 51 0 50 1;
#X connect 52 0 53 0;
#X connect 53 0 61 0;
#X connect 54 0 53 1;
#X connect 55 0 56 0;
#X connect 56 0 61 0;
#X connect 57 0 56 1;
#X connect 58 0 59 0;
#X connect 59 0 61 0;
#X connect 60 0 59 1;
#X connect 61 0 45 0;
#X connect 61 0 45 1;
#X connect 62 0 76 0;
#X connect 62 0 85 0;
#X connect 62 0 86 0;
#X connect 62 0 87 0;
#X connect 62 0 88 0;
#X connect 64 0 65 0;
#X connect 65 0 79 0;
#X connect 66 0 65 1;
#X connect 67 0 68 0;
#X connect 68 0 79 0;
#X connect 69 0 68 1;
#X connect 70 0 71 0;
#X connect 71 0 79 0;
#X connect 72 0 71 1;
#X connect 73 0 74 0;
#X connect 74 0 79 0;
#X connect 75 0 74 1;
#X connect 76 0 77 0;
#X connect 77 0 79 0;
#X connect 78 0 77 1;
#X connect 79 0 63 0;
#X connect 79 0 63 1;
#X connect 81 0 73 0;
#X connect 82 0 70 0;
#X connect 83 0 67 0;
#X connect 84 0 64 0;
#X connect 85 0 84 0;
#X connect 86 0 82 0;
#X connect 87 0 81 0;
#X connect 88 0 83 0;
#X connect 89 0 91 0;
#X connect 90 0 96 0;
#X connect 91 0 46 0;
#X connect 92 0 95 0;
#X connect 93 0 94 0;
#X connect 94 0 55 0;
#X connect 95 0 52 0;
#X connect 96 0 49 0;
#X connect 100 0 33 0;
