#N canvas 422 292 751 427 12;
#X obj 100 109 sixteen_harmonics wavetable;
#X obj 582 145 random 64;
#X obj 585 178 + 32;
#X obj 585 207 mtof;
#X obj 564 288 *~;
#X obj 585 240 tabosc4~ wavetable;
#N canvas 95 141 633 603 env 0;
#X obj 228 41 inlet;
#X obj 228 493 outlet~;
#X obj 228 459 vline~;
#X msg 228 239 0 \, 1 \$1;
#X msg 423 411 0 \$1;
#X obj 453 343 * 500;
#X obj 258 107 * 500;
#X obj 299 289 pack;
#X obj 423 276 random 1000;
#X msg 299 310 \$2 \$1;
#X obj 328 184 * 500;
#X obj 299 225 max 10;
#X obj 228 150 max 10;
#X obj 423 388 max 10;
#X obj 228 61 bang;
#X obj 328 162 receive \$0-d;
#X obj 258 86 receive \$0-a;
#X obj 422 254 delay;
#X obj 453 323 receive \$0-r;
#X obj 423 367 float;
#X obj 423 297 delay;
#X obj 228 128 float;
#X obj 245 175 delay;
#X obj 299 206 float;
#X obj 321 267 receive \$0-s;
#X obj 93 100 cnv 15 100 60 empty empty empty 20 12 0 14 -241291 -66577
0;
#X obj 115 118 vsl 10 32 0 1 0 1 \$0-a \$0-a a 0 -8 0 8 -262144 -1
-1 200 0;
#X obj 128 118 vsl 10 32 0 1 0 1 \$0-d \$0-d d 0 -8 0 8 -262144 -1
-1 1000 0;
#X obj 141 118 vsl 10 32 0 1 0 1 \$0-s \$0-s s 0 -8 0 8 -262144 -1
-1 1000 0;
#X obj 154 118 vsl 10 32 0 1 0 1 \$0-r \$0-r r 0 -8 0 8 -262144 -1
-1 2300 0;
#X connect 0 0 14 0;
#X connect 2 0 1 0;
#X connect 3 0 2 0;
#X connect 4 0 2 0;
#X connect 5 0 19 1;
#X connect 6 0 21 1;
#X connect 7 0 9 0;
#X connect 8 0 20 0;
#X connect 9 0 2 0;
#X connect 10 0 23 1;
#X connect 11 0 7 0;
#X connect 11 0 17 0;
#X connect 12 0 3 0;
#X connect 12 0 22 0;
#X connect 13 0 4 0;
#X connect 14 0 21 0;
#X connect 15 0 10 0;
#X connect 16 0 6 0;
#X connect 17 0 8 0;
#X connect 18 0 5 0;
#X connect 19 0 13 0;
#X connect 20 0 19 0;
#X connect 21 0 12 0;
#X connect 22 0 23 0;
#X connect 23 0 11 0;
#X connect 24 0 7 1;
#X coords 0 -1 1 1 85 60 2 100 100;
#X restore 490 170 pd env;
#X text 15 62 Any waveform can be contructed using sine waves. This
patch allows you to construct a waveform using harmonics.;
#X text 39 274 You can make a triangle wave by setting each harmonic
to an amplitude that is the inverse of the harmonic number. That means
for harmonic 2 \, set the slider to an amplitude of 1/2 \, or halfway
in the middle. For harmonic 3 \, set it at 1/3 \, harmonic 4 \, set
to 1/4 \, and so on...;
#X obj 490 111 trigger b b;
#X obj 564 376 dac~;
#X obj 564 319 *~ 0.5;
#X obj 583 21 tgl 15 0 empty empty empty 17 7 0 10 -262144 -1 -1 0
1;
#X msg 583 46 \; pd dsp \$1 \;;
#X obj 489 47 key;
#X obj 490 77 sel 32;
#X text 22 24 Building Waveforms with sines;
#X text 40 372 (Copyright of this patch unknown);
#X connect 1 0 2 0;
#X connect 2 0 3 0;
#X connect 3 0 5 0;
#X connect 4 0 11 0;
#X connect 5 0 4 1;
#X connect 6 0 4 0;
#X connect 9 0 6 0;
#X connect 9 1 1 0;
#X connect 11 0 10 0;
#X connect 11 0 10 1;
#X connect 12 0 13 0;
#X connect 14 0 15 0;
#X connect 15 0 9 0;
