#N canvas 287 35 690 455 10;
#X obj 50 66 tgl 15 0 empty empty empty 0 -6 0 10 -262144 -1 -1 1 1
;
#X obj 64 173 + 100;
#X obj 36 412 dac~;
#X obj 36 381 *~;
#X obj 157 244 r set;
#X msg 333 111 \; set -2 -1 0 1 2 5000 \;;
#X msg 333 241 \; set -14 -7 0 7 14 1000 \;;
#X msg 333 198 \; set -0.2 -0.1 0 0.1 0.2 500 \;;
#X obj 333 74 loadbang;
#X text 331 329 message consists of 5 semitone transpositions and one
glissando duration in milliseconds;
#X text 129 413 (c) 2008 Achim Bornhoeft;
#X msg 335 286 \; set -24 -22 -20 -18 -16 1000 \;;
#X obj 64 330 5_ssb_pitchshift;
#X msg 175 278 24 22 20 18 16 2000 \;;
#X text 170 24 5 voice single sideband modulation pitch shifter;
#X obj 63 119 metro 2000;
#X obj 63 148 random 2000;
#X msg 333 153 \; set -24 -12 0 12 24 1000 \;;
#X obj 64 285 osc~ 440;
#X floatatom 63 208 5 0 0 0 - - -;
#X obj 52 25 5_ssb_pitchshift;
#X obj 64 255 line~;
#X msg 63 231 \$1 20;
#X connect 0 0 3 1;
#X connect 0 0 15 0;
#X connect 1 0 15 1;
#X connect 1 0 19 0;
#X connect 3 0 2 0;
#X connect 3 0 2 1;
#X connect 4 0 12 1;
#X connect 8 0 5 0;
#X connect 12 0 3 0;
#X connect 13 0 12 1;
#X connect 15 0 16 0;
#X connect 16 0 1 0;
#X connect 18 0 12 0;
#X connect 19 0 22 0;
#X connect 21 0 18 0;
#X connect 22 0 21 0;
