#N canvas 206 134 519 528 10;
#X obj 33 50 inlet~;
#X text 34 23 signal;
#X obj 291 99 inlet;
#X text 293 80 fw/bw;
#X obj 155 50 inlet;
#X text 141 18 pitchshift;
#X text 142 29 semitones;
#X obj 354 135 inlet;
#X text 342 112 del-window;
#X obj 432 150 inlet;
#X text 432 114 delay;
#X text 429 132 (msec);
#X obj 24 487 outlet~;
#X obj 24 457 *~ 0.19;
#X obj 155 77 unpack f f f f f f;
#X obj 106 240 pitchshift 0 30 30;
#X obj 141 274 pitchshift 0 30 30;
#X obj 183 310 pitchshift 0 30 30;
#X obj 243 338 pitchshift 0 30 30;
#X obj 290 366 pitchshift 0 30 30;
#X connect 0 0 15 0;
#X connect 0 0 16 0;
#X connect 0 0 17 0;
#X connect 0 0 18 0;
#X connect 0 0 19 0;
#X connect 2 0 15 3;
#X connect 2 0 16 3;
#X connect 2 0 17 3;
#X connect 2 0 18 3;
#X connect 2 0 19 3;
#X connect 4 0 14 0;
#X connect 7 0 15 4;
#X connect 7 0 16 4;
#X connect 7 0 17 4;
#X connect 7 0 18 4;
#X connect 7 0 19 4;
#X connect 9 0 15 5;
#X connect 9 0 16 5;
#X connect 9 0 17 5;
#X connect 9 0 18 5;
#X connect 9 0 19 5;
#X connect 13 0 12 0;
#X connect 14 0 15 1;
#X connect 14 1 16 1;
#X connect 14 2 17 1;
#X connect 14 3 18 1;
#X connect 14 4 19 1;
#X connect 14 5 15 2;
#X connect 14 5 16 2;
#X connect 14 5 17 2;
#X connect 14 5 18 2;
#X connect 14 5 19 2;
#X connect 15 0 13 0;
#X connect 16 0 13 0;
#X connect 17 0 13 0;
#X connect 18 0 13 0;
#X connect 19 0 13 0;
