#N canvas 468 57 545 800 12;
#X obj 192 649 cos~;
#X obj 235 627 +~ -0.25;
#X obj 235 650 cos~;
#X obj 27 694 *~;
#X obj 93 694 *~;
#X obj 26 718 -~;
#X text 39 577 pair of allpass;
#X text 37 594 filters to make;
#X text 38 612 90 degree phase;
#X text 36 629 shifted versions;
#X text 241 572 <-- shift frequency;
#X text 314 612 cosine and sine waves;
#X text 55 7 SINGLE SIDEBAND MODULATION;
#X text 300 7 (AKA FREQUENCY SHIFTING);
#X text 304 729 updated for Pd version 0.39;
#X obj 192 603 phasor~;
#X text 127 694 <-- complex multipier;
#X text 126 711 (calculates real part);
#X text 313 627 to form the real and;
#X text 313 643 imaginary part of a;
#X text 313 660 complex sinusoid;
#X text 43 37 The signal sideband modulator gives you only one sideband
for each frequency in the input signal (whereas ring modulation gave
both a positive and negative sideband). You can set the shift frequency
positive to shift all frequencies upward \, or negative to shift them
downwards.;
#X text 42 117 The technique is to filter the input into two versions
\, 90 degrees out of phase \, which can be interpreted as the real
and imaginary part of a complex signal with positive frequencies only.
You can then form the (complex) product of this with a (complex) sinusoid
to modulate upward or downward in frequency.;
#X obj 27 656 hilbert~;
#X text 42 213 The "Hilbert~" object is an abstraction in pd/extra.
;
#X obj 23 353 inlet~;
#X obj 27 750 outlet~;
#X text 303 747 from H09.ssb.modulation.pd;
#X obj 188 273 inlet;
#X obj 187 329 line;
#X obj 187 300 pack f f;
#X obj 240 273 inlet;
#X text 284 269 glissdur;
#X obj 187 382 mtof;
#X obj 188 358 + 69;
#X obj 187 407 - 440;
#X floatatom 192 573 5 0 0 0 - - -;
#X text 65 271 transp semitones;
#X obj 87 414 mtof;
#X obj 86 383 fiddle~ 1024;
#X obj 88 444 / 440;
#X obj 192 544 *;
#X obj 187 439 t b f;
#X obj 277 368 outlet;
#X obj 361 276 inlet;
#X connect 0 0 3 1;
#X connect 1 0 2 0;
#X connect 2 0 4 1;
#X connect 3 0 5 0;
#X connect 4 0 5 1;
#X connect 5 0 26 0;
#X connect 15 0 1 0;
#X connect 15 0 0 0;
#X connect 23 0 3 0;
#X connect 23 1 4 0;
#X connect 25 0 23 0;
#X connect 25 0 39 0;
#X connect 28 0 30 0;
#X connect 29 0 34 0;
#X connect 29 0 43 0;
#X connect 30 0 29 0;
#X connect 31 0 30 1;
#X connect 33 0 35 0;
#X connect 34 0 33 0;
#X connect 35 0 42 0;
#X connect 36 0 15 0;
#X connect 38 0 40 0;
#X connect 39 0 38 0;
#X connect 40 0 41 0;
#X connect 41 0 36 0;
#X connect 42 0 41 0;
#X connect 42 1 41 1;
#X connect 44 0 34 0;
