#N canvas 343 118 571 541 12;
#X floatatom 38 285 5 0 0 0 - - - 0;
#X floatatom 58 385 5 0 0 0 - - - 0;
#X obj 38 311 s message1;
#X obj 58 357 r message1;
#X floatatom 163 408 5 0 0 0 - - - 0;
#X obj 164 355 r message1;
#X obj 164 382 + 1;
#X text 37 18 [send] and [receive] - chordless connections;
#X text 37 47 The [send] and [receive] objects are useful for linking objects and subroutines together in a single canvas or throughout multiple patches. Understanding these objects will help 'clean up' your patches and allow you to communicate messages between various modules that you build or between objects where patch cords are not possible.;
#X floatatom 144 285 5 0 0 0 - - - 0;
#X text 35 224 send and receive objects can have a creation argument to distinguish multiple instances. All [sends]s and [receive]s of the same name will intercommunicate:;
#X obj 38 188 send;
#X obj 161 154 receive;
#X floatatom 161 186 5 0 0 0 - - - 0;
#X msg 38 153 50;
#X floatatom 85 155 5 0 0 0 - - - 0;
#X obj 316 154 receive;
#X floatatom 316 186 5 0 0 0 - - - 0;
#X floatatom 276 306 5 0 0 0 - - - 0;
#X obj 276 333 s message2;
#X obj 390 383 send;
#X floatatom 389 324 3 0 0 0 - - - 0;
#X symbolatom 415 352 10 0 0 0 - - - 0;
#X msg 415 294 symbol message1;
#X msg 428 323 symbol message2;
#X floatatom 275 402 5 0 0 0 - - - 0;
#X obj 275 371 r message2;
#X obj 144 312 s message1;
#X floatatom 43 478 5 0 0 0 - - number-send 0;
#X floatatom 375 499 5 0 0 0 - - - 0;
#X text 88 476 drag this (right click > properties to see the send name), f 32;
#X text 42 444 built-in send and receives of a number object;
#X obj 375 478 receive number-send;
#X connect 0 0 2 0;
#X connect 3 0 1 0;
#X connect 5 0 6 0;
#X connect 6 0 4 0;
#X connect 9 0 27 0;
#X connect 12 0 13 0;
#X connect 14 0 11 0;
#X connect 15 0 11 0;
#X connect 16 0 17 0;
#X connect 18 0 19 0;
#X connect 21 0 20 0;
#X connect 22 0 20 1;
#X connect 23 0 22 0;
#X connect 24 0 22 0;
#X connect 26 0 25 0;
#X connect 32 0 29 0;
