#N canvas 494 31 495 667 12;
#X floatatom 39 535 5 0 0 0 - - - 0;
#X floatatom 58 513 5 0 0 0 - - - 0;
#X floatatom 77 491 5 0 0 0 - - - 0;
#X obj 39 153 bonk~ 1024;
#X floatatom 96 469 5 0 0 0 - - - 0;
#X floatatom 116 446 5 0 0 0 - - - 0;
#X floatatom 135 426 5 0 0 0 - - - 0;
#X floatatom 154 405 5 0 0 0 - - - 0;
#X floatatom 174 381 5 0 0 0 - - - 0;
#X floatatom 193 359 5 0 0 0 - - - 0;
#X floatatom 212 337 5 0 0 0 - - - 0;
#X floatatom 232 316 5 0 0 0 - - - 0;
#X obj 39 289 unpack f f f f f f f f f f f;
#X text 36 56 bonk~ is for transient detection (especially of noisy \, percussive signals) when bonk~ detects a transient it outputs the amplitude of 11 spectral regions.;
#X floatatom 145 205 5 0 0 0 - - - 0;
#X text 20 563 Bonk's two outputs are the raw spectrum of the attack (provided as a list of 11 numbers giving the signal "loudness" in the 11 frequency bands used) \, and the "cooked" output which gives only an instrument number (counting up from zero) and a "velocity". The instrumnent number is significant only if Bonk has a "template set" in memory.;
#X text 278 289 raw;
#X text 192 205 cooked;
#X obj 390 298 tgl 15 0 empty empty empty 17 7 0 10 #fcfcfc #000000 #000000 0 1;
#X msg 390 319 \; pd dsp \$1;
#X text 38 28 attack_detection_with_bonk~;
#X text 52 232 This "velocity" is the sum of the square roots of the amplitudes of the bands \, normalized so that 100 is an attack of amplitude of about 1;
#X obj 39 118 adc~ 1;
#X obj 106 178 unpack;
#X text 195 112 The [bonk~] object takes an audio signal input and looks for "attacks" defined as sharp changes in the spectral envelope of the incoming sound., f 31;
#X connect 3 0 12 0;
#X connect 3 1 23 0;
#X connect 12 0 0 0;
#X connect 12 1 1 0;
#X connect 12 2 2 0;
#X connect 12 3 4 0;
#X connect 12 4 5 0;
#X connect 12 5 6 0;
#X connect 12 6 7 0;
#X connect 12 7 8 0;
#X connect 12 8 9 0;
#X connect 12 9 10 0;
#X connect 12 10 11 0;
#X connect 18 0 19 0;
#X connect 22 0 3 0;
#X connect 23 1 14 0;
