#N canvas 661 339 513 331 12;
#X obj 61 100 bonk~ 1024;
#X obj 128 127 unpack;
#X floatatom 167 155 5 0 0 0 - - - 0;
#X obj 167 240 spigot;
#X obj 167 182 t b f, f 6;
#X text 49 25 bonk~ can be used for switching a toggle by attack.;
#X obj 382 58 tgl 15 0 empty empty empty 17 7 0 10 #fcfcfc #000000 #000000 0 1;
#X msg 382 82 \; pd dsp \$1;
#X obj 167 271 bng 15 250 50 0 empty empty empty 0 -6 0 8 #fce0e0 #fc2828 #fc2828;
#X obj 191 271 tgl 15 0 empty empty empty 17 7 0 10 #fcfcfc #000000 #000000 0 1;
#X obj 227 163 hsl 128 15 1 100 0 0 empty empty empty -2 -8 0 10 #fcfcfc #000000 #000000 0 1;
#X floatatom 224 184 5 0 0 0 - - - 0;
#X obj 206 212 >;
#X text 222 143 threshold between 1 - 100;
#X obj 61 73 adc~ 1;
#X connect 0 1 1 0;
#X connect 1 1 2 0;
#X connect 2 0 4 0;
#X connect 3 0 8 0;
#X connect 3 0 9 0;
#X connect 4 0 3 0;
#X connect 4 1 12 0;
#X connect 6 0 7 0;
#X connect 10 0 11 0;
#X connect 11 0 12 1;
#X connect 12 0 3 1;
#X connect 14 0 0 0;
