#N canvas 371 65 663 645 12;
#X obj 189 514 timer;
#X obj 36 392 bng 15 250 50 0 empty empty empty 17 7 0 10 -262144 -1
-1;
#X obj 92 575 metro;
#X obj 91 423 tgl 15 0 empty empty empty 17 7 0 10 -262144 -1 -1 0
1;
#X floatatom 188 542 5 0 0 0 - - -, f 5;
#X obj 189 464 sel 1 0;
#X obj 35 609 bng 15 250 50 0 empty empty empty 17 7 0 10 -262144 -1
-1;
#X obj 92 487 expr 1-$f1;
#X obj 92 519 tgl 15 0 empty empty empty 17 7 0 10 -262144 -1 -1 1
1;
#X msg 124 183 bang;
#X msg 35 158 bang;
#X obj 37 252 timer;
#X floatatom 37 304 0 0 0 0 - - -;
#X text 80 155 Click here to start or reset;
#X text 173 182 Click here to get elapsed logical time. Click again...and
again...to see periodic measurements from the start or reset time.
;
#X text 59 388 Tap two times to set the metronome speed;
#X text 113 517 on/off;
#X text 239 513 counts the time between first and second tap;
#X text 114 419 toggle between 0 and 1 each bang;
#X text 252 463 split the two taps;
#X text 235 541 time for the [metro] in milliseconds;
#X text 183 488 inverse toggle to start [metro] after the second tap
;
#X text 35 351 Set [metro] by tapping;
#X obj 101 252 realtime;
#X floatatom 101 305 8 0 0 0 - - -, f 8;
#X text 33 25 The [timer] object measures elapsed logical time. Logical
time moves forward as if all computation were instantaneous and as
if all [delay] and [metro] objects were exact. The [timer] object is
like a clock that is not constrained to the regular laws of physics
and the universal space-time continuum. It reports "time" measurements
as only Pd can see them!;
#X text 173 236 The [realtime] object is as much like your own wrist
watch as Pd can possibly manage. It measures time according to your
operating system's internal clock.;
#X text 176 303 Output is in milliseconds. See the difference !;
#X obj 35 487 spigot;
#X connect 0 0 4 0;
#X connect 1 0 3 0;
#X connect 1 0 28 0;
#X connect 2 0 6 0;
#X connect 3 0 28 1;
#X connect 3 0 5 0;
#X connect 3 0 7 0;
#X connect 4 0 2 1;
#X connect 5 0 0 0;
#X connect 5 1 0 1;
#X connect 7 0 8 0;
#X connect 8 0 2 0;
#X connect 9 0 11 1;
#X connect 9 0 23 1;
#X connect 10 0 11 0;
#X connect 10 0 23 0;
#X connect 11 0 12 0;
#X connect 23 0 24 0;
#X connect 28 0 6 0;
