#N canvas 485 24 570 640 12;
#X floatatom 39 74 0 0 0 0 - - -;
#X obj 39 180 pipe 2000;
#X text 78 72 numbers to store and output later;
#X text 102 98 output all stored messages immediately;
#X msg 50 99 flush;
#X msg 67 150 clear;
#X text 115 150 forget all stored messages;
#X msg 60 125 bang;
#X text 103 124 output the most recently stored message;
#X floatatom 39 211 5 0 0 0 - - -, f 5;
#X text 231 330 A pipe for one float \, and one symbol.;
#X symbolatom 215 359 10 0 0 0 - - -, f 10;
#X floatatom 41 358 5 0 0 0 - - -, f 5;
#X msg 52 300 100 dog;
#X msg 40 273 42 cat;
#X text 107 272 messages can be sent as lists like this example.;
#X floatatom 49 393 0 0 0 0 - - -;
#X floatatom 42 508 0 0 0 0 - - -;
#X floatatom 100 588 0 0 0 0 - - -;
#X floatatom 159 534 0 0 0 0 - - -;
#X obj 76 448 + 1;
#X obj 120 447 + 2;
#X text 39 244 scheduled splitting of messages;
#X obj 42 481 pipe f f f 2000;
#X obj 50 418 t f f f;
#X obj 100 562 pipe 250;
#X obj 159 509 pipe 500;
#X text 37 34 Delay number streams;
#X obj 293 444 bng 15 250 50 0 empty empty empty 17 7 0 10 -262144
-1 -1;
#X obj 293 477 pipe 1000;
#X obj 293 518 bng 15 250 50 0 empty empty empty 17 7 0 10 -262144
-1 -1;
#X text 186 418 pipe as a delay for bang sequences;
#X text 318 442 bang more than once;
#X obj 91 212 print;
#X obj 42 328 pipe float symbol 1000;
#X connect 0 0 1 0;
#X connect 1 0 9 0;
#X connect 1 0 33 0;
#X connect 4 0 1 0;
#X connect 5 0 1 0;
#X connect 7 0 1 0;
#X connect 13 0 34 0;
#X connect 14 0 34 0;
#X connect 16 0 24 0;
#X connect 20 0 23 1;
#X connect 21 0 23 2;
#X connect 23 0 17 0;
#X connect 23 1 25 0;
#X connect 23 2 26 0;
#X connect 24 0 23 0;
#X connect 24 1 20 0;
#X connect 24 2 21 0;
#X connect 25 0 18 0;
#X connect 26 0 19 0;
#X connect 28 0 29 0;
#X connect 29 0 30 0;
#X connect 34 0 12 0;
#X connect 34 1 11 0;
