#N canvas 612 77 601 549 12;
#N canvas 0 22 588 523 example 0;
#X obj 87 131 phasor~;
#X obj 88 226 cos~;
#X obj 68 328 *~ 0.5;
#N canvas 0 22 450 300 (subpatch) 0;
#X array cos-scaled2 44100 float 0;
#X coords 0 1.02 44100 -1.02 200 100 1;
#X restore 346 368 graph;
#N canvas 0 22 450 300 (subpatch) 0;
#X array cos2 44100 float 0;
#X coords 0 1.02 44100 -1.02 200 100 1;
#X restore 346 245 graph;
#X obj 29 253 sig~ 1;
#X msg 164 151 bang;
#X obj 67 294 -~;
#N canvas 0 22 450 300 (subpatch) 0;
#X array phasor2 44100 float 0;
#X coords 0 1.02 44100 -1.02 200 100 1;
#X restore 345 124 graph;
#X obj 187 202 tabwrite~ phasor2;
#X obj 87 103 sig~;
#X obj 87 40 loadbang;
#X obj 209 323 tabwrite~ cos2;
#X obj 160 447 tabwrite~ cos-scaled2;
#X msg 88 74 2;
#X text 187 384 scaled cos func;
#X text 198 39 Create a hanning window from a phasor;
#X connect 0 0 1 0;
#X connect 0 0 9 0;
#X connect 1 0 7 1;
#X connect 1 0 12 0;
#X connect 2 0 13 0;
#X connect 5 0 7 0;
#X connect 6 0 9 0;
#X connect 6 0 12 0;
#X connect 6 0 13 0;
#X connect 7 0 2 0;
#X connect 10 0 0 0;
#X connect 11 0 6 0;
#X connect 11 0 14 0;
#X connect 14 0 10 0;
#X restore 55 303 pd example;
#N canvas 0 22 450 300 (subpatch) 0;
#X array array99 100 float 0;
#X coords 0 1 100 -1 200 100 1;
#X restore 224 185 graph;
#X obj 56 274 tabwrite~ array99;
#X obj 55 121 sig~ 2;
#X obj 55 182 *~;
#X obj 56 210 -~ 1;
#X obj 113 189 loadbang;
#X obj 76 151 phasor~ 880;
#X msg 113 226 \; pd dsp 1;
#X text 51 336 [snapshot~] converts a signal to a number whenever it
receives a bang in its left outlet. This object is particularly useful
for monitoring outputs.;
#X obj 51 458 snapshot~;
#X floatatom 51 483 0 0 0 0 - - -;
#X msg 64 427 bang;
#X text 139 485 This output updates each time bang is clicked above.
;
#X obj 52 398 osc~ 0.1;
#X text 124 398 signal in to take snapshots of;
#X text 108 427 bang -- take one snapshot;
#X text 53 49 [sig~] converts control numbers into audio signals p.e.
to included mathematical operations in audio streams. T In the following
example a [phasor~] is converted to a sawtooth signal.;
#X text 53 14 Conversion between control and audio objects;
#X connect 3 0 4 0;
#X connect 4 0 5 0;
#X connect 5 0 2 0;
#X connect 6 0 2 0;
#X connect 6 0 8 0;
#X connect 7 0 4 1;
#X connect 10 0 11 0;
#X connect 10 0 11 0;
#X connect 12 0 10 0;
#X connect 14 0 10 0;
