#N canvas 487 195 689 517 12;
#X obj 137 399 *~;
#X text 300 265 gain-scaler;
#X obj 137 242 *~;
#X obj 137 61 hip~ 20;
#X obj 16 35 cnv 15 80 190 empty empty empty 20 12 0 14 -228856 -66577
0;
#X obj 49 71 vu 15 120 to-vu-meter empty -1 -8 0 10 -66577 -1 0 0;
#X obj 32 71 vsl 15 119 0 2 0 0 \$0-gain-r \$0-gain-s 1.66929 -5 133
0 10 -262144 -1 -1 0 1;
#X obj 32 52 tgl 15 0 \$0-chan-onoff-r \$0-chan-onoff-s on/off 20 8
0 10 -262144 -258113 -1 1 1;
#X obj 158 160 s \$0-chan-onoff-s;
#X obj 158 186 r \$0-chan-onoff-r;
#X obj 158 319 s \$0-gain-s;
#X obj 159 347 r \$0-gain-r;
#X msg 272 347 label \$1;
#X obj 273 319 makefilename %f;
#X obj 158 91 tgl 15 0 empty empty empty 17 7 0 10 -262144 -1 -1 0
1;
#X text 181 89 input on/off;
#X text 248 20 signal from microphone;
#X obj 161 268 hsl 128 15 0 2 0 0 empty empty empty -2 -8 0 10 -262144
-1 -1 0 1;
#X obj 158 292 line \$1 100;
#X obj 136 480 s to-vu-meter;
#X text 202 61 very low highpass filter for impact-sound damping;
#X obj 158 212 sig~;
#X obj 158 373 sig~;
#X text 198 212 converting to signal for immediate computing;
#X text 261 293 line object to smooth fader movements;
#X msg 175 118 \; pd dsp \$1 \;;
#X obj 137 426 env~ 1024;
#X obj 137 452 - 100;
#X text 223 425 calculate level for vu-meter;
#X obj 124 16 adc~;
#X connect 0 0 26 0;
#X connect 2 0 0 0;
#X connect 3 0 2 0;
#X connect 9 0 21 0;
#X connect 11 0 13 0;
#X connect 11 0 22 0;
#X connect 12 0 10 0;
#X connect 13 0 12 0;
#X connect 14 0 25 0;
#X connect 14 0 8 0;
#X connect 17 0 18 0;
#X connect 18 0 10 0;
#X connect 21 0 2 1;
#X connect 22 0 0 1;
#X connect 26 0 27 0;
#X connect 27 0 19 0;
#X connect 29 0 3 0;
#X connect 29 1 3 0;
#X coords 0 0 1 1 80 190 0;
