#N canvas 414 66 524 522 12;
#X obj 84 47 inlet;
#X obj 220 46 inlet;
#X obj 116 316 pack;
#X obj 115 348 line;
#X obj 85 115 metro 5000;
#X obj 112 387 outlet;
#X obj 85 146 tgl 15 0 empty empty empty 17 7 0 10 -262144 -1 -1 0
1;
#X obj 85 236 sel 0 1;
#X obj 85 170 - 1;
#X obj 85 203 abs;
#X obj 54 272 f \$1;
#X obj 115 272 f \$2;
#X text 18 425 [lingen] takes two arguments (\$1 and \$2) which awhich
are alternatively selected to let the [line] ramp run between these
two boundaries;
#X connect 0 0 4 0;
#X connect 1 0 2 1;
#X connect 1 0 4 1;
#X connect 2 0 3 0;
#X connect 3 0 5 0;
#X connect 4 0 6 0;
#X connect 6 0 8 0;
#X connect 7 0 10 0;
#X connect 7 1 11 0;
#X connect 8 0 9 0;
#X connect 9 0 7 0;
#X connect 10 0 2 0;
#X connect 11 0 2 0;
