#N canvas 366 68 661 556 12;
#X obj 34 366 qlist;
#X msg 34 192 rewind;
#X obj 384 120 cnv 15 250 350 empty empty empty 20 12 0 14 #dcdcdc #404040 0;
#X obj 394 443 hsl 128 15 0 1 0 0 empty empty empty -2 -6 0 8 #fcfcfc #000000 #000000 0 1;
#X obj 394 162 unpack f f f;
#X floatatom 393 209 5 0 0 0 - - - 0;
#X floatatom 468 209 5 0 0 0 - - - 0;
#X obj 394 127 r werte;
#X floatatom 576 209 5 0 0 0 - - - 0;
#X floatatom 391 419 5 0 0 0 - - - 0;
#X obj 391 392 line;
#X obj 503 296 del;
#X obj 392 333 pack f f;
#X obj 502 333 pack 0 f;
#X obj 503 256 t b f;
#X text 26 50 Envelopes can be controlled via lists from a qlist file. (It is possible to have more than one qlist object with more than one qlist file in one patch.), f 57;
#X text 27 20 Sequencing envelopes with a qlist;
#X obj 34 143 t b b;
#X obj 34 118 loadbang;
#X msg 66 169 read 02-werte.txt;
#X msg 67 252 print;
#X obj 138 277 bng 19 250 50 0 empty empty empty 0 -10 0 12 #fcfcfc #000000 #000000;
#X msg 66 420 rewind;
#X msg 138 316 next;
#X text 94 393 bang after last line;
#X obj 66 393 bng 19 250 50 0 empty empty empty 0 -10 0 12 #fcfcfc #000000 #000000;
#X text 121 419 go to first line;
#X text 162 277 start automatic sequencing, f 29;
#X floatatom 35 499 11 0 0 0 - - - 0;
#X text 179 316 stepwise sequencing;
#X text 395 99 Recieved from [qlist]:;
#X text 118 486 time until next event = the leading argument in every line of a qlist file = milliseconds until the next line is executed. This numbers are not given when qlist is automatically sequencing., f 73;
#X obj 66 447 s loop;
#X obj 139 251 spigot;
#X obj 178 227 tgl 19 0 empty empty empty 0 -10 0 12 #fcfcfc #000000 #000000 0 1;
#X obj 139 205 r loop;
#X text 204 227 loop on/off;
#X connect 0 0 28 0;
#X connect 0 1 25 0;
#X connect 1 0 0 0;
#X connect 4 0 5 0;
#X connect 4 1 6 0;
#X connect 4 2 8 0;
#X connect 5 0 12 0;
#X connect 6 0 14 0;
#X connect 6 0 12 1;
#X connect 7 0 4 0;
#X connect 8 0 13 1;
#X connect 9 0 3 0;
#X connect 10 0 9 0;
#X connect 11 0 13 0;
#X connect 12 0 10 0;
#X connect 13 0 10 0;
#X connect 14 0 11 0;
#X connect 14 1 11 1;
#X connect 17 0 1 0;
#X connect 17 1 19 0;
#X connect 18 0 17 0;
#X connect 19 0 0 0;
#X connect 20 0 0 0;
#X connect 21 0 0 0;
#X connect 22 0 0 0;
#X connect 22 0 32 0;
#X connect 23 0 0 0;
#X connect 25 0 22 0;
#X connect 33 0 21 0;
#X connect 34 0 33 1;
#X connect 35 0 33 0;
