#N canvas 975 388 620 602 12;
#X floatatom 68 265 5 0 0 1 freq - - 0;
#X obj 174 505 +~;
#X obj 191 451 *~;
#X obj 191 398 osc~;
#X obj 68 113 inlet freq;
#X obj 68 239 f \$1;
#X obj 311 144 loadbang;
#X floatatom 144 266 5 0 0 1 carPartial - - 0;
#X obj 144 240 f \$2;
#X floatatom 261 267 5 0 0 1 modPartial - - 0;
#X obj 261 241 f \$3;
#X floatatom 374 265 5 0 0 1 index - - 0;
#X obj 374 239 f \$4;
#X floatatom 462 265 5 0 0 1 lfo-freq - - 0;
#X obj 462 239 f \$5;
#X obj 311 171 bng 19 250 50 0 empty empty empty 0 -10 0 12 #fcfcfc #000000 #000000;
#X obj 144 78 inlet carpartial;
#X obj 261 109 inlet modpartial;
#X obj 375 170 inlet index;
#X obj 191 345 *;
#X obj 261 290 t b f;
#N canvas 324 349 268 159 credits 0;
#X text 43 36 (c) 2024 Achim Bornhoeft Modelled after Supercollider Mark Polishook tutorial: 18_Frequency_modulation;
#X restore 240 34 pd credits;
#X text 72 34 Frequency modulator;
#X floatatom 191 371 5 0 0 0 - - - 0;
#X obj 174 574 outlet~;
#X obj 462 129 inlet lfo-freq;
#N canvas 382 407 515 457 LFNoise 0;
#X obj 67 94 inlet;
#X floatatom 67 144 5 0 0 0 - - - 0;
#X obj 67 221 metro;
#X obj 67 359 pack f f, f 11;
#X obj 67 309 / 100;
#X floatatom 67 333 5 0 0 0 - - - 0;
#X obj 67 250 bng 19 250 50 0 empty empty empty 0 -10 0 12 #fcfcfc #000000 #000000;
#X obj 67 167 t b f;
#X msg 67 193 1;
#X text 149 279 values 0 - 100;
#X obj 67 279 random 101;
#X text 115 308 values 0 - 1;
#X text 67 36 Generates linearly interpolated random values between 0 and 1 at a rate in seconds;
#X obj 67 120 expr 1000 * $f1;
#X obj 67 383 vline~;
#X obj 67 411 outlet~;
#X connect 0 0 13 0;
#X connect 1 0 7 0;
#X connect 2 0 6 0;
#X connect 3 0 14 0;
#X connect 4 0 5 0;
#X connect 5 0 3 0;
#X connect 6 0 10 0;
#X connect 7 0 8 0;
#X connect 7 1 2 1;
#X connect 7 1 3 1;
#X connect 8 0 2 0;
#X connect 10 0 4 0;
#X connect 13 0 1 0;
#X connect 14 0 15 0;
#X restore 462 293 pd LFNoise;
#X obj 375 344 *~;
#X obj 375 310 sig~;
#X obj 335 344 sig~;
#X obj 335 389 *~, f 6;
#X obj 335 464 snapshot~;
#X obj 344 413 tgl 19 0 empty empty empty 0 -10 0 12 #fcfcfc #000000 #000000 0 1;
#X obj 344 437 metro 10;
#X floatatom 335 488 5 0 0 0 - - - 0;
#X obj 174 539 osc~;
#X obj 144 292 t b f;
#X obj 68 379 *;
#X floatatom 68 403 5 0 0 0 - - - 0;
#X text 230 399 modulator;
#X text 104 434 carrier;
#X obj 452 405 snapshot~;
#X obj 461 354 tgl 19 0 empty empty empty 0 -10 0 12 #fcfcfc #000000 #000000 0 1;
#X obj 461 378 metro 10;
#X floatatom 452 429 5 0 0 0 - - - 0;
#X obj 68 434 sig~;
#X connect 0 0 19 0;
#X connect 0 0 29 0;
#X connect 0 0 37 0;
#X connect 1 0 35 0;
#X connect 2 0 1 1;
#X connect 3 0 2 0;
#X connect 4 0 5 0;
#X connect 5 0 0 0;
#X connect 6 0 15 0;
#X connect 7 0 36 0;
#X connect 8 0 7 0;
#X connect 9 0 20 0;
#X connect 10 0 9 0;
#X connect 11 0 28 0;
#X connect 12 0 11 0;
#X connect 13 0 26 0;
#X connect 14 0 13 0;
#X connect 15 0 14 0;
#X connect 15 0 12 0;
#X connect 15 0 10 0;
#X connect 15 0 8 0;
#X connect 15 0 5 0;
#X connect 16 0 8 0;
#X connect 17 0 10 0;
#X connect 18 0 12 0;
#X connect 19 0 23 0;
#X connect 20 0 19 0;
#X connect 20 1 19 1;
#X connect 23 0 3 0;
#X connect 25 0 14 0;
#X connect 26 0 27 1;
#X connect 27 0 30 1;
#X connect 27 0 41 0;
#X connect 28 0 27 0;
#X connect 29 0 30 0;
#X connect 30 0 31 0;
#X connect 30 0 2 1;
#X connect 31 0 34 0;
#X connect 32 0 33 0;
#X connect 33 0 31 0;
#X connect 35 0 24 0;
#X connect 36 0 37 0;
#X connect 36 1 37 1;
#X connect 37 0 38 0;
#X connect 38 0 45 0;
#X connect 41 0 44 0;
#X connect 42 0 43 0;
#X connect 43 0 41 0;
#X connect 45 0 1 0;
