#N canvas 609 276 503 518 12;
#X msg 97 214 50;
#X obj 97 257 t b f;
#X obj 97 351 <;
#X obj 97 382 sel 1;
#X obj 97 416 bng 15 250 50 0 empty empty empty 17 7 0 10 #fcfcfc #000000 #000000;
#X obj 97 296 random 100;
#X floatatom 97 326 5 0 0 0 - - - 0;
#X obj 77 26 tgl 15 0 empty empty empty 17 7 0 10 #fcfcfc #000000 #000000 0 1;
#X obj 95 99 hradio 15 1 0 3 empty empty empty 0 -8 0 10 #fcfcfc #000000 #000000 0;
#X floatatom 77 146 5 0 0 0 - - - 0;
#X obj 77 120 f 0;
#X obj 77 175 sel 0 1 2;
#X obj 77 78 bng 15 250 50 0 empty empty empty 17 7 0 10 #fcfcfc #000000 #000000;
#X msg 52 214 100;
#X msg 141 214 5;
#X text 174 213 percent;
#X text 153 98 select the percentages;
#X obj 77 52 metro 300;
#X text 137 344 select only random numbers smaller than the percentage, f 28;
#X connect 0 0 1 0;
#X connect 1 0 5 0;
#X connect 1 1 2 1;
#X connect 2 0 3 0;
#X connect 3 0 4 0;
#X connect 5 0 6 0;
#X connect 6 0 2 0;
#X connect 7 0 17 0;
#X connect 8 0 10 1;
#X connect 9 0 11 0;
#X connect 10 0 9 0;
#X connect 11 0 13 0;
#X connect 11 1 0 0;
#X connect 11 2 14 0;
#X connect 12 0 10 0;
#X connect 13 0 1 0;
#X connect 14 0 1 0;
#X connect 17 0 12 0;
