#N canvas 177 178 812 644 12;
#X declare -path abs;
#X msg 81 156 bang;
#X obj 104 275 print urne;
#X obj 126 256 bng 15 250 50 0 empty empty empty 0 -6 0 8 #fcfcfc #000000 #000000;
#X msg 125 157 seed 10;
#X msg 127 183 clear;
#X floatatom 214 184 5 0 100 0 - - - 0;
#X text 69 37 generates random numbers without repetition;
#X text 338 233 bang: output next random number without repetitions.;
#X text 337 256 clear: put all numbers back into urn.;
#X text 337 280 seed NUM: seed random number generator;
#X text 347 394 random number;
#X text 359 335 int - set range of random numbers and reset the urn.;
#X text 319 181 Arguments: int - range of random numbers in urn (optional);
#X msg 83 371 bang;
#N canvas 0 22 450 300 display 0;
#X obj 46 191 tgl 15 0 empty empty empty 0 -6 0 8 #fcfcfc #000000 #000000 0 1;
#X obj 63 191 tgl 15 0 empty empty empty 0 -6 0 8 #fcfcfc #000000 #000000 0 1;
#X obj 80 191 tgl 15 0 empty empty empty 0 -6 0 8 #fcfcfc #000000 #000000 0 1;
#X obj 97 191 tgl 15 0 empty empty empty 0 -6 0 8 #fcfcfc #000000 #000000 0 1;
#X obj 114 191 tgl 15 0 empty empty empty 0 -6 0 8 #fcfcfc #000000 #000000 0 1;
#X obj 156 135 list append 0;
#X obj 46 134 list append 1;
#N canvas 0 22 450 300 count 0;
#X obj 158 193 + 1;
#X obj 122 158 until;
#X obj 122 194 f;
#X obj 122 101 inlet;
#X msg 167 157 0;
#X obj 122 120 t a b;
#X obj 122 224 outlet;
#X connect 0 0 2 1;
#X connect 1 0 2 0;
#X connect 2 0 0 0;
#X connect 2 0 6 0;
#X connect 3 0 5 0;
#X connect 4 0 2 1;
#X connect 5 0 1 0;
#X connect 5 1 4 0;
#X restore 156 90 pd count;
#X obj 46 160 route 0 1 2 3 4 5 6 7 8 9;
#X obj 131 191 tgl 15 0 empty empty empty 0 -6 0 8 #fcfcfc #000000 #000000 0 1;
#X obj 148 191 tgl 15 0 empty empty empty 0 -6 0 8 #fcfcfc #000000 #000000 0 1;
#X obj 165 191 tgl 15 0 empty empty empty 0 -6 0 8 #fcfcfc #000000 #000000 0 1;
#X obj 182 191 tgl 15 0 empty empty empty 0 -6 0 8 #fcfcfc #000000 #000000 0 1;
#X obj 199 191 tgl 15 0 empty empty empty 0 -6 0 8 #fcfcfc #000000 #000000 0 1;
#X obj 46 36 inlet;
#X obj 156 37 inlet;
#X connect 5 0 8 0;
#X connect 6 0 8 0;
#X connect 7 0 5 0;
#X connect 8 0 0 0;
#X connect 8 1 1 0;
#X connect 8 2 2 0;
#X connect 8 3 3 0;
#X connect 8 4 4 0;
#X connect 8 5 9 0;
#X connect 8 6 10 0;
#X connect 8 7 11 0;
#X connect 8 8 12 0;
#X connect 8 9 13 0;
#X connect 14 0 6 0;
#X connect 15 0 7 0;
#X coords 0 -1 1 1 180 40 1 40 170;
#X restore 83 571 pd display;
#X text 349 445 bang \, when an empty urn receives a bang into first inlet.;
#X msg 96 401 clear \, bang;
#X obj 127 483 t b b;
#X obj 127 516 bng 15 250 50 0 empty empty empty 0 -6 0 8 #fcfcfc #000000 #000000;
#X obj 256 533 f 10;
#X floatatom 207 402 5 0 0 0 - - - 0;
#N canvas 1339 184 293 235 display 0;
#X obj 46 191 tgl 15 0 empty empty empty 0 -6 0 8 #fcfcfc #000000 #000000 0 1;
#X obj 63 191 tgl 15 0 empty empty empty 0 -6 0 8 #fcfcfc #000000 #000000 0 1;
#X obj 80 191 tgl 15 0 empty empty empty 0 -6 0 8 #fcfcfc #000000 #000000 0 1;
#X obj 97 191 tgl 15 0 empty empty empty 0 -6 0 8 #fcfcfc #000000 #000000 0 1;
#X obj 114 191 tgl 15 0 empty empty empty 0 -6 0 8 #fcfcfc #000000 #000000 0 1;
#X obj 156 135 list append 0;
#X obj 46 134 list append 1;
#N canvas 0 22 450 300 count 0;
#X obj 158 193 + 1;
#X obj 122 158 until;
#X obj 122 194 f;
#X obj 122 101 inlet;
#X msg 167 157 0;
#X obj 122 120 t a b;
#X obj 122 224 outlet;
#X connect 0 0 2 1;
#X connect 1 0 2 0;
#X connect 2 0 0 0;
#X connect 2 0 6 0;
#X connect 3 0 5 0;
#X connect 4 0 2 1;
#X connect 5 0 1 0;
#X connect 5 1 4 0;
#X restore 156 90 pd count;
#X obj 46 160 route 0 1 2 3 4 5 6 7 8 9;
#X obj 131 191 tgl 15 0 empty empty empty 0 -6 0 8 #fcfcfc #000000 #000000 0 1;
#X obj 148 191 tgl 15 0 empty empty empty 0 -6 0 8 #fcfcfc #000000 #000000 0 1;
#X obj 165 191 tgl 15 0 empty empty empty 0 -6 0 8 #fcfcfc #000000 #000000 0 1;
#X obj 182 191 tgl 15 0 empty empty empty 0 -6 0 8 #fcfcfc #000000 #000000 0 1;
#X obj 199 191 tgl 15 0 empty empty empty 0 -6 0 8 #fcfcfc #000000 #000000 0 1;
#X obj 46 36 inlet;
#X obj 156 37 inlet;
#X connect 5 0 8 0;
#X connect 6 0 8 0;
#X connect 7 0 5 0;
#X connect 8 0 0 0;
#X connect 8 1 1 0;
#X connect 8 2 2 0;
#X connect 8 3 3 0;
#X connect 8 4 4 0;
#X connect 8 5 9 0;
#X connect 8 6 10 0;
#X connect 8 7 11 0;
#X connect 8 8 12 0;
#X connect 8 9 13 0;
#X connect 14 0 6 0;
#X connect 15 0 7 0;
#X coords 0 -1 1 1 180 40 1 40 170;
#X restore 81 305 pd display;
#X obj 254 273 f 10;
#X obj 254 247 b;
#X text 351 481 Use the second outlet to make the urn refill automatically if it gets empty as show in the second example with a combined "clear \, bang" message.;
#X obj 99 539 print urne_auto;
#X text 73 75 Clone of the Max object [urn] and RTC/urne. Stops when all values have been chosen and bangs right outlet. Send "clear" message to make it start over.;
#X obj 81 230 urn 10;
#X obj 83 456 urn 10;
#X text 69 19 Unique Random Number generator;
#X text 317 213 Inlet 1:;
#X text 318 314 Inlet 2:;
#X text 321 375 Outlet 1:;
#X text 323 427 Outlet 2:;
#X obj 327 586 declare -path abs;
#X connect 0 0 27 0;
#X connect 3 0 27 0;
#X connect 4 0 23 0;
#X connect 4 0 27 0;
#X connect 5 0 22 0;
#X connect 5 0 27 1;
#X connect 13 0 28 0;
#X connect 16 0 28 0;
#X connect 17 0 16 0;
#X connect 17 0 18 0;
#X connect 17 1 19 0;
#X connect 19 0 14 1;
#X connect 20 0 19 0;
#X connect 20 0 28 1;
#X connect 22 0 21 1;
#X connect 23 0 22 0;
#X connect 27 0 1 0;
#X connect 27 0 21 0;
#X connect 27 1 2 0;
#X connect 28 0 14 0;
#X connect 28 0 25 0;
#X connect 28 1 17 0;
