#N canvas 0 22 358 386 10;
#X obj 107 231 osc~;
#X obj 116 135 hsl 64 10 0 127 0 0 empty empty empty -2 -8 0 10 -262144
-1 -1 0 1;
#X obj 98 167 cmap 0 20;
#X obj 107 269 snapshot~;
#X obj 107 311 outlet;
#X obj 32 184 tgl 15 0 empty empty empty 17 7 0 10 -262144 -1 -1 1
1;
#X obj 116 148 hsl 64 10 0 127 0 0 empty empty empty -2 -8 0 10 -262144
-1 -1 0 1;
#X obj 173 167 cmap 0 2;
#X obj 107 289 *;
#X text 121 131 freq;
#X text 120 143 depth;
#X obj 32 160 loadbang;
#X text 35 26 lfo.pd;
#X text 36 44 Low frequency oscillator;
#X text 36 64 2011-02-09 Dan Ellis dpwe@ee.columbia.edu;
#X text 30 131 Sample osc;
#X text 30 144 every 10ms;
#X obj 32 205 metro 10;
#X text 96 187 LFO range;
#X text 96 197 0-20 Hz;
#X text 171 187 LFO amplitude;
#X text 171 199 0-2;
#X text 141 232 Sinusoid;
#X connect 0 0 3 0;
#X connect 1 0 2 0;
#X connect 2 0 0 0;
#X connect 3 0 8 0;
#X connect 5 0 17 0;
#X connect 6 0 7 0;
#X connect 7 0 8 1;
#X connect 8 0 4 0;
#X connect 11 0 5 0;
#X connect 17 0 3 0;
#X coords 0 -1 1 1 80 45 1 105 115;
