#N canvas 176 319 746 426 12;
#X obj 32 121 noise~;
#X obj 32 280 *~;
#X obj 53 252 line~;
#X msg 53 215 0 250;
#X obj 246 370 dac~;
#X obj 53 189 delay 50;
#X msg 129 189 0.5 50;
#X obj 246 166 +~ 800;
#X obj 246 136 *~ 200;
#X text 111 251 gain control;
#X text 110 269 for noise;
#X text 33 390 delay input;
#X text 355 196 delay output (variable delay time);
#X text 334 108 oscillator drives variable delay time;
#X text 318 165 delay time: 800 +/- 200 = 600 <= x <= 1000 msec;
#X text 329 266 reduce gain for output and regenerative feedback;
#X text 298 370 variable delay with feedback;
#X obj 32 368 delwrite~ delay1 10000;
#X obj 246 197 vd~ delay1;
#X obj 246 108 osc~ 0.5;
#X obj 246 266 *~ 0.5;
#X obj 294 221 hsl 128 15 0.001 0.99 0 0 empty empty empty -2 -8 0
10 -262144 -1 -1 8400 1;
#X floatatom 291 242 5 0 0 0 - - -, f 5;
#X text 314 137 +/- 200 because [osc~] is between -1 and 1;
#X obj 96 20 tgl 15 0 empty empty empty 17 7 0 10 -262144 -1 -1 1 1
;
#X obj 96 40 t f b;
#X obj 96 121 metro;
#X obj 133 95 + 100;
#X obj 133 67 random 1500;
#X connect 0 0 1 0;
#X connect 1 0 4 0;
#X connect 1 0 17 0;
#X connect 2 0 1 1;
#X connect 3 0 2 0;
#X connect 5 0 3 0;
#X connect 6 0 2 0;
#X connect 7 0 18 0;
#X connect 8 0 7 0;
#X connect 18 0 20 0;
#X connect 19 0 8 0;
#X connect 20 0 4 0;
#X connect 20 0 17 0;
#X connect 21 0 22 0;
#X connect 22 0 20 1;
#X connect 24 0 25 0;
#X connect 25 0 26 0;
#X connect 25 1 28 0;
#X connect 26 0 6 0;
#X connect 26 0 5 0;
#X connect 26 0 28 0;
#X connect 27 0 26 1;
#X connect 28 0 27 0;
