#N canvas 668 149 446 683 12;
#X obj 77 204 vsl 15 128 0 1 0 0 empty empty empty 0 -8 0 10 #fcfcfc #000000 #000000 0 1;
#X obj 121 203 vsl 15 128 1 10000 1 0 empty empty empty 0 -8 0 10 #fcfcfc #000000 #000000 0 1;
#X obj 176 204 vsl 15 128 0 1 0 0 empty empty empty 0 -8 0 10 #fcfcfc #000000 #000000 0 1;
#X obj 114 164 unpack f f f f;
#X floatatom 77 345 5 0 0 0 - - - 0;
#X floatatom 121 344 5 0 0 0 - - - 0;
#X obj 253 203 vsl 15 128 1 5000 1 0 empty empty empty 0 -8 0 10 #fcfcfc #000000 #000000 0 1;
#X floatatom 253 343 5 0 0 0 - - - 0;
#X floatatom 176 344 5 0 0 0 - - - 0;
#X obj 41 22 tgl 15 0 empty empty empty 0 -6 0 8 #fcfcfc #000000 #000000 0 1;
#X obj 41 107 readsf~ 2;
#X obj 41 43 t f b;
#X msg 128 109 1;
#X obj 60 544 *~;
#X obj 42 576 +~;
#X obj 121 454 +~;
#X obj 252 404 line~;
#X obj 121 375 osc~;
#X obj 121 407 *~;
#X obj 252 377 pack f 10;
#X obj 121 482 vd~ \$0-delayline 1000;
#X obj 42 608 delwrite~ \$0-delayline 3000;
#X text 39 653 (c) 2008 Achim Bornhoeft;
#X text 243 608 write to delay line;
#N canvas 1095 305 263 385 examples 0;
#X msg 38 20 0.7 63 0.9 345;
#X text 160 20 Frösche;
#X msg 61 47 0.85 28 0.15 71;
#X msg 73 75 0.85 50 0.5 116;
#X msg 80 103 0.95 71.84 0.25 28.36;
#X msg 87 134 0.25 311 0.7 65;
#X msg 93 166 0.95 30 1 1.7;
#X obj 108 242 random 40;
#X obj 108 268 + 1;
#X msg 108 293 0.99 37 0.2 \$1;
#X obj 108 197 tgl 15 0 empty empty empty 17 7 0 10 #fcfcfc #000000 #000000 0 1;
#X obj 108 217 metro 900;
#X obj 49 338 outlet;
#X connect 0 0 12 0;
#X connect 2 0 12 0;
#X connect 3 0 12 0;
#X connect 4 0 12 0;
#X connect 5 0 12 0;
#X connect 6 0 12 0;
#X connect 7 0 8 0;
#X connect 8 0 9 0;
#X connect 9 0 12 0;
#X connect 10 0 11 0;
#X connect 11 0 7 0;
#X restore 114 138 pd examples;
#X msg 78 70 open ../Sounds/1-4.wav;
#X obj 121 522 dac~;
#X text 158 375 osc freq;
#X text 153 406 osc amp;
#X text 152 454 variable delay length;
#X text 91 545 add delayed to the original signal = feedback;
#X connect 0 0 4 0;
#X connect 1 0 5 0;
#X connect 2 0 8 0;
#X connect 3 0 0 0;
#X connect 3 1 1 0;
#X connect 3 2 2 0;
#X connect 3 3 6 0;
#X connect 4 0 13 1;
#X connect 5 0 17 0;
#X connect 6 0 7 0;
#X connect 7 0 19 0;
#X connect 8 0 18 1;
#X connect 9 0 11 0;
#X connect 10 0 14 0;
#X connect 10 2 12 0;
#X connect 11 0 10 0;
#X connect 11 1 25 0;
#X connect 12 0 11 0;
#X connect 13 0 14 1;
#X connect 14 0 21 0;
#X connect 15 0 20 0;
#X connect 16 0 15 1;
#X connect 17 0 18 0;
#X connect 18 0 15 0;
#X connect 19 0 16 0;
#X connect 20 0 13 0;
#X connect 20 0 26 0;
#X connect 20 0 26 1;
#X connect 24 0 3 0;
#X connect 25 0 10 0;
