#N canvas 145 106 670 426 10;
#N canvas 845 102 599 518 shiftthepitch 1;
#X text 144 27 in cents;
#X text 146 15 detune;
#X msg 209 165 4096;
#X text 247 166 window size \,;
#X text 247 178 samples;
#X obj 18 464 dac~;
#X obj 29 432 *~;
#X obj 45 413 hsl 128 15 0 1 0 0 empty empty empty -2 -6 0 8 -262144
-1 -1 12700 1;
#X obj 31 254 fft-pitchshifter;
#X obj 29 43 adc~ 1;
#X obj 30 93 *~;
#X obj 43 73 tgl 15 0 empty empty empty 0 -6 0 8 -262144 -1 -1 1 1
;
#X text 17 21 live-input;
#X obj 152 48 vsl 15 128 -1200 1200 0 0 empty empty empty 0 -9 0 10
-258309 -1 -1 6350 1;
#X floatatom 85 219 5 0 0 0 - - -, f 5;
#X obj 30 392 lop~ 10000;
#X obj 208 130 loadbang;
#N canvas 0 22 672 651 fsplit 0;
#X obj 115 209 lop~;
#X obj 115 235 lop~;
#X obj 115 264 lop~;
#X obj 115 292 lop~;
#X obj 115 182 lop~;
#X obj 115 156 lop~;
#X obj 115 133 lop~;
#X obj 115 106 lop~;
#X obj 188 160 hip~;
#X obj 187 134 hip~;
#X obj 187 188 hip~;
#X obj 187 216 hip~;
#X obj 186 242 hip~;
#X obj 186 269 hip~;
#X obj 186 295 hip~;
#X obj 187 106 hip~;
#X floatatom 154 83 5 0 0 0 - - -, f 5;
#X floatatom 230 80 5 0 0 0 - - -, f 5;
#X obj 101 34 inlet~;
#X obj 227 33 inlet;
#X text 228 15 freq;
#X obj 106 356 outlet~;
#X obj 191 355 outlet~;
#X connect 0 0 1 0;
#X connect 1 0 2 0;
#X connect 2 0 3 0;
#X connect 3 0 21 0;
#X connect 4 0 0 0;
#X connect 5 0 4 0;
#X connect 6 0 5 0;
#X connect 7 0 6 0;
#X connect 8 0 10 0;
#X connect 9 0 8 0;
#X connect 10 0 11 0;
#X connect 11 0 12 0;
#X connect 12 0 13 0;
#X connect 13 0 14 0;
#X connect 14 0 22 0;
#X connect 15 0 9 0;
#X connect 16 0 7 1;
#X connect 16 0 6 1;
#X connect 16 0 5 1;
#X connect 16 0 4 1;
#X connect 16 0 0 1;
#X connect 16 0 1 1;
#X connect 16 0 2 1;
#X connect 16 0 3 1;
#X connect 17 0 15 1;
#X connect 17 0 9 1;
#X connect 17 0 8 1;
#X connect 17 0 10 1;
#X connect 17 0 11 1;
#X connect 17 0 12 1;
#X connect 17 0 13 1;
#X connect 17 0 14 1;
#X connect 18 0 7 0;
#X connect 18 0 15 0;
#X connect 19 0 17 0;
#X connect 19 0 16 0;
#X restore 30 164 pd fsplit;
#X obj 110 48 vsl 15 128 1500 8000 0 0 empty empty empty 0 -9 0 10
-262144 -1 -1 4298 1;
#X obj 31 364 +~;
#X floatatom 61 133 5 0 0 0 - - -, f 5;
#X obj 55 285 delwrite~ banana 300;
#X obj 47 333 delread~ banana 200;
#X msg 207 381 1;
#X obj 107 10 inlet;
#X text 323 22 (C) 2007 Mikael Fernstrom;
#X text 325 8 Vocal pitch-shifter;
#X msg 72 99 3700;
#N canvas 794 257 503 409 lop8~ 0;
#X obj 115 209 lop~;
#X obj 115 235 lop~;
#X obj 115 264 lop~;
#X obj 115 292 lop~;
#X obj 115 182 lop~;
#X obj 115 156 lop~;
#X obj 115 133 lop~;
#X obj 115 106 lop~;
#X floatatom 154 83 5 0 0 0 - - -, f 5;
#X obj 101 34 inlet~;
#X obj 106 356 outlet~;
#X obj 178 32 inlet;
#X connect 0 0 1 0;
#X connect 1 0 2 0;
#X connect 2 0 3 0;
#X connect 3 0 10 0;
#X connect 4 0 0 0;
#X connect 5 0 4 0;
#X connect 6 0 5 0;
#X connect 7 0 6 0;
#X connect 8 0 7 1;
#X connect 8 0 6 1;
#X connect 8 0 5 1;
#X connect 8 0 4 1;
#X connect 8 0 0 1;
#X connect 8 0 1 1;
#X connect 8 0 2 1;
#X connect 8 0 3 1;
#X connect 9 0 7 0;
#X connect 11 0 8 0;
#X restore 31 314 pd lop8~;
#X obj 259 84 readsf~;
#X obj 257 34 t f b;
#X obj 257 12 tgl 15 0 empty empty empty 17 7 0 10 -262144 -1 -1 0
1;
#X msg 321 28 1;
#X msg 284 57 open speach.wav;
#X connect 2 0 8 2;
#X connect 6 0 5 0;
#X connect 6 0 5 1;
#X connect 7 0 6 1;
#X connect 8 0 28 0;
#X connect 10 0 17 0;
#X connect 11 0 10 1;
#X connect 13 0 14 0;
#X connect 14 0 8 1;
#X connect 15 0 6 0;
#X connect 16 0 2 0;
#X connect 16 0 27 0;
#X connect 16 0 11 0;
#X connect 16 0 23 0;
#X connect 17 0 8 0;
#X connect 17 1 21 0;
#X connect 18 0 17 1;
#X connect 18 0 20 0;
#X connect 18 0 28 1;
#X connect 19 0 15 0;
#X connect 22 0 19 1;
#X connect 23 0 7 0;
#X connect 24 0 13 0;
#X connect 27 0 18 0;
#X connect 28 0 19 0;
#X connect 29 0 10 0;
#X connect 29 1 32 0;
#X connect 30 0 29 0;
#X connect 30 1 33 0;
#X connect 31 0 30 0;
#X connect 32 0 31 0;
#X connect 33 0 29 0;
#X restore 288 332 pd shiftthepitch;
#X obj 108 84 hradio 15 1 0 25 empty empty seminote 165 -25 0 10 -85959
-1 -1 12;
#X text 292 67 0;
#X text 486 84 +12;
#X text 81 83 -12;
#X obj 289 167 vsl 15 128 -1200 1200 0 0 empty empty Cents 10 -9 0
10 -45005 -1 -1 6350 1;
#N canvas 823 86 610 582 diff 1;
#X obj 121 24 inlet;
#X obj 120 125 outlet;
#X floatatom 121 50 5 0 0 0 - - -, f 5;
#X obj 121 71 * 100;
#X obj 121 96 - 1200;
#X connect 0 0 2 0;
#X connect 2 0 3 0;
#X connect 3 0 4 0;
#X connect 4 0 1 0;
#X restore 109 112 pd diff;
#X text 312 224 0;
#X text 310 160 +12;
#X text 308 289 -12;
#N canvas 674 79 458 308 initialise 1;
#X obj 121 42 loadbang;
#X obj 122 97 outlet;
#X msg 122 69 12;
#X connect 0 0 2 0;
#X connect 2 0 1 0;
#X restore 107 26 pd initialise;
#X text 469 388 (C) 2007 Mikael Fernstrom;
#X text 471 374 Vocal pitch-shifter;
#X connect 1 0 6 0;
#X connect 5 0 0 0;
#X connect 6 0 5 0;
#X connect 10 0 1 0;
