#N canvas 705 172 848 828 12;
#N canvas 0 22 157 182 init 0;
#X obj 16 21 loadbang;
#X msg 16 51 \; pd dsp 1 \; set-play 0 \; set-start 0 \; set-end 1
\; set-vol 1 \;;
#X connect 0 0 1 0;
#X restore 227 13 pd init;
#X obj 10 46 cnv 15 240 200 empty empty empty 20 12 0 14 -228856 -66577
0;
#X obj 26 152 soundfiler;
#X floatatom 26 182 10 0 0 1 length_in_samples - -, f 10;
#X obj 26 209 s len_samples;
#X msg 26 120 read -resize \$1 sample-08;
#X obj 26 88 openpanel;
#X obj 26 63 bng 15 250 50 0 empty empty empty 17 7 0 10 -262144 -1
-1;
#X obj 333 250 cnv 15 260 570 empty empty empty 20 12 0 14 -228856
-66577 0;
#X obj 597 250 cnv 15 240 570 empty empty empty 20 12 0 14 -228856
-66577 0;
#X obj 629 766 dac~;
#X obj 630 288 tgl 15 0 empty set-play play 18 8 0 12 -262144 -1 -1
0 1;
#X obj 628 468 phasor~;
#X obj 633 308 hsl 128 15 -2 2 0 0 empty empty frequency 30 8 1 12
-262144 -1 -1 6350 1;
#X floatatom 629 362 5 0 0 0 - - -, f 5;
#X obj 629 729 *~;
#X obj 639 381 r base_freq;
#X obj 628 441 *;
#X obj 629 603 tabread4~ sample-08;
#X obj 628 576 +~;
#X obj 628 521 *~;
#X obj 649 548 r start;
#X floatatom 650 654 5 0 0 1 volume - -, f 5;
#X obj 650 704 line~;
#X obj 650 678 pack 0 10;
#X obj 653 631 hsl 101 15 0 1 0 0 empty set-vol empty -2 -6 0 8 -262144
-1 -1 5500 1;
#X obj 639 409 t b f;
#X obj 643 332 r semi;
#X obj 397 563 hsl 128 15 -24 24 0 0 empty empty semitones 30 8 1 12
-262144 -1 -1 4762 1;
#N canvas 486 223 557 285 semitones 1;
#X obj 44 126 pow 2;
#X obj 81 99 / 12;
#X obj 44 155 outlet;
#X obj 44 74 t b f;
#X msg 44 99 2;
#X obj 44 48 inlet;
#X text 32 187 semitones just returns the right src from the given
semitone transposition \, e.g. (semitones 12) will return 2;
#X connect 0 0 2 0;
#X connect 1 0 0 1;
#X connect 3 0 4 0;
#X connect 3 1 1 0;
#X connect 4 0 0 0;
#X connect 5 0 3 0;
#X restore 394 645 pd semitones;
#X floatatom 394 672 7 0 0 0 - - -, f 7;
#X floatatom 394 619 5 0 0 0 - - -, f 5;
#X obj 394 591 int;
#X obj 394 702 s semi;
#X obj 394 463 metro;
#X obj 394 422 tgl 15 0 empty empty empty 17 7 0 10 -262144 -1 -1 0
1;
#X obj 431 433 / 44.1;
#X obj 394 498 random 25;
#X obj 394 528 - 12;
#X obj 9 250 cnv 15 320 570 empty empty empty 20 12 0 14 -228856 -66577
0;
#X obj 33 326 hsl 128 15 0 1 0 0 empty set-start start 50 8 1 12 -262144
-1 -1 2500 1;
#X obj 51 375 r len_samples;
#X obj 30 403 *;
#X obj 30 485 s start;
#X obj 176 538 *;
#X floatatom 30 459 10 0 0 0 - - -, f 10;
#X floatatom 176 593 10 0 0 0 - - -, f 10;
#X obj 190 373 r len_samples;
#X obj 179 327 hsl 128 15 0 1 0 0 empty set-end duration 50 8 1 12
-262144 -1 -1 8000 1;
#X floatatom 189 483 10 0 0 0 - - -, f 10;
#X obj 43 761 s base_freq;
#X obj 190 458 -;
#X obj 210 398 r start;
#X obj 210 425 t b f;
#X obj 189 508 t b f;
#X obj 43 619 / 44100;
#X obj 43 706 /;
#X obj 43 648 t b f;
#X floatatom 43 734 10 0 0 1 base_frequency - -, f 10;
#X obj 43 676 1;
#X obj 30 430 int;
#X obj 176 567 int;
#X text 336 272 Play table at different speeds;
#X text 59 15 Playing Samples 3;
#X obj 648 494 r duration;
#X obj 176 619 s duration;
#X obj 43 589 r duration;
#X text 20 267 Set different start- and endpoints \; relatively to
the soundfile duration;
#X floatatom 30 349 8 0 0 0 - - -, f 8;
#X floatatom 176 348 8 0 0 0 - - -, f 8;
#X obj 431 401 r duration;
#X obj 254 46 cnv 15 583 200 empty empty empty 20 12 0 14 -228856 -66577
0;
#N canvas 0 22 450 278 (subpatch) 0;
#X array sample-08 155648 float 2;
#X coords 0 1 155648 -1 200 140 1 0 0;
#X restore 358 89 graph;
#X connect 2 0 3 0;
#X connect 3 0 4 0;
#X connect 5 0 2 0;
#X connect 6 0 5 0;
#X connect 7 0 6 0;
#X connect 11 0 13 0;
#X connect 12 0 20 0;
#X connect 13 0 14 0;
#X connect 14 0 17 0;
#X connect 15 0 10 0;
#X connect 15 0 10 1;
#X connect 16 0 26 0;
#X connect 17 0 12 0;
#X connect 18 0 15 0;
#X connect 19 0 18 0;
#X connect 20 0 19 0;
#X connect 21 0 19 1;
#X connect 22 0 24 0;
#X connect 23 0 15 1;
#X connect 24 0 23 0;
#X connect 25 0 22 0;
#X connect 26 0 17 0;
#X connect 26 1 17 1;
#X connect 27 0 14 0;
#X connect 28 0 32 0;
#X connect 29 0 30 0;
#X connect 30 0 33 0;
#X connect 31 0 29 0;
#X connect 32 0 31 0;
#X connect 34 0 37 0;
#X connect 35 0 34 0;
#X connect 36 0 34 1;
#X connect 37 0 38 0;
#X connect 38 0 28 0;
#X connect 40 0 68 0;
#X connect 41 0 42 1;
#X connect 42 0 60 0;
#X connect 44 0 61 0;
#X connect 45 0 43 0;
#X connect 46 0 65 0;
#X connect 47 0 51 0;
#X connect 48 0 69 0;
#X connect 49 0 54 0;
#X connect 51 0 49 0;
#X connect 52 0 53 0;
#X connect 53 0 51 0;
#X connect 53 1 51 1;
#X connect 54 0 44 0;
#X connect 54 1 44 1;
#X connect 55 0 57 0;
#X connect 56 0 58 0;
#X connect 57 0 59 0;
#X connect 57 1 56 1;
#X connect 58 0 50 0;
#X connect 59 0 56 0;
#X connect 60 0 45 0;
#X connect 61 0 46 0;
#X connect 64 0 20 1;
#X connect 66 0 55 0;
#X connect 68 0 42 0;
#X connect 69 0 44 0;
#X connect 70 0 36 0;
