#N canvas 148 117 613 528 12;
#X text 65 364 Instead of using spaces \, an underscore will often
produce a tolerable compromise.;
#X obj 278 395 bng 15 250 50 0 empty empty empty 0 -6 0 8 -262144 -1
-1;
#X obj 278 419 f;
#X symbolatom 278 474 0 0 0 0 - - -;
#X obj 311 419 + 1;
#X obj 278 446 makefilename I_am_%d_years_old.;
#X obj 302 251 f;
#X symbolatom 302 305 0 0 0 0 - - -;
#X obj 346 251 + 1;
#X obj 302 278 makefilename file-%d.aif;
#X text 67 334 This file name could be used when saving the audio to
disk.;
#N canvas 325 212 532 324 all 0;
#X text 37 59 %c;
#X text 114 59 character;
#X text 37 79 %d or %i;
#X text 114 79 signed decimal integer;
#X text 37 99 %e;
#X text 114 99 scientific notation using "e" character;
#X text 37 119 %E;
#X text 114 119 scientific notation using "e" character;
#X text 37 139 %f;
#X text 37 159 %o;
#X text 114 159 signed octal;
#X text 37 179 %s;
#X text 114 179 symbol;
#X text 37 199 %u;
#X text 114 199 unsigned integer;
#X text 37 219 %x;
#X text 114 219 unsigned hexadecimal in lowercase;
#X text 37 239 %X;
#X text 114 239 unsigned hexadecimal in CAPS;
#X text 37 259 %p;
#X text 114 259 unsigned hexadecimal in lowercase preceeded by "0x"
;
#X text 24 10 This is a listing of all possible printf patterns used
in Pd's [makefilename]:;
#X text 114 139 decimal floating point (currently broken);
#X restore 67 446 pd all possible patterns;
#X floatatom 68 205 0 0 0 0 - - -;
#X text 63 294 numbered filenames;
#X symbolatom 68 263 0 0 0 0 - - -;
#X obj 69 232 makefilename soundfile%d.aif;
#X obj 303 189 bng 15 250 50 0 empty empty empty 17 7 0 10 -262144
-1 -1;
#X msg 323 211 0;
#X text 60 60 This object generates symbols according to a format string
(the argument) \, for use as a series of filenames \, table names \,
or whatnot. You can plug in a variable number ("%c" \, "%d" \, or "%X"
\, floats are converted to integers) or symbol by putting "%s" in the
string. If you use"%s" \, be sure to send it a symbol \, the rest take
numbers. there' no checking. Each [makefilename] object can have only
one variable.;
#X text 62 26 Creating filnames from incoming values or symbols;
#X connect 1 0 2 0;
#X connect 2 0 4 0;
#X connect 2 0 5 0;
#X connect 4 0 2 1;
#X connect 5 0 3 0;
#X connect 6 0 8 0;
#X connect 6 0 9 0;
#X connect 8 0 6 1;
#X connect 9 0 7 0;
#X connect 12 0 15 0;
#X connect 15 0 14 0;
#X connect 16 0 6 0;
#X connect 17 0 6 1;
