#N canvas 625 83 697 815 12;
#X msg 153 143 \; pd dsp 1;
#X msg 162 386 print;
#X msg 100 63 bang;
#X msg 77 293 start;
#X msg 53 361 stop;
#X obj 53 329 del 1000;
#X text 168 292 start streaming audio;
#X obj 168 421 osc~ 440;
#X text 65 513 writesf~ creates a subthread whose task is to write
audio streams to disk. You need not provide any disk access time between
"open" and "start" \, but between "stop" and the next "open" you must
give the object time to flush all the output to disk.;
#X msg 151 242 open -bytes 4 /tmp/foo.wav;
#X text 397 186 create a new 16-bit soundfile;
#X text 418 214 create 24-bit soundfile;
#X text 376 242 create 32-bit floating-point soundfile;
#X text 64 595 The soundfile is 2- or 3-byte fixed point ("pcm") or
4-byte floating-point. The soundfile format is determined by the file
extent ("foo.wav" \, "foo.aiff" \, or "foo.snd").;
#X text 97 669 -wave \, -nextstep \, -aiff;
#X text 98 690 -big \, -little (nextstep only!);
#X text 98 733 -rate <sample rate>;
#X text 63 651 The "open" message may take flag-style arguments as
follows:;
#X text 58 754 (setting sample rate will affect the soundfile header
but the file will _not_ be resampled.);
#X text 220 481 creation argument is number of channels (1 to 64).
;
#X text 165 351 stop streaming audio;
#X text 167 321 wait 1 second before;
#X text 215 386 print some information;
#X msg 126 186 open /Users/born/Desktop/foo.wav;
#X obj 126 481 writesf~ 1;
#X text 231 450 provide a minimal headroom;
#X text 156 74 VERY IMPORTANT! DSP has to be turned on before a soundstream
is opened. Otherwise the soundfile is not written properly.;
#X text 50 26 [writesf~] -- write/stream audio signals to a soundfile
;
#X obj 168 449 *~ 0.99;
#X text 98 711 -bytes <2 = 16 \, 3 = 24 \, or 4 = 32 byte>;
#X obj 100 117 t b b b;
#X msg 138 215 open -bytes 3 ./99-Sounds/foo.wav;
#X connect 1 0 24 0;
#X connect 2 0 30 0;
#X connect 3 0 24 0;
#X connect 4 0 24 0;
#X connect 5 0 4 0;
#X connect 7 0 28 0;
#X connect 9 0 24 0;
#X connect 23 0 24 0;
#X connect 28 0 24 0;
#X connect 30 0 3 0;
#X connect 30 0 5 0;
#X connect 30 1 23 0;
#X connect 30 2 0 0;
#X connect 31 0 24 0;
