#N canvas 462 112 484 312 12;
#X obj 75 88 adc~ 1;
#X obj 75 173 *~;
#X obj 93 140 tgl 19 0 empty empty empty 0 -10 0 12 #fcfcfc #000000 #000000 0 0.5;
#X obj 75 230 dac~ 1;
#X obj 145 173 *~;
#X obj 163 140 tgl 19 0 empty empty empty 0 -10 0 12 #fcfcfc #000000 #000000 0 0.5;
#X obj 145 88 adc~ 2;
#X obj 145 230 dac~ 2;
#X obj 208 173 *~;
#X obj 226 140 tgl 19 0 empty empty empty 0 -10 0 12 #fcfcfc #000000 #000000 0 0.5;
#X obj 266 173 *~;
#X obj 284 140 tgl 19 0 empty empty empty 0 -10 0 12 #fcfcfc #000000 #000000 0 0.5;
#X obj 208 88 adc~ 3;
#X obj 266 88 adc~ 4;
#X obj 208 261 dac~ 2;
#X obj 266 261 dac~ 1;
#X text 23 21 Set "Input Devices" in "Audio Settings" to "Blackhole 16ch" and Channels to 4 In "Output Devices" to the same accordingly.;
#X obj 266 201 rev2~ 100 90 3000 20;
#X obj 208 234 rev2~ 100 95 4000 20;
#X connect 0 0 1 0;
#X connect 1 0 3 0;
#X connect 2 0 1 1;
#X connect 4 0 7 0;
#X connect 5 0 4 1;
#X connect 6 0 4 0;
#X connect 8 0 18 0;
#X connect 9 0 8 1;
#X connect 10 0 17 0;
#X connect 11 0 10 1;
#X connect 12 0 8 0;
#X connect 13 0 10 0;
#X connect 17 0 15 0;
#X connect 18 0 14 0;
#X coords 0 312 1 311 160 50 0;
